<?xml version="1.0" encoding="utf-8" standalone="no"?>
<!DOCTYPE svg PUBLIC "-//W3C//DTD SVG 1.1//EN"
  "http://www.w3.org/Graphics/SVG/1.1/DTD/svg11.dtd">
<svg xmlns:xlink="http://www.w3.org/1999/xlink" width="460.8pt" height="345.6pt" viewBox="0 0 460.8 345.6" xmlns="http://www.w3.org/2000/svg" version="1.1">
 <metadata>
  <rdf:RDF xmlns:dc="http://purl.org/dc/elements/1.1/" xmlns:cc="http://creativecommons.org/ns#" xmlns:rdf="http://www.w3.org/1999/02/22-rdf-syntax-ns#">
   <cc:Work>
    <dc:type rdf:resource="http://purl.org/dc/dcmitype/StillImage"/>
    <dc:date>2023-02-20T16:45:49.033093</dc:date>
    <dc:format>image/svg+xml</dc:format>
    <dc:creator>
     <cc:Agent>
      <dc:title>Matplotlib v3.5.3, https://matplotlib.org/</dc:title>
     </cc:Agent>
    </dc:creator>
   </cc:Work>
  </rdf:RDF>
 </metadata>
 <defs>
  <style type="text/css">*{stroke-linejoin: round; stroke-linecap: butt}</style>
 </defs>
 <g id="figure_1">
  <g id="patch_1">
   <path d="M 0 345.6 
L 460.8 345.6 
L 460.8 0 
L 0 0 
z
" style="fill: #ffffff"/>
  </g>
  <g id="axes_1">
   <g id="patch_2">
    <path d="M 57.6 307.584 
L 343.296 307.584 
L 343.296 41.472 
L 57.6 41.472 
z
" style="fill: #ffffff"/>
   </g>
   <g id="PathCollection_1">
    <path d="M 305.2032 44.895695 
L 324.2496 52.903541 
L 343.296 60.875983 
L 343.296 41.472 
L 324.2496 41.472 
L 305.2032 41.472 
L 297.240081 41.472 
z
" clip-path="url(#p489636bb04)" style="fill: #6d0220"/>
   </g>
   <g id="PathCollection_2">
    <path d="M 343.296 83.42849 
L 343.296 79.488 
L 343.296 60.875983 
L 324.2496 52.903541 
L 305.2032 44.895695 
L 297.240081 41.472 
L 286.1568 41.472 
L 267.1104 41.472 
L 248.559138 41.472 
L 267.1104 50.062847 
L 286.1568 58.827498 
L 305.2032 67.548888 
L 324.2496 76.231333 
L 331.550676 79.488 
z
" clip-path="url(#p489636bb04)" style="fill: #7f0823"/>
   </g>
   <g id="PathCollection_3">
    <path d="M 286.1568 80.453895 
L 305.2032 87.331476 
L 324.2496 94.170351 
L 343.296 100.974255 
L 343.296 83.42849 
L 331.550676 79.488 
L 324.2496 76.231333 
L 305.2032 67.548888 
L 286.1568 58.827498 
L 267.1104 50.062847 
L 248.559138 41.472 
L 248.064 41.472 
L 229.0176 41.472 
L 209.9712 41.472 
L 207.549783 41.472 
L 209.9712 42.739836 
L 229.0176 52.340551 
L 248.064 61.880907 
L 267.1104 71.367589 
L 283.567039 79.488 
z
" clip-path="url(#p489636bb04)" style="fill: #8d0c25"/>
   </g>
   <g id="PathCollection_4">
    <path d="M 343.296 118.204231 
L 343.296 117.504 
L 343.296 100.974255 
L 324.2496 94.170351 
L 305.2032 87.331476 
L 286.1568 80.453895 
L 283.567039 79.488 
L 267.1104 71.367589 
L 248.064 61.880907 
L 229.0176 52.340551 
L 209.9712 42.739836 
L 207.549783 41.472 
L 190.9248 41.472 
L 172.272469 41.472 
L 190.9248 51.682648 
L 209.9712 62.024233 
L 229.0176 72.298037 
L 242.556052 79.488 
L 248.064 81.707438 
L 267.1104 89.156042 
L 286.1568 96.557004 
L 305.2032 103.915238 
L 324.2496 111.235006 
L 340.702571 117.504 
z
" clip-path="url(#p489636bb04)" style="fill: #9c1127"/>
   </g>
   <g id="PathCollection_5">
    <path d="M 305.2032 119.572427 
L 324.2496 124.951773 
L 343.296 130.296583 
L 343.296 118.204231 
L 340.702571 117.504 
L 324.2496 111.235006 
L 305.2032 103.915238 
L 286.1568 96.557004 
L 267.1104 89.156042 
L 248.064 81.707438 
L 242.556052 79.488 
L 229.0176 72.298037 
L 209.9712 62.024233 
L 190.9248 51.682648 
L 172.272469 41.472 
L 171.8784 41.472 
L 152.832 41.472 
L 141.94939 41.472 
L 152.832 48.025457 
L 171.8784 59.203618 
L 190.9248 70.29438 
L 206.915069 79.488 
L 209.9712 80.827057 
L 229.0176 88.868369 
L 248.064 96.85007 
L 267.1104 104.778764 
L 286.1568 112.660112 
L 298.057941 117.504 
z
" clip-path="url(#p489636bb04)" style="fill: #ae172a"/>
   </g>
   <g id="PathCollection_6">
    <path d="M 267.1104 119.509814 
L 286.1568 125.288813 
L 305.2032 131.025617 
L 324.2496 136.724436 
L 343.296 142.388934 
L 343.296 130.296583 
L 324.2496 124.951773 
L 305.2032 119.572427 
L 298.057941 117.504 
L 286.1568 112.660112 
L 267.1104 104.778764 
L 248.064 96.85007 
L 229.0176 88.868369 
L 209.9712 80.827057 
L 206.915069 79.488 
L 190.9248 70.29438 
L 171.8784 59.203618 
L 152.832 48.025457 
L 141.94939 41.472 
L 133.7856 41.472 
L 115.057135 41.472 
L 133.7856 53.343747 
L 152.832 65.29337 
L 171.8784 77.143167 
L 175.78818 79.488 
L 190.9248 86.422918 
L 209.9712 95.01055 
L 229.0176 103.531245 
L 248.064 111.992702 
L 260.681023 117.504 
z
" clip-path="url(#p489636bb04)" style="fill: #b72230"/>
   </g>
   <g id="PathCollection_7">
    <path d="M 229.0176 117.983035 
L 248.064 124.180092 
L 267.1104 130.324806 
L 286.1568 136.422771 
L 305.2032 142.478808 
L 324.2496 148.497098 
L 343.296 154.481286 
L 343.296 142.388934 
L 324.2496 136.724436 
L 305.2032 131.025617 
L 286.1568 125.288813 
L 267.1104 119.509814 
L 260.681023 117.504 
L 248.064 111.992702 
L 229.0176 103.531245 
L 209.9712 95.01055 
L 190.9248 86.422918 
L 175.78818 79.488 
L 171.8784 77.143167 
L 152.832 65.29337 
L 133.7856 53.343747 
L 115.057135 41.472 
L 114.7392 41.472 
L 95.6928 41.472 
L 91.64984 41.472 
L 95.6928 44.335981 
L 114.7392 57.205236 
L 133.7856 69.940655 
L 148.331603 79.488 
L 152.832 81.756866 
L 171.8784 90.98531 
L 190.9248 100.127451 
L 209.9712 109.194042 
L 227.601333 117.504 
z
" clip-path="url(#p489636bb04)" style="fill: #be3036"/>
   </g>
   <g id="PathCollection_8">
    <path d="M 324.2496 158.53295 
L 343.296 162.520872 
L 343.296 155.52 
L 343.296 154.481286 
L 324.2496 148.497098 
L 305.2032 142.478808 
L 286.1568 136.422771 
L 267.1104 130.324806 
L 248.064 124.180092 
L 229.0176 117.983035 
L 227.601333 117.504 
L 209.9712 109.194042 
L 190.9248 100.127451 
L 171.8784 90.98531 
L 152.832 81.756866 
L 148.331603 79.488 
L 133.7856 69.940655 
L 114.7392 57.205236 
L 95.6928 44.335981 
L 91.64984 41.472 
L 76.6464 41.472 
L 70.764961 41.472 
L 76.6464 45.898168 
L 95.6928 59.593189 
L 114.7392 73.131869 
L 123.965744 79.488 
L 133.7856 84.700051 
L 152.832 94.504989 
L 171.8784 104.211363 
L 190.9248 113.831984 
L 198.407107 117.504 
L 209.9712 121.587142 
L 229.0176 128.161023 
L 248.064 134.676415 
L 267.1104 141.139799 
L 286.1568 147.556729 
L 305.2032 153.931998 
L 310.074573 155.52 
z
" clip-path="url(#p489636bb04)" style="fill: #c53e3d"/>
   </g>
   <g id="PathCollection_9">
    <path d="M 286.1568 157.538123 
L 305.2032 161.78816 
L 324.2496 166.000787 
L 343.296 170.179618 
L 343.296 162.520872 
L 324.2496 158.53295 
L 310.074573 155.52 
L 305.2032 153.931998 
L 286.1568 147.556729 
L 267.1104 141.139799 
L 248.064 134.676415 
L 229.0176 128.161023 
L 209.9712 121.587142 
L 198.407107 117.504 
L 190.9248 113.831984 
L 171.8784 104.211363 
L 152.832 94.504989 
L 133.7856 84.700051 
L 123.965744 79.488 
L 114.7392 73.131869 
L 95.6928 59.593189 
L 76.6464 45.898168 
L 70.764961 41.472 
L 57.6 41.472 
L 57.6 45.939185 
L 76.6464 60.486952 
L 95.6928 74.850397 
L 102.090791 79.488 
L 114.7392 86.575306 
L 133.7856 96.970875 
L 152.832 107.253113 
L 171.8784 117.437417 
L 172.008484 117.504 
L 190.9248 124.489658 
L 209.9712 131.447168 
L 229.0176 138.339011 
L 248.064 145.172739 
L 267.1104 151.954791 
L 277.329176 155.52 
z
" clip-path="url(#p489636bb04)" style="fill: #ce4f45"/>
   </g>
   <g id="PathCollection_10">
    <path d="M 248.064 155.615244 
L 267.1104 160.14305 
L 286.1568 164.624821 
L 305.2032 169.065307 
L 324.2496 173.468625 
L 343.296 177.838364 
L 343.296 170.179618 
L 324.2496 166.000787 
L 305.2032 161.78816 
L 286.1568 157.538123 
L 277.329176 155.52 
L 267.1104 151.954791 
L 248.064 145.172739 
L 229.0176 138.339011 
L 209.9712 131.447168 
L 190.9248 124.489658 
L 172.008484 117.504 
L 171.8784 117.437417 
L 152.832 107.253113 
L 133.7856 96.970875 
L 114.7392 86.575306 
L 102.090791 79.488 
L 95.6928 74.850397 
L 76.6464 60.486952 
L 57.6 45.939185 
L 57.6 59.860732 
L 76.6464 75.075736 
L 82.4156 79.488 
L 95.6928 87.366137 
L 114.7392 98.369559 
L 133.7856 109.241698 
L 148.539634 117.504 
L 152.832 119.249173 
L 171.8784 126.682987 
L 190.9248 134.032145 
L 209.9712 141.307194 
L 229.0176 148.516999 
L 247.678833 155.52 
z
" clip-path="url(#p489636bb04)" style="fill: #d55d4c"/>
   </g>
   <g id="PathCollection_11">
    <path d="M 229.0176 157.552982 
L 248.064 162.321879 
L 267.1104 167.039567 
L 286.1568 171.711519 
L 305.2032 176.342453 
L 324.2496 180.936462 
L 343.296 185.49711 
L 343.296 177.838364 
L 324.2496 173.468625 
L 305.2032 169.065307 
L 286.1568 164.624821 
L 267.1104 160.14305 
L 248.064 155.615244 
L 247.678833 155.52 
L 229.0176 148.516999 
L 209.9712 141.307194 
L 190.9248 134.032145 
L 171.8784 126.682987 
L 152.832 119.249173 
L 148.539634 117.504 
L 133.7856 109.241698 
L 114.7392 98.369559 
L 95.6928 87.366137 
L 82.4156 79.488 
L 76.6464 75.075736 
L 57.6 59.860732 
L 57.6 73.78228 
L 64.649024 79.488 
L 76.6464 87.052189 
L 95.6928 98.684671 
L 114.7392 110.163813 
L 127.229488 117.504 
L 133.7856 120.311097 
L 152.832 128.158093 
L 171.8784 135.908417 
L 190.9248 143.574633 
L 209.9712 151.167221 
L 221.131447 155.52 
z
" clip-path="url(#p489636bb04)" style="fill: #dc6e57"/>
   </g>
   <g id="PathCollection_12">
    <path d="M 209.9712 159.054413 
L 229.0176 164.07007 
L 248.064 169.028514 
L 267.1104 173.936084 
L 286.1568 178.798217 
L 305.2032 183.6196 
L 324.2496 188.4043 
L 343.296 193.155856 
L 343.296 185.49711 
L 324.2496 180.936462 
L 305.2032 176.342453 
L 286.1568 171.711519 
L 267.1104 167.039567 
L 248.064 162.321879 
L 229.0176 157.552982 
L 221.131447 155.52 
L 209.9712 151.167221 
L 190.9248 143.574633 
L 171.8784 135.908417 
L 152.832 128.158093 
L 133.7856 120.311097 
L 127.229488 117.504 
L 114.7392 110.163813 
L 95.6928 98.684671 
L 76.6464 87.052189 
L 64.649024 79.488 
L 57.6 73.78228 
L 57.6 79.488 
L 57.6 85.608043 
L 76.6464 97.896005 
L 95.6928 110.003206 
L 107.825336 117.504 
L 114.7392 120.630123 
L 133.7856 128.904139 
L 152.832 137.067013 
L 171.8784 145.133846 
L 190.9248 153.117121 
L 196.843276 155.52 
z
" clip-path="url(#p489636bb04)" style="fill: #e27b62"/>
   </g>
   <g id="PathCollection_13">
    <path d="M 324.2496 194.987327 
L 343.296 198.043371 
L 343.296 193.536 
L 343.296 193.155856 
L 324.2496 188.4043 
L 305.2032 183.6196 
L 286.1568 178.798217 
L 267.1104 173.936084 
L 248.064 169.028514 
L 229.0176 164.07007 
L 209.9712 159.054413 
L 196.843276 155.52 
L 190.9248 153.117121 
L 171.8784 145.133846 
L 152.832 137.067013 
L 133.7856 128.904139 
L 114.7392 120.630123 
L 107.825336 117.504 
L 95.6928 110.003206 
L 76.6464 97.896005 
L 57.6 85.608043 
L 57.6 95.978328 
L 76.6464 108.739821 
L 90.084557 117.504 
L 95.6928 120.19012 
L 114.7392 128.908015 
L 133.7856 137.49718 
L 152.832 145.975933 
L 171.8784 154.359276 
L 174.620222 155.52 
L 190.9248 160.113277 
L 209.9712 165.382331 
L 229.0176 170.587159 
L 248.064 175.735149 
L 267.1104 180.832601 
L 286.1568 185.884915 
L 305.2032 190.896747 
L 315.429187 193.536 
z
" clip-path="url(#p489636bb04)" style="fill: #e8896c"/>
   </g>
   <g id="PathCollection_14">
    <path d="M 305.2032 196.427103 
L 324.2496 199.626727 
L 343.296 202.786151 
L 343.296 198.043371 
L 324.2496 194.987327 
L 315.429187 193.536 
L 305.2032 190.896747 
L 286.1568 185.884915 
L 267.1104 180.832601 
L 248.064 175.735149 
L 229.0176 170.587159 
L 209.9712 165.382331 
L 190.9248 160.113277 
L 174.620222 155.52 
L 171.8784 154.359276 
L 152.832 145.975933 
L 133.7856 137.49718 
L 114.7392 128.908015 
L 95.6928 120.19012 
L 90.084557 117.504 
L 76.6464 108.739821 
L 57.6 95.978328 
L 57.6 106.348612 
L 73.76453 117.504 
L 76.6464 118.971181 
L 95.6928 128.153714 
L 114.7392 137.185908 
L 133.7856 146.090221 
L 152.832 154.884853 
L 154.268189 155.52 
L 171.8784 160.72218 
L 190.9248 166.25245 
L 209.9712 171.710249 
L 229.0176 177.104247 
L 248.064 182.441785 
L 267.1104 187.729118 
L 286.1568 192.971613 
L 288.272476 193.536 
z
" clip-path="url(#p489636bb04)" style="fill: #ef9979"/>
   </g>
   <g id="PathCollection_15">
    <path d="M 267.1104 194.220323 
L 286.1568 197.616489 
L 305.2032 200.963426 
L 324.2496 204.266126 
L 343.296 207.52893 
L 343.296 202.786151 
L 324.2496 199.626727 
L 305.2032 196.427103 
L 288.272476 193.536 
L 286.1568 192.971613 
L 267.1104 187.729118 
L 248.064 182.441785 
L 229.0176 177.104247 
L 209.9712 171.710249 
L 190.9248 166.25245 
L 171.8784 160.72218 
L 154.268189 155.52 
L 152.832 154.884853 
L 133.7856 146.090221 
L 114.7392 137.185908 
L 95.6928 128.153714 
L 76.6464 118.971181 
L 73.76453 117.504 
L 57.6 106.348612 
L 57.6 116.718897 
L 58.737641 117.504 
L 76.6464 126.621478 
L 95.6928 136.117309 
L 114.7392 145.4638 
L 133.7856 154.683263 
L 135.59308 155.52 
L 152.832 160.872324 
L 171.8784 166.673092 
L 190.9248 172.391623 
L 209.9712 178.038167 
L 229.0176 183.621335 
L 248.064 189.14842 
L 263.405346 193.536 
z
" clip-path="url(#p489636bb04)" style="fill: #f4a683"/>
   </g>
   <g id="PathCollection_16">
    <path d="M 248.064 194.998417 
L 267.1104 198.551536 
L 286.1568 202.05007 
L 305.2032 205.499748 
L 324.2496 208.905526 
L 343.296 212.27171 
L 343.296 207.52893 
L 324.2496 204.266126 
L 305.2032 200.963426 
L 286.1568 197.616489 
L 267.1104 194.220323 
L 263.405346 193.536 
L 248.064 189.14842 
L 229.0176 183.621335 
L 209.9712 178.038167 
L 190.9248 172.391623 
L 171.8784 166.673092 
L 152.832 160.872324 
L 135.59308 155.52 
L 133.7856 154.683263 
L 114.7392 145.4638 
L 95.6928 136.117309 
L 76.6464 126.621478 
L 58.737641 117.504 
L 57.6 116.718897 
L 57.6 117.504 
L 57.6 124.286634 
L 76.6464 134.271775 
L 95.6928 144.080904 
L 114.7392 153.741693 
L 118.4008 155.52 
L 133.7856 160.553158 
L 152.832 166.635526 
L 171.8784 172.624003 
L 190.9248 178.530796 
L 209.9712 184.366085 
L 229.0176 190.138424 
L 240.468773 193.536 
z
" clip-path="url(#p489636bb04)" style="fill: #f6b191"/>
   </g>
   <g id="PathCollection_17">
    <path d="M 229.0176 195.511831 
L 248.064 199.22768 
L 267.1104 202.882749 
L 286.1568 206.483651 
L 305.2032 210.03607 
L 324.2496 213.544925 
L 343.296 217.01449 
L 343.296 212.27171 
L 324.2496 208.905526 
L 305.2032 205.499748 
L 286.1568 202.05007 
L 267.1104 198.551536 
L 248.064 194.998417 
L 240.468773 193.536 
L 229.0176 190.138424 
L 209.9712 184.366085 
L 190.9248 178.530796 
L 171.8784 172.624003 
L 152.832 166.635526 
L 133.7856 160.553158 
L 118.4008 155.52 
L 114.7392 153.741693 
L 95.6928 144.080904 
L 76.6464 134.271775 
L 57.6 124.286634 
L 57.6 131.624821 
L 76.6464 141.922072 
L 95.6928 152.044498 
L 102.497251 155.52 
L 114.7392 159.75192 
L 133.7856 166.129286 
L 152.832 172.398728 
L 171.8784 178.574914 
L 190.9248 184.669969 
L 209.9712 190.694003 
L 219.191127 193.536 
z
" clip-path="url(#p489636bb04)" style="fill: #f8bda1"/>
   </g>
   <g id="PathCollection_18">
    <path d="M 76.6464 307.584 
L 95.6928 307.584 
L 114.7392 307.584 
L 133.7856 307.584 
L 152.832 307.584 
L 171.8784 307.584 
L 190.9248 307.584 
L 209.9712 307.584 
L 229.0176 307.584 
L 248.064 307.584 
L 267.1104 307.584 
L 286.1568 307.584 
L 305.2032 307.584 
L 324.2496 307.584 
L 343.296 307.584 
L 343.296 305.65702 
L 324.2496 305.802306 
L 305.2032 305.932657 
L 286.1568 306.050262 
L 267.1104 306.156904 
L 248.064 306.254048 
L 229.0176 306.342908 
L 209.9712 306.424501 
L 190.9248 306.499683 
L 171.8784 306.569181 
L 152.832 306.633616 
L 133.7856 306.693523 
L 114.7392 306.749362 
L 95.6928 306.801533 
L 76.6464 306.850388 
L 57.6 306.896232 
L 57.6 307.584 
z
" clip-path="url(#p489636bb04)" style="fill: #fac8af"/>
    <path d="M 209.9712 195.754297 
L 229.0176 199.639613 
L 248.064 203.456943 
L 267.1104 207.213963 
L 286.1568 210.917232 
L 305.2032 214.572393 
L 324.2496 218.184325 
L 343.296 221.75727 
L 343.296 217.01449 
L 324.2496 213.544925 
L 305.2032 210.03607 
L 286.1568 206.483651 
L 267.1104 202.882749 
L 248.064 199.22768 
L 229.0176 195.511831 
L 219.191127 193.536 
L 209.9712 190.694003 
L 190.9248 184.669969 
L 171.8784 178.574914 
L 152.832 172.398728 
L 133.7856 166.129286 
L 114.7392 159.75192 
L 102.497251 155.52 
L 95.6928 152.044498 
L 76.6464 141.922072 
L 57.6 131.624821 
L 57.6 138.963008 
L 76.6464 149.572369 
L 87.688336 155.52 
L 95.6928 158.453021 
L 114.7392 165.141707 
L 133.7856 171.705413 
L 152.832 178.16193 
L 171.8784 184.525826 
L 190.9248 190.809142 
L 199.426765 193.536 
z
" clip-path="url(#p489636bb04)" style="fill: #fac8af"/>
   </g>
   <g id="PathCollection_19">
    <path d="M 76.6464 306.850388 
L 95.6928 306.801533 
L 114.7392 306.749362 
L 133.7856 306.693523 
L 152.832 306.633616 
L 171.8784 306.569181 
L 190.9248 306.499683 
L 209.9712 306.424501 
L 229.0176 306.342908 
L 248.064 306.254048 
L 267.1104 306.156904 
L 286.1568 306.050262 
L 305.2032 305.932657 
L 324.2496 305.802306 
L 343.296 305.65702 
L 343.296 302.119406 
L 324.2496 302.531414 
L 305.2032 302.901066 
L 286.1568 303.234575 
L 267.1104 303.536994 
L 248.064 303.812478 
L 229.0176 304.06447 
L 209.9712 304.295854 
L 190.9248 304.509058 
L 171.8784 304.706143 
L 152.832 304.888871 
L 133.7856 305.058756 
L 114.7392 305.217105 
L 95.6928 305.365055 
L 76.6464 305.503599 
L 57.6 305.633604 
L 57.6 306.896232 
z
" clip-path="url(#p489636bb04)" style="fill: #fcd3bc"/>
    <path d="M 190.9248 195.718438 
L 209.9712 199.781126 
L 229.0176 203.767394 
L 248.064 207.686206 
L 267.1104 211.545176 
L 286.1568 215.350813 
L 305.2032 219.108715 
L 324.2496 222.823725 
L 343.296 226.50005 
L 343.296 221.75727 
L 324.2496 218.184325 
L 305.2032 214.572393 
L 286.1568 210.917232 
L 267.1104 207.213963 
L 248.064 203.456943 
L 229.0176 199.639613 
L 209.9712 195.754297 
L 199.426765 193.536 
L 190.9248 190.809142 
L 171.8784 184.525826 
L 152.832 178.16193 
L 133.7856 171.705413 
L 114.7392 165.141707 
L 95.6928 158.453021 
L 87.688336 155.52 
L 76.6464 149.572369 
L 57.6 138.963008 
L 57.6 146.301194 
L 73.77996 155.52 
L 76.6464 156.637223 
L 95.6928 163.657324 
L 114.7392 170.531494 
L 133.7856 177.28154 
L 152.832 183.925132 
L 171.8784 190.476737 
L 181.030044 193.536 
z
" clip-path="url(#p489636bb04)" style="fill: #fcd3bc"/>
   </g>
   <g id="PathCollection_20">
    <path d="M 76.6464 305.503599 
L 95.6928 305.365055 
L 114.7392 305.217105 
L 133.7856 305.058756 
L 152.832 304.888871 
L 171.8784 304.706143 
L 190.9248 304.509058 
L 209.9712 304.295854 
L 229.0176 304.06447 
L 248.064 303.812478 
L 267.1104 303.536994 
L 286.1568 303.234575 
L 305.2032 302.901066 
L 324.2496 302.531414 
L 343.296 302.119406 
L 343.296 298.581792 
L 324.2496 299.260521 
L 305.2032 299.869476 
L 286.1568 300.418888 
L 267.1104 300.917084 
L 248.064 301.370907 
L 229.0176 301.786033 
L 209.9712 302.167207 
L 190.9248 302.518432 
L 171.8784 302.843105 
L 152.832 303.144125 
L 133.7856 303.423988 
L 114.7392 303.684848 
L 95.6928 303.928577 
L 76.6464 304.156809 
L 57.6 304.370976 
L 57.6 305.633604 
z
" clip-path="url(#p489636bb04)" style="fill: #fddecb"/>
    <path d="M 171.8784 195.395507 
L 190.9248 199.644912 
L 209.9712 203.807954 
L 229.0176 207.895176 
L 248.064 211.915469 
L 267.1104 215.876389 
L 286.1568 219.784393 
L 305.2032 223.645037 
L 324.2496 227.463124 
L 343.296 231.24283 
L 343.296 226.50005 
L 324.2496 222.823725 
L 305.2032 219.108715 
L 286.1568 215.350813 
L 267.1104 211.545176 
L 248.064 207.686206 
L 229.0176 203.767394 
L 209.9712 199.781126 
L 190.9248 195.718438 
L 181.030044 193.536 
L 171.8784 190.476737 
L 152.832 183.925132 
L 133.7856 177.28154 
L 114.7392 170.531494 
L 95.6928 163.657324 
L 76.6464 156.637223 
L 73.77996 155.52 
L 57.6 146.301194 
L 57.6 153.639381 
L 60.900681 155.52 
L 76.6464 161.657049 
L 95.6928 168.861627 
L 114.7392 175.921281 
L 133.7856 182.857667 
L 152.832 189.688334 
L 163.855323 193.536 
z
" clip-path="url(#p489636bb04)" style="fill: #fddecb"/>
   </g>
   <g id="PathCollection_21">
    <path d="M 76.6464 304.156809 
L 95.6928 303.928577 
L 114.7392 303.684848 
L 133.7856 303.423988 
L 152.832 303.144125 
L 171.8784 302.843105 
L 190.9248 302.518432 
L 209.9712 302.167207 
L 229.0176 301.786033 
L 248.064 301.370907 
L 267.1104 300.917084 
L 286.1568 300.418888 
L 305.2032 299.869476 
L 324.2496 299.260521 
L 343.296 298.581792 
L 343.296 295.044178 
L 324.2496 295.989629 
L 305.2032 296.837885 
L 286.1568 297.603201 
L 267.1104 298.297175 
L 248.064 298.929337 
L 229.0176 299.507595 
L 209.9712 300.03856 
L 190.9248 300.527807 
L 171.8784 300.980066 
L 152.832 301.39938 
L 133.7856 301.789221 
L 114.7392 302.152592 
L 95.6928 302.492099 
L 76.6464 302.81002 
L 57.6 303.108349 
L 57.6 304.370976 
z
" clip-path="url(#p489636bb04)" style="fill: #fee5d6"/>
    <path d="M 324.2496 232.102369 
L 343.296 235.919798 
L 343.296 231.552 
L 343.296 231.24283 
L 324.2496 227.463124 
L 305.2032 223.645037 
L 286.1568 219.784393 
L 267.1104 215.876389 
L 248.064 211.915469 
L 229.0176 207.895176 
L 209.9712 203.807954 
L 190.9248 199.644912 
L 171.8784 195.395507 
L 163.855323 193.536 
L 152.832 189.688334 
L 133.7856 182.857667 
L 114.7392 175.921281 
L 95.6928 168.861627 
L 76.6464 161.657049 
L 60.900681 155.52 
L 57.6 153.639381 
L 57.6 155.52 
L 57.6 159.117042 
L 76.6464 166.676875 
L 95.6928 174.06593 
L 114.7392 181.311067 
L 133.7856 188.433794 
L 147.756957 193.536 
L 152.832 194.775058 
L 171.8784 199.222307 
L 190.9248 203.571385 
L 209.9712 207.834783 
L 229.0176 212.022958 
L 248.064 216.144733 
L 267.1104 220.207602 
L 286.1568 224.217974 
L 305.2032 228.18136 
L 321.626752 231.552 
z
" clip-path="url(#p489636bb04)" style="fill: #fee5d6"/>
   </g>
   <g id="PathCollection_22">
    <path d="M 76.6464 302.81002 
L 95.6928 302.492099 
L 114.7392 302.152592 
L 133.7856 301.789221 
L 152.832 301.39938 
L 171.8784 300.980066 
L 190.9248 300.527807 
L 209.9712 300.03856 
L 229.0176 299.507595 
L 248.064 298.929337 
L 267.1104 298.297175 
L 286.1568 297.603201 
L 305.2032 296.837885 
L 324.2496 295.989629 
L 343.296 295.044178 
L 343.296 291.506564 
L 324.2496 292.718736 
L 305.2032 293.806294 
L 286.1568 294.787514 
L 267.1104 295.677265 
L 248.064 296.487767 
L 229.0176 297.229157 
L 209.9712 297.909913 
L 190.9248 298.537182 
L 171.8784 299.117028 
L 152.832 299.654634 
L 133.7856 300.154454 
L 114.7392 300.620335 
L 95.6928 301.055621 
L 76.6464 301.46323 
L 57.6 301.845721 
L 57.6 303.108349 
z
" clip-path="url(#p489636bb04)" style="fill: #feece1"/>
    <path d="M 305.2032 232.735784 
L 324.2496 236.740465 
L 343.296 240.592177 
L 343.296 235.919798 
L 324.2496 232.102369 
L 321.626752 231.552 
L 305.2032 228.18136 
L 286.1568 224.217974 
L 267.1104 220.207602 
L 248.064 216.144733 
L 229.0176 212.022958 
L 209.9712 207.834783 
L 190.9248 203.571385 
L 171.8784 199.222307 
L 152.832 194.775058 
L 147.756957 193.536 
L 133.7856 188.433794 
L 114.7392 181.311067 
L 95.6928 174.06593 
L 76.6464 166.676875 
L 57.6 159.117042 
L 57.6 163.953585 
L 76.6464 171.696701 
L 95.6928 179.270233 
L 114.7392 186.700854 
L 132.589305 193.536 
L 133.7856 193.844511 
L 152.832 198.502966 
L 171.8784 203.049107 
L 190.9248 207.497859 
L 209.9712 211.861611 
L 229.0176 216.150739 
L 248.064 220.373996 
L 267.1104 224.538816 
L 286.1568 228.651555 
L 299.831746 231.552 
z
" clip-path="url(#p489636bb04)" style="fill: #feece1"/>
   </g>
   <g id="PathCollection_23">
    <path d="M 76.6464 301.46323 
L 95.6928 301.055621 
L 114.7392 300.620335 
L 133.7856 300.154454 
L 152.832 299.654634 
L 171.8784 299.117028 
L 190.9248 298.537182 
L 209.9712 297.909913 
L 229.0176 297.229157 
L 248.064 296.487767 
L 267.1104 295.677265 
L 286.1568 294.787514 
L 305.2032 293.806294 
L 324.2496 292.718736 
L 343.296 291.506564 
L 343.296 287.96895 
L 324.2496 289.447844 
L 305.2032 290.774704 
L 286.1568 291.971827 
L 267.1104 293.057355 
L 248.064 294.046197 
L 229.0176 294.950719 
L 209.9712 295.781266 
L 190.9248 296.546557 
L 171.8784 297.25399 
L 152.832 297.909889 
L 133.7856 298.519687 
L 114.7392 299.088078 
L 95.6928 299.619143 
L 76.6464 300.116441 
L 57.6 300.583093 
L 57.6 301.845721 
z
" clip-path="url(#p489636bb04)" style="fill: #fef4ef"/>
    <path d="M 286.1568 233.135357 
L 305.2032 237.342552 
L 324.2496 241.378561 
L 343.296 245.264555 
L 343.296 240.592177 
L 324.2496 236.740465 
L 305.2032 232.735784 
L 299.831746 231.552 
L 286.1568 228.651555 
L 267.1104 224.538816 
L 248.064 220.373996 
L 229.0176 216.150739 
L 209.9712 211.861611 
L 190.9248 207.497859 
L 171.8784 203.049107 
L 152.832 198.502966 
L 133.7856 193.844511 
L 132.589305 193.536 
L 114.7392 186.700854 
L 95.6928 179.270233 
L 76.6464 171.696701 
L 57.6 163.953585 
L 57.6 168.790129 
L 76.6464 176.716526 
L 95.6928 184.474536 
L 114.7392 192.090641 
L 118.513781 193.536 
L 133.7856 197.474427 
L 152.832 202.230873 
L 171.8784 206.875908 
L 190.9248 211.424332 
L 209.9712 215.88844 
L 229.0176 220.278521 
L 248.064 224.603259 
L 267.1104 228.870029 
L 279.331801 231.552 
z
" clip-path="url(#p489636bb04)" style="fill: #fef4ef"/>
   </g>
   <g id="PathCollection_24">
    <path d="M 76.6464 300.116441 
L 95.6928 299.619143 
L 114.7392 299.088078 
L 133.7856 298.519687 
L 152.832 297.909889 
L 171.8784 297.25399 
L 190.9248 296.546557 
L 209.9712 295.781266 
L 229.0176 294.950719 
L 248.064 294.046197 
L 267.1104 293.057355 
L 286.1568 291.971827 
L 305.2032 290.774704 
L 324.2496 289.447844 
L 343.296 287.96895 
L 343.296 284.431335 
L 324.2496 286.176952 
L 305.2032 287.743113 
L 286.1568 289.15614 
L 267.1104 290.437445 
L 248.064 291.604627 
L 229.0176 292.672282 
L 209.9712 293.652619 
L 190.9248 294.555931 
L 171.8784 295.390952 
L 152.832 296.165143 
L 133.7856 296.884919 
L 114.7392 297.555822 
L 95.6928 298.182665 
L 76.6464 298.769652 
L 57.6 299.320465 
L 57.6 300.583093 
z
" clip-path="url(#p489636bb04)" style="fill: #fffbfa"/>
    <path d="M 267.1104 233.286352 
L 286.1568 237.71417 
L 305.2032 241.94932 
L 324.2496 246.016657 
L 343.296 249.936934 
L 343.296 245.264555 
L 324.2496 241.378561 
L 305.2032 237.342552 
L 286.1568 233.135357 
L 279.331801 231.552 
L 267.1104 228.870029 
L 248.064 224.603259 
L 229.0176 220.278521 
L 209.9712 215.88844 
L 190.9248 211.424332 
L 171.8784 206.875908 
L 152.832 202.230873 
L 133.7856 197.474427 
L 118.513781 193.536 
L 114.7392 192.090641 
L 95.6928 184.474536 
L 76.6464 176.716526 
L 57.6 168.790129 
L 57.6 173.626672 
L 76.6464 181.736352 
L 95.6928 189.678839 
L 105.276222 193.536 
L 114.7392 196.121547 
L 133.7856 201.104343 
L 152.832 205.958781 
L 171.8784 210.702708 
L 190.9248 215.350806 
L 209.9712 219.915268 
L 229.0176 224.406303 
L 248.064 228.832522 
L 260.026463 231.552 
z
" clip-path="url(#p489636bb04)" style="fill: #fffbfa"/>
   </g>
   <g id="PathCollection_25">
    <path d="M 76.6464 298.769652 
L 95.6928 298.182665 
L 114.7392 297.555822 
L 133.7856 296.884919 
L 152.832 296.165143 
L 171.8784 295.390952 
L 190.9248 294.555931 
L 209.9712 293.652619 
L 229.0176 292.672282 
L 248.064 291.604627 
L 267.1104 290.437445 
L 286.1568 289.15614 
L 305.2032 287.743113 
L 324.2496 286.176952 
L 343.296 284.431335 
L 343.296 280.893721 
L 324.2496 282.906059 
L 305.2032 284.711523 
L 286.1568 286.340453 
L 267.1104 287.817535 
L 248.064 289.163056 
L 229.0176 290.393844 
L 209.9712 291.523973 
L 190.9248 292.565306 
L 171.8784 293.527914 
L 152.832 294.420398 
L 133.7856 295.250152 
L 114.7392 296.023565 
L 95.6928 296.746187 
L 76.6464 297.422862 
L 57.6 298.057838 
L 57.6 299.320465 
z
" clip-path="url(#p489636bb04)" style="fill: #fcfcfc"/>
    <path d="M 248.064 233.170971 
L 267.1104 237.84108 
L 286.1568 242.292982 
L 305.2032 246.556088 
L 324.2496 250.654753 
L 343.296 254.609313 
L 343.296 249.936934 
L 324.2496 246.016657 
L 305.2032 241.94932 
L 286.1568 237.71417 
L 267.1104 233.286352 
L 260.026463 231.552 
L 248.064 228.832522 
L 229.0176 224.406303 
L 209.9712 219.915268 
L 190.9248 215.350806 
L 171.8784 210.702708 
L 152.832 205.958781 
L 133.7856 201.104343 
L 114.7392 196.121547 
L 105.276222 193.536 
L 95.6928 189.678839 
L 76.6464 181.736352 
L 57.6 173.626672 
L 57.6 178.463216 
L 76.6464 186.756178 
L 92.629544 193.536 
L 95.6928 194.425737 
L 114.7392 199.654517 
L 133.7856 204.734259 
L 152.832 209.686689 
L 171.8784 214.529508 
L 190.9248 219.277279 
L 209.9712 223.942097 
L 229.0176 228.534085 
L 241.815276 231.552 
z
" clip-path="url(#p489636bb04)" style="fill: #fcfcfc"/>
   </g>
   <g id="PathCollection_26">
    <path d="M 76.6464 297.422862 
L 95.6928 296.746187 
L 114.7392 296.023565 
L 133.7856 295.250152 
L 152.832 294.420398 
L 171.8784 293.527914 
L 190.9248 292.565306 
L 209.9712 291.523973 
L 229.0176 290.393844 
L 248.064 289.163056 
L 267.1104 287.817535 
L 286.1568 286.340453 
L 305.2032 284.711523 
L 324.2496 282.906059 
L 343.296 280.893721 
L 343.296 277.356107 
L 324.2496 279.635167 
L 305.2032 281.679932 
L 286.1568 283.524766 
L 267.1104 285.197626 
L 248.064 286.721486 
L 229.0176 288.115406 
L 209.9712 289.395326 
L 190.9248 290.574681 
L 171.8784 291.664875 
L 152.832 292.675652 
L 133.7856 293.615385 
L 114.7392 294.491308 
L 95.6928 295.309709 
L 76.6464 296.076073 
L 57.6 296.79521 
L 57.6 298.057838 
z
" clip-path="url(#p489636bb04)" style="fill: #f5f5f5"/>
    <path d="M 229.0176 232.767518 
L 248.064 237.70609 
L 267.1104 242.395808 
L 286.1568 246.871794 
L 305.2032 251.162856 
L 324.2496 255.292849 
L 343.296 259.281692 
L 343.296 254.609313 
L 324.2496 250.654753 
L 305.2032 246.556088 
L 286.1568 242.292982 
L 267.1104 237.84108 
L 248.064 233.170971 
L 241.815276 231.552 
L 229.0176 228.534085 
L 209.9712 223.942097 
L 190.9248 219.277279 
L 171.8784 214.529508 
L 152.832 209.686689 
L 133.7856 204.734259 
L 114.7392 199.654517 
L 95.6928 194.425737 
L 92.629544 193.536 
L 76.6464 186.756178 
L 57.6 178.463216 
L 57.6 183.299759 
L 76.6464 191.776004 
L 80.795517 193.536 
L 95.6928 197.862986 
L 114.7392 203.187487 
L 133.7856 208.364175 
L 152.832 213.414597 
L 171.8784 218.356308 
L 190.9248 223.203753 
L 209.9712 227.968925 
L 224.597784 231.552 
z
" clip-path="url(#p489636bb04)" style="fill: #f5f5f5"/>
   </g>
   <g id="PathCollection_27">
    <path d="M 76.6464 296.076073 
L 95.6928 295.309709 
L 114.7392 294.491308 
L 133.7856 293.615385 
L 152.832 292.675652 
L 171.8784 291.664875 
L 190.9248 290.574681 
L 209.9712 289.395326 
L 229.0176 288.115406 
L 248.064 286.721486 
L 267.1104 285.197626 
L 286.1568 283.524766 
L 305.2032 281.679932 
L 324.2496 279.635167 
L 343.296 277.356107 
L 343.296 273.818493 
L 324.2496 276.364274 
L 305.2032 278.648342 
L 286.1568 280.709079 
L 267.1104 282.577716 
L 248.064 284.279916 
L 229.0176 285.836968 
L 209.9712 287.266679 
L 190.9248 288.584055 
L 171.8784 289.801837 
L 152.832 290.930907 
L 133.7856 291.980618 
L 114.7392 292.959052 
L 95.6928 293.873231 
L 76.6464 294.729283 
L 57.6 295.532582 
L 57.6 296.79521 
z
" clip-path="url(#p489636bb04)" style="fill: #efefef"/>
    <path d="M 209.9712 232.049267 
L 229.0176 237.288237 
L 248.064 242.241208 
L 267.1104 246.950536 
L 286.1568 251.450606 
L 305.2032 255.769624 
L 324.2496 259.930945 
L 343.296 263.954071 
L 343.296 259.281692 
L 324.2496 255.292849 
L 305.2032 251.162856 
L 286.1568 246.871794 
L 267.1104 242.395808 
L 248.064 237.70609 
L 229.0176 232.767518 
L 224.597784 231.552 
L 209.9712 227.968925 
L 190.9248 223.203753 
L 171.8784 218.356308 
L 152.832 213.414597 
L 133.7856 208.364175 
L 114.7392 203.187487 
L 95.6928 197.862986 
L 80.795517 193.536 
L 76.6464 191.776004 
L 57.6 183.299759 
L 57.6 188.136302 
L 69.642004 193.536 
L 76.6464 195.706897 
L 95.6928 201.300235 
L 114.7392 206.720457 
L 133.7856 211.994091 
L 152.832 217.142505 
L 171.8784 222.183108 
L 190.9248 227.130227 
L 208.273533 231.552 
z
" clip-path="url(#p489636bb04)" style="fill: #efefef"/>
   </g>
   <g id="PathCollection_28">
    <path d="M 76.6464 294.729283 
L 95.6928 293.873231 
L 114.7392 292.959052 
L 133.7856 291.980618 
L 152.832 290.930907 
L 171.8784 289.801837 
L 190.9248 288.584055 
L 209.9712 287.266679 
L 229.0176 285.836968 
L 248.064 284.279916 
L 267.1104 282.577716 
L 286.1568 280.709079 
L 305.2032 278.648342 
L 324.2496 276.364274 
L 343.296 273.818493 
L 343.296 270.280879 
L 324.2496 273.093382 
L 305.2032 275.616751 
L 286.1568 277.893392 
L 267.1104 279.957806 
L 248.064 281.838346 
L 229.0176 283.558531 
L 209.9712 285.138032 
L 190.9248 286.59343 
L 171.8784 287.938799 
L 152.832 289.186161 
L 133.7856 290.34585 
L 114.7392 291.426795 
L 95.6928 292.436753 
L 76.6464 293.382494 
L 57.6 294.269955 
L 57.6 295.532582 
z
" clip-path="url(#p489636bb04)" style="fill: #e9e9e9"/>
    <path d="M 209.9712 236.561702 
L 229.0176 241.808956 
L 248.064 246.776327 
L 267.1104 251.505264 
L 286.1568 256.029418 
L 305.2032 260.376392 
L 324.2496 264.56904 
L 343.296 268.62645 
L 343.296 263.954071 
L 324.2496 259.930945 
L 305.2032 255.769624 
L 286.1568 251.450606 
L 267.1104 246.950536 
L 248.064 242.241208 
L 229.0176 237.288237 
L 209.9712 232.049267 
L 208.273533 231.552 
L 190.9248 227.130227 
L 171.8784 222.183108 
L 152.832 217.142505 
L 133.7856 211.994091 
L 114.7392 206.720457 
L 95.6928 201.300235 
L 76.6464 195.706897 
L 69.642004 193.536 
L 57.6 188.136302 
L 57.6 192.972846 
L 58.855904 193.536 
L 76.6464 199.049871 
L 95.6928 204.737484 
L 114.7392 210.253428 
L 133.7856 215.624007 
L 152.832 220.870413 
L 171.8784 226.009909 
L 190.9248 231.0567 
L 192.868099 231.552 
z
" clip-path="url(#p489636bb04)" style="fill: #e9e9e9"/>
   </g>
   <g id="PathCollection_29">
    <path d="M 76.6464 293.382494 
L 95.6928 292.436753 
L 114.7392 291.426795 
L 133.7856 290.34585 
L 152.832 289.186161 
L 171.8784 287.938799 
L 190.9248 286.59343 
L 209.9712 285.138032 
L 229.0176 283.558531 
L 248.064 281.838346 
L 267.1104 279.957806 
L 286.1568 277.893392 
L 305.2032 275.616751 
L 324.2496 273.093382 
L 343.296 270.280879 
L 343.296 269.568 
L 343.296 268.62645 
L 324.2496 264.56904 
L 305.2032 260.376392 
L 286.1568 256.029418 
L 267.1104 251.505264 
L 248.064 246.776327 
L 229.0176 241.808956 
L 209.9712 236.561702 
L 192.868099 231.552 
L 190.9248 231.0567 
L 171.8784 226.009909 
L 152.832 220.870413 
L 133.7856 215.624007 
L 114.7392 210.253428 
L 95.6928 204.737484 
L 76.6464 199.049871 
L 58.855904 193.536 
L 57.6 192.972846 
L 57.6 193.536 
L 57.6 196.407953 
L 76.6464 202.392844 
L 95.6928 208.174733 
L 114.7392 213.786398 
L 133.7856 219.253923 
L 152.832 224.59832 
L 171.8784 229.836709 
L 178.335756 231.552 
L 190.9248 235.494311 
L 209.9712 241.074137 
L 229.0176 246.329675 
L 248.064 251.311445 
L 267.1104 256.059992 
L 286.1568 260.608231 
L 305.2032 264.98316 
L 324.2496 269.207136 
L 325.940697 269.568 
L 324.2496 269.822489 
L 305.2032 272.58516 
L 286.1568 275.077705 
L 267.1104 277.337896 
L 248.064 279.396776 
L 229.0176 281.280093 
L 209.9712 283.009385 
L 190.9248 284.602805 
L 171.8784 286.075761 
L 152.832 287.441416 
L 133.7856 288.711083 
L 114.7392 289.894539 
L 95.6928 291.000275 
L 76.6464 292.035705 
L 57.6 293.007327 
L 57.6 294.269955 
z
" clip-path="url(#p489636bb04)" style="fill: #e1e1e1"/>
   </g>
   <g id="PathCollection_30">
    <path d="M 76.6464 292.035705 
L 95.6928 291.000275 
L 114.7392 289.894539 
L 133.7856 288.711083 
L 152.832 287.441416 
L 171.8784 286.075761 
L 190.9248 284.602805 
L 209.9712 283.009385 
L 229.0176 281.280093 
L 248.064 279.396776 
L 267.1104 277.337896 
L 286.1568 275.077705 
L 305.2032 272.58516 
L 324.2496 269.822489 
L 325.940697 269.568 
L 324.2496 269.207136 
L 305.2032 264.98316 
L 286.1568 260.608231 
L 267.1104 256.059992 
L 248.064 251.311445 
L 229.0176 246.329675 
L 209.9712 241.074137 
L 190.9248 235.494311 
L 178.335756 231.552 
L 171.8784 229.836709 
L 152.832 224.59832 
L 133.7856 219.253923 
L 114.7392 213.786398 
L 95.6928 208.174733 
L 76.6464 202.392844 
L 57.6 196.407953 
L 57.6 199.658376 
L 76.6464 205.735818 
L 95.6928 211.611982 
L 114.7392 217.319368 
L 133.7856 222.883839 
L 152.832 228.326228 
L 164.462258 231.552 
L 171.8784 234.045457 
L 190.9248 240.005706 
L 209.9712 245.586572 
L 229.0176 250.850393 
L 248.064 255.846563 
L 267.1104 260.61472 
L 286.1568 265.187043 
L 305.108915 269.568 
L 286.1568 272.262018 
L 267.1104 274.717986 
L 248.064 276.955205 
L 229.0176 279.001655 
L 209.9712 280.880738 
L 190.9248 282.61218 
L 171.8784 284.212723 
L 152.832 285.69667 
L 133.7856 287.076316 
L 114.7392 288.362282 
L 95.6928 289.563797 
L 76.6464 290.688915 
L 57.6 291.744699 
L 57.6 293.007327 
z
" clip-path="url(#p489636bb04)" style="fill: #dadada"/>
   </g>
   <g id="PathCollection_31">
    <path d="M 76.6464 290.688915 
L 95.6928 289.563797 
L 114.7392 288.362282 
L 133.7856 287.076316 
L 152.832 285.69667 
L 171.8784 284.212723 
L 190.9248 282.61218 
L 209.9712 280.880738 
L 229.0176 279.001655 
L 248.064 276.955205 
L 267.1104 274.717986 
L 286.1568 272.262018 
L 305.108915 269.568 
L 286.1568 265.187043 
L 267.1104 260.61472 
L 248.064 255.846563 
L 229.0176 250.850393 
L 209.9712 245.586572 
L 190.9248 240.005706 
L 171.8784 234.045457 
L 164.462258 231.552 
L 152.832 228.326228 
L 133.7856 222.883839 
L 114.7392 217.319368 
L 95.6928 211.611982 
L 76.6464 205.735818 
L 57.6 199.658376 
L 57.6 202.908799 
L 76.6464 209.078792 
L 95.6928 215.049231 
L 114.7392 220.852338 
L 133.7856 226.513755 
L 151.147148 231.552 
L 152.832 232.163137 
L 171.8784 238.564481 
L 190.9248 244.517101 
L 209.9712 250.099006 
L 229.0176 255.371112 
L 248.064 260.381682 
L 267.1104 265.169448 
L 285.341065 269.568 
L 267.1104 272.098076 
L 248.064 274.513635 
L 229.0176 276.723217 
L 209.9712 278.752091 
L 190.9248 280.621554 
L 171.8784 282.349685 
L 152.832 283.951925 
L 133.7856 285.441548 
L 114.7392 286.830025 
L 95.6928 288.127319 
L 76.6464 289.342126 
L 57.6 290.482071 
L 57.6 291.744699 
z
" clip-path="url(#p489636bb04)" style="fill: #d3d3d3"/>
   </g>
   <g id="PathCollection_32">
    <path d="M 76.6464 289.342126 
L 95.6928 288.127319 
L 114.7392 286.830025 
L 133.7856 285.441548 
L 152.832 283.951925 
L 171.8784 282.349685 
L 190.9248 280.621554 
L 209.9712 278.752091 
L 229.0176 276.723217 
L 248.064 274.513635 
L 267.1104 272.098076 
L 285.341065 269.568 
L 267.1104 265.169448 
L 248.064 260.381682 
L 229.0176 255.371112 
L 209.9712 250.099006 
L 190.9248 244.517101 
L 171.8784 238.564481 
L 152.832 232.163137 
L 151.147148 231.552 
L 133.7856 226.513755 
L 114.7392 220.852338 
L 95.6928 215.049231 
L 76.6464 209.078792 
L 57.6 202.908799 
L 57.6 206.159222 
L 76.6464 212.421766 
L 95.6928 218.48648 
L 114.7392 224.385308 
L 133.7856 230.143671 
L 138.638634 231.552 
L 152.832 236.700283 
L 171.8784 243.083505 
L 190.9248 249.028496 
L 209.9712 254.611441 
L 229.0176 259.891831 
L 248.064 264.9168 
L 266.494223 269.568 
L 248.064 272.072065 
L 229.0176 274.44478 
L 209.9712 276.623444 
L 190.9248 278.630929 
L 171.8784 280.486646 
L 152.832 282.207179 
L 133.7856 283.806781 
L 114.7392 285.297769 
L 95.6928 286.690841 
L 76.6464 287.995337 
L 57.6 289.219444 
L 57.6 290.482071 
z
" clip-path="url(#p489636bb04)" style="fill: #cacaca"/>
   </g>
   <g id="PathCollection_33">
    <path d="M 76.6464 287.995337 
L 95.6928 286.690841 
L 114.7392 285.297769 
L 133.7856 283.806781 
L 152.832 282.207179 
L 171.8784 280.486646 
L 190.9248 278.630929 
L 209.9712 276.623444 
L 229.0176 274.44478 
L 248.064 272.072065 
L 266.494223 269.568 
L 248.064 264.9168 
L 229.0176 259.891831 
L 209.9712 254.611441 
L 190.9248 249.028496 
L 171.8784 243.083505 
L 152.832 236.700283 
L 138.638634 231.552 
L 133.7856 230.143671 
L 114.7392 224.385308 
L 95.6928 218.48648 
L 76.6464 212.421766 
L 57.6 206.159222 
L 57.6 209.409645 
L 76.6464 215.76474 
L 95.6928 221.923728 
L 114.7392 227.918279 
L 126.680126 231.552 
L 133.7856 234.347797 
L 152.832 241.237429 
L 171.8784 247.602529 
L 190.9248 253.539892 
L 209.9712 259.123876 
L 229.0176 264.41255 
L 248.064 269.451919 
L 248.523969 269.568 
L 248.064 269.630495 
L 229.0176 272.166342 
L 209.9712 274.494797 
L 190.9248 276.640304 
L 171.8784 278.623608 
L 152.832 280.462434 
L 133.7856 282.172014 
L 114.7392 283.765512 
L 95.6928 285.254363 
L 76.6464 286.648547 
L 57.6 287.956816 
L 57.6 289.219444 
z
" clip-path="url(#p489636bb04)" style="fill: #c2c2c2"/>
   </g>
   <g id="PathCollection_34">
    <path d="M 76.6464 286.648547 
L 95.6928 285.254363 
L 114.7392 283.765512 
L 133.7856 282.172014 
L 152.832 280.462434 
L 171.8784 278.623608 
L 190.9248 276.640304 
L 209.9712 274.494797 
L 229.0176 272.166342 
L 248.064 269.630495 
L 248.523969 269.568 
L 248.064 269.451919 
L 229.0176 264.41255 
L 209.9712 259.123876 
L 190.9248 253.539892 
L 171.8784 247.602529 
L 152.832 241.237429 
L 133.7856 234.347797 
L 126.680126 231.552 
L 114.7392 227.918279 
L 95.6928 221.923728 
L 76.6464 215.76474 
L 57.6 209.409645 
L 57.6 212.660069 
L 76.6464 219.107713 
L 95.6928 225.360977 
L 114.7392 231.451249 
L 115.070283 231.552 
L 133.7856 238.915932 
L 152.832 245.774575 
L 171.8784 252.121553 
L 190.9248 258.051287 
L 209.9712 263.636311 
L 229.0176 268.933269 
L 231.416405 269.568 
L 229.0176 269.887904 
L 209.9712 272.36615 
L 190.9248 274.649679 
L 171.8784 276.76057 
L 152.832 278.717688 
L 133.7856 280.537247 
L 114.7392 282.233255 
L 95.6928 283.817885 
L 76.6464 285.301758 
L 57.6 286.694188 
L 57.6 287.956816 
z
" clip-path="url(#p489636bb04)" style="fill: #bbbbbb"/>
   </g>
   <g id="PathCollection_35">
    <path d="M 76.6464 285.301758 
L 95.6928 283.817885 
L 114.7392 282.233255 
L 133.7856 280.537247 
L 152.832 278.717688 
L 171.8784 276.76057 
L 190.9248 274.649679 
L 209.9712 272.36615 
L 229.0176 269.887904 
L 231.416405 269.568 
L 229.0176 268.933269 
L 209.9712 263.636311 
L 190.9248 258.051287 
L 171.8784 252.121553 
L 152.832 245.774575 
L 133.7856 238.915932 
L 115.070283 231.552 
L 114.7392 231.451249 
L 95.6928 225.360977 
L 76.6464 219.107713 
L 57.6 212.660069 
L 57.6 215.910492 
L 76.6464 222.450687 
L 95.6928 228.798226 
L 104.300951 231.552 
L 114.7392 236.035529 
L 133.7856 243.484066 
L 152.832 250.311721 
L 171.8784 256.640577 
L 190.9248 262.562682 
L 209.9712 268.148746 
L 215.073327 269.568 
L 209.9712 270.237504 
L 190.9248 272.659053 
L 171.8784 274.897532 
L 152.832 276.972943 
L 133.7856 278.902479 
L 114.7392 280.700999 
L 95.6928 282.381407 
L 76.6464 283.954968 
L 57.6 285.43156 
L 57.6 286.694188 
z
" clip-path="url(#p489636bb04)" style="fill: #afafaf"/>
   </g>
   <g id="PathCollection_36">
    <path d="M 76.6464 283.954968 
L 95.6928 282.381407 
L 114.7392 280.700999 
L 133.7856 278.902479 
L 152.832 276.972943 
L 171.8784 274.897532 
L 190.9248 272.659053 
L 209.9712 270.237504 
L 215.073327 269.568 
L 209.9712 268.148746 
L 190.9248 262.562682 
L 171.8784 256.640577 
L 152.832 250.311721 
L 133.7856 243.484066 
L 114.7392 236.035529 
L 104.300951 231.552 
L 95.6928 228.798226 
L 76.6464 222.450687 
L 57.6 215.910492 
L 57.6 219.160915 
L 76.6464 225.793661 
L 93.721671 231.552 
L 95.6928 232.483072 
L 114.7392 240.650669 
L 133.7856 248.052201 
L 152.832 254.848867 
L 171.8784 261.159601 
L 190.9248 267.074077 
L 199.427652 269.568 
L 190.9248 270.668428 
L 171.8784 273.034494 
L 152.832 275.228197 
L 133.7856 277.267712 
L 114.7392 279.168742 
L 95.6928 280.944929 
L 76.6464 282.608179 
L 57.6 284.168933 
L 57.6 285.43156 
z
" clip-path="url(#p489636bb04)" style="fill: #a5a5a5"/>
   </g>
   <g id="PathCollection_37">
    <path d="M 76.6464 282.608179 
L 95.6928 280.944929 
L 114.7392 279.168742 
L 133.7856 277.267712 
L 152.832 275.228197 
L 171.8784 273.034494 
L 190.9248 270.668428 
L 199.427652 269.568 
L 190.9248 267.074077 
L 171.8784 261.159601 
L 152.832 254.848867 
L 133.7856 248.052201 
L 114.7392 240.650669 
L 95.6928 232.483072 
L 93.721671 231.552 
L 76.6464 225.793661 
L 57.6 219.160915 
L 57.6 222.411338 
L 76.6464 229.136635 
L 83.808711 231.552 
L 95.6928 237.165503 
L 114.7392 245.26581 
L 133.7856 252.620336 
L 152.832 259.386013 
L 171.8784 265.678626 
L 184.412299 269.568 
L 171.8784 271.171455 
L 152.832 273.483452 
L 133.7856 275.632945 
L 114.7392 277.636485 
L 95.6928 279.508451 
L 76.6464 281.26139 
L 57.6 282.906305 
L 57.6 284.168933 
z
" clip-path="url(#p489636bb04)" style="fill: #9b9b9b"/>
   </g>
   <g id="PathCollection_38">
    <path d="M 76.6464 281.26139 
L 95.6928 279.508451 
L 114.7392 277.636485 
L 133.7856 275.632945 
L 152.832 273.483452 
L 171.8784 271.171455 
L 184.412299 269.568 
L 171.8784 265.678626 
L 152.832 259.386013 
L 133.7856 252.620336 
L 114.7392 245.26581 
L 95.6928 237.165503 
L 83.808711 231.552 
L 76.6464 229.136635 
L 57.6 222.411338 
L 57.6 225.661761 
L 74.117241 231.552 
L 76.6464 232.877228 
L 95.6928 241.847934 
L 114.7392 249.88095 
L 133.7856 257.188471 
L 152.832 263.923158 
L 169.960188 269.568 
L 152.832 271.738706 
L 133.7856 273.998178 
L 114.7392 276.104229 
L 95.6928 278.071973 
L 76.6464 279.9146 
L 57.6 281.643677 
L 57.6 282.906305 
z
" clip-path="url(#p489636bb04)" style="fill: #8f8f8f"/>
   </g>
   <g id="PathCollection_39">
    <path d="M 76.6464 279.9146 
L 95.6928 278.071973 
L 114.7392 276.104229 
L 133.7856 273.998178 
L 152.832 271.738706 
L 169.960188 269.568 
L 152.832 263.923158 
L 133.7856 257.188471 
L 114.7392 249.88095 
L 95.6928 241.847934 
L 76.6464 232.877228 
L 74.117241 231.552 
L 57.6 225.661761 
L 57.6 228.912185 
L 65.002496 231.552 
L 76.6464 237.653168 
L 95.6928 246.530365 
L 114.7392 254.49609 
L 133.7856 261.756606 
L 152.832 268.460304 
L 156.19309 269.568 
L 152.832 269.993961 
L 133.7856 272.36341 
L 114.7392 274.571972 
L 95.6928 276.635494 
L 76.6464 278.567811 
L 57.6 280.38105 
L 57.6 281.643677 
z
" clip-path="url(#p489636bb04)" style="fill: #858585"/>
   </g>
   <g id="PathCollection_40">
    <path d="M 76.6464 278.567811 
L 95.6928 276.635494 
L 114.7392 274.571972 
L 133.7856 272.36341 
L 152.832 269.993961 
L 156.19309 269.568 
L 152.832 268.460304 
L 133.7856 261.756606 
L 114.7392 254.49609 
L 95.6928 246.530365 
L 76.6464 237.653168 
L 65.002496 231.552 
L 57.6 228.912185 
L 57.6 231.552 
L 57.6 232.473271 
L 76.6464 242.429108 
L 95.6928 251.212797 
L 114.7392 259.111231 
L 133.7856 266.324741 
L 143.010688 269.568 
L 133.7856 270.728643 
L 114.7392 273.039715 
L 95.6928 275.199016 
L 76.6464 277.221022 
L 57.6 279.118422 
L 57.6 280.38105 
z
" clip-path="url(#p489636bb04)" style="fill: #797979"/>
   </g>
   <g id="PathCollection_41">
    <path d="M 76.6464 277.221022 
L 95.6928 275.199016 
L 114.7392 273.039715 
L 133.7856 270.728643 
L 143.010688 269.568 
L 133.7856 266.324741 
L 114.7392 259.111231 
L 95.6928 251.212797 
L 76.6464 242.429108 
L 57.6 232.473271 
L 57.6 237.377435 
L 76.6464 247.205048 
L 95.6928 255.895228 
L 114.7392 263.726371 
L 130.235004 269.568 
L 114.7392 271.507459 
L 95.6928 273.762538 
L 76.6464 275.874232 
L 57.6 277.855794 
L 57.6 279.118422 
z
" clip-path="url(#p489636bb04)" style="fill: #6c6c6c"/>
   </g>
   <g id="PathCollection_42">
    <path d="M 76.6464 275.874232 
L 95.6928 273.762538 
L 114.7392 271.507459 
L 130.235004 269.568 
L 114.7392 263.726371 
L 95.6928 255.895228 
L 76.6464 247.205048 
L 57.6 237.377435 
L 57.6 242.281599 
L 76.6464 251.980988 
L 95.6928 260.577659 
L 114.7392 268.341512 
L 117.992645 269.568 
L 114.7392 269.975202 
L 95.6928 272.32606 
L 76.6464 274.527443 
L 57.6 276.593166 
L 57.6 277.855794 
z
" clip-path="url(#p489636bb04)" style="fill: #606060"/>
   </g>
   <g id="PathCollection_43">
    <path d="M 76.6464 274.527443 
L 95.6928 272.32606 
L 114.7392 269.975202 
L 117.992645 269.568 
L 114.7392 268.341512 
L 95.6928 260.577659 
L 76.6464 251.980988 
L 57.6 242.281599 
L 57.6 247.185762 
L 76.6464 256.756928 
L 95.6928 265.26009 
L 106.285427 269.568 
L 95.6928 270.889582 
L 76.6464 273.180653 
L 57.6 275.330539 
L 57.6 276.593166 
z
" clip-path="url(#p489636bb04)" style="fill: #555555"/>
   </g>
   <g id="PathCollection_44">
    <path d="M 76.6464 273.180653 
L 95.6928 270.889582 
L 106.285427 269.568 
L 95.6928 265.26009 
L 76.6464 256.756928 
L 57.6 247.185762 
L 57.6 252.089926 
L 76.6464 261.532868 
L 94.828404 269.568 
L 76.6464 271.833864 
L 57.6 274.067911 
L 57.6 275.330539 
z
" clip-path="url(#p489636bb04)" style="fill: #484848"/>
   </g>
   <g id="PathCollection_45">
    <path d="M 76.6464 271.833864 
L 94.828404 269.568 
L 76.6464 261.532868 
L 57.6 252.089926 
L 57.6 256.99409 
L 76.6464 266.308808 
L 84.021344 269.568 
L 76.6464 270.487075 
L 57.6 272.805283 
L 57.6 274.067911 
z
" clip-path="url(#p489636bb04)" style="fill: #3e3e3e"/>
   </g>
   <g id="PathCollection_46">
    <path d="M 76.6464 270.487075 
L 84.021344 269.568 
L 76.6464 266.308808 
L 57.6 256.99409 
L 57.6 261.898254 
L 73.431543 269.568 
L 57.6 271.542656 
L 57.6 272.805283 
z
" clip-path="url(#p489636bb04)" style="fill: #343434"/>
   </g>
   <g id="PathCollection_47">
    <path d="M 73.431543 269.568 
L 57.6 261.898254 
L 57.6 266.802417 
L 63.30859 269.568 
L 57.6 270.280028 
L 57.6 271.542656 
z
" clip-path="url(#p489636bb04)" style="fill: #282828"/>
   </g>
   <g id="PathCollection_48">
    <path d="M 63.30859 269.568 
L 57.6 266.802417 
L 57.6 269.568 
L 57.6 270.280028 
z
" clip-path="url(#p489636bb04)" style="fill: #1e1e1e"/>
   </g>
   <g id="matplotlib.axis_1">
    <g id="xtick_1">
     <g id="line2d_1">
      <defs>
       <path id="m47a4a2c204" d="M 0 0 
L 0 3.5 
" style="stroke: #000000; stroke-width: 0.8"/>
      </defs>
      <g>
       <use xlink:href="#m47a4a2c204" x="88.07424" y="307.584" style="stroke: #000000; stroke-width: 0.8"/>
      </g>
     </g>
     <g id="text_1">
      <!-- 0.5 -->
      <g transform="translate(80.122678 322.182437)scale(0.1 -0.1)">
       <defs>
        <path id="DejaVuSans-30" d="M 2034 4250 
Q 1547 4250 1301 3770 
Q 1056 3291 1056 2328 
Q 1056 1369 1301 889 
Q 1547 409 2034 409 
Q 2525 409 2770 889 
Q 3016 1369 3016 2328 
Q 3016 3291 2770 3770 
Q 2525 4250 2034 4250 
z
M 2034 4750 
Q 2819 4750 3233 4129 
Q 3647 3509 3647 2328 
Q 3647 1150 3233 529 
Q 2819 -91 2034 -91 
Q 1250 -91 836 529 
Q 422 1150 422 2328 
Q 422 3509 836 4129 
Q 1250 4750 2034 4750 
z
" transform="scale(0.015625)"/>
        <path id="DejaVuSans-2e" d="M 684 794 
L 1344 794 
L 1344 0 
L 684 0 
L 684 794 
z
" transform="scale(0.015625)"/>
        <path id="DejaVuSans-35" d="M 691 4666 
L 3169 4666 
L 3169 4134 
L 1269 4134 
L 1269 2991 
Q 1406 3038 1543 3061 
Q 1681 3084 1819 3084 
Q 2600 3084 3056 2656 
Q 3513 2228 3513 1497 
Q 3513 744 3044 326 
Q 2575 -91 1722 -91 
Q 1428 -91 1123 -41 
Q 819 9 494 109 
L 494 744 
Q 775 591 1075 516 
Q 1375 441 1709 441 
Q 2250 441 2565 725 
Q 2881 1009 2881 1497 
Q 2881 1984 2565 2268 
Q 2250 2553 1709 2553 
Q 1456 2553 1204 2497 
Q 953 2441 691 2322 
L 691 4666 
z
" transform="scale(0.015625)"/>
       </defs>
       <use xlink:href="#DejaVuSans-30"/>
       <use xlink:href="#DejaVuSans-2e" x="63.623047"/>
       <use xlink:href="#DejaVuSans-35" x="95.410156"/>
      </g>
     </g>
    </g>
    <g id="xtick_2">
     <g id="line2d_2">
      <g>
       <use xlink:href="#m47a4a2c204" x="126.16704" y="307.584" style="stroke: #000000; stroke-width: 0.8"/>
      </g>
     </g>
     <g id="text_2">
      <!-- 1.0 -->
      <g transform="translate(118.215478 322.182437)scale(0.1 -0.1)">
       <defs>
        <path id="DejaVuSans-31" d="M 794 531 
L 1825 531 
L 1825 4091 
L 703 3866 
L 703 4441 
L 1819 4666 
L 2450 4666 
L 2450 531 
L 3481 531 
L 3481 0 
L 794 0 
L 794 531 
z
" transform="scale(0.015625)"/>
       </defs>
       <use xlink:href="#DejaVuSans-31"/>
       <use xlink:href="#DejaVuSans-2e" x="63.623047"/>
       <use xlink:href="#DejaVuSans-30" x="95.410156"/>
      </g>
     </g>
    </g>
    <g id="xtick_3">
     <g id="line2d_3">
      <g>
       <use xlink:href="#m47a4a2c204" x="164.25984" y="307.584" style="stroke: #000000; stroke-width: 0.8"/>
      </g>
     </g>
     <g id="text_3">
      <!-- 1.5 -->
      <g transform="translate(156.308278 322.182437)scale(0.1 -0.1)">
       <use xlink:href="#DejaVuSans-31"/>
       <use xlink:href="#DejaVuSans-2e" x="63.623047"/>
       <use xlink:href="#DejaVuSans-35" x="95.410156"/>
      </g>
     </g>
    </g>
    <g id="xtick_4">
     <g id="line2d_4">
      <g>
       <use xlink:href="#m47a4a2c204" x="202.35264" y="307.584" style="stroke: #000000; stroke-width: 0.8"/>
      </g>
     </g>
     <g id="text_4">
      <!-- 2.0 -->
      <g transform="translate(194.401078 322.182437)scale(0.1 -0.1)">
       <defs>
        <path id="DejaVuSans-32" d="M 1228 531 
L 3431 531 
L 3431 0 
L 469 0 
L 469 531 
Q 828 903 1448 1529 
Q 2069 2156 2228 2338 
Q 2531 2678 2651 2914 
Q 2772 3150 2772 3378 
Q 2772 3750 2511 3984 
Q 2250 4219 1831 4219 
Q 1534 4219 1204 4116 
Q 875 4013 500 3803 
L 500 4441 
Q 881 4594 1212 4672 
Q 1544 4750 1819 4750 
Q 2544 4750 2975 4387 
Q 3406 4025 3406 3419 
Q 3406 3131 3298 2873 
Q 3191 2616 2906 2266 
Q 2828 2175 2409 1742 
Q 1991 1309 1228 531 
z
" transform="scale(0.015625)"/>
       </defs>
       <use xlink:href="#DejaVuSans-32"/>
       <use xlink:href="#DejaVuSans-2e" x="63.623047"/>
       <use xlink:href="#DejaVuSans-30" x="95.410156"/>
      </g>
     </g>
    </g>
    <g id="xtick_5">
     <g id="line2d_5">
      <g>
       <use xlink:href="#m47a4a2c204" x="240.44544" y="307.584" style="stroke: #000000; stroke-width: 0.8"/>
      </g>
     </g>
     <g id="text_5">
      <!-- 2.5 -->
      <g transform="translate(232.493878 322.182437)scale(0.1 -0.1)">
       <use xlink:href="#DejaVuSans-32"/>
       <use xlink:href="#DejaVuSans-2e" x="63.623047"/>
       <use xlink:href="#DejaVuSans-35" x="95.410156"/>
      </g>
     </g>
    </g>
    <g id="xtick_6">
     <g id="line2d_6">
      <g>
       <use xlink:href="#m47a4a2c204" x="278.53824" y="307.584" style="stroke: #000000; stroke-width: 0.8"/>
      </g>
     </g>
     <g id="text_6">
      <!-- 3.0 -->
      <g transform="translate(270.586678 322.182437)scale(0.1 -0.1)">
       <defs>
        <path id="DejaVuSans-33" d="M 2597 2516 
Q 3050 2419 3304 2112 
Q 3559 1806 3559 1356 
Q 3559 666 3084 287 
Q 2609 -91 1734 -91 
Q 1441 -91 1130 -33 
Q 819 25 488 141 
L 488 750 
Q 750 597 1062 519 
Q 1375 441 1716 441 
Q 2309 441 2620 675 
Q 2931 909 2931 1356 
Q 2931 1769 2642 2001 
Q 2353 2234 1838 2234 
L 1294 2234 
L 1294 2753 
L 1863 2753 
Q 2328 2753 2575 2939 
Q 2822 3125 2822 3475 
Q 2822 3834 2567 4026 
Q 2313 4219 1838 4219 
Q 1578 4219 1281 4162 
Q 984 4106 628 3988 
L 628 4550 
Q 988 4650 1302 4700 
Q 1616 4750 1894 4750 
Q 2613 4750 3031 4423 
Q 3450 4097 3450 3541 
Q 3450 3153 3228 2886 
Q 3006 2619 2597 2516 
z
" transform="scale(0.015625)"/>
       </defs>
       <use xlink:href="#DejaVuSans-33"/>
       <use xlink:href="#DejaVuSans-2e" x="63.623047"/>
       <use xlink:href="#DejaVuSans-30" x="95.410156"/>
      </g>
     </g>
    </g>
    <g id="xtick_7">
     <g id="line2d_7">
      <g>
       <use xlink:href="#m47a4a2c204" x="316.63104" y="307.584" style="stroke: #000000; stroke-width: 0.8"/>
      </g>
     </g>
     <g id="text_7">
      <!-- 3.5 -->
      <g transform="translate(308.679478 322.182437)scale(0.1 -0.1)">
       <use xlink:href="#DejaVuSans-33"/>
       <use xlink:href="#DejaVuSans-2e" x="63.623047"/>
       <use xlink:href="#DejaVuSans-35" x="95.410156"/>
      </g>
     </g>
    </g>
    <g id="text_8">
     <!-- storage time -->
     <g transform="translate(168.568312 335.860562)scale(0.1 -0.1)">
      <defs>
       <path id="DejaVuSans-73" d="M 2834 3397 
L 2834 2853 
Q 2591 2978 2328 3040 
Q 2066 3103 1784 3103 
Q 1356 3103 1142 2972 
Q 928 2841 928 2578 
Q 928 2378 1081 2264 
Q 1234 2150 1697 2047 
L 1894 2003 
Q 2506 1872 2764 1633 
Q 3022 1394 3022 966 
Q 3022 478 2636 193 
Q 2250 -91 1575 -91 
Q 1294 -91 989 -36 
Q 684 19 347 128 
L 347 722 
Q 666 556 975 473 
Q 1284 391 1588 391 
Q 1994 391 2212 530 
Q 2431 669 2431 922 
Q 2431 1156 2273 1281 
Q 2116 1406 1581 1522 
L 1381 1569 
Q 847 1681 609 1914 
Q 372 2147 372 2553 
Q 372 3047 722 3315 
Q 1072 3584 1716 3584 
Q 2034 3584 2315 3537 
Q 2597 3491 2834 3397 
z
" transform="scale(0.015625)"/>
       <path id="DejaVuSans-74" d="M 1172 4494 
L 1172 3500 
L 2356 3500 
L 2356 3053 
L 1172 3053 
L 1172 1153 
Q 1172 725 1289 603 
Q 1406 481 1766 481 
L 2356 481 
L 2356 0 
L 1766 0 
Q 1100 0 847 248 
Q 594 497 594 1153 
L 594 3053 
L 172 3053 
L 172 3500 
L 594 3500 
L 594 4494 
L 1172 4494 
z
" transform="scale(0.015625)"/>
       <path id="DejaVuSans-6f" d="M 1959 3097 
Q 1497 3097 1228 2736 
Q 959 2375 959 1747 
Q 959 1119 1226 758 
Q 1494 397 1959 397 
Q 2419 397 2687 759 
Q 2956 1122 2956 1747 
Q 2956 2369 2687 2733 
Q 2419 3097 1959 3097 
z
M 1959 3584 
Q 2709 3584 3137 3096 
Q 3566 2609 3566 1747 
Q 3566 888 3137 398 
Q 2709 -91 1959 -91 
Q 1206 -91 779 398 
Q 353 888 353 1747 
Q 353 2609 779 3096 
Q 1206 3584 1959 3584 
z
" transform="scale(0.015625)"/>
       <path id="DejaVuSans-72" d="M 2631 2963 
Q 2534 3019 2420 3045 
Q 2306 3072 2169 3072 
Q 1681 3072 1420 2755 
Q 1159 2438 1159 1844 
L 1159 0 
L 581 0 
L 581 3500 
L 1159 3500 
L 1159 2956 
Q 1341 3275 1631 3429 
Q 1922 3584 2338 3584 
Q 2397 3584 2469 3576 
Q 2541 3569 2628 3553 
L 2631 2963 
z
" transform="scale(0.015625)"/>
       <path id="DejaVuSans-61" d="M 2194 1759 
Q 1497 1759 1228 1600 
Q 959 1441 959 1056 
Q 959 750 1161 570 
Q 1363 391 1709 391 
Q 2188 391 2477 730 
Q 2766 1069 2766 1631 
L 2766 1759 
L 2194 1759 
z
M 3341 1997 
L 3341 0 
L 2766 0 
L 2766 531 
Q 2569 213 2275 61 
Q 1981 -91 1556 -91 
Q 1019 -91 701 211 
Q 384 513 384 1019 
Q 384 1609 779 1909 
Q 1175 2209 1959 2209 
L 2766 2209 
L 2766 2266 
Q 2766 2663 2505 2880 
Q 2244 3097 1772 3097 
Q 1472 3097 1187 3025 
Q 903 2953 641 2809 
L 641 3341 
Q 956 3463 1253 3523 
Q 1550 3584 1831 3584 
Q 2591 3584 2966 3190 
Q 3341 2797 3341 1997 
z
" transform="scale(0.015625)"/>
       <path id="DejaVuSans-67" d="M 2906 1791 
Q 2906 2416 2648 2759 
Q 2391 3103 1925 3103 
Q 1463 3103 1205 2759 
Q 947 2416 947 1791 
Q 947 1169 1205 825 
Q 1463 481 1925 481 
Q 2391 481 2648 825 
Q 2906 1169 2906 1791 
z
M 3481 434 
Q 3481 -459 3084 -895 
Q 2688 -1331 1869 -1331 
Q 1566 -1331 1297 -1286 
Q 1028 -1241 775 -1147 
L 775 -588 
Q 1028 -725 1275 -790 
Q 1522 -856 1778 -856 
Q 2344 -856 2625 -561 
Q 2906 -266 2906 331 
L 2906 616 
Q 2728 306 2450 153 
Q 2172 0 1784 0 
Q 1141 0 747 490 
Q 353 981 353 1791 
Q 353 2603 747 3093 
Q 1141 3584 1784 3584 
Q 2172 3584 2450 3431 
Q 2728 3278 2906 2969 
L 2906 3500 
L 3481 3500 
L 3481 434 
z
" transform="scale(0.015625)"/>
       <path id="DejaVuSans-65" d="M 3597 1894 
L 3597 1613 
L 953 1613 
Q 991 1019 1311 708 
Q 1631 397 2203 397 
Q 2534 397 2845 478 
Q 3156 559 3463 722 
L 3463 178 
Q 3153 47 2828 -22 
Q 2503 -91 2169 -91 
Q 1331 -91 842 396 
Q 353 884 353 1716 
Q 353 2575 817 3079 
Q 1281 3584 2069 3584 
Q 2775 3584 3186 3129 
Q 3597 2675 3597 1894 
z
M 3022 2063 
Q 3016 2534 2758 2815 
Q 2500 3097 2075 3097 
Q 1594 3097 1305 2825 
Q 1016 2553 972 2059 
L 3022 2063 
z
" transform="scale(0.015625)"/>
       <path id="DejaVuSans-20" transform="scale(0.015625)"/>
       <path id="DejaVuSans-69" d="M 603 3500 
L 1178 3500 
L 1178 0 
L 603 0 
L 603 3500 
z
M 603 4863 
L 1178 4863 
L 1178 4134 
L 603 4134 
L 603 4863 
z
" transform="scale(0.015625)"/>
       <path id="DejaVuSans-6d" d="M 3328 2828 
Q 3544 3216 3844 3400 
Q 4144 3584 4550 3584 
Q 5097 3584 5394 3201 
Q 5691 2819 5691 2113 
L 5691 0 
L 5113 0 
L 5113 2094 
Q 5113 2597 4934 2840 
Q 4756 3084 4391 3084 
Q 3944 3084 3684 2787 
Q 3425 2491 3425 1978 
L 3425 0 
L 2847 0 
L 2847 2094 
Q 2847 2600 2669 2842 
Q 2491 3084 2119 3084 
Q 1678 3084 1418 2786 
Q 1159 2488 1159 1978 
L 1159 0 
L 581 0 
L 581 3500 
L 1159 3500 
L 1159 2956 
Q 1356 3278 1631 3431 
Q 1906 3584 2284 3584 
Q 2666 3584 2933 3390 
Q 3200 3197 3328 2828 
z
" transform="scale(0.015625)"/>
      </defs>
      <use xlink:href="#DejaVuSans-73"/>
      <use xlink:href="#DejaVuSans-74" x="52.099609"/>
      <use xlink:href="#DejaVuSans-6f" x="91.308594"/>
      <use xlink:href="#DejaVuSans-72" x="152.490234"/>
      <use xlink:href="#DejaVuSans-61" x="193.603516"/>
      <use xlink:href="#DejaVuSans-67" x="254.882812"/>
      <use xlink:href="#DejaVuSans-65" x="318.359375"/>
      <use xlink:href="#DejaVuSans-20" x="379.882812"/>
      <use xlink:href="#DejaVuSans-74" x="411.669922"/>
      <use xlink:href="#DejaVuSans-69" x="450.878906"/>
      <use xlink:href="#DejaVuSans-6d" x="478.662109"/>
      <use xlink:href="#DejaVuSans-65" x="576.074219"/>
     </g>
    </g>
   </g>
   <g id="matplotlib.axis_2">
    <g id="ytick_1">
     <g id="line2d_8">
      <defs>
       <path id="mff95f34e96" d="M 0 0 
L -3.5 0 
" style="stroke: #000000; stroke-width: 0.8"/>
      </defs>
      <g>
       <use xlink:href="#mff95f34e96" x="57.6" y="277.1712" style="stroke: #000000; stroke-width: 0.8"/>
      </g>
     </g>
     <g id="text_9">
      <!-- 0.5 -->
      <g transform="translate(34.696875 280.970419)scale(0.1 -0.1)">
       <use xlink:href="#DejaVuSans-30"/>
       <use xlink:href="#DejaVuSans-2e" x="63.623047"/>
       <use xlink:href="#DejaVuSans-35" x="95.410156"/>
      </g>
     </g>
    </g>
    <g id="ytick_2">
     <g id="line2d_9">
      <g>
       <use xlink:href="#mff95f34e96" x="57.6" y="239.1552" style="stroke: #000000; stroke-width: 0.8"/>
      </g>
     </g>
     <g id="text_10">
      <!-- 1.0 -->
      <g transform="translate(34.696875 242.954419)scale(0.1 -0.1)">
       <use xlink:href="#DejaVuSans-31"/>
       <use xlink:href="#DejaVuSans-2e" x="63.623047"/>
       <use xlink:href="#DejaVuSans-30" x="95.410156"/>
      </g>
     </g>
    </g>
    <g id="ytick_3">
     <g id="line2d_10">
      <g>
       <use xlink:href="#mff95f34e96" x="57.6" y="201.1392" style="stroke: #000000; stroke-width: 0.8"/>
      </g>
     </g>
     <g id="text_11">
      <!-- 1.5 -->
      <g transform="translate(34.696875 204.938419)scale(0.1 -0.1)">
       <use xlink:href="#DejaVuSans-31"/>
       <use xlink:href="#DejaVuSans-2e" x="63.623047"/>
       <use xlink:href="#DejaVuSans-35" x="95.410156"/>
      </g>
     </g>
    </g>
    <g id="ytick_4">
     <g id="line2d_11">
      <g>
       <use xlink:href="#mff95f34e96" x="57.6" y="163.1232" style="stroke: #000000; stroke-width: 0.8"/>
      </g>
     </g>
     <g id="text_12">
      <!-- 2.0 -->
      <g transform="translate(34.696875 166.922419)scale(0.1 -0.1)">
       <use xlink:href="#DejaVuSans-32"/>
       <use xlink:href="#DejaVuSans-2e" x="63.623047"/>
       <use xlink:href="#DejaVuSans-30" x="95.410156"/>
      </g>
     </g>
    </g>
    <g id="ytick_5">
     <g id="line2d_12">
      <g>
       <use xlink:href="#mff95f34e96" x="57.6" y="125.1072" style="stroke: #000000; stroke-width: 0.8"/>
      </g>
     </g>
     <g id="text_13">
      <!-- 2.5 -->
      <g transform="translate(34.696875 128.906419)scale(0.1 -0.1)">
       <use xlink:href="#DejaVuSans-32"/>
       <use xlink:href="#DejaVuSans-2e" x="63.623047"/>
       <use xlink:href="#DejaVuSans-35" x="95.410156"/>
      </g>
     </g>
    </g>
    <g id="ytick_6">
     <g id="line2d_13">
      <g>
       <use xlink:href="#mff95f34e96" x="57.6" y="87.0912" style="stroke: #000000; stroke-width: 0.8"/>
      </g>
     </g>
     <g id="text_14">
      <!-- 3.0 -->
      <g transform="translate(34.696875 90.890419)scale(0.1 -0.1)">
       <use xlink:href="#DejaVuSans-33"/>
       <use xlink:href="#DejaVuSans-2e" x="63.623047"/>
       <use xlink:href="#DejaVuSans-30" x="95.410156"/>
      </g>
     </g>
    </g>
    <g id="ytick_7">
     <g id="line2d_14">
      <g>
       <use xlink:href="#mff95f34e96" x="57.6" y="49.0752" style="stroke: #000000; stroke-width: 0.8"/>
      </g>
     </g>
     <g id="text_15">
      <!-- 3.5 -->
      <g transform="translate(34.696875 52.874419)scale(0.1 -0.1)">
       <use xlink:href="#DejaVuSans-33"/>
       <use xlink:href="#DejaVuSans-2e" x="63.623047"/>
       <use xlink:href="#DejaVuSans-35" x="95.410156"/>
      </g>
     </g>
    </g>
    <g id="text_16">
     <!-- storage ratio -->
     <g transform="translate(28.617187 206.639719)rotate(-90)scale(0.1 -0.1)">
      <use xlink:href="#DejaVuSans-73"/>
      <use xlink:href="#DejaVuSans-74" x="52.099609"/>
      <use xlink:href="#DejaVuSans-6f" x="91.308594"/>
      <use xlink:href="#DejaVuSans-72" x="152.490234"/>
      <use xlink:href="#DejaVuSans-61" x="193.603516"/>
      <use xlink:href="#DejaVuSans-67" x="254.882812"/>
      <use xlink:href="#DejaVuSans-65" x="318.359375"/>
      <use xlink:href="#DejaVuSans-20" x="379.882812"/>
      <use xlink:href="#DejaVuSans-72" x="411.669922"/>
      <use xlink:href="#DejaVuSans-61" x="452.783203"/>
      <use xlink:href="#DejaVuSans-74" x="514.0625"/>
      <use xlink:href="#DejaVuSans-69" x="553.271484"/>
      <use xlink:href="#DejaVuSans-6f" x="581.054688"/>
     </g>
    </g>
   </g>
   <g id="patch_3">
    <path d="M 57.6 307.584 
L 57.6 41.472 
" style="fill: none; stroke: #000000; stroke-width: 0.8; stroke-linejoin: miter; stroke-linecap: square"/>
   </g>
   <g id="patch_4">
    <path d="M 343.296 307.584 
L 343.296 41.472 
" style="fill: none; stroke: #000000; stroke-width: 0.8; stroke-linejoin: miter; stroke-linecap: square"/>
   </g>
   <g id="patch_5">
    <path d="M 57.6 307.584 
L 343.296 307.584 
" style="fill: none; stroke: #000000; stroke-width: 0.8; stroke-linejoin: miter; stroke-linecap: square"/>
   </g>
   <g id="patch_6">
    <path d="M 57.6 41.472 
L 343.296 41.472 
" style="fill: none; stroke: #000000; stroke-width: 0.8; stroke-linejoin: miter; stroke-linecap: square"/>
   </g>
   <g id="text_17">
    <!-- storage74! power1190! -->
    <g transform="translate(129.485813 35.472)scale(0.12 -0.12)">
     <defs>
      <path id="DejaVuSans-37" d="M 525 4666 
L 3525 4666 
L 3525 4397 
L 1831 0 
L 1172 0 
L 2766 4134 
L 525 4134 
L 525 4666 
z
" transform="scale(0.015625)"/>
      <path id="DejaVuSans-34" d="M 2419 4116 
L 825 1625 
L 2419 1625 
L 2419 4116 
z
M 2253 4666 
L 3047 4666 
L 3047 1625 
L 3713 1625 
L 3713 1100 
L 3047 1100 
L 3047 0 
L 2419 0 
L 2419 1100 
L 313 1100 
L 313 1709 
L 2253 4666 
z
" transform="scale(0.015625)"/>
      <path id="DejaVuSans-21" d="M 966 794 
L 1600 794 
L 1600 0 
L 966 0 
L 966 794 
z
M 966 4666 
L 1600 4666 
L 1600 2619 
L 1538 1503 
L 1031 1503 
L 966 2619 
L 966 4666 
z
" transform="scale(0.015625)"/>
      <path id="DejaVuSans-70" d="M 1159 525 
L 1159 -1331 
L 581 -1331 
L 581 3500 
L 1159 3500 
L 1159 2969 
Q 1341 3281 1617 3432 
Q 1894 3584 2278 3584 
Q 2916 3584 3314 3078 
Q 3713 2572 3713 1747 
Q 3713 922 3314 415 
Q 2916 -91 2278 -91 
Q 1894 -91 1617 61 
Q 1341 213 1159 525 
z
M 3116 1747 
Q 3116 2381 2855 2742 
Q 2594 3103 2138 3103 
Q 1681 3103 1420 2742 
Q 1159 2381 1159 1747 
Q 1159 1113 1420 752 
Q 1681 391 2138 391 
Q 2594 391 2855 752 
Q 3116 1113 3116 1747 
z
" transform="scale(0.015625)"/>
      <path id="DejaVuSans-77" d="M 269 3500 
L 844 3500 
L 1563 769 
L 2278 3500 
L 2956 3500 
L 3675 769 
L 4391 3500 
L 4966 3500 
L 4050 0 
L 3372 0 
L 2619 2869 
L 1863 0 
L 1184 0 
L 269 3500 
z
" transform="scale(0.015625)"/>
      <path id="DejaVuSans-39" d="M 703 97 
L 703 672 
Q 941 559 1184 500 
Q 1428 441 1663 441 
Q 2288 441 2617 861 
Q 2947 1281 2994 2138 
Q 2813 1869 2534 1725 
Q 2256 1581 1919 1581 
Q 1219 1581 811 2004 
Q 403 2428 403 3163 
Q 403 3881 828 4315 
Q 1253 4750 1959 4750 
Q 2769 4750 3195 4129 
Q 3622 3509 3622 2328 
Q 3622 1225 3098 567 
Q 2575 -91 1691 -91 
Q 1453 -91 1209 -44 
Q 966 3 703 97 
z
M 1959 2075 
Q 2384 2075 2632 2365 
Q 2881 2656 2881 3163 
Q 2881 3666 2632 3958 
Q 2384 4250 1959 4250 
Q 1534 4250 1286 3958 
Q 1038 3666 1038 3163 
Q 1038 2656 1286 2365 
Q 1534 2075 1959 2075 
z
" transform="scale(0.015625)"/>
     </defs>
     <use xlink:href="#DejaVuSans-73"/>
     <use xlink:href="#DejaVuSans-74" x="52.099609"/>
     <use xlink:href="#DejaVuSans-6f" x="91.308594"/>
     <use xlink:href="#DejaVuSans-72" x="152.490234"/>
     <use xlink:href="#DejaVuSans-61" x="193.603516"/>
     <use xlink:href="#DejaVuSans-67" x="254.882812"/>
     <use xlink:href="#DejaVuSans-65" x="318.359375"/>
     <use xlink:href="#DejaVuSans-37" x="379.882812"/>
     <use xlink:href="#DejaVuSans-34" x="443.505859"/>
     <use xlink:href="#DejaVuSans-21" x="507.128906"/>
     <use xlink:href="#DejaVuSans-20" x="547.216797"/>
     <use xlink:href="#DejaVuSans-70" x="579.003906"/>
     <use xlink:href="#DejaVuSans-6f" x="642.480469"/>
     <use xlink:href="#DejaVuSans-77" x="703.662109"/>
     <use xlink:href="#DejaVuSans-65" x="785.449219"/>
     <use xlink:href="#DejaVuSans-72" x="846.972656"/>
     <use xlink:href="#DejaVuSans-31" x="888.085938"/>
     <use xlink:href="#DejaVuSans-31" x="951.708984"/>
     <use xlink:href="#DejaVuSans-39" x="1015.332031"/>
     <use xlink:href="#DejaVuSans-30" x="1078.955078"/>
     <use xlink:href="#DejaVuSans-21" x="1142.578125"/>
    </g>
   </g>
  </g>
  <g id="axes_2">
   <g id="patch_7">
    <path d="M 361.152 307.584 
L 374.4576 307.584 
L 374.4576 41.472 
L 361.152 41.472 
z
" style="fill: #ffffff"/>
   </g>
   <g id="patch_8">
    <path clip-path="url(#pb0d8a47b02)" style="fill: #ffffff; stroke: #ffffff; stroke-width: 0.01; stroke-linejoin: miter"/>
   </g>
   <g id="QuadMesh_1">
    <path d="M 361.152 307.584 
L 374.4576 307.584 
L 374.4576 302.04 
L 361.152 302.04 
L 361.152 307.584 
" clip-path="url(#pb0d8a47b02)" style="fill: #6d0220"/>
    <path d="M 361.152 302.04 
L 374.4576 302.04 
L 374.4576 296.496 
L 361.152 296.496 
L 361.152 302.04 
" clip-path="url(#pb0d8a47b02)" style="fill: #7f0823"/>
    <path d="M 361.152 296.496 
L 374.4576 296.496 
L 374.4576 290.952 
L 361.152 290.952 
L 361.152 296.496 
" clip-path="url(#pb0d8a47b02)" style="fill: #8d0c25"/>
    <path d="M 361.152 290.952 
L 374.4576 290.952 
L 374.4576 285.408 
L 361.152 285.408 
L 361.152 290.952 
" clip-path="url(#pb0d8a47b02)" style="fill: #9c1127"/>
    <path d="M 361.152 285.408 
L 374.4576 285.408 
L 374.4576 279.864 
L 361.152 279.864 
L 361.152 285.408 
" clip-path="url(#pb0d8a47b02)" style="fill: #ae172a"/>
    <path d="M 361.152 279.864 
L 374.4576 279.864 
L 374.4576 274.32 
L 361.152 274.32 
L 361.152 279.864 
" clip-path="url(#pb0d8a47b02)" style="fill: #b72230"/>
    <path d="M 361.152 274.32 
L 374.4576 274.32 
L 374.4576 268.776 
L 361.152 268.776 
L 361.152 274.32 
" clip-path="url(#pb0d8a47b02)" style="fill: #be3036"/>
    <path d="M 361.152 268.776 
L 374.4576 268.776 
L 374.4576 263.232 
L 361.152 263.232 
L 361.152 268.776 
" clip-path="url(#pb0d8a47b02)" style="fill: #c53e3d"/>
    <path d="M 361.152 263.232 
L 374.4576 263.232 
L 374.4576 257.688 
L 361.152 257.688 
L 361.152 263.232 
" clip-path="url(#pb0d8a47b02)" style="fill: #ce4f45"/>
    <path d="M 361.152 257.688 
L 374.4576 257.688 
L 374.4576 252.144 
L 361.152 252.144 
L 361.152 257.688 
" clip-path="url(#pb0d8a47b02)" style="fill: #d55d4c"/>
    <path d="M 361.152 252.144 
L 374.4576 252.144 
L 374.4576 246.6 
L 361.152 246.6 
L 361.152 252.144 
" clip-path="url(#pb0d8a47b02)" style="fill: #dc6e57"/>
    <path d="M 361.152 246.6 
L 374.4576 246.6 
L 374.4576 241.056 
L 361.152 241.056 
L 361.152 246.6 
" clip-path="url(#pb0d8a47b02)" style="fill: #e27b62"/>
    <path d="M 361.152 241.056 
L 374.4576 241.056 
L 374.4576 235.512 
L 361.152 235.512 
L 361.152 241.056 
" clip-path="url(#pb0d8a47b02)" style="fill: #e8896c"/>
    <path d="M 361.152 235.512 
L 374.4576 235.512 
L 374.4576 229.968 
L 361.152 229.968 
L 361.152 235.512 
" clip-path="url(#pb0d8a47b02)" style="fill: #ef9979"/>
    <path d="M 361.152 229.968 
L 374.4576 229.968 
L 374.4576 224.424 
L 361.152 224.424 
L 361.152 229.968 
" clip-path="url(#pb0d8a47b02)" style="fill: #f4a683"/>
    <path d="M 361.152 224.424 
L 374.4576 224.424 
L 374.4576 218.88 
L 361.152 218.88 
L 361.152 224.424 
" clip-path="url(#pb0d8a47b02)" style="fill: #f6b191"/>
    <path d="M 361.152 218.88 
L 374.4576 218.88 
L 374.4576 213.336 
L 361.152 213.336 
L 361.152 218.88 
" clip-path="url(#pb0d8a47b02)" style="fill: #f8bda1"/>
    <path d="M 361.152 213.336 
L 374.4576 213.336 
L 374.4576 207.792 
L 361.152 207.792 
L 361.152 213.336 
" clip-path="url(#pb0d8a47b02)" style="fill: #fac8af"/>
    <path d="M 361.152 207.792 
L 374.4576 207.792 
L 374.4576 202.248 
L 361.152 202.248 
L 361.152 207.792 
" clip-path="url(#pb0d8a47b02)" style="fill: #fcd3bc"/>
    <path d="M 361.152 202.248 
L 374.4576 202.248 
L 374.4576 196.704 
L 361.152 196.704 
L 361.152 202.248 
" clip-path="url(#pb0d8a47b02)" style="fill: #fddecb"/>
    <path d="M 361.152 196.704 
L 374.4576 196.704 
L 374.4576 191.16 
L 361.152 191.16 
L 361.152 196.704 
" clip-path="url(#pb0d8a47b02)" style="fill: #fee5d6"/>
    <path d="M 361.152 191.16 
L 374.4576 191.16 
L 374.4576 185.616 
L 361.152 185.616 
L 361.152 191.16 
" clip-path="url(#pb0d8a47b02)" style="fill: #feece1"/>
    <path d="M 361.152 185.616 
L 374.4576 185.616 
L 374.4576 180.072 
L 361.152 180.072 
L 361.152 185.616 
" clip-path="url(#pb0d8a47b02)" style="fill: #fef4ef"/>
    <path d="M 361.152 180.072 
L 374.4576 180.072 
L 374.4576 174.528 
L 361.152 174.528 
L 361.152 180.072 
" clip-path="url(#pb0d8a47b02)" style="fill: #fffbfa"/>
    <path d="M 361.152 174.528 
L 374.4576 174.528 
L 374.4576 168.984 
L 361.152 168.984 
L 361.152 174.528 
" clip-path="url(#pb0d8a47b02)" style="fill: #fcfcfc"/>
    <path d="M 361.152 168.984 
L 374.4576 168.984 
L 374.4576 163.44 
L 361.152 163.44 
L 361.152 168.984 
" clip-path="url(#pb0d8a47b02)" style="fill: #f5f5f5"/>
    <path d="M 361.152 163.44 
L 374.4576 163.44 
L 374.4576 157.896 
L 361.152 157.896 
L 361.152 163.44 
" clip-path="url(#pb0d8a47b02)" style="fill: #efefef"/>
    <path d="M 361.152 157.896 
L 374.4576 157.896 
L 374.4576 152.352 
L 361.152 152.352 
L 361.152 157.896 
" clip-path="url(#pb0d8a47b02)" style="fill: #e9e9e9"/>
    <path d="M 361.152 152.352 
L 374.4576 152.352 
L 374.4576 146.808 
L 361.152 146.808 
L 361.152 152.352 
" clip-path="url(#pb0d8a47b02)" style="fill: #e1e1e1"/>
    <path d="M 361.152 146.808 
L 374.4576 146.808 
L 374.4576 141.264 
L 361.152 141.264 
L 361.152 146.808 
" clip-path="url(#pb0d8a47b02)" style="fill: #dadada"/>
    <path d="M 361.152 141.264 
L 374.4576 141.264 
L 374.4576 135.72 
L 361.152 135.72 
L 361.152 141.264 
" clip-path="url(#pb0d8a47b02)" style="fill: #d3d3d3"/>
    <path d="M 361.152 135.72 
L 374.4576 135.72 
L 374.4576 130.176 
L 361.152 130.176 
L 361.152 135.72 
" clip-path="url(#pb0d8a47b02)" style="fill: #cacaca"/>
    <path d="M 361.152 130.176 
L 374.4576 130.176 
L 374.4576 124.632 
L 361.152 124.632 
L 361.152 130.176 
" clip-path="url(#pb0d8a47b02)" style="fill: #c2c2c2"/>
    <path d="M 361.152 124.632 
L 374.4576 124.632 
L 374.4576 119.088 
L 361.152 119.088 
L 361.152 124.632 
" clip-path="url(#pb0d8a47b02)" style="fill: #bbbbbb"/>
    <path d="M 361.152 119.088 
L 374.4576 119.088 
L 374.4576 113.544 
L 361.152 113.544 
L 361.152 119.088 
" clip-path="url(#pb0d8a47b02)" style="fill: #afafaf"/>
    <path d="M 361.152 113.544 
L 374.4576 113.544 
L 374.4576 108 
L 361.152 108 
L 361.152 113.544 
" clip-path="url(#pb0d8a47b02)" style="fill: #a5a5a5"/>
    <path d="M 361.152 108 
L 374.4576 108 
L 374.4576 102.456 
L 361.152 102.456 
L 361.152 108 
" clip-path="url(#pb0d8a47b02)" style="fill: #9b9b9b"/>
    <path d="M 361.152 102.456 
L 374.4576 102.456 
L 374.4576 96.912 
L 361.152 96.912 
L 361.152 102.456 
" clip-path="url(#pb0d8a47b02)" style="fill: #8f8f8f"/>
    <path d="M 361.152 96.912 
L 374.4576 96.912 
L 374.4576 91.368 
L 361.152 91.368 
L 361.152 96.912 
" clip-path="url(#pb0d8a47b02)" style="fill: #858585"/>
    <path d="M 361.152 91.368 
L 374.4576 91.368 
L 374.4576 85.824 
L 361.152 85.824 
L 361.152 91.368 
" clip-path="url(#pb0d8a47b02)" style="fill: #797979"/>
    <path d="M 361.152 85.824 
L 374.4576 85.824 
L 374.4576 80.28 
L 361.152 80.28 
L 361.152 85.824 
" clip-path="url(#pb0d8a47b02)" style="fill: #6c6c6c"/>
    <path d="M 361.152 80.28 
L 374.4576 80.28 
L 374.4576 74.736 
L 361.152 74.736 
L 361.152 80.28 
" clip-path="url(#pb0d8a47b02)" style="fill: #606060"/>
    <path d="M 361.152 74.736 
L 374.4576 74.736 
L 374.4576 69.192 
L 361.152 69.192 
L 361.152 74.736 
" clip-path="url(#pb0d8a47b02)" style="fill: #555555"/>
    <path d="M 361.152 69.192 
L 374.4576 69.192 
L 374.4576 63.648 
L 361.152 63.648 
L 361.152 69.192 
" clip-path="url(#pb0d8a47b02)" style="fill: #484848"/>
    <path d="M 361.152 63.648 
L 374.4576 63.648 
L 374.4576 58.104 
L 361.152 58.104 
L 361.152 63.648 
" clip-path="url(#pb0d8a47b02)" style="fill: #3e3e3e"/>
    <path d="M 361.152 58.104 
L 374.4576 58.104 
L 374.4576 52.56 
L 361.152 52.56 
L 361.152 58.104 
" clip-path="url(#pb0d8a47b02)" style="fill: #343434"/>
    <path d="M 361.152 52.56 
L 374.4576 52.56 
L 374.4576 47.016 
L 361.152 47.016 
L 361.152 52.56 
" clip-path="url(#pb0d8a47b02)" style="fill: #282828"/>
    <path d="M 361.152 47.016 
L 374.4576 47.016 
L 374.4576 41.472 
L 361.152 41.472 
L 361.152 47.016 
" clip-path="url(#pb0d8a47b02)" style="fill: #1e1e1e"/>
   </g>
   <g id="matplotlib.axis_3">
    <g id="ytick_8">
     <g id="line2d_15">
      <defs>
       <path id="m7906ff9b00" d="M 0 0 
L 3.5 0 
" style="stroke: #000000; stroke-width: 0.8"/>
      </defs>
      <g>
       <use xlink:href="#m7906ff9b00" x="374.4576" y="307.584" style="stroke: #000000; stroke-width: 0.8"/>
      </g>
     </g>
     <g id="text_18">
      <!-- 0.2 -->
      <g transform="translate(381.4576 311.383219)scale(0.1 -0.1)">
       <use xlink:href="#DejaVuSans-30"/>
       <use xlink:href="#DejaVuSans-2e" x="63.623047"/>
       <use xlink:href="#DejaVuSans-32" x="95.410156"/>
      </g>
     </g>
    </g>
    <g id="ytick_9">
     <g id="line2d_16">
      <g>
       <use xlink:href="#m7906ff9b00" x="374.4576" y="279.864" style="stroke: #000000; stroke-width: 0.8"/>
      </g>
     </g>
     <g id="text_19">
      <!-- 0.3 -->
      <g transform="translate(381.4576 283.663219)scale(0.1 -0.1)">
       <use xlink:href="#DejaVuSans-30"/>
       <use xlink:href="#DejaVuSans-2e" x="63.623047"/>
       <use xlink:href="#DejaVuSans-33" x="95.410156"/>
      </g>
     </g>
    </g>
    <g id="ytick_10">
     <g id="line2d_17">
      <g>
       <use xlink:href="#m7906ff9b00" x="374.4576" y="252.144" style="stroke: #000000; stroke-width: 0.8"/>
      </g>
     </g>
     <g id="text_20">
      <!-- 0.4 -->
      <g transform="translate(381.4576 255.943219)scale(0.1 -0.1)">
       <use xlink:href="#DejaVuSans-30"/>
       <use xlink:href="#DejaVuSans-2e" x="63.623047"/>
       <use xlink:href="#DejaVuSans-34" x="95.410156"/>
      </g>
     </g>
    </g>
    <g id="ytick_11">
     <g id="line2d_18">
      <g>
       <use xlink:href="#m7906ff9b00" x="374.4576" y="224.424" style="stroke: #000000; stroke-width: 0.8"/>
      </g>
     </g>
     <g id="text_21">
      <!-- 0.5 -->
      <g transform="translate(381.4576 228.223219)scale(0.1 -0.1)">
       <use xlink:href="#DejaVuSans-30"/>
       <use xlink:href="#DejaVuSans-2e" x="63.623047"/>
       <use xlink:href="#DejaVuSans-35" x="95.410156"/>
      </g>
     </g>
    </g>
    <g id="ytick_12">
     <g id="line2d_19">
      <g>
       <use xlink:href="#m7906ff9b00" x="374.4576" y="196.704" style="stroke: #000000; stroke-width: 0.8"/>
      </g>
     </g>
     <g id="text_22">
      <!-- 0.6 -->
      <g transform="translate(381.4576 200.503219)scale(0.1 -0.1)">
       <defs>
        <path id="DejaVuSans-36" d="M 2113 2584 
Q 1688 2584 1439 2293 
Q 1191 2003 1191 1497 
Q 1191 994 1439 701 
Q 1688 409 2113 409 
Q 2538 409 2786 701 
Q 3034 994 3034 1497 
Q 3034 2003 2786 2293 
Q 2538 2584 2113 2584 
z
M 3366 4563 
L 3366 3988 
Q 3128 4100 2886 4159 
Q 2644 4219 2406 4219 
Q 1781 4219 1451 3797 
Q 1122 3375 1075 2522 
Q 1259 2794 1537 2939 
Q 1816 3084 2150 3084 
Q 2853 3084 3261 2657 
Q 3669 2231 3669 1497 
Q 3669 778 3244 343 
Q 2819 -91 2113 -91 
Q 1303 -91 875 529 
Q 447 1150 447 2328 
Q 447 3434 972 4092 
Q 1497 4750 2381 4750 
Q 2619 4750 2861 4703 
Q 3103 4656 3366 4563 
z
" transform="scale(0.015625)"/>
       </defs>
       <use xlink:href="#DejaVuSans-30"/>
       <use xlink:href="#DejaVuSans-2e" x="63.623047"/>
       <use xlink:href="#DejaVuSans-36" x="95.410156"/>
      </g>
     </g>
    </g>
    <g id="ytick_13">
     <g id="line2d_20">
      <g>
       <use xlink:href="#m7906ff9b00" x="374.4576" y="168.984" style="stroke: #000000; stroke-width: 0.8"/>
      </g>
     </g>
     <g id="text_23">
      <!-- 0.7 -->
      <g transform="translate(381.4576 172.783219)scale(0.1 -0.1)">
       <use xlink:href="#DejaVuSans-30"/>
       <use xlink:href="#DejaVuSans-2e" x="63.623047"/>
       <use xlink:href="#DejaVuSans-37" x="95.410156"/>
      </g>
     </g>
    </g>
    <g id="ytick_14">
     <g id="line2d_21">
      <g>
       <use xlink:href="#m7906ff9b00" x="374.4576" y="141.264" style="stroke: #000000; stroke-width: 0.8"/>
      </g>
     </g>
     <g id="text_24">
      <!-- 0.8 -->
      <g transform="translate(381.4576 145.063219)scale(0.1 -0.1)">
       <defs>
        <path id="DejaVuSans-38" d="M 2034 2216 
Q 1584 2216 1326 1975 
Q 1069 1734 1069 1313 
Q 1069 891 1326 650 
Q 1584 409 2034 409 
Q 2484 409 2743 651 
Q 3003 894 3003 1313 
Q 3003 1734 2745 1975 
Q 2488 2216 2034 2216 
z
M 1403 2484 
Q 997 2584 770 2862 
Q 544 3141 544 3541 
Q 544 4100 942 4425 
Q 1341 4750 2034 4750 
Q 2731 4750 3128 4425 
Q 3525 4100 3525 3541 
Q 3525 3141 3298 2862 
Q 3072 2584 2669 2484 
Q 3125 2378 3379 2068 
Q 3634 1759 3634 1313 
Q 3634 634 3220 271 
Q 2806 -91 2034 -91 
Q 1263 -91 848 271 
Q 434 634 434 1313 
Q 434 1759 690 2068 
Q 947 2378 1403 2484 
z
M 1172 3481 
Q 1172 3119 1398 2916 
Q 1625 2713 2034 2713 
Q 2441 2713 2670 2916 
Q 2900 3119 2900 3481 
Q 2900 3844 2670 4047 
Q 2441 4250 2034 4250 
Q 1625 4250 1398 4047 
Q 1172 3844 1172 3481 
z
" transform="scale(0.015625)"/>
       </defs>
       <use xlink:href="#DejaVuSans-30"/>
       <use xlink:href="#DejaVuSans-2e" x="63.623047"/>
       <use xlink:href="#DejaVuSans-38" x="95.410156"/>
      </g>
     </g>
    </g>
    <g id="ytick_15">
     <g id="line2d_22">
      <g>
       <use xlink:href="#m7906ff9b00" x="374.4576" y="113.544" style="stroke: #000000; stroke-width: 0.8"/>
      </g>
     </g>
     <g id="text_25">
      <!-- 0.9 -->
      <g transform="translate(381.4576 117.343219)scale(0.1 -0.1)">
       <use xlink:href="#DejaVuSans-30"/>
       <use xlink:href="#DejaVuSans-2e" x="63.623047"/>
       <use xlink:href="#DejaVuSans-39" x="95.410156"/>
      </g>
     </g>
    </g>
    <g id="ytick_16">
     <g id="line2d_23">
      <g>
       <use xlink:href="#m7906ff9b00" x="374.4576" y="85.824" style="stroke: #000000; stroke-width: 0.8"/>
      </g>
     </g>
     <g id="text_26">
      <!-- 1.0 -->
      <g transform="translate(381.4576 89.623219)scale(0.1 -0.1)">
       <use xlink:href="#DejaVuSans-31"/>
       <use xlink:href="#DejaVuSans-2e" x="63.623047"/>
       <use xlink:href="#DejaVuSans-30" x="95.410156"/>
      </g>
     </g>
    </g>
    <g id="ytick_17">
     <g id="line2d_24">
      <g>
       <use xlink:href="#m7906ff9b00" x="374.4576" y="58.104" style="stroke: #000000; stroke-width: 0.8"/>
      </g>
     </g>
     <g id="text_27">
      <!-- 1.1 -->
      <g transform="translate(381.4576 61.903219)scale(0.1 -0.1)">
       <use xlink:href="#DejaVuSans-31"/>
       <use xlink:href="#DejaVuSans-2e" x="63.623047"/>
       <use xlink:href="#DejaVuSans-31" x="95.410156"/>
      </g>
     </g>
    </g>
   </g>
   <g id="LineCollection_1"/>
   <g id="patch_9">
    <path d="M 361.152 307.584 
L 367.8048 307.584 
L 374.4576 307.584 
L 374.4576 41.472 
L 367.8048 41.472 
L 361.152 41.472 
L 361.152 307.584 
z
" style="fill: none; stroke: #000000; stroke-width: 0.8; stroke-linejoin: miter; stroke-linecap: square"/>
   </g>
  </g>
 </g>
 <defs>
  <clipPath id="p489636bb04">
   <rect x="57.6" y="41.472" width="285.696" height="266.112"/>
  </clipPath>
  <clipPath id="pb0d8a47b02">
   <rect x="361.152" y="41.472" width="13.3056" height="266.112"/>
  </clipPath>
 </defs>
</svg>
