<?xml version="1.0" encoding="utf-8" standalone="no"?>
<!DOCTYPE svg PUBLIC "-//W3C//DTD SVG 1.1//EN"
  "http://www.w3.org/Graphics/SVG/1.1/DTD/svg11.dtd">
<svg xmlns:xlink="http://www.w3.org/1999/xlink" width="460.8pt" height="345.6pt" viewBox="0 0 460.8 345.6" xmlns="http://www.w3.org/2000/svg" version="1.1">
 <metadata>
  <rdf:RDF xmlns:dc="http://purl.org/dc/elements/1.1/" xmlns:cc="http://creativecommons.org/ns#" xmlns:rdf="http://www.w3.org/1999/02/22-rdf-syntax-ns#">
   <cc:Work>
    <dc:type rdf:resource="http://purl.org/dc/dcmitype/StillImage"/>
    <dc:date>2023-02-20T12:45:55.939787</dc:date>
    <dc:format>image/svg+xml</dc:format>
    <dc:creator>
     <cc:Agent>
      <dc:title>Matplotlib v3.5.3, https://matplotlib.org/</dc:title>
     </cc:Agent>
    </dc:creator>
   </cc:Work>
  </rdf:RDF>
 </metadata>
 <defs>
  <style type="text/css">*{stroke-linejoin: round; stroke-linecap: butt}</style>
 </defs>
 <g id="figure_1">
  <g id="patch_1">
   <path d="M 0 345.6 
L 460.8 345.6 
L 460.8 0 
L 0 0 
z
" style="fill: #ffffff"/>
  </g>
  <g id="axes_1">
   <g id="patch_2">
    <path d="M 57.6 307.584 
L 343.296 307.584 
L 343.296 41.472 
L 57.6 41.472 
z
" style="fill: #ffffff"/>
   </g>
   <g id="PathCollection_1">
    <path d="M 343.296 162.572255 
L 343.296 155.52 
L 343.296 117.504 
L 343.296 79.488 
L 343.296 41.472 
L 324.2496 41.472 
L 305.2032 41.472 
L 286.1568 41.472 
L 267.1104 41.472 
L 248.064 41.472 
L 229.0176 41.472 
L 209.9712 41.472 
L 203.863968 41.472 
L 209.9712 50.720038 
L 229.0176 77.330051 
L 230.704755 79.488 
L 248.064 96.99007 
L 267.1104 115.981835 
L 268.754341 117.504 
L 286.1568 129.196917 
L 305.2032 141.875292 
L 324.2496 154.524377 
L 325.841003 155.52 
z
" clip-path="url(#p3c4dfb35db)" style="fill: #6d0220"/>
   </g>
   <g id="PathCollection_2">
    <path d="M 305.2032 198.145217 
L 324.2496 204.605098 
L 343.296 211.036703 
L 343.296 193.536 
L 343.296 162.572255 
L 325.841003 155.52 
L 324.2496 154.524377 
L 305.2032 141.875292 
L 286.1568 129.196917 
L 268.754341 117.504 
L 267.1104 115.981835 
L 248.064 96.99007 
L 230.704755 79.488 
L 229.0176 77.330051 
L 209.9712 50.720038 
L 203.863968 41.472 
L 190.9248 41.472 
L 171.8784 41.472 
L 152.832 41.472 
L 148.643184 41.472 
L 152.832 51.671496 
L 166.596156 79.488 
L 171.8784 88.408732 
L 190.9248 117.154622 
L 191.185218 117.504 
L 209.9712 136.509959 
L 228.909453 155.52 
L 229.0176 155.593206 
L 248.064 167.189617 
L 267.1104 178.725461 
L 286.1568 190.21481 
L 291.963545 193.536 
z
" clip-path="url(#p3c4dfb35db)" style="fill: #7f0823"/>
   </g>
   <g id="PathCollection_3">
    <path d="M 324.2496 235.587297 
L 343.296 241.278806 
L 343.296 231.552 
L 343.296 211.036703 
L 324.2496 204.605098 
L 305.2032 198.145217 
L 291.963545 193.536 
L 286.1568 190.21481 
L 267.1104 178.725461 
L 248.064 167.189617 
L 229.0176 155.593206 
L 228.909453 155.52 
L 209.9712 136.509959 
L 191.185218 117.504 
L 190.9248 117.154622 
L 171.8784 88.408732 
L 166.596156 79.488 
L 152.832 51.671496 
L 148.643184 41.472 
L 133.7856 41.472 
L 121.260903 41.472 
L 133.726686 79.488 
L 133.7856 79.637939 
L 152.482658 117.504 
L 152.832 118.072497 
L 171.8784 143.935437 
L 181.089725 155.52 
L 190.9248 164.106376 
L 209.9712 179.635692 
L 227.303828 193.536 
L 229.0176 194.403762 
L 248.064 203.144774 
L 267.1104 211.813857 
L 286.1568 220.42777 
L 305.2032 228.998442 
L 311.16428 231.552 
z
" clip-path="url(#p3c4dfb35db)" style="fill: #900d26"/>
   </g>
   <g id="PathCollection_4">
    <path d="M 267.1104 236.34076 
L 286.1568 243.601806 
L 305.2032 250.746261 
L 324.2496 257.798444 
L 343.296 264.776348 
L 343.296 241.278806 
L 324.2496 235.587297 
L 311.16428 231.552 
L 305.2032 228.998442 
L 286.1568 220.42777 
L 267.1104 211.813857 
L 248.064 203.144774 
L 229.0176 194.403762 
L 227.303828 193.536 
L 209.9712 179.635692 
L 190.9248 164.106376 
L 181.089725 155.52 
L 171.8784 143.935437 
L 152.832 118.072497 
L 152.482658 117.504 
L 133.7856 79.637939 
L 133.726686 79.488 
L 121.260903 41.472 
L 114.7392 41.472 
L 105.082453 41.472 
L 114.437454 79.488 
L 114.7392 80.515221 
L 129.887563 117.504 
L 133.7856 125.453807 
L 151.630484 155.52 
L 152.832 156.99512 
L 171.8784 176.659029 
L 188.682709 193.536 
L 190.9248 195.003725 
L 209.9712 206.045846 
L 229.0176 216.956378 
L 248.064 227.771624 
L 255.121069 231.552 
z
" clip-path="url(#p3c4dfb35db)" style="fill: #a21328"/>
   </g>
   <g id="PathCollection_5">
    <path d="M 305.2032 269.876215 
L 324.2496 270.967097 
L 343.296 271.878278 
L 343.296 269.568 
L 343.296 264.776348 
L 324.2496 257.798444 
L 305.2032 250.746261 
L 286.1568 243.601806 
L 267.1104 236.34076 
L 255.121069 231.552 
L 248.064 227.771624 
L 229.0176 216.956378 
L 209.9712 206.045846 
L 190.9248 195.003725 
L 188.682709 193.536 
L 171.8784 176.659029 
L 152.832 156.99512 
L 151.630484 155.52 
L 133.7856 125.453807 
L 129.887563 117.504 
L 114.7392 80.515221 
L 114.437454 79.488 
L 105.082453 41.472 
L 95.6928 41.472 
L 93.553141 41.472 
L 95.6928 54.633174 
L 102.610484 79.488 
L 113.921915 117.504 
L 114.7392 119.732878 
L 132.356103 155.52 
L 133.7856 157.720013 
L 152.832 181.498996 
L 163.301978 193.536 
L 171.8784 200.109932 
L 190.9248 213.411114 
L 209.9712 226.525187 
L 217.785453 231.552 
L 229.0176 237.130221 
L 248.064 246.013835 
L 267.1104 254.703027 
L 286.1568 263.244899 
L 300.669276 269.568 
z
" clip-path="url(#p3c4dfb35db)" style="fill: #b3192c"/>
   </g>
   <g id="PathCollection_6">
    <path d="M 267.1104 270.197944 
L 286.1568 271.719517 
L 305.2032 272.941011 
L 324.2496 273.943228 
L 343.296 274.78035 
L 343.296 271.878278 
L 324.2496 270.967097 
L 305.2032 269.876215 
L 300.669276 269.568 
L 286.1568 263.244899 
L 267.1104 254.703027 
L 248.064 246.013835 
L 229.0176 237.130221 
L 217.785453 231.552 
L 209.9712 226.525187 
L 190.9248 213.411114 
L 171.8784 200.109932 
L 163.301978 193.536 
L 152.832 181.498996 
L 133.7856 157.720013 
L 132.356103 155.52 
L 114.7392 119.732878 
L 113.921915 117.504 
L 102.610484 79.488 
L 95.6928 54.633174 
L 93.553141 41.472 
L 86.644806 41.472 
L 93.184768 79.488 
L 95.6928 92.333945 
L 103.869036 117.504 
L 114.7392 147.148841 
L 118.860065 155.52 
L 133.7856 178.49057 
L 144.973764 193.536 
L 152.832 200.796247 
L 171.8784 216.447268 
L 190.631142 231.552 
L 190.9248 231.744276 
L 209.9712 242.524368 
L 229.0176 252.940648 
L 248.064 263.098232 
L 260.736755 269.568 
z
" clip-path="url(#p3c4dfb35db)" style="fill: #bb2a34"/>
   </g>
   <g id="PathCollection_7">
    <path d="M 248.064 271.730006 
L 267.1104 273.505412 
L 286.1568 274.892375 
L 305.2032 276.005806 
L 324.2496 276.919359 
L 343.296 277.682423 
L 343.296 274.78035 
L 324.2496 273.943228 
L 305.2032 272.941011 
L 286.1568 271.719517 
L 267.1104 270.197944 
L 260.736755 269.568 
L 248.064 263.098232 
L 229.0176 252.940648 
L 209.9712 242.524368 
L 190.9248 231.744276 
L 190.631142 231.552 
L 171.8784 216.447268 
L 152.832 200.796247 
L 144.973764 193.536 
L 133.7856 178.49057 
L 118.860065 155.52 
L 114.7392 147.148841 
L 103.869036 117.504 
L 95.6928 92.333945 
L 93.184768 79.488 
L 86.644806 41.472 
L 79.736471 41.472 
L 87.142663 79.488 
L 94.726276 117.504 
L 95.6928 121.464567 
L 108.986253 155.52 
L 114.7392 167.359329 
L 130.887557 193.536 
L 133.7856 196.900864 
L 152.832 215.066402 
L 170.710773 231.552 
L 171.8784 232.459648 
L 190.9248 245.024805 
L 209.9712 257.066122 
L 229.0176 268.751076 
L 230.479952 269.568 
z
" clip-path="url(#p3c4dfb35db)" style="fill: #c2383a"/>
   </g>
   <g id="PathCollection_8">
    <path d="M 209.9712 270.132685 
L 229.0176 273.084604 
L 248.064 275.209785 
L 267.1104 276.812881 
L 286.1568 278.065233 
L 305.2032 279.070601 
L 324.2496 279.89549 
L 343.296 280.584495 
L 343.296 277.682423 
L 324.2496 276.919359 
L 305.2032 276.005806 
L 286.1568 274.892375 
L 267.1104 273.505412 
L 248.064 271.730006 
L 230.479952 269.568 
L 229.0176 268.751076 
L 209.9712 257.066122 
L 190.9248 245.024805 
L 171.8784 232.459648 
L 170.710773 231.552 
L 152.832 215.066402 
L 133.7856 196.900864 
L 130.887557 193.536 
L 114.7392 167.359329 
L 108.986253 155.52 
L 95.6928 121.464567 
L 94.726276 117.504 
L 87.142663 79.488 
L 79.736471 41.472 
L 76.6464 41.472 
L 75.320536 41.472 
L 76.6464 57.761441 
L 81.100558 79.488 
L 89.548761 117.504 
L 95.6928 142.680688 
L 100.704593 155.52 
L 114.7392 184.402643 
L 120.373557 193.536 
L 133.7856 209.108474 
L 152.832 229.336556 
L 155.234668 231.552 
L 171.8784 244.489902 
L 190.9248 258.305334 
L 207.267893 269.568 
z
" clip-path="url(#p3c4dfb35db)" style="fill: #cb4942"/>
   </g>
   <g id="PathCollection_9">
    <path d="M 190.9248 270.251133 
L 209.9712 274.158182 
L 229.0176 276.792811 
L 248.064 278.689564 
L 267.1104 280.12035 
L 286.1568 281.238091 
L 305.2032 282.135396 
L 324.2496 282.871621 
L 343.296 283.486568 
L 343.296 280.584495 
L 324.2496 279.89549 
L 305.2032 279.070601 
L 286.1568 278.065233 
L 267.1104 276.812881 
L 248.064 275.209785 
L 229.0176 273.084604 
L 209.9712 270.132685 
L 207.267893 269.568 
L 190.9248 258.305334 
L 171.8784 244.489902 
L 155.234668 231.552 
L 152.832 229.336556 
L 133.7856 209.108474 
L 120.373557 193.536 
L 114.7392 184.402643 
L 100.704593 155.52 
L 95.6928 142.680688 
L 89.548761 117.504 
L 81.100558 79.488 
L 76.6464 57.761441 
L 75.320536 41.472 
L 72.921667 41.472 
L 76.086605 79.488 
L 76.6464 85.181554 
L 84.371246 117.504 
L 93.988785 155.52 
L 95.6928 160.782486 
L 111.713522 193.536 
L 114.7392 198.248235 
L 133.7856 221.316083 
L 143.273365 231.552 
L 152.832 240.672788 
L 171.8784 256.520155 
L 188.584424 269.568 
z
" clip-path="url(#p3c4dfb35db)" style="fill: #d35a4a"/>
   </g>
   <g id="PathCollection_10">
    <path d="M 190.9248 274.747159 
L 209.9712 278.183679 
L 229.0176 280.501017 
L 248.064 282.169344 
L 267.1104 283.427818 
L 286.1568 284.41095 
L 305.2032 285.200191 
L 324.2496 285.847752 
L 343.296 286.38864 
L 343.296 283.486568 
L 324.2496 282.871621 
L 305.2032 282.135396 
L 286.1568 281.238091 
L 267.1104 280.12035 
L 248.064 278.689564 
L 229.0176 276.792811 
L 209.9712 274.158182 
L 190.9248 270.251133 
L 188.584424 269.568 
L 171.8784 256.520155 
L 152.832 240.672788 
L 143.273365 231.552 
L 133.7856 221.316083 
L 114.7392 198.248235 
L 111.713522 193.536 
L 95.6928 160.782486 
L 93.988785 155.52 
L 84.371246 117.504 
L 76.6464 85.181554 
L 76.086605 79.488 
L 72.921667 41.472 
L 70.522799 41.472 
L 73.956595 79.488 
L 76.6464 106.845407 
L 79.193732 117.504 
L 89.672991 155.52 
L 95.6928 174.110895 
L 105.194199 193.536 
L 114.7392 208.401526 
L 132.525673 231.552 
L 133.7856 233.101321 
L 152.832 251.469817 
L 171.8784 268.550409 
L 173.18129 269.568 
z
" clip-path="url(#p3c4dfb35db)" style="fill: #db6b55"/>
   </g>
   <g id="PathCollection_11">
    <path d="M 171.8784 274.388705 
L 190.9248 279.243185 
L 209.9712 282.209177 
L 229.0176 284.209224 
L 248.064 285.649123 
L 267.1104 286.735287 
L 286.1568 287.583808 
L 305.2032 288.264986 
L 324.2496 288.823883 
L 343.296 289.290712 
L 343.296 286.38864 
L 324.2496 285.847752 
L 305.2032 285.200191 
L 286.1568 284.41095 
L 267.1104 283.427818 
L 248.064 282.169344 
L 229.0176 280.501017 
L 209.9712 278.183679 
L 190.9248 274.747159 
L 173.18129 269.568 
L 171.8784 268.550409 
L 152.832 251.469817 
L 133.7856 233.101321 
L 132.525673 231.552 
L 114.7392 208.401526 
L 105.194199 193.536 
L 95.6928 174.110895 
L 89.672991 155.52 
L 79.193732 117.504 
L 76.6464 106.845407 
L 73.956595 79.488 
L 70.522799 41.472 
L 68.12393 41.472 
L 71.826585 79.488 
L 75.7001 117.504 
L 76.6464 125.148285 
L 85.357196 155.52 
L 95.6928 187.439305 
L 98.674876 193.536 
L 114.7392 218.554818 
L 124.724915 231.552 
L 133.7856 242.693845 
L 152.832 262.266846 
L 160.924026 269.568 
z
" clip-path="url(#p3c4dfb35db)" style="fill: #e27b62"/>
   </g>
   <g id="PathCollection_12">
    <path d="M 152.832 271.755345 
L 171.8784 279.654853 
L 190.9248 283.739211 
L 209.9712 286.234674 
L 229.0176 287.917431 
L 248.064 289.128902 
L 267.1104 290.042756 
L 286.1568 290.756666 
L 305.2032 291.329781 
L 324.2496 291.800014 
L 343.296 292.192785 
L 343.296 289.290712 
L 324.2496 288.823883 
L 305.2032 288.264986 
L 286.1568 287.583808 
L 267.1104 286.735287 
L 248.064 285.649123 
L 229.0176 284.209224 
L 209.9712 282.209177 
L 190.9248 279.243185 
L 171.8784 274.388705 
L 160.924026 269.568 
L 152.832 262.266846 
L 133.7856 242.693845 
L 124.724915 231.552 
L 114.7392 218.554818 
L 98.674876 193.536 
L 95.6928 187.439305 
L 85.357196 155.52 
L 76.6464 125.148285 
L 75.7001 117.504 
L 71.826585 79.488 
L 68.12393 41.472 
L 65.725062 41.472 
L 69.696575 79.488 
L 73.837309 117.504 
L 76.6464 140.196057 
L 81.041402 155.52 
L 93.814672 193.536 
L 95.6928 197.939454 
L 114.7392 228.708109 
L 116.924157 231.552 
L 133.7856 252.286369 
L 149.930429 269.568 
z
" clip-path="url(#p3c4dfb35db)" style="fill: #e8896c"/>
   </g>
   <g id="PathCollection_13">
    <path d="M 152.832 278.510975 
L 171.8784 284.921 
L 190.9248 288.235237 
L 209.9712 290.260171 
L 229.0176 291.625638 
L 248.064 292.608681 
L 267.1104 293.350224 
L 286.1568 293.929524 
L 305.2032 294.394576 
L 324.2496 294.776145 
L 343.296 295.094857 
L 343.296 292.192785 
L 324.2496 291.800014 
L 305.2032 291.329781 
L 286.1568 290.756666 
L 267.1104 290.042756 
L 248.064 289.128902 
L 229.0176 287.917431 
L 209.9712 286.234674 
L 190.9248 283.739211 
L 171.8784 279.654853 
L 152.832 271.755345 
L 149.930429 269.568 
L 133.7856 252.286369 
L 116.924157 231.552 
L 114.7392 228.708109 
L 95.6928 197.939454 
L 93.814672 193.536 
L 81.041402 155.52 
L 76.6464 140.196057 
L 73.837309 117.504 
L 69.696575 79.488 
L 65.725062 41.472 
L 63.326193 41.472 
L 67.566565 79.488 
L 71.974518 117.504 
L 76.6464 155.243829 
L 76.725608 155.52 
L 90.353189 193.536 
L 95.6928 206.055239 
L 111.188383 231.552 
L 114.7392 237.629581 
L 133.7856 261.878893 
L 140.968911 269.568 
z
" clip-path="url(#p3c4dfb35db)" style="fill: #ef9979"/>
   </g>
   <g id="PathCollection_14">
    <path d="M 133.7856 271.722056 
L 152.832 285.266605 
L 171.8784 290.187148 
L 190.9248 292.731263 
L 209.9712 294.285668 
L 229.0176 295.333845 
L 248.064 296.088461 
L 267.1104 296.657693 
L 286.1568 297.102382 
L 305.2032 297.459371 
L 324.2496 297.752276 
L 343.296 297.99693 
L 343.296 295.094857 
L 324.2496 294.776145 
L 305.2032 294.394576 
L 286.1568 293.929524 
L 267.1104 293.350224 
L 248.064 292.608681 
L 229.0176 291.625638 
L 209.9712 290.260171 
L 190.9248 288.235237 
L 171.8784 284.921 
L 152.832 278.510975 
L 140.968911 269.568 
L 133.7856 261.878893 
L 114.7392 237.629581 
L 111.188383 231.552 
L 95.6928 206.055239 
L 90.353189 193.536 
L 76.725608 155.52 
L 76.6464 155.243829 
L 71.974518 117.504 
L 67.566565 79.488 
L 63.326193 41.472 
L 60.927325 41.472 
L 65.436556 79.488 
L 70.111727 117.504 
L 75.077294 155.52 
L 76.6464 164.988166 
L 86.891705 193.536 
L 95.6928 214.171024 
L 106.256038 231.552 
L 114.7392 246.071785 
L 132.518057 269.568 
z
" clip-path="url(#p3c4dfb35db)" style="fill: #f5a886"/>
   </g>
   <g id="PathCollection_15">
    <path d="M 133.7856 282.577715 
L 152.832 292.022235 
L 171.8784 295.453295 
L 190.9248 297.227289 
L 209.9712 298.311165 
L 229.0176 299.042051 
L 248.064 299.56824 
L 267.1104 299.965162 
L 286.1568 300.27524 
L 305.2032 300.524166 
L 324.2496 300.728407 
L 343.296 300.899002 
L 343.296 297.99693 
L 324.2496 297.752276 
L 305.2032 297.459371 
L 286.1568 297.102382 
L 267.1104 296.657693 
L 248.064 296.088461 
L 229.0176 295.333845 
L 209.9712 294.285668 
L 190.9248 292.731263 
L 171.8784 290.187148 
L 152.832 285.266605 
L 133.7856 271.722056 
L 132.518057 269.568 
L 114.7392 246.071785 
L 106.256038 231.552 
L 95.6928 214.171024 
L 86.891705 193.536 
L 76.6464 164.988166 
L 75.077294 155.52 
L 70.111727 117.504 
L 65.436556 79.488 
L 60.927325 41.472 
L 58.528457 41.472 
L 63.306546 79.488 
L 68.248936 117.504 
L 73.478851 155.52 
L 76.6464 174.63335 
L 83.430222 193.536 
L 95.6928 222.286809 
L 101.323693 231.552 
L 114.7392 254.51399 
L 126.130103 269.568 
z
" clip-path="url(#p3c4dfb35db)" style="fill: #f7b596"/>
   </g>
   <g id="PathCollection_16">
    <path d="M 133.7856 293.433373 
L 152.832 298.777865 
L 171.8784 300.719443 
L 190.9248 301.723316 
L 209.9712 302.336662 
L 229.0176 302.750258 
L 248.064 303.048019 
L 267.1104 303.27263 
L 286.1568 303.448099 
L 305.2032 303.588962 
L 324.2496 303.704538 
L 343.296 303.801075 
L 343.296 300.899002 
L 324.2496 300.728407 
L 305.2032 300.524166 
L 286.1568 300.27524 
L 267.1104 299.965162 
L 248.064 299.56824 
L 229.0176 299.042051 
L 209.9712 298.311165 
L 190.9248 297.227289 
L 171.8784 295.453295 
L 152.832 292.022235 
L 133.7856 282.577715 
L 126.130103 269.568 
L 114.7392 254.51399 
L 101.323693 231.552 
L 95.6928 222.286809 
L 83.430222 193.536 
L 76.6464 174.63335 
L 73.478851 155.52 
L 68.248936 117.504 
L 63.306546 79.488 
L 58.528457 41.472 
L 57.6 41.472 
L 57.6 51.638457 
L 61.176536 79.488 
L 66.386145 117.504 
L 71.880409 155.52 
L 76.6464 184.278534 
L 79.968738 193.536 
L 95.6928 230.402594 
L 96.391348 231.552 
L 114.7392 262.956194 
L 119.742148 269.568 
z
" clip-path="url(#p3c4dfb35db)" style="fill: #f9c2a7"/>
   </g>
   <g id="PathCollection_17">
    <path d="M 114.7392 285.408484 
L 133.7856 304.289031 
L 152.832 305.533494 
L 171.8784 305.98559 
L 190.9248 306.219342 
L 209.9712 306.362159 
L 229.0176 306.458465 
L 248.064 306.527798 
L 267.1104 306.580099 
L 286.1568 306.620957 
L 305.2032 306.653757 
L 324.2496 306.680668 
L 343.296 306.703147 
L 343.296 303.801075 
L 324.2496 303.704538 
L 305.2032 303.588962 
L 286.1568 303.448099 
L 267.1104 303.27263 
L 248.064 303.048019 
L 229.0176 302.750258 
L 209.9712 302.336662 
L 190.9248 301.723316 
L 171.8784 300.719443 
L 152.832 298.777865 
L 133.7856 293.433373 
L 119.742148 269.568 
L 114.7392 262.956194 
L 96.391348 231.552 
L 95.6928 230.402594 
L 79.968738 193.536 
L 76.6464 184.278534 
L 71.880409 155.52 
L 66.386145 117.504 
L 61.176536 79.488 
L 57.6 51.638457 
L 57.6 68.224281 
L 59.046526 79.488 
L 64.523354 117.504 
L 70.281967 155.52 
L 76.592515 193.536 
L 76.6464 193.782093 
L 93.366516 231.552 
L 95.6928 237.91622 
L 113.818627 269.568 
z
" clip-path="url(#p3c4dfb35db)" style="fill: #fbccb4"/>
   </g>
   <g id="PathCollection_18">
    <path d="M 76.6464 307.584 
L 95.6928 307.584 
L 114.7392 307.584 
L 133.7856 307.584 
L 152.832 307.584 
L 171.8784 307.584 
L 190.9248 307.584 
L 209.9712 307.584 
L 229.0176 307.584 
L 248.064 307.584 
L 267.1104 307.584 
L 286.1568 307.584 
L 305.2032 307.584 
L 324.2496 307.584 
L 343.296 307.584 
L 343.296 306.703147 
L 324.2496 306.680668 
L 305.2032 306.653757 
L 286.1568 306.620957 
L 267.1104 306.580099 
L 248.064 306.527798 
L 229.0176 306.458465 
L 209.9712 306.362159 
L 190.9248 306.219342 
L 171.8784 305.98559 
L 152.832 305.533494 
L 133.7856 304.289031 
L 114.7392 285.408484 
L 113.818627 269.568 
L 95.6928 237.91622 
L 93.366516 231.552 
L 76.6464 193.782093 
L 76.592515 193.536 
L 70.281967 155.52 
L 64.523354 117.504 
L 59.046526 79.488 
L 57.6 68.224281 
L 57.6 79.488 
L 57.6 83.503975 
L 62.660562 117.504 
L 68.683524 155.52 
L 75.252035 193.536 
L 76.6464 199.904085 
L 90.656411 231.552 
L 95.6928 245.330493 
L 109.572741 269.568 
L 95.6928 300.907131 
L 76.6464 305.277214 
L 57.6 306.590091 
L 57.6 307.584 
z
" clip-path="url(#p3c4dfb35db)" style="fill: #fdd9c4"/>
   </g>
   <g id="PathCollection_19">
    <path d="M 76.6464 305.277214 
L 95.6928 300.907131 
L 109.572741 269.568 
L 95.6928 245.330493 
L 90.656411 231.552 
L 76.6464 199.904085 
L 75.252035 193.536 
L 68.683524 155.52 
L 62.660562 117.504 
L 57.6 83.503975 
L 57.6 96.019371 
L 60.797771 117.504 
L 67.085082 155.52 
L 73.911555 193.536 
L 76.6464 206.026077 
L 87.946306 231.552 
L 95.6928 252.744767 
L 105.326856 269.568 
L 95.6928 291.320464 
L 76.6464 301.965125 
L 57.6 305.163033 
L 57.6 306.590091 
z
" clip-path="url(#p3c4dfb35db)" style="fill: #fde2d2"/>
   </g>
   <g id="PathCollection_20">
    <path d="M 76.6464 301.965125 
L 95.6928 291.320464 
L 105.326856 269.568 
L 95.6928 252.744767 
L 87.946306 231.552 
L 76.6464 206.026077 
L 73.911555 193.536 
L 67.085082 155.52 
L 60.797771 117.504 
L 57.6 96.019371 
L 57.6 108.534767 
L 58.93498 117.504 
L 65.486639 155.52 
L 72.571075 193.536 
L 76.6464 212.14807 
L 85.2362 231.552 
L 95.6928 260.159041 
L 101.08097 269.568 
L 95.6928 281.733798 
L 76.6464 298.653036 
L 57.6 303.735976 
L 57.6 305.163033 
z
" clip-path="url(#p3c4dfb35db)" style="fill: #feebdf"/>
   </g>
   <g id="PathCollection_21">
    <path d="M 76.6464 298.653036 
L 95.6928 281.733798 
L 101.08097 269.568 
L 95.6928 260.159041 
L 85.2362 231.552 
L 76.6464 212.14807 
L 72.571075 193.536 
L 65.486639 155.52 
L 58.93498 117.504 
L 57.6 108.534767 
L 57.6 117.504 
L 57.6 120.05815 
L 63.888197 155.52 
L 71.230595 193.536 
L 76.6464 218.270062 
L 82.526095 231.552 
L 95.6928 267.573315 
L 96.835084 269.568 
L 95.6928 272.147131 
L 76.6464 295.340947 
L 57.6 302.308919 
L 57.6 303.735976 
z
" clip-path="url(#p3c4dfb35db)" style="fill: #fef3ec"/>
   </g>
   <g id="PathCollection_22">
    <path d="M 76.6464 295.340947 
L 95.6928 272.147131 
L 96.835084 269.568 
L 95.6928 267.573315 
L 82.526095 231.552 
L 76.6464 218.270062 
L 71.230595 193.536 
L 63.888197 155.52 
L 57.6 120.05815 
L 57.6 129.072455 
L 62.289755 155.52 
L 69.890115 193.536 
L 76.6464 224.392054 
L 79.81599 231.552 
L 93.83957 269.568 
L 76.6464 292.028859 
L 57.6 300.881861 
L 57.6 302.308919 
z
" clip-path="url(#p3c4dfb35db)" style="fill: #fffbfa"/>
   </g>
   <g id="PathCollection_23">
    <path d="M 76.6464 292.028859 
L 93.83957 269.568 
L 79.81599 231.552 
L 76.6464 224.392054 
L 69.890115 193.536 
L 62.289755 155.52 
L 57.6 129.072455 
L 57.6 138.086759 
L 60.691312 155.52 
L 68.549635 193.536 
L 76.6464 230.514047 
L 77.105885 231.552 
L 91.304257 269.568 
L 76.6464 288.71677 
L 57.6 299.454804 
L 57.6 300.881861 
z
" clip-path="url(#p3c4dfb35db)" style="fill: #fcfcfc"/>
   </g>
   <g id="PathCollection_24">
    <path d="M 76.6464 288.71677 
L 91.304257 269.568 
L 77.105885 231.552 
L 76.6464 230.514047 
L 68.549635 193.536 
L 60.691312 155.52 
L 57.6 138.086759 
L 57.6 147.101064 
L 59.09287 155.52 
L 67.209155 193.536 
L 75.704632 231.552 
L 76.6464 237.177615 
L 88.768944 269.568 
L 76.6464 285.404681 
L 57.6 298.027746 
L 57.6 299.454804 
z
" clip-path="url(#p3c4dfb35db)" style="fill: #f5f5f5"/>
   </g>
   <g id="PathCollection_25">
    <path d="M 76.6464 285.404681 
L 88.768944 269.568 
L 76.6464 237.177615 
L 75.704632 231.552 
L 67.209155 193.536 
L 59.09287 155.52 
L 57.6 147.101064 
L 57.6 155.52 
L 57.6 155.922735 
L 65.868675 193.536 
L 74.570592 231.552 
L 76.6464 243.951752 
L 86.233631 269.568 
L 76.6464 282.092592 
L 57.6 296.600689 
L 57.6 298.027746 
z
" clip-path="url(#p3c4dfb35db)" style="fill: #ededed"/>
   </g>
   <g id="PathCollection_26">
    <path d="M 76.6464 282.092592 
L 86.233631 269.568 
L 76.6464 243.951752 
L 74.570592 231.552 
L 65.868675 193.536 
L 57.6 155.922735 
L 57.6 162.020427 
L 64.528195 193.536 
L 73.436553 231.552 
L 76.6464 250.725888 
L 83.698318 269.568 
L 76.6464 278.780503 
L 57.6 295.173631 
L 57.6 296.600689 
z
" clip-path="url(#p3c4dfb35db)" style="fill: #e6e6e6"/>
   </g>
   <g id="PathCollection_27">
    <path d="M 76.6464 278.780503 
L 83.698318 269.568 
L 76.6464 250.725888 
L 73.436553 231.552 
L 64.528195 193.536 
L 57.6 162.020427 
L 57.6 168.118119 
L 63.187715 193.536 
L 72.302514 231.552 
L 76.6464 257.500025 
L 81.163005 269.568 
L 76.6464 275.468414 
L 57.6 293.746574 
L 57.6 295.173631 
z
" clip-path="url(#p3c4dfb35db)" style="fill: #dfdfdf"/>
   </g>
   <g id="PathCollection_28">
    <path d="M 76.6464 275.468414 
L 81.163005 269.568 
L 76.6464 257.500025 
L 72.302514 231.552 
L 63.187715 193.536 
L 57.6 168.118119 
L 57.6 174.215811 
L 61.847235 193.536 
L 71.168475 231.552 
L 76.6464 264.274161 
L 78.627692 269.568 
L 76.6464 272.156325 
L 57.6 292.319516 
L 57.6 293.746574 
z
" clip-path="url(#p3c4dfb35db)" style="fill: #d6d6d6"/>
   </g>
   <g id="PathCollection_29">
    <path d="M 76.6464 272.156325 
L 78.627692 269.568 
L 76.6464 264.274161 
L 71.168475 231.552 
L 61.847235 193.536 
L 57.6 174.215811 
L 57.6 180.313503 
L 60.506755 193.536 
L 70.034436 231.552 
L 76.371885 269.568 
L 57.6 290.892459 
L 57.6 292.319516 
z
" clip-path="url(#p3c4dfb35db)" style="fill: #cecece"/>
   </g>
   <g id="PathCollection_30">
    <path d="M 76.371885 269.568 
L 70.034436 231.552 
L 60.506755 193.536 
L 57.6 180.313503 
L 57.6 186.411195 
L 59.166274 193.536 
L 68.900397 231.552 
L 75.115649 269.568 
L 57.6 289.465402 
L 57.6 290.892459 
z
" clip-path="url(#p3c4dfb35db)" style="fill: #c5c5c5"/>
   </g>
   <g id="PathCollection_31">
    <path d="M 75.115649 269.568 
L 68.900397 231.552 
L 59.166274 193.536 
L 57.6 186.411195 
L 57.6 192.508887 
L 57.825794 193.536 
L 67.766358 231.552 
L 73.859412 269.568 
L 57.6 288.038344 
L 57.6 289.465402 
z
" clip-path="url(#p3c4dfb35db)" style="fill: #bcbcbc"/>
   </g>
   <g id="PathCollection_32">
    <path d="M 73.859412 269.568 
L 67.766358 231.552 
L 57.825794 193.536 
L 57.6 192.508887 
L 57.6 193.536 
L 57.6 197.129842 
L 66.632318 231.552 
L 72.603176 269.568 
L 57.6 286.611287 
L 57.6 288.038344 
z
" clip-path="url(#p3c4dfb35db)" style="fill: #b1b1b1"/>
   </g>
   <g id="PathCollection_33">
    <path d="M 72.603176 269.568 
L 66.632318 231.552 
L 57.6 197.129842 
L 57.6 201.451664 
L 65.498279 231.552 
L 71.34694 269.568 
L 57.6 285.184229 
L 57.6 286.611287 
z
" clip-path="url(#p3c4dfb35db)" style="fill: #a5a5a5"/>
   </g>
   <g id="PathCollection_34">
    <path d="M 71.34694 269.568 
L 65.498279 231.552 
L 57.6 201.451664 
L 57.6 205.773486 
L 64.36424 231.552 
L 70.090704 269.568 
L 57.6 283.757172 
L 57.6 285.184229 
z
" clip-path="url(#p3c4dfb35db)" style="fill: #9b9b9b"/>
   </g>
   <g id="PathCollection_35">
    <path d="M 70.090704 269.568 
L 64.36424 231.552 
L 57.6 205.773486 
L 57.6 210.095309 
L 63.230201 231.552 
L 68.834468 269.568 
L 57.6 282.330114 
L 57.6 283.757172 
z
" clip-path="url(#p3c4dfb35db)" style="fill: #8f8f8f"/>
   </g>
   <g id="PathCollection_36">
    <path d="M 68.834468 269.568 
L 63.230201 231.552 
L 57.6 210.095309 
L 57.6 214.417131 
L 62.096162 231.552 
L 67.578231 269.568 
L 57.6 280.903057 
L 57.6 282.330114 
z
" clip-path="url(#p3c4dfb35db)" style="fill: #828282"/>
   </g>
   <g id="PathCollection_37">
    <path d="M 67.578231 269.568 
L 62.096162 231.552 
L 57.6 214.417131 
L 57.6 218.738953 
L 60.962123 231.552 
L 66.321995 269.568 
L 57.6 279.476 
L 57.6 280.903057 
z
" clip-path="url(#p3c4dfb35db)" style="fill: #757575"/>
   </g>
   <g id="PathCollection_38">
    <path d="M 66.321995 269.568 
L 60.962123 231.552 
L 57.6 218.738953 
L 57.6 223.060775 
L 59.828084 231.552 
L 65.065759 269.568 
L 57.6 278.048942 
L 57.6 279.476 
z
" clip-path="url(#p3c4dfb35db)" style="fill: #676767"/>
   </g>
   <g id="PathCollection_39">
    <path d="M 65.065759 269.568 
L 59.828084 231.552 
L 57.6 223.060775 
L 57.6 227.382598 
L 58.694044 231.552 
L 63.809523 269.568 
L 57.6 276.621885 
L 57.6 278.048942 
z
" clip-path="url(#p3c4dfb35db)" style="fill: #5c5c5c"/>
   </g>
   <g id="PathCollection_40">
    <path d="M 63.809523 269.568 
L 58.694044 231.552 
L 57.6 227.382598 
L 57.6 231.552 
L 57.6 231.889017 
L 62.553286 269.568 
L 57.6 275.194827 
L 57.6 276.621885 
z
" clip-path="url(#p3c4dfb35db)" style="fill: #4e4e4e"/>
   </g>
   <g id="PathCollection_41">
    <path d="M 62.553286 269.568 
L 57.6 231.889017 
L 57.6 241.445037 
L 61.29705 269.568 
L 57.6 273.76777 
L 57.6 275.194827 
z
" clip-path="url(#p3c4dfb35db)" style="fill: #424242"/>
   </g>
   <g id="PathCollection_42">
    <path d="M 61.29705 269.568 
L 57.6 241.445037 
L 57.6 251.001057 
L 60.040814 269.568 
L 57.6 272.340712 
L 57.6 273.76777 
z
" clip-path="url(#p3c4dfb35db)" style="fill: #363636"/>
   </g>
   <g id="PathCollection_43">
    <path d="M 60.040814 269.568 
L 57.6 251.001057 
L 57.6 260.557077 
L 58.784578 269.568 
L 57.6 270.913655 
L 57.6 272.340712 
z
" clip-path="url(#p3c4dfb35db)" style="fill: #2a2a2a"/>
   </g>
   <g id="PathCollection_44">
    <path d="M 58.784578 269.568 
L 57.6 260.557077 
L 57.6 269.568 
L 57.6 270.913655 
z
" clip-path="url(#p3c4dfb35db)" style="fill: #1e1e1e"/>
   </g>
   <g id="matplotlib.axis_1">
    <g id="xtick_1">
     <g id="line2d_1">
      <defs>
       <path id="m4067c0f462" d="M 0 0 
L 0 3.5 
" style="stroke: #000000; stroke-width: 0.8"/>
      </defs>
      <g>
       <use xlink:href="#m4067c0f462" x="88.07424" y="307.584" style="stroke: #000000; stroke-width: 0.8"/>
      </g>
     </g>
     <g id="text_1">
      <!-- 0.5 -->
      <g transform="translate(80.122678 322.182437)scale(0.1 -0.1)">
       <defs>
        <path id="DejaVuSans-30" d="M 2034 4250 
Q 1547 4250 1301 3770 
Q 1056 3291 1056 2328 
Q 1056 1369 1301 889 
Q 1547 409 2034 409 
Q 2525 409 2770 889 
Q 3016 1369 3016 2328 
Q 3016 3291 2770 3770 
Q 2525 4250 2034 4250 
z
M 2034 4750 
Q 2819 4750 3233 4129 
Q 3647 3509 3647 2328 
Q 3647 1150 3233 529 
Q 2819 -91 2034 -91 
Q 1250 -91 836 529 
Q 422 1150 422 2328 
Q 422 3509 836 4129 
Q 1250 4750 2034 4750 
z
" transform="scale(0.015625)"/>
        <path id="DejaVuSans-2e" d="M 684 794 
L 1344 794 
L 1344 0 
L 684 0 
L 684 794 
z
" transform="scale(0.015625)"/>
        <path id="DejaVuSans-35" d="M 691 4666 
L 3169 4666 
L 3169 4134 
L 1269 4134 
L 1269 2991 
Q 1406 3038 1543 3061 
Q 1681 3084 1819 3084 
Q 2600 3084 3056 2656 
Q 3513 2228 3513 1497 
Q 3513 744 3044 326 
Q 2575 -91 1722 -91 
Q 1428 -91 1123 -41 
Q 819 9 494 109 
L 494 744 
Q 775 591 1075 516 
Q 1375 441 1709 441 
Q 2250 441 2565 725 
Q 2881 1009 2881 1497 
Q 2881 1984 2565 2268 
Q 2250 2553 1709 2553 
Q 1456 2553 1204 2497 
Q 953 2441 691 2322 
L 691 4666 
z
" transform="scale(0.015625)"/>
       </defs>
       <use xlink:href="#DejaVuSans-30"/>
       <use xlink:href="#DejaVuSans-2e" x="63.623047"/>
       <use xlink:href="#DejaVuSans-35" x="95.410156"/>
      </g>
     </g>
    </g>
    <g id="xtick_2">
     <g id="line2d_2">
      <g>
       <use xlink:href="#m4067c0f462" x="126.16704" y="307.584" style="stroke: #000000; stroke-width: 0.8"/>
      </g>
     </g>
     <g id="text_2">
      <!-- 1.0 -->
      <g transform="translate(118.215478 322.182437)scale(0.1 -0.1)">
       <defs>
        <path id="DejaVuSans-31" d="M 794 531 
L 1825 531 
L 1825 4091 
L 703 3866 
L 703 4441 
L 1819 4666 
L 2450 4666 
L 2450 531 
L 3481 531 
L 3481 0 
L 794 0 
L 794 531 
z
" transform="scale(0.015625)"/>
       </defs>
       <use xlink:href="#DejaVuSans-31"/>
       <use xlink:href="#DejaVuSans-2e" x="63.623047"/>
       <use xlink:href="#DejaVuSans-30" x="95.410156"/>
      </g>
     </g>
    </g>
    <g id="xtick_3">
     <g id="line2d_3">
      <g>
       <use xlink:href="#m4067c0f462" x="164.25984" y="307.584" style="stroke: #000000; stroke-width: 0.8"/>
      </g>
     </g>
     <g id="text_3">
      <!-- 1.5 -->
      <g transform="translate(156.308278 322.182437)scale(0.1 -0.1)">
       <use xlink:href="#DejaVuSans-31"/>
       <use xlink:href="#DejaVuSans-2e" x="63.623047"/>
       <use xlink:href="#DejaVuSans-35" x="95.410156"/>
      </g>
     </g>
    </g>
    <g id="xtick_4">
     <g id="line2d_4">
      <g>
       <use xlink:href="#m4067c0f462" x="202.35264" y="307.584" style="stroke: #000000; stroke-width: 0.8"/>
      </g>
     </g>
     <g id="text_4">
      <!-- 2.0 -->
      <g transform="translate(194.401078 322.182437)scale(0.1 -0.1)">
       <defs>
        <path id="DejaVuSans-32" d="M 1228 531 
L 3431 531 
L 3431 0 
L 469 0 
L 469 531 
Q 828 903 1448 1529 
Q 2069 2156 2228 2338 
Q 2531 2678 2651 2914 
Q 2772 3150 2772 3378 
Q 2772 3750 2511 3984 
Q 2250 4219 1831 4219 
Q 1534 4219 1204 4116 
Q 875 4013 500 3803 
L 500 4441 
Q 881 4594 1212 4672 
Q 1544 4750 1819 4750 
Q 2544 4750 2975 4387 
Q 3406 4025 3406 3419 
Q 3406 3131 3298 2873 
Q 3191 2616 2906 2266 
Q 2828 2175 2409 1742 
Q 1991 1309 1228 531 
z
" transform="scale(0.015625)"/>
       </defs>
       <use xlink:href="#DejaVuSans-32"/>
       <use xlink:href="#DejaVuSans-2e" x="63.623047"/>
       <use xlink:href="#DejaVuSans-30" x="95.410156"/>
      </g>
     </g>
    </g>
    <g id="xtick_5">
     <g id="line2d_5">
      <g>
       <use xlink:href="#m4067c0f462" x="240.44544" y="307.584" style="stroke: #000000; stroke-width: 0.8"/>
      </g>
     </g>
     <g id="text_5">
      <!-- 2.5 -->
      <g transform="translate(232.493878 322.182437)scale(0.1 -0.1)">
       <use xlink:href="#DejaVuSans-32"/>
       <use xlink:href="#DejaVuSans-2e" x="63.623047"/>
       <use xlink:href="#DejaVuSans-35" x="95.410156"/>
      </g>
     </g>
    </g>
    <g id="xtick_6">
     <g id="line2d_6">
      <g>
       <use xlink:href="#m4067c0f462" x="278.53824" y="307.584" style="stroke: #000000; stroke-width: 0.8"/>
      </g>
     </g>
     <g id="text_6">
      <!-- 3.0 -->
      <g transform="translate(270.586678 322.182437)scale(0.1 -0.1)">
       <defs>
        <path id="DejaVuSans-33" d="M 2597 2516 
Q 3050 2419 3304 2112 
Q 3559 1806 3559 1356 
Q 3559 666 3084 287 
Q 2609 -91 1734 -91 
Q 1441 -91 1130 -33 
Q 819 25 488 141 
L 488 750 
Q 750 597 1062 519 
Q 1375 441 1716 441 
Q 2309 441 2620 675 
Q 2931 909 2931 1356 
Q 2931 1769 2642 2001 
Q 2353 2234 1838 2234 
L 1294 2234 
L 1294 2753 
L 1863 2753 
Q 2328 2753 2575 2939 
Q 2822 3125 2822 3475 
Q 2822 3834 2567 4026 
Q 2313 4219 1838 4219 
Q 1578 4219 1281 4162 
Q 984 4106 628 3988 
L 628 4550 
Q 988 4650 1302 4700 
Q 1616 4750 1894 4750 
Q 2613 4750 3031 4423 
Q 3450 4097 3450 3541 
Q 3450 3153 3228 2886 
Q 3006 2619 2597 2516 
z
" transform="scale(0.015625)"/>
       </defs>
       <use xlink:href="#DejaVuSans-33"/>
       <use xlink:href="#DejaVuSans-2e" x="63.623047"/>
       <use xlink:href="#DejaVuSans-30" x="95.410156"/>
      </g>
     </g>
    </g>
    <g id="xtick_7">
     <g id="line2d_7">
      <g>
       <use xlink:href="#m4067c0f462" x="316.63104" y="307.584" style="stroke: #000000; stroke-width: 0.8"/>
      </g>
     </g>
     <g id="text_7">
      <!-- 3.5 -->
      <g transform="translate(308.679478 322.182437)scale(0.1 -0.1)">
       <use xlink:href="#DejaVuSans-33"/>
       <use xlink:href="#DejaVuSans-2e" x="63.623047"/>
       <use xlink:href="#DejaVuSans-35" x="95.410156"/>
      </g>
     </g>
    </g>
    <g id="text_8">
     <!-- storage time -->
     <g transform="translate(168.568312 335.860562)scale(0.1 -0.1)">
      <defs>
       <path id="DejaVuSans-73" d="M 2834 3397 
L 2834 2853 
Q 2591 2978 2328 3040 
Q 2066 3103 1784 3103 
Q 1356 3103 1142 2972 
Q 928 2841 928 2578 
Q 928 2378 1081 2264 
Q 1234 2150 1697 2047 
L 1894 2003 
Q 2506 1872 2764 1633 
Q 3022 1394 3022 966 
Q 3022 478 2636 193 
Q 2250 -91 1575 -91 
Q 1294 -91 989 -36 
Q 684 19 347 128 
L 347 722 
Q 666 556 975 473 
Q 1284 391 1588 391 
Q 1994 391 2212 530 
Q 2431 669 2431 922 
Q 2431 1156 2273 1281 
Q 2116 1406 1581 1522 
L 1381 1569 
Q 847 1681 609 1914 
Q 372 2147 372 2553 
Q 372 3047 722 3315 
Q 1072 3584 1716 3584 
Q 2034 3584 2315 3537 
Q 2597 3491 2834 3397 
z
" transform="scale(0.015625)"/>
       <path id="DejaVuSans-74" d="M 1172 4494 
L 1172 3500 
L 2356 3500 
L 2356 3053 
L 1172 3053 
L 1172 1153 
Q 1172 725 1289 603 
Q 1406 481 1766 481 
L 2356 481 
L 2356 0 
L 1766 0 
Q 1100 0 847 248 
Q 594 497 594 1153 
L 594 3053 
L 172 3053 
L 172 3500 
L 594 3500 
L 594 4494 
L 1172 4494 
z
" transform="scale(0.015625)"/>
       <path id="DejaVuSans-6f" d="M 1959 3097 
Q 1497 3097 1228 2736 
Q 959 2375 959 1747 
Q 959 1119 1226 758 
Q 1494 397 1959 397 
Q 2419 397 2687 759 
Q 2956 1122 2956 1747 
Q 2956 2369 2687 2733 
Q 2419 3097 1959 3097 
z
M 1959 3584 
Q 2709 3584 3137 3096 
Q 3566 2609 3566 1747 
Q 3566 888 3137 398 
Q 2709 -91 1959 -91 
Q 1206 -91 779 398 
Q 353 888 353 1747 
Q 353 2609 779 3096 
Q 1206 3584 1959 3584 
z
" transform="scale(0.015625)"/>
       <path id="DejaVuSans-72" d="M 2631 2963 
Q 2534 3019 2420 3045 
Q 2306 3072 2169 3072 
Q 1681 3072 1420 2755 
Q 1159 2438 1159 1844 
L 1159 0 
L 581 0 
L 581 3500 
L 1159 3500 
L 1159 2956 
Q 1341 3275 1631 3429 
Q 1922 3584 2338 3584 
Q 2397 3584 2469 3576 
Q 2541 3569 2628 3553 
L 2631 2963 
z
" transform="scale(0.015625)"/>
       <path id="DejaVuSans-61" d="M 2194 1759 
Q 1497 1759 1228 1600 
Q 959 1441 959 1056 
Q 959 750 1161 570 
Q 1363 391 1709 391 
Q 2188 391 2477 730 
Q 2766 1069 2766 1631 
L 2766 1759 
L 2194 1759 
z
M 3341 1997 
L 3341 0 
L 2766 0 
L 2766 531 
Q 2569 213 2275 61 
Q 1981 -91 1556 -91 
Q 1019 -91 701 211 
Q 384 513 384 1019 
Q 384 1609 779 1909 
Q 1175 2209 1959 2209 
L 2766 2209 
L 2766 2266 
Q 2766 2663 2505 2880 
Q 2244 3097 1772 3097 
Q 1472 3097 1187 3025 
Q 903 2953 641 2809 
L 641 3341 
Q 956 3463 1253 3523 
Q 1550 3584 1831 3584 
Q 2591 3584 2966 3190 
Q 3341 2797 3341 1997 
z
" transform="scale(0.015625)"/>
       <path id="DejaVuSans-67" d="M 2906 1791 
Q 2906 2416 2648 2759 
Q 2391 3103 1925 3103 
Q 1463 3103 1205 2759 
Q 947 2416 947 1791 
Q 947 1169 1205 825 
Q 1463 481 1925 481 
Q 2391 481 2648 825 
Q 2906 1169 2906 1791 
z
M 3481 434 
Q 3481 -459 3084 -895 
Q 2688 -1331 1869 -1331 
Q 1566 -1331 1297 -1286 
Q 1028 -1241 775 -1147 
L 775 -588 
Q 1028 -725 1275 -790 
Q 1522 -856 1778 -856 
Q 2344 -856 2625 -561 
Q 2906 -266 2906 331 
L 2906 616 
Q 2728 306 2450 153 
Q 2172 0 1784 0 
Q 1141 0 747 490 
Q 353 981 353 1791 
Q 353 2603 747 3093 
Q 1141 3584 1784 3584 
Q 2172 3584 2450 3431 
Q 2728 3278 2906 2969 
L 2906 3500 
L 3481 3500 
L 3481 434 
z
" transform="scale(0.015625)"/>
       <path id="DejaVuSans-65" d="M 3597 1894 
L 3597 1613 
L 953 1613 
Q 991 1019 1311 708 
Q 1631 397 2203 397 
Q 2534 397 2845 478 
Q 3156 559 3463 722 
L 3463 178 
Q 3153 47 2828 -22 
Q 2503 -91 2169 -91 
Q 1331 -91 842 396 
Q 353 884 353 1716 
Q 353 2575 817 3079 
Q 1281 3584 2069 3584 
Q 2775 3584 3186 3129 
Q 3597 2675 3597 1894 
z
M 3022 2063 
Q 3016 2534 2758 2815 
Q 2500 3097 2075 3097 
Q 1594 3097 1305 2825 
Q 1016 2553 972 2059 
L 3022 2063 
z
" transform="scale(0.015625)"/>
       <path id="DejaVuSans-20" transform="scale(0.015625)"/>
       <path id="DejaVuSans-69" d="M 603 3500 
L 1178 3500 
L 1178 0 
L 603 0 
L 603 3500 
z
M 603 4863 
L 1178 4863 
L 1178 4134 
L 603 4134 
L 603 4863 
z
" transform="scale(0.015625)"/>
       <path id="DejaVuSans-6d" d="M 3328 2828 
Q 3544 3216 3844 3400 
Q 4144 3584 4550 3584 
Q 5097 3584 5394 3201 
Q 5691 2819 5691 2113 
L 5691 0 
L 5113 0 
L 5113 2094 
Q 5113 2597 4934 2840 
Q 4756 3084 4391 3084 
Q 3944 3084 3684 2787 
Q 3425 2491 3425 1978 
L 3425 0 
L 2847 0 
L 2847 2094 
Q 2847 2600 2669 2842 
Q 2491 3084 2119 3084 
Q 1678 3084 1418 2786 
Q 1159 2488 1159 1978 
L 1159 0 
L 581 0 
L 581 3500 
L 1159 3500 
L 1159 2956 
Q 1356 3278 1631 3431 
Q 1906 3584 2284 3584 
Q 2666 3584 2933 3390 
Q 3200 3197 3328 2828 
z
" transform="scale(0.015625)"/>
      </defs>
      <use xlink:href="#DejaVuSans-73"/>
      <use xlink:href="#DejaVuSans-74" x="52.099609"/>
      <use xlink:href="#DejaVuSans-6f" x="91.308594"/>
      <use xlink:href="#DejaVuSans-72" x="152.490234"/>
      <use xlink:href="#DejaVuSans-61" x="193.603516"/>
      <use xlink:href="#DejaVuSans-67" x="254.882812"/>
      <use xlink:href="#DejaVuSans-65" x="318.359375"/>
      <use xlink:href="#DejaVuSans-20" x="379.882812"/>
      <use xlink:href="#DejaVuSans-74" x="411.669922"/>
      <use xlink:href="#DejaVuSans-69" x="450.878906"/>
      <use xlink:href="#DejaVuSans-6d" x="478.662109"/>
      <use xlink:href="#DejaVuSans-65" x="576.074219"/>
     </g>
    </g>
   </g>
   <g id="matplotlib.axis_2">
    <g id="ytick_1">
     <g id="line2d_8">
      <defs>
       <path id="m591a247a37" d="M 0 0 
L -3.5 0 
" style="stroke: #000000; stroke-width: 0.8"/>
      </defs>
      <g>
       <use xlink:href="#m591a247a37" x="57.6" y="277.1712" style="stroke: #000000; stroke-width: 0.8"/>
      </g>
     </g>
     <g id="text_9">
      <!-- 0.5 -->
      <g transform="translate(34.696875 280.970419)scale(0.1 -0.1)">
       <use xlink:href="#DejaVuSans-30"/>
       <use xlink:href="#DejaVuSans-2e" x="63.623047"/>
       <use xlink:href="#DejaVuSans-35" x="95.410156"/>
      </g>
     </g>
    </g>
    <g id="ytick_2">
     <g id="line2d_9">
      <g>
       <use xlink:href="#m591a247a37" x="57.6" y="239.1552" style="stroke: #000000; stroke-width: 0.8"/>
      </g>
     </g>
     <g id="text_10">
      <!-- 1.0 -->
      <g transform="translate(34.696875 242.954419)scale(0.1 -0.1)">
       <use xlink:href="#DejaVuSans-31"/>
       <use xlink:href="#DejaVuSans-2e" x="63.623047"/>
       <use xlink:href="#DejaVuSans-30" x="95.410156"/>
      </g>
     </g>
    </g>
    <g id="ytick_3">
     <g id="line2d_10">
      <g>
       <use xlink:href="#m591a247a37" x="57.6" y="201.1392" style="stroke: #000000; stroke-width: 0.8"/>
      </g>
     </g>
     <g id="text_11">
      <!-- 1.5 -->
      <g transform="translate(34.696875 204.938419)scale(0.1 -0.1)">
       <use xlink:href="#DejaVuSans-31"/>
       <use xlink:href="#DejaVuSans-2e" x="63.623047"/>
       <use xlink:href="#DejaVuSans-35" x="95.410156"/>
      </g>
     </g>
    </g>
    <g id="ytick_4">
     <g id="line2d_11">
      <g>
       <use xlink:href="#m591a247a37" x="57.6" y="163.1232" style="stroke: #000000; stroke-width: 0.8"/>
      </g>
     </g>
     <g id="text_12">
      <!-- 2.0 -->
      <g transform="translate(34.696875 166.922419)scale(0.1 -0.1)">
       <use xlink:href="#DejaVuSans-32"/>
       <use xlink:href="#DejaVuSans-2e" x="63.623047"/>
       <use xlink:href="#DejaVuSans-30" x="95.410156"/>
      </g>
     </g>
    </g>
    <g id="ytick_5">
     <g id="line2d_12">
      <g>
       <use xlink:href="#m591a247a37" x="57.6" y="125.1072" style="stroke: #000000; stroke-width: 0.8"/>
      </g>
     </g>
     <g id="text_13">
      <!-- 2.5 -->
      <g transform="translate(34.696875 128.906419)scale(0.1 -0.1)">
       <use xlink:href="#DejaVuSans-32"/>
       <use xlink:href="#DejaVuSans-2e" x="63.623047"/>
       <use xlink:href="#DejaVuSans-35" x="95.410156"/>
      </g>
     </g>
    </g>
    <g id="ytick_6">
     <g id="line2d_13">
      <g>
       <use xlink:href="#m591a247a37" x="57.6" y="87.0912" style="stroke: #000000; stroke-width: 0.8"/>
      </g>
     </g>
     <g id="text_14">
      <!-- 3.0 -->
      <g transform="translate(34.696875 90.890419)scale(0.1 -0.1)">
       <use xlink:href="#DejaVuSans-33"/>
       <use xlink:href="#DejaVuSans-2e" x="63.623047"/>
       <use xlink:href="#DejaVuSans-30" x="95.410156"/>
      </g>
     </g>
    </g>
    <g id="ytick_7">
     <g id="line2d_14">
      <g>
       <use xlink:href="#m591a247a37" x="57.6" y="49.0752" style="stroke: #000000; stroke-width: 0.8"/>
      </g>
     </g>
     <g id="text_15">
      <!-- 3.5 -->
      <g transform="translate(34.696875 52.874419)scale(0.1 -0.1)">
       <use xlink:href="#DejaVuSans-33"/>
       <use xlink:href="#DejaVuSans-2e" x="63.623047"/>
       <use xlink:href="#DejaVuSans-35" x="95.410156"/>
      </g>
     </g>
    </g>
    <g id="text_16">
     <!-- storage ratio -->
     <g transform="translate(28.617187 206.639719)rotate(-90)scale(0.1 -0.1)">
      <use xlink:href="#DejaVuSans-73"/>
      <use xlink:href="#DejaVuSans-74" x="52.099609"/>
      <use xlink:href="#DejaVuSans-6f" x="91.308594"/>
      <use xlink:href="#DejaVuSans-72" x="152.490234"/>
      <use xlink:href="#DejaVuSans-61" x="193.603516"/>
      <use xlink:href="#DejaVuSans-67" x="254.882812"/>
      <use xlink:href="#DejaVuSans-65" x="318.359375"/>
      <use xlink:href="#DejaVuSans-20" x="379.882812"/>
      <use xlink:href="#DejaVuSans-72" x="411.669922"/>
      <use xlink:href="#DejaVuSans-61" x="452.783203"/>
      <use xlink:href="#DejaVuSans-74" x="514.0625"/>
      <use xlink:href="#DejaVuSans-69" x="553.271484"/>
      <use xlink:href="#DejaVuSans-6f" x="581.054688"/>
     </g>
    </g>
   </g>
   <g id="patch_3">
    <path d="M 57.6 307.584 
L 57.6 41.472 
" style="fill: none; stroke: #000000; stroke-width: 0.8; stroke-linejoin: miter; stroke-linecap: square"/>
   </g>
   <g id="patch_4">
    <path d="M 343.296 307.584 
L 343.296 41.472 
" style="fill: none; stroke: #000000; stroke-width: 0.8; stroke-linejoin: miter; stroke-linecap: square"/>
   </g>
   <g id="patch_5">
    <path d="M 57.6 307.584 
L 343.296 307.584 
" style="fill: none; stroke: #000000; stroke-width: 0.8; stroke-linejoin: miter; stroke-linecap: square"/>
   </g>
   <g id="patch_6">
    <path d="M 57.6 41.472 
L 343.296 41.472 
" style="fill: none; stroke: #000000; stroke-width: 0.8; stroke-linejoin: miter; stroke-linecap: square"/>
   </g>
   <g id="text_17">
    <!-- storage952! power870! -->
    <g transform="translate(129.485813 35.472)scale(0.12 -0.12)">
     <defs>
      <path id="DejaVuSans-39" d="M 703 97 
L 703 672 
Q 941 559 1184 500 
Q 1428 441 1663 441 
Q 2288 441 2617 861 
Q 2947 1281 2994 2138 
Q 2813 1869 2534 1725 
Q 2256 1581 1919 1581 
Q 1219 1581 811 2004 
Q 403 2428 403 3163 
Q 403 3881 828 4315 
Q 1253 4750 1959 4750 
Q 2769 4750 3195 4129 
Q 3622 3509 3622 2328 
Q 3622 1225 3098 567 
Q 2575 -91 1691 -91 
Q 1453 -91 1209 -44 
Q 966 3 703 97 
z
M 1959 2075 
Q 2384 2075 2632 2365 
Q 2881 2656 2881 3163 
Q 2881 3666 2632 3958 
Q 2384 4250 1959 4250 
Q 1534 4250 1286 3958 
Q 1038 3666 1038 3163 
Q 1038 2656 1286 2365 
Q 1534 2075 1959 2075 
z
" transform="scale(0.015625)"/>
      <path id="DejaVuSans-21" d="M 966 794 
L 1600 794 
L 1600 0 
L 966 0 
L 966 794 
z
M 966 4666 
L 1600 4666 
L 1600 2619 
L 1538 1503 
L 1031 1503 
L 966 2619 
L 966 4666 
z
" transform="scale(0.015625)"/>
      <path id="DejaVuSans-70" d="M 1159 525 
L 1159 -1331 
L 581 -1331 
L 581 3500 
L 1159 3500 
L 1159 2969 
Q 1341 3281 1617 3432 
Q 1894 3584 2278 3584 
Q 2916 3584 3314 3078 
Q 3713 2572 3713 1747 
Q 3713 922 3314 415 
Q 2916 -91 2278 -91 
Q 1894 -91 1617 61 
Q 1341 213 1159 525 
z
M 3116 1747 
Q 3116 2381 2855 2742 
Q 2594 3103 2138 3103 
Q 1681 3103 1420 2742 
Q 1159 2381 1159 1747 
Q 1159 1113 1420 752 
Q 1681 391 2138 391 
Q 2594 391 2855 752 
Q 3116 1113 3116 1747 
z
" transform="scale(0.015625)"/>
      <path id="DejaVuSans-77" d="M 269 3500 
L 844 3500 
L 1563 769 
L 2278 3500 
L 2956 3500 
L 3675 769 
L 4391 3500 
L 4966 3500 
L 4050 0 
L 3372 0 
L 2619 2869 
L 1863 0 
L 1184 0 
L 269 3500 
z
" transform="scale(0.015625)"/>
      <path id="DejaVuSans-38" d="M 2034 2216 
Q 1584 2216 1326 1975 
Q 1069 1734 1069 1313 
Q 1069 891 1326 650 
Q 1584 409 2034 409 
Q 2484 409 2743 651 
Q 3003 894 3003 1313 
Q 3003 1734 2745 1975 
Q 2488 2216 2034 2216 
z
M 1403 2484 
Q 997 2584 770 2862 
Q 544 3141 544 3541 
Q 544 4100 942 4425 
Q 1341 4750 2034 4750 
Q 2731 4750 3128 4425 
Q 3525 4100 3525 3541 
Q 3525 3141 3298 2862 
Q 3072 2584 2669 2484 
Q 3125 2378 3379 2068 
Q 3634 1759 3634 1313 
Q 3634 634 3220 271 
Q 2806 -91 2034 -91 
Q 1263 -91 848 271 
Q 434 634 434 1313 
Q 434 1759 690 2068 
Q 947 2378 1403 2484 
z
M 1172 3481 
Q 1172 3119 1398 2916 
Q 1625 2713 2034 2713 
Q 2441 2713 2670 2916 
Q 2900 3119 2900 3481 
Q 2900 3844 2670 4047 
Q 2441 4250 2034 4250 
Q 1625 4250 1398 4047 
Q 1172 3844 1172 3481 
z
" transform="scale(0.015625)"/>
      <path id="DejaVuSans-37" d="M 525 4666 
L 3525 4666 
L 3525 4397 
L 1831 0 
L 1172 0 
L 2766 4134 
L 525 4134 
L 525 4666 
z
" transform="scale(0.015625)"/>
     </defs>
     <use xlink:href="#DejaVuSans-73"/>
     <use xlink:href="#DejaVuSans-74" x="52.099609"/>
     <use xlink:href="#DejaVuSans-6f" x="91.308594"/>
     <use xlink:href="#DejaVuSans-72" x="152.490234"/>
     <use xlink:href="#DejaVuSans-61" x="193.603516"/>
     <use xlink:href="#DejaVuSans-67" x="254.882812"/>
     <use xlink:href="#DejaVuSans-65" x="318.359375"/>
     <use xlink:href="#DejaVuSans-39" x="379.882812"/>
     <use xlink:href="#DejaVuSans-35" x="443.505859"/>
     <use xlink:href="#DejaVuSans-32" x="507.128906"/>
     <use xlink:href="#DejaVuSans-21" x="570.751953"/>
     <use xlink:href="#DejaVuSans-20" x="610.839844"/>
     <use xlink:href="#DejaVuSans-70" x="642.626953"/>
     <use xlink:href="#DejaVuSans-6f" x="706.103516"/>
     <use xlink:href="#DejaVuSans-77" x="767.285156"/>
     <use xlink:href="#DejaVuSans-65" x="849.072266"/>
     <use xlink:href="#DejaVuSans-72" x="910.595703"/>
     <use xlink:href="#DejaVuSans-38" x="951.708984"/>
     <use xlink:href="#DejaVuSans-37" x="1015.332031"/>
     <use xlink:href="#DejaVuSans-30" x="1078.955078"/>
     <use xlink:href="#DejaVuSans-21" x="1142.578125"/>
    </g>
   </g>
  </g>
  <g id="axes_2">
   <g id="patch_7">
    <path d="M 361.152 307.584 
L 374.4576 307.584 
L 374.4576 41.472 
L 361.152 41.472 
z
" style="fill: #ffffff"/>
   </g>
   <g id="patch_8">
    <path clip-path="url(#p1a15d9c333)" style="fill: #ffffff; stroke: #ffffff; stroke-width: 0.01; stroke-linejoin: miter"/>
   </g>
   <g id="QuadMesh_1">
    <path d="M 361.152 307.584 
L 374.4576 307.584 
L 374.4576 301.536 
L 361.152 301.536 
L 361.152 307.584 
" clip-path="url(#p1a15d9c333)" style="fill: #6d0220"/>
    <path d="M 361.152 301.536 
L 374.4576 301.536 
L 374.4576 295.488 
L 361.152 295.488 
L 361.152 301.536 
" clip-path="url(#p1a15d9c333)" style="fill: #7f0823"/>
    <path d="M 361.152 295.488 
L 374.4576 295.488 
L 374.4576 289.44 
L 361.152 289.44 
L 361.152 295.488 
" clip-path="url(#p1a15d9c333)" style="fill: #900d26"/>
    <path d="M 361.152 289.44 
L 374.4576 289.44 
L 374.4576 283.392 
L 361.152 283.392 
L 361.152 289.44 
" clip-path="url(#p1a15d9c333)" style="fill: #a21328"/>
    <path d="M 361.152 283.392 
L 374.4576 283.392 
L 374.4576 277.344 
L 361.152 277.344 
L 361.152 283.392 
" clip-path="url(#p1a15d9c333)" style="fill: #b3192c"/>
    <path d="M 361.152 277.344 
L 374.4576 277.344 
L 374.4576 271.296 
L 361.152 271.296 
L 361.152 277.344 
" clip-path="url(#p1a15d9c333)" style="fill: #bb2a34"/>
    <path d="M 361.152 271.296 
L 374.4576 271.296 
L 374.4576 265.248 
L 361.152 265.248 
L 361.152 271.296 
" clip-path="url(#p1a15d9c333)" style="fill: #c2383a"/>
    <path d="M 361.152 265.248 
L 374.4576 265.248 
L 374.4576 259.2 
L 361.152 259.2 
L 361.152 265.248 
" clip-path="url(#p1a15d9c333)" style="fill: #cb4942"/>
    <path d="M 361.152 259.2 
L 374.4576 259.2 
L 374.4576 253.152 
L 361.152 253.152 
L 361.152 259.2 
" clip-path="url(#p1a15d9c333)" style="fill: #d35a4a"/>
    <path d="M 361.152 253.152 
L 374.4576 253.152 
L 374.4576 247.104 
L 361.152 247.104 
L 361.152 253.152 
" clip-path="url(#p1a15d9c333)" style="fill: #db6b55"/>
    <path d="M 361.152 247.104 
L 374.4576 247.104 
L 374.4576 241.056 
L 361.152 241.056 
L 361.152 247.104 
" clip-path="url(#p1a15d9c333)" style="fill: #e27b62"/>
    <path d="M 361.152 241.056 
L 374.4576 241.056 
L 374.4576 235.008 
L 361.152 235.008 
L 361.152 241.056 
" clip-path="url(#p1a15d9c333)" style="fill: #e8896c"/>
    <path d="M 361.152 235.008 
L 374.4576 235.008 
L 374.4576 228.96 
L 361.152 228.96 
L 361.152 235.008 
" clip-path="url(#p1a15d9c333)" style="fill: #ef9979"/>
    <path d="M 361.152 228.96 
L 374.4576 228.96 
L 374.4576 222.912 
L 361.152 222.912 
L 361.152 228.96 
" clip-path="url(#p1a15d9c333)" style="fill: #f5a886"/>
    <path d="M 361.152 222.912 
L 374.4576 222.912 
L 374.4576 216.864 
L 361.152 216.864 
L 361.152 222.912 
" clip-path="url(#p1a15d9c333)" style="fill: #f7b596"/>
    <path d="M 361.152 216.864 
L 374.4576 216.864 
L 374.4576 210.816 
L 361.152 210.816 
L 361.152 216.864 
" clip-path="url(#p1a15d9c333)" style="fill: #f9c2a7"/>
    <path d="M 361.152 210.816 
L 374.4576 210.816 
L 374.4576 204.768 
L 361.152 204.768 
L 361.152 210.816 
" clip-path="url(#p1a15d9c333)" style="fill: #fbccb4"/>
    <path d="M 361.152 204.768 
L 374.4576 204.768 
L 374.4576 198.72 
L 361.152 198.72 
L 361.152 204.768 
" clip-path="url(#p1a15d9c333)" style="fill: #fdd9c4"/>
    <path d="M 361.152 198.72 
L 374.4576 198.72 
L 374.4576 192.672 
L 361.152 192.672 
L 361.152 198.72 
" clip-path="url(#p1a15d9c333)" style="fill: #fde2d2"/>
    <path d="M 361.152 192.672 
L 374.4576 192.672 
L 374.4576 186.624 
L 361.152 186.624 
L 361.152 192.672 
" clip-path="url(#p1a15d9c333)" style="fill: #feebdf"/>
    <path d="M 361.152 186.624 
L 374.4576 186.624 
L 374.4576 180.576 
L 361.152 180.576 
L 361.152 186.624 
" clip-path="url(#p1a15d9c333)" style="fill: #fef3ec"/>
    <path d="M 361.152 180.576 
L 374.4576 180.576 
L 374.4576 174.528 
L 361.152 174.528 
L 361.152 180.576 
" clip-path="url(#p1a15d9c333)" style="fill: #fffbfa"/>
    <path d="M 361.152 174.528 
L 374.4576 174.528 
L 374.4576 168.48 
L 361.152 168.48 
L 361.152 174.528 
" clip-path="url(#p1a15d9c333)" style="fill: #fcfcfc"/>
    <path d="M 361.152 168.48 
L 374.4576 168.48 
L 374.4576 162.432 
L 361.152 162.432 
L 361.152 168.48 
" clip-path="url(#p1a15d9c333)" style="fill: #f5f5f5"/>
    <path d="M 361.152 162.432 
L 374.4576 162.432 
L 374.4576 156.384 
L 361.152 156.384 
L 361.152 162.432 
" clip-path="url(#p1a15d9c333)" style="fill: #ededed"/>
    <path d="M 361.152 156.384 
L 374.4576 156.384 
L 374.4576 150.336 
L 361.152 150.336 
L 361.152 156.384 
" clip-path="url(#p1a15d9c333)" style="fill: #e6e6e6"/>
    <path d="M 361.152 150.336 
L 374.4576 150.336 
L 374.4576 144.288 
L 361.152 144.288 
L 361.152 150.336 
" clip-path="url(#p1a15d9c333)" style="fill: #dfdfdf"/>
    <path d="M 361.152 144.288 
L 374.4576 144.288 
L 374.4576 138.24 
L 361.152 138.24 
L 361.152 144.288 
" clip-path="url(#p1a15d9c333)" style="fill: #d6d6d6"/>
    <path d="M 361.152 138.24 
L 374.4576 138.24 
L 374.4576 132.192 
L 361.152 132.192 
L 361.152 138.24 
" clip-path="url(#p1a15d9c333)" style="fill: #cecece"/>
    <path d="M 361.152 132.192 
L 374.4576 132.192 
L 374.4576 126.144 
L 361.152 126.144 
L 361.152 132.192 
" clip-path="url(#p1a15d9c333)" style="fill: #c5c5c5"/>
    <path d="M 361.152 126.144 
L 374.4576 126.144 
L 374.4576 120.096 
L 361.152 120.096 
L 361.152 126.144 
" clip-path="url(#p1a15d9c333)" style="fill: #bcbcbc"/>
    <path d="M 361.152 120.096 
L 374.4576 120.096 
L 374.4576 114.048 
L 361.152 114.048 
L 361.152 120.096 
" clip-path="url(#p1a15d9c333)" style="fill: #b1b1b1"/>
    <path d="M 361.152 114.048 
L 374.4576 114.048 
L 374.4576 108 
L 361.152 108 
L 361.152 114.048 
" clip-path="url(#p1a15d9c333)" style="fill: #a5a5a5"/>
    <path d="M 361.152 108 
L 374.4576 108 
L 374.4576 101.952 
L 361.152 101.952 
L 361.152 108 
" clip-path="url(#p1a15d9c333)" style="fill: #9b9b9b"/>
    <path d="M 361.152 101.952 
L 374.4576 101.952 
L 374.4576 95.904 
L 361.152 95.904 
L 361.152 101.952 
" clip-path="url(#p1a15d9c333)" style="fill: #8f8f8f"/>
    <path d="M 361.152 95.904 
L 374.4576 95.904 
L 374.4576 89.856 
L 361.152 89.856 
L 361.152 95.904 
" clip-path="url(#p1a15d9c333)" style="fill: #828282"/>
    <path d="M 361.152 89.856 
L 374.4576 89.856 
L 374.4576 83.808 
L 361.152 83.808 
L 361.152 89.856 
" clip-path="url(#p1a15d9c333)" style="fill: #757575"/>
    <path d="M 361.152 83.808 
L 374.4576 83.808 
L 374.4576 77.76 
L 361.152 77.76 
L 361.152 83.808 
" clip-path="url(#p1a15d9c333)" style="fill: #676767"/>
    <path d="M 361.152 77.76 
L 374.4576 77.76 
L 374.4576 71.712 
L 361.152 71.712 
L 361.152 77.76 
" clip-path="url(#p1a15d9c333)" style="fill: #5c5c5c"/>
    <path d="M 361.152 71.712 
L 374.4576 71.712 
L 374.4576 65.664 
L 361.152 65.664 
L 361.152 71.712 
" clip-path="url(#p1a15d9c333)" style="fill: #4e4e4e"/>
    <path d="M 361.152 65.664 
L 374.4576 65.664 
L 374.4576 59.616 
L 361.152 59.616 
L 361.152 65.664 
" clip-path="url(#p1a15d9c333)" style="fill: #424242"/>
    <path d="M 361.152 59.616 
L 374.4576 59.616 
L 374.4576 53.568 
L 361.152 53.568 
L 361.152 59.616 
" clip-path="url(#p1a15d9c333)" style="fill: #363636"/>
    <path d="M 361.152 53.568 
L 374.4576 53.568 
L 374.4576 47.52 
L 361.152 47.52 
L 361.152 53.568 
" clip-path="url(#p1a15d9c333)" style="fill: #2a2a2a"/>
    <path d="M 361.152 47.52 
L 374.4576 47.52 
L 374.4576 41.472 
L 361.152 41.472 
L 361.152 47.52 
" clip-path="url(#p1a15d9c333)" style="fill: #1e1e1e"/>
   </g>
   <g id="matplotlib.axis_3">
    <g id="ytick_8">
     <g id="line2d_15">
      <defs>
       <path id="mcc5d73043b" d="M 0 0 
L 3.5 0 
" style="stroke: #000000; stroke-width: 0.8"/>
      </defs>
      <g>
       <use xlink:href="#mcc5d73043b" x="374.4576" y="307.584" style="stroke: #000000; stroke-width: 0.8"/>
      </g>
     </g>
     <g id="text_18">
      <!-- 0.15 -->
      <g transform="translate(381.4576 311.383219)scale(0.1 -0.1)">
       <use xlink:href="#DejaVuSans-30"/>
       <use xlink:href="#DejaVuSans-2e" x="63.623047"/>
       <use xlink:href="#DejaVuSans-31" x="95.410156"/>
       <use xlink:href="#DejaVuSans-35" x="159.033203"/>
      </g>
     </g>
    </g>
    <g id="ytick_9">
     <g id="line2d_16">
      <g>
       <use xlink:href="#mcc5d73043b" x="374.4576" y="277.344" style="stroke: #000000; stroke-width: 0.8"/>
      </g>
     </g>
     <g id="text_19">
      <!-- 0.90 -->
      <g transform="translate(381.4576 281.143219)scale(0.1 -0.1)">
       <use xlink:href="#DejaVuSans-30"/>
       <use xlink:href="#DejaVuSans-2e" x="63.623047"/>
       <use xlink:href="#DejaVuSans-39" x="95.410156"/>
       <use xlink:href="#DejaVuSans-30" x="159.033203"/>
      </g>
     </g>
    </g>
    <g id="ytick_10">
     <g id="line2d_17">
      <g>
       <use xlink:href="#mcc5d73043b" x="374.4576" y="247.104" style="stroke: #000000; stroke-width: 0.8"/>
      </g>
     </g>
     <g id="text_20">
      <!-- 1.65 -->
      <g transform="translate(381.4576 250.903219)scale(0.1 -0.1)">
       <defs>
        <path id="DejaVuSans-36" d="M 2113 2584 
Q 1688 2584 1439 2293 
Q 1191 2003 1191 1497 
Q 1191 994 1439 701 
Q 1688 409 2113 409 
Q 2538 409 2786 701 
Q 3034 994 3034 1497 
Q 3034 2003 2786 2293 
Q 2538 2584 2113 2584 
z
M 3366 4563 
L 3366 3988 
Q 3128 4100 2886 4159 
Q 2644 4219 2406 4219 
Q 1781 4219 1451 3797 
Q 1122 3375 1075 2522 
Q 1259 2794 1537 2939 
Q 1816 3084 2150 3084 
Q 2853 3084 3261 2657 
Q 3669 2231 3669 1497 
Q 3669 778 3244 343 
Q 2819 -91 2113 -91 
Q 1303 -91 875 529 
Q 447 1150 447 2328 
Q 447 3434 972 4092 
Q 1497 4750 2381 4750 
Q 2619 4750 2861 4703 
Q 3103 4656 3366 4563 
z
" transform="scale(0.015625)"/>
       </defs>
       <use xlink:href="#DejaVuSans-31"/>
       <use xlink:href="#DejaVuSans-2e" x="63.623047"/>
       <use xlink:href="#DejaVuSans-36" x="95.410156"/>
       <use xlink:href="#DejaVuSans-35" x="159.033203"/>
      </g>
     </g>
    </g>
    <g id="ytick_11">
     <g id="line2d_18">
      <g>
       <use xlink:href="#mcc5d73043b" x="374.4576" y="216.864" style="stroke: #000000; stroke-width: 0.8"/>
      </g>
     </g>
     <g id="text_21">
      <!-- 2.40 -->
      <g transform="translate(381.4576 220.663219)scale(0.1 -0.1)">
       <defs>
        <path id="DejaVuSans-34" d="M 2419 4116 
L 825 1625 
L 2419 1625 
L 2419 4116 
z
M 2253 4666 
L 3047 4666 
L 3047 1625 
L 3713 1625 
L 3713 1100 
L 3047 1100 
L 3047 0 
L 2419 0 
L 2419 1100 
L 313 1100 
L 313 1709 
L 2253 4666 
z
" transform="scale(0.015625)"/>
       </defs>
       <use xlink:href="#DejaVuSans-32"/>
       <use xlink:href="#DejaVuSans-2e" x="63.623047"/>
       <use xlink:href="#DejaVuSans-34" x="95.410156"/>
       <use xlink:href="#DejaVuSans-30" x="159.033203"/>
      </g>
     </g>
    </g>
    <g id="ytick_12">
     <g id="line2d_19">
      <g>
       <use xlink:href="#mcc5d73043b" x="374.4576" y="186.624" style="stroke: #000000; stroke-width: 0.8"/>
      </g>
     </g>
     <g id="text_22">
      <!-- 3.15 -->
      <g transform="translate(381.4576 190.423219)scale(0.1 -0.1)">
       <use xlink:href="#DejaVuSans-33"/>
       <use xlink:href="#DejaVuSans-2e" x="63.623047"/>
       <use xlink:href="#DejaVuSans-31" x="95.410156"/>
       <use xlink:href="#DejaVuSans-35" x="159.033203"/>
      </g>
     </g>
    </g>
    <g id="ytick_13">
     <g id="line2d_20">
      <g>
       <use xlink:href="#mcc5d73043b" x="374.4576" y="156.384" style="stroke: #000000; stroke-width: 0.8"/>
      </g>
     </g>
     <g id="text_23">
      <!-- 3.90 -->
      <g transform="translate(381.4576 160.183219)scale(0.1 -0.1)">
       <use xlink:href="#DejaVuSans-33"/>
       <use xlink:href="#DejaVuSans-2e" x="63.623047"/>
       <use xlink:href="#DejaVuSans-39" x="95.410156"/>
       <use xlink:href="#DejaVuSans-30" x="159.033203"/>
      </g>
     </g>
    </g>
    <g id="ytick_14">
     <g id="line2d_21">
      <g>
       <use xlink:href="#mcc5d73043b" x="374.4576" y="126.144" style="stroke: #000000; stroke-width: 0.8"/>
      </g>
     </g>
     <g id="text_24">
      <!-- 4.65 -->
      <g transform="translate(381.4576 129.943219)scale(0.1 -0.1)">
       <use xlink:href="#DejaVuSans-34"/>
       <use xlink:href="#DejaVuSans-2e" x="63.623047"/>
       <use xlink:href="#DejaVuSans-36" x="95.410156"/>
       <use xlink:href="#DejaVuSans-35" x="159.033203"/>
      </g>
     </g>
    </g>
    <g id="ytick_15">
     <g id="line2d_22">
      <g>
       <use xlink:href="#mcc5d73043b" x="374.4576" y="95.904" style="stroke: #000000; stroke-width: 0.8"/>
      </g>
     </g>
     <g id="text_25">
      <!-- 5.40 -->
      <g transform="translate(381.4576 99.703219)scale(0.1 -0.1)">
       <use xlink:href="#DejaVuSans-35"/>
       <use xlink:href="#DejaVuSans-2e" x="63.623047"/>
       <use xlink:href="#DejaVuSans-34" x="95.410156"/>
       <use xlink:href="#DejaVuSans-30" x="159.033203"/>
      </g>
     </g>
    </g>
    <g id="ytick_16">
     <g id="line2d_23">
      <g>
       <use xlink:href="#mcc5d73043b" x="374.4576" y="65.664" style="stroke: #000000; stroke-width: 0.8"/>
      </g>
     </g>
     <g id="text_26">
      <!-- 6.15 -->
      <g transform="translate(381.4576 69.463219)scale(0.1 -0.1)">
       <use xlink:href="#DejaVuSans-36"/>
       <use xlink:href="#DejaVuSans-2e" x="63.623047"/>
       <use xlink:href="#DejaVuSans-31" x="95.410156"/>
       <use xlink:href="#DejaVuSans-35" x="159.033203"/>
      </g>
     </g>
    </g>
   </g>
   <g id="LineCollection_1"/>
   <g id="patch_9">
    <path d="M 361.152 307.584 
L 367.8048 307.584 
L 374.4576 307.584 
L 374.4576 41.472 
L 367.8048 41.472 
L 361.152 41.472 
L 361.152 307.584 
z
" style="fill: none; stroke: #000000; stroke-width: 0.8; stroke-linejoin: miter; stroke-linecap: square"/>
   </g>
  </g>
 </g>
 <defs>
  <clipPath id="p3c4dfb35db">
   <rect x="57.6" y="41.472" width="285.696" height="266.112"/>
  </clipPath>
  <clipPath id="p1a15d9c333">
   <rect x="361.152" y="41.472" width="13.3056" height="266.112"/>
  </clipPath>
 </defs>
</svg>
