<?xml version="1.0" encoding="utf-8" standalone="no"?>
<!DOCTYPE svg PUBLIC "-//W3C//DTD SVG 1.1//EN"
  "http://www.w3.org/Graphics/SVG/1.1/DTD/svg11.dtd">
<svg xmlns:xlink="http://www.w3.org/1999/xlink" width="460.8pt" height="345.6pt" viewBox="0 0 460.8 345.6" xmlns="http://www.w3.org/2000/svg" version="1.1">
 <metadata>
  <rdf:RDF xmlns:dc="http://purl.org/dc/elements/1.1/" xmlns:cc="http://creativecommons.org/ns#" xmlns:rdf="http://www.w3.org/1999/02/22-rdf-syntax-ns#">
   <cc:Work>
    <dc:type rdf:resource="http://purl.org/dc/dcmitype/StillImage"/>
    <dc:date>2023-02-20T15:58:36.545838</dc:date>
    <dc:format>image/svg+xml</dc:format>
    <dc:creator>
     <cc:Agent>
      <dc:title>Matplotlib v3.5.3, https://matplotlib.org/</dc:title>
     </cc:Agent>
    </dc:creator>
   </cc:Work>
  </rdf:RDF>
 </metadata>
 <defs>
  <style type="text/css">*{stroke-linejoin: round; stroke-linecap: butt}</style>
 </defs>
 <g id="figure_1">
  <g id="patch_1">
   <path d="M 0 345.6 
L 460.8 345.6 
L 460.8 0 
L 0 0 
z
" style="fill: #ffffff"/>
  </g>
  <g id="axes_1">
   <g id="patch_2">
    <path d="M 57.6 307.584 
L 343.296 307.584 
L 343.296 41.472 
L 57.6 41.472 
z
" style="fill: #ffffff"/>
   </g>
   <g id="PathCollection_1">
    <path d="M 343.296 48.873867 
L 343.296 41.472 
L 326.927494 41.472 
z
" clip-path="url(#p2947db394d)" style="fill: #700320"/>
   </g>
   <g id="PathCollection_2">
    <path d="M 286.1568 43.132068 
L 305.2032 52.494887 
L 324.2496 61.77236 
L 343.296 70.973689 
L 343.296 48.873867 
L 326.927494 41.472 
L 324.2496 41.472 
L 305.2032 41.472 
L 286.1568 41.472 
L 282.89902 41.472 
z
" clip-path="url(#p2947db394d)" style="fill: #810823"/>
   </g>
   <g id="PathCollection_3">
    <path d="M 324.2496 82.286332 
L 343.296 89.581653 
L 343.296 79.488 
L 343.296 70.973689 
L 324.2496 61.77236 
L 305.2032 52.494887 
L 286.1568 43.132068 
L 282.89902 41.472 
L 267.1104 41.472 
L 248.064 41.472 
L 245.138066 41.472 
L 248.064 43.100546 
L 267.1104 53.287258 
L 286.1568 63.366302 
L 305.2032 73.350186 
L 317.143744 79.488 
z
" clip-path="url(#p2947db394d)" style="fill: #930e26"/>
   </g>
   <g id="PathCollection_4">
    <path d="M 286.1568 82.556169 
L 305.2032 90.451863 
L 324.2496 98.263865 
L 343.296 106.0012 
L 343.296 89.581653 
L 324.2496 82.286332 
L 317.143744 79.488 
L 305.2032 73.350186 
L 286.1568 63.366302 
L 267.1104 53.287258 
L 248.064 43.100546 
L 245.138066 41.472 
L 229.0176 41.472 
L 212.399397 41.472 
L 229.0176 51.168505 
L 248.064 62.095565 
L 267.1104 72.901357 
L 278.975547 79.488 
z
" clip-path="url(#p2947db394d)" style="fill: #a51429"/>
   </g>
   <g id="PathCollection_5">
    <path d="M 343.296 120.970646 
L 343.296 117.504 
L 343.296 106.0012 
L 324.2496 98.263865 
L 305.2032 90.451863 
L 286.1568 82.556169 
L 278.975547 79.488 
L 267.1104 72.901357 
L 248.064 62.095565 
L 229.0176 51.168505 
L 212.399397 41.472 
L 209.9712 41.472 
L 190.9248 41.472 
L 183.878358 41.472 
L 190.9248 46.022879 
L 209.9712 57.863335 
L 229.0176 69.545642 
L 245.494519 79.488 
L 248.064 80.687538 
L 267.1104 89.222538 
L 286.1568 97.651978 
L 305.2032 105.98812 
L 324.2496 114.241399 
L 331.971844 117.504 
z
" clip-path="url(#p2947db394d)" style="fill: #b41c2d"/>
   </g>
   <g id="PathCollection_6">
    <path d="M 305.2032 120.34913 
L 324.2496 126.484942 
L 343.296 132.547561 
L 343.296 120.970646 
L 331.971844 117.504 
L 324.2496 114.241399 
L 305.2032 105.98812 
L 286.1568 97.651978 
L 267.1104 89.222538 
L 248.064 80.687538 
L 245.494519 79.488 
L 229.0176 69.545642 
L 209.9712 57.863335 
L 190.9248 46.022879 
L 183.878358 41.472 
L 171.8784 41.472 
L 158.599292 41.472 
L 171.8784 50.53166 
L 190.9248 63.168572 
L 209.9712 75.623961 
L 216.096113 79.488 
L 229.0176 85.813033 
L 248.064 94.905367 
L 267.1104 103.87883 
L 286.1568 112.747787 
L 296.614236 117.504 
z
" clip-path="url(#p2947db394d)" style="fill: #bd2d35"/>
   </g>
   <g id="PathCollection_7">
    <path d="M 267.1104 118.236782 
L 286.1568 124.836001 
L 305.2032 131.343784 
L 324.2496 137.770358 
L 343.296 144.124477 
L 343.296 132.547561 
L 324.2496 126.484942 
L 305.2032 120.34913 
L 296.614236 117.504 
L 286.1568 112.747787 
L 267.1104 103.87883 
L 248.064 94.905367 
L 229.0176 85.813033 
L 216.096113 79.488 
L 209.9712 75.623961 
L 190.9248 63.168572 
L 171.8784 50.53166 
L 158.599292 41.472 
L 152.832 41.472 
L 136.050692 41.472 
L 152.832 53.604305 
L 171.8784 67.064251 
L 189.776987 79.488 
L 190.9248 80.11016 
L 209.9712 89.929375 
L 229.0176 99.593596 
L 248.064 109.123195 
L 265.079543 117.504 
z
" clip-path="url(#p2947db394d)" style="fill: #c53e3d"/>
   </g>
   <g id="PathCollection_8">
    <path d="M 76.6464 307.584 
L 95.6928 307.584 
L 114.7392 307.584 
L 133.7856 307.584 
L 152.832 307.584 
L 171.8784 307.584 
L 190.9248 307.584 
L 209.9712 307.584 
L 229.0176 307.584 
L 248.064 307.584 
L 267.1104 307.584 
L 286.1568 307.584 
L 305.2032 307.584 
L 324.2496 307.584 
L 343.296 307.584 
L 343.296 306.157242 
L 324.2496 306.213304 
L 305.2032 306.267219 
L 286.1568 306.31911 
L 267.1104 306.369087 
L 248.064 306.417256 
L 229.0176 306.463712 
L 209.9712 306.508546 
L 190.9248 306.55184 
L 171.8784 306.593672 
L 152.832 306.634116 
L 133.7856 306.67324 
L 114.7392 306.711107 
L 95.6928 306.747776 
L 76.6464 306.783304 
L 57.6 306.817743 
L 57.6 307.584 
z
" clip-path="url(#p2947db394d)" style="fill: #ce4f45"/>
    <path d="M 343.296 155.638915 
L 343.296 155.52 
L 343.296 144.124477 
L 324.2496 137.770358 
L 305.2032 131.343784 
L 286.1568 124.836001 
L 267.1104 118.236782 
L 265.079543 117.504 
L 248.064 109.123195 
L 229.0176 99.593596 
L 209.9712 89.929375 
L 190.9248 80.11016 
L 189.776987 79.488 
L 171.8784 67.064251 
L 152.832 53.604305 
L 136.050692 41.472 
L 133.7856 41.472 
L 115.915841 41.472 
L 133.7856 55.210179 
L 152.832 69.525932 
L 166.463771 79.488 
L 171.8784 82.589123 
L 190.9248 93.020514 
L 209.9712 103.274044 
L 229.0176 113.374159 
L 237.054363 117.504 
L 248.064 121.66188 
L 267.1104 128.6525 
L 286.1568 135.540721 
L 305.2032 142.338439 
L 324.2496 149.055774 
L 342.78887 155.52 
z
" clip-path="url(#p2947db394d)" style="fill: #ce4f45"/>
   </g>
   <g id="PathCollection_9">
    <path d="M 76.6464 306.783304 
L 95.6928 306.747776 
L 114.7392 306.711107 
L 133.7856 306.67324 
L 152.832 306.634116 
L 171.8784 306.593672 
L 190.9248 306.55184 
L 209.9712 306.508546 
L 229.0176 306.463712 
L 248.064 306.417256 
L 267.1104 306.369087 
L 286.1568 306.31911 
L 305.2032 306.267219 
L 324.2496 306.213304 
L 343.296 306.157242 
L 343.296 304.1087 
L 324.2496 304.245254 
L 305.2032 304.376582 
L 286.1568 304.502977 
L 267.1104 304.624713 
L 248.064 304.742042 
L 229.0176 304.8552 
L 209.9712 304.964405 
L 190.9248 305.069861 
L 171.8784 305.171757 
L 152.832 305.270271 
L 133.7856 305.365568 
L 114.7392 305.457804 
L 95.6928 305.547124 
L 76.6464 305.633663 
L 57.6 305.717549 
L 57.6 306.817743 
z
" clip-path="url(#p2947db394d)" style="fill: #d6604d"/>
    <path d="M 324.2496 158.68903 
L 343.296 163.228342 
L 343.296 155.638915 
L 342.78887 155.52 
L 324.2496 149.055774 
L 305.2032 142.338439 
L 286.1568 135.540721 
L 267.1104 128.6525 
L 248.064 121.66188 
L 237.054363 117.504 
L 229.0176 113.374159 
L 209.9712 103.274044 
L 190.9248 93.020514 
L 171.8784 82.589123 
L 166.463771 79.488 
L 152.832 69.525932 
L 133.7856 55.210179 
L 115.915841 41.472 
L 114.7392 41.472 
L 97.87802 41.472 
L 114.7392 55.310904 
L 133.7856 70.523361 
L 145.403648 79.488 
L 152.832 83.997458 
L 171.8784 95.066991 
L 190.9248 105.930868 
L 209.9712 116.618713 
L 211.619322 117.504 
L 229.0176 124.395803 
L 248.064 131.789648 
L 267.1104 139.068217 
L 286.1568 146.245442 
L 305.2032 153.333094 
L 311.253957 155.52 
z
" clip-path="url(#p2947db394d)" style="fill: #d6604d"/>
   </g>
   <g id="PathCollection_10">
    <path d="M 76.6464 305.633663 
L 95.6928 305.547124 
L 114.7392 305.457804 
L 133.7856 305.365568 
L 152.832 305.270271 
L 171.8784 305.171757 
L 190.9248 305.069861 
L 209.9712 304.964405 
L 229.0176 304.8552 
L 248.064 304.742042 
L 267.1104 304.624713 
L 286.1568 304.502977 
L 305.2032 304.376582 
L 324.2496 304.245254 
L 343.296 304.1087 
L 343.296 302.060157 
L 324.2496 302.277205 
L 305.2032 302.485944 
L 286.1568 302.686844 
L 267.1104 302.880338 
L 248.064 303.066828 
L 229.0176 303.246688 
L 209.9712 303.420265 
L 190.9248 303.587882 
L 171.8784 303.749842 
L 152.832 303.906426 
L 133.7856 304.057897 
L 114.7392 304.204502 
L 95.6928 304.346471 
L 76.6464 304.484021 
L 57.6 304.617356 
L 57.6 305.717549 
z
" clip-path="url(#p2947db394d)" style="fill: #dd7059"/>
    <path d="M 286.1568 156.465576 
L 305.2032 161.325857 
L 324.2496 166.107079 
L 343.296 170.81777 
L 343.296 163.228342 
L 324.2496 158.68903 
L 311.253957 155.52 
L 305.2032 153.333094 
L 286.1568 146.245442 
L 267.1104 139.068217 
L 248.064 131.789648 
L 229.0176 124.395803 
L 211.619322 117.504 
L 209.9712 116.618713 
L 190.9248 105.930868 
L 171.8784 95.066991 
L 152.832 83.997458 
L 145.403648 79.488 
L 133.7856 70.523361 
L 114.7392 55.310904 
L 97.87802 41.472 
L 95.6928 41.472 
L 81.620511 41.472 
L 95.6928 53.85775 
L 114.7392 70.018638 
L 126.325147 79.488 
L 133.7856 84.305296 
L 152.832 96.04498 
L 171.8784 107.54486 
L 188.73701 117.504 
L 190.9248 118.464354 
L 209.9712 126.425716 
L 229.0176 134.23682 
L 248.064 141.917416 
L 267.1104 149.483935 
L 282.58849 155.52 
z
" clip-path="url(#p2947db394d)" style="fill: #dd7059"/>
   </g>
   <g id="PathCollection_11">
    <path d="M 76.6464 304.484021 
L 95.6928 304.346471 
L 114.7392 304.204502 
L 133.7856 304.057897 
L 152.832 303.906426 
L 171.8784 303.749842 
L 190.9248 303.587882 
L 209.9712 303.420265 
L 229.0176 303.246688 
L 248.064 303.066828 
L 267.1104 302.880338 
L 286.1568 302.686844 
L 305.2032 302.485944 
L 324.2496 302.277205 
L 343.296 302.060157 
L 343.296 300.011615 
L 324.2496 300.309155 
L 305.2032 300.595307 
L 286.1568 300.870711 
L 267.1104 301.135964 
L 248.064 301.391614 
L 229.0176 301.638176 
L 209.9712 301.876125 
L 190.9248 302.105904 
L 171.8784 302.327927 
L 152.832 302.542581 
L 133.7856 302.750225 
L 114.7392 302.951199 
L 95.6928 303.145819 
L 76.6464 303.33438 
L 57.6 303.517162 
L 57.6 304.617356 
z
" clip-path="url(#p2947db394d)" style="fill: #e58368"/>
    <path d="M 267.1104 158.425022 
L 286.1568 163.543185 
L 305.2032 168.573269 
L 324.2496 173.525128 
L 343.296 178.407198 
L 343.296 170.81777 
L 324.2496 166.107079 
L 305.2032 161.325857 
L 286.1568 156.465576 
L 282.58849 155.52 
L 267.1104 149.483935 
L 248.064 141.917416 
L 229.0176 134.23682 
L 209.9712 126.425716 
L 190.9248 118.464354 
L 188.73701 117.504 
L 171.8784 107.54486 
L 152.832 96.04498 
L 133.7856 84.305296 
L 126.325147 79.488 
L 114.7392 70.018638 
L 95.6928 53.85775 
L 81.620511 41.472 
L 76.6464 41.472 
L 66.826594 41.472 
L 76.6464 50.787889 
L 95.6928 67.96364 
L 108.956794 79.488 
L 114.7392 83.475213 
L 133.7856 95.92499 
L 152.832 108.092502 
L 167.9675 117.504 
L 171.8784 119.318656 
L 190.9248 127.73619 
L 209.9712 135.981353 
L 229.0176 144.077838 
L 248.064 152.045184 
L 256.62205 155.52 
z
" clip-path="url(#p2947db394d)" style="fill: #e58368"/>
   </g>
   <g id="PathCollection_12">
    <path d="M 76.6464 303.33438 
L 95.6928 303.145819 
L 114.7392 302.951199 
L 133.7856 302.750225 
L 152.832 302.542581 
L 171.8784 302.327927 
L 190.9248 302.105904 
L 209.9712 301.876125 
L 229.0176 301.638176 
L 248.064 301.391614 
L 267.1104 301.135964 
L 286.1568 300.870711 
L 305.2032 300.595307 
L 324.2496 300.309155 
L 343.296 300.011615 
L 343.296 297.963073 
L 324.2496 298.341105 
L 305.2032 298.704669 
L 286.1568 299.054579 
L 267.1104 299.391589 
L 248.064 299.716401 
L 229.0176 300.029664 
L 209.9712 300.331984 
L 190.9248 300.623925 
L 171.8784 300.906012 
L 152.832 301.178735 
L 133.7856 301.442554 
L 114.7392 301.697897 
L 95.6928 301.945166 
L 76.6464 302.184739 
L 57.6 302.416968 
L 57.6 303.517162 
z
" clip-path="url(#p2947db394d)" style="fill: #ec9374"/>
    <path d="M 248.064 159.948136 
L 267.1104 165.333765 
L 286.1568 170.620795 
L 305.2032 175.820682 
L 324.2496 180.943177 
L 343.296 185.996626 
L 343.296 178.407198 
L 324.2496 173.525128 
L 305.2032 168.573269 
L 286.1568 163.543185 
L 267.1104 158.425022 
L 256.62205 155.52 
L 248.064 152.045184 
L 229.0176 144.077838 
L 209.9712 135.981353 
L 190.9248 127.73619 
L 171.8784 119.318656 
L 167.9675 117.504 
L 152.832 108.092502 
L 133.7856 95.92499 
L 114.7392 83.475213 
L 108.956794 79.488 
L 95.6928 67.96364 
L 76.6464 50.787889 
L 66.826594 41.472 
L 57.6 41.472 
L 57.6 46.018896 
L 76.6464 64.296319 
L 93.027116 79.488 
L 95.6928 81.459691 
L 114.7392 94.670076 
L 133.7856 107.544684 
L 148.95863 117.504 
L 152.832 119.409774 
L 171.8784 128.308521 
L 190.9248 137.008026 
L 209.9712 145.536991 
L 229.0176 153.918855 
L 232.798541 155.52 
z
" clip-path="url(#p2947db394d)" style="fill: #ec9374"/>
   </g>
   <g id="PathCollection_13">
    <path d="M 76.6464 302.184739 
L 95.6928 301.945166 
L 114.7392 301.697897 
L 133.7856 301.442554 
L 152.832 301.178735 
L 171.8784 300.906012 
L 190.9248 300.623925 
L 209.9712 300.331984 
L 229.0176 300.029664 
L 248.064 299.716401 
L 267.1104 299.391589 
L 286.1568 299.054579 
L 305.2032 298.704669 
L 324.2496 298.341105 
L 343.296 297.963073 
L 343.296 295.91453 
L 324.2496 296.373056 
L 305.2032 296.814032 
L 286.1568 297.238446 
L 267.1104 297.647214 
L 248.064 298.041187 
L 229.0176 298.421152 
L 209.9712 298.787844 
L 190.9248 299.141946 
L 171.8784 299.484097 
L 152.832 299.81489 
L 133.7856 300.134882 
L 114.7392 300.444594 
L 95.6928 300.744514 
L 76.6464 301.035097 
L 57.6 301.316775 
L 57.6 302.416968 
z
" clip-path="url(#p2947db394d)" style="fill: #f3a481"/>
    <path d="M 343.296 193.569272 
L 343.296 193.536 
L 343.296 185.996626 
L 324.2496 180.943177 
L 305.2032 175.820682 
L 286.1568 170.620795 
L 267.1104 165.333765 
L 248.064 159.948136 
L 232.798541 155.52 
L 229.0176 153.918855 
L 209.9712 145.536991 
L 190.9248 137.008026 
L 171.8784 128.308521 
L 152.832 119.409774 
L 148.95863 117.504 
L 133.7856 107.544684 
L 114.7392 94.670076 
L 95.6928 81.459691 
L 93.027116 79.488 
L 76.6464 64.296319 
L 57.6 46.018896 
L 57.6 58.935278 
L 76.6464 77.80475 
L 78.461396 79.488 
L 95.6928 92.233327 
L 114.7392 105.864939 
L 131.484172 117.504 
L 133.7856 118.70898 
L 152.832 128.119806 
L 171.8784 137.298386 
L 190.9248 146.279863 
L 209.9712 155.092628 
L 210.936982 155.52 
L 229.0176 161.024686 
L 248.064 166.689073 
L 267.1104 172.242508 
L 286.1568 177.698404 
L 305.2032 183.068095 
L 324.2496 188.361226 
L 343.117616 193.536 
z
" clip-path="url(#p2947db394d)" style="fill: #f3a481"/>
   </g>
   <g id="PathCollection_14">
    <path d="M 76.6464 301.035097 
L 95.6928 300.744514 
L 114.7392 300.444594 
L 133.7856 300.134882 
L 152.832 299.81489 
L 171.8784 299.484097 
L 190.9248 299.141946 
L 209.9712 298.787844 
L 229.0176 298.421152 
L 248.064 298.041187 
L 267.1104 297.647214 
L 286.1568 297.238446 
L 305.2032 296.814032 
L 324.2496 296.373056 
L 343.296 295.91453 
L 343.296 293.865988 
L 324.2496 294.405006 
L 305.2032 294.923394 
L 286.1568 295.422313 
L 267.1104 295.90284 
L 248.064 296.365973 
L 229.0176 296.81264 
L 209.9712 297.243704 
L 190.9248 297.659968 
L 171.8784 298.062182 
L 152.832 298.451045 
L 133.7856 298.827211 
L 114.7392 299.191292 
L 95.6928 299.543861 
L 76.6464 299.885456 
L 57.6 300.216581 
L 57.6 301.316775 
z
" clip-path="url(#p2947db394d)" style="fill: #f6b191"/>
    <path d="M 324.2496 195.035289 
L 343.296 198.614105 
L 343.296 193.569272 
L 343.117616 193.536 
L 324.2496 188.361226 
L 305.2032 183.068095 
L 286.1568 177.698404 
L 267.1104 172.242508 
L 248.064 166.689073 
L 229.0176 161.024686 
L 210.936982 155.52 
L 209.9712 155.092628 
L 190.9248 146.279863 
L 171.8784 137.298386 
L 152.832 128.119806 
L 133.7856 118.70898 
L 131.484172 117.504 
L 114.7392 105.864939 
L 95.6928 92.233327 
L 78.461396 79.488 
L 76.6464 77.80475 
L 57.6 58.935278 
L 57.6 71.851661 
L 65.277923 79.488 
L 76.6464 88.554261 
L 95.6928 103.006963 
L 114.7392 117.059802 
L 115.378261 117.504 
L 133.7856 127.141699 
L 152.832 136.829839 
L 171.8784 146.288252 
L 190.8616 155.52 
L 190.9248 155.541352 
L 209.9712 161.642475 
L 229.0176 167.599024 
L 248.064 173.430011 
L 267.1104 179.151251 
L 286.1568 184.776013 
L 305.2032 190.315508 
L 316.5367 193.536 
z
" clip-path="url(#p2947db394d)" style="fill: #f6b191"/>
   </g>
   <g id="PathCollection_15">
    <path d="M 76.6464 299.885456 
L 95.6928 299.543861 
L 114.7392 299.191292 
L 133.7856 298.827211 
L 152.832 298.451045 
L 171.8784 298.062182 
L 190.9248 297.659968 
L 209.9712 297.243704 
L 229.0176 296.81264 
L 248.064 296.365973 
L 267.1104 295.90284 
L 286.1568 295.422313 
L 305.2032 294.923394 
L 324.2496 294.405006 
L 343.296 293.865988 
L 343.296 291.817445 
L 324.2496 292.436957 
L 305.2032 293.032757 
L 286.1568 293.60618 
L 267.1104 294.158465 
L 248.064 294.690759 
L 229.0176 295.204128 
L 209.9712 295.699563 
L 190.9248 296.177989 
L 171.8784 296.640266 
L 152.832 297.087199 
L 133.7856 297.519539 
L 114.7392 297.937989 
L 95.6928 298.343209 
L 76.6464 298.735815 
L 57.6 299.116387 
L 57.6 300.216581 
z
" clip-path="url(#p2947db394d)" style="fill: #f8bda1"/>
    <path d="M 305.2032 196.243014 
L 324.2496 199.99313 
L 343.296 203.658938 
L 343.296 198.614105 
L 324.2496 195.035289 
L 316.5367 193.536 
L 305.2032 190.315508 
L 286.1568 184.776013 
L 267.1104 179.151251 
L 248.064 173.430011 
L 229.0176 167.599024 
L 209.9712 161.642475 
L 190.9248 155.541352 
L 190.8616 155.52 
L 171.8784 146.288252 
L 152.832 136.829839 
L 133.7856 127.141699 
L 115.378261 117.504 
L 114.7392 117.059802 
L 95.6928 103.006963 
L 76.6464 88.554261 
L 65.277923 79.488 
L 57.6 71.851661 
L 57.6 79.488 
L 57.6 83.55353 
L 76.6464 98.911055 
L 95.6928 113.780599 
L 100.733286 117.504 
L 114.7392 125.338688 
L 133.7856 135.574418 
L 152.832 145.539871 
L 171.8784 155.278117 
L 172.375783 155.52 
L 190.9248 161.786843 
L 209.9712 168.051594 
L 229.0176 174.173363 
L 248.064 180.170948 
L 267.1104 186.059994 
L 286.1568 191.853622 
L 291.863572 193.536 
z
" clip-path="url(#p2947db394d)" style="fill: #f8bda1"/>
   </g>
   <g id="PathCollection_16">
    <path d="M 76.6464 298.735815 
L 95.6928 298.343209 
L 114.7392 297.937989 
L 133.7856 297.519539 
L 152.832 297.087199 
L 171.8784 296.640266 
L 190.9248 296.177989 
L 209.9712 295.699563 
L 229.0176 295.204128 
L 248.064 294.690759 
L 267.1104 294.158465 
L 286.1568 293.60618 
L 305.2032 293.032757 
L 324.2496 292.436957 
L 343.296 291.817445 
L 343.296 289.768903 
L 324.2496 290.468907 
L 305.2032 291.142119 
L 286.1568 291.790047 
L 267.1104 292.41409 
L 248.064 293.015545 
L 229.0176 293.595616 
L 209.9712 294.155423 
L 190.9248 294.696011 
L 171.8784 295.218351 
L 152.832 295.723354 
L 133.7856 296.211868 
L 114.7392 296.684687 
L 95.6928 297.142556 
L 76.6464 297.586173 
L 57.6 298.016194 
L 57.6 299.116387 
z
" clip-path="url(#p2947db394d)" style="fill: #facab1"/>
    <path d="M 286.1568 197.185273 
L 305.2032 201.114938 
L 324.2496 204.950971 
L 343.296 208.703771 
L 343.296 203.658938 
L 324.2496 199.99313 
L 305.2032 196.243014 
L 291.863572 193.536 
L 286.1568 191.853622 
L 267.1104 186.059994 
L 248.064 180.170948 
L 229.0176 174.173363 
L 209.9712 168.051594 
L 190.9248 161.786843 
L 172.375783 155.52 
L 171.8784 155.278117 
L 152.832 145.539871 
L 133.7856 135.574418 
L 114.7392 125.338688 
L 100.733286 117.504 
L 95.6928 113.780599 
L 76.6464 98.911055 
L 57.6 83.55353 
L 57.6 93.498893 
L 76.6464 109.267849 
L 87.094858 117.504 
L 95.6928 122.665681 
L 114.7392 133.49709 
L 133.7856 144.007137 
L 152.832 154.249904 
L 155.314179 155.52 
L 171.8784 161.440015 
L 190.9248 168.032334 
L 209.9712 174.460714 
L 229.0176 180.747701 
L 248.064 186.911886 
L 267.1104 192.968737 
L 268.96243 193.536 
z
" clip-path="url(#p2947db394d)" style="fill: #facab1"/>
   </g>
   <g id="PathCollection_17">
    <path d="M 76.6464 297.586173 
L 95.6928 297.142556 
L 114.7392 296.684687 
L 133.7856 296.211868 
L 152.832 295.723354 
L 171.8784 295.218351 
L 190.9248 294.696011 
L 209.9712 294.155423 
L 229.0176 293.595616 
L 248.064 293.015545 
L 267.1104 292.41409 
L 286.1568 291.790047 
L 305.2032 291.142119 
L 324.2496 290.468907 
L 343.296 289.768903 
L 343.296 287.72036 
L 324.2496 288.500858 
L 305.2032 289.251482 
L 286.1568 289.973915 
L 267.1104 290.669716 
L 248.064 291.340331 
L 229.0176 291.987104 
L 209.9712 292.611283 
L 190.9248 293.214032 
L 171.8784 293.796436 
L 152.832 294.359509 
L 133.7856 294.904196 
L 114.7392 295.431384 
L 95.6928 295.941904 
L 76.6464 296.436532 
L 57.6 296.916 
L 57.6 298.016194 
z
" clip-path="url(#p2947db394d)" style="fill: #fcd7c2"/>
    <path d="M 248.064 193.616102 
L 267.1104 197.853646 
L 286.1568 201.972487 
L 305.2032 205.986861 
L 324.2496 209.908812 
L 343.296 213.748604 
L 343.296 208.703771 
L 324.2496 204.950971 
L 305.2032 201.114938 
L 286.1568 197.185273 
L 268.96243 193.536 
L 267.1104 192.968737 
L 248.064 186.911886 
L 229.0176 180.747701 
L 209.9712 174.460714 
L 190.9248 168.032334 
L 171.8784 161.440015 
L 155.314179 155.52 
L 152.832 154.249904 
L 133.7856 144.007137 
L 114.7392 133.49709 
L 95.6928 122.665681 
L 87.094858 117.504 
L 76.6464 109.267849 
L 57.6 93.498893 
L 57.6 103.444256 
L 74.236751 117.504 
L 76.6464 119.064539 
L 95.6928 130.55337 
L 114.7392 141.655493 
L 133.7856 152.439856 
L 139.490597 155.52 
L 152.832 160.580224 
L 171.8784 167.523719 
L 190.9248 174.277824 
L 209.9712 180.869834 
L 229.0176 187.322039 
L 247.721064 193.536 
z
" clip-path="url(#p2947db394d)" style="fill: #fcd7c2"/>
   </g>
   <g id="PathCollection_18">
    <path d="M 76.6464 296.436532 
L 95.6928 295.941904 
L 114.7392 295.431384 
L 133.7856 294.904196 
L 152.832 294.359509 
L 171.8784 293.796436 
L 190.9248 293.214032 
L 209.9712 292.611283 
L 229.0176 291.987104 
L 248.064 291.340331 
L 267.1104 290.669716 
L 286.1568 289.973915 
L 305.2032 289.251482 
L 324.2496 288.500858 
L 343.296 287.72036 
L 343.296 285.671818 
L 324.2496 286.532808 
L 305.2032 287.360844 
L 286.1568 288.157782 
L 267.1104 288.925341 
L 248.064 289.665117 
L 229.0176 290.378591 
L 209.9712 291.067142 
L 190.9248 291.732053 
L 171.8784 292.374521 
L 152.832 292.995663 
L 133.7856 293.596525 
L 114.7392 294.178082 
L 95.6928 294.741251 
L 76.6464 295.28689 
L 57.6 295.815806 
L 57.6 296.916 
z
" clip-path="url(#p2947db394d)" style="fill: #fde1d0"/>
    <path d="M 229.0176 193.784977 
L 248.064 198.238183 
L 267.1104 202.557517 
L 286.1568 206.759701 
L 305.2032 210.858784 
L 324.2496 214.866653 
L 343.296 218.793437 
L 343.296 213.748604 
L 324.2496 209.908812 
L 305.2032 205.986861 
L 286.1568 201.972487 
L 267.1104 197.853646 
L 248.064 193.616102 
L 247.721064 193.536 
L 229.0176 187.322039 
L 209.9712 180.869834 
L 190.9248 174.277824 
L 171.8784 167.523719 
L 152.832 160.580224 
L 139.490597 155.52 
L 133.7856 152.439856 
L 114.7392 141.655493 
L 95.6928 130.55337 
L 76.6464 119.064539 
L 74.236751 117.504 
L 57.6 103.444256 
L 57.6 113.389618 
L 62.468506 117.504 
L 76.6464 126.685901 
L 95.6928 138.441059 
L 114.7392 149.813896 
L 124.724054 155.52 
L 133.7856 159.180524 
L 152.832 166.504295 
L 171.8784 173.607423 
L 190.9248 180.523315 
L 209.9712 187.278954 
L 228.005035 193.536 
z
" clip-path="url(#p2947db394d)" style="fill: #fde1d0"/>
   </g>
   <g id="PathCollection_19">
    <path d="M 76.6464 295.28689 
L 95.6928 294.741251 
L 114.7392 294.178082 
L 133.7856 293.596525 
L 152.832 292.995663 
L 171.8784 292.374521 
L 190.9248 291.732053 
L 209.9712 291.067142 
L 229.0176 290.378591 
L 248.064 289.665117 
L 267.1104 288.925341 
L 286.1568 288.157782 
L 305.2032 287.360844 
L 324.2496 286.532808 
L 343.296 285.671818 
L 343.296 283.623275 
L 324.2496 284.564759 
L 305.2032 285.470207 
L 286.1568 286.341649 
L 267.1104 287.180967 
L 248.064 287.989903 
L 229.0176 288.770079 
L 209.9712 289.523002 
L 190.9248 290.250075 
L 171.8784 290.952606 
L 152.832 291.631818 
L 133.7856 292.288853 
L 114.7392 292.924779 
L 95.6928 293.540599 
L 76.6464 294.137249 
L 57.6 294.715612 
L 57.6 295.815806 
z
" clip-path="url(#p2947db394d)" style="fill: #fee9dd"/>
    <path d="M 209.9712 193.641922 
L 229.0176 198.32704 
L 248.064 202.860263 
L 267.1104 207.261388 
L 286.1568 211.546916 
L 305.2032 215.730707 
L 324.2496 219.824494 
L 343.296 223.83827 
L 343.296 218.793437 
L 324.2496 214.866653 
L 305.2032 210.858784 
L 286.1568 206.759701 
L 267.1104 202.557517 
L 248.064 198.238183 
L 229.0176 193.784977 
L 228.005035 193.536 
L 209.9712 187.278954 
L 190.9248 180.523315 
L 171.8784 173.607423 
L 152.832 166.504295 
L 133.7856 159.180524 
L 124.724054 155.52 
L 114.7392 149.813896 
L 95.6928 138.441059 
L 76.6464 126.685901 
L 62.468506 117.504 
L 57.6 113.389618 
L 57.6 117.504 
L 57.6 121.81944 
L 76.6464 134.307262 
L 95.6928 146.328749 
L 110.833568 155.52 
L 114.7392 157.207156 
L 133.7856 164.947499 
L 152.832 172.428366 
L 171.8784 179.691128 
L 190.9248 186.768805 
L 209.563051 193.536 
z
" clip-path="url(#p2947db394d)" style="fill: #fee9dd"/>
   </g>
   <g id="PathCollection_20">
    <path d="M 76.6464 294.137249 
L 95.6928 293.540599 
L 114.7392 292.924779 
L 133.7856 292.288853 
L 152.832 291.631818 
L 171.8784 290.952606 
L 190.9248 290.250075 
L 209.9712 289.523002 
L 229.0176 288.770079 
L 248.064 287.989903 
L 267.1104 287.180967 
L 286.1568 286.341649 
L 305.2032 285.470207 
L 324.2496 284.564759 
L 343.296 283.623275 
L 343.296 281.574733 
L 324.2496 282.596709 
L 305.2032 283.579569 
L 286.1568 284.525516 
L 267.1104 285.436592 
L 248.064 286.314689 
L 229.0176 287.161567 
L 209.9712 287.978862 
L 190.9248 288.768096 
L 171.8784 289.530691 
L 152.832 290.267973 
L 133.7856 290.981181 
L 114.7392 291.671477 
L 95.6928 292.339946 
L 76.6464 292.987608 
L 57.6 293.615419 
L 57.6 294.715612 
z
" clip-path="url(#p2947db394d)" style="fill: #fef2ea"/>
    <path d="M 209.9712 198.106008 
L 229.0176 202.869103 
L 248.064 207.482343 
L 267.1104 211.965259 
L 286.1568 216.33413 
L 305.2032 220.602631 
L 324.2496 224.782335 
L 343.296 228.883103 
L 343.296 223.83827 
L 324.2496 219.824494 
L 305.2032 215.730707 
L 286.1568 211.546916 
L 267.1104 207.261388 
L 248.064 202.860263 
L 229.0176 198.32704 
L 209.9712 193.641922 
L 209.563051 193.536 
L 190.9248 186.768805 
L 171.8784 179.691128 
L 152.832 172.428366 
L 133.7856 164.947499 
L 114.7392 157.207156 
L 110.833568 155.52 
L 95.6928 146.328749 
L 76.6464 134.307262 
L 57.6 121.81944 
L 57.6 129.179884 
L 76.6464 141.928624 
L 95.6928 154.216438 
L 97.84016 155.52 
L 114.7392 162.820054 
L 133.7856 170.714474 
L 152.832 178.352437 
L 171.8784 185.774832 
L 190.9248 193.014296 
L 192.361681 193.536 
z
" clip-path="url(#p2947db394d)" style="fill: #fef2ea"/>
   </g>
   <g id="PathCollection_21">
    <path d="M 76.6464 292.987608 
L 95.6928 292.339946 
L 114.7392 291.671477 
L 133.7856 290.981181 
L 152.832 290.267973 
L 171.8784 289.530691 
L 190.9248 288.768096 
L 209.9712 287.978862 
L 229.0176 287.161567 
L 248.064 286.314689 
L 267.1104 285.436592 
L 286.1568 284.525516 
L 305.2032 283.579569 
L 324.2496 282.596709 
L 343.296 281.574733 
L 343.296 279.52619 
L 324.2496 280.62866 
L 305.2032 281.688932 
L 286.1568 282.709383 
L 267.1104 283.692217 
L 248.064 284.639475 
L 229.0176 285.553055 
L 209.9712 286.434721 
L 190.9248 287.286117 
L 171.8784 288.108776 
L 152.832 288.904127 
L 133.7856 289.67351 
L 114.7392 290.418174 
L 95.6928 291.139293 
L 76.6464 291.837966 
L 57.6 292.515225 
L 57.6 293.615419 
z
" clip-path="url(#p2947db394d)" style="fill: #fffaf7"/>
    <path d="M 343.296 234.909826 
L 343.296 231.552 
L 343.296 228.883103 
L 324.2496 224.782335 
L 305.2032 220.602631 
L 286.1568 216.33413 
L 267.1104 211.965259 
L 248.064 207.482343 
L 229.0176 202.869103 
L 209.9712 198.106008 
L 192.361681 193.536 
L 190.9248 193.014296 
L 171.8784 185.774832 
L 152.832 178.352437 
L 133.7856 170.714474 
L 114.7392 162.820054 
L 97.84016 155.52 
L 95.6928 154.216438 
L 76.6464 141.928624 
L 57.6 129.179884 
L 57.6 136.540329 
L 76.6464 149.549985 
L 85.867034 155.52 
L 95.6928 160.079697 
L 114.7392 168.432952 
L 133.7856 176.481449 
L 152.832 184.276508 
L 171.8784 191.858536 
L 176.283438 193.536 
L 190.9248 197.557888 
L 209.9712 202.570093 
L 229.0176 207.411166 
L 248.064 212.104423 
L 267.1104 216.66913 
L 286.1568 221.121344 
L 305.2032 225.474554 
L 324.2496 229.740176 
L 332.571391 231.552 
z
" clip-path="url(#p2947db394d)" style="fill: #fffaf7"/>
   </g>
   <g id="PathCollection_22">
    <path d="M 76.6464 291.837966 
L 95.6928 291.139293 
L 114.7392 290.418174 
L 133.7856 289.67351 
L 152.832 288.904127 
L 171.8784 288.108776 
L 190.9248 287.286117 
L 209.9712 286.434721 
L 229.0176 285.553055 
L 248.064 284.639475 
L 267.1104 283.692217 
L 286.1568 282.709383 
L 305.2032 281.688932 
L 324.2496 280.62866 
L 343.296 279.52619 
L 343.296 277.477648 
L 324.2496 278.66061 
L 305.2032 279.798294 
L 286.1568 280.893251 
L 267.1104 281.947843 
L 248.064 282.964262 
L 229.0176 283.944543 
L 209.9712 284.890581 
L 190.9248 285.804139 
L 171.8784 286.686861 
L 152.832 287.540282 
L 133.7856 288.365838 
L 114.7392 289.164872 
L 95.6928 289.938641 
L 76.6464 290.688325 
L 57.6 291.415031 
L 57.6 292.515225 
z
" clip-path="url(#p2947db394d)" style="fill: #fbfbfb"/>
    <path d="M 324.2496 236.142815 
L 343.296 242.039509 
L 343.296 234.909826 
L 332.571391 231.552 
L 324.2496 229.740176 
L 305.2032 225.474554 
L 286.1568 221.121344 
L 267.1104 216.66913 
L 248.064 212.104423 
L 229.0176 207.411166 
L 209.9712 202.570093 
L 190.9248 197.557888 
L 176.283438 193.536 
L 171.8784 191.858536 
L 152.832 184.276508 
L 133.7856 176.481449 
L 114.7392 168.432952 
L 95.6928 160.079697 
L 85.867034 155.52 
L 76.6464 149.549985 
L 57.6 136.540329 
L 57.6 143.900773 
L 74.347674 155.52 
L 76.6464 156.671927 
L 95.6928 165.542147 
L 114.7392 174.045849 
L 133.7856 182.248424 
L 152.832 190.200579 
L 161.16237 193.536 
L 171.8784 196.661662 
L 190.9248 201.946357 
L 209.9712 207.034179 
L 229.0176 211.953229 
L 248.064 216.726503 
L 267.1104 221.373001 
L 286.1568 225.908558 
L 305.2032 230.346477 
L 310.546639 231.552 
z
" clip-path="url(#p2947db394d)" style="fill: #fbfbfb"/>
   </g>
   <g id="PathCollection_23">
    <path d="M 76.6464 290.688325 
L 95.6928 289.938641 
L 114.7392 289.164872 
L 133.7856 288.365838 
L 152.832 287.540282 
L 171.8784 286.686861 
L 190.9248 285.804139 
L 209.9712 284.890581 
L 229.0176 283.944543 
L 248.064 282.964262 
L 267.1104 281.947843 
L 286.1568 280.893251 
L 305.2032 279.798294 
L 324.2496 278.66061 
L 343.296 277.477648 
L 343.296 275.429106 
L 324.2496 276.692561 
L 305.2032 277.907657 
L 286.1568 279.077118 
L 267.1104 280.203468 
L 248.064 281.289048 
L 229.0176 282.336031 
L 209.9712 283.346441 
L 190.9248 284.32216 
L 171.8784 285.264946 
L 152.832 286.176437 
L 133.7856 287.058167 
L 114.7392 287.911569 
L 95.6928 288.737988 
L 76.6464 289.538684 
L 57.6 290.314838 
L 57.6 291.415031 
z
" clip-path="url(#p2947db394d)" style="fill: #f3f3f3"/>
    <path d="M 305.2032 237.092571 
L 324.2496 243.377528 
L 343.296 249.169192 
L 343.296 242.039509 
L 324.2496 236.142815 
L 310.546639 231.552 
L 305.2032 230.346477 
L 286.1568 225.908558 
L 267.1104 221.373001 
L 248.064 216.726503 
L 229.0176 211.953229 
L 209.9712 207.034179 
L 190.9248 201.946357 
L 171.8784 196.661662 
L 161.16237 193.536 
L 152.832 190.200579 
L 133.7856 182.248424 
L 114.7392 174.045849 
L 95.6928 165.542147 
L 76.6464 156.671927 
L 74.347674 155.52 
L 57.6 143.900773 
L 57.6 151.261218 
L 63.738506 155.52 
L 76.6464 161.988348 
L 95.6928 171.004597 
L 114.7392 179.658747 
L 133.7856 188.015399 
L 146.862674 193.536 
L 152.832 195.391374 
L 171.8784 200.977269 
L 190.9248 206.334826 
L 209.9712 211.498264 
L 229.0176 216.495292 
L 248.064 221.348583 
L 267.1104 226.076872 
L 286.1568 230.695772 
L 289.814233 231.552 
z
" clip-path="url(#p2947db394d)" style="fill: #f3f3f3"/>
   </g>
   <g id="PathCollection_24">
    <path d="M 76.6464 289.538684 
L 95.6928 288.737988 
L 114.7392 287.911569 
L 133.7856 287.058167 
L 152.832 286.176437 
L 171.8784 285.264946 
L 190.9248 284.32216 
L 209.9712 283.346441 
L 229.0176 282.336031 
L 248.064 281.289048 
L 267.1104 280.203468 
L 286.1568 279.077118 
L 305.2032 277.907657 
L 324.2496 276.692561 
L 343.296 275.429106 
L 343.296 273.380563 
L 324.2496 274.724511 
L 305.2032 276.017019 
L 286.1568 277.260985 
L 267.1104 278.459093 
L 248.064 279.613834 
L 229.0176 280.727519 
L 209.9712 281.8023 
L 190.9248 282.840181 
L 171.8784 283.84303 
L 152.832 284.812592 
L 133.7856 285.750495 
L 114.7392 286.658267 
L 95.6928 287.537336 
L 76.6464 288.389042 
L 57.6 289.214644 
L 57.6 290.314838 
z
" clip-path="url(#p2947db394d)" style="fill: #ececec"/>
    <path d="M 286.1568 237.72487 
L 305.2032 244.454896 
L 324.2496 250.61224 
L 343.296 256.298875 
L 343.296 249.169192 
L 324.2496 243.377528 
L 305.2032 237.092571 
L 289.814233 231.552 
L 286.1568 230.695772 
L 267.1104 226.076872 
L 248.064 221.348583 
L 229.0176 216.495292 
L 209.9712 211.498264 
L 190.9248 206.334826 
L 171.8784 200.977269 
L 152.832 195.391374 
L 146.862674 193.536 
L 133.7856 188.015399 
L 114.7392 179.658747 
L 95.6928 171.004597 
L 76.6464 161.988348 
L 63.738506 155.52 
L 57.6 151.261218 
L 57.6 155.52 
L 57.6 157.70108 
L 76.6464 167.304768 
L 95.6928 176.467047 
L 114.7392 185.271645 
L 133.248548 193.536 
L 133.7856 193.714585 
L 152.832 199.63736 
L 171.8784 205.292877 
L 190.9248 210.723295 
L 209.9712 215.96235 
L 229.0176 221.037355 
L 248.064 225.970664 
L 267.1104 230.780743 
L 270.280507 231.552 
z
" clip-path="url(#p2947db394d)" style="fill: #ececec"/>
   </g>
   <g id="PathCollection_25">
    <path d="M 76.6464 288.389042 
L 95.6928 287.537336 
L 114.7392 286.658267 
L 133.7856 285.750495 
L 152.832 284.812592 
L 171.8784 283.84303 
L 190.9248 282.840181 
L 209.9712 281.8023 
L 229.0176 280.727519 
L 248.064 279.613834 
L 267.1104 278.459093 
L 286.1568 277.260985 
L 305.2032 276.017019 
L 324.2496 274.724511 
L 343.296 273.380563 
L 343.296 271.332021 
L 324.2496 272.756461 
L 305.2032 274.126382 
L 286.1568 275.444852 
L 267.1104 276.714719 
L 248.064 277.93862 
L 229.0176 279.119007 
L 209.9712 280.25816 
L 190.9248 281.358203 
L 171.8784 282.421115 
L 152.832 283.448746 
L 133.7856 284.442824 
L 114.7392 285.404965 
L 95.6928 286.336683 
L 76.6464 287.239401 
L 57.6 288.11445 
L 57.6 289.214644 
z
" clip-path="url(#p2947db394d)" style="fill: #e5e5e5"/>
    <path d="M 267.1104 237.994837 
L 286.1568 245.242284 
L 305.2032 251.817221 
L 324.2496 257.846953 
L 343.296 263.428558 
L 343.296 256.298875 
L 324.2496 250.61224 
L 305.2032 244.454896 
L 286.1568 237.72487 
L 270.280507 231.552 
L 267.1104 230.780743 
L 248.064 225.970664 
L 229.0176 221.037355 
L 209.9712 215.96235 
L 190.9248 210.723295 
L 171.8784 205.292877 
L 152.832 199.63736 
L 133.7856 193.714585 
L 133.248548 193.536 
L 114.7392 185.271645 
L 95.6928 176.467047 
L 76.6464 167.304768 
L 57.6 157.70108 
L 57.6 162.876923 
L 76.6464 172.621189 
L 95.6928 181.929497 
L 114.7392 190.884542 
L 120.677564 193.536 
L 133.7856 197.894796 
L 152.832 203.883345 
L 171.8784 209.608484 
L 190.9248 215.111764 
L 209.9712 220.426435 
L 229.0176 225.579418 
L 248.064 230.592744 
L 251.851792 231.552 
z
" clip-path="url(#p2947db394d)" style="fill: #e5e5e5"/>
   </g>
   <g id="PathCollection_26">
    <path d="M 76.6464 287.239401 
L 95.6928 286.336683 
L 114.7392 285.404965 
L 133.7856 284.442824 
L 152.832 283.448746 
L 171.8784 282.421115 
L 190.9248 281.358203 
L 209.9712 280.25816 
L 229.0176 279.119007 
L 248.064 277.93862 
L 267.1104 276.714719 
L 286.1568 275.444852 
L 305.2032 274.126382 
L 324.2496 272.756461 
L 343.296 271.332021 
L 343.296 269.568 
L 343.296 263.428558 
L 324.2496 257.846953 
L 305.2032 251.817221 
L 286.1568 245.242284 
L 267.1104 237.994837 
L 251.851792 231.552 
L 248.064 230.592744 
L 229.0176 225.579418 
L 209.9712 220.426435 
L 190.9248 215.111764 
L 171.8784 209.608484 
L 152.832 203.883345 
L 133.7856 197.894796 
L 120.677564 193.536 
L 114.7392 190.884542 
L 95.6928 181.929497 
L 76.6464 172.621189 
L 57.6 162.876923 
L 57.6 168.052766 
L 76.6464 177.937609 
L 95.6928 187.391947 
L 108.657635 193.536 
L 114.7392 195.709267 
L 133.7856 202.075006 
L 152.832 208.129331 
L 171.8784 213.924091 
L 190.9248 219.500233 
L 209.9712 224.89052 
L 229.0176 230.121481 
L 234.434419 231.552 
L 248.064 237.842442 
L 267.1104 245.70123 
L 286.1568 252.759698 
L 305.2032 259.179547 
L 324.2496 265.081665 
L 339.810698 269.568 
L 324.2496 270.788412 
L 305.2032 272.235744 
L 286.1568 273.62872 
L 267.1104 274.970344 
L 248.064 276.263406 
L 229.0176 277.510495 
L 209.9712 278.71402 
L 190.9248 279.876224 
L 171.8784 280.9992 
L 152.832 282.084901 
L 133.7856 283.135152 
L 114.7392 284.151662 
L 95.6928 285.136031 
L 76.6464 286.08976 
L 57.6 287.014257 
L 57.6 288.11445 
z
" clip-path="url(#p2947db394d)" style="fill: #dddddd"/>
   </g>
   <g id="PathCollection_27">
    <path d="M 76.6464 286.08976 
L 95.6928 285.136031 
L 114.7392 284.151662 
L 133.7856 283.135152 
L 152.832 282.084901 
L 171.8784 280.9992 
L 190.9248 279.876224 
L 209.9712 278.71402 
L 229.0176 277.510495 
L 248.064 276.263406 
L 267.1104 274.970344 
L 286.1568 273.62872 
L 305.2032 272.235744 
L 324.2496 270.788412 
L 339.810698 269.568 
L 324.2496 265.081665 
L 305.2032 259.179547 
L 286.1568 252.759698 
L 267.1104 245.70123 
L 248.064 237.842442 
L 234.434419 231.552 
L 229.0176 230.121481 
L 209.9712 224.89052 
L 190.9248 219.500233 
L 171.8784 213.924091 
L 152.832 208.129331 
L 133.7856 202.075006 
L 114.7392 195.709267 
L 108.657635 193.536 
L 95.6928 187.391947 
L 76.6464 177.937609 
L 57.6 168.052766 
L 57.6 173.228609 
L 76.6464 183.25403 
L 95.6928 192.854397 
L 97.13108 193.536 
L 114.7392 199.828318 
L 133.7856 206.255217 
L 152.832 212.375316 
L 171.8784 218.239699 
L 190.9248 223.888702 
L 209.9712 229.354606 
L 217.934722 231.552 
L 229.0176 237.185526 
L 248.064 245.780288 
L 267.1104 253.407623 
L 286.1568 260.277112 
L 305.2032 266.541872 
L 315.101363 269.568 
L 305.2032 270.345107 
L 286.1568 271.812587 
L 267.1104 273.225969 
L 248.064 274.588192 
L 229.0176 275.901983 
L 209.9712 277.169879 
L 190.9248 278.394245 
L 171.8784 279.577285 
L 152.832 280.721056 
L 133.7856 281.827481 
L 114.7392 282.89836 
L 95.6928 283.935378 
L 76.6464 284.940118 
L 57.6 285.914063 
L 57.6 287.014257 
z
" clip-path="url(#p2947db394d)" style="fill: #d4d4d4"/>
   </g>
   <g id="PathCollection_28">
    <path d="M 76.6464 284.940118 
L 95.6928 283.935378 
L 114.7392 282.89836 
L 133.7856 281.827481 
L 152.832 280.721056 
L 171.8784 279.577285 
L 190.9248 278.394245 
L 209.9712 277.169879 
L 229.0176 275.901983 
L 248.064 274.588192 
L 267.1104 273.225969 
L 286.1568 271.812587 
L 305.2032 270.345107 
L 315.101363 269.568 
L 305.2032 266.541872 
L 286.1568 260.277112 
L 267.1104 253.407623 
L 248.064 245.780288 
L 229.0176 237.185526 
L 217.934722 231.552 
L 209.9712 229.354606 
L 190.9248 223.888702 
L 171.8784 218.239699 
L 152.832 212.375316 
L 133.7856 206.255217 
L 114.7392 199.828318 
L 97.13108 193.536 
L 95.6928 192.854397 
L 76.6464 183.25403 
L 57.6 173.228609 
L 57.6 178.404453 
L 76.6464 188.57045 
L 86.479011 193.536 
L 95.6928 197.092453 
L 114.7392 203.947369 
L 133.7856 210.435428 
L 152.832 216.621302 
L 171.8784 222.555306 
L 190.9248 228.277172 
L 202.259032 231.552 
L 209.9712 235.908554 
L 229.0176 245.409041 
L 248.064 253.718133 
L 267.1104 261.114016 
L 286.1568 267.794525 
L 291.604023 269.568 
L 286.1568 269.996454 
L 267.1104 271.481595 
L 248.064 272.912978 
L 229.0176 274.293471 
L 209.9712 275.625739 
L 190.9248 276.912267 
L 171.8784 278.15537 
L 152.832 279.35721 
L 133.7856 280.519809 
L 114.7392 281.645057 
L 95.6928 282.734726 
L 76.6464 283.790477 
L 57.6 284.813869 
L 57.6 285.914063 
z
" clip-path="url(#p2947db394d)" style="fill: #cbcbcb"/>
   </g>
   <g id="PathCollection_29">
    <path d="M 76.6464 283.790477 
L 95.6928 282.734726 
L 114.7392 281.645057 
L 133.7856 280.519809 
L 152.832 279.35721 
L 171.8784 278.15537 
L 190.9248 276.912267 
L 209.9712 275.625739 
L 229.0176 274.293471 
L 248.064 272.912978 
L 267.1104 271.481595 
L 286.1568 269.996454 
L 291.604023 269.568 
L 286.1568 267.794525 
L 267.1104 261.114016 
L 248.064 253.718133 
L 229.0176 245.409041 
L 209.9712 235.908554 
L 202.259032 231.552 
L 190.9248 228.277172 
L 171.8784 222.555306 
L 152.832 216.621302 
L 133.7856 210.435428 
L 114.7392 203.947369 
L 95.6928 197.092453 
L 86.479011 193.536 
L 76.6464 188.57045 
L 57.6 178.404453 
L 57.6 183.580296 
L 76.014572 193.536 
L 76.6464 193.800969 
L 95.6928 201.155948 
L 114.7392 208.06642 
L 133.7856 214.615638 
L 152.832 220.867288 
L 171.8784 226.870913 
L 187.313681 231.552 
L 190.9248 233.843764 
L 209.9712 244.488472 
L 229.0176 253.632555 
L 248.064 261.655978 
L 267.1104 268.82041 
L 269.25613 269.568 
L 267.1104 269.73722 
L 248.064 271.237764 
L 229.0176 272.684959 
L 209.9712 274.081599 
L 190.9248 275.430288 
L 171.8784 276.733455 
L 152.832 277.993365 
L 133.7856 279.212137 
L 114.7392 280.391755 
L 95.6928 281.534073 
L 76.6464 282.640835 
L 57.6 283.713675 
L 57.6 284.813869 
z
" clip-path="url(#p2947db394d)" style="fill: #c2c2c2"/>
   </g>
   <g id="PathCollection_30">
    <path d="M 76.6464 282.640835 
L 95.6928 281.534073 
L 114.7392 280.391755 
L 133.7856 279.212137 
L 152.832 277.993365 
L 171.8784 276.733455 
L 190.9248 275.430288 
L 209.9712 274.081599 
L 229.0176 272.684959 
L 248.064 271.237764 
L 267.1104 269.73722 
L 269.25613 269.568 
L 267.1104 268.82041 
L 248.064 261.655978 
L 229.0176 253.632555 
L 209.9712 244.488472 
L 190.9248 233.843764 
L 187.313681 231.552 
L 171.8784 226.870913 
L 152.832 220.867288 
L 133.7856 214.615638 
L 114.7392 208.06642 
L 95.6928 201.155948 
L 76.6464 193.800969 
L 76.014572 193.536 
L 57.6 183.580296 
L 57.6 188.756139 
L 66.441072 193.536 
L 76.6464 197.815802 
L 95.6928 205.219442 
L 114.7392 212.185471 
L 133.7856 218.795849 
L 152.832 225.113273 
L 171.8784 231.186521 
L 173.083521 231.552 
L 190.9248 242.874803 
L 209.9712 253.068391 
L 229.0176 261.85607 
L 247.998158 269.568 
L 229.0176 271.076446 
L 209.9712 272.537458 
L 190.9248 273.94831 
L 171.8784 275.31154 
L 152.832 276.62952 
L 133.7856 277.904466 
L 114.7392 279.138452 
L 95.6928 280.333421 
L 76.6464 281.491194 
L 57.6 282.613482 
L 57.6 283.713675 
z
" clip-path="url(#p2947db394d)" style="fill: #b9b9b9"/>
   </g>
   <g id="PathCollection_31">
    <path d="M 76.6464 281.491194 
L 95.6928 280.333421 
L 114.7392 279.138452 
L 133.7856 277.904466 
L 152.832 276.62952 
L 171.8784 275.31154 
L 190.9248 273.94831 
L 209.9712 272.537458 
L 229.0176 271.076446 
L 247.998158 269.568 
L 229.0176 261.85607 
L 209.9712 253.068391 
L 190.9248 242.874803 
L 173.083521 231.552 
L 171.8784 231.186521 
L 152.832 225.113273 
L 133.7856 218.795849 
L 114.7392 212.185471 
L 95.6928 205.219442 
L 76.6464 197.815802 
L 66.441072 193.536 
L 57.6 188.756139 
L 57.6 193.536 
L 57.6 193.840094 
L 76.6464 201.830634 
L 95.6928 209.282937 
L 114.7392 216.304522 
L 133.7856 222.97606 
L 152.832 229.359259 
L 159.702018 231.552 
L 171.8784 240.350972 
L 190.9248 251.905842 
L 209.9712 261.64831 
L 227.814996 269.568 
L 209.9712 270.993318 
L 190.9248 272.466331 
L 171.8784 273.889625 
L 152.832 275.265674 
L 133.7856 276.596794 
L 114.7392 277.88515 
L 95.6928 279.132768 
L 76.6464 280.341553 
L 57.6 281.513288 
L 57.6 282.613482 
z
" clip-path="url(#p2947db394d)" style="fill: #adadad"/>
   </g>
   <g id="PathCollection_32">
    <path d="M 76.6464 280.341553 
L 95.6928 279.132768 
L 114.7392 277.88515 
L 133.7856 276.596794 
L 152.832 275.265674 
L 171.8784 273.889625 
L 190.9248 272.466331 
L 209.9712 270.993318 
L 227.814996 269.568 
L 209.9712 261.64831 
L 190.9248 251.905842 
L 171.8784 240.350972 
L 159.702018 231.552 
L 152.832 229.359259 
L 133.7856 222.97606 
L 114.7392 216.304522 
L 95.6928 209.282937 
L 76.6464 201.830634 
L 57.6 193.840094 
L 57.6 197.81488 
L 76.6464 205.845467 
L 95.6928 213.346432 
L 114.7392 220.423573 
L 133.7856 227.15627 
L 146.832296 231.552 
L 152.832 236.573134 
L 171.8784 249.964055 
L 190.9248 260.936881 
L 208.551935 269.568 
L 190.9248 270.984352 
L 171.8784 272.467709 
L 152.832 273.901829 
L 133.7856 275.289123 
L 114.7392 276.631847 
L 95.6928 277.932116 
L 76.6464 279.191911 
L 57.6 280.413094 
L 57.6 281.513288 
z
" clip-path="url(#p2947db394d)" style="fill: #9f9f9f"/>
   </g>
   <g id="PathCollection_33">
    <path d="M 76.6464 279.191911 
L 95.6928 277.932116 
L 114.7392 276.631847 
L 133.7856 275.289123 
L 152.832 273.901829 
L 171.8784 272.467709 
L 190.9248 270.984352 
L 208.551935 269.568 
L 190.9248 260.936881 
L 171.8784 249.964055 
L 152.832 236.573134 
L 146.832296 231.552 
L 133.7856 227.15627 
L 114.7392 220.423573 
L 95.6928 213.346432 
L 76.6464 205.845467 
L 57.6 197.81488 
L 57.6 201.789666 
L 76.6464 209.8603 
L 95.6928 217.409926 
L 114.7392 224.542624 
L 133.7856 231.336481 
L 134.425268 231.552 
L 152.832 246.956537 
L 171.8784 259.577137 
L 190.146428 269.568 
L 171.8784 271.045794 
L 152.832 272.537984 
L 133.7856 273.981451 
L 114.7392 275.378545 
L 95.6928 276.731463 
L 76.6464 278.04227 
L 57.6 279.312901 
L 57.6 280.413094 
z
" clip-path="url(#p2947db394d)" style="fill: #939393"/>
   </g>
   <g id="PathCollection_34">
    <path d="M 76.6464 278.04227 
L 95.6928 276.731463 
L 114.7392 275.378545 
L 133.7856 273.981451 
L 152.832 272.537984 
L 171.8784 271.045794 
L 190.146428 269.568 
L 171.8784 259.577137 
L 152.832 246.956537 
L 134.425268 231.552 
L 133.7856 231.336481 
L 114.7392 224.542624 
L 95.6928 217.409926 
L 76.6464 209.8603 
L 57.6 201.789666 
L 57.6 205.764452 
L 76.6464 213.875132 
L 95.6928 221.473421 
L 114.7392 228.661675 
L 122.83839 231.552 
L 133.7856 242.400844 
L 152.832 257.33994 
L 171.8784 269.19022 
L 172.569161 269.568 
L 171.8784 269.623879 
L 152.832 271.174138 
L 133.7856 272.67378 
L 114.7392 274.125242 
L 95.6928 275.530811 
L 76.6464 276.892629 
L 57.6 278.212707 
L 57.6 279.312901 
z
" clip-path="url(#p2947db394d)" style="fill: #878787"/>
   </g>
   <g id="PathCollection_35">
    <path d="M 76.6464 276.892629 
L 95.6928 275.530811 
L 114.7392 274.125242 
L 133.7856 272.67378 
L 152.832 271.174138 
L 171.8784 269.623879 
L 172.569161 269.568 
L 171.8784 269.19022 
L 152.832 257.33994 
L 133.7856 242.400844 
L 122.83839 231.552 
L 114.7392 228.661675 
L 95.6928 221.473421 
L 76.6464 213.875132 
L 57.6 205.764452 
L 57.6 209.739238 
L 76.6464 217.889965 
L 95.6928 225.536916 
L 111.544734 231.552 
L 114.7392 235.416487 
L 133.7856 253.839426 
L 152.832 267.723342 
L 155.804425 269.568 
L 152.832 269.810293 
L 133.7856 271.366108 
L 114.7392 272.87194 
L 95.6928 274.330158 
L 76.6464 275.742987 
L 57.6 277.112513 
L 57.6 278.212707 
z
" clip-path="url(#p2947db394d)" style="fill: #797979"/>
   </g>
   <g id="PathCollection_36">
    <path d="M 76.6464 275.742987 
L 95.6928 274.330158 
L 114.7392 272.87194 
L 133.7856 271.366108 
L 152.832 269.810293 
L 155.804425 269.568 
L 152.832 267.723342 
L 133.7856 253.839426 
L 114.7392 235.416487 
L 111.544734 231.552 
L 95.6928 225.536916 
L 76.6464 217.889965 
L 57.6 209.739238 
L 57.6 213.714023 
L 76.6464 221.904797 
L 95.6928 229.60041 
L 100.835948 231.552 
L 114.7392 248.371377 
L 133.7856 265.278009 
L 139.751295 269.568 
L 133.7856 270.058437 
L 114.7392 271.618637 
L 95.6928 273.129506 
L 76.6464 274.593346 
L 57.6 276.01232 
L 57.6 277.112513 
z
" clip-path="url(#p2947db394d)" style="fill: #6c6c6c"/>
   </g>
   <g id="PathCollection_37">
    <path d="M 76.6464 274.593346 
L 95.6928 273.129506 
L 114.7392 271.618637 
L 133.7856 270.058437 
L 139.751295 269.568 
L 133.7856 265.278009 
L 114.7392 248.371377 
L 100.835948 231.552 
L 95.6928 229.60041 
L 76.6464 221.904797 
L 57.6 213.714023 
L 57.6 217.688809 
L 76.6464 225.91963 
L 90.544132 231.552 
L 95.6928 239.499561 
L 114.7392 261.326268 
L 124.347221 269.568 
L 114.7392 270.365335 
L 95.6928 271.928853 
L 76.6464 273.443705 
L 57.6 274.912126 
L 57.6 276.01232 
z
" clip-path="url(#p2947db394d)" style="fill: #5e5e5e"/>
   </g>
   <g id="PathCollection_38">
    <path d="M 76.6464 273.443705 
L 95.6928 271.928853 
L 114.7392 270.365335 
L 124.347221 269.568 
L 114.7392 261.326268 
L 95.6928 239.499561 
L 90.544132 231.552 
L 76.6464 225.91963 
L 57.6 217.688809 
L 57.6 221.663595 
L 76.6464 229.934462 
L 80.637634 231.552 
L 95.6928 254.791382 
L 109.529655 269.568 
L 95.6928 270.728201 
L 76.6464 272.294063 
L 57.6 273.811932 
L 57.6 274.912126 
z
" clip-path="url(#p2947db394d)" style="fill: #505050"/>
   </g>
   <g id="PathCollection_39">
    <path d="M 76.6464 272.294063 
L 95.6928 270.728201 
L 109.529655 269.568 
L 95.6928 254.791382 
L 80.637634 231.552 
L 76.6464 229.934462 
L 57.6 221.663595 
L 57.6 225.638381 
L 71.191545 231.552 
L 76.6464 243.084424 
L 95.236048 269.568 
L 76.6464 271.144422 
L 57.6 272.711739 
L 57.6 273.811932 
z
" clip-path="url(#p2947db394d)" style="fill: #444444"/>
   </g>
   <g id="PathCollection_40">
    <path d="M 76.6464 271.144422 
L 95.236048 269.568 
L 76.6464 243.084424 
L 71.191545 231.552 
L 57.6 225.638381 
L 57.6 229.613167 
L 62.05611 231.552 
L 76.6464 262.398172 
L 81.679126 269.568 
L 76.6464 269.994781 
L 57.6 271.611545 
L 57.6 272.711739 
z
" clip-path="url(#p2947db394d)" style="fill: #383838"/>
   </g>
   <g id="PathCollection_41">
    <path d="M 76.6464 269.994781 
L 81.679126 269.568 
L 76.6464 262.398172 
L 62.05611 231.552 
L 57.6 229.613167 
L 57.6 231.552 
L 57.6 245.76901 
L 68.58845 269.568 
L 57.6 270.511351 
L 57.6 271.611545 
z
" clip-path="url(#p2947db394d)" style="fill: #2c2c2c"/>
   </g>
   <g id="PathCollection_42">
    <path d="M 68.58845 269.568 
L 57.6 245.76901 
L 57.6 269.568 
L 57.6 270.511351 
z
" clip-path="url(#p2947db394d)" style="fill: #202020"/>
   </g>
   <g id="matplotlib.axis_1">
    <g id="xtick_1">
     <g id="line2d_1">
      <defs>
       <path id="m7db52e66c9" d="M 0 0 
L 0 3.5 
" style="stroke: #000000; stroke-width: 0.8"/>
      </defs>
      <g>
       <use xlink:href="#m7db52e66c9" x="88.07424" y="307.584" style="stroke: #000000; stroke-width: 0.8"/>
      </g>
     </g>
     <g id="text_1">
      <!-- 0.5 -->
      <g transform="translate(80.122678 322.182437)scale(0.1 -0.1)">
       <defs>
        <path id="DejaVuSans-30" d="M 2034 4250 
Q 1547 4250 1301 3770 
Q 1056 3291 1056 2328 
Q 1056 1369 1301 889 
Q 1547 409 2034 409 
Q 2525 409 2770 889 
Q 3016 1369 3016 2328 
Q 3016 3291 2770 3770 
Q 2525 4250 2034 4250 
z
M 2034 4750 
Q 2819 4750 3233 4129 
Q 3647 3509 3647 2328 
Q 3647 1150 3233 529 
Q 2819 -91 2034 -91 
Q 1250 -91 836 529 
Q 422 1150 422 2328 
Q 422 3509 836 4129 
Q 1250 4750 2034 4750 
z
" transform="scale(0.015625)"/>
        <path id="DejaVuSans-2e" d="M 684 794 
L 1344 794 
L 1344 0 
L 684 0 
L 684 794 
z
" transform="scale(0.015625)"/>
        <path id="DejaVuSans-35" d="M 691 4666 
L 3169 4666 
L 3169 4134 
L 1269 4134 
L 1269 2991 
Q 1406 3038 1543 3061 
Q 1681 3084 1819 3084 
Q 2600 3084 3056 2656 
Q 3513 2228 3513 1497 
Q 3513 744 3044 326 
Q 2575 -91 1722 -91 
Q 1428 -91 1123 -41 
Q 819 9 494 109 
L 494 744 
Q 775 591 1075 516 
Q 1375 441 1709 441 
Q 2250 441 2565 725 
Q 2881 1009 2881 1497 
Q 2881 1984 2565 2268 
Q 2250 2553 1709 2553 
Q 1456 2553 1204 2497 
Q 953 2441 691 2322 
L 691 4666 
z
" transform="scale(0.015625)"/>
       </defs>
       <use xlink:href="#DejaVuSans-30"/>
       <use xlink:href="#DejaVuSans-2e" x="63.623047"/>
       <use xlink:href="#DejaVuSans-35" x="95.410156"/>
      </g>
     </g>
    </g>
    <g id="xtick_2">
     <g id="line2d_2">
      <g>
       <use xlink:href="#m7db52e66c9" x="126.16704" y="307.584" style="stroke: #000000; stroke-width: 0.8"/>
      </g>
     </g>
     <g id="text_2">
      <!-- 1.0 -->
      <g transform="translate(118.215478 322.182437)scale(0.1 -0.1)">
       <defs>
        <path id="DejaVuSans-31" d="M 794 531 
L 1825 531 
L 1825 4091 
L 703 3866 
L 703 4441 
L 1819 4666 
L 2450 4666 
L 2450 531 
L 3481 531 
L 3481 0 
L 794 0 
L 794 531 
z
" transform="scale(0.015625)"/>
       </defs>
       <use xlink:href="#DejaVuSans-31"/>
       <use xlink:href="#DejaVuSans-2e" x="63.623047"/>
       <use xlink:href="#DejaVuSans-30" x="95.410156"/>
      </g>
     </g>
    </g>
    <g id="xtick_3">
     <g id="line2d_3">
      <g>
       <use xlink:href="#m7db52e66c9" x="164.25984" y="307.584" style="stroke: #000000; stroke-width: 0.8"/>
      </g>
     </g>
     <g id="text_3">
      <!-- 1.5 -->
      <g transform="translate(156.308278 322.182437)scale(0.1 -0.1)">
       <use xlink:href="#DejaVuSans-31"/>
       <use xlink:href="#DejaVuSans-2e" x="63.623047"/>
       <use xlink:href="#DejaVuSans-35" x="95.410156"/>
      </g>
     </g>
    </g>
    <g id="xtick_4">
     <g id="line2d_4">
      <g>
       <use xlink:href="#m7db52e66c9" x="202.35264" y="307.584" style="stroke: #000000; stroke-width: 0.8"/>
      </g>
     </g>
     <g id="text_4">
      <!-- 2.0 -->
      <g transform="translate(194.401078 322.182437)scale(0.1 -0.1)">
       <defs>
        <path id="DejaVuSans-32" d="M 1228 531 
L 3431 531 
L 3431 0 
L 469 0 
L 469 531 
Q 828 903 1448 1529 
Q 2069 2156 2228 2338 
Q 2531 2678 2651 2914 
Q 2772 3150 2772 3378 
Q 2772 3750 2511 3984 
Q 2250 4219 1831 4219 
Q 1534 4219 1204 4116 
Q 875 4013 500 3803 
L 500 4441 
Q 881 4594 1212 4672 
Q 1544 4750 1819 4750 
Q 2544 4750 2975 4387 
Q 3406 4025 3406 3419 
Q 3406 3131 3298 2873 
Q 3191 2616 2906 2266 
Q 2828 2175 2409 1742 
Q 1991 1309 1228 531 
z
" transform="scale(0.015625)"/>
       </defs>
       <use xlink:href="#DejaVuSans-32"/>
       <use xlink:href="#DejaVuSans-2e" x="63.623047"/>
       <use xlink:href="#DejaVuSans-30" x="95.410156"/>
      </g>
     </g>
    </g>
    <g id="xtick_5">
     <g id="line2d_5">
      <g>
       <use xlink:href="#m7db52e66c9" x="240.44544" y="307.584" style="stroke: #000000; stroke-width: 0.8"/>
      </g>
     </g>
     <g id="text_5">
      <!-- 2.5 -->
      <g transform="translate(232.493878 322.182437)scale(0.1 -0.1)">
       <use xlink:href="#DejaVuSans-32"/>
       <use xlink:href="#DejaVuSans-2e" x="63.623047"/>
       <use xlink:href="#DejaVuSans-35" x="95.410156"/>
      </g>
     </g>
    </g>
    <g id="xtick_6">
     <g id="line2d_6">
      <g>
       <use xlink:href="#m7db52e66c9" x="278.53824" y="307.584" style="stroke: #000000; stroke-width: 0.8"/>
      </g>
     </g>
     <g id="text_6">
      <!-- 3.0 -->
      <g transform="translate(270.586678 322.182437)scale(0.1 -0.1)">
       <defs>
        <path id="DejaVuSans-33" d="M 2597 2516 
Q 3050 2419 3304 2112 
Q 3559 1806 3559 1356 
Q 3559 666 3084 287 
Q 2609 -91 1734 -91 
Q 1441 -91 1130 -33 
Q 819 25 488 141 
L 488 750 
Q 750 597 1062 519 
Q 1375 441 1716 441 
Q 2309 441 2620 675 
Q 2931 909 2931 1356 
Q 2931 1769 2642 2001 
Q 2353 2234 1838 2234 
L 1294 2234 
L 1294 2753 
L 1863 2753 
Q 2328 2753 2575 2939 
Q 2822 3125 2822 3475 
Q 2822 3834 2567 4026 
Q 2313 4219 1838 4219 
Q 1578 4219 1281 4162 
Q 984 4106 628 3988 
L 628 4550 
Q 988 4650 1302 4700 
Q 1616 4750 1894 4750 
Q 2613 4750 3031 4423 
Q 3450 4097 3450 3541 
Q 3450 3153 3228 2886 
Q 3006 2619 2597 2516 
z
" transform="scale(0.015625)"/>
       </defs>
       <use xlink:href="#DejaVuSans-33"/>
       <use xlink:href="#DejaVuSans-2e" x="63.623047"/>
       <use xlink:href="#DejaVuSans-30" x="95.410156"/>
      </g>
     </g>
    </g>
    <g id="xtick_7">
     <g id="line2d_7">
      <g>
       <use xlink:href="#m7db52e66c9" x="316.63104" y="307.584" style="stroke: #000000; stroke-width: 0.8"/>
      </g>
     </g>
     <g id="text_7">
      <!-- 3.5 -->
      <g transform="translate(308.679478 322.182437)scale(0.1 -0.1)">
       <use xlink:href="#DejaVuSans-33"/>
       <use xlink:href="#DejaVuSans-2e" x="63.623047"/>
       <use xlink:href="#DejaVuSans-35" x="95.410156"/>
      </g>
     </g>
    </g>
    <g id="text_8">
     <!-- storage time -->
     <g transform="translate(168.568312 335.860562)scale(0.1 -0.1)">
      <defs>
       <path id="DejaVuSans-73" d="M 2834 3397 
L 2834 2853 
Q 2591 2978 2328 3040 
Q 2066 3103 1784 3103 
Q 1356 3103 1142 2972 
Q 928 2841 928 2578 
Q 928 2378 1081 2264 
Q 1234 2150 1697 2047 
L 1894 2003 
Q 2506 1872 2764 1633 
Q 3022 1394 3022 966 
Q 3022 478 2636 193 
Q 2250 -91 1575 -91 
Q 1294 -91 989 -36 
Q 684 19 347 128 
L 347 722 
Q 666 556 975 473 
Q 1284 391 1588 391 
Q 1994 391 2212 530 
Q 2431 669 2431 922 
Q 2431 1156 2273 1281 
Q 2116 1406 1581 1522 
L 1381 1569 
Q 847 1681 609 1914 
Q 372 2147 372 2553 
Q 372 3047 722 3315 
Q 1072 3584 1716 3584 
Q 2034 3584 2315 3537 
Q 2597 3491 2834 3397 
z
" transform="scale(0.015625)"/>
       <path id="DejaVuSans-74" d="M 1172 4494 
L 1172 3500 
L 2356 3500 
L 2356 3053 
L 1172 3053 
L 1172 1153 
Q 1172 725 1289 603 
Q 1406 481 1766 481 
L 2356 481 
L 2356 0 
L 1766 0 
Q 1100 0 847 248 
Q 594 497 594 1153 
L 594 3053 
L 172 3053 
L 172 3500 
L 594 3500 
L 594 4494 
L 1172 4494 
z
" transform="scale(0.015625)"/>
       <path id="DejaVuSans-6f" d="M 1959 3097 
Q 1497 3097 1228 2736 
Q 959 2375 959 1747 
Q 959 1119 1226 758 
Q 1494 397 1959 397 
Q 2419 397 2687 759 
Q 2956 1122 2956 1747 
Q 2956 2369 2687 2733 
Q 2419 3097 1959 3097 
z
M 1959 3584 
Q 2709 3584 3137 3096 
Q 3566 2609 3566 1747 
Q 3566 888 3137 398 
Q 2709 -91 1959 -91 
Q 1206 -91 779 398 
Q 353 888 353 1747 
Q 353 2609 779 3096 
Q 1206 3584 1959 3584 
z
" transform="scale(0.015625)"/>
       <path id="DejaVuSans-72" d="M 2631 2963 
Q 2534 3019 2420 3045 
Q 2306 3072 2169 3072 
Q 1681 3072 1420 2755 
Q 1159 2438 1159 1844 
L 1159 0 
L 581 0 
L 581 3500 
L 1159 3500 
L 1159 2956 
Q 1341 3275 1631 3429 
Q 1922 3584 2338 3584 
Q 2397 3584 2469 3576 
Q 2541 3569 2628 3553 
L 2631 2963 
z
" transform="scale(0.015625)"/>
       <path id="DejaVuSans-61" d="M 2194 1759 
Q 1497 1759 1228 1600 
Q 959 1441 959 1056 
Q 959 750 1161 570 
Q 1363 391 1709 391 
Q 2188 391 2477 730 
Q 2766 1069 2766 1631 
L 2766 1759 
L 2194 1759 
z
M 3341 1997 
L 3341 0 
L 2766 0 
L 2766 531 
Q 2569 213 2275 61 
Q 1981 -91 1556 -91 
Q 1019 -91 701 211 
Q 384 513 384 1019 
Q 384 1609 779 1909 
Q 1175 2209 1959 2209 
L 2766 2209 
L 2766 2266 
Q 2766 2663 2505 2880 
Q 2244 3097 1772 3097 
Q 1472 3097 1187 3025 
Q 903 2953 641 2809 
L 641 3341 
Q 956 3463 1253 3523 
Q 1550 3584 1831 3584 
Q 2591 3584 2966 3190 
Q 3341 2797 3341 1997 
z
" transform="scale(0.015625)"/>
       <path id="DejaVuSans-67" d="M 2906 1791 
Q 2906 2416 2648 2759 
Q 2391 3103 1925 3103 
Q 1463 3103 1205 2759 
Q 947 2416 947 1791 
Q 947 1169 1205 825 
Q 1463 481 1925 481 
Q 2391 481 2648 825 
Q 2906 1169 2906 1791 
z
M 3481 434 
Q 3481 -459 3084 -895 
Q 2688 -1331 1869 -1331 
Q 1566 -1331 1297 -1286 
Q 1028 -1241 775 -1147 
L 775 -588 
Q 1028 -725 1275 -790 
Q 1522 -856 1778 -856 
Q 2344 -856 2625 -561 
Q 2906 -266 2906 331 
L 2906 616 
Q 2728 306 2450 153 
Q 2172 0 1784 0 
Q 1141 0 747 490 
Q 353 981 353 1791 
Q 353 2603 747 3093 
Q 1141 3584 1784 3584 
Q 2172 3584 2450 3431 
Q 2728 3278 2906 2969 
L 2906 3500 
L 3481 3500 
L 3481 434 
z
" transform="scale(0.015625)"/>
       <path id="DejaVuSans-65" d="M 3597 1894 
L 3597 1613 
L 953 1613 
Q 991 1019 1311 708 
Q 1631 397 2203 397 
Q 2534 397 2845 478 
Q 3156 559 3463 722 
L 3463 178 
Q 3153 47 2828 -22 
Q 2503 -91 2169 -91 
Q 1331 -91 842 396 
Q 353 884 353 1716 
Q 353 2575 817 3079 
Q 1281 3584 2069 3584 
Q 2775 3584 3186 3129 
Q 3597 2675 3597 1894 
z
M 3022 2063 
Q 3016 2534 2758 2815 
Q 2500 3097 2075 3097 
Q 1594 3097 1305 2825 
Q 1016 2553 972 2059 
L 3022 2063 
z
" transform="scale(0.015625)"/>
       <path id="DejaVuSans-20" transform="scale(0.015625)"/>
       <path id="DejaVuSans-69" d="M 603 3500 
L 1178 3500 
L 1178 0 
L 603 0 
L 603 3500 
z
M 603 4863 
L 1178 4863 
L 1178 4134 
L 603 4134 
L 603 4863 
z
" transform="scale(0.015625)"/>
       <path id="DejaVuSans-6d" d="M 3328 2828 
Q 3544 3216 3844 3400 
Q 4144 3584 4550 3584 
Q 5097 3584 5394 3201 
Q 5691 2819 5691 2113 
L 5691 0 
L 5113 0 
L 5113 2094 
Q 5113 2597 4934 2840 
Q 4756 3084 4391 3084 
Q 3944 3084 3684 2787 
Q 3425 2491 3425 1978 
L 3425 0 
L 2847 0 
L 2847 2094 
Q 2847 2600 2669 2842 
Q 2491 3084 2119 3084 
Q 1678 3084 1418 2786 
Q 1159 2488 1159 1978 
L 1159 0 
L 581 0 
L 581 3500 
L 1159 3500 
L 1159 2956 
Q 1356 3278 1631 3431 
Q 1906 3584 2284 3584 
Q 2666 3584 2933 3390 
Q 3200 3197 3328 2828 
z
" transform="scale(0.015625)"/>
      </defs>
      <use xlink:href="#DejaVuSans-73"/>
      <use xlink:href="#DejaVuSans-74" x="52.099609"/>
      <use xlink:href="#DejaVuSans-6f" x="91.308594"/>
      <use xlink:href="#DejaVuSans-72" x="152.490234"/>
      <use xlink:href="#DejaVuSans-61" x="193.603516"/>
      <use xlink:href="#DejaVuSans-67" x="254.882812"/>
      <use xlink:href="#DejaVuSans-65" x="318.359375"/>
      <use xlink:href="#DejaVuSans-20" x="379.882812"/>
      <use xlink:href="#DejaVuSans-74" x="411.669922"/>
      <use xlink:href="#DejaVuSans-69" x="450.878906"/>
      <use xlink:href="#DejaVuSans-6d" x="478.662109"/>
      <use xlink:href="#DejaVuSans-65" x="576.074219"/>
     </g>
    </g>
   </g>
   <g id="matplotlib.axis_2">
    <g id="ytick_1">
     <g id="line2d_8">
      <defs>
       <path id="ma6d9980dd0" d="M 0 0 
L -3.5 0 
" style="stroke: #000000; stroke-width: 0.8"/>
      </defs>
      <g>
       <use xlink:href="#ma6d9980dd0" x="57.6" y="277.1712" style="stroke: #000000; stroke-width: 0.8"/>
      </g>
     </g>
     <g id="text_9">
      <!-- 0.5 -->
      <g transform="translate(34.696875 280.970419)scale(0.1 -0.1)">
       <use xlink:href="#DejaVuSans-30"/>
       <use xlink:href="#DejaVuSans-2e" x="63.623047"/>
       <use xlink:href="#DejaVuSans-35" x="95.410156"/>
      </g>
     </g>
    </g>
    <g id="ytick_2">
     <g id="line2d_9">
      <g>
       <use xlink:href="#ma6d9980dd0" x="57.6" y="239.1552" style="stroke: #000000; stroke-width: 0.8"/>
      </g>
     </g>
     <g id="text_10">
      <!-- 1.0 -->
      <g transform="translate(34.696875 242.954419)scale(0.1 -0.1)">
       <use xlink:href="#DejaVuSans-31"/>
       <use xlink:href="#DejaVuSans-2e" x="63.623047"/>
       <use xlink:href="#DejaVuSans-30" x="95.410156"/>
      </g>
     </g>
    </g>
    <g id="ytick_3">
     <g id="line2d_10">
      <g>
       <use xlink:href="#ma6d9980dd0" x="57.6" y="201.1392" style="stroke: #000000; stroke-width: 0.8"/>
      </g>
     </g>
     <g id="text_11">
      <!-- 1.5 -->
      <g transform="translate(34.696875 204.938419)scale(0.1 -0.1)">
       <use xlink:href="#DejaVuSans-31"/>
       <use xlink:href="#DejaVuSans-2e" x="63.623047"/>
       <use xlink:href="#DejaVuSans-35" x="95.410156"/>
      </g>
     </g>
    </g>
    <g id="ytick_4">
     <g id="line2d_11">
      <g>
       <use xlink:href="#ma6d9980dd0" x="57.6" y="163.1232" style="stroke: #000000; stroke-width: 0.8"/>
      </g>
     </g>
     <g id="text_12">
      <!-- 2.0 -->
      <g transform="translate(34.696875 166.922419)scale(0.1 -0.1)">
       <use xlink:href="#DejaVuSans-32"/>
       <use xlink:href="#DejaVuSans-2e" x="63.623047"/>
       <use xlink:href="#DejaVuSans-30" x="95.410156"/>
      </g>
     </g>
    </g>
    <g id="ytick_5">
     <g id="line2d_12">
      <g>
       <use xlink:href="#ma6d9980dd0" x="57.6" y="125.1072" style="stroke: #000000; stroke-width: 0.8"/>
      </g>
     </g>
     <g id="text_13">
      <!-- 2.5 -->
      <g transform="translate(34.696875 128.906419)scale(0.1 -0.1)">
       <use xlink:href="#DejaVuSans-32"/>
       <use xlink:href="#DejaVuSans-2e" x="63.623047"/>
       <use xlink:href="#DejaVuSans-35" x="95.410156"/>
      </g>
     </g>
    </g>
    <g id="ytick_6">
     <g id="line2d_13">
      <g>
       <use xlink:href="#ma6d9980dd0" x="57.6" y="87.0912" style="stroke: #000000; stroke-width: 0.8"/>
      </g>
     </g>
     <g id="text_14">
      <!-- 3.0 -->
      <g transform="translate(34.696875 90.890419)scale(0.1 -0.1)">
       <use xlink:href="#DejaVuSans-33"/>
       <use xlink:href="#DejaVuSans-2e" x="63.623047"/>
       <use xlink:href="#DejaVuSans-30" x="95.410156"/>
      </g>
     </g>
    </g>
    <g id="ytick_7">
     <g id="line2d_14">
      <g>
       <use xlink:href="#ma6d9980dd0" x="57.6" y="49.0752" style="stroke: #000000; stroke-width: 0.8"/>
      </g>
     </g>
     <g id="text_15">
      <!-- 3.5 -->
      <g transform="translate(34.696875 52.874419)scale(0.1 -0.1)">
       <use xlink:href="#DejaVuSans-33"/>
       <use xlink:href="#DejaVuSans-2e" x="63.623047"/>
       <use xlink:href="#DejaVuSans-35" x="95.410156"/>
      </g>
     </g>
    </g>
    <g id="text_16">
     <!-- storage ratio -->
     <g transform="translate(28.617187 206.639719)rotate(-90)scale(0.1 -0.1)">
      <use xlink:href="#DejaVuSans-73"/>
      <use xlink:href="#DejaVuSans-74" x="52.099609"/>
      <use xlink:href="#DejaVuSans-6f" x="91.308594"/>
      <use xlink:href="#DejaVuSans-72" x="152.490234"/>
      <use xlink:href="#DejaVuSans-61" x="193.603516"/>
      <use xlink:href="#DejaVuSans-67" x="254.882812"/>
      <use xlink:href="#DejaVuSans-65" x="318.359375"/>
      <use xlink:href="#DejaVuSans-20" x="379.882812"/>
      <use xlink:href="#DejaVuSans-72" x="411.669922"/>
      <use xlink:href="#DejaVuSans-61" x="452.783203"/>
      <use xlink:href="#DejaVuSans-74" x="514.0625"/>
      <use xlink:href="#DejaVuSans-69" x="553.271484"/>
      <use xlink:href="#DejaVuSans-6f" x="581.054688"/>
     </g>
    </g>
   </g>
   <g id="patch_3">
    <path d="M 57.6 307.584 
L 57.6 41.472 
" style="fill: none; stroke: #000000; stroke-width: 0.8; stroke-linejoin: miter; stroke-linecap: square"/>
   </g>
   <g id="patch_4">
    <path d="M 343.296 307.584 
L 343.296 41.472 
" style="fill: none; stroke: #000000; stroke-width: 0.8; stroke-linejoin: miter; stroke-linecap: square"/>
   </g>
   <g id="patch_5">
    <path d="M 57.6 307.584 
L 343.296 307.584 
" style="fill: none; stroke: #000000; stroke-width: 0.8; stroke-linejoin: miter; stroke-linecap: square"/>
   </g>
   <g id="patch_6">
    <path d="M 57.6 41.472 
L 343.296 41.472 
" style="fill: none; stroke: #000000; stroke-width: 0.8; stroke-linejoin: miter; stroke-linecap: square"/>
   </g>
   <g id="text_17">
    <!-- storage46! power590! -->
    <g transform="translate(133.303313 35.472)scale(0.12 -0.12)">
     <defs>
      <path id="DejaVuSans-34" d="M 2419 4116 
L 825 1625 
L 2419 1625 
L 2419 4116 
z
M 2253 4666 
L 3047 4666 
L 3047 1625 
L 3713 1625 
L 3713 1100 
L 3047 1100 
L 3047 0 
L 2419 0 
L 2419 1100 
L 313 1100 
L 313 1709 
L 2253 4666 
z
" transform="scale(0.015625)"/>
      <path id="DejaVuSans-36" d="M 2113 2584 
Q 1688 2584 1439 2293 
Q 1191 2003 1191 1497 
Q 1191 994 1439 701 
Q 1688 409 2113 409 
Q 2538 409 2786 701 
Q 3034 994 3034 1497 
Q 3034 2003 2786 2293 
Q 2538 2584 2113 2584 
z
M 3366 4563 
L 3366 3988 
Q 3128 4100 2886 4159 
Q 2644 4219 2406 4219 
Q 1781 4219 1451 3797 
Q 1122 3375 1075 2522 
Q 1259 2794 1537 2939 
Q 1816 3084 2150 3084 
Q 2853 3084 3261 2657 
Q 3669 2231 3669 1497 
Q 3669 778 3244 343 
Q 2819 -91 2113 -91 
Q 1303 -91 875 529 
Q 447 1150 447 2328 
Q 447 3434 972 4092 
Q 1497 4750 2381 4750 
Q 2619 4750 2861 4703 
Q 3103 4656 3366 4563 
z
" transform="scale(0.015625)"/>
      <path id="DejaVuSans-21" d="M 966 794 
L 1600 794 
L 1600 0 
L 966 0 
L 966 794 
z
M 966 4666 
L 1600 4666 
L 1600 2619 
L 1538 1503 
L 1031 1503 
L 966 2619 
L 966 4666 
z
" transform="scale(0.015625)"/>
      <path id="DejaVuSans-70" d="M 1159 525 
L 1159 -1331 
L 581 -1331 
L 581 3500 
L 1159 3500 
L 1159 2969 
Q 1341 3281 1617 3432 
Q 1894 3584 2278 3584 
Q 2916 3584 3314 3078 
Q 3713 2572 3713 1747 
Q 3713 922 3314 415 
Q 2916 -91 2278 -91 
Q 1894 -91 1617 61 
Q 1341 213 1159 525 
z
M 3116 1747 
Q 3116 2381 2855 2742 
Q 2594 3103 2138 3103 
Q 1681 3103 1420 2742 
Q 1159 2381 1159 1747 
Q 1159 1113 1420 752 
Q 1681 391 2138 391 
Q 2594 391 2855 752 
Q 3116 1113 3116 1747 
z
" transform="scale(0.015625)"/>
      <path id="DejaVuSans-77" d="M 269 3500 
L 844 3500 
L 1563 769 
L 2278 3500 
L 2956 3500 
L 3675 769 
L 4391 3500 
L 4966 3500 
L 4050 0 
L 3372 0 
L 2619 2869 
L 1863 0 
L 1184 0 
L 269 3500 
z
" transform="scale(0.015625)"/>
      <path id="DejaVuSans-39" d="M 703 97 
L 703 672 
Q 941 559 1184 500 
Q 1428 441 1663 441 
Q 2288 441 2617 861 
Q 2947 1281 2994 2138 
Q 2813 1869 2534 1725 
Q 2256 1581 1919 1581 
Q 1219 1581 811 2004 
Q 403 2428 403 3163 
Q 403 3881 828 4315 
Q 1253 4750 1959 4750 
Q 2769 4750 3195 4129 
Q 3622 3509 3622 2328 
Q 3622 1225 3098 567 
Q 2575 -91 1691 -91 
Q 1453 -91 1209 -44 
Q 966 3 703 97 
z
M 1959 2075 
Q 2384 2075 2632 2365 
Q 2881 2656 2881 3163 
Q 2881 3666 2632 3958 
Q 2384 4250 1959 4250 
Q 1534 4250 1286 3958 
Q 1038 3666 1038 3163 
Q 1038 2656 1286 2365 
Q 1534 2075 1959 2075 
z
" transform="scale(0.015625)"/>
     </defs>
     <use xlink:href="#DejaVuSans-73"/>
     <use xlink:href="#DejaVuSans-74" x="52.099609"/>
     <use xlink:href="#DejaVuSans-6f" x="91.308594"/>
     <use xlink:href="#DejaVuSans-72" x="152.490234"/>
     <use xlink:href="#DejaVuSans-61" x="193.603516"/>
     <use xlink:href="#DejaVuSans-67" x="254.882812"/>
     <use xlink:href="#DejaVuSans-65" x="318.359375"/>
     <use xlink:href="#DejaVuSans-34" x="379.882812"/>
     <use xlink:href="#DejaVuSans-36" x="443.505859"/>
     <use xlink:href="#DejaVuSans-21" x="507.128906"/>
     <use xlink:href="#DejaVuSans-20" x="547.216797"/>
     <use xlink:href="#DejaVuSans-70" x="579.003906"/>
     <use xlink:href="#DejaVuSans-6f" x="642.480469"/>
     <use xlink:href="#DejaVuSans-77" x="703.662109"/>
     <use xlink:href="#DejaVuSans-65" x="785.449219"/>
     <use xlink:href="#DejaVuSans-72" x="846.972656"/>
     <use xlink:href="#DejaVuSans-35" x="888.085938"/>
     <use xlink:href="#DejaVuSans-39" x="951.708984"/>
     <use xlink:href="#DejaVuSans-30" x="1015.332031"/>
     <use xlink:href="#DejaVuSans-21" x="1078.955078"/>
    </g>
   </g>
  </g>
  <g id="axes_2">
   <g id="patch_7">
    <path d="M 361.152 307.584 
L 374.4576 307.584 
L 374.4576 41.472 
L 361.152 41.472 
z
" style="fill: #ffffff"/>
   </g>
   <g id="patch_8">
    <path clip-path="url(#p9544c73ef5)" style="fill: #ffffff; stroke: #ffffff; stroke-width: 0.01; stroke-linejoin: miter"/>
   </g>
   <g id="QuadMesh_1">
    <path d="M 361.152 307.584 
L 374.4576 307.584 
L 374.4576 301.248 
L 361.152 301.248 
L 361.152 307.584 
" clip-path="url(#p9544c73ef5)" style="fill: #700320"/>
    <path d="M 361.152 301.248 
L 374.4576 301.248 
L 374.4576 294.912 
L 361.152 294.912 
L 361.152 301.248 
" clip-path="url(#p9544c73ef5)" style="fill: #810823"/>
    <path d="M 361.152 294.912 
L 374.4576 294.912 
L 374.4576 288.576 
L 361.152 288.576 
L 361.152 294.912 
" clip-path="url(#p9544c73ef5)" style="fill: #930e26"/>
    <path d="M 361.152 288.576 
L 374.4576 288.576 
L 374.4576 282.24 
L 361.152 282.24 
L 361.152 288.576 
" clip-path="url(#p9544c73ef5)" style="fill: #a51429"/>
    <path d="M 361.152 282.24 
L 374.4576 282.24 
L 374.4576 275.904 
L 361.152 275.904 
L 361.152 282.24 
" clip-path="url(#p9544c73ef5)" style="fill: #b41c2d"/>
    <path d="M 361.152 275.904 
L 374.4576 275.904 
L 374.4576 269.568 
L 361.152 269.568 
L 361.152 275.904 
" clip-path="url(#p9544c73ef5)" style="fill: #bd2d35"/>
    <path d="M 361.152 269.568 
L 374.4576 269.568 
L 374.4576 263.232 
L 361.152 263.232 
L 361.152 269.568 
" clip-path="url(#p9544c73ef5)" style="fill: #c53e3d"/>
    <path d="M 361.152 263.232 
L 374.4576 263.232 
L 374.4576 256.896 
L 361.152 256.896 
L 361.152 263.232 
" clip-path="url(#p9544c73ef5)" style="fill: #ce4f45"/>
    <path d="M 361.152 256.896 
L 374.4576 256.896 
L 374.4576 250.56 
L 361.152 250.56 
L 361.152 256.896 
" clip-path="url(#p9544c73ef5)" style="fill: #d6604d"/>
    <path d="M 361.152 250.56 
L 374.4576 250.56 
L 374.4576 244.224 
L 361.152 244.224 
L 361.152 250.56 
" clip-path="url(#p9544c73ef5)" style="fill: #dd7059"/>
    <path d="M 361.152 244.224 
L 374.4576 244.224 
L 374.4576 237.888 
L 361.152 237.888 
L 361.152 244.224 
" clip-path="url(#p9544c73ef5)" style="fill: #e58368"/>
    <path d="M 361.152 237.888 
L 374.4576 237.888 
L 374.4576 231.552 
L 361.152 231.552 
L 361.152 237.888 
" clip-path="url(#p9544c73ef5)" style="fill: #ec9374"/>
    <path d="M 361.152 231.552 
L 374.4576 231.552 
L 374.4576 225.216 
L 361.152 225.216 
L 361.152 231.552 
" clip-path="url(#p9544c73ef5)" style="fill: #f3a481"/>
    <path d="M 361.152 225.216 
L 374.4576 225.216 
L 374.4576 218.88 
L 361.152 218.88 
L 361.152 225.216 
" clip-path="url(#p9544c73ef5)" style="fill: #f6b191"/>
    <path d="M 361.152 218.88 
L 374.4576 218.88 
L 374.4576 212.544 
L 361.152 212.544 
L 361.152 218.88 
" clip-path="url(#p9544c73ef5)" style="fill: #f8bda1"/>
    <path d="M 361.152 212.544 
L 374.4576 212.544 
L 374.4576 206.208 
L 361.152 206.208 
L 361.152 212.544 
" clip-path="url(#p9544c73ef5)" style="fill: #facab1"/>
    <path d="M 361.152 206.208 
L 374.4576 206.208 
L 374.4576 199.872 
L 361.152 199.872 
L 361.152 206.208 
" clip-path="url(#p9544c73ef5)" style="fill: #fcd7c2"/>
    <path d="M 361.152 199.872 
L 374.4576 199.872 
L 374.4576 193.536 
L 361.152 193.536 
L 361.152 199.872 
" clip-path="url(#p9544c73ef5)" style="fill: #fde1d0"/>
    <path d="M 361.152 193.536 
L 374.4576 193.536 
L 374.4576 187.2 
L 361.152 187.2 
L 361.152 193.536 
" clip-path="url(#p9544c73ef5)" style="fill: #fee9dd"/>
    <path d="M 361.152 187.2 
L 374.4576 187.2 
L 374.4576 180.864 
L 361.152 180.864 
L 361.152 187.2 
" clip-path="url(#p9544c73ef5)" style="fill: #fef2ea"/>
    <path d="M 361.152 180.864 
L 374.4576 180.864 
L 374.4576 174.528 
L 361.152 174.528 
L 361.152 180.864 
" clip-path="url(#p9544c73ef5)" style="fill: #fffaf7"/>
    <path d="M 361.152 174.528 
L 374.4576 174.528 
L 374.4576 168.192 
L 361.152 168.192 
L 361.152 174.528 
" clip-path="url(#p9544c73ef5)" style="fill: #fbfbfb"/>
    <path d="M 361.152 168.192 
L 374.4576 168.192 
L 374.4576 161.856 
L 361.152 161.856 
L 361.152 168.192 
" clip-path="url(#p9544c73ef5)" style="fill: #f3f3f3"/>
    <path d="M 361.152 161.856 
L 374.4576 161.856 
L 374.4576 155.52 
L 361.152 155.52 
L 361.152 161.856 
" clip-path="url(#p9544c73ef5)" style="fill: #ececec"/>
    <path d="M 361.152 155.52 
L 374.4576 155.52 
L 374.4576 149.184 
L 361.152 149.184 
L 361.152 155.52 
" clip-path="url(#p9544c73ef5)" style="fill: #e5e5e5"/>
    <path d="M 361.152 149.184 
L 374.4576 149.184 
L 374.4576 142.848 
L 361.152 142.848 
L 361.152 149.184 
" clip-path="url(#p9544c73ef5)" style="fill: #dddddd"/>
    <path d="M 361.152 142.848 
L 374.4576 142.848 
L 374.4576 136.512 
L 361.152 136.512 
L 361.152 142.848 
" clip-path="url(#p9544c73ef5)" style="fill: #d4d4d4"/>
    <path d="M 361.152 136.512 
L 374.4576 136.512 
L 374.4576 130.176 
L 361.152 130.176 
L 361.152 136.512 
" clip-path="url(#p9544c73ef5)" style="fill: #cbcbcb"/>
    <path d="M 361.152 130.176 
L 374.4576 130.176 
L 374.4576 123.84 
L 361.152 123.84 
L 361.152 130.176 
" clip-path="url(#p9544c73ef5)" style="fill: #c2c2c2"/>
    <path d="M 361.152 123.84 
L 374.4576 123.84 
L 374.4576 117.504 
L 361.152 117.504 
L 361.152 123.84 
" clip-path="url(#p9544c73ef5)" style="fill: #b9b9b9"/>
    <path d="M 361.152 117.504 
L 374.4576 117.504 
L 374.4576 111.168 
L 361.152 111.168 
L 361.152 117.504 
" clip-path="url(#p9544c73ef5)" style="fill: #adadad"/>
    <path d="M 361.152 111.168 
L 374.4576 111.168 
L 374.4576 104.832 
L 361.152 104.832 
L 361.152 111.168 
" clip-path="url(#p9544c73ef5)" style="fill: #9f9f9f"/>
    <path d="M 361.152 104.832 
L 374.4576 104.832 
L 374.4576 98.496 
L 361.152 98.496 
L 361.152 104.832 
" clip-path="url(#p9544c73ef5)" style="fill: #939393"/>
    <path d="M 361.152 98.496 
L 374.4576 98.496 
L 374.4576 92.16 
L 361.152 92.16 
L 361.152 98.496 
" clip-path="url(#p9544c73ef5)" style="fill: #878787"/>
    <path d="M 361.152 92.16 
L 374.4576 92.16 
L 374.4576 85.824 
L 361.152 85.824 
L 361.152 92.16 
" clip-path="url(#p9544c73ef5)" style="fill: #797979"/>
    <path d="M 361.152 85.824 
L 374.4576 85.824 
L 374.4576 79.488 
L 361.152 79.488 
L 361.152 85.824 
" clip-path="url(#p9544c73ef5)" style="fill: #6c6c6c"/>
    <path d="M 361.152 79.488 
L 374.4576 79.488 
L 374.4576 73.152 
L 361.152 73.152 
L 361.152 79.488 
" clip-path="url(#p9544c73ef5)" style="fill: #5e5e5e"/>
    <path d="M 361.152 73.152 
L 374.4576 73.152 
L 374.4576 66.816 
L 361.152 66.816 
L 361.152 73.152 
" clip-path="url(#p9544c73ef5)" style="fill: #505050"/>
    <path d="M 361.152 66.816 
L 374.4576 66.816 
L 374.4576 60.48 
L 361.152 60.48 
L 361.152 66.816 
" clip-path="url(#p9544c73ef5)" style="fill: #444444"/>
    <path d="M 361.152 60.48 
L 374.4576 60.48 
L 374.4576 54.144 
L 361.152 54.144 
L 361.152 60.48 
" clip-path="url(#p9544c73ef5)" style="fill: #383838"/>
    <path d="M 361.152 54.144 
L 374.4576 54.144 
L 374.4576 47.808 
L 361.152 47.808 
L 361.152 54.144 
" clip-path="url(#p9544c73ef5)" style="fill: #2c2c2c"/>
    <path d="M 361.152 47.808 
L 374.4576 47.808 
L 374.4576 41.472 
L 361.152 41.472 
L 361.152 47.808 
" clip-path="url(#p9544c73ef5)" style="fill: #202020"/>
   </g>
   <g id="matplotlib.axis_3">
    <g id="ytick_8">
     <g id="line2d_15">
      <defs>
       <path id="me8ff8a8482" d="M 0 0 
L 3.5 0 
" style="stroke: #000000; stroke-width: 0.8"/>
      </defs>
      <g>
       <use xlink:href="#me8ff8a8482" x="374.4576" y="307.584" style="stroke: #000000; stroke-width: 0.8"/>
      </g>
     </g>
     <g id="text_18">
      <!-- 1.65 -->
      <g transform="translate(381.4576 311.383219)scale(0.1 -0.1)">
       <use xlink:href="#DejaVuSans-31"/>
       <use xlink:href="#DejaVuSans-2e" x="63.623047"/>
       <use xlink:href="#DejaVuSans-36" x="95.410156"/>
       <use xlink:href="#DejaVuSans-35" x="159.033203"/>
      </g>
     </g>
    </g>
    <g id="ytick_9">
     <g id="line2d_16">
      <g>
       <use xlink:href="#me8ff8a8482" x="374.4576" y="275.904" style="stroke: #000000; stroke-width: 0.8"/>
      </g>
     </g>
     <g id="text_19">
      <!-- 2.40 -->
      <g transform="translate(381.4576 279.703219)scale(0.1 -0.1)">
       <use xlink:href="#DejaVuSans-32"/>
       <use xlink:href="#DejaVuSans-2e" x="63.623047"/>
       <use xlink:href="#DejaVuSans-34" x="95.410156"/>
       <use xlink:href="#DejaVuSans-30" x="159.033203"/>
      </g>
     </g>
    </g>
    <g id="ytick_10">
     <g id="line2d_17">
      <g>
       <use xlink:href="#me8ff8a8482" x="374.4576" y="244.224" style="stroke: #000000; stroke-width: 0.8"/>
      </g>
     </g>
     <g id="text_20">
      <!-- 3.15 -->
      <g transform="translate(381.4576 248.023219)scale(0.1 -0.1)">
       <use xlink:href="#DejaVuSans-33"/>
       <use xlink:href="#DejaVuSans-2e" x="63.623047"/>
       <use xlink:href="#DejaVuSans-31" x="95.410156"/>
       <use xlink:href="#DejaVuSans-35" x="159.033203"/>
      </g>
     </g>
    </g>
    <g id="ytick_11">
     <g id="line2d_18">
      <g>
       <use xlink:href="#me8ff8a8482" x="374.4576" y="212.544" style="stroke: #000000; stroke-width: 0.8"/>
      </g>
     </g>
     <g id="text_21">
      <!-- 3.90 -->
      <g transform="translate(381.4576 216.343219)scale(0.1 -0.1)">
       <use xlink:href="#DejaVuSans-33"/>
       <use xlink:href="#DejaVuSans-2e" x="63.623047"/>
       <use xlink:href="#DejaVuSans-39" x="95.410156"/>
       <use xlink:href="#DejaVuSans-30" x="159.033203"/>
      </g>
     </g>
    </g>
    <g id="ytick_12">
     <g id="line2d_19">
      <g>
       <use xlink:href="#me8ff8a8482" x="374.4576" y="180.864" style="stroke: #000000; stroke-width: 0.8"/>
      </g>
     </g>
     <g id="text_22">
      <!-- 4.65 -->
      <g transform="translate(381.4576 184.663219)scale(0.1 -0.1)">
       <use xlink:href="#DejaVuSans-34"/>
       <use xlink:href="#DejaVuSans-2e" x="63.623047"/>
       <use xlink:href="#DejaVuSans-36" x="95.410156"/>
       <use xlink:href="#DejaVuSans-35" x="159.033203"/>
      </g>
     </g>
    </g>
    <g id="ytick_13">
     <g id="line2d_20">
      <g>
       <use xlink:href="#me8ff8a8482" x="374.4576" y="149.184" style="stroke: #000000; stroke-width: 0.8"/>
      </g>
     </g>
     <g id="text_23">
      <!-- 5.40 -->
      <g transform="translate(381.4576 152.983219)scale(0.1 -0.1)">
       <use xlink:href="#DejaVuSans-35"/>
       <use xlink:href="#DejaVuSans-2e" x="63.623047"/>
       <use xlink:href="#DejaVuSans-34" x="95.410156"/>
       <use xlink:href="#DejaVuSans-30" x="159.033203"/>
      </g>
     </g>
    </g>
    <g id="ytick_14">
     <g id="line2d_21">
      <g>
       <use xlink:href="#me8ff8a8482" x="374.4576" y="117.504" style="stroke: #000000; stroke-width: 0.8"/>
      </g>
     </g>
     <g id="text_24">
      <!-- 6.15 -->
      <g transform="translate(381.4576 121.303219)scale(0.1 -0.1)">
       <use xlink:href="#DejaVuSans-36"/>
       <use xlink:href="#DejaVuSans-2e" x="63.623047"/>
       <use xlink:href="#DejaVuSans-31" x="95.410156"/>
       <use xlink:href="#DejaVuSans-35" x="159.033203"/>
      </g>
     </g>
    </g>
    <g id="ytick_15">
     <g id="line2d_22">
      <g>
       <use xlink:href="#me8ff8a8482" x="374.4576" y="85.824" style="stroke: #000000; stroke-width: 0.8"/>
      </g>
     </g>
     <g id="text_25">
      <!-- 6.90 -->
      <g transform="translate(381.4576 89.623219)scale(0.1 -0.1)">
       <use xlink:href="#DejaVuSans-36"/>
       <use xlink:href="#DejaVuSans-2e" x="63.623047"/>
       <use xlink:href="#DejaVuSans-39" x="95.410156"/>
       <use xlink:href="#DejaVuSans-30" x="159.033203"/>
      </g>
     </g>
    </g>
    <g id="ytick_16">
     <g id="line2d_23">
      <g>
       <use xlink:href="#me8ff8a8482" x="374.4576" y="54.144" style="stroke: #000000; stroke-width: 0.8"/>
      </g>
     </g>
     <g id="text_26">
      <!-- 7.65 -->
      <g transform="translate(381.4576 57.943219)scale(0.1 -0.1)">
       <defs>
        <path id="DejaVuSans-37" d="M 525 4666 
L 3525 4666 
L 3525 4397 
L 1831 0 
L 1172 0 
L 2766 4134 
L 525 4134 
L 525 4666 
z
" transform="scale(0.015625)"/>
       </defs>
       <use xlink:href="#DejaVuSans-37"/>
       <use xlink:href="#DejaVuSans-2e" x="63.623047"/>
       <use xlink:href="#DejaVuSans-36" x="95.410156"/>
       <use xlink:href="#DejaVuSans-35" x="159.033203"/>
      </g>
     </g>
    </g>
   </g>
   <g id="LineCollection_1"/>
   <g id="patch_9">
    <path d="M 361.152 307.584 
L 367.8048 307.584 
L 374.4576 307.584 
L 374.4576 41.472 
L 367.8048 41.472 
L 361.152 41.472 
L 361.152 307.584 
z
" style="fill: none; stroke: #000000; stroke-width: 0.8; stroke-linejoin: miter; stroke-linecap: square"/>
   </g>
  </g>
 </g>
 <defs>
  <clipPath id="p2947db394d">
   <rect x="57.6" y="41.472" width="285.696" height="266.112"/>
  </clipPath>
  <clipPath id="p9544c73ef5">
   <rect x="361.152" y="41.472" width="13.3056" height="266.112"/>
  </clipPath>
 </defs>
</svg>
