<?xml version="1.0" encoding="utf-8" standalone="no"?>
<!DOCTYPE svg PUBLIC "-//W3C//DTD SVG 1.1//EN"
  "http://www.w3.org/Graphics/SVG/1.1/DTD/svg11.dtd">
<svg xmlns:xlink="http://www.w3.org/1999/xlink" width="460.8pt" height="345.6pt" viewBox="0 0 460.8 345.6" xmlns="http://www.w3.org/2000/svg" version="1.1">
 <metadata>
  <rdf:RDF xmlns:dc="http://purl.org/dc/elements/1.1/" xmlns:cc="http://creativecommons.org/ns#" xmlns:rdf="http://www.w3.org/1999/02/22-rdf-syntax-ns#">
   <cc:Work>
    <dc:type rdf:resource="http://purl.org/dc/dcmitype/StillImage"/>
    <dc:date>2023-02-20T15:51:34.560130</dc:date>
    <dc:format>image/svg+xml</dc:format>
    <dc:creator>
     <cc:Agent>
      <dc:title>Matplotlib v3.5.3, https://matplotlib.org/</dc:title>
     </cc:Agent>
    </dc:creator>
   </cc:Work>
  </rdf:RDF>
 </metadata>
 <defs>
  <style type="text/css">*{stroke-linejoin: round; stroke-linecap: butt}</style>
 </defs>
 <g id="figure_1">
  <g id="patch_1">
   <path d="M 0 345.6 
L 460.8 345.6 
L 460.8 0 
L 0 0 
z
" style="fill: #ffffff"/>
  </g>
  <g id="axes_1">
   <g id="patch_2">
    <path d="M 57.6 307.584 
L 343.296 307.584 
L 343.296 41.472 
L 57.6 41.472 
z
" style="fill: #ffffff"/>
   </g>
   <g id="PathCollection_1">
    <path d="M 305.2032 46.811246 
L 324.2496 57.999595 
L 343.296 69.099246 
L 343.296 41.472 
L 324.2496 41.472 
L 305.2032 41.472 
L 296.384831 41.472 
z
" clip-path="url(#p2e9734245d)" style="fill: #6d0220"/>
   </g>
   <g id="PathCollection_2">
    <path d="M 324.2496 83.404832 
L 343.296 92.316539 
L 343.296 79.488 
L 343.296 69.099246 
L 324.2496 57.999595 
L 305.2032 46.811246 
L 296.384831 41.472 
L 286.1568 41.472 
L 267.1104 41.472 
L 257.570227 41.472 
L 267.1104 47.893685 
L 286.1568 60.30749 
L 305.2032 72.604255 
L 316.132684 79.488 
z
" clip-path="url(#p2e9734245d)" style="fill: #7f0823"/>
   </g>
   <g id="PathCollection_3">
    <path d="M 286.1568 83.633531 
L 305.2032 93.449999 
L 324.2496 103.166368 
L 343.296 112.795711 
L 343.296 92.316539 
L 324.2496 83.404832 
L 316.132684 79.488 
L 305.2032 72.604255 
L 286.1568 60.30749 
L 267.1104 47.893685 
L 257.570227 41.472 
L 248.064 41.472 
L 229.0176 41.472 
L 225.143761 41.472 
L 229.0176 44.407097 
L 248.064 58.120648 
L 267.1104 71.675013 
L 278.390907 79.488 
z
" clip-path="url(#p2e9734245d)" style="fill: #900d26"/>
   </g>
   <g id="PathCollection_4">
    <path d="M 324.2496 121.288026 
L 343.296 128.487293 
L 343.296 117.504 
L 343.296 112.795711 
L 324.2496 103.166368 
L 305.2032 93.449999 
L 286.1568 83.633531 
L 278.390907 79.488 
L 267.1104 71.675013 
L 248.064 58.120648 
L 229.0176 44.407097 
L 225.143761 41.472 
L 209.9712 41.472 
L 197.839907 41.472 
L 209.9712 51.278703 
L 229.0176 66.181982 
L 246.312028 79.488 
L 248.064 80.53421 
L 267.1104 91.315309 
L 286.1568 101.962429 
L 305.2032 112.494736 
L 314.52368 117.504 
z
" clip-path="url(#p2e9734245d)" style="fill: #a21328"/>
   </g>
   <g id="PathCollection_5">
    <path d="M 286.1568 119.456372 
L 305.2032 127.314676 
L 324.2496 135.074803 
L 343.296 142.749574 
L 343.296 128.487293 
L 324.2496 121.288026 
L 314.52368 117.504 
L 305.2032 112.494736 
L 286.1568 101.962429 
L 267.1104 91.315309 
L 248.064 80.53421 
L 246.312028 79.488 
L 229.0176 66.181982 
L 209.9712 51.278703 
L 197.839907 41.472 
L 190.9248 41.472 
L 174.239625 41.472 
L 190.9248 55.92641 
L 209.9712 72.052944 
L 219.098714 79.488 
L 229.0176 85.784297 
L 248.064 97.434954 
L 267.1104 108.92948 
L 281.623105 117.504 
z
" clip-path="url(#p2e9734245d)" style="fill: #b3192c"/>
   </g>
   <g id="PathCollection_6">
    <path d="M 343.296 156.480052 
L 343.296 155.52 
L 343.296 142.749574 
L 324.2496 135.074803 
L 305.2032 127.314676 
L 286.1568 119.456372 
L 281.623105 117.504 
L 267.1104 108.92948 
L 248.064 97.434954 
L 229.0176 85.784297 
L 219.098714 79.488 
L 209.9712 72.052944 
L 190.9248 55.92641 
L 174.239625 41.472 
L 171.8784 41.472 
L 153.833412 41.472 
L 171.8784 58.309427 
L 190.9248 75.702187 
L 195.29914 79.488 
L 209.9712 89.426945 
L 229.0176 101.973141 
L 248.064 114.335698 
L 253.159901 117.504 
L 267.1104 123.850173 
L 286.1568 132.294773 
L 305.2032 140.626785 
L 324.2496 148.86158 
L 339.905222 155.52 
z
" clip-path="url(#p2e9734245d)" style="fill: #ba2832"/>
   </g>
   <g id="PathCollection_7">
    <path d="M 324.2496 160.119556 
L 343.296 165.658246 
L 343.296 156.480052 
L 339.905222 155.52 
L 324.2496 148.86158 
L 305.2032 140.626785 
L 286.1568 132.294773 
L 267.1104 123.850173 
L 253.159901 117.504 
L 248.064 114.335698 
L 229.0176 101.973141 
L 209.9712 89.426945 
L 195.29914 79.488 
L 190.9248 75.702187 
L 171.8784 58.309427 
L 153.833412 41.472 
L 152.832 41.472 
L 136.111765 41.472 
L 152.832 58.374386 
L 171.8784 77.089386 
L 174.476587 79.488 
L 190.9248 91.431167 
L 209.9712 104.905704 
L 228.111713 117.504 
L 229.0176 117.968351 
L 248.064 127.168703 
L 267.1104 136.21598 
L 286.1568 145.133174 
L 305.2032 153.938893 
L 308.761122 155.52 
z
" clip-path="url(#p2e9734245d)" style="fill: #c2383a"/>
   </g>
   <g id="PathCollection_8">
    <path d="M 286.1568 157.111415 
L 305.2032 163.111266 
L 324.2496 169.015441 
L 343.296 174.83644 
L 343.296 165.658246 
L 324.2496 160.119556 
L 308.761122 155.52 
L 305.2032 153.938893 
L 286.1568 145.133174 
L 267.1104 136.21598 
L 248.064 127.168703 
L 229.0176 117.968351 
L 228.111713 117.504 
L 209.9712 104.905704 
L 190.9248 91.431167 
L 174.476587 79.488 
L 171.8784 77.089386 
L 152.832 58.374386 
L 136.111765 41.472 
L 133.7856 41.472 
L 120.565179 41.472 
L 133.7856 56.050086 
L 152.832 76.161785 
L 156.194339 79.488 
L 171.8784 91.757107 
L 190.9248 106.202019 
L 206.24517 117.504 
L 209.9712 119.542963 
L 229.0176 129.393093 
L 248.064 139.063213 
L 267.1104 148.581786 
L 281.320559 155.52 
z
" clip-path="url(#p2e9734245d)" style="fill: #cb4942"/>
   </g>
   <g id="PathCollection_9">
    <path d="M 267.1104 159.055292 
L 286.1568 165.445332 
L 305.2032 171.725684 
L 324.2496 177.911327 
L 343.296 184.014633 
L 343.296 174.83644 
L 324.2496 169.015441 
L 305.2032 163.111266 
L 286.1568 157.111415 
L 281.320559 155.52 
L 267.1104 148.581786 
L 248.064 139.063213 
L 229.0176 129.393093 
L 209.9712 119.542963 
L 206.24517 117.504 
L 190.9248 106.202019 
L 171.8784 91.757107 
L 156.194339 79.488 
L 152.832 76.161785 
L 133.7856 56.050086 
L 120.565179 41.472 
L 114.7392 41.472 
L 106.684152 41.472 
L 114.7392 51.239376 
L 133.7856 72.849 
L 140.015678 79.488 
L 152.832 90.35262 
L 171.8784 105.822699 
L 186.726147 117.504 
L 190.9248 119.967769 
L 209.9712 130.499751 
L 229.0176 140.817835 
L 248.064 150.957723 
L 256.946232 155.52 
z
" clip-path="url(#p2e9734245d)" style="fill: #d35a4a"/>
   </g>
   <g id="PathCollection_10">
    <path d="M 76.6464 307.584 
L 95.6928 307.584 
L 114.7392 307.584 
L 133.7856 307.584 
L 152.832 307.584 
L 171.8784 307.584 
L 190.9248 307.584 
L 209.9712 307.584 
L 229.0176 307.584 
L 248.064 307.584 
L 267.1104 307.584 
L 286.1568 307.584 
L 305.2032 307.584 
L 324.2496 307.584 
L 343.296 307.584 
L 343.296 305.519283 
L 324.2496 305.651471 
L 305.2032 305.774067 
L 286.1568 305.888079 
L 267.1104 305.994377 
L 248.064 306.09372 
L 229.0176 306.186767 
L 209.9712 306.2741 
L 190.9248 306.356228 
L 171.8784 306.433604 
L 152.832 306.506629 
L 133.7856 306.575659 
L 114.7392 306.641014 
L 95.6928 306.702979 
L 76.6464 306.761811 
L 57.6 306.817743 
L 57.6 307.584 
z
" clip-path="url(#p2e9734245d)" style="fill: #db6b55"/>
    <path d="M 248.064 160.31371 
L 267.1104 167.109829 
L 286.1568 173.77925 
L 305.2032 180.340102 
L 324.2496 186.807213 
L 343.296 193.192827 
L 343.296 184.014633 
L 324.2496 177.911327 
L 305.2032 171.725684 
L 286.1568 165.445332 
L 267.1104 159.055292 
L 256.946232 155.52 
L 248.064 150.957723 
L 229.0176 140.817835 
L 209.9712 130.499751 
L 190.9248 119.967769 
L 186.726147 117.504 
L 171.8784 105.822699 
L 152.832 90.35262 
L 140.015678 79.488 
L 133.7856 72.849 
L 114.7392 51.239376 
L 106.684152 41.472 
L 95.6928 41.472 
L 93.95918 41.472 
L 95.6928 43.806135 
L 114.7392 67.054993 
L 125.503887 79.488 
L 133.7856 87.148141 
L 152.832 103.71621 
L 169.190712 117.504 
L 171.8784 119.20385 
L 190.9248 130.458783 
L 209.9712 141.456539 
L 229.0176 152.242576 
L 235.066309 155.52 
z
" clip-path="url(#p2e9734245d)" style="fill: #db6b55"/>
   </g>
   <g id="PathCollection_11">
    <path d="M 76.6464 306.761811 
L 95.6928 306.702979 
L 114.7392 306.641014 
L 133.7856 306.575659 
L 152.832 306.506629 
L 171.8784 306.433604 
L 190.9248 306.356228 
L 209.9712 306.2741 
L 229.0176 306.186767 
L 248.064 306.09372 
L 267.1104 305.994377 
L 286.1568 305.888079 
L 305.2032 305.774067 
L 324.2496 305.651471 
L 343.296 305.519283 
L 343.296 302.554757 
L 324.2496 302.87674 
L 305.2032 303.17536 
L 286.1568 303.45307 
L 267.1104 303.711992 
L 248.064 303.953971 
L 229.0176 304.180617 
L 209.9712 304.393342 
L 190.9248 304.59339 
L 171.8784 304.781863 
L 152.832 304.959737 
L 133.7856 305.12788 
L 114.7392 305.287071 
L 95.6928 305.438006 
L 76.6464 305.581311 
L 57.6 305.717549 
L 57.6 306.817743 
z
" clip-path="url(#p2e9734245d)" style="fill: #e27b62"/>
    <path d="M 324.2496 194.930431 
L 343.296 199.189885 
L 343.296 193.536 
L 343.296 193.192827 
L 324.2496 186.807213 
L 305.2032 180.340102 
L 286.1568 173.77925 
L 267.1104 167.109829 
L 248.064 160.31371 
L 235.066309 155.52 
L 229.0176 152.242576 
L 209.9712 141.456539 
L 190.9248 130.458783 
L 171.8784 119.20385 
L 169.190712 117.504 
L 152.832 103.71621 
L 133.7856 87.148141 
L 125.503887 79.488 
L 114.7392 67.054993 
L 95.6928 43.806135 
L 93.95918 41.472 
L 82.937834 41.472 
L 95.6928 58.645205 
L 112.222248 79.488 
L 114.7392 82.048743 
L 133.7856 99.813803 
L 152.832 117.0798 
L 153.335298 117.504 
L 171.8784 129.231734 
L 190.9248 140.949796 
L 209.9712 152.413328 
L 215.389645 155.52 
L 229.0176 160.868416 
L 248.064 168.090172 
L 267.1104 175.164365 
L 286.1568 182.113167 
L 305.2032 188.95452 
L 318.266157 193.536 
z
" clip-path="url(#p2e9734245d)" style="fill: #e27b62"/>
   </g>
   <g id="PathCollection_12">
    <path d="M 76.6464 305.581311 
L 95.6928 305.438006 
L 114.7392 305.287071 
L 133.7856 305.12788 
L 152.832 304.959737 
L 171.8784 304.781863 
L 190.9248 304.59339 
L 209.9712 304.393342 
L 229.0176 304.180617 
L 248.064 303.953971 
L 267.1104 303.711992 
L 286.1568 303.45307 
L 305.2032 303.17536 
L 324.2496 302.87674 
L 343.296 302.554757 
L 343.296 299.59023 
L 324.2496 300.10201 
L 305.2032 300.576653 
L 286.1568 301.018062 
L 267.1104 301.429608 
L 248.064 301.814223 
L 229.0176 302.174466 
L 209.9712 302.512583 
L 190.9248 302.830552 
L 171.8784 303.130122 
L 152.832 303.412844 
L 133.7856 303.680101 
L 114.7392 303.933129 
L 95.6928 304.173033 
L 76.6464 304.40081 
L 57.6 304.617356 
L 57.6 305.717549 
z
" clip-path="url(#p2e9734245d)" style="fill: #e8896c"/>
    <path d="M 305.2032 196.146422 
L 324.2496 200.654535 
L 343.296 205.063381 
L 343.296 199.189885 
L 324.2496 194.930431 
L 318.266157 193.536 
L 305.2032 188.95452 
L 286.1568 182.113167 
L 267.1104 175.164365 
L 248.064 168.090172 
L 229.0176 160.868416 
L 215.389645 155.52 
L 209.9712 152.413328 
L 190.9248 140.949796 
L 171.8784 129.231734 
L 153.335298 117.504 
L 152.832 117.0798 
L 133.7856 99.813803 
L 114.7392 82.048743 
L 112.222248 79.488 
L 95.6928 58.645205 
L 82.937834 41.472 
L 76.6464 41.472 
L 72.7112 41.472 
L 76.6464 47.425093 
L 95.6928 73.484275 
L 100.454074 79.488 
L 114.7392 94.021667 
L 133.7856 112.479466 
L 139.321142 117.504 
L 152.832 126.768297 
L 171.8784 139.259619 
L 190.9248 151.440809 
L 197.625093 155.52 
L 209.9712 160.696588 
L 229.0176 168.368342 
L 248.064 175.866634 
L 267.1104 183.218901 
L 286.1568 190.447084 
L 294.572855 193.536 
z
" clip-path="url(#p2e9734245d)" style="fill: #e8896c"/>
   </g>
   <g id="PathCollection_13">
    <path d="M 76.6464 304.40081 
L 95.6928 304.173033 
L 114.7392 303.933129 
L 133.7856 303.680101 
L 152.832 303.412844 
L 171.8784 303.130122 
L 190.9248 302.830552 
L 209.9712 302.512583 
L 229.0176 302.174466 
L 248.064 301.814223 
L 267.1104 301.429608 
L 286.1568 301.018062 
L 305.2032 300.576653 
L 324.2496 300.10201 
L 343.296 299.59023 
L 343.296 296.625704 
L 324.2496 297.327279 
L 305.2032 297.977946 
L 286.1568 298.583053 
L 267.1104 299.147223 
L 248.064 299.674474 
L 229.0176 300.168315 
L 209.9712 300.631825 
L 190.9248 301.067715 
L 171.8784 301.478381 
L 152.832 301.865952 
L 133.7856 302.232323 
L 114.7392 302.579186 
L 95.6928 302.90806 
L 76.6464 303.220309 
L 57.6 303.517162 
L 57.6 304.617356 
z
" clip-path="url(#p2e9734245d)" style="fill: #ef9979"/>
    <path d="M 286.1568 196.95282 
L 305.2032 201.722325 
L 324.2496 206.37864 
L 343.296 210.936876 
L 343.296 205.063381 
L 324.2496 200.654535 
L 305.2032 196.146422 
L 294.572855 193.536 
L 286.1568 190.447084 
L 267.1104 183.218901 
L 248.064 175.866634 
L 229.0176 168.368342 
L 209.9712 160.696588 
L 197.625093 155.52 
L 190.9248 151.440809 
L 171.8784 139.259619 
L 152.832 126.768297 
L 139.321142 117.504 
L 133.7856 112.479466 
L 114.7392 94.021667 
L 100.454074 79.488 
L 95.6928 73.484275 
L 76.6464 47.425093 
L 72.7112 41.472 
L 63.54164 41.472 
L 76.6464 61.296622 
L 89.745526 79.488 
L 95.6928 86.208365 
L 114.7392 105.994591 
L 126.441402 117.504 
L 133.7856 123.001354 
L 152.832 136.336311 
L 171.8784 149.287504 
L 181.481511 155.52 
L 190.9248 159.7693 
L 209.9712 167.921803 
L 229.0176 175.868267 
L 248.064 183.643095 
L 267.1104 191.273437 
L 272.988092 193.536 
z
" clip-path="url(#p2e9734245d)" style="fill: #ef9979"/>
   </g>
   <g id="PathCollection_14">
    <path d="M 76.6464 303.220309 
L 95.6928 302.90806 
L 114.7392 302.579186 
L 133.7856 302.232323 
L 152.832 301.865952 
L 171.8784 301.478381 
L 190.9248 301.067715 
L 209.9712 300.631825 
L 229.0176 300.168315 
L 248.064 299.674474 
L 267.1104 299.147223 
L 286.1568 298.583053 
L 305.2032 297.977946 
L 324.2496 297.327279 
L 343.296 296.625704 
L 343.296 293.661178 
L 324.2496 294.552548 
L 305.2032 295.379239 
L 286.1568 296.148045 
L 267.1104 296.864838 
L 248.064 297.534725 
L 229.0176 298.162165 
L 209.9712 298.751067 
L 190.9248 299.304877 
L 171.8784 299.82664 
L 152.832 300.31906 
L 133.7856 300.784544 
L 114.7392 301.225244 
L 95.6928 301.643088 
L 76.6464 302.039808 
L 57.6 302.416968 
L 57.6 303.517162 
z
" clip-path="url(#p2e9734245d)" style="fill: #f5a886"/>
    <path d="M 267.1104 197.33558 
L 286.1568 202.381893 
L 305.2032 207.298227 
L 324.2496 212.102744 
L 343.296 216.810372 
L 343.296 210.936876 
L 324.2496 206.37864 
L 305.2032 201.722325 
L 286.1568 196.95282 
L 272.988092 193.536 
L 267.1104 191.273437 
L 248.064 183.643095 
L 229.0176 175.868267 
L 209.9712 167.921803 
L 190.9248 159.7693 
L 181.481511 155.52 
L 171.8784 149.287504 
L 152.832 136.336311 
L 133.7856 123.001354 
L 126.441402 117.504 
L 114.7392 105.994591 
L 95.6928 86.208365 
L 89.745526 79.488 
L 76.6464 61.296622 
L 63.54164 41.472 
L 57.6 41.472 
L 57.6 46.018896 
L 76.6464 75.168151 
L 79.757008 79.488 
L 95.6928 97.495299 
L 114.332147 117.504 
L 114.7392 117.839322 
L 133.7856 132.113572 
L 152.832 145.904325 
L 166.667752 155.52 
L 171.8784 158.049346 
L 190.9248 166.721998 
L 209.9712 175.147018 
L 229.0176 183.368192 
L 248.064 191.419557 
L 253.293403 193.536 
z
" clip-path="url(#p2e9734245d)" style="fill: #f5a886"/>
   </g>
   <g id="PathCollection_15">
    <path d="M 76.6464 302.039808 
L 95.6928 301.643088 
L 114.7392 301.225244 
L 133.7856 300.784544 
L 152.832 300.31906 
L 171.8784 299.82664 
L 190.9248 299.304877 
L 209.9712 298.751067 
L 229.0176 298.162165 
L 248.064 297.534725 
L 267.1104 296.864838 
L 286.1568 296.148045 
L 305.2032 295.379239 
L 324.2496 294.552548 
L 343.296 293.661178 
L 343.296 290.696652 
L 324.2496 291.777818 
L 305.2032 292.780533 
L 286.1568 293.713036 
L 267.1104 294.582453 
L 248.064 295.394977 
L 229.0176 296.156014 
L 209.9712 296.870309 
L 190.9248 297.542039 
L 171.8784 298.174899 
L 152.832 298.772167 
L 133.7856 299.336765 
L 114.7392 299.871302 
L 95.6928 300.378115 
L 76.6464 300.859308 
L 57.6 301.316775 
L 57.6 302.416968 
z
" clip-path="url(#p2e9734245d)" style="fill: #f7b596"/>
    <path d="M 248.064 197.277442 
L 267.1104 202.619419 
L 286.1568 207.810966 
L 305.2032 212.87413 
L 324.2496 217.826848 
L 343.296 222.683867 
L 343.296 216.810372 
L 324.2496 212.102744 
L 305.2032 207.298227 
L 286.1568 202.381893 
L 267.1104 197.33558 
L 253.293403 193.536 
L 248.064 191.419557 
L 229.0176 183.368192 
L 209.9712 175.147018 
L 190.9248 166.721998 
L 171.8784 158.049346 
L 166.667752 155.52 
L 152.832 145.904325 
L 133.7856 132.113572 
L 114.7392 117.839322 
L 114.332147 117.504 
L 95.6928 97.495299 
L 79.757008 79.488 
L 76.6464 75.168151 
L 57.6 46.018896 
L 57.6 58.935278 
L 70.893689 79.488 
L 76.6464 86.793818 
L 95.6928 108.782234 
L 103.817666 117.504 
L 114.7392 126.500933 
L 133.7856 141.225791 
L 152.832 155.47234 
L 152.900577 155.52 
L 171.8784 164.732191 
L 190.9248 173.674697 
L 209.9712 182.372234 
L 229.0176 190.868117 
L 235.270325 193.536 
z
" clip-path="url(#p2e9734245d)" style="fill: #f7b596"/>
   </g>
   <g id="PathCollection_16">
    <path d="M 76.6464 300.859308 
L 95.6928 300.378115 
L 114.7392 299.871302 
L 133.7856 299.336765 
L 152.832 298.772167 
L 171.8784 298.174899 
L 190.9248 297.542039 
L 209.9712 296.870309 
L 229.0176 296.156014 
L 248.064 295.394977 
L 267.1104 294.582453 
L 286.1568 293.713036 
L 305.2032 292.780533 
L 324.2496 291.777818 
L 343.296 290.696652 
L 343.296 287.732126 
L 324.2496 289.003087 
L 305.2032 290.181826 
L 286.1568 291.278028 
L 267.1104 292.300069 
L 248.064 293.255228 
L 229.0176 294.149864 
L 209.9712 294.989551 
L 190.9248 295.779201 
L 171.8784 296.523158 
L 152.832 297.225275 
L 133.7856 297.888986 
L 114.7392 298.517359 
L 95.6928 299.113142 
L 76.6464 299.678807 
L 57.6 300.216581 
L 57.6 301.316775 
z
" clip-path="url(#p2e9734245d)" style="fill: #f9c2a7"/>
    <path d="M 229.0176 196.756955 
L 248.064 202.417917 
L 267.1104 207.903258 
L 286.1568 213.24004 
L 305.2032 218.450033 
L 324.2496 223.550953 
L 343.296 228.557362 
L 343.296 222.683867 
L 324.2496 217.826848 
L 305.2032 212.87413 
L 286.1568 207.810966 
L 267.1104 202.619419 
L 248.064 197.277442 
L 235.270325 193.536 
L 229.0176 190.868117 
L 209.9712 182.372234 
L 190.9248 173.674697 
L 171.8784 164.732191 
L 152.900577 155.52 
L 152.832 155.47234 
L 133.7856 141.225791 
L 114.7392 126.500933 
L 103.817666 117.504 
L 95.6928 108.782234 
L 76.6464 86.793818 
L 70.893689 79.488 
L 57.6 58.935278 
L 57.6 71.851661 
L 62.539254 79.488 
L 76.6464 97.403769 
L 93.652655 117.504 
L 95.6928 119.371639 
L 114.7392 135.162545 
L 133.7856 150.338009 
L 140.712368 155.52 
L 152.832 161.904311 
L 171.8784 171.415036 
L 190.9248 180.627395 
L 209.9712 189.597449 
L 218.700393 193.536 
z
" clip-path="url(#p2e9734245d)" style="fill: #f9c2a7"/>
   </g>
   <g id="PathCollection_17">
    <path d="M 76.6464 299.678807 
L 95.6928 299.113142 
L 114.7392 298.517359 
L 133.7856 297.888986 
L 152.832 297.225275 
L 171.8784 296.523158 
L 190.9248 295.779201 
L 209.9712 294.989551 
L 229.0176 294.149864 
L 248.064 293.255228 
L 267.1104 292.300069 
L 286.1568 291.278028 
L 305.2032 290.181826 
L 324.2496 289.003087 
L 343.296 287.732126 
L 343.296 284.767599 
L 324.2496 286.228356 
L 305.2032 287.583119 
L 286.1568 288.843019 
L 267.1104 290.017684 
L 248.064 291.11548 
L 229.0176 292.143713 
L 209.9712 293.108793 
L 190.9248 294.016363 
L 171.8784 294.871416 
L 152.832 295.678383 
L 133.7856 296.441208 
L 114.7392 297.163417 
L 95.6928 297.84817 
L 76.6464 298.498306 
L 57.6 299.116387 
L 57.6 300.216581 
z
" clip-path="url(#p2e9734245d)" style="fill: #fbccb4"/>
    <path d="M 343.296 234.869127 
L 343.296 231.552 
L 343.296 228.557362 
L 324.2496 223.550953 
L 305.2032 218.450033 
L 286.1568 213.24004 
L 267.1104 207.903258 
L 248.064 202.417917 
L 229.0176 196.756955 
L 218.700393 193.536 
L 209.9712 189.597449 
L 190.9248 180.627395 
L 171.8784 171.415036 
L 152.832 161.904311 
L 140.712368 155.52 
L 133.7856 150.338009 
L 114.7392 135.162545 
L 95.6928 119.371639 
L 93.652655 117.504 
L 76.6464 97.403769 
L 62.539254 79.488 
L 57.6 71.851661 
L 57.6 79.488 
L 57.6 83.55353 
L 76.6464 108.01372 
L 84.675866 117.504 
L 95.6928 127.589393 
L 114.7392 143.824156 
L 129.174645 155.52 
L 133.7856 158.174221 
L 152.832 168.320583 
L 171.8784 178.097881 
L 190.9248 187.580093 
L 203.365143 193.536 
L 209.9712 195.747121 
L 229.0176 201.756274 
L 248.064 207.558391 
L 267.1104 213.187097 
L 286.1568 218.669113 
L 305.2032 224.025935 
L 324.2496 229.275057 
L 332.782193 231.552 
z
" clip-path="url(#p2e9734245d)" style="fill: #fbccb4"/>
   </g>
   <g id="PathCollection_18">
    <path d="M 76.6464 298.498306 
L 95.6928 297.84817 
L 114.7392 297.163417 
L 133.7856 296.441208 
L 152.832 295.678383 
L 171.8784 294.871416 
L 190.9248 294.016363 
L 209.9712 293.108793 
L 229.0176 292.143713 
L 248.064 291.11548 
L 267.1104 290.017684 
L 286.1568 288.843019 
L 305.2032 287.583119 
L 324.2496 286.228356 
L 343.296 284.767599 
L 343.296 281.803073 
L 324.2496 283.453626 
L 305.2032 284.984412 
L 286.1568 286.408011 
L 267.1104 287.735299 
L 248.064 288.975731 
L 229.0176 290.137563 
L 209.9712 291.228034 
L 190.9248 292.253525 
L 171.8784 293.219675 
L 152.832 294.13149 
L 133.7856 294.993429 
L 114.7392 295.809474 
L 95.6928 296.583197 
L 76.6464 297.317806 
L 57.6 298.016194 
L 57.6 299.116387 
z
" clip-path="url(#p2e9734245d)" style="fill: #fdd9c4"/>
    <path d="M 324.2496 235.635439 
L 343.296 241.636787 
L 343.296 234.869127 
L 332.782193 231.552 
L 324.2496 229.275057 
L 305.2032 224.025935 
L 286.1568 218.669113 
L 267.1104 213.187097 
L 248.064 207.558391 
L 229.0176 201.756274 
L 209.9712 195.747121 
L 203.365143 193.536 
L 190.9248 187.580093 
L 171.8784 178.097881 
L 152.832 168.320583 
L 133.7856 158.174221 
L 129.174645 155.52 
L 114.7392 143.824156 
L 95.6928 127.589393 
L 84.675866 117.504 
L 76.6464 108.01372 
L 57.6 83.55353 
L 57.6 93.498893 
L 75.848548 117.504 
L 76.6464 118.325332 
L 95.6928 135.807146 
L 114.7392 152.485767 
L 118.484163 155.52 
L 133.7856 164.328022 
L 152.832 174.736854 
L 171.8784 184.780725 
L 189.046112 193.536 
L 190.9248 194.213479 
L 209.9712 200.607924 
L 229.0176 206.755594 
L 248.064 212.698865 
L 267.1104 218.470936 
L 286.1568 224.098186 
L 305.2032 229.601838 
L 312.200762 231.552 
z
" clip-path="url(#p2e9734245d)" style="fill: #fdd9c4"/>
   </g>
   <g id="PathCollection_19">
    <path d="M 76.6464 297.317806 
L 95.6928 296.583197 
L 114.7392 295.809474 
L 133.7856 294.993429 
L 152.832 294.13149 
L 171.8784 293.219675 
L 190.9248 292.253525 
L 209.9712 291.228034 
L 229.0176 290.137563 
L 248.064 288.975731 
L 267.1104 287.735299 
L 286.1568 286.408011 
L 305.2032 284.984412 
L 324.2496 283.453626 
L 343.296 281.803073 
L 343.296 278.838547 
L 324.2496 280.678895 
L 305.2032 282.385705 
L 286.1568 283.973002 
L 267.1104 285.452915 
L 248.064 286.835983 
L 229.0176 288.131412 
L 209.9712 289.347276 
L 190.9248 290.490687 
L 171.8784 291.567934 
L 152.832 292.584598 
L 133.7856 293.54565 
L 114.7392 294.455532 
L 95.6928 295.318224 
L 76.6464 296.137305 
L 57.6 296.916 
L 57.6 298.016194 
z
" clip-path="url(#p2e9734245d)" style="fill: #fde2d2"/>
    <path d="M 305.2032 235.980045 
L 324.2496 242.4161 
L 343.296 248.404447 
L 343.296 241.636787 
L 324.2496 235.635439 
L 312.200762 231.552 
L 305.2032 229.601838 
L 286.1568 224.098186 
L 267.1104 218.470936 
L 248.064 212.698865 
L 229.0176 206.755594 
L 209.9712 200.607924 
L 190.9248 194.213479 
L 189.046112 193.536 
L 171.8784 184.780725 
L 152.832 174.736854 
L 133.7856 164.328022 
L 118.484163 155.52 
L 114.7392 152.485767 
L 95.6928 135.807146 
L 76.6464 118.325332 
L 75.848548 117.504 
L 57.6 93.498893 
L 57.6 103.444256 
L 68.288139 117.504 
L 76.6464 126.108234 
L 95.6928 144.024899 
L 108.698555 155.52 
L 114.7392 159.350944 
L 133.7856 170.481823 
L 152.832 181.153126 
L 171.8784 191.46357 
L 175.942108 193.536 
L 190.9248 198.93895 
L 209.9712 205.468726 
L 229.0176 211.754913 
L 248.064 217.839339 
L 267.1104 223.754775 
L 286.1568 229.527259 
L 293.099013 231.552 
z
" clip-path="url(#p2e9734245d)" style="fill: #fde2d2"/>
   </g>
   <g id="PathCollection_20">
    <path d="M 76.6464 296.137305 
L 95.6928 295.318224 
L 114.7392 294.455532 
L 133.7856 293.54565 
L 152.832 292.584598 
L 171.8784 291.567934 
L 190.9248 290.490687 
L 209.9712 289.347276 
L 229.0176 288.131412 
L 248.064 286.835983 
L 267.1104 285.452915 
L 286.1568 283.973002 
L 305.2032 282.385705 
L 324.2496 280.678895 
L 343.296 278.838547 
L 343.296 275.874021 
L 324.2496 277.904165 
L 305.2032 279.786998 
L 286.1568 281.537994 
L 267.1104 283.17053 
L 248.064 284.696234 
L 229.0176 286.125261 
L 209.9712 287.466518 
L 190.9248 288.727849 
L 171.8784 289.916193 
L 152.832 291.037706 
L 133.7856 292.097872 
L 114.7392 293.10159 
L 95.6928 294.053251 
L 76.6464 294.956804 
L 57.6 295.815806 
L 57.6 296.916 
z
" clip-path="url(#p2e9734245d)" style="fill: #feebdf"/>
    <path d="M 286.1568 235.852706 
L 305.2032 242.789786 
L 324.2496 249.19676 
L 343.296 255.172107 
L 343.296 248.404447 
L 324.2496 242.4161 
L 305.2032 235.980045 
L 293.099013 231.552 
L 286.1568 229.527259 
L 267.1104 223.754775 
L 248.064 217.839339 
L 229.0176 211.754913 
L 209.9712 205.468726 
L 190.9248 198.93895 
L 175.942108 193.536 
L 171.8784 191.46357 
L 152.832 181.153126 
L 133.7856 170.481823 
L 114.7392 159.350944 
L 108.698555 155.52 
L 95.6928 144.024899 
L 76.6464 126.108234 
L 68.288139 117.504 
L 57.6 103.444256 
L 57.6 113.389618 
L 60.72773 117.504 
L 76.6464 133.891135 
L 95.6928 152.242653 
L 99.400847 155.52 
L 114.7392 165.2475 
L 133.7856 176.635625 
L 152.832 187.569398 
L 163.766385 193.536 
L 171.8784 196.70537 
L 190.9248 203.664421 
L 209.9712 210.329529 
L 229.0176 216.754232 
L 248.064 222.979814 
L 267.1104 229.038614 
L 275.326264 231.552 
z
" clip-path="url(#p2e9734245d)" style="fill: #feebdf"/>
   </g>
   <g id="PathCollection_21">
    <path d="M 76.6464 294.956804 
L 95.6928 294.053251 
L 114.7392 293.10159 
L 133.7856 292.097872 
L 152.832 291.037706 
L 171.8784 289.916193 
L 190.9248 288.727849 
L 209.9712 287.466518 
L 229.0176 286.125261 
L 248.064 284.696234 
L 267.1104 283.17053 
L 286.1568 281.537994 
L 305.2032 279.786998 
L 324.2496 277.904165 
L 343.296 275.874021 
L 343.296 272.909494 
L 324.2496 275.129434 
L 305.2032 277.188291 
L 286.1568 279.102985 
L 267.1104 280.888145 
L 248.064 282.556486 
L 229.0176 284.119111 
L 209.9712 285.58576 
L 190.9248 286.965012 
L 171.8784 288.264452 
L 152.832 289.490814 
L 133.7856 290.650093 
L 114.7392 291.747647 
L 95.6928 292.788279 
L 76.6464 293.776303 
L 57.6 294.715612 
L 57.6 295.815806 
z
" clip-path="url(#p2e9734245d)" style="fill: #fef3ec"/>
    <path d="M 267.1104 235.186638 
L 286.1568 242.711275 
L 305.2032 249.599527 
L 324.2496 255.977421 
L 343.296 261.939767 
L 343.296 255.172107 
L 324.2496 249.19676 
L 305.2032 242.789786 
L 286.1568 235.852706 
L 275.326264 231.552 
L 267.1104 229.038614 
L 248.064 222.979814 
L 229.0176 216.754232 
L 209.9712 210.329529 
L 190.9248 203.664421 
L 171.8784 196.70537 
L 163.766385 193.536 
L 152.832 187.569398 
L 133.7856 176.635625 
L 114.7392 165.2475 
L 99.400847 155.52 
L 95.6928 152.242653 
L 76.6464 133.891135 
L 60.72773 117.504 
L 57.6 113.389618 
L 57.6 117.504 
L 57.6 121.81944 
L 76.6464 141.674037 
L 90.882113 155.52 
L 95.6928 158.914366 
L 114.7392 171.144055 
L 133.7856 182.789426 
L 152.097132 193.536 
L 152.832 193.84909 
L 171.8784 201.299404 
L 190.9248 208.389893 
L 209.9712 215.190332 
L 229.0176 221.753552 
L 248.064 228.120288 
L 258.731832 231.552 
z
" clip-path="url(#p2e9734245d)" style="fill: #fef3ec"/>
   </g>
   <g id="PathCollection_22">
    <path d="M 76.6464 293.776303 
L 95.6928 292.788279 
L 114.7392 291.747647 
L 133.7856 290.650093 
L 152.832 289.490814 
L 171.8784 288.264452 
L 190.9248 286.965012 
L 209.9712 285.58576 
L 229.0176 284.119111 
L 248.064 282.556486 
L 267.1104 280.888145 
L 286.1568 279.102985 
L 305.2032 277.188291 
L 324.2496 275.129434 
L 343.296 272.909494 
L 343.296 269.944968 
L 324.2496 272.354703 
L 305.2032 274.589585 
L 286.1568 276.667977 
L 267.1104 278.60576 
L 248.064 280.416737 
L 229.0176 282.11296 
L 209.9712 283.705002 
L 190.9248 285.202174 
L 171.8784 286.612711 
L 152.832 287.943921 
L 133.7856 289.202314 
L 114.7392 290.393705 
L 95.6928 291.523306 
L 76.6464 292.595803 
L 57.6 293.615419 
L 57.6 294.715612 
z
" clip-path="url(#p2e9734245d)" style="fill: #fffbfa"/>
    <path d="M 248.064 233.891102 
L 267.1104 242.11866 
L 286.1568 249.569844 
L 305.2032 256.409267 
L 324.2496 262.758081 
L 343.296 268.707427 
L 343.296 261.939767 
L 324.2496 255.977421 
L 305.2032 249.599527 
L 286.1568 242.711275 
L 267.1104 235.186638 
L 258.731832 231.552 
L 248.064 228.120288 
L 229.0176 221.753552 
L 209.9712 215.190332 
L 190.9248 208.389893 
L 171.8784 201.299404 
L 152.832 193.84909 
L 152.097132 193.536 
L 133.7856 182.789426 
L 114.7392 171.144055 
L 95.6928 158.914366 
L 90.882113 155.52 
L 76.6464 141.674037 
L 57.6 121.81944 
L 57.6 129.179884 
L 76.6464 149.456938 
L 82.88013 155.52 
L 95.6928 164.560474 
L 114.7392 177.040611 
L 133.7856 188.943227 
L 141.611416 193.536 
L 152.832 198.316519 
L 171.8784 205.893439 
L 190.9248 213.115364 
L 209.9712 220.051134 
L 229.0176 226.752871 
L 243.165032 231.552 
z
" clip-path="url(#p2e9734245d)" style="fill: #fffbfa"/>
   </g>
   <g id="PathCollection_23">
    <path d="M 76.6464 292.595803 
L 95.6928 291.523306 
L 114.7392 290.393705 
L 133.7856 289.202314 
L 152.832 287.943921 
L 171.8784 286.612711 
L 190.9248 285.202174 
L 209.9712 283.705002 
L 229.0176 282.11296 
L 248.064 280.416737 
L 267.1104 278.60576 
L 286.1568 276.667977 
L 305.2032 274.589585 
L 324.2496 272.354703 
L 343.296 269.944968 
L 343.296 269.568 
L 343.296 268.707427 
L 324.2496 262.758081 
L 305.2032 256.409267 
L 286.1568 249.569844 
L 267.1104 242.11866 
L 248.064 233.891102 
L 243.165032 231.552 
L 229.0176 226.752871 
L 209.9712 220.051134 
L 190.9248 213.115364 
L 171.8784 205.893439 
L 152.832 198.316519 
L 141.611416 193.536 
L 133.7856 188.943227 
L 114.7392 177.040611 
L 95.6928 164.560474 
L 82.88013 155.52 
L 76.6464 149.456938 
L 57.6 129.179884 
L 57.6 136.540329 
L 75.143028 155.52 
L 76.6464 156.71432 
L 95.6928 170.206581 
L 114.7392 182.937166 
L 131.43008 193.536 
L 133.7856 194.638678 
L 152.832 202.783948 
L 171.8784 210.487473 
L 190.9248 217.840835 
L 209.9712 224.911937 
L 228.475183 231.552 
L 229.0176 231.839589 
L 248.064 240.927828 
L 267.1104 249.050682 
L 286.1568 256.428413 
L 305.2032 263.219008 
L 324.2496 269.538742 
L 324.343294 269.568 
L 324.2496 269.579973 
L 305.2032 271.990878 
L 286.1568 274.232968 
L 267.1104 276.323376 
L 248.064 278.276989 
L 229.0176 280.10681 
L 209.9712 281.824243 
L 190.9248 283.439336 
L 171.8784 284.96097 
L 152.832 286.397029 
L 133.7856 287.754535 
L 114.7392 289.039762 
L 95.6928 290.258333 
L 76.6464 291.415302 
L 57.6 292.515225 
L 57.6 293.615419 
z
" clip-path="url(#p2e9734245d)" style="fill: #fcfcfc"/>
   </g>
   <g id="PathCollection_24">
    <path d="M 76.6464 291.415302 
L 95.6928 290.258333 
L 114.7392 289.039762 
L 133.7856 287.754535 
L 152.832 286.397029 
L 171.8784 284.96097 
L 190.9248 283.439336 
L 209.9712 281.824243 
L 229.0176 280.10681 
L 248.064 278.276989 
L 267.1104 276.323376 
L 286.1568 274.232968 
L 305.2032 271.990878 
L 324.2496 269.579973 
L 324.343294 269.568 
L 324.2496 269.538742 
L 305.2032 263.219008 
L 286.1568 256.428413 
L 267.1104 249.050682 
L 248.064 240.927828 
L 229.0176 231.839589 
L 228.475183 231.552 
L 209.9712 224.911937 
L 190.9248 217.840835 
L 171.8784 210.487473 
L 152.832 202.783948 
L 133.7856 194.638678 
L 131.43008 193.536 
L 114.7392 182.937166 
L 95.6928 170.206581 
L 76.6464 156.71432 
L 75.143028 155.52 
L 57.6 136.540329 
L 57.6 143.900773 
L 68.339723 155.52 
L 76.6464 162.119051 
L 95.6928 175.852688 
L 114.7392 188.833722 
L 122.144275 193.536 
L 133.7856 198.985598 
L 152.832 207.251377 
L 171.8784 215.081507 
L 190.9248 222.566306 
L 209.9712 229.77274 
L 214.929497 231.552 
L 229.0176 239.021508 
L 248.064 247.964554 
L 267.1104 255.982704 
L 286.1568 263.286982 
L 303.892832 269.568 
L 286.1568 271.79796 
L 267.1104 274.040991 
L 248.064 276.13724 
L 229.0176 278.100659 
L 209.9712 279.943485 
L 190.9248 281.676498 
L 171.8784 283.309228 
L 152.832 284.850137 
L 133.7856 286.306757 
L 114.7392 287.68582 
L 95.6928 288.99336 
L 76.6464 290.234801 
L 57.6 291.415031 
L 57.6 292.515225 
z
" clip-path="url(#p2e9734245d)" style="fill: #f5f5f5"/>
   </g>
   <g id="PathCollection_25">
    <path d="M 76.6464 290.234801 
L 95.6928 288.99336 
L 114.7392 287.68582 
L 133.7856 286.306757 
L 152.832 284.850137 
L 171.8784 283.309228 
L 190.9248 281.676498 
L 209.9712 279.943485 
L 229.0176 278.100659 
L 248.064 276.13724 
L 267.1104 274.040991 
L 286.1568 271.79796 
L 303.892832 269.568 
L 286.1568 263.286982 
L 267.1104 255.982704 
L 248.064 247.964554 
L 229.0176 239.021508 
L 214.929497 231.552 
L 209.9712 229.77274 
L 190.9248 222.566306 
L 171.8784 215.081507 
L 152.832 207.251377 
L 133.7856 198.985598 
L 122.144275 193.536 
L 114.7392 188.833722 
L 95.6928 175.852688 
L 76.6464 162.119051 
L 68.339723 155.52 
L 57.6 143.900773 
L 57.6 151.261218 
L 61.536419 155.52 
L 76.6464 167.523782 
L 95.6928 181.498796 
L 113.086749 193.536 
L 114.7392 194.393597 
L 133.7856 203.332517 
L 152.832 211.718807 
L 171.8784 219.675542 
L 190.9248 227.291777 
L 202.107578 231.552 
L 209.9712 236.231162 
L 229.0176 246.203427 
L 248.064 255.001279 
L 267.1104 262.914726 
L 284.620521 269.568 
L 267.1104 271.758606 
L 248.064 273.997492 
L 229.0176 276.094509 
L 209.9712 278.062727 
L 190.9248 279.91366 
L 171.8784 281.657487 
L 152.832 283.303244 
L 133.7856 284.858978 
L 114.7392 286.331878 
L 95.6928 287.728388 
L 76.6464 289.054301 
L 57.6 290.314838 
L 57.6 291.415031 
z
" clip-path="url(#p2e9734245d)" style="fill: #ededed"/>
   </g>
   <g id="PathCollection_26">
    <path d="M 76.6464 289.054301 
L 95.6928 287.728388 
L 114.7392 286.331878 
L 133.7856 284.858978 
L 152.832 283.303244 
L 171.8784 281.657487 
L 190.9248 279.91366 
L 209.9712 278.062727 
L 229.0176 276.094509 
L 248.064 273.997492 
L 267.1104 271.758606 
L 284.620521 269.568 
L 267.1104 262.914726 
L 248.064 255.001279 
L 229.0176 246.203427 
L 209.9712 236.231162 
L 202.107578 231.552 
L 190.9248 227.291777 
L 171.8784 219.675542 
L 152.832 211.718807 
L 133.7856 203.332517 
L 114.7392 194.393597 
L 113.086749 193.536 
L 95.6928 181.498796 
L 76.6464 167.523782 
L 61.536419 155.52 
L 57.6 151.261218 
L 57.6 155.52 
L 57.6 157.70108 
L 76.6464 172.928513 
L 95.6928 187.144903 
L 104.928035 193.536 
L 114.7392 198.627848 
L 133.7856 207.679436 
L 152.832 216.186236 
L 171.8784 224.269576 
L 189.811014 231.552 
L 190.9248 232.305519 
L 209.9712 243.612038 
L 229.0176 253.385345 
L 248.064 262.038005 
L 266.420604 269.568 
L 248.064 271.857743 
L 229.0176 274.088358 
L 209.9712 276.181969 
L 190.9248 278.150822 
L 171.8784 280.005746 
L 152.832 281.756352 
L 133.7856 283.411199 
L 114.7392 284.977935 
L 95.6928 286.463415 
L 76.6464 287.8738 
L 57.6 289.214644 
L 57.6 290.314838 
z
" clip-path="url(#p2e9734245d)" style="fill: #e6e6e6"/>
   </g>
   <g id="PathCollection_27">
    <path d="M 76.6464 287.8738 
L 95.6928 286.463415 
L 114.7392 284.977935 
L 133.7856 283.411199 
L 152.832 281.756352 
L 171.8784 280.005746 
L 190.9248 278.150822 
L 209.9712 276.181969 
L 229.0176 274.088358 
L 248.064 271.857743 
L 266.420604 269.568 
L 248.064 262.038005 
L 229.0176 253.385345 
L 209.9712 243.612038 
L 190.9248 232.305519 
L 189.811014 231.552 
L 171.8784 224.269576 
L 152.832 216.186236 
L 133.7856 207.679436 
L 114.7392 198.627848 
L 104.928035 193.536 
L 95.6928 187.144903 
L 76.6464 172.928513 
L 57.6 157.70108 
L 57.6 162.876923 
L 76.6464 178.333244 
L 95.6928 192.791011 
L 96.769321 193.536 
L 114.7392 202.862099 
L 133.7856 212.026355 
L 152.832 220.653665 
L 171.8784 228.863611 
L 178.498428 231.552 
L 190.9248 239.958912 
L 209.9712 250.992915 
L 229.0176 260.567264 
L 248.064 269.074731 
L 249.266489 269.568 
L 248.064 269.717995 
L 229.0176 272.082207 
L 209.9712 274.301211 
L 190.9248 276.387984 
L 171.8784 278.354005 
L 152.832 280.20946 
L 133.7856 281.96342 
L 114.7392 283.623993 
L 95.6928 285.198442 
L 76.6464 286.693299 
L 57.6 288.11445 
L 57.6 289.214644 
z
" clip-path="url(#p2e9734245d)" style="fill: #dfdfdf"/>
   </g>
   <g id="PathCollection_28">
    <path d="M 76.6464 286.693299 
L 95.6928 285.198442 
L 114.7392 283.623993 
L 133.7856 281.96342 
L 152.832 280.20946 
L 171.8784 278.354005 
L 190.9248 276.387984 
L 209.9712 274.301211 
L 229.0176 272.082207 
L 248.064 269.717995 
L 249.266489 269.568 
L 248.064 269.074731 
L 229.0176 260.567264 
L 209.9712 250.992915 
L 190.9248 239.958912 
L 178.498428 231.552 
L 171.8784 228.863611 
L 152.832 220.653665 
L 133.7856 212.026355 
L 114.7392 202.862099 
L 96.769321 193.536 
L 95.6928 192.791011 
L 76.6464 178.333244 
L 57.6 162.876923 
L 57.6 168.052766 
L 76.6464 183.737976 
L 89.525768 193.536 
L 95.6928 197.122714 
L 114.7392 207.09635 
L 133.7856 216.373275 
L 152.832 225.121094 
L 167.617744 231.552 
L 171.8784 234.883054 
L 190.9248 247.612306 
L 209.9712 258.373791 
L 229.0176 267.749182 
L 233.094421 269.568 
L 229.0176 270.076057 
L 209.9712 272.420453 
L 190.9248 274.625146 
L 171.8784 276.702264 
L 152.832 278.662567 
L 133.7856 280.515642 
L 114.7392 282.27005 
L 95.6928 283.933469 
L 76.6464 285.512798 
L 57.6 287.014257 
L 57.6 288.11445 
z
" clip-path="url(#p2e9734245d)" style="fill: #d7d7d7"/>
   </g>
   <g id="PathCollection_29">
    <path d="M 76.6464 285.512798 
L 95.6928 283.933469 
L 114.7392 282.27005 
L 133.7856 280.515642 
L 152.832 278.662567 
L 171.8784 276.702264 
L 190.9248 274.625146 
L 209.9712 272.420453 
L 229.0176 270.076057 
L 233.094421 269.568 
L 229.0176 267.749182 
L 209.9712 258.373791 
L 190.9248 247.612306 
L 171.8784 234.883054 
L 167.617744 231.552 
L 152.832 225.121094 
L 133.7856 216.373275 
L 114.7392 207.09635 
L 95.6928 197.122714 
L 89.525768 193.536 
L 76.6464 183.737976 
L 57.6 168.052766 
L 57.6 173.228609 
L 76.6464 189.142707 
L 82.421323 193.536 
L 95.6928 201.254622 
L 114.7392 211.330601 
L 133.7856 220.720194 
L 152.832 229.588523 
L 157.346366 231.552 
L 171.8784 242.913392 
L 190.9248 255.265699 
L 209.9712 265.754668 
L 217.759963 269.568 
L 209.9712 270.539694 
L 190.9248 272.862308 
L 171.8784 275.050523 
L 152.832 277.115675 
L 133.7856 279.067863 
L 114.7392 280.916108 
L 95.6928 282.668497 
L 76.6464 284.332298 
L 57.6 285.914063 
L 57.6 287.014257 
z
" clip-path="url(#p2e9734245d)" style="fill: #cecece"/>
   </g>
   <g id="PathCollection_30">
    <path d="M 76.6464 284.332298 
L 95.6928 282.668497 
L 114.7392 280.916108 
L 133.7856 279.067863 
L 152.832 277.115675 
L 171.8784 275.050523 
L 190.9248 272.862308 
L 209.9712 270.539694 
L 217.759963 269.568 
L 209.9712 265.754668 
L 190.9248 255.265699 
L 171.8784 242.913392 
L 157.346366 231.552 
L 152.832 229.588523 
L 133.7856 220.720194 
L 114.7392 211.330601 
L 95.6928 201.254622 
L 82.421323 193.536 
L 76.6464 189.142707 
L 57.6 173.228609 
L 57.6 178.404453 
L 75.500546 193.536 
L 76.6464 194.292707 
L 95.6928 205.38653 
L 114.7392 215.564852 
L 133.7856 225.067113 
L 147.630423 231.552 
L 152.832 236.351292 
L 171.8784 250.94373 
L 190.9248 262.919092 
L 203.162492 269.568 
L 190.9248 271.099471 
L 171.8784 273.398782 
L 152.832 275.568783 
L 133.7856 277.620084 
L 114.7392 279.562166 
L 95.6928 281.403524 
L 76.6464 283.151797 
L 57.6 284.813869 
L 57.6 285.914063 
z
" clip-path="url(#p2e9734245d)" style="fill: #c5c5c5"/>
   </g>
   <g id="PathCollection_31">
    <path d="M 76.6464 283.151797 
L 95.6928 281.403524 
L 114.7392 279.562166 
L 133.7856 277.620084 
L 152.832 275.568783 
L 171.8784 273.398782 
L 190.9248 271.099471 
L 203.162492 269.568 
L 190.9248 262.919092 
L 171.8784 250.94373 
L 152.832 236.351292 
L 147.630423 231.552 
L 133.7856 225.067113 
L 114.7392 215.564852 
L 95.6928 205.38653 
L 76.6464 194.292707 
L 75.500546 193.536 
L 57.6 178.404453 
L 57.6 183.580296 
L 69.377549 193.536 
L 76.6464 198.336255 
L 95.6928 209.518438 
L 114.7392 219.799102 
L 133.7856 229.414032 
L 138.350026 231.552 
L 152.832 244.913953 
L 171.8784 258.974069 
L 189.201387 269.568 
L 171.8784 271.74704 
L 152.832 274.021891 
L 133.7856 276.172305 
L 114.7392 278.208223 
L 95.6928 280.138551 
L 76.6464 281.971296 
L 57.6 283.713675 
L 57.6 284.813869 
z
" clip-path="url(#p2e9734245d)" style="fill: #bcbcbc"/>
   </g>
   <g id="PathCollection_32">
    <path d="M 76.6464 281.971296 
L 95.6928 280.138551 
L 114.7392 278.208223 
L 133.7856 276.172305 
L 152.832 274.021891 
L 171.8784 271.74704 
L 189.201387 269.568 
L 171.8784 258.974069 
L 152.832 244.913953 
L 138.350026 231.552 
L 133.7856 229.414032 
L 114.7392 219.799102 
L 95.6928 209.518438 
L 76.6464 198.336255 
L 69.377549 193.536 
L 57.6 183.580296 
L 57.6 188.756139 
L 63.254552 193.536 
L 76.6464 202.379803 
L 95.6928 213.650346 
L 114.7392 224.033353 
L 129.547686 231.552 
L 133.7856 236.298714 
L 152.832 253.476614 
L 171.8784 267.004407 
L 176.070337 269.568 
L 171.8784 270.095299 
L 152.832 272.474998 
L 133.7856 274.724527 
L 114.7392 276.854281 
L 95.6928 278.873578 
L 76.6464 280.790795 
L 57.6 282.613482 
L 57.6 283.713675 
z
" clip-path="url(#p2e9734245d)" style="fill: #b1b1b1"/>
   </g>
   <g id="PathCollection_33">
    <path d="M 76.6464 280.790795 
L 95.6928 278.873578 
L 114.7392 276.854281 
L 133.7856 274.724527 
L 152.832 272.474998 
L 171.8784 270.095299 
L 176.070337 269.568 
L 171.8784 267.004407 
L 152.832 253.476614 
L 133.7856 236.298714 
L 129.547686 231.552 
L 114.7392 224.033353 
L 95.6928 213.650346 
L 76.6464 202.379803 
L 63.254552 193.536 
L 57.6 188.756139 
L 57.6 193.536 
L 57.6 193.840094 
L 76.6464 206.423351 
L 95.6928 217.782254 
L 114.7392 228.267604 
L 121.208041 231.552 
L 133.7856 245.639607 
L 152.832 262.039275 
L 163.56689 269.568 
L 152.832 270.928106 
L 133.7856 273.276748 
L 114.7392 275.500338 
L 95.6928 277.608606 
L 76.6464 279.610295 
L 57.6 281.513288 
L 57.6 282.613482 
z
" clip-path="url(#p2e9734245d)" style="fill: #a5a5a5"/>
   </g>
   <g id="PathCollection_34">
    <path d="M 76.6464 279.610295 
L 95.6928 277.608606 
L 114.7392 275.500338 
L 133.7856 273.276748 
L 152.832 270.928106 
L 163.56689 269.568 
L 152.832 262.039275 
L 133.7856 245.639607 
L 121.208041 231.552 
L 114.7392 228.267604 
L 95.6928 217.782254 
L 76.6464 206.423351 
L 57.6 193.840094 
L 57.6 197.81488 
L 76.6464 210.466899 
L 95.6928 221.914162 
L 113.068164 231.552 
L 114.7392 233.917042 
L 133.7856 254.980501 
L 151.465024 269.568 
L 133.7856 271.828969 
L 114.7392 274.146396 
L 95.6928 276.343633 
L 76.6464 278.429794 
L 57.6 280.413094 
L 57.6 281.513288 
z
" clip-path="url(#p2e9734245d)" style="fill: #9b9b9b"/>
   </g>
   <g id="PathCollection_35">
    <path d="M 76.6464 278.429794 
L 95.6928 276.343633 
L 114.7392 274.146396 
L 133.7856 271.828969 
L 151.465024 269.568 
L 133.7856 254.980501 
L 114.7392 233.917042 
L 113.068164 231.552 
L 95.6928 221.914162 
L 76.6464 210.466899 
L 57.6 197.81488 
L 57.6 201.789666 
L 76.6464 214.510447 
L 95.6928 226.04607 
L 105.619044 231.552 
L 114.7392 244.459892 
L 133.7856 264.321394 
L 140.144262 269.568 
L 133.7856 270.38119 
L 114.7392 272.792453 
L 95.6928 275.07866 
L 76.6464 277.249293 
L 57.6 279.312901 
L 57.6 280.413094 
z
" clip-path="url(#p2e9734245d)" style="fill: #8f8f8f"/>
   </g>
   <g id="PathCollection_36">
    <path d="M 76.6464 277.249293 
L 95.6928 275.07866 
L 114.7392 272.792453 
L 133.7856 270.38119 
L 140.144262 269.568 
L 133.7856 264.321394 
L 114.7392 244.459892 
L 105.619044 231.552 
L 95.6928 226.04607 
L 76.6464 214.510447 
L 57.6 201.789666 
L 57.6 205.764452 
L 76.6464 218.553996 
L 95.6928 230.177979 
L 98.169924 231.552 
L 114.7392 255.002743 
L 129.198188 269.568 
L 114.7392 271.438511 
L 95.6928 273.813687 
L 76.6464 276.068793 
L 57.6 278.212707 
L 57.6 279.312901 
z
" clip-path="url(#p2e9734245d)" style="fill: #828282"/>
   </g>
   <g id="PathCollection_37">
    <path d="M 76.6464 276.068793 
L 95.6928 273.813687 
L 114.7392 271.438511 
L 129.198188 269.568 
L 114.7392 255.002743 
L 98.169924 231.552 
L 95.6928 230.177979 
L 76.6464 218.553996 
L 57.6 205.764452 
L 57.6 209.739238 
L 76.6464 222.597544 
L 91.28167 231.552 
L 95.6928 239.943469 
L 114.7392 265.545594 
L 118.732259 269.568 
L 114.7392 270.084569 
L 95.6928 272.548715 
L 76.6464 274.888292 
L 57.6 277.112513 
L 57.6 278.212707 
z
" clip-path="url(#p2e9734245d)" style="fill: #757575"/>
   </g>
   <g id="PathCollection_38">
    <path d="M 76.6464 274.888292 
L 95.6928 272.548715 
L 114.7392 270.084569 
L 118.732259 269.568 
L 114.7392 265.545594 
L 95.6928 239.943469 
L 91.28167 231.552 
L 76.6464 222.597544 
L 57.6 209.739238 
L 57.6 213.714023 
L 76.6464 226.641092 
L 84.672847 231.552 
L 95.6928 252.515697 
L 108.774275 269.568 
L 95.6928 271.283742 
L 76.6464 273.707791 
L 57.6 276.01232 
L 57.6 277.112513 
z
" clip-path="url(#p2e9734245d)" style="fill: #676767"/>
   </g>
   <g id="PathCollection_39">
    <path d="M 76.6464 273.707791 
L 95.6928 271.283742 
L 108.774275 269.568 
L 95.6928 252.515697 
L 84.672847 231.552 
L 76.6464 226.641092 
L 57.6 213.714023 
L 57.6 217.688809 
L 76.6464 230.68464 
L 78.064024 231.552 
L 95.6928 265.087924 
L 99.129637 269.568 
L 95.6928 270.018769 
L 76.6464 272.52729 
L 57.6 274.912126 
L 57.6 276.01232 
z
" clip-path="url(#p2e9734245d)" style="fill: #5c5c5c"/>
   </g>
   <g id="PathCollection_40">
    <path d="M 76.6464 272.52729 
L 95.6928 270.018769 
L 99.129637 269.568 
L 95.6928 265.087924 
L 78.064024 231.552 
L 76.6464 230.68464 
L 57.6 217.688809 
L 57.6 221.663595 
L 72.075797 231.552 
L 76.6464 244.578796 
L 89.992039 269.568 
L 76.6464 271.34679 
L 57.6 273.811932 
L 57.6 274.912126 
z
" clip-path="url(#p2e9734245d)" style="fill: #4e4e4e"/>
   </g>
   <g id="PathCollection_41">
    <path d="M 76.6464 271.34679 
L 89.992039 269.568 
L 76.6464 244.578796 
L 72.075797 231.552 
L 57.6 221.663595 
L 57.6 225.638381 
L 66.257043 231.552 
L 76.6464 261.162978 
L 81.135154 269.568 
L 76.6464 270.166289 
L 57.6 272.711739 
L 57.6 273.811932 
z
" clip-path="url(#p2e9734245d)" style="fill: #424242"/>
   </g>
   <g id="PathCollection_42">
    <path d="M 76.6464 270.166289 
L 81.135154 269.568 
L 76.6464 261.162978 
L 66.257043 231.552 
L 57.6 225.638381 
L 57.6 229.613167 
L 60.438289 231.552 
L 72.650238 269.568 
L 57.6 271.611545 
L 57.6 272.711739 
z
" clip-path="url(#p2e9734245d)" style="fill: #363636"/>
   </g>
   <g id="PathCollection_43">
    <path d="M 72.650238 269.568 
L 60.438289 231.552 
L 57.6 229.613167 
L 57.6 231.552 
L 57.6 245.76901 
L 64.547564 269.568 
L 57.6 270.511351 
L 57.6 271.611545 
z
" clip-path="url(#p2e9734245d)" style="fill: #2a2a2a"/>
   </g>
   <g id="PathCollection_44">
    <path d="M 64.547564 269.568 
L 57.6 245.76901 
L 57.6 269.568 
L 57.6 270.511351 
z
" clip-path="url(#p2e9734245d)" style="fill: #1e1e1e"/>
   </g>
   <g id="matplotlib.axis_1">
    <g id="xtick_1">
     <g id="line2d_1">
      <defs>
       <path id="m284e30a2d0" d="M 0 0 
L 0 3.5 
" style="stroke: #000000; stroke-width: 0.8"/>
      </defs>
      <g>
       <use xlink:href="#m284e30a2d0" x="88.07424" y="307.584" style="stroke: #000000; stroke-width: 0.8"/>
      </g>
     </g>
     <g id="text_1">
      <!-- 0.5 -->
      <g transform="translate(80.122678 322.182437)scale(0.1 -0.1)">
       <defs>
        <path id="DejaVuSans-30" d="M 2034 4250 
Q 1547 4250 1301 3770 
Q 1056 3291 1056 2328 
Q 1056 1369 1301 889 
Q 1547 409 2034 409 
Q 2525 409 2770 889 
Q 3016 1369 3016 2328 
Q 3016 3291 2770 3770 
Q 2525 4250 2034 4250 
z
M 2034 4750 
Q 2819 4750 3233 4129 
Q 3647 3509 3647 2328 
Q 3647 1150 3233 529 
Q 2819 -91 2034 -91 
Q 1250 -91 836 529 
Q 422 1150 422 2328 
Q 422 3509 836 4129 
Q 1250 4750 2034 4750 
z
" transform="scale(0.015625)"/>
        <path id="DejaVuSans-2e" d="M 684 794 
L 1344 794 
L 1344 0 
L 684 0 
L 684 794 
z
" transform="scale(0.015625)"/>
        <path id="DejaVuSans-35" d="M 691 4666 
L 3169 4666 
L 3169 4134 
L 1269 4134 
L 1269 2991 
Q 1406 3038 1543 3061 
Q 1681 3084 1819 3084 
Q 2600 3084 3056 2656 
Q 3513 2228 3513 1497 
Q 3513 744 3044 326 
Q 2575 -91 1722 -91 
Q 1428 -91 1123 -41 
Q 819 9 494 109 
L 494 744 
Q 775 591 1075 516 
Q 1375 441 1709 441 
Q 2250 441 2565 725 
Q 2881 1009 2881 1497 
Q 2881 1984 2565 2268 
Q 2250 2553 1709 2553 
Q 1456 2553 1204 2497 
Q 953 2441 691 2322 
L 691 4666 
z
" transform="scale(0.015625)"/>
       </defs>
       <use xlink:href="#DejaVuSans-30"/>
       <use xlink:href="#DejaVuSans-2e" x="63.623047"/>
       <use xlink:href="#DejaVuSans-35" x="95.410156"/>
      </g>
     </g>
    </g>
    <g id="xtick_2">
     <g id="line2d_2">
      <g>
       <use xlink:href="#m284e30a2d0" x="126.16704" y="307.584" style="stroke: #000000; stroke-width: 0.8"/>
      </g>
     </g>
     <g id="text_2">
      <!-- 1.0 -->
      <g transform="translate(118.215478 322.182437)scale(0.1 -0.1)">
       <defs>
        <path id="DejaVuSans-31" d="M 794 531 
L 1825 531 
L 1825 4091 
L 703 3866 
L 703 4441 
L 1819 4666 
L 2450 4666 
L 2450 531 
L 3481 531 
L 3481 0 
L 794 0 
L 794 531 
z
" transform="scale(0.015625)"/>
       </defs>
       <use xlink:href="#DejaVuSans-31"/>
       <use xlink:href="#DejaVuSans-2e" x="63.623047"/>
       <use xlink:href="#DejaVuSans-30" x="95.410156"/>
      </g>
     </g>
    </g>
    <g id="xtick_3">
     <g id="line2d_3">
      <g>
       <use xlink:href="#m284e30a2d0" x="164.25984" y="307.584" style="stroke: #000000; stroke-width: 0.8"/>
      </g>
     </g>
     <g id="text_3">
      <!-- 1.5 -->
      <g transform="translate(156.308278 322.182437)scale(0.1 -0.1)">
       <use xlink:href="#DejaVuSans-31"/>
       <use xlink:href="#DejaVuSans-2e" x="63.623047"/>
       <use xlink:href="#DejaVuSans-35" x="95.410156"/>
      </g>
     </g>
    </g>
    <g id="xtick_4">
     <g id="line2d_4">
      <g>
       <use xlink:href="#m284e30a2d0" x="202.35264" y="307.584" style="stroke: #000000; stroke-width: 0.8"/>
      </g>
     </g>
     <g id="text_4">
      <!-- 2.0 -->
      <g transform="translate(194.401078 322.182437)scale(0.1 -0.1)">
       <defs>
        <path id="DejaVuSans-32" d="M 1228 531 
L 3431 531 
L 3431 0 
L 469 0 
L 469 531 
Q 828 903 1448 1529 
Q 2069 2156 2228 2338 
Q 2531 2678 2651 2914 
Q 2772 3150 2772 3378 
Q 2772 3750 2511 3984 
Q 2250 4219 1831 4219 
Q 1534 4219 1204 4116 
Q 875 4013 500 3803 
L 500 4441 
Q 881 4594 1212 4672 
Q 1544 4750 1819 4750 
Q 2544 4750 2975 4387 
Q 3406 4025 3406 3419 
Q 3406 3131 3298 2873 
Q 3191 2616 2906 2266 
Q 2828 2175 2409 1742 
Q 1991 1309 1228 531 
z
" transform="scale(0.015625)"/>
       </defs>
       <use xlink:href="#DejaVuSans-32"/>
       <use xlink:href="#DejaVuSans-2e" x="63.623047"/>
       <use xlink:href="#DejaVuSans-30" x="95.410156"/>
      </g>
     </g>
    </g>
    <g id="xtick_5">
     <g id="line2d_5">
      <g>
       <use xlink:href="#m284e30a2d0" x="240.44544" y="307.584" style="stroke: #000000; stroke-width: 0.8"/>
      </g>
     </g>
     <g id="text_5">
      <!-- 2.5 -->
      <g transform="translate(232.493878 322.182437)scale(0.1 -0.1)">
       <use xlink:href="#DejaVuSans-32"/>
       <use xlink:href="#DejaVuSans-2e" x="63.623047"/>
       <use xlink:href="#DejaVuSans-35" x="95.410156"/>
      </g>
     </g>
    </g>
    <g id="xtick_6">
     <g id="line2d_6">
      <g>
       <use xlink:href="#m284e30a2d0" x="278.53824" y="307.584" style="stroke: #000000; stroke-width: 0.8"/>
      </g>
     </g>
     <g id="text_6">
      <!-- 3.0 -->
      <g transform="translate(270.586678 322.182437)scale(0.1 -0.1)">
       <defs>
        <path id="DejaVuSans-33" d="M 2597 2516 
Q 3050 2419 3304 2112 
Q 3559 1806 3559 1356 
Q 3559 666 3084 287 
Q 2609 -91 1734 -91 
Q 1441 -91 1130 -33 
Q 819 25 488 141 
L 488 750 
Q 750 597 1062 519 
Q 1375 441 1716 441 
Q 2309 441 2620 675 
Q 2931 909 2931 1356 
Q 2931 1769 2642 2001 
Q 2353 2234 1838 2234 
L 1294 2234 
L 1294 2753 
L 1863 2753 
Q 2328 2753 2575 2939 
Q 2822 3125 2822 3475 
Q 2822 3834 2567 4026 
Q 2313 4219 1838 4219 
Q 1578 4219 1281 4162 
Q 984 4106 628 3988 
L 628 4550 
Q 988 4650 1302 4700 
Q 1616 4750 1894 4750 
Q 2613 4750 3031 4423 
Q 3450 4097 3450 3541 
Q 3450 3153 3228 2886 
Q 3006 2619 2597 2516 
z
" transform="scale(0.015625)"/>
       </defs>
       <use xlink:href="#DejaVuSans-33"/>
       <use xlink:href="#DejaVuSans-2e" x="63.623047"/>
       <use xlink:href="#DejaVuSans-30" x="95.410156"/>
      </g>
     </g>
    </g>
    <g id="xtick_7">
     <g id="line2d_7">
      <g>
       <use xlink:href="#m284e30a2d0" x="316.63104" y="307.584" style="stroke: #000000; stroke-width: 0.8"/>
      </g>
     </g>
     <g id="text_7">
      <!-- 3.5 -->
      <g transform="translate(308.679478 322.182437)scale(0.1 -0.1)">
       <use xlink:href="#DejaVuSans-33"/>
       <use xlink:href="#DejaVuSans-2e" x="63.623047"/>
       <use xlink:href="#DejaVuSans-35" x="95.410156"/>
      </g>
     </g>
    </g>
    <g id="text_8">
     <!-- storage time -->
     <g transform="translate(168.568312 335.860562)scale(0.1 -0.1)">
      <defs>
       <path id="DejaVuSans-73" d="M 2834 3397 
L 2834 2853 
Q 2591 2978 2328 3040 
Q 2066 3103 1784 3103 
Q 1356 3103 1142 2972 
Q 928 2841 928 2578 
Q 928 2378 1081 2264 
Q 1234 2150 1697 2047 
L 1894 2003 
Q 2506 1872 2764 1633 
Q 3022 1394 3022 966 
Q 3022 478 2636 193 
Q 2250 -91 1575 -91 
Q 1294 -91 989 -36 
Q 684 19 347 128 
L 347 722 
Q 666 556 975 473 
Q 1284 391 1588 391 
Q 1994 391 2212 530 
Q 2431 669 2431 922 
Q 2431 1156 2273 1281 
Q 2116 1406 1581 1522 
L 1381 1569 
Q 847 1681 609 1914 
Q 372 2147 372 2553 
Q 372 3047 722 3315 
Q 1072 3584 1716 3584 
Q 2034 3584 2315 3537 
Q 2597 3491 2834 3397 
z
" transform="scale(0.015625)"/>
       <path id="DejaVuSans-74" d="M 1172 4494 
L 1172 3500 
L 2356 3500 
L 2356 3053 
L 1172 3053 
L 1172 1153 
Q 1172 725 1289 603 
Q 1406 481 1766 481 
L 2356 481 
L 2356 0 
L 1766 0 
Q 1100 0 847 248 
Q 594 497 594 1153 
L 594 3053 
L 172 3053 
L 172 3500 
L 594 3500 
L 594 4494 
L 1172 4494 
z
" transform="scale(0.015625)"/>
       <path id="DejaVuSans-6f" d="M 1959 3097 
Q 1497 3097 1228 2736 
Q 959 2375 959 1747 
Q 959 1119 1226 758 
Q 1494 397 1959 397 
Q 2419 397 2687 759 
Q 2956 1122 2956 1747 
Q 2956 2369 2687 2733 
Q 2419 3097 1959 3097 
z
M 1959 3584 
Q 2709 3584 3137 3096 
Q 3566 2609 3566 1747 
Q 3566 888 3137 398 
Q 2709 -91 1959 -91 
Q 1206 -91 779 398 
Q 353 888 353 1747 
Q 353 2609 779 3096 
Q 1206 3584 1959 3584 
z
" transform="scale(0.015625)"/>
       <path id="DejaVuSans-72" d="M 2631 2963 
Q 2534 3019 2420 3045 
Q 2306 3072 2169 3072 
Q 1681 3072 1420 2755 
Q 1159 2438 1159 1844 
L 1159 0 
L 581 0 
L 581 3500 
L 1159 3500 
L 1159 2956 
Q 1341 3275 1631 3429 
Q 1922 3584 2338 3584 
Q 2397 3584 2469 3576 
Q 2541 3569 2628 3553 
L 2631 2963 
z
" transform="scale(0.015625)"/>
       <path id="DejaVuSans-61" d="M 2194 1759 
Q 1497 1759 1228 1600 
Q 959 1441 959 1056 
Q 959 750 1161 570 
Q 1363 391 1709 391 
Q 2188 391 2477 730 
Q 2766 1069 2766 1631 
L 2766 1759 
L 2194 1759 
z
M 3341 1997 
L 3341 0 
L 2766 0 
L 2766 531 
Q 2569 213 2275 61 
Q 1981 -91 1556 -91 
Q 1019 -91 701 211 
Q 384 513 384 1019 
Q 384 1609 779 1909 
Q 1175 2209 1959 2209 
L 2766 2209 
L 2766 2266 
Q 2766 2663 2505 2880 
Q 2244 3097 1772 3097 
Q 1472 3097 1187 3025 
Q 903 2953 641 2809 
L 641 3341 
Q 956 3463 1253 3523 
Q 1550 3584 1831 3584 
Q 2591 3584 2966 3190 
Q 3341 2797 3341 1997 
z
" transform="scale(0.015625)"/>
       <path id="DejaVuSans-67" d="M 2906 1791 
Q 2906 2416 2648 2759 
Q 2391 3103 1925 3103 
Q 1463 3103 1205 2759 
Q 947 2416 947 1791 
Q 947 1169 1205 825 
Q 1463 481 1925 481 
Q 2391 481 2648 825 
Q 2906 1169 2906 1791 
z
M 3481 434 
Q 3481 -459 3084 -895 
Q 2688 -1331 1869 -1331 
Q 1566 -1331 1297 -1286 
Q 1028 -1241 775 -1147 
L 775 -588 
Q 1028 -725 1275 -790 
Q 1522 -856 1778 -856 
Q 2344 -856 2625 -561 
Q 2906 -266 2906 331 
L 2906 616 
Q 2728 306 2450 153 
Q 2172 0 1784 0 
Q 1141 0 747 490 
Q 353 981 353 1791 
Q 353 2603 747 3093 
Q 1141 3584 1784 3584 
Q 2172 3584 2450 3431 
Q 2728 3278 2906 2969 
L 2906 3500 
L 3481 3500 
L 3481 434 
z
" transform="scale(0.015625)"/>
       <path id="DejaVuSans-65" d="M 3597 1894 
L 3597 1613 
L 953 1613 
Q 991 1019 1311 708 
Q 1631 397 2203 397 
Q 2534 397 2845 478 
Q 3156 559 3463 722 
L 3463 178 
Q 3153 47 2828 -22 
Q 2503 -91 2169 -91 
Q 1331 -91 842 396 
Q 353 884 353 1716 
Q 353 2575 817 3079 
Q 1281 3584 2069 3584 
Q 2775 3584 3186 3129 
Q 3597 2675 3597 1894 
z
M 3022 2063 
Q 3016 2534 2758 2815 
Q 2500 3097 2075 3097 
Q 1594 3097 1305 2825 
Q 1016 2553 972 2059 
L 3022 2063 
z
" transform="scale(0.015625)"/>
       <path id="DejaVuSans-20" transform="scale(0.015625)"/>
       <path id="DejaVuSans-69" d="M 603 3500 
L 1178 3500 
L 1178 0 
L 603 0 
L 603 3500 
z
M 603 4863 
L 1178 4863 
L 1178 4134 
L 603 4134 
L 603 4863 
z
" transform="scale(0.015625)"/>
       <path id="DejaVuSans-6d" d="M 3328 2828 
Q 3544 3216 3844 3400 
Q 4144 3584 4550 3584 
Q 5097 3584 5394 3201 
Q 5691 2819 5691 2113 
L 5691 0 
L 5113 0 
L 5113 2094 
Q 5113 2597 4934 2840 
Q 4756 3084 4391 3084 
Q 3944 3084 3684 2787 
Q 3425 2491 3425 1978 
L 3425 0 
L 2847 0 
L 2847 2094 
Q 2847 2600 2669 2842 
Q 2491 3084 2119 3084 
Q 1678 3084 1418 2786 
Q 1159 2488 1159 1978 
L 1159 0 
L 581 0 
L 581 3500 
L 1159 3500 
L 1159 2956 
Q 1356 3278 1631 3431 
Q 1906 3584 2284 3584 
Q 2666 3584 2933 3390 
Q 3200 3197 3328 2828 
z
" transform="scale(0.015625)"/>
      </defs>
      <use xlink:href="#DejaVuSans-73"/>
      <use xlink:href="#DejaVuSans-74" x="52.099609"/>
      <use xlink:href="#DejaVuSans-6f" x="91.308594"/>
      <use xlink:href="#DejaVuSans-72" x="152.490234"/>
      <use xlink:href="#DejaVuSans-61" x="193.603516"/>
      <use xlink:href="#DejaVuSans-67" x="254.882812"/>
      <use xlink:href="#DejaVuSans-65" x="318.359375"/>
      <use xlink:href="#DejaVuSans-20" x="379.882812"/>
      <use xlink:href="#DejaVuSans-74" x="411.669922"/>
      <use xlink:href="#DejaVuSans-69" x="450.878906"/>
      <use xlink:href="#DejaVuSans-6d" x="478.662109"/>
      <use xlink:href="#DejaVuSans-65" x="576.074219"/>
     </g>
    </g>
   </g>
   <g id="matplotlib.axis_2">
    <g id="ytick_1">
     <g id="line2d_8">
      <defs>
       <path id="m026be5ec06" d="M 0 0 
L -3.5 0 
" style="stroke: #000000; stroke-width: 0.8"/>
      </defs>
      <g>
       <use xlink:href="#m026be5ec06" x="57.6" y="277.1712" style="stroke: #000000; stroke-width: 0.8"/>
      </g>
     </g>
     <g id="text_9">
      <!-- 0.5 -->
      <g transform="translate(34.696875 280.970419)scale(0.1 -0.1)">
       <use xlink:href="#DejaVuSans-30"/>
       <use xlink:href="#DejaVuSans-2e" x="63.623047"/>
       <use xlink:href="#DejaVuSans-35" x="95.410156"/>
      </g>
     </g>
    </g>
    <g id="ytick_2">
     <g id="line2d_9">
      <g>
       <use xlink:href="#m026be5ec06" x="57.6" y="239.1552" style="stroke: #000000; stroke-width: 0.8"/>
      </g>
     </g>
     <g id="text_10">
      <!-- 1.0 -->
      <g transform="translate(34.696875 242.954419)scale(0.1 -0.1)">
       <use xlink:href="#DejaVuSans-31"/>
       <use xlink:href="#DejaVuSans-2e" x="63.623047"/>
       <use xlink:href="#DejaVuSans-30" x="95.410156"/>
      </g>
     </g>
    </g>
    <g id="ytick_3">
     <g id="line2d_10">
      <g>
       <use xlink:href="#m026be5ec06" x="57.6" y="201.1392" style="stroke: #000000; stroke-width: 0.8"/>
      </g>
     </g>
     <g id="text_11">
      <!-- 1.5 -->
      <g transform="translate(34.696875 204.938419)scale(0.1 -0.1)">
       <use xlink:href="#DejaVuSans-31"/>
       <use xlink:href="#DejaVuSans-2e" x="63.623047"/>
       <use xlink:href="#DejaVuSans-35" x="95.410156"/>
      </g>
     </g>
    </g>
    <g id="ytick_4">
     <g id="line2d_11">
      <g>
       <use xlink:href="#m026be5ec06" x="57.6" y="163.1232" style="stroke: #000000; stroke-width: 0.8"/>
      </g>
     </g>
     <g id="text_12">
      <!-- 2.0 -->
      <g transform="translate(34.696875 166.922419)scale(0.1 -0.1)">
       <use xlink:href="#DejaVuSans-32"/>
       <use xlink:href="#DejaVuSans-2e" x="63.623047"/>
       <use xlink:href="#DejaVuSans-30" x="95.410156"/>
      </g>
     </g>
    </g>
    <g id="ytick_5">
     <g id="line2d_12">
      <g>
       <use xlink:href="#m026be5ec06" x="57.6" y="125.1072" style="stroke: #000000; stroke-width: 0.8"/>
      </g>
     </g>
     <g id="text_13">
      <!-- 2.5 -->
      <g transform="translate(34.696875 128.906419)scale(0.1 -0.1)">
       <use xlink:href="#DejaVuSans-32"/>
       <use xlink:href="#DejaVuSans-2e" x="63.623047"/>
       <use xlink:href="#DejaVuSans-35" x="95.410156"/>
      </g>
     </g>
    </g>
    <g id="ytick_6">
     <g id="line2d_13">
      <g>
       <use xlink:href="#m026be5ec06" x="57.6" y="87.0912" style="stroke: #000000; stroke-width: 0.8"/>
      </g>
     </g>
     <g id="text_14">
      <!-- 3.0 -->
      <g transform="translate(34.696875 90.890419)scale(0.1 -0.1)">
       <use xlink:href="#DejaVuSans-33"/>
       <use xlink:href="#DejaVuSans-2e" x="63.623047"/>
       <use xlink:href="#DejaVuSans-30" x="95.410156"/>
      </g>
     </g>
    </g>
    <g id="ytick_7">
     <g id="line2d_14">
      <g>
       <use xlink:href="#m026be5ec06" x="57.6" y="49.0752" style="stroke: #000000; stroke-width: 0.8"/>
      </g>
     </g>
     <g id="text_15">
      <!-- 3.5 -->
      <g transform="translate(34.696875 52.874419)scale(0.1 -0.1)">
       <use xlink:href="#DejaVuSans-33"/>
       <use xlink:href="#DejaVuSans-2e" x="63.623047"/>
       <use xlink:href="#DejaVuSans-35" x="95.410156"/>
      </g>
     </g>
    </g>
    <g id="text_16">
     <!-- storage ratio -->
     <g transform="translate(28.617187 206.639719)rotate(-90)scale(0.1 -0.1)">
      <use xlink:href="#DejaVuSans-73"/>
      <use xlink:href="#DejaVuSans-74" x="52.099609"/>
      <use xlink:href="#DejaVuSans-6f" x="91.308594"/>
      <use xlink:href="#DejaVuSans-72" x="152.490234"/>
      <use xlink:href="#DejaVuSans-61" x="193.603516"/>
      <use xlink:href="#DejaVuSans-67" x="254.882812"/>
      <use xlink:href="#DejaVuSans-65" x="318.359375"/>
      <use xlink:href="#DejaVuSans-20" x="379.882812"/>
      <use xlink:href="#DejaVuSans-72" x="411.669922"/>
      <use xlink:href="#DejaVuSans-61" x="452.783203"/>
      <use xlink:href="#DejaVuSans-74" x="514.0625"/>
      <use xlink:href="#DejaVuSans-69" x="553.271484"/>
      <use xlink:href="#DejaVuSans-6f" x="581.054688"/>
     </g>
    </g>
   </g>
   <g id="patch_3">
    <path d="M 57.6 307.584 
L 57.6 41.472 
" style="fill: none; stroke: #000000; stroke-width: 0.8; stroke-linejoin: miter; stroke-linecap: square"/>
   </g>
   <g id="patch_4">
    <path d="M 343.296 307.584 
L 343.296 41.472 
" style="fill: none; stroke: #000000; stroke-width: 0.8; stroke-linejoin: miter; stroke-linecap: square"/>
   </g>
   <g id="patch_5">
    <path d="M 57.6 307.584 
L 343.296 307.584 
" style="fill: none; stroke: #000000; stroke-width: 0.8; stroke-linejoin: miter; stroke-linecap: square"/>
   </g>
   <g id="patch_6">
    <path d="M 57.6 41.472 
L 343.296 41.472 
" style="fill: none; stroke: #000000; stroke-width: 0.8; stroke-linejoin: miter; stroke-linecap: square"/>
   </g>
   <g id="text_17">
    <!-- storage74! power590! -->
    <g transform="translate(133.303313 35.472)scale(0.12 -0.12)">
     <defs>
      <path id="DejaVuSans-37" d="M 525 4666 
L 3525 4666 
L 3525 4397 
L 1831 0 
L 1172 0 
L 2766 4134 
L 525 4134 
L 525 4666 
z
" transform="scale(0.015625)"/>
      <path id="DejaVuSans-34" d="M 2419 4116 
L 825 1625 
L 2419 1625 
L 2419 4116 
z
M 2253 4666 
L 3047 4666 
L 3047 1625 
L 3713 1625 
L 3713 1100 
L 3047 1100 
L 3047 0 
L 2419 0 
L 2419 1100 
L 313 1100 
L 313 1709 
L 2253 4666 
z
" transform="scale(0.015625)"/>
      <path id="DejaVuSans-21" d="M 966 794 
L 1600 794 
L 1600 0 
L 966 0 
L 966 794 
z
M 966 4666 
L 1600 4666 
L 1600 2619 
L 1538 1503 
L 1031 1503 
L 966 2619 
L 966 4666 
z
" transform="scale(0.015625)"/>
      <path id="DejaVuSans-70" d="M 1159 525 
L 1159 -1331 
L 581 -1331 
L 581 3500 
L 1159 3500 
L 1159 2969 
Q 1341 3281 1617 3432 
Q 1894 3584 2278 3584 
Q 2916 3584 3314 3078 
Q 3713 2572 3713 1747 
Q 3713 922 3314 415 
Q 2916 -91 2278 -91 
Q 1894 -91 1617 61 
Q 1341 213 1159 525 
z
M 3116 1747 
Q 3116 2381 2855 2742 
Q 2594 3103 2138 3103 
Q 1681 3103 1420 2742 
Q 1159 2381 1159 1747 
Q 1159 1113 1420 752 
Q 1681 391 2138 391 
Q 2594 391 2855 752 
Q 3116 1113 3116 1747 
z
" transform="scale(0.015625)"/>
      <path id="DejaVuSans-77" d="M 269 3500 
L 844 3500 
L 1563 769 
L 2278 3500 
L 2956 3500 
L 3675 769 
L 4391 3500 
L 4966 3500 
L 4050 0 
L 3372 0 
L 2619 2869 
L 1863 0 
L 1184 0 
L 269 3500 
z
" transform="scale(0.015625)"/>
      <path id="DejaVuSans-39" d="M 703 97 
L 703 672 
Q 941 559 1184 500 
Q 1428 441 1663 441 
Q 2288 441 2617 861 
Q 2947 1281 2994 2138 
Q 2813 1869 2534 1725 
Q 2256 1581 1919 1581 
Q 1219 1581 811 2004 
Q 403 2428 403 3163 
Q 403 3881 828 4315 
Q 1253 4750 1959 4750 
Q 2769 4750 3195 4129 
Q 3622 3509 3622 2328 
Q 3622 1225 3098 567 
Q 2575 -91 1691 -91 
Q 1453 -91 1209 -44 
Q 966 3 703 97 
z
M 1959 2075 
Q 2384 2075 2632 2365 
Q 2881 2656 2881 3163 
Q 2881 3666 2632 3958 
Q 2384 4250 1959 4250 
Q 1534 4250 1286 3958 
Q 1038 3666 1038 3163 
Q 1038 2656 1286 2365 
Q 1534 2075 1959 2075 
z
" transform="scale(0.015625)"/>
     </defs>
     <use xlink:href="#DejaVuSans-73"/>
     <use xlink:href="#DejaVuSans-74" x="52.099609"/>
     <use xlink:href="#DejaVuSans-6f" x="91.308594"/>
     <use xlink:href="#DejaVuSans-72" x="152.490234"/>
     <use xlink:href="#DejaVuSans-61" x="193.603516"/>
     <use xlink:href="#DejaVuSans-67" x="254.882812"/>
     <use xlink:href="#DejaVuSans-65" x="318.359375"/>
     <use xlink:href="#DejaVuSans-37" x="379.882812"/>
     <use xlink:href="#DejaVuSans-34" x="443.505859"/>
     <use xlink:href="#DejaVuSans-21" x="507.128906"/>
     <use xlink:href="#DejaVuSans-20" x="547.216797"/>
     <use xlink:href="#DejaVuSans-70" x="579.003906"/>
     <use xlink:href="#DejaVuSans-6f" x="642.480469"/>
     <use xlink:href="#DejaVuSans-77" x="703.662109"/>
     <use xlink:href="#DejaVuSans-65" x="785.449219"/>
     <use xlink:href="#DejaVuSans-72" x="846.972656"/>
     <use xlink:href="#DejaVuSans-35" x="888.085938"/>
     <use xlink:href="#DejaVuSans-39" x="951.708984"/>
     <use xlink:href="#DejaVuSans-30" x="1015.332031"/>
     <use xlink:href="#DejaVuSans-21" x="1078.955078"/>
    </g>
   </g>
  </g>
  <g id="axes_2">
   <g id="patch_7">
    <path d="M 361.152 307.584 
L 374.4576 307.584 
L 374.4576 41.472 
L 361.152 41.472 
z
" style="fill: #ffffff"/>
   </g>
   <g id="patch_8">
    <path clip-path="url(#pa2ff942a77)" style="fill: #ffffff; stroke: #ffffff; stroke-width: 0.01; stroke-linejoin: miter"/>
   </g>
   <g id="QuadMesh_1">
    <path d="M 361.152 307.584 
L 374.4576 307.584 
L 374.4576 301.536 
L 361.152 301.536 
L 361.152 307.584 
" clip-path="url(#pa2ff942a77)" style="fill: #6d0220"/>
    <path d="M 361.152 301.536 
L 374.4576 301.536 
L 374.4576 295.488 
L 361.152 295.488 
L 361.152 301.536 
" clip-path="url(#pa2ff942a77)" style="fill: #7f0823"/>
    <path d="M 361.152 295.488 
L 374.4576 295.488 
L 374.4576 289.44 
L 361.152 289.44 
L 361.152 295.488 
" clip-path="url(#pa2ff942a77)" style="fill: #900d26"/>
    <path d="M 361.152 289.44 
L 374.4576 289.44 
L 374.4576 283.392 
L 361.152 283.392 
L 361.152 289.44 
" clip-path="url(#pa2ff942a77)" style="fill: #a21328"/>
    <path d="M 361.152 283.392 
L 374.4576 283.392 
L 374.4576 277.344 
L 361.152 277.344 
L 361.152 283.392 
" clip-path="url(#pa2ff942a77)" style="fill: #b3192c"/>
    <path d="M 361.152 277.344 
L 374.4576 277.344 
L 374.4576 271.296 
L 361.152 271.296 
L 361.152 277.344 
" clip-path="url(#pa2ff942a77)" style="fill: #ba2832"/>
    <path d="M 361.152 271.296 
L 374.4576 271.296 
L 374.4576 265.248 
L 361.152 265.248 
L 361.152 271.296 
" clip-path="url(#pa2ff942a77)" style="fill: #c2383a"/>
    <path d="M 361.152 265.248 
L 374.4576 265.248 
L 374.4576 259.2 
L 361.152 259.2 
L 361.152 265.248 
" clip-path="url(#pa2ff942a77)" style="fill: #cb4942"/>
    <path d="M 361.152 259.2 
L 374.4576 259.2 
L 374.4576 253.152 
L 361.152 253.152 
L 361.152 259.2 
" clip-path="url(#pa2ff942a77)" style="fill: #d35a4a"/>
    <path d="M 361.152 253.152 
L 374.4576 253.152 
L 374.4576 247.104 
L 361.152 247.104 
L 361.152 253.152 
" clip-path="url(#pa2ff942a77)" style="fill: #db6b55"/>
    <path d="M 361.152 247.104 
L 374.4576 247.104 
L 374.4576 241.056 
L 361.152 241.056 
L 361.152 247.104 
" clip-path="url(#pa2ff942a77)" style="fill: #e27b62"/>
    <path d="M 361.152 241.056 
L 374.4576 241.056 
L 374.4576 235.008 
L 361.152 235.008 
L 361.152 241.056 
" clip-path="url(#pa2ff942a77)" style="fill: #e8896c"/>
    <path d="M 361.152 235.008 
L 374.4576 235.008 
L 374.4576 228.96 
L 361.152 228.96 
L 361.152 235.008 
" clip-path="url(#pa2ff942a77)" style="fill: #ef9979"/>
    <path d="M 361.152 228.96 
L 374.4576 228.96 
L 374.4576 222.912 
L 361.152 222.912 
L 361.152 228.96 
" clip-path="url(#pa2ff942a77)" style="fill: #f5a886"/>
    <path d="M 361.152 222.912 
L 374.4576 222.912 
L 374.4576 216.864 
L 361.152 216.864 
L 361.152 222.912 
" clip-path="url(#pa2ff942a77)" style="fill: #f7b596"/>
    <path d="M 361.152 216.864 
L 374.4576 216.864 
L 374.4576 210.816 
L 361.152 210.816 
L 361.152 216.864 
" clip-path="url(#pa2ff942a77)" style="fill: #f9c2a7"/>
    <path d="M 361.152 210.816 
L 374.4576 210.816 
L 374.4576 204.768 
L 361.152 204.768 
L 361.152 210.816 
" clip-path="url(#pa2ff942a77)" style="fill: #fbccb4"/>
    <path d="M 361.152 204.768 
L 374.4576 204.768 
L 374.4576 198.72 
L 361.152 198.72 
L 361.152 204.768 
" clip-path="url(#pa2ff942a77)" style="fill: #fdd9c4"/>
    <path d="M 361.152 198.72 
L 374.4576 198.72 
L 374.4576 192.672 
L 361.152 192.672 
L 361.152 198.72 
" clip-path="url(#pa2ff942a77)" style="fill: #fde2d2"/>
    <path d="M 361.152 192.672 
L 374.4576 192.672 
L 374.4576 186.624 
L 361.152 186.624 
L 361.152 192.672 
" clip-path="url(#pa2ff942a77)" style="fill: #feebdf"/>
    <path d="M 361.152 186.624 
L 374.4576 186.624 
L 374.4576 180.576 
L 361.152 180.576 
L 361.152 186.624 
" clip-path="url(#pa2ff942a77)" style="fill: #fef3ec"/>
    <path d="M 361.152 180.576 
L 374.4576 180.576 
L 374.4576 174.528 
L 361.152 174.528 
L 361.152 180.576 
" clip-path="url(#pa2ff942a77)" style="fill: #fffbfa"/>
    <path d="M 361.152 174.528 
L 374.4576 174.528 
L 374.4576 168.48 
L 361.152 168.48 
L 361.152 174.528 
" clip-path="url(#pa2ff942a77)" style="fill: #fcfcfc"/>
    <path d="M 361.152 168.48 
L 374.4576 168.48 
L 374.4576 162.432 
L 361.152 162.432 
L 361.152 168.48 
" clip-path="url(#pa2ff942a77)" style="fill: #f5f5f5"/>
    <path d="M 361.152 162.432 
L 374.4576 162.432 
L 374.4576 156.384 
L 361.152 156.384 
L 361.152 162.432 
" clip-path="url(#pa2ff942a77)" style="fill: #ededed"/>
    <path d="M 361.152 156.384 
L 374.4576 156.384 
L 374.4576 150.336 
L 361.152 150.336 
L 361.152 156.384 
" clip-path="url(#pa2ff942a77)" style="fill: #e6e6e6"/>
    <path d="M 361.152 150.336 
L 374.4576 150.336 
L 374.4576 144.288 
L 361.152 144.288 
L 361.152 150.336 
" clip-path="url(#pa2ff942a77)" style="fill: #dfdfdf"/>
    <path d="M 361.152 144.288 
L 374.4576 144.288 
L 374.4576 138.24 
L 361.152 138.24 
L 361.152 144.288 
" clip-path="url(#pa2ff942a77)" style="fill: #d7d7d7"/>
    <path d="M 361.152 138.24 
L 374.4576 138.24 
L 374.4576 132.192 
L 361.152 132.192 
L 361.152 138.24 
" clip-path="url(#pa2ff942a77)" style="fill: #cecece"/>
    <path d="M 361.152 132.192 
L 374.4576 132.192 
L 374.4576 126.144 
L 361.152 126.144 
L 361.152 132.192 
" clip-path="url(#pa2ff942a77)" style="fill: #c5c5c5"/>
    <path d="M 361.152 126.144 
L 374.4576 126.144 
L 374.4576 120.096 
L 361.152 120.096 
L 361.152 126.144 
" clip-path="url(#pa2ff942a77)" style="fill: #bcbcbc"/>
    <path d="M 361.152 120.096 
L 374.4576 120.096 
L 374.4576 114.048 
L 361.152 114.048 
L 361.152 120.096 
" clip-path="url(#pa2ff942a77)" style="fill: #b1b1b1"/>
    <path d="M 361.152 114.048 
L 374.4576 114.048 
L 374.4576 108 
L 361.152 108 
L 361.152 114.048 
" clip-path="url(#pa2ff942a77)" style="fill: #a5a5a5"/>
    <path d="M 361.152 108 
L 374.4576 108 
L 374.4576 101.952 
L 361.152 101.952 
L 361.152 108 
" clip-path="url(#pa2ff942a77)" style="fill: #9b9b9b"/>
    <path d="M 361.152 101.952 
L 374.4576 101.952 
L 374.4576 95.904 
L 361.152 95.904 
L 361.152 101.952 
" clip-path="url(#pa2ff942a77)" style="fill: #8f8f8f"/>
    <path d="M 361.152 95.904 
L 374.4576 95.904 
L 374.4576 89.856 
L 361.152 89.856 
L 361.152 95.904 
" clip-path="url(#pa2ff942a77)" style="fill: #828282"/>
    <path d="M 361.152 89.856 
L 374.4576 89.856 
L 374.4576 83.808 
L 361.152 83.808 
L 361.152 89.856 
" clip-path="url(#pa2ff942a77)" style="fill: #757575"/>
    <path d="M 361.152 83.808 
L 374.4576 83.808 
L 374.4576 77.76 
L 361.152 77.76 
L 361.152 83.808 
" clip-path="url(#pa2ff942a77)" style="fill: #676767"/>
    <path d="M 361.152 77.76 
L 374.4576 77.76 
L 374.4576 71.712 
L 361.152 71.712 
L 361.152 77.76 
" clip-path="url(#pa2ff942a77)" style="fill: #5c5c5c"/>
    <path d="M 361.152 71.712 
L 374.4576 71.712 
L 374.4576 65.664 
L 361.152 65.664 
L 361.152 71.712 
" clip-path="url(#pa2ff942a77)" style="fill: #4e4e4e"/>
    <path d="M 361.152 65.664 
L 374.4576 65.664 
L 374.4576 59.616 
L 361.152 59.616 
L 361.152 65.664 
" clip-path="url(#pa2ff942a77)" style="fill: #424242"/>
    <path d="M 361.152 59.616 
L 374.4576 59.616 
L 374.4576 53.568 
L 361.152 53.568 
L 361.152 59.616 
" clip-path="url(#pa2ff942a77)" style="fill: #363636"/>
    <path d="M 361.152 53.568 
L 374.4576 53.568 
L 374.4576 47.52 
L 361.152 47.52 
L 361.152 53.568 
" clip-path="url(#pa2ff942a77)" style="fill: #2a2a2a"/>
    <path d="M 361.152 47.52 
L 374.4576 47.52 
L 374.4576 41.472 
L 361.152 41.472 
L 361.152 47.52 
" clip-path="url(#pa2ff942a77)" style="fill: #1e1e1e"/>
   </g>
   <g id="matplotlib.axis_3">
    <g id="ytick_8">
     <g id="line2d_15">
      <defs>
       <path id="mbd48599f60" d="M 0 0 
L 3.5 0 
" style="stroke: #000000; stroke-width: 0.8"/>
      </defs>
      <g>
       <use xlink:href="#mbd48599f60" x="374.4576" y="307.584" style="stroke: #000000; stroke-width: 0.8"/>
      </g>
     </g>
     <g id="text_18">
      <!-- 1.35 -->
      <g transform="translate(381.4576 311.383219)scale(0.1 -0.1)">
       <use xlink:href="#DejaVuSans-31"/>
       <use xlink:href="#DejaVuSans-2e" x="63.623047"/>
       <use xlink:href="#DejaVuSans-33" x="95.410156"/>
       <use xlink:href="#DejaVuSans-35" x="159.033203"/>
      </g>
     </g>
    </g>
    <g id="ytick_9">
     <g id="line2d_16">
      <g>
       <use xlink:href="#mbd48599f60" x="374.4576" y="277.344" style="stroke: #000000; stroke-width: 0.8"/>
      </g>
     </g>
     <g id="text_19">
      <!-- 2.10 -->
      <g transform="translate(381.4576 281.143219)scale(0.1 -0.1)">
       <use xlink:href="#DejaVuSans-32"/>
       <use xlink:href="#DejaVuSans-2e" x="63.623047"/>
       <use xlink:href="#DejaVuSans-31" x="95.410156"/>
       <use xlink:href="#DejaVuSans-30" x="159.033203"/>
      </g>
     </g>
    </g>
    <g id="ytick_10">
     <g id="line2d_17">
      <g>
       <use xlink:href="#mbd48599f60" x="374.4576" y="247.104" style="stroke: #000000; stroke-width: 0.8"/>
      </g>
     </g>
     <g id="text_20">
      <!-- 2.85 -->
      <g transform="translate(381.4576 250.903219)scale(0.1 -0.1)">
       <defs>
        <path id="DejaVuSans-38" d="M 2034 2216 
Q 1584 2216 1326 1975 
Q 1069 1734 1069 1313 
Q 1069 891 1326 650 
Q 1584 409 2034 409 
Q 2484 409 2743 651 
Q 3003 894 3003 1313 
Q 3003 1734 2745 1975 
Q 2488 2216 2034 2216 
z
M 1403 2484 
Q 997 2584 770 2862 
Q 544 3141 544 3541 
Q 544 4100 942 4425 
Q 1341 4750 2034 4750 
Q 2731 4750 3128 4425 
Q 3525 4100 3525 3541 
Q 3525 3141 3298 2862 
Q 3072 2584 2669 2484 
Q 3125 2378 3379 2068 
Q 3634 1759 3634 1313 
Q 3634 634 3220 271 
Q 2806 -91 2034 -91 
Q 1263 -91 848 271 
Q 434 634 434 1313 
Q 434 1759 690 2068 
Q 947 2378 1403 2484 
z
M 1172 3481 
Q 1172 3119 1398 2916 
Q 1625 2713 2034 2713 
Q 2441 2713 2670 2916 
Q 2900 3119 2900 3481 
Q 2900 3844 2670 4047 
Q 2441 4250 2034 4250 
Q 1625 4250 1398 4047 
Q 1172 3844 1172 3481 
z
" transform="scale(0.015625)"/>
       </defs>
       <use xlink:href="#DejaVuSans-32"/>
       <use xlink:href="#DejaVuSans-2e" x="63.623047"/>
       <use xlink:href="#DejaVuSans-38" x="95.410156"/>
       <use xlink:href="#DejaVuSans-35" x="159.033203"/>
      </g>
     </g>
    </g>
    <g id="ytick_11">
     <g id="line2d_18">
      <g>
       <use xlink:href="#mbd48599f60" x="374.4576" y="216.864" style="stroke: #000000; stroke-width: 0.8"/>
      </g>
     </g>
     <g id="text_21">
      <!-- 3.60 -->
      <g transform="translate(381.4576 220.663219)scale(0.1 -0.1)">
       <defs>
        <path id="DejaVuSans-36" d="M 2113 2584 
Q 1688 2584 1439 2293 
Q 1191 2003 1191 1497 
Q 1191 994 1439 701 
Q 1688 409 2113 409 
Q 2538 409 2786 701 
Q 3034 994 3034 1497 
Q 3034 2003 2786 2293 
Q 2538 2584 2113 2584 
z
M 3366 4563 
L 3366 3988 
Q 3128 4100 2886 4159 
Q 2644 4219 2406 4219 
Q 1781 4219 1451 3797 
Q 1122 3375 1075 2522 
Q 1259 2794 1537 2939 
Q 1816 3084 2150 3084 
Q 2853 3084 3261 2657 
Q 3669 2231 3669 1497 
Q 3669 778 3244 343 
Q 2819 -91 2113 -91 
Q 1303 -91 875 529 
Q 447 1150 447 2328 
Q 447 3434 972 4092 
Q 1497 4750 2381 4750 
Q 2619 4750 2861 4703 
Q 3103 4656 3366 4563 
z
" transform="scale(0.015625)"/>
       </defs>
       <use xlink:href="#DejaVuSans-33"/>
       <use xlink:href="#DejaVuSans-2e" x="63.623047"/>
       <use xlink:href="#DejaVuSans-36" x="95.410156"/>
       <use xlink:href="#DejaVuSans-30" x="159.033203"/>
      </g>
     </g>
    </g>
    <g id="ytick_12">
     <g id="line2d_19">
      <g>
       <use xlink:href="#mbd48599f60" x="374.4576" y="186.624" style="stroke: #000000; stroke-width: 0.8"/>
      </g>
     </g>
     <g id="text_22">
      <!-- 4.35 -->
      <g transform="translate(381.4576 190.423219)scale(0.1 -0.1)">
       <use xlink:href="#DejaVuSans-34"/>
       <use xlink:href="#DejaVuSans-2e" x="63.623047"/>
       <use xlink:href="#DejaVuSans-33" x="95.410156"/>
       <use xlink:href="#DejaVuSans-35" x="159.033203"/>
      </g>
     </g>
    </g>
    <g id="ytick_13">
     <g id="line2d_20">
      <g>
       <use xlink:href="#mbd48599f60" x="374.4576" y="156.384" style="stroke: #000000; stroke-width: 0.8"/>
      </g>
     </g>
     <g id="text_23">
      <!-- 5.10 -->
      <g transform="translate(381.4576 160.183219)scale(0.1 -0.1)">
       <use xlink:href="#DejaVuSans-35"/>
       <use xlink:href="#DejaVuSans-2e" x="63.623047"/>
       <use xlink:href="#DejaVuSans-31" x="95.410156"/>
       <use xlink:href="#DejaVuSans-30" x="159.033203"/>
      </g>
     </g>
    </g>
    <g id="ytick_14">
     <g id="line2d_21">
      <g>
       <use xlink:href="#mbd48599f60" x="374.4576" y="126.144" style="stroke: #000000; stroke-width: 0.8"/>
      </g>
     </g>
     <g id="text_24">
      <!-- 5.85 -->
      <g transform="translate(381.4576 129.943219)scale(0.1 -0.1)">
       <use xlink:href="#DejaVuSans-35"/>
       <use xlink:href="#DejaVuSans-2e" x="63.623047"/>
       <use xlink:href="#DejaVuSans-38" x="95.410156"/>
       <use xlink:href="#DejaVuSans-35" x="159.033203"/>
      </g>
     </g>
    </g>
    <g id="ytick_15">
     <g id="line2d_22">
      <g>
       <use xlink:href="#mbd48599f60" x="374.4576" y="95.904" style="stroke: #000000; stroke-width: 0.8"/>
      </g>
     </g>
     <g id="text_25">
      <!-- 6.60 -->
      <g transform="translate(381.4576 99.703219)scale(0.1 -0.1)">
       <use xlink:href="#DejaVuSans-36"/>
       <use xlink:href="#DejaVuSans-2e" x="63.623047"/>
       <use xlink:href="#DejaVuSans-36" x="95.410156"/>
       <use xlink:href="#DejaVuSans-30" x="159.033203"/>
      </g>
     </g>
    </g>
    <g id="ytick_16">
     <g id="line2d_23">
      <g>
       <use xlink:href="#mbd48599f60" x="374.4576" y="65.664" style="stroke: #000000; stroke-width: 0.8"/>
      </g>
     </g>
     <g id="text_26">
      <!-- 7.35 -->
      <g transform="translate(381.4576 69.463219)scale(0.1 -0.1)">
       <use xlink:href="#DejaVuSans-37"/>
       <use xlink:href="#DejaVuSans-2e" x="63.623047"/>
       <use xlink:href="#DejaVuSans-33" x="95.410156"/>
       <use xlink:href="#DejaVuSans-35" x="159.033203"/>
      </g>
     </g>
    </g>
   </g>
   <g id="LineCollection_1"/>
   <g id="patch_9">
    <path d="M 361.152 307.584 
L 367.8048 307.584 
L 374.4576 307.584 
L 374.4576 41.472 
L 367.8048 41.472 
L 361.152 41.472 
L 361.152 307.584 
z
" style="fill: none; stroke: #000000; stroke-width: 0.8; stroke-linejoin: miter; stroke-linecap: square"/>
   </g>
  </g>
 </g>
 <defs>
  <clipPath id="p2e9734245d">
   <rect x="57.6" y="41.472" width="285.696" height="266.112"/>
  </clipPath>
  <clipPath id="pa2ff942a77">
   <rect x="361.152" y="41.472" width="13.3056" height="266.112"/>
  </clipPath>
 </defs>
</svg>
