<?xml version="1.0" encoding="utf-8" standalone="no"?>
<!DOCTYPE svg PUBLIC "-//W3C//DTD SVG 1.1//EN"
  "http://www.w3.org/Graphics/SVG/1.1/DTD/svg11.dtd">
<svg xmlns:xlink="http://www.w3.org/1999/xlink" width="460.8pt" height="345.6pt" viewBox="0 0 460.8 345.6" xmlns="http://www.w3.org/2000/svg" version="1.1">
 <metadata>
  <rdf:RDF xmlns:dc="http://purl.org/dc/elements/1.1/" xmlns:cc="http://creativecommons.org/ns#" xmlns:rdf="http://www.w3.org/1999/02/22-rdf-syntax-ns#">
   <cc:Work>
    <dc:type rdf:resource="http://purl.org/dc/dcmitype/StillImage"/>
    <dc:date>2023-02-20T15:44:19.116575</dc:date>
    <dc:format>image/svg+xml</dc:format>
    <dc:creator>
     <cc:Agent>
      <dc:title>Matplotlib v3.5.3, https://matplotlib.org/</dc:title>
     </cc:Agent>
    </dc:creator>
   </cc:Work>
  </rdf:RDF>
 </metadata>
 <defs>
  <style type="text/css">*{stroke-linejoin: round; stroke-linecap: butt}</style>
 </defs>
 <g id="figure_1">
  <g id="patch_1">
   <path d="M 0 345.6 
L 460.8 345.6 
L 460.8 0 
L 0 0 
z
" style="fill: #ffffff"/>
  </g>
  <g id="axes_1">
   <g id="patch_2">
    <path d="M 57.6 307.584 
L 343.296 307.584 
L 343.296 41.472 
L 57.6 41.472 
z
" style="fill: #ffffff"/>
   </g>
   <g id="PathCollection_1">
    <path d="M 343.296 47.804897 
L 343.296 41.472 
L 332.621829 41.472 
z
" clip-path="url(#pe583a6efaf)" style="fill: #6d0220"/>
   </g>
   <g id="PathCollection_2">
    <path d="M 343.296 79.498609 
L 343.296 79.488 
L 343.296 47.804897 
L 332.621829 41.472 
L 324.2496 41.472 
L 305.2032 41.472 
L 286.1568 41.472 
L 285.247183 41.472 
L 286.1568 42.105342 
L 305.2032 54.67063 
L 324.2496 67.131442 
L 343.274623 79.488 
z
" clip-path="url(#pe583a6efaf)" style="fill: #7f0823"/>
   </g>
   <g id="PathCollection_3">
    <path d="M 305.2032 82.680044 
L 324.2496 92.758372 
L 343.296 102.747747 
L 343.296 79.498609 
L 343.274623 79.488 
L 324.2496 67.131442 
L 305.2032 54.67063 
L 286.1568 42.105342 
L 285.247183 41.472 
L 267.1104 41.472 
L 248.064 41.472 
L 247.466583 41.472 
L 248.064 41.942317 
L 267.1104 56.040843 
L 286.1568 69.995681 
L 299.407029 79.488 
z
" clip-path="url(#pe583a6efaf)" style="fill: #8d0c25"/>
   </g>
   <g id="PathCollection_4">
    <path d="M 343.296 123.385208 
L 343.296 117.504 
L 343.296 102.747747 
L 324.2496 92.758372 
L 305.2032 82.680044 
L 299.407029 79.488 
L 286.1568 69.995681 
L 267.1104 56.040843 
L 248.064 41.942317 
L 247.466583 41.472 
L 229.0176 41.472 
L 216.795461 41.472 
L 229.0176 51.765663 
L 248.064 67.300002 
L 263.322969 79.488 
L 267.1104 81.830531 
L 286.1568 93.035607 
L 305.2032 104.120422 
L 324.2496 115.102712 
L 328.579154 117.504 
z
" clip-path="url(#pe583a6efaf)" style="fill: #9f1228"/>
   </g>
   <g id="PathCollection_5">
    <path d="M 305.2032 123.102909 
L 324.2496 131.337554 
L 343.296 139.484921 
L 343.296 123.385208 
L 328.579154 117.504 
L 324.2496 115.102712 
L 305.2032 104.120422 
L 286.1568 93.035607 
L 267.1104 81.830531 
L 263.322969 79.488 
L 248.064 67.300002 
L 229.0176 51.765663 
L 216.795461 41.472 
L 209.9712 41.472 
L 190.9248 41.472 
L 190.788523 41.472 
L 190.9248 41.60537 
L 209.9712 58.857149 
L 229.0176 75.859315 
L 233.299218 79.488 
L 248.064 89.21818 
L 267.1104 101.46608 
L 286.1568 113.572999 
L 292.58437 117.504 
z
" clip-path="url(#pe583a6efaf)" style="fill: #b1182b"/>
   </g>
   <g id="PathCollection_6">
    <path d="M 343.296 155.561237 
L 343.296 155.52 
L 343.296 139.484921 
L 324.2496 131.337554 
L 305.2032 123.102909 
L 292.58437 117.504 
L 286.1568 113.572999 
L 267.1104 101.46608 
L 248.064 89.21818 
L 233.299218 79.488 
L 229.0176 75.859315 
L 209.9712 58.857149 
L 190.9248 41.60537 
L 190.788523 41.472 
L 171.8784 41.472 
L 169.167482 41.472 
L 171.8784 44.358508 
L 190.9248 63.177265 
L 207.817684 79.488 
L 209.9712 81.120767 
L 229.0176 94.637923 
L 248.064 107.953239 
L 262.074782 117.504 
L 267.1104 120.014726 
L 286.1568 129.067581 
L 305.2032 138.002463 
L 324.2496 146.836769 
L 343.160485 155.52 
z
" clip-path="url(#pe583a6efaf)" style="fill: #b82531"/>
   </g>
   <g id="PathCollection_7">
    <path d="M 324.2496 159.879761 
L 343.296 165.832837 
L 343.296 155.561237 
L 343.160485 155.52 
L 324.2496 146.836769 
L 305.2032 138.002463 
L 286.1568 129.067581 
L 267.1104 120.014726 
L 262.074782 117.504 
L 248.064 107.953239 
L 229.0176 94.637923 
L 209.9712 81.120767 
L 207.817684 79.488 
L 190.9248 63.177265 
L 171.8784 44.358508 
L 169.167482 41.472 
L 152.832 41.472 
L 150.483463 41.472 
L 152.832 44.213443 
L 171.8784 64.6737 
L 186.151232 79.488 
L 190.9248 83.401146 
L 209.9712 98.060038 
L 229.0176 112.47411 
L 235.973058 117.504 
L 248.064 123.929379 
L 267.1104 133.718051 
L 286.1568 143.368449 
L 305.2032 152.902018 
L 310.640685 155.52 
z
" clip-path="url(#pe583a6efaf)" style="fill: #c13639"/>
   </g>
   <g id="PathCollection_8">
    <path d="M 286.1568 156.902862 
L 305.2032 163.39776 
L 324.2496 169.793645 
L 343.296 176.104438 
L 343.296 165.832837 
L 324.2496 159.879761 
L 310.640685 155.52 
L 305.2032 152.902018 
L 286.1568 143.368449 
L 267.1104 133.718051 
L 248.064 123.929379 
L 235.973058 117.504 
L 229.0176 112.47411 
L 209.9712 98.060038 
L 190.9248 83.401146 
L 186.151232 79.488 
L 171.8784 64.6737 
L 152.832 44.213443 
L 150.483463 41.472 
L 134.153229 41.472 
L 152.832 63.275698 
L 167.278854 79.488 
L 171.8784 83.591144 
L 190.9248 99.445897 
L 209.9712 114.999309 
L 213.223762 117.504 
L 229.0176 126.487961 
L 248.064 137.036515 
L 267.1104 147.421377 
L 282.295237 155.52 
z
" clip-path="url(#pe583a6efaf)" style="fill: #c84440"/>
   </g>
   <g id="PathCollection_9">
    <path d="M 267.1104 159.138194 
L 286.1568 166.103979 
L 305.2032 172.95477 
L 324.2496 179.707529 
L 343.296 186.376039 
L 343.296 176.104438 
L 324.2496 169.793645 
L 305.2032 163.39776 
L 286.1568 156.902862 
L 282.295237 155.52 
L 267.1104 147.421377 
L 248.064 137.036515 
L 229.0176 126.487961 
L 213.223762 117.504 
L 209.9712 114.999309 
L 190.9248 99.445897 
L 171.8784 83.591144 
L 167.278854 79.488 
L 152.832 63.275698 
L 134.153229 41.472 
L 133.7856 41.472 
L 120.301625 41.472 
L 133.7856 58.88514 
L 150.6517 79.488 
L 152.832 81.620791 
L 171.8784 98.744352 
L 190.9248 115.490647 
L 193.369522 117.504 
L 209.9712 127.66143 
L 229.0176 139.000525 
L 248.064 150.143651 
L 257.600939 155.52 
z
" clip-path="url(#pe583a6efaf)" style="fill: #d05548"/>
   </g>
   <g id="PathCollection_10">
    <path d="M 343.296 195.492208 
L 343.296 193.536 
L 343.296 186.376039 
L 324.2496 179.707529 
L 305.2032 172.95477 
L 286.1568 166.103979 
L 267.1104 159.138194 
L 257.600939 155.52 
L 248.064 150.143651 
L 229.0176 139.000525 
L 209.9712 127.66143 
L 193.369522 117.504 
L 190.9248 115.490647 
L 171.8784 98.744352 
L 152.832 81.620791 
L 150.6517 79.488 
L 133.7856 58.88514 
L 120.301625 41.472 
L 114.7392 41.472 
L 107.892958 41.472 
L 114.7392 51.361907 
L 133.7856 76.699316 
L 136.068498 79.488 
L 152.832 95.886223 
L 171.8784 113.897561 
L 175.952964 117.504 
L 190.9248 127.412034 
L 209.9712 139.581378 
L 229.0176 151.51309 
L 235.71973 155.52 
L 248.064 160.529296 
L 267.1104 167.984569 
L 286.1568 175.305096 
L 305.2032 182.51178 
L 324.2496 189.621413 
L 335.027323 193.536 
z
" clip-path="url(#pe583a6efaf)" style="fill: #d7634f"/>
   </g>
   <g id="PathCollection_11">
    <path d="M 324.2496 197.327591 
L 343.296 201.949701 
L 343.296 195.492208 
L 335.027323 193.536 
L 324.2496 189.621413 
L 305.2032 182.51178 
L 286.1568 175.305096 
L 267.1104 167.984569 
L 248.064 160.529296 
L 235.71973 155.52 
L 229.0176 151.51309 
L 209.9712 139.581378 
L 190.9248 127.412034 
L 175.952964 117.504 
L 171.8784 113.897561 
L 152.832 95.886223 
L 136.068498 79.488 
L 133.7856 76.699316 
L 114.7392 51.361907 
L 107.892958 41.472 
L 96.420712 41.472 
L 114.7392 67.934421 
L 123.35803 79.488 
L 133.7856 90.775575 
L 152.832 110.151655 
L 160.516715 117.504 
L 171.8784 125.689793 
L 190.9248 138.741763 
L 209.9712 151.501327 
L 216.285711 155.52 
L 229.0176 161.054163 
L 248.064 169.022289 
L 267.1104 176.830944 
L 286.1568 184.506213 
L 305.2032 192.068791 
L 309.0574 193.536 
z
" clip-path="url(#pe583a6efaf)" style="fill: #de735c"/>
   </g>
   <g id="PathCollection_12">
    <path d="M 76.6464 307.584 
L 95.6928 307.584 
L 114.7392 307.584 
L 133.7856 307.584 
L 152.832 307.584 
L 171.8784 307.584 
L 190.9248 307.584 
L 209.9712 307.584 
L 229.0176 307.584 
L 248.064 307.584 
L 267.1104 307.584 
L 286.1568 307.584 
L 305.2032 307.584 
L 324.2496 307.584 
L 343.296 307.584 
L 343.296 304.896424 
L 324.2496 305.122633 
L 305.2032 305.32537 
L 286.1568 305.50811 
L 267.1104 305.673672 
L 248.064 305.824369 
L 229.0176 305.962117 
L 209.9712 306.088516 
L 190.9248 306.204914 
L 171.8784 306.312452 
L 152.832 306.412105 
L 133.7856 306.504709 
L 114.7392 306.590987 
L 95.6928 306.671566 
L 76.6464 306.746991 
L 57.6 306.817743 
L 57.6 307.584 
z
" clip-path="url(#pe583a6efaf)" style="fill: #e58368"/>
    <path d="M 286.1568 193.645595 
L 305.2032 198.678317 
L 324.2496 203.593225 
L 343.296 208.407194 
L 343.296 201.949701 
L 324.2496 197.327591 
L 309.0574 193.536 
L 305.2032 192.068791 
L 286.1568 184.506213 
L 267.1104 176.830944 
L 248.064 169.022289 
L 229.0176 161.054163 
L 216.285711 155.52 
L 209.9712 151.501327 
L 190.9248 138.741763 
L 171.8784 125.689793 
L 160.516715 117.504 
L 152.832 110.151655 
L 133.7856 90.775575 
L 123.35803 79.488 
L 114.7392 67.934421 
L 96.420712 41.472 
L 95.6928 41.472 
L 86.923494 41.472 
L 95.6928 55.838284 
L 111.612143 79.488 
L 114.7392 83.275408 
L 133.7856 104.158089 
L 146.603404 117.504 
L 152.832 122.427099 
L 171.8784 136.43228 
L 190.9248 150.071492 
L 198.932984 155.52 
L 209.9712 160.684657 
L 229.0176 169.195404 
L 248.064 177.515283 
L 267.1104 185.677318 
L 285.765767 193.536 
z
" clip-path="url(#pe583a6efaf)" style="fill: #e58368"/>
   </g>
   <g id="PathCollection_13">
    <path d="M 76.6464 306.746991 
L 95.6928 306.671566 
L 114.7392 306.590987 
L 133.7856 306.504709 
L 152.832 306.412105 
L 171.8784 306.312452 
L 190.9248 306.204914 
L 209.9712 306.088516 
L 229.0176 305.962117 
L 248.064 305.824369 
L 267.1104 305.673672 
L 286.1568 305.50811 
L 305.2032 305.32537 
L 324.2496 305.122633 
L 343.296 304.896424 
L 343.296 301.037595 
L 324.2496 301.588595 
L 305.2032 302.082424 
L 286.1568 302.527542 
L 267.1104 302.930818 
L 248.064 303.297886 
L 229.0176 303.633413 
L 209.9712 303.941297 
L 190.9248 304.224819 
L 171.8784 304.48676 
L 152.832 304.729495 
L 133.7856 304.955061 
L 114.7392 305.165217 
L 95.6928 305.36149 
L 76.6464 305.545212 
L 57.6 305.717549 
L 57.6 306.817743 
z
" clip-path="url(#pe583a6efaf)" style="fill: #eb9172"/>
    <path d="M 267.1104 194.172176 
L 286.1568 199.53125 
L 305.2032 204.753273 
L 324.2496 209.858859 
L 343.296 214.864686 
L 343.296 208.407194 
L 324.2496 203.593225 
L 305.2032 198.678317 
L 286.1568 193.645595 
L 285.765767 193.536 
L 267.1104 185.677318 
L 248.064 177.515283 
L 229.0176 169.195404 
L 209.9712 160.684657 
L 198.932984 155.52 
L 190.9248 150.071492 
L 171.8784 136.43228 
L 152.832 122.427099 
L 146.603404 117.504 
L 133.7856 104.158089 
L 114.7392 83.275408 
L 111.612143 79.488 
L 95.6928 55.838284 
L 86.923494 41.472 
L 77.56008 41.472 
L 95.6928 71.177862 
L 101.286607 79.488 
L 114.7392 95.78142 
L 133.755656 117.504 
L 133.7856 117.530203 
L 152.832 132.586111 
L 171.8784 147.174768 
L 183.295652 155.52 
L 190.9248 159.384196 
L 209.9712 168.476112 
L 229.0176 177.336644 
L 248.064 186.008276 
L 264.979607 193.536 
z
" clip-path="url(#pe583a6efaf)" style="fill: #eb9172"/>
   </g>
   <g id="PathCollection_14">
    <path d="M 76.6464 305.545212 
L 95.6928 305.36149 
L 114.7392 305.165217 
L 133.7856 304.955061 
L 152.832 304.729495 
L 171.8784 304.48676 
L 190.9248 304.224819 
L 209.9712 303.941297 
L 229.0176 303.633413 
L 248.064 303.297886 
L 267.1104 302.930818 
L 286.1568 302.527542 
L 305.2032 302.082424 
L 324.2496 301.588595 
L 343.296 301.037595 
L 343.296 297.178767 
L 324.2496 298.054557 
L 305.2032 298.839478 
L 286.1568 299.546974 
L 267.1104 300.187964 
L 248.064 300.771402 
L 229.0176 301.304708 
L 209.9712 301.794077 
L 190.9248 302.244724 
L 171.8784 302.661069 
L 152.832 303.046885 
L 133.7856 303.405412 
L 114.7392 303.739446 
L 95.6928 304.051414 
L 76.6464 304.343433 
L 57.6 304.617356 
L 57.6 305.717549 
z
" clip-path="url(#pe583a6efaf)" style="fill: #f2a17f"/>
    <path d="M 248.064 194.162492 
L 267.1104 199.870154 
L 286.1568 205.416906 
L 305.2032 210.828228 
L 324.2496 216.124492 
L 343.296 221.322179 
L 343.296 214.864686 
L 324.2496 209.858859 
L 305.2032 204.753273 
L 286.1568 199.53125 
L 267.1104 194.172176 
L 264.979607 193.536 
L 248.064 186.008276 
L 229.0176 177.336644 
L 209.9712 168.476112 
L 190.9248 159.384196 
L 183.295652 155.52 
L 171.8784 147.174768 
L 152.832 132.586111 
L 133.7856 117.530203 
L 133.755656 117.504 
L 114.7392 95.78142 
L 101.286607 79.488 
L 95.6928 71.177862 
L 77.56008 41.472 
L 76.6464 41.472 
L 69.907108 41.472 
L 76.6464 54.213207 
L 91.810863 79.488 
L 95.6928 84.821281 
L 114.7392 108.287433 
L 122.807599 117.504 
L 133.7856 127.110597 
L 152.832 142.745122 
L 169.007815 155.52 
L 171.8784 157.104345 
L 190.9248 166.828279 
L 209.9712 176.267568 
L 229.0176 185.477885 
L 246.102219 193.536 
z
" clip-path="url(#pe583a6efaf)" style="fill: #f2a17f"/>
   </g>
   <g id="PathCollection_15">
    <path d="M 76.6464 304.343433 
L 95.6928 304.051414 
L 114.7392 303.739446 
L 133.7856 303.405412 
L 152.832 303.046885 
L 171.8784 302.661069 
L 190.9248 302.244724 
L 209.9712 301.794077 
L 229.0176 301.304708 
L 248.064 300.771402 
L 267.1104 300.187964 
L 286.1568 299.546974 
L 305.2032 298.839478 
L 324.2496 298.054557 
L 343.296 297.178767 
L 343.296 293.319938 
L 324.2496 294.520519 
L 305.2032 295.596532 
L 286.1568 296.566406 
L 267.1104 297.445109 
L 248.064 298.244919 
L 229.0176 298.976004 
L 209.9712 299.646858 
L 190.9248 300.264628 
L 171.8784 300.835377 
L 152.832 301.364275 
L 133.7856 301.855764 
L 114.7392 302.313676 
L 95.6928 302.741338 
L 76.6464 303.141653 
L 57.6 303.517162 
L 57.6 304.617356 
z
" clip-path="url(#pe583a6efaf)" style="fill: #f5ac8b"/>
    <path d="M 229.0176 193.590409 
L 248.064 199.67472 
L 267.1104 205.568132 
L 286.1568 211.302561 
L 305.2032 216.903183 
L 324.2496 222.390126 
L 343.296 227.779672 
L 343.296 221.322179 
L 324.2496 216.124492 
L 305.2032 210.828228 
L 286.1568 205.416906 
L 267.1104 199.870154 
L 248.064 194.162492 
L 246.102219 193.536 
L 229.0176 185.477885 
L 209.9712 176.267568 
L 190.9248 166.828279 
L 171.8784 157.104345 
L 169.007815 155.52 
L 152.832 142.745122 
L 133.7856 127.110597 
L 122.807599 117.504 
L 114.7392 108.287433 
L 95.6928 84.821281 
L 91.810863 79.488 
L 76.6464 54.213207 
L 69.907108 41.472 
L 62.439087 41.472 
L 76.6464 68.332137 
L 83.339736 79.488 
L 95.6928 96.459518 
L 112.320485 117.504 
L 114.7392 119.873418 
L 133.7856 136.690991 
L 152.832 152.904134 
L 156.144264 155.52 
L 171.8784 164.204052 
L 190.9248 174.272361 
L 209.9712 184.059024 
L 228.859047 193.536 
z
" clip-path="url(#pe583a6efaf)" style="fill: #f5ac8b"/>
   </g>
   <g id="PathCollection_16">
    <path d="M 76.6464 303.141653 
L 95.6928 302.741338 
L 114.7392 302.313676 
L 133.7856 301.855764 
L 152.832 301.364275 
L 171.8784 300.835377 
L 190.9248 300.264628 
L 209.9712 299.646858 
L 229.0176 298.976004 
L 248.064 298.244919 
L 267.1104 297.445109 
L 286.1568 296.566406 
L 305.2032 295.596532 
L 324.2496 294.520519 
L 343.296 293.319938 
L 343.296 289.46111 
L 324.2496 290.986482 
L 305.2032 292.353586 
L 286.1568 293.585838 
L 267.1104 294.702255 
L 248.064 295.718436 
L 229.0176 296.6473 
L 209.9712 297.499638 
L 190.9248 298.284533 
L 171.8784 299.009685 
L 152.832 299.681666 
L 133.7856 300.306115 
L 114.7392 300.887905 
L 95.6928 301.431263 
L 76.6464 301.939874 
L 57.6 302.416968 
L 57.6 303.517162 
z
" clip-path="url(#pe583a6efaf)" style="fill: #f7b99c"/>
    <path d="M 343.296 234.389507 
L 343.296 231.552 
L 343.296 227.779672 
L 324.2496 222.390126 
L 305.2032 216.903183 
L 286.1568 211.302561 
L 267.1104 205.568132 
L 248.064 199.67472 
L 229.0176 193.590409 
L 228.859047 193.536 
L 209.9712 184.059024 
L 190.9248 174.272361 
L 171.8784 164.204052 
L 156.144264 155.52 
L 152.832 152.904134 
L 133.7856 136.690991 
L 114.7392 119.873418 
L 112.320485 117.504 
L 95.6928 96.459518 
L 83.339736 79.488 
L 76.6464 68.332137 
L 62.439087 41.472 
L 57.6 41.472 
L 57.6 46.018896 
L 75.219389 79.488 
L 76.6464 81.75092 
L 95.6928 108.097755 
L 103.124871 117.504 
L 114.7392 128.881611 
L 133.7856 146.271384 
L 144.551484 155.52 
L 152.832 160.538701 
L 171.8784 171.303759 
L 190.9248 181.716444 
L 209.9712 191.85048 
L 213.330483 193.536 
L 229.0176 198.919202 
L 248.064 205.186948 
L 267.1104 211.26611 
L 286.1568 217.188216 
L 305.2032 222.978139 
L 324.2496 228.655759 
L 334.276265 231.552 
z
" clip-path="url(#pe583a6efaf)" style="fill: #f7b99c"/>
   </g>
   <g id="PathCollection_17">
    <path d="M 76.6464 301.939874 
L 95.6928 301.431263 
L 114.7392 300.887905 
L 133.7856 300.306115 
L 152.832 299.681666 
L 171.8784 299.009685 
L 190.9248 298.284533 
L 209.9712 297.499638 
L 229.0176 296.6473 
L 248.064 295.718436 
L 267.1104 294.702255 
L 286.1568 293.585838 
L 305.2032 292.353586 
L 324.2496 290.986482 
L 343.296 289.46111 
L 343.296 285.602281 
L 324.2496 287.452444 
L 305.2032 289.110639 
L 286.1568 290.605271 
L 267.1104 291.959401 
L 248.064 293.191953 
L 229.0176 294.318596 
L 209.9712 295.352419 
L 190.9248 296.304438 
L 171.8784 297.183994 
L 152.832 297.999056 
L 133.7856 298.756467 
L 114.7392 299.462135 
L 95.6928 300.121187 
L 76.6464 300.738094 
L 57.6 301.316775 
L 57.6 302.416968 
z
" clip-path="url(#pe583a6efaf)" style="fill: #f9c4a9"/>
    <path d="M 324.2496 235.20366 
L 343.296 241.213366 
L 343.296 234.389507 
L 334.276265 231.552 
L 324.2496 228.655759 
L 305.2032 222.978139 
L 286.1568 217.188216 
L 267.1104 211.26611 
L 248.064 205.186948 
L 229.0176 198.919202 
L 213.330483 193.536 
L 209.9712 191.85048 
L 190.9248 181.716444 
L 171.8784 171.303759 
L 152.832 160.538701 
L 144.551484 155.52 
L 133.7856 146.271384 
L 114.7392 128.881611 
L 103.124871 117.504 
L 95.6928 108.097755 
L 76.6464 81.75092 
L 75.219389 79.488 
L 57.6 46.018896 
L 57.6 58.935278 
L 68.419722 79.488 
L 76.6464 92.533669 
L 94.236103 117.504 
L 95.6928 119.123536 
L 114.7392 137.889804 
L 133.454438 155.52 
L 133.7856 155.742449 
L 152.832 167.297822 
L 171.8784 178.403466 
L 190.9248 189.160527 
L 199.087747 193.536 
L 209.9712 197.570471 
L 229.0176 204.247995 
L 248.064 210.699176 
L 267.1104 216.964088 
L 286.1568 223.073872 
L 305.2032 229.053094 
L 313.457994 231.552 
z
" clip-path="url(#pe583a6efaf)" style="fill: #f9c4a9"/>
   </g>
   <g id="PathCollection_18">
    <path d="M 76.6464 300.738094 
L 95.6928 300.121187 
L 114.7392 299.462135 
L 133.7856 298.756467 
L 152.832 297.999056 
L 171.8784 297.183994 
L 190.9248 296.304438 
L 209.9712 295.352419 
L 229.0176 294.318596 
L 248.064 293.191953 
L 267.1104 291.959401 
L 286.1568 290.605271 
L 305.2032 289.110639 
L 324.2496 287.452444 
L 343.296 285.602281 
L 343.296 281.743452 
L 324.2496 283.918406 
L 305.2032 285.867693 
L 286.1568 287.624703 
L 267.1104 289.216547 
L 248.064 290.665469 
L 229.0176 291.989892 
L 209.9712 293.205199 
L 190.9248 294.324343 
L 171.8784 295.358302 
L 152.832 296.316446 
L 133.7856 297.206818 
L 114.7392 298.036365 
L 95.6928 298.811111 
L 76.6464 299.536315 
L 57.6 300.216581 
L 57.6 301.316775 
z
" clip-path="url(#pe583a6efaf)" style="fill: #fbd0b9"/>
    <path d="M 305.2032 235.537551 
L 324.2496 241.994192 
L 343.296 248.037225 
L 343.296 241.213366 
L 324.2496 235.20366 
L 313.457994 231.552 
L 305.2032 229.053094 
L 286.1568 223.073872 
L 267.1104 216.964088 
L 248.064 210.699176 
L 229.0176 204.247995 
L 209.9712 197.570471 
L 199.087747 193.536 
L 190.9248 189.160527 
L 171.8784 178.403466 
L 152.832 167.297822 
L 133.7856 155.742449 
L 133.454438 155.52 
L 114.7392 137.889804 
L 95.6928 119.123536 
L 94.236103 117.504 
L 76.6464 92.533669 
L 68.419722 79.488 
L 57.6 58.935278 
L 57.6 71.851661 
L 61.620055 79.488 
L 76.6464 103.316419 
L 86.640474 117.504 
L 95.6928 127.568253 
L 114.7392 146.897997 
L 123.89184 155.52 
L 133.7856 162.165876 
L 152.832 174.056944 
L 171.8784 185.503172 
L 185.838595 193.536 
L 190.9248 195.585157 
L 209.9712 202.718641 
L 229.0176 209.576788 
L 248.064 216.211405 
L 267.1104 222.662066 
L 286.1568 228.959527 
L 294.308779 231.552 
z
" clip-path="url(#pe583a6efaf)" style="fill: #fbd0b9"/>
   </g>
   <g id="PathCollection_19">
    <path d="M 76.6464 299.536315 
L 95.6928 298.811111 
L 114.7392 298.036365 
L 133.7856 297.206818 
L 152.832 296.316446 
L 171.8784 295.358302 
L 190.9248 294.324343 
L 209.9712 293.205199 
L 229.0176 291.989892 
L 248.064 290.665469 
L 267.1104 289.216547 
L 286.1568 287.624703 
L 305.2032 285.867693 
L 324.2496 283.918406 
L 343.296 281.743452 
L 343.296 277.884624 
L 324.2496 280.384369 
L 305.2032 282.624747 
L 286.1568 284.644135 
L 267.1104 286.473693 
L 248.064 288.138986 
L 229.0176 289.661187 
L 209.9712 291.057979 
L 190.9248 292.344247 
L 171.8784 293.53261 
L 152.832 294.633836 
L 133.7856 295.65717 
L 114.7392 296.610594 
L 95.6928 297.501036 
L 76.6464 298.334536 
L 57.6 299.116387 
L 57.6 300.216581 
z
" clip-path="url(#pe583a6efaf)" style="fill: #fddbc7"/>
    <path d="M 286.1568 235.338442 
L 305.2032 242.308164 
L 324.2496 248.784723 
L 343.296 254.861084 
L 343.296 248.037225 
L 324.2496 241.994192 
L 305.2032 235.537551 
L 294.308779 231.552 
L 286.1568 228.959527 
L 267.1104 222.662066 
L 248.064 216.211405 
L 229.0176 209.576788 
L 209.9712 202.718641 
L 190.9248 195.585157 
L 185.838595 193.536 
L 171.8784 185.503172 
L 152.832 174.056944 
L 133.7856 162.165876 
L 123.89184 155.52 
L 114.7392 146.897997 
L 95.6928 127.568253 
L 86.640474 117.504 
L 76.6464 103.316419 
L 61.620055 79.488 
L 57.6 71.851661 
L 57.6 79.488 
L 57.6 83.55353 
L 76.6464 114.099169 
L 79.044845 117.504 
L 95.6928 136.012971 
L 114.392156 155.52 
L 114.7392 155.781265 
L 133.7856 168.589303 
L 152.832 180.816065 
L 171.8784 192.602879 
L 173.500064 193.536 
L 190.9248 200.55617 
L 209.9712 207.866812 
L 229.0176 214.905582 
L 248.064 221.723633 
L 267.1104 228.360044 
L 276.639247 231.552 
z
" clip-path="url(#pe583a6efaf)" style="fill: #fddbc7"/>
   </g>
   <g id="PathCollection_20">
    <path d="M 76.6464 298.334536 
L 95.6928 297.501036 
L 114.7392 296.610594 
L 133.7856 295.65717 
L 152.832 294.633836 
L 171.8784 293.53261 
L 190.9248 292.344247 
L 209.9712 291.057979 
L 229.0176 289.661187 
L 248.064 288.138986 
L 267.1104 286.473693 
L 286.1568 284.644135 
L 305.2032 282.624747 
L 324.2496 280.384369 
L 343.296 277.884624 
L 343.296 274.025795 
L 324.2496 276.850331 
L 305.2032 279.381801 
L 286.1568 281.663567 
L 267.1104 283.730838 
L 248.064 285.612503 
L 229.0176 287.332483 
L 209.9712 288.91076 
L 190.9248 290.364152 
L 171.8784 291.706918 
L 152.832 292.951226 
L 133.7856 294.107522 
L 114.7392 295.184824 
L 95.6928 296.19096 
L 76.6464 297.132756 
L 57.6 298.016194 
L 57.6 299.116387 
z
" clip-path="url(#pe583a6efaf)" style="fill: #fde3d4"/>
    <path d="M 267.1104 234.53589 
L 286.1568 242.105662 
L 305.2032 249.078777 
L 324.2496 255.575254 
L 343.296 261.684943 
L 343.296 254.861084 
L 324.2496 248.784723 
L 305.2032 242.308164 
L 286.1568 235.338442 
L 276.639247 231.552 
L 267.1104 228.360044 
L 248.064 221.723633 
L 229.0176 214.905582 
L 209.9712 207.866812 
L 190.9248 200.55617 
L 173.500064 193.536 
L 171.8784 192.602879 
L 152.832 180.816065 
L 133.7856 168.589303 
L 114.7392 155.781265 
L 114.392156 155.52 
L 95.6928 136.012971 
L 79.044845 117.504 
L 76.6464 114.099169 
L 57.6 83.55353 
L 57.6 93.498893 
L 72.439663 117.504 
L 76.6464 122.905018 
L 95.6928 144.457689 
L 106.297085 155.52 
L 114.7392 161.875458 
L 133.7856 175.01273 
L 152.832 187.575187 
L 162.42768 193.536 
L 171.8784 197.703559 
L 190.9248 205.527182 
L 209.9712 213.014983 
L 229.0176 220.234375 
L 248.064 227.235861 
L 260.260026 231.552 
z
" clip-path="url(#pe583a6efaf)" style="fill: #fde3d4"/>
   </g>
   <g id="PathCollection_21">
    <path d="M 76.6464 297.132756 
L 95.6928 296.19096 
L 114.7392 295.184824 
L 133.7856 294.107522 
L 152.832 292.951226 
L 171.8784 291.706918 
L 190.9248 290.364152 
L 209.9712 288.91076 
L 229.0176 287.332483 
L 248.064 285.612503 
L 267.1104 283.730838 
L 286.1568 281.663567 
L 305.2032 279.381801 
L 324.2496 276.850331 
L 343.296 274.025795 
L 343.296 270.166967 
L 324.2496 273.316293 
L 305.2032 276.138854 
L 286.1568 278.682999 
L 267.1104 280.987984 
L 248.064 283.08602 
L 229.0176 285.003779 
L 209.9712 286.76354 
L 190.9248 288.384057 
L 171.8784 289.881227 
L 152.832 291.268616 
L 133.7856 292.557873 
L 114.7392 293.759053 
L 95.6928 294.880884 
L 76.6464 295.930977 
L 57.6 296.916 
L 57.6 298.016194 
z
" clip-path="url(#pe583a6efaf)" style="fill: #feece1"/>
    <path d="M 248.064 233.033635 
L 267.1104 241.320404 
L 286.1568 248.872883 
L 305.2032 255.84939 
L 324.2496 262.365785 
L 343.296 268.508802 
L 343.296 261.684943 
L 324.2496 255.575254 
L 305.2032 249.078777 
L 286.1568 242.105662 
L 267.1104 234.53589 
L 260.260026 231.552 
L 248.064 227.235861 
L 229.0176 220.234375 
L 209.9712 213.014983 
L 190.9248 205.527182 
L 171.8784 197.703559 
L 162.42768 193.536 
L 152.832 187.575187 
L 133.7856 175.01273 
L 114.7392 161.875458 
L 106.297085 155.52 
L 95.6928 144.457689 
L 76.6464 122.905018 
L 72.439663 117.504 
L 57.6 93.498893 
L 57.6 103.444256 
L 66.291562 117.504 
L 76.6464 130.798549 
L 95.6928 152.902407 
L 98.202014 155.52 
L 114.7392 167.969652 
L 133.7856 181.436157 
L 151.70825 193.536 
L 152.832 194.082946 
L 171.8784 202.501748 
L 190.9248 210.498195 
L 209.9712 218.163153 
L 229.0176 225.563168 
L 244.981744 231.552 
z
" clip-path="url(#pe583a6efaf)" style="fill: #feece1"/>
   </g>
   <g id="PathCollection_22">
    <path d="M 76.6464 295.930977 
L 95.6928 294.880884 
L 114.7392 293.759053 
L 133.7856 292.557873 
L 152.832 291.268616 
L 171.8784 289.881227 
L 190.9248 288.384057 
L 209.9712 286.76354 
L 229.0176 285.003779 
L 248.064 283.08602 
L 267.1104 280.987984 
L 286.1568 278.682999 
L 305.2032 276.138854 
L 324.2496 273.316293 
L 343.296 270.166967 
L 343.296 269.568 
L 343.296 268.508802 
L 324.2496 262.365785 
L 305.2032 255.84939 
L 286.1568 248.872883 
L 267.1104 241.320404 
L 248.064 233.033635 
L 244.981744 231.552 
L 229.0176 225.563168 
L 209.9712 218.163153 
L 190.9248 210.498195 
L 171.8784 202.501748 
L 152.832 194.082946 
L 151.70825 193.536 
L 133.7856 181.436157 
L 114.7392 167.969652 
L 98.202014 155.52 
L 95.6928 152.902407 
L 76.6464 130.798549 
L 66.291562 117.504 
L 57.6 103.444256 
L 57.6 113.389618 
L 60.14346 117.504 
L 76.6464 138.692081 
L 91.035423 155.52 
L 95.6928 159.504069 
L 114.7392 174.063845 
L 133.7856 187.859583 
L 142.193678 193.536 
L 152.832 198.713835 
L 171.8784 207.299938 
L 190.9248 215.469208 
L 209.9712 223.311324 
L 229.0176 230.891961 
L 230.777034 231.552 
L 248.064 239.861814 
L 267.1104 248.104917 
L 286.1568 255.640103 
L 305.2032 262.620003 
L 324.2496 269.156316 
L 325.524952 269.568 
L 324.2496 269.782255 
L 305.2032 272.895908 
L 286.1568 275.702431 
L 267.1104 278.24513 
L 248.064 280.559537 
L 229.0176 282.675075 
L 209.9712 284.616321 
L 190.9248 286.403962 
L 171.8784 288.055535 
L 152.832 289.586006 
L 133.7856 291.008225 
L 114.7392 292.333283 
L 95.6928 293.570808 
L 76.6464 294.729198 
L 57.6 295.815806 
L 57.6 296.916 
z
" clip-path="url(#pe583a6efaf)" style="fill: #fef3ec"/>
   </g>
   <g id="PathCollection_23">
    <path d="M 76.6464 294.729198 
L 95.6928 293.570808 
L 114.7392 292.333283 
L 133.7856 291.008225 
L 152.832 289.586006 
L 171.8784 288.055535 
L 190.9248 286.403962 
L 209.9712 284.616321 
L 229.0176 282.675075 
L 248.064 280.559537 
L 267.1104 278.24513 
L 286.1568 275.702431 
L 305.2032 272.895908 
L 324.2496 269.782255 
L 325.524952 269.568 
L 324.2496 269.156316 
L 305.2032 262.620003 
L 286.1568 255.640103 
L 267.1104 248.104917 
L 248.064 239.861814 
L 230.777034 231.552 
L 229.0176 230.891961 
L 209.9712 223.311324 
L 190.9248 215.469208 
L 171.8784 207.299938 
L 152.832 198.713835 
L 142.193678 193.536 
L 133.7856 187.859583 
L 114.7392 174.063845 
L 95.6928 159.504069 
L 91.035423 155.52 
L 76.6464 138.692081 
L 60.14346 117.504 
L 57.6 113.389618 
L 57.6 117.504 
L 57.6 121.81944 
L 76.6464 146.585612 
L 84.285914 155.52 
L 95.6928 165.277816 
L 114.7392 180.158039 
L 132.827347 193.536 
L 133.7856 194.055928 
L 152.832 203.344724 
L 171.8784 212.098127 
L 190.9248 220.44022 
L 209.9712 228.459495 
L 217.718276 231.552 
L 229.0176 237.602776 
L 248.064 246.689993 
L 267.1104 254.889431 
L 286.1568 262.407323 
L 305.2032 269.390617 
L 305.719989 269.568 
L 305.2032 269.652962 
L 286.1568 272.721863 
L 267.1104 275.502276 
L 248.064 278.033053 
L 229.0176 280.346371 
L 209.9712 282.469101 
L 190.9248 284.423866 
L 171.8784 286.229843 
L 152.832 287.903397 
L 133.7856 289.458576 
L 114.7392 290.907512 
L 95.6928 292.260733 
L 76.6464 293.527418 
L 57.6 294.715612 
L 57.6 295.815806 
z
" clip-path="url(#pe583a6efaf)" style="fill: #fffbfa"/>
   </g>
   <g id="PathCollection_24">
    <path d="M 76.6464 293.527418 
L 95.6928 292.260733 
L 114.7392 290.907512 
L 133.7856 289.458576 
L 152.832 287.903397 
L 171.8784 286.229843 
L 190.9248 284.423866 
L 209.9712 282.469101 
L 229.0176 280.346371 
L 248.064 278.033053 
L 267.1104 275.502276 
L 286.1568 272.721863 
L 305.2032 269.652962 
L 305.719989 269.568 
L 305.2032 269.390617 
L 286.1568 262.407323 
L 267.1104 254.889431 
L 248.064 246.689993 
L 229.0176 237.602776 
L 217.718276 231.552 
L 209.9712 228.459495 
L 190.9248 220.44022 
L 171.8784 212.098127 
L 152.832 203.344724 
L 133.7856 194.055928 
L 132.827347 193.536 
L 114.7392 180.158039 
L 95.6928 165.277816 
L 84.285914 155.52 
L 76.6464 146.585612 
L 57.6 121.81944 
L 57.6 129.179884 
L 76.6464 154.479143 
L 77.536404 155.52 
L 95.6928 171.051562 
L 114.7392 186.252232 
L 124.587476 193.536 
L 133.7856 198.526705 
L 152.832 207.975613 
L 171.8784 216.896316 
L 190.9248 225.411233 
L 205.318588 231.552 
L 209.9712 234.359131 
L 229.0176 244.508973 
L 248.064 253.518173 
L 267.1104 261.673944 
L 286.1568 269.174543 
L 287.22991 269.568 
L 286.1568 269.741295 
L 267.1104 272.759422 
L 248.064 275.50657 
L 229.0176 278.017666 
L 209.9712 280.321882 
L 190.9248 282.443771 
L 171.8784 284.404152 
L 152.832 286.220787 
L 133.7856 287.908928 
L 114.7392 289.481742 
L 95.6928 290.950657 
L 76.6464 292.325639 
L 57.6 293.615419 
L 57.6 294.715612 
z
" clip-path="url(#pe583a6efaf)" style="fill: #fcfcfc"/>
   </g>
   <g id="PathCollection_25">
    <path d="M 76.6464 292.325639 
L 95.6928 290.950657 
L 114.7392 289.481742 
L 133.7856 287.908928 
L 152.832 286.220787 
L 171.8784 284.404152 
L 190.9248 282.443771 
L 209.9712 280.321882 
L 229.0176 278.017666 
L 248.064 275.50657 
L 267.1104 272.759422 
L 286.1568 269.741295 
L 287.22991 269.568 
L 286.1568 269.174543 
L 267.1104 261.673944 
L 248.064 253.518173 
L 229.0176 244.508973 
L 209.9712 234.359131 
L 205.318588 231.552 
L 190.9248 225.411233 
L 171.8784 216.896316 
L 152.832 207.975613 
L 133.7856 198.526705 
L 124.587476 193.536 
L 114.7392 186.252232 
L 95.6928 171.051562 
L 77.536404 155.52 
L 76.6464 154.479143 
L 57.6 129.179884 
L 57.6 136.540329 
L 71.849144 155.52 
L 76.6464 160.264962 
L 95.6928 176.825308 
L 114.7392 192.346426 
L 116.347606 193.536 
L 133.7856 202.997482 
L 152.832 212.606502 
L 171.8784 221.694506 
L 190.9248 230.382246 
L 193.666672 231.552 
L 209.9712 241.38926 
L 229.0176 251.41517 
L 248.064 260.346352 
L 267.1104 268.458458 
L 269.928257 269.568 
L 267.1104 270.016567 
L 248.064 272.980087 
L 229.0176 275.688962 
L 209.9712 278.174662 
L 190.9248 280.463676 
L 171.8784 282.57846 
L 152.832 284.538177 
L 133.7856 286.359279 
L 114.7392 288.055971 
L 95.6928 289.640581 
L 76.6464 291.12386 
L 57.6 292.515225 
L 57.6 293.615419 
z
" clip-path="url(#pe583a6efaf)" style="fill: #f5f5f5"/>
   </g>
   <g id="PathCollection_26">
    <path d="M 76.6464 291.12386 
L 95.6928 289.640581 
L 114.7392 288.055971 
L 133.7856 286.359279 
L 152.832 284.538177 
L 171.8784 282.57846 
L 190.9248 280.463676 
L 209.9712 278.174662 
L 229.0176 275.688962 
L 248.064 272.980087 
L 267.1104 270.016567 
L 269.928257 269.568 
L 267.1104 268.458458 
L 248.064 260.346352 
L 229.0176 251.41517 
L 209.9712 241.38926 
L 193.666672 231.552 
L 190.9248 230.382246 
L 171.8784 221.694506 
L 152.832 212.606502 
L 133.7856 202.997482 
L 116.347606 193.536 
L 114.7392 192.346426 
L 95.6928 176.825308 
L 76.6464 160.264962 
L 71.849144 155.52 
L 57.6 136.540329 
L 57.6 143.900773 
L 66.32323 155.52 
L 76.6464 165.730639 
L 95.6928 182.599055 
L 109.059963 193.536 
L 114.7392 197.012959 
L 133.7856 207.46826 
L 152.832 217.237391 
L 171.8784 226.492695 
L 182.918391 231.552 
L 190.9248 237.07102 
L 209.9712 248.419388 
L 229.0176 258.321367 
L 248.064 267.174531 
L 253.688574 269.568 
L 248.064 270.453604 
L 229.0176 273.360258 
L 209.9712 276.027443 
L 190.9248 278.483581 
L 171.8784 280.752768 
L 152.832 282.855567 
L 133.7856 284.809631 
L 114.7392 286.630201 
L 95.6928 288.330505 
L 76.6464 289.92208 
L 57.6 291.415031 
L 57.6 292.515225 
z
" clip-path="url(#pe583a6efaf)" style="fill: #efefef"/>
   </g>
   <g id="PathCollection_27">
    <path d="M 76.6464 289.92208 
L 95.6928 288.330505 
L 114.7392 286.630201 
L 133.7856 284.809631 
L 152.832 282.855567 
L 171.8784 280.752768 
L 190.9248 278.483581 
L 209.9712 276.027443 
L 229.0176 273.360258 
L 248.064 270.453604 
L 253.688574 269.568 
L 248.064 267.174531 
L 229.0176 258.321367 
L 209.9712 248.419388 
L 190.9248 237.07102 
L 182.918391 231.552 
L 171.8784 226.492695 
L 152.832 217.237391 
L 133.7856 207.46826 
L 114.7392 197.012959 
L 109.059963 193.536 
L 95.6928 182.599055 
L 76.6464 165.730639 
L 66.32323 155.52 
L 57.6 143.900773 
L 57.6 151.261218 
L 60.797316 155.52 
L 76.6464 171.196316 
L 95.6928 188.372801 
L 102.003275 193.536 
L 114.7392 201.333225 
L 133.7856 211.939037 
L 152.832 221.86828 
L 171.8784 231.290884 
L 172.448185 231.552 
L 190.9248 244.288398 
L 209.9712 255.449517 
L 229.0176 265.227564 
L 238.384402 269.568 
L 229.0176 271.031554 
L 209.9712 273.880223 
L 190.9248 276.503486 
L 171.8784 278.927076 
L 152.832 281.172957 
L 133.7856 283.259982 
L 114.7392 285.204431 
L 95.6928 287.02043 
L 76.6464 288.720301 
L 57.6 290.314838 
L 57.6 291.415031 
z
" clip-path="url(#pe583a6efaf)" style="fill: #e7e7e7"/>
   </g>
   <g id="PathCollection_28">
    <path d="M 76.6464 288.720301 
L 95.6928 287.02043 
L 114.7392 285.204431 
L 133.7856 283.259982 
L 152.832 281.172957 
L 171.8784 278.927076 
L 190.9248 276.503486 
L 209.9712 273.880223 
L 229.0176 271.031554 
L 238.384402 269.568 
L 229.0176 265.227564 
L 209.9712 255.449517 
L 190.9248 244.288398 
L 172.448185 231.552 
L 171.8784 231.290884 
L 152.832 221.86828 
L 133.7856 211.939037 
L 114.7392 201.333225 
L 102.003275 193.536 
L 95.6928 188.372801 
L 76.6464 171.196316 
L 60.797316 155.52 
L 57.6 151.261218 
L 57.6 155.52 
L 57.6 157.70108 
L 76.6464 176.661993 
L 95.062026 193.536 
L 95.6928 193.978331 
L 114.7392 205.653492 
L 133.7856 216.409815 
L 152.832 226.499169 
L 163.035691 231.552 
L 171.8784 238.63952 
L 190.9248 251.505776 
L 209.9712 262.479645 
L 223.889286 269.568 
L 209.9712 271.733004 
L 190.9248 274.52339 
L 171.8784 277.101385 
L 152.832 279.490347 
L 133.7856 281.710334 
L 114.7392 283.77866 
L 95.6928 285.710354 
L 76.6464 287.518521 
L 57.6 289.214644 
L 57.6 290.314838 
z
" clip-path="url(#pe583a6efaf)" style="fill: #e0e0e0"/>
   </g>
   <g id="PathCollection_29">
    <path d="M 76.6464 287.518521 
L 95.6928 285.710354 
L 114.7392 283.77866 
L 133.7856 281.710334 
L 152.832 279.490347 
L 171.8784 277.101385 
L 190.9248 274.52339 
L 209.9712 271.733004 
L 223.889286 269.568 
L 209.9712 262.479645 
L 190.9248 251.505776 
L 171.8784 238.63952 
L 163.035691 231.552 
L 152.832 226.499169 
L 133.7856 216.409815 
L 114.7392 205.653492 
L 95.6928 193.978331 
L 95.062026 193.536 
L 76.6464 176.661993 
L 57.6 157.70108 
L 57.6 162.876923 
L 76.6464 182.127669 
L 89.097002 193.536 
L 95.6928 198.161312 
L 114.7392 209.973758 
L 133.7856 220.880592 
L 152.832 231.130057 
L 153.684071 231.552 
L 171.8784 246.134939 
L 190.9248 258.723154 
L 209.9712 269.509774 
L 210.085528 269.568 
L 209.9712 269.585784 
L 190.9248 272.543295 
L 171.8784 275.275693 
L 152.832 277.807737 
L 133.7856 280.160685 
L 114.7392 282.35289 
L 95.6928 284.400278 
L 76.6464 286.316742 
L 57.6 288.11445 
L 57.6 289.214644 
z
" clip-path="url(#pe583a6efaf)" style="fill: #d9d9d9"/>
   </g>
   <g id="PathCollection_30">
    <path d="M 76.6464 286.316742 
L 95.6928 284.400278 
L 114.7392 282.35289 
L 133.7856 280.160685 
L 152.832 277.807737 
L 171.8784 275.275693 
L 190.9248 272.543295 
L 209.9712 269.585784 
L 210.085528 269.568 
L 209.9712 269.509774 
L 190.9248 258.723154 
L 171.8784 246.134939 
L 153.684071 231.552 
L 152.832 231.130057 
L 133.7856 220.880592 
L 114.7392 209.973758 
L 95.6928 198.161312 
L 89.097002 193.536 
L 76.6464 182.127669 
L 57.6 162.876923 
L 57.6 168.052766 
L 76.6464 187.593346 
L 83.131977 193.536 
L 95.6928 202.344293 
L 114.7392 214.294024 
L 133.7856 225.35137 
L 145.291745 231.552 
L 152.832 238.741559 
L 171.8784 253.630357 
L 190.9248 265.940531 
L 197.330899 269.568 
L 190.9248 270.5632 
L 171.8784 273.450001 
L 152.832 276.125127 
L 133.7856 278.611037 
L 114.7392 280.927119 
L 95.6928 283.090203 
L 76.6464 285.114963 
L 57.6 287.014257 
L 57.6 288.11445 
z
" clip-path="url(#pe583a6efaf)" style="fill: #d0d0d0"/>
   </g>
   <g id="PathCollection_31">
    <path d="M 76.6464 285.114963 
L 95.6928 283.090203 
L 114.7392 280.927119 
L 133.7856 278.611037 
L 152.832 276.125127 
L 171.8784 273.450001 
L 190.9248 270.5632 
L 197.330899 269.568 
L 190.9248 265.940531 
L 171.8784 253.630357 
L 152.832 238.741559 
L 145.291745 231.552 
L 133.7856 225.35137 
L 114.7392 214.294024 
L 95.6928 202.344293 
L 83.131977 193.536 
L 76.6464 187.593346 
L 57.6 168.052766 
L 57.6 173.228609 
L 76.6464 193.059023 
L 77.166953 193.536 
L 95.6928 206.527274 
L 114.7392 218.61429 
L 133.7856 229.822147 
L 136.995586 231.552 
L 152.832 246.651863 
L 171.8784 261.125775 
L 185.090257 269.568 
L 171.8784 271.624309 
L 152.832 274.442518 
L 133.7856 277.061388 
L 114.7392 279.501349 
L 95.6928 281.780127 
L 76.6464 283.913183 
L 57.6 285.914063 
L 57.6 287.014257 
z
" clip-path="url(#pe583a6efaf)" style="fill: #c8c8c8"/>
   </g>
   <g id="PathCollection_32">
    <path d="M 76.6464 283.913183 
L 95.6928 281.780127 
L 114.7392 279.501349 
L 133.7856 277.061388 
L 152.832 274.442518 
L 171.8784 271.624309 
L 185.090257 269.568 
L 171.8784 261.125775 
L 152.832 246.651863 
L 136.995586 231.552 
L 133.7856 229.822147 
L 114.7392 218.61429 
L 95.6928 206.527274 
L 77.166953 193.536 
L 76.6464 193.059023 
L 57.6 173.228609 
L 57.6 178.404453 
L 72.114794 193.536 
L 76.6464 197.245923 
L 95.6928 210.710254 
L 114.7392 222.934557 
L 129.307806 231.552 
L 133.7856 236.791085 
L 152.832 254.562168 
L 171.8784 268.621194 
L 173.360127 269.568 
L 171.8784 269.798618 
L 152.832 272.759908 
L 133.7856 275.51174 
L 114.7392 278.075578 
L 95.6928 280.470051 
L 76.6464 282.711404 
L 57.6 284.813869 
L 57.6 285.914063 
z
" clip-path="url(#pe583a6efaf)" style="fill: #bfbfbf"/>
   </g>
   <g id="PathCollection_33">
    <path d="M 76.6464 282.711404 
L 95.6928 280.470051 
L 114.7392 278.075578 
L 133.7856 275.51174 
L 152.832 272.759908 
L 171.8784 269.798618 
L 173.360127 269.568 
L 171.8784 268.621194 
L 152.832 254.562168 
L 133.7856 236.791085 
L 129.307806 231.552 
L 114.7392 222.934557 
L 95.6928 210.710254 
L 76.6464 197.245923 
L 72.114794 193.536 
L 57.6 178.404453 
L 57.6 183.580296 
L 67.149916 193.536 
L 76.6464 201.310558 
L 95.6928 214.893235 
L 114.7392 227.254823 
L 122.003986 231.552 
L 133.7856 245.336664 
L 152.832 262.472472 
L 162.4806 269.568 
L 152.832 271.077298 
L 133.7856 273.962091 
L 114.7392 276.649808 
L 95.6928 279.159975 
L 76.6464 281.509625 
L 57.6 283.713675 
L 57.6 284.813869 
z
" clip-path="url(#pe583a6efaf)" style="fill: #b7b7b7"/>
   </g>
   <g id="PathCollection_34">
    <path d="M 76.6464 281.509625 
L 95.6928 279.159975 
L 114.7392 276.649808 
L 133.7856 273.962091 
L 152.832 271.077298 
L 162.4806 269.568 
L 152.832 262.472472 
L 133.7856 245.336664 
L 122.003986 231.552 
L 114.7392 227.254823 
L 95.6928 214.893235 
L 76.6464 201.310558 
L 67.149916 193.536 
L 57.6 183.580296 
L 57.6 188.756139 
L 62.185037 193.536 
L 76.6464 205.375192 
L 95.6928 219.076216 
L 114.705132 231.552 
L 114.7392 231.603147 
L 133.7856 253.882242 
L 151.819995 269.568 
L 133.7856 272.412443 
L 114.7392 275.224038 
L 95.6928 277.8499 
L 76.6464 280.307845 
L 57.6 282.613482 
L 57.6 283.713675 
z
" clip-path="url(#pe583a6efaf)" style="fill: #ababab"/>
   </g>
   <g id="PathCollection_35">
    <path d="M 76.6464 280.307845 
L 95.6928 277.8499 
L 114.7392 275.224038 
L 133.7856 272.412443 
L 151.819995 269.568 
L 133.7856 253.882242 
L 114.7392 231.603147 
L 114.705132 231.552 
L 95.6928 219.076216 
L 76.6464 205.375192 
L 62.185037 193.536 
L 57.6 188.756139 
L 57.6 193.536 
L 57.6 193.840094 
L 76.6464 209.439827 
L 95.6928 223.259196 
L 108.330525 231.552 
L 114.7392 241.173303 
L 133.7856 262.42782 
L 141.994882 269.568 
L 133.7856 270.862795 
L 114.7392 273.798267 
L 95.6928 276.539824 
L 76.6464 279.106066 
L 57.6 281.513288 
L 57.6 282.613482 
z
" clip-path="url(#pe583a6efaf)" style="fill: #9f9f9f"/>
   </g>
   <g id="PathCollection_36">
    <path d="M 76.6464 279.106066 
L 95.6928 276.539824 
L 114.7392 273.798267 
L 133.7856 270.862795 
L 141.994882 269.568 
L 133.7856 262.42782 
L 114.7392 241.173303 
L 108.330525 231.552 
L 95.6928 223.259196 
L 76.6464 209.439827 
L 57.6 193.840094 
L 57.6 197.81488 
L 76.6464 213.504461 
L 95.6928 227.442177 
L 101.955919 231.552 
L 114.7392 250.74346 
L 132.31602 269.568 
L 114.7392 272.372497 
L 95.6928 275.229748 
L 76.6464 277.904287 
L 57.6 280.413094 
L 57.6 281.513288 
z
" clip-path="url(#pe583a6efaf)" style="fill: #959595"/>
   </g>
   <g id="PathCollection_37">
    <path d="M 76.6464 277.904287 
L 95.6928 275.229748 
L 114.7392 272.372497 
L 132.31602 269.568 
L 114.7392 250.74346 
L 101.955919 231.552 
L 95.6928 227.442177 
L 76.6464 213.504461 
L 57.6 197.81488 
L 57.6 201.789666 
L 76.6464 217.569096 
L 95.596459 231.552 
L 95.6928 231.751114 
L 114.7392 260.313617 
L 123.380188 269.568 
L 114.7392 270.946726 
L 95.6928 273.919673 
L 76.6464 276.702507 
L 57.6 279.312901 
L 57.6 280.413094 
z
" clip-path="url(#pe583a6efaf)" style="fill: #898989"/>
   </g>
   <g id="PathCollection_38">
    <path d="M 76.6464 276.702507 
L 95.6928 273.919673 
L 114.7392 270.946726 
L 123.380188 269.568 
L 114.7392 260.313617 
L 95.6928 231.751114 
L 95.596459 231.552 
L 76.6464 217.569096 
L 57.6 201.789666 
L 57.6 205.764452 
L 76.6464 221.63373 
L 90.087943 231.552 
L 95.6928 243.135928 
L 114.472308 269.568 
L 95.6928 272.609597 
L 76.6464 275.500728 
L 57.6 278.212707 
L 57.6 279.312901 
z
" clip-path="url(#pe583a6efaf)" style="fill: #7e7e7e"/>
   </g>
   <g id="PathCollection_39">
    <path d="M 76.6464 275.500728 
L 95.6928 272.609597 
L 114.472308 269.568 
L 95.6928 243.135928 
L 90.087943 231.552 
L 76.6464 221.63373 
L 57.6 205.764452 
L 57.6 209.739238 
L 76.6464 225.698365 
L 84.579426 231.552 
L 95.6928 254.520743 
L 106.383603 269.568 
L 95.6928 271.299521 
L 76.6464 274.298948 
L 57.6 277.112513 
L 57.6 278.212707 
z
" clip-path="url(#pe583a6efaf)" style="fill: #707070"/>
   </g>
   <g id="PathCollection_40">
    <path d="M 76.6464 274.298948 
L 95.6928 271.299521 
L 106.383603 269.568 
L 95.6928 254.520743 
L 84.579426 231.552 
L 76.6464 225.698365 
L 57.6 209.739238 
L 57.6 213.714023 
L 76.6464 229.762999 
L 79.070909 231.552 
L 95.6928 265.905557 
L 98.294899 269.568 
L 95.6928 269.989445 
L 76.6464 273.097169 
L 57.6 276.01232 
L 57.6 277.112513 
z
" clip-path="url(#pe583a6efaf)" style="fill: #656565"/>
   </g>
   <g id="PathCollection_41">
    <path d="M 76.6464 273.097169 
L 95.6928 269.989445 
L 98.294899 269.568 
L 95.6928 265.905557 
L 79.070909 231.552 
L 76.6464 229.762999 
L 57.6 213.714023 
L 57.6 217.688809 
L 74.011942 231.552 
L 76.6464 240.077481 
L 90.752213 269.568 
L 76.6464 271.89539 
L 57.6 274.912126 
L 57.6 276.01232 
z
" clip-path="url(#pe583a6efaf)" style="fill: #575757"/>
   </g>
   <g id="PathCollection_42">
    <path d="M 76.6464 271.89539 
L 90.752213 269.568 
L 76.6464 240.077481 
L 74.011942 231.552 
L 57.6 217.688809 
L 57.6 221.663595 
L 69.306391 231.552 
L 76.6464 255.305312 
L 83.468485 269.568 
L 76.6464 270.69361 
L 57.6 273.811932 
L 57.6 274.912126 
z
" clip-path="url(#pe583a6efaf)" style="fill: #4c4c4c"/>
   </g>
   <g id="PathCollection_43">
    <path d="M 76.6464 270.69361 
L 83.468485 269.568 
L 76.6464 255.305312 
L 69.306391 231.552 
L 57.6 221.663595 
L 57.6 225.638381 
L 64.600839 231.552 
L 76.233104 269.568 
L 57.6 272.711739 
L 57.6 273.811932 
z
" clip-path="url(#pe583a6efaf)" style="fill: #404040"/>
   </g>
   <g id="PathCollection_44">
    <path d="M 76.233104 269.568 
L 64.600839 231.552 
L 57.6 225.638381 
L 57.6 229.613167 
L 59.895288 231.552 
L 69.712198 269.568 
L 57.6 271.611545 
L 57.6 272.711739 
z
" clip-path="url(#pe583a6efaf)" style="fill: #343434"/>
   </g>
   <g id="PathCollection_45">
    <path d="M 69.712198 269.568 
L 59.895288 231.552 
L 57.6 229.613167 
L 57.6 231.552 
L 57.6 245.76901 
L 63.191292 269.568 
L 57.6 270.511351 
L 57.6 271.611545 
z
" clip-path="url(#pe583a6efaf)" style="fill: #2a2a2a"/>
   </g>
   <g id="PathCollection_46">
    <path d="M 63.191292 269.568 
L 57.6 245.76901 
L 57.6 269.568 
L 57.6 270.511351 
z
" clip-path="url(#pe583a6efaf)" style="fill: #1e1e1e"/>
   </g>
   <g id="matplotlib.axis_1">
    <g id="xtick_1">
     <g id="line2d_1">
      <defs>
       <path id="m80af494da4" d="M 0 0 
L 0 3.5 
" style="stroke: #000000; stroke-width: 0.8"/>
      </defs>
      <g>
       <use xlink:href="#m80af494da4" x="88.07424" y="307.584" style="stroke: #000000; stroke-width: 0.8"/>
      </g>
     </g>
     <g id="text_1">
      <!-- 0.5 -->
      <g transform="translate(80.122678 322.182437)scale(0.1 -0.1)">
       <defs>
        <path id="DejaVuSans-30" d="M 2034 4250 
Q 1547 4250 1301 3770 
Q 1056 3291 1056 2328 
Q 1056 1369 1301 889 
Q 1547 409 2034 409 
Q 2525 409 2770 889 
Q 3016 1369 3016 2328 
Q 3016 3291 2770 3770 
Q 2525 4250 2034 4250 
z
M 2034 4750 
Q 2819 4750 3233 4129 
Q 3647 3509 3647 2328 
Q 3647 1150 3233 529 
Q 2819 -91 2034 -91 
Q 1250 -91 836 529 
Q 422 1150 422 2328 
Q 422 3509 836 4129 
Q 1250 4750 2034 4750 
z
" transform="scale(0.015625)"/>
        <path id="DejaVuSans-2e" d="M 684 794 
L 1344 794 
L 1344 0 
L 684 0 
L 684 794 
z
" transform="scale(0.015625)"/>
        <path id="DejaVuSans-35" d="M 691 4666 
L 3169 4666 
L 3169 4134 
L 1269 4134 
L 1269 2991 
Q 1406 3038 1543 3061 
Q 1681 3084 1819 3084 
Q 2600 3084 3056 2656 
Q 3513 2228 3513 1497 
Q 3513 744 3044 326 
Q 2575 -91 1722 -91 
Q 1428 -91 1123 -41 
Q 819 9 494 109 
L 494 744 
Q 775 591 1075 516 
Q 1375 441 1709 441 
Q 2250 441 2565 725 
Q 2881 1009 2881 1497 
Q 2881 1984 2565 2268 
Q 2250 2553 1709 2553 
Q 1456 2553 1204 2497 
Q 953 2441 691 2322 
L 691 4666 
z
" transform="scale(0.015625)"/>
       </defs>
       <use xlink:href="#DejaVuSans-30"/>
       <use xlink:href="#DejaVuSans-2e" x="63.623047"/>
       <use xlink:href="#DejaVuSans-35" x="95.410156"/>
      </g>
     </g>
    </g>
    <g id="xtick_2">
     <g id="line2d_2">
      <g>
       <use xlink:href="#m80af494da4" x="126.16704" y="307.584" style="stroke: #000000; stroke-width: 0.8"/>
      </g>
     </g>
     <g id="text_2">
      <!-- 1.0 -->
      <g transform="translate(118.215478 322.182437)scale(0.1 -0.1)">
       <defs>
        <path id="DejaVuSans-31" d="M 794 531 
L 1825 531 
L 1825 4091 
L 703 3866 
L 703 4441 
L 1819 4666 
L 2450 4666 
L 2450 531 
L 3481 531 
L 3481 0 
L 794 0 
L 794 531 
z
" transform="scale(0.015625)"/>
       </defs>
       <use xlink:href="#DejaVuSans-31"/>
       <use xlink:href="#DejaVuSans-2e" x="63.623047"/>
       <use xlink:href="#DejaVuSans-30" x="95.410156"/>
      </g>
     </g>
    </g>
    <g id="xtick_3">
     <g id="line2d_3">
      <g>
       <use xlink:href="#m80af494da4" x="164.25984" y="307.584" style="stroke: #000000; stroke-width: 0.8"/>
      </g>
     </g>
     <g id="text_3">
      <!-- 1.5 -->
      <g transform="translate(156.308278 322.182437)scale(0.1 -0.1)">
       <use xlink:href="#DejaVuSans-31"/>
       <use xlink:href="#DejaVuSans-2e" x="63.623047"/>
       <use xlink:href="#DejaVuSans-35" x="95.410156"/>
      </g>
     </g>
    </g>
    <g id="xtick_4">
     <g id="line2d_4">
      <g>
       <use xlink:href="#m80af494da4" x="202.35264" y="307.584" style="stroke: #000000; stroke-width: 0.8"/>
      </g>
     </g>
     <g id="text_4">
      <!-- 2.0 -->
      <g transform="translate(194.401078 322.182437)scale(0.1 -0.1)">
       <defs>
        <path id="DejaVuSans-32" d="M 1228 531 
L 3431 531 
L 3431 0 
L 469 0 
L 469 531 
Q 828 903 1448 1529 
Q 2069 2156 2228 2338 
Q 2531 2678 2651 2914 
Q 2772 3150 2772 3378 
Q 2772 3750 2511 3984 
Q 2250 4219 1831 4219 
Q 1534 4219 1204 4116 
Q 875 4013 500 3803 
L 500 4441 
Q 881 4594 1212 4672 
Q 1544 4750 1819 4750 
Q 2544 4750 2975 4387 
Q 3406 4025 3406 3419 
Q 3406 3131 3298 2873 
Q 3191 2616 2906 2266 
Q 2828 2175 2409 1742 
Q 1991 1309 1228 531 
z
" transform="scale(0.015625)"/>
       </defs>
       <use xlink:href="#DejaVuSans-32"/>
       <use xlink:href="#DejaVuSans-2e" x="63.623047"/>
       <use xlink:href="#DejaVuSans-30" x="95.410156"/>
      </g>
     </g>
    </g>
    <g id="xtick_5">
     <g id="line2d_5">
      <g>
       <use xlink:href="#m80af494da4" x="240.44544" y="307.584" style="stroke: #000000; stroke-width: 0.8"/>
      </g>
     </g>
     <g id="text_5">
      <!-- 2.5 -->
      <g transform="translate(232.493878 322.182437)scale(0.1 -0.1)">
       <use xlink:href="#DejaVuSans-32"/>
       <use xlink:href="#DejaVuSans-2e" x="63.623047"/>
       <use xlink:href="#DejaVuSans-35" x="95.410156"/>
      </g>
     </g>
    </g>
    <g id="xtick_6">
     <g id="line2d_6">
      <g>
       <use xlink:href="#m80af494da4" x="278.53824" y="307.584" style="stroke: #000000; stroke-width: 0.8"/>
      </g>
     </g>
     <g id="text_6">
      <!-- 3.0 -->
      <g transform="translate(270.586678 322.182437)scale(0.1 -0.1)">
       <defs>
        <path id="DejaVuSans-33" d="M 2597 2516 
Q 3050 2419 3304 2112 
Q 3559 1806 3559 1356 
Q 3559 666 3084 287 
Q 2609 -91 1734 -91 
Q 1441 -91 1130 -33 
Q 819 25 488 141 
L 488 750 
Q 750 597 1062 519 
Q 1375 441 1716 441 
Q 2309 441 2620 675 
Q 2931 909 2931 1356 
Q 2931 1769 2642 2001 
Q 2353 2234 1838 2234 
L 1294 2234 
L 1294 2753 
L 1863 2753 
Q 2328 2753 2575 2939 
Q 2822 3125 2822 3475 
Q 2822 3834 2567 4026 
Q 2313 4219 1838 4219 
Q 1578 4219 1281 4162 
Q 984 4106 628 3988 
L 628 4550 
Q 988 4650 1302 4700 
Q 1616 4750 1894 4750 
Q 2613 4750 3031 4423 
Q 3450 4097 3450 3541 
Q 3450 3153 3228 2886 
Q 3006 2619 2597 2516 
z
" transform="scale(0.015625)"/>
       </defs>
       <use xlink:href="#DejaVuSans-33"/>
       <use xlink:href="#DejaVuSans-2e" x="63.623047"/>
       <use xlink:href="#DejaVuSans-30" x="95.410156"/>
      </g>
     </g>
    </g>
    <g id="xtick_7">
     <g id="line2d_7">
      <g>
       <use xlink:href="#m80af494da4" x="316.63104" y="307.584" style="stroke: #000000; stroke-width: 0.8"/>
      </g>
     </g>
     <g id="text_7">
      <!-- 3.5 -->
      <g transform="translate(308.679478 322.182437)scale(0.1 -0.1)">
       <use xlink:href="#DejaVuSans-33"/>
       <use xlink:href="#DejaVuSans-2e" x="63.623047"/>
       <use xlink:href="#DejaVuSans-35" x="95.410156"/>
      </g>
     </g>
    </g>
    <g id="text_8">
     <!-- storage time -->
     <g transform="translate(168.568312 335.860562)scale(0.1 -0.1)">
      <defs>
       <path id="DejaVuSans-73" d="M 2834 3397 
L 2834 2853 
Q 2591 2978 2328 3040 
Q 2066 3103 1784 3103 
Q 1356 3103 1142 2972 
Q 928 2841 928 2578 
Q 928 2378 1081 2264 
Q 1234 2150 1697 2047 
L 1894 2003 
Q 2506 1872 2764 1633 
Q 3022 1394 3022 966 
Q 3022 478 2636 193 
Q 2250 -91 1575 -91 
Q 1294 -91 989 -36 
Q 684 19 347 128 
L 347 722 
Q 666 556 975 473 
Q 1284 391 1588 391 
Q 1994 391 2212 530 
Q 2431 669 2431 922 
Q 2431 1156 2273 1281 
Q 2116 1406 1581 1522 
L 1381 1569 
Q 847 1681 609 1914 
Q 372 2147 372 2553 
Q 372 3047 722 3315 
Q 1072 3584 1716 3584 
Q 2034 3584 2315 3537 
Q 2597 3491 2834 3397 
z
" transform="scale(0.015625)"/>
       <path id="DejaVuSans-74" d="M 1172 4494 
L 1172 3500 
L 2356 3500 
L 2356 3053 
L 1172 3053 
L 1172 1153 
Q 1172 725 1289 603 
Q 1406 481 1766 481 
L 2356 481 
L 2356 0 
L 1766 0 
Q 1100 0 847 248 
Q 594 497 594 1153 
L 594 3053 
L 172 3053 
L 172 3500 
L 594 3500 
L 594 4494 
L 1172 4494 
z
" transform="scale(0.015625)"/>
       <path id="DejaVuSans-6f" d="M 1959 3097 
Q 1497 3097 1228 2736 
Q 959 2375 959 1747 
Q 959 1119 1226 758 
Q 1494 397 1959 397 
Q 2419 397 2687 759 
Q 2956 1122 2956 1747 
Q 2956 2369 2687 2733 
Q 2419 3097 1959 3097 
z
M 1959 3584 
Q 2709 3584 3137 3096 
Q 3566 2609 3566 1747 
Q 3566 888 3137 398 
Q 2709 -91 1959 -91 
Q 1206 -91 779 398 
Q 353 888 353 1747 
Q 353 2609 779 3096 
Q 1206 3584 1959 3584 
z
" transform="scale(0.015625)"/>
       <path id="DejaVuSans-72" d="M 2631 2963 
Q 2534 3019 2420 3045 
Q 2306 3072 2169 3072 
Q 1681 3072 1420 2755 
Q 1159 2438 1159 1844 
L 1159 0 
L 581 0 
L 581 3500 
L 1159 3500 
L 1159 2956 
Q 1341 3275 1631 3429 
Q 1922 3584 2338 3584 
Q 2397 3584 2469 3576 
Q 2541 3569 2628 3553 
L 2631 2963 
z
" transform="scale(0.015625)"/>
       <path id="DejaVuSans-61" d="M 2194 1759 
Q 1497 1759 1228 1600 
Q 959 1441 959 1056 
Q 959 750 1161 570 
Q 1363 391 1709 391 
Q 2188 391 2477 730 
Q 2766 1069 2766 1631 
L 2766 1759 
L 2194 1759 
z
M 3341 1997 
L 3341 0 
L 2766 0 
L 2766 531 
Q 2569 213 2275 61 
Q 1981 -91 1556 -91 
Q 1019 -91 701 211 
Q 384 513 384 1019 
Q 384 1609 779 1909 
Q 1175 2209 1959 2209 
L 2766 2209 
L 2766 2266 
Q 2766 2663 2505 2880 
Q 2244 3097 1772 3097 
Q 1472 3097 1187 3025 
Q 903 2953 641 2809 
L 641 3341 
Q 956 3463 1253 3523 
Q 1550 3584 1831 3584 
Q 2591 3584 2966 3190 
Q 3341 2797 3341 1997 
z
" transform="scale(0.015625)"/>
       <path id="DejaVuSans-67" d="M 2906 1791 
Q 2906 2416 2648 2759 
Q 2391 3103 1925 3103 
Q 1463 3103 1205 2759 
Q 947 2416 947 1791 
Q 947 1169 1205 825 
Q 1463 481 1925 481 
Q 2391 481 2648 825 
Q 2906 1169 2906 1791 
z
M 3481 434 
Q 3481 -459 3084 -895 
Q 2688 -1331 1869 -1331 
Q 1566 -1331 1297 -1286 
Q 1028 -1241 775 -1147 
L 775 -588 
Q 1028 -725 1275 -790 
Q 1522 -856 1778 -856 
Q 2344 -856 2625 -561 
Q 2906 -266 2906 331 
L 2906 616 
Q 2728 306 2450 153 
Q 2172 0 1784 0 
Q 1141 0 747 490 
Q 353 981 353 1791 
Q 353 2603 747 3093 
Q 1141 3584 1784 3584 
Q 2172 3584 2450 3431 
Q 2728 3278 2906 2969 
L 2906 3500 
L 3481 3500 
L 3481 434 
z
" transform="scale(0.015625)"/>
       <path id="DejaVuSans-65" d="M 3597 1894 
L 3597 1613 
L 953 1613 
Q 991 1019 1311 708 
Q 1631 397 2203 397 
Q 2534 397 2845 478 
Q 3156 559 3463 722 
L 3463 178 
Q 3153 47 2828 -22 
Q 2503 -91 2169 -91 
Q 1331 -91 842 396 
Q 353 884 353 1716 
Q 353 2575 817 3079 
Q 1281 3584 2069 3584 
Q 2775 3584 3186 3129 
Q 3597 2675 3597 1894 
z
M 3022 2063 
Q 3016 2534 2758 2815 
Q 2500 3097 2075 3097 
Q 1594 3097 1305 2825 
Q 1016 2553 972 2059 
L 3022 2063 
z
" transform="scale(0.015625)"/>
       <path id="DejaVuSans-20" transform="scale(0.015625)"/>
       <path id="DejaVuSans-69" d="M 603 3500 
L 1178 3500 
L 1178 0 
L 603 0 
L 603 3500 
z
M 603 4863 
L 1178 4863 
L 1178 4134 
L 603 4134 
L 603 4863 
z
" transform="scale(0.015625)"/>
       <path id="DejaVuSans-6d" d="M 3328 2828 
Q 3544 3216 3844 3400 
Q 4144 3584 4550 3584 
Q 5097 3584 5394 3201 
Q 5691 2819 5691 2113 
L 5691 0 
L 5113 0 
L 5113 2094 
Q 5113 2597 4934 2840 
Q 4756 3084 4391 3084 
Q 3944 3084 3684 2787 
Q 3425 2491 3425 1978 
L 3425 0 
L 2847 0 
L 2847 2094 
Q 2847 2600 2669 2842 
Q 2491 3084 2119 3084 
Q 1678 3084 1418 2786 
Q 1159 2488 1159 1978 
L 1159 0 
L 581 0 
L 581 3500 
L 1159 3500 
L 1159 2956 
Q 1356 3278 1631 3431 
Q 1906 3584 2284 3584 
Q 2666 3584 2933 3390 
Q 3200 3197 3328 2828 
z
" transform="scale(0.015625)"/>
      </defs>
      <use xlink:href="#DejaVuSans-73"/>
      <use xlink:href="#DejaVuSans-74" x="52.099609"/>
      <use xlink:href="#DejaVuSans-6f" x="91.308594"/>
      <use xlink:href="#DejaVuSans-72" x="152.490234"/>
      <use xlink:href="#DejaVuSans-61" x="193.603516"/>
      <use xlink:href="#DejaVuSans-67" x="254.882812"/>
      <use xlink:href="#DejaVuSans-65" x="318.359375"/>
      <use xlink:href="#DejaVuSans-20" x="379.882812"/>
      <use xlink:href="#DejaVuSans-74" x="411.669922"/>
      <use xlink:href="#DejaVuSans-69" x="450.878906"/>
      <use xlink:href="#DejaVuSans-6d" x="478.662109"/>
      <use xlink:href="#DejaVuSans-65" x="576.074219"/>
     </g>
    </g>
   </g>
   <g id="matplotlib.axis_2">
    <g id="ytick_1">
     <g id="line2d_8">
      <defs>
       <path id="mcf649c1712" d="M 0 0 
L -3.5 0 
" style="stroke: #000000; stroke-width: 0.8"/>
      </defs>
      <g>
       <use xlink:href="#mcf649c1712" x="57.6" y="277.1712" style="stroke: #000000; stroke-width: 0.8"/>
      </g>
     </g>
     <g id="text_9">
      <!-- 0.5 -->
      <g transform="translate(34.696875 280.970419)scale(0.1 -0.1)">
       <use xlink:href="#DejaVuSans-30"/>
       <use xlink:href="#DejaVuSans-2e" x="63.623047"/>
       <use xlink:href="#DejaVuSans-35" x="95.410156"/>
      </g>
     </g>
    </g>
    <g id="ytick_2">
     <g id="line2d_9">
      <g>
       <use xlink:href="#mcf649c1712" x="57.6" y="239.1552" style="stroke: #000000; stroke-width: 0.8"/>
      </g>
     </g>
     <g id="text_10">
      <!-- 1.0 -->
      <g transform="translate(34.696875 242.954419)scale(0.1 -0.1)">
       <use xlink:href="#DejaVuSans-31"/>
       <use xlink:href="#DejaVuSans-2e" x="63.623047"/>
       <use xlink:href="#DejaVuSans-30" x="95.410156"/>
      </g>
     </g>
    </g>
    <g id="ytick_3">
     <g id="line2d_10">
      <g>
       <use xlink:href="#mcf649c1712" x="57.6" y="201.1392" style="stroke: #000000; stroke-width: 0.8"/>
      </g>
     </g>
     <g id="text_11">
      <!-- 1.5 -->
      <g transform="translate(34.696875 204.938419)scale(0.1 -0.1)">
       <use xlink:href="#DejaVuSans-31"/>
       <use xlink:href="#DejaVuSans-2e" x="63.623047"/>
       <use xlink:href="#DejaVuSans-35" x="95.410156"/>
      </g>
     </g>
    </g>
    <g id="ytick_4">
     <g id="line2d_11">
      <g>
       <use xlink:href="#mcf649c1712" x="57.6" y="163.1232" style="stroke: #000000; stroke-width: 0.8"/>
      </g>
     </g>
     <g id="text_12">
      <!-- 2.0 -->
      <g transform="translate(34.696875 166.922419)scale(0.1 -0.1)">
       <use xlink:href="#DejaVuSans-32"/>
       <use xlink:href="#DejaVuSans-2e" x="63.623047"/>
       <use xlink:href="#DejaVuSans-30" x="95.410156"/>
      </g>
     </g>
    </g>
    <g id="ytick_5">
     <g id="line2d_12">
      <g>
       <use xlink:href="#mcf649c1712" x="57.6" y="125.1072" style="stroke: #000000; stroke-width: 0.8"/>
      </g>
     </g>
     <g id="text_13">
      <!-- 2.5 -->
      <g transform="translate(34.696875 128.906419)scale(0.1 -0.1)">
       <use xlink:href="#DejaVuSans-32"/>
       <use xlink:href="#DejaVuSans-2e" x="63.623047"/>
       <use xlink:href="#DejaVuSans-35" x="95.410156"/>
      </g>
     </g>
    </g>
    <g id="ytick_6">
     <g id="line2d_13">
      <g>
       <use xlink:href="#mcf649c1712" x="57.6" y="87.0912" style="stroke: #000000; stroke-width: 0.8"/>
      </g>
     </g>
     <g id="text_14">
      <!-- 3.0 -->
      <g transform="translate(34.696875 90.890419)scale(0.1 -0.1)">
       <use xlink:href="#DejaVuSans-33"/>
       <use xlink:href="#DejaVuSans-2e" x="63.623047"/>
       <use xlink:href="#DejaVuSans-30" x="95.410156"/>
      </g>
     </g>
    </g>
    <g id="ytick_7">
     <g id="line2d_14">
      <g>
       <use xlink:href="#mcf649c1712" x="57.6" y="49.0752" style="stroke: #000000; stroke-width: 0.8"/>
      </g>
     </g>
     <g id="text_15">
      <!-- 3.5 -->
      <g transform="translate(34.696875 52.874419)scale(0.1 -0.1)">
       <use xlink:href="#DejaVuSans-33"/>
       <use xlink:href="#DejaVuSans-2e" x="63.623047"/>
       <use xlink:href="#DejaVuSans-35" x="95.410156"/>
      </g>
     </g>
    </g>
    <g id="text_16">
     <!-- storage ratio -->
     <g transform="translate(28.617187 206.639719)rotate(-90)scale(0.1 -0.1)">
      <use xlink:href="#DejaVuSans-73"/>
      <use xlink:href="#DejaVuSans-74" x="52.099609"/>
      <use xlink:href="#DejaVuSans-6f" x="91.308594"/>
      <use xlink:href="#DejaVuSans-72" x="152.490234"/>
      <use xlink:href="#DejaVuSans-61" x="193.603516"/>
      <use xlink:href="#DejaVuSans-67" x="254.882812"/>
      <use xlink:href="#DejaVuSans-65" x="318.359375"/>
      <use xlink:href="#DejaVuSans-20" x="379.882812"/>
      <use xlink:href="#DejaVuSans-72" x="411.669922"/>
      <use xlink:href="#DejaVuSans-61" x="452.783203"/>
      <use xlink:href="#DejaVuSans-74" x="514.0625"/>
      <use xlink:href="#DejaVuSans-69" x="553.271484"/>
      <use xlink:href="#DejaVuSans-6f" x="581.054688"/>
     </g>
    </g>
   </g>
   <g id="patch_3">
    <path d="M 57.6 307.584 
L 57.6 41.472 
" style="fill: none; stroke: #000000; stroke-width: 0.8; stroke-linejoin: miter; stroke-linecap: square"/>
   </g>
   <g id="patch_4">
    <path d="M 343.296 307.584 
L 343.296 41.472 
" style="fill: none; stroke: #000000; stroke-width: 0.8; stroke-linejoin: miter; stroke-linecap: square"/>
   </g>
   <g id="patch_5">
    <path d="M 57.6 307.584 
L 343.296 307.584 
" style="fill: none; stroke: #000000; stroke-width: 0.8; stroke-linejoin: miter; stroke-linecap: square"/>
   </g>
   <g id="patch_6">
    <path d="M 57.6 41.472 
L 343.296 41.472 
" style="fill: none; stroke: #000000; stroke-width: 0.8; stroke-linejoin: miter; stroke-linecap: square"/>
   </g>
   <g id="text_17">
    <!-- storage93! power590! -->
    <g transform="translate(133.303313 35.472)scale(0.12 -0.12)">
     <defs>
      <path id="DejaVuSans-39" d="M 703 97 
L 703 672 
Q 941 559 1184 500 
Q 1428 441 1663 441 
Q 2288 441 2617 861 
Q 2947 1281 2994 2138 
Q 2813 1869 2534 1725 
Q 2256 1581 1919 1581 
Q 1219 1581 811 2004 
Q 403 2428 403 3163 
Q 403 3881 828 4315 
Q 1253 4750 1959 4750 
Q 2769 4750 3195 4129 
Q 3622 3509 3622 2328 
Q 3622 1225 3098 567 
Q 2575 -91 1691 -91 
Q 1453 -91 1209 -44 
Q 966 3 703 97 
z
M 1959 2075 
Q 2384 2075 2632 2365 
Q 2881 2656 2881 3163 
Q 2881 3666 2632 3958 
Q 2384 4250 1959 4250 
Q 1534 4250 1286 3958 
Q 1038 3666 1038 3163 
Q 1038 2656 1286 2365 
Q 1534 2075 1959 2075 
z
" transform="scale(0.015625)"/>
      <path id="DejaVuSans-21" d="M 966 794 
L 1600 794 
L 1600 0 
L 966 0 
L 966 794 
z
M 966 4666 
L 1600 4666 
L 1600 2619 
L 1538 1503 
L 1031 1503 
L 966 2619 
L 966 4666 
z
" transform="scale(0.015625)"/>
      <path id="DejaVuSans-70" d="M 1159 525 
L 1159 -1331 
L 581 -1331 
L 581 3500 
L 1159 3500 
L 1159 2969 
Q 1341 3281 1617 3432 
Q 1894 3584 2278 3584 
Q 2916 3584 3314 3078 
Q 3713 2572 3713 1747 
Q 3713 922 3314 415 
Q 2916 -91 2278 -91 
Q 1894 -91 1617 61 
Q 1341 213 1159 525 
z
M 3116 1747 
Q 3116 2381 2855 2742 
Q 2594 3103 2138 3103 
Q 1681 3103 1420 2742 
Q 1159 2381 1159 1747 
Q 1159 1113 1420 752 
Q 1681 391 2138 391 
Q 2594 391 2855 752 
Q 3116 1113 3116 1747 
z
" transform="scale(0.015625)"/>
      <path id="DejaVuSans-77" d="M 269 3500 
L 844 3500 
L 1563 769 
L 2278 3500 
L 2956 3500 
L 3675 769 
L 4391 3500 
L 4966 3500 
L 4050 0 
L 3372 0 
L 2619 2869 
L 1863 0 
L 1184 0 
L 269 3500 
z
" transform="scale(0.015625)"/>
     </defs>
     <use xlink:href="#DejaVuSans-73"/>
     <use xlink:href="#DejaVuSans-74" x="52.099609"/>
     <use xlink:href="#DejaVuSans-6f" x="91.308594"/>
     <use xlink:href="#DejaVuSans-72" x="152.490234"/>
     <use xlink:href="#DejaVuSans-61" x="193.603516"/>
     <use xlink:href="#DejaVuSans-67" x="254.882812"/>
     <use xlink:href="#DejaVuSans-65" x="318.359375"/>
     <use xlink:href="#DejaVuSans-39" x="379.882812"/>
     <use xlink:href="#DejaVuSans-33" x="443.505859"/>
     <use xlink:href="#DejaVuSans-21" x="507.128906"/>
     <use xlink:href="#DejaVuSans-20" x="547.216797"/>
     <use xlink:href="#DejaVuSans-70" x="579.003906"/>
     <use xlink:href="#DejaVuSans-6f" x="642.480469"/>
     <use xlink:href="#DejaVuSans-77" x="703.662109"/>
     <use xlink:href="#DejaVuSans-65" x="785.449219"/>
     <use xlink:href="#DejaVuSans-72" x="846.972656"/>
     <use xlink:href="#DejaVuSans-35" x="888.085938"/>
     <use xlink:href="#DejaVuSans-39" x="951.708984"/>
     <use xlink:href="#DejaVuSans-30" x="1015.332031"/>
     <use xlink:href="#DejaVuSans-21" x="1078.955078"/>
    </g>
   </g>
  </g>
  <g id="axes_2">
   <g id="patch_7">
    <path d="M 361.152 307.584 
L 374.4576 307.584 
L 374.4576 41.472 
L 361.152 41.472 
z
" style="fill: #ffffff"/>
   </g>
   <g id="patch_8">
    <path clip-path="url(#pe9ae2135a9)" style="fill: #ffffff; stroke: #ffffff; stroke-width: 0.01; stroke-linejoin: miter"/>
   </g>
   <g id="QuadMesh_1">
    <path d="M 361.152 307.584 
L 374.4576 307.584 
L 374.4576 301.798957 
L 361.152 301.798957 
L 361.152 307.584 
" clip-path="url(#pe9ae2135a9)" style="fill: #6d0220"/>
    <path d="M 361.152 301.798957 
L 374.4576 301.798957 
L 374.4576 296.013913 
L 361.152 296.013913 
L 361.152 301.798957 
" clip-path="url(#pe9ae2135a9)" style="fill: #7f0823"/>
    <path d="M 361.152 296.013913 
L 374.4576 296.013913 
L 374.4576 290.22887 
L 361.152 290.22887 
L 361.152 296.013913 
" clip-path="url(#pe9ae2135a9)" style="fill: #8d0c25"/>
    <path d="M 361.152 290.22887 
L 374.4576 290.22887 
L 374.4576 284.443826 
L 361.152 284.443826 
L 361.152 290.22887 
" clip-path="url(#pe9ae2135a9)" style="fill: #9f1228"/>
    <path d="M 361.152 284.443826 
L 374.4576 284.443826 
L 374.4576 278.658783 
L 361.152 278.658783 
L 361.152 284.443826 
" clip-path="url(#pe9ae2135a9)" style="fill: #b1182b"/>
    <path d="M 361.152 278.658783 
L 374.4576 278.658783 
L 374.4576 272.873739 
L 361.152 272.873739 
L 361.152 278.658783 
" clip-path="url(#pe9ae2135a9)" style="fill: #b82531"/>
    <path d="M 361.152 272.873739 
L 374.4576 272.873739 
L 374.4576 267.088696 
L 361.152 267.088696 
L 361.152 272.873739 
" clip-path="url(#pe9ae2135a9)" style="fill: #c13639"/>
    <path d="M 361.152 267.088696 
L 374.4576 267.088696 
L 374.4576 261.303652 
L 361.152 261.303652 
L 361.152 267.088696 
" clip-path="url(#pe9ae2135a9)" style="fill: #c84440"/>
    <path d="M 361.152 261.303652 
L 374.4576 261.303652 
L 374.4576 255.518609 
L 361.152 255.518609 
L 361.152 261.303652 
" clip-path="url(#pe9ae2135a9)" style="fill: #d05548"/>
    <path d="M 361.152 255.518609 
L 374.4576 255.518609 
L 374.4576 249.733565 
L 361.152 249.733565 
L 361.152 255.518609 
" clip-path="url(#pe9ae2135a9)" style="fill: #d7634f"/>
    <path d="M 361.152 249.733565 
L 374.4576 249.733565 
L 374.4576 243.948522 
L 361.152 243.948522 
L 361.152 249.733565 
" clip-path="url(#pe9ae2135a9)" style="fill: #de735c"/>
    <path d="M 361.152 243.948522 
L 374.4576 243.948522 
L 374.4576 238.163478 
L 361.152 238.163478 
L 361.152 243.948522 
" clip-path="url(#pe9ae2135a9)" style="fill: #e58368"/>
    <path d="M 361.152 238.163478 
L 374.4576 238.163478 
L 374.4576 232.378435 
L 361.152 232.378435 
L 361.152 238.163478 
" clip-path="url(#pe9ae2135a9)" style="fill: #eb9172"/>
    <path d="M 361.152 232.378435 
L 374.4576 232.378435 
L 374.4576 226.593391 
L 361.152 226.593391 
L 361.152 232.378435 
" clip-path="url(#pe9ae2135a9)" style="fill: #f2a17f"/>
    <path d="M 361.152 226.593391 
L 374.4576 226.593391 
L 374.4576 220.808348 
L 361.152 220.808348 
L 361.152 226.593391 
" clip-path="url(#pe9ae2135a9)" style="fill: #f5ac8b"/>
    <path d="M 361.152 220.808348 
L 374.4576 220.808348 
L 374.4576 215.023304 
L 361.152 215.023304 
L 361.152 220.808348 
" clip-path="url(#pe9ae2135a9)" style="fill: #f7b99c"/>
    <path d="M 361.152 215.023304 
L 374.4576 215.023304 
L 374.4576 209.238261 
L 361.152 209.238261 
L 361.152 215.023304 
" clip-path="url(#pe9ae2135a9)" style="fill: #f9c4a9"/>
    <path d="M 361.152 209.238261 
L 374.4576 209.238261 
L 374.4576 203.453217 
L 361.152 203.453217 
L 361.152 209.238261 
" clip-path="url(#pe9ae2135a9)" style="fill: #fbd0b9"/>
    <path d="M 361.152 203.453217 
L 374.4576 203.453217 
L 374.4576 197.668174 
L 361.152 197.668174 
L 361.152 203.453217 
" clip-path="url(#pe9ae2135a9)" style="fill: #fddbc7"/>
    <path d="M 361.152 197.668174 
L 374.4576 197.668174 
L 374.4576 191.88313 
L 361.152 191.88313 
L 361.152 197.668174 
" clip-path="url(#pe9ae2135a9)" style="fill: #fde3d4"/>
    <path d="M 361.152 191.88313 
L 374.4576 191.88313 
L 374.4576 186.098087 
L 361.152 186.098087 
L 361.152 191.88313 
" clip-path="url(#pe9ae2135a9)" style="fill: #feece1"/>
    <path d="M 361.152 186.098087 
L 374.4576 186.098087 
L 374.4576 180.313043 
L 361.152 180.313043 
L 361.152 186.098087 
" clip-path="url(#pe9ae2135a9)" style="fill: #fef3ec"/>
    <path d="M 361.152 180.313043 
L 374.4576 180.313043 
L 374.4576 174.528 
L 361.152 174.528 
L 361.152 180.313043 
" clip-path="url(#pe9ae2135a9)" style="fill: #fffbfa"/>
    <path d="M 361.152 174.528 
L 374.4576 174.528 
L 374.4576 168.742957 
L 361.152 168.742957 
L 361.152 174.528 
" clip-path="url(#pe9ae2135a9)" style="fill: #fcfcfc"/>
    <path d="M 361.152 168.742957 
L 374.4576 168.742957 
L 374.4576 162.957913 
L 361.152 162.957913 
L 361.152 168.742957 
" clip-path="url(#pe9ae2135a9)" style="fill: #f5f5f5"/>
    <path d="M 361.152 162.957913 
L 374.4576 162.957913 
L 374.4576 157.17287 
L 361.152 157.17287 
L 361.152 162.957913 
" clip-path="url(#pe9ae2135a9)" style="fill: #efefef"/>
    <path d="M 361.152 157.17287 
L 374.4576 157.17287 
L 374.4576 151.387826 
L 361.152 151.387826 
L 361.152 157.17287 
" clip-path="url(#pe9ae2135a9)" style="fill: #e7e7e7"/>
    <path d="M 361.152 151.387826 
L 374.4576 151.387826 
L 374.4576 145.602783 
L 361.152 145.602783 
L 361.152 151.387826 
" clip-path="url(#pe9ae2135a9)" style="fill: #e0e0e0"/>
    <path d="M 361.152 145.602783 
L 374.4576 145.602783 
L 374.4576 139.817739 
L 361.152 139.817739 
L 361.152 145.602783 
" clip-path="url(#pe9ae2135a9)" style="fill: #d9d9d9"/>
    <path d="M 361.152 139.817739 
L 374.4576 139.817739 
L 374.4576 134.032696 
L 361.152 134.032696 
L 361.152 139.817739 
" clip-path="url(#pe9ae2135a9)" style="fill: #d0d0d0"/>
    <path d="M 361.152 134.032696 
L 374.4576 134.032696 
L 374.4576 128.247652 
L 361.152 128.247652 
L 361.152 134.032696 
" clip-path="url(#pe9ae2135a9)" style="fill: #c8c8c8"/>
    <path d="M 361.152 128.247652 
L 374.4576 128.247652 
L 374.4576 122.462609 
L 361.152 122.462609 
L 361.152 128.247652 
" clip-path="url(#pe9ae2135a9)" style="fill: #bfbfbf"/>
    <path d="M 361.152 122.462609 
L 374.4576 122.462609 
L 374.4576 116.677565 
L 361.152 116.677565 
L 361.152 122.462609 
" clip-path="url(#pe9ae2135a9)" style="fill: #b7b7b7"/>
    <path d="M 361.152 116.677565 
L 374.4576 116.677565 
L 374.4576 110.892522 
L 361.152 110.892522 
L 361.152 116.677565 
" clip-path="url(#pe9ae2135a9)" style="fill: #ababab"/>
    <path d="M 361.152 110.892522 
L 374.4576 110.892522 
L 374.4576 105.107478 
L 361.152 105.107478 
L 361.152 110.892522 
" clip-path="url(#pe9ae2135a9)" style="fill: #9f9f9f"/>
    <path d="M 361.152 105.107478 
L 374.4576 105.107478 
L 374.4576 99.322435 
L 361.152 99.322435 
L 361.152 105.107478 
" clip-path="url(#pe9ae2135a9)" style="fill: #959595"/>
    <path d="M 361.152 99.322435 
L 374.4576 99.322435 
L 374.4576 93.537391 
L 361.152 93.537391 
L 361.152 99.322435 
" clip-path="url(#pe9ae2135a9)" style="fill: #898989"/>
    <path d="M 361.152 93.537391 
L 374.4576 93.537391 
L 374.4576 87.752348 
L 361.152 87.752348 
L 361.152 93.537391 
" clip-path="url(#pe9ae2135a9)" style="fill: #7e7e7e"/>
    <path d="M 361.152 87.752348 
L 374.4576 87.752348 
L 374.4576 81.967304 
L 361.152 81.967304 
L 361.152 87.752348 
" clip-path="url(#pe9ae2135a9)" style="fill: #707070"/>
    <path d="M 361.152 81.967304 
L 374.4576 81.967304 
L 374.4576 76.182261 
L 361.152 76.182261 
L 361.152 81.967304 
" clip-path="url(#pe9ae2135a9)" style="fill: #656565"/>
    <path d="M 361.152 76.182261 
L 374.4576 76.182261 
L 374.4576 70.397217 
L 361.152 70.397217 
L 361.152 76.182261 
" clip-path="url(#pe9ae2135a9)" style="fill: #575757"/>
    <path d="M 361.152 70.397217 
L 374.4576 70.397217 
L 374.4576 64.612174 
L 361.152 64.612174 
L 361.152 70.397217 
" clip-path="url(#pe9ae2135a9)" style="fill: #4c4c4c"/>
    <path d="M 361.152 64.612174 
L 374.4576 64.612174 
L 374.4576 58.82713 
L 361.152 58.82713 
L 361.152 64.612174 
" clip-path="url(#pe9ae2135a9)" style="fill: #404040"/>
    <path d="M 361.152 58.82713 
L 374.4576 58.82713 
L 374.4576 53.042087 
L 361.152 53.042087 
L 361.152 58.82713 
" clip-path="url(#pe9ae2135a9)" style="fill: #343434"/>
    <path d="M 361.152 53.042087 
L 374.4576 53.042087 
L 374.4576 47.257043 
L 361.152 47.257043 
L 361.152 53.042087 
" clip-path="url(#pe9ae2135a9)" style="fill: #2a2a2a"/>
    <path d="M 361.152 47.257043 
L 374.4576 47.257043 
L 374.4576 41.472 
L 361.152 41.472 
L 361.152 47.257043 
" clip-path="url(#pe9ae2135a9)" style="fill: #1e1e1e"/>
   </g>
   <g id="matplotlib.axis_3">
    <g id="ytick_8">
     <g id="line2d_15">
      <defs>
       <path id="m614de4036b" d="M 0 0 
L 3.5 0 
" style="stroke: #000000; stroke-width: 0.8"/>
      </defs>
      <g>
       <use xlink:href="#m614de4036b" x="374.4576" y="307.584" style="stroke: #000000; stroke-width: 0.8"/>
      </g>
     </g>
     <g id="text_18">
      <!-- 1.05 -->
      <g transform="translate(381.4576 311.383219)scale(0.1 -0.1)">
       <use xlink:href="#DejaVuSans-31"/>
       <use xlink:href="#DejaVuSans-2e" x="63.623047"/>
       <use xlink:href="#DejaVuSans-30" x="95.410156"/>
       <use xlink:href="#DejaVuSans-35" x="159.033203"/>
      </g>
     </g>
    </g>
    <g id="ytick_9">
     <g id="line2d_16">
      <g>
       <use xlink:href="#m614de4036b" x="374.4576" y="278.658783" style="stroke: #000000; stroke-width: 0.8"/>
      </g>
     </g>
     <g id="text_19">
      <!-- 1.80 -->
      <g transform="translate(381.4576 282.458001)scale(0.1 -0.1)">
       <defs>
        <path id="DejaVuSans-38" d="M 2034 2216 
Q 1584 2216 1326 1975 
Q 1069 1734 1069 1313 
Q 1069 891 1326 650 
Q 1584 409 2034 409 
Q 2484 409 2743 651 
Q 3003 894 3003 1313 
Q 3003 1734 2745 1975 
Q 2488 2216 2034 2216 
z
M 1403 2484 
Q 997 2584 770 2862 
Q 544 3141 544 3541 
Q 544 4100 942 4425 
Q 1341 4750 2034 4750 
Q 2731 4750 3128 4425 
Q 3525 4100 3525 3541 
Q 3525 3141 3298 2862 
Q 3072 2584 2669 2484 
Q 3125 2378 3379 2068 
Q 3634 1759 3634 1313 
Q 3634 634 3220 271 
Q 2806 -91 2034 -91 
Q 1263 -91 848 271 
Q 434 634 434 1313 
Q 434 1759 690 2068 
Q 947 2378 1403 2484 
z
M 1172 3481 
Q 1172 3119 1398 2916 
Q 1625 2713 2034 2713 
Q 2441 2713 2670 2916 
Q 2900 3119 2900 3481 
Q 2900 3844 2670 4047 
Q 2441 4250 2034 4250 
Q 1625 4250 1398 4047 
Q 1172 3844 1172 3481 
z
" transform="scale(0.015625)"/>
       </defs>
       <use xlink:href="#DejaVuSans-31"/>
       <use xlink:href="#DejaVuSans-2e" x="63.623047"/>
       <use xlink:href="#DejaVuSans-38" x="95.410156"/>
       <use xlink:href="#DejaVuSans-30" x="159.033203"/>
      </g>
     </g>
    </g>
    <g id="ytick_10">
     <g id="line2d_17">
      <g>
       <use xlink:href="#m614de4036b" x="374.4576" y="249.733565" style="stroke: #000000; stroke-width: 0.8"/>
      </g>
     </g>
     <g id="text_20">
      <!-- 2.55 -->
      <g transform="translate(381.4576 253.532784)scale(0.1 -0.1)">
       <use xlink:href="#DejaVuSans-32"/>
       <use xlink:href="#DejaVuSans-2e" x="63.623047"/>
       <use xlink:href="#DejaVuSans-35" x="95.410156"/>
       <use xlink:href="#DejaVuSans-35" x="159.033203"/>
      </g>
     </g>
    </g>
    <g id="ytick_11">
     <g id="line2d_18">
      <g>
       <use xlink:href="#m614de4036b" x="374.4576" y="220.808348" style="stroke: #000000; stroke-width: 0.8"/>
      </g>
     </g>
     <g id="text_21">
      <!-- 3.30 -->
      <g transform="translate(381.4576 224.607567)scale(0.1 -0.1)">
       <use xlink:href="#DejaVuSans-33"/>
       <use xlink:href="#DejaVuSans-2e" x="63.623047"/>
       <use xlink:href="#DejaVuSans-33" x="95.410156"/>
       <use xlink:href="#DejaVuSans-30" x="159.033203"/>
      </g>
     </g>
    </g>
    <g id="ytick_12">
     <g id="line2d_19">
      <g>
       <use xlink:href="#m614de4036b" x="374.4576" y="191.88313" style="stroke: #000000; stroke-width: 0.8"/>
      </g>
     </g>
     <g id="text_22">
      <!-- 4.05 -->
      <g transform="translate(381.4576 195.682349)scale(0.1 -0.1)">
       <defs>
        <path id="DejaVuSans-34" d="M 2419 4116 
L 825 1625 
L 2419 1625 
L 2419 4116 
z
M 2253 4666 
L 3047 4666 
L 3047 1625 
L 3713 1625 
L 3713 1100 
L 3047 1100 
L 3047 0 
L 2419 0 
L 2419 1100 
L 313 1100 
L 313 1709 
L 2253 4666 
z
" transform="scale(0.015625)"/>
       </defs>
       <use xlink:href="#DejaVuSans-34"/>
       <use xlink:href="#DejaVuSans-2e" x="63.623047"/>
       <use xlink:href="#DejaVuSans-30" x="95.410156"/>
       <use xlink:href="#DejaVuSans-35" x="159.033203"/>
      </g>
     </g>
    </g>
    <g id="ytick_13">
     <g id="line2d_20">
      <g>
       <use xlink:href="#m614de4036b" x="374.4576" y="162.957913" style="stroke: #000000; stroke-width: 0.8"/>
      </g>
     </g>
     <g id="text_23">
      <!-- 4.80 -->
      <g transform="translate(381.4576 166.757132)scale(0.1 -0.1)">
       <use xlink:href="#DejaVuSans-34"/>
       <use xlink:href="#DejaVuSans-2e" x="63.623047"/>
       <use xlink:href="#DejaVuSans-38" x="95.410156"/>
       <use xlink:href="#DejaVuSans-30" x="159.033203"/>
      </g>
     </g>
    </g>
    <g id="ytick_14">
     <g id="line2d_21">
      <g>
       <use xlink:href="#m614de4036b" x="374.4576" y="134.032696" style="stroke: #000000; stroke-width: 0.8"/>
      </g>
     </g>
     <g id="text_24">
      <!-- 5.55 -->
      <g transform="translate(381.4576 137.831914)scale(0.1 -0.1)">
       <use xlink:href="#DejaVuSans-35"/>
       <use xlink:href="#DejaVuSans-2e" x="63.623047"/>
       <use xlink:href="#DejaVuSans-35" x="95.410156"/>
       <use xlink:href="#DejaVuSans-35" x="159.033203"/>
      </g>
     </g>
    </g>
    <g id="ytick_15">
     <g id="line2d_22">
      <g>
       <use xlink:href="#m614de4036b" x="374.4576" y="105.107478" style="stroke: #000000; stroke-width: 0.8"/>
      </g>
     </g>
     <g id="text_25">
      <!-- 6.30 -->
      <g transform="translate(381.4576 108.906697)scale(0.1 -0.1)">
       <defs>
        <path id="DejaVuSans-36" d="M 2113 2584 
Q 1688 2584 1439 2293 
Q 1191 2003 1191 1497 
Q 1191 994 1439 701 
Q 1688 409 2113 409 
Q 2538 409 2786 701 
Q 3034 994 3034 1497 
Q 3034 2003 2786 2293 
Q 2538 2584 2113 2584 
z
M 3366 4563 
L 3366 3988 
Q 3128 4100 2886 4159 
Q 2644 4219 2406 4219 
Q 1781 4219 1451 3797 
Q 1122 3375 1075 2522 
Q 1259 2794 1537 2939 
Q 1816 3084 2150 3084 
Q 2853 3084 3261 2657 
Q 3669 2231 3669 1497 
Q 3669 778 3244 343 
Q 2819 -91 2113 -91 
Q 1303 -91 875 529 
Q 447 1150 447 2328 
Q 447 3434 972 4092 
Q 1497 4750 2381 4750 
Q 2619 4750 2861 4703 
Q 3103 4656 3366 4563 
z
" transform="scale(0.015625)"/>
       </defs>
       <use xlink:href="#DejaVuSans-36"/>
       <use xlink:href="#DejaVuSans-2e" x="63.623047"/>
       <use xlink:href="#DejaVuSans-33" x="95.410156"/>
       <use xlink:href="#DejaVuSans-30" x="159.033203"/>
      </g>
     </g>
    </g>
    <g id="ytick_16">
     <g id="line2d_23">
      <g>
       <use xlink:href="#m614de4036b" x="374.4576" y="76.182261" style="stroke: #000000; stroke-width: 0.8"/>
      </g>
     </g>
     <g id="text_26">
      <!-- 7.05 -->
      <g transform="translate(381.4576 79.98148)scale(0.1 -0.1)">
       <defs>
        <path id="DejaVuSans-37" d="M 525 4666 
L 3525 4666 
L 3525 4397 
L 1831 0 
L 1172 0 
L 2766 4134 
L 525 4134 
L 525 4666 
z
" transform="scale(0.015625)"/>
       </defs>
       <use xlink:href="#DejaVuSans-37"/>
       <use xlink:href="#DejaVuSans-2e" x="63.623047"/>
       <use xlink:href="#DejaVuSans-30" x="95.410156"/>
       <use xlink:href="#DejaVuSans-35" x="159.033203"/>
      </g>
     </g>
    </g>
    <g id="ytick_17">
     <g id="line2d_24">
      <g>
       <use xlink:href="#m614de4036b" x="374.4576" y="47.257043" style="stroke: #000000; stroke-width: 0.8"/>
      </g>
     </g>
     <g id="text_27">
      <!-- 7.80 -->
      <g transform="translate(381.4576 51.056262)scale(0.1 -0.1)">
       <use xlink:href="#DejaVuSans-37"/>
       <use xlink:href="#DejaVuSans-2e" x="63.623047"/>
       <use xlink:href="#DejaVuSans-38" x="95.410156"/>
       <use xlink:href="#DejaVuSans-30" x="159.033203"/>
      </g>
     </g>
    </g>
   </g>
   <g id="LineCollection_1"/>
   <g id="patch_9">
    <path d="M 361.152 307.584 
L 367.8048 307.584 
L 374.4576 307.584 
L 374.4576 41.472 
L 367.8048 41.472 
L 361.152 41.472 
L 361.152 307.584 
z
" style="fill: none; stroke: #000000; stroke-width: 0.8; stroke-linejoin: miter; stroke-linecap: square"/>
   </g>
  </g>
 </g>
 <defs>
  <clipPath id="pe583a6efaf">
   <rect x="57.6" y="41.472" width="285.696" height="266.112"/>
  </clipPath>
  <clipPath id="pe9ae2135a9">
   <rect x="361.152" y="41.472" width="13.3056" height="266.112"/>
  </clipPath>
 </defs>
</svg>
