<?xml version="1.0" encoding="utf-8" standalone="no"?>
<!DOCTYPE svg PUBLIC "-//W3C//DTD SVG 1.1//EN"
  "http://www.w3.org/Graphics/SVG/1.1/DTD/svg11.dtd">
<svg xmlns:xlink="http://www.w3.org/1999/xlink" width="460.8pt" height="345.6pt" viewBox="0 0 460.8 345.6" xmlns="http://www.w3.org/2000/svg" version="1.1">
 <metadata>
  <rdf:RDF xmlns:dc="http://purl.org/dc/elements/1.1/" xmlns:cc="http://creativecommons.org/ns#" xmlns:rdf="http://www.w3.org/1999/02/22-rdf-syntax-ns#">
   <cc:Work>
    <dc:type rdf:resource="http://purl.org/dc/dcmitype/StillImage"/>
    <dc:date>2023-02-20T12:38:55.909762</dc:date>
    <dc:format>image/svg+xml</dc:format>
    <dc:creator>
     <cc:Agent>
      <dc:title>Matplotlib v3.5.3, https://matplotlib.org/</dc:title>
     </cc:Agent>
    </dc:creator>
   </cc:Work>
  </rdf:RDF>
 </metadata>
 <defs>
  <style type="text/css">*{stroke-linejoin: round; stroke-linecap: butt}</style>
 </defs>
 <g id="figure_1">
  <g id="patch_1">
   <path d="M 0 345.6 
L 460.8 345.6 
L 460.8 0 
L 0 0 
z
" style="fill: #ffffff"/>
  </g>
  <g id="axes_1">
   <g id="patch_2">
    <path d="M 57.6 307.584 
L 343.296 307.584 
L 343.296 41.472 
L 57.6 41.472 
z
" style="fill: #ffffff"/>
   </g>
   <g id="PathCollection_1">
    <path d="M 324.2496 56.38752 
L 343.296 72.877886 
L 343.296 41.472 
L 324.2496 41.472 
L 307.160877 41.472 
z
" clip-path="url(#pedb1af8bf8)" style="fill: #6d0220"/>
   </g>
   <g id="PathCollection_2">
    <path d="M 286.1568 162.572255 
L 305.2032 172.1155 
L 324.2496 181.634276 
L 343.296 191.133251 
L 343.296 155.52 
L 343.296 117.504 
L 343.296 79.488 
L 343.296 72.877886 
L 324.2496 56.38752 
L 307.160877 41.472 
L 305.2032 41.472 
L 286.1568 41.472 
L 267.1104 41.472 
L 248.064 41.472 
L 229.0176 41.472 
L 209.9712 41.472 
L 190.9248 41.472 
L 174.509292 41.472 
L 190.9248 70.686164 
L 196.427929 79.488 
L 209.9712 96.99007 
L 226.660233 117.504 
L 229.0176 119.664568 
L 248.064 135.540175 
L 267.1104 151.364524 
L 272.42283 155.52 
z
" clip-path="url(#pedb1af8bf8)" style="fill: #7f0823"/>
   </g>
   <g id="PathCollection_3">
    <path d="M 343.296 233.819506 
L 343.296 231.552 
L 343.296 193.536 
L 343.296 191.133251 
L 324.2496 181.634276 
L 305.2032 172.1155 
L 286.1568 162.572255 
L 272.42283 155.52 
L 267.1104 151.364524 
L 248.064 135.540175 
L 229.0176 119.664568 
L 226.660233 117.504 
L 209.9712 96.99007 
L 196.427929 79.488 
L 190.9248 70.686164 
L 174.509292 41.472 
L 171.8784 41.472 
L 152.832 41.472 
L 133.7856 41.472 
L 130.599984 41.472 
L 133.7856 51.671496 
L 145.185253 79.488 
L 152.832 95.613813 
L 165.141921 117.504 
L 171.8784 126.905646 
L 190.9248 150.866112 
L 195.005617 155.52 
L 209.9712 167.189617 
L 229.0176 181.601709 
L 245.105322 193.536 
L 248.064 194.902692 
L 267.1104 202.993005 
L 286.1568 211.036703 
L 305.2032 219.043995 
L 324.2496 227.02231 
L 335.385997 231.552 
z
" clip-path="url(#pedb1af8bf8)" style="fill: #900d26"/>
   </g>
   <g id="PathCollection_4">
    <path d="M 267.1104 234.153213 
L 286.1568 241.278806 
L 305.2032 248.307495 
L 324.2496 255.2596 
L 343.296 262.15013 
L 343.296 233.819506 
L 335.385997 231.552 
L 324.2496 227.02231 
L 305.2032 219.043995 
L 286.1568 211.036703 
L 267.1104 202.993005 
L 248.064 194.902692 
L 245.105322 193.536 
L 229.0176 181.601709 
L 209.9712 167.189617 
L 195.005617 155.52 
L 190.9248 150.866112 
L 171.8784 126.905646 
L 165.141921 117.504 
L 152.832 95.613813 
L 145.185253 79.488 
L 133.7856 51.671496 
L 130.599984 41.472 
L 114.7392 41.472 
L 109.066936 41.472 
L 114.7392 66.191883 
L 119.230285 79.488 
L 133.519762 117.504 
L 133.7856 118.072497 
L 152.832 150.360036 
L 156.318611 155.52 
L 171.8784 171.887331 
L 190.9248 191.208184 
L 193.478807 193.536 
L 209.9712 203.144774 
L 229.0176 213.971974 
L 248.064 224.717905 
L 260.607466 231.552 
z
" clip-path="url(#pedb1af8bf8)" style="fill: #9f1228"/>
   </g>
   <g id="PathCollection_5">
    <path d="M 305.2032 270.000828 
L 324.2496 270.850494 
L 343.296 271.56649 
L 343.296 269.568 
L 343.296 262.15013 
L 324.2496 255.2596 
L 305.2032 248.307495 
L 286.1568 241.278806 
L 267.1104 234.153213 
L 260.607466 231.552 
L 248.064 224.717905 
L 229.0176 213.971974 
L 209.9712 203.144774 
L 193.478807 193.536 
L 190.9248 191.208184 
L 171.8784 171.887331 
L 156.318611 155.52 
L 152.832 150.360036 
L 133.7856 118.072497 
L 133.519762 117.504 
L 119.230285 79.488 
L 114.7392 66.191883 
L 109.066936 41.472 
L 95.6928 41.472 
L 94.914147 41.472 
L 95.6928 46.767761 
L 104.376854 79.488 
L 114.7392 117.128984 
L 114.887064 117.504 
L 132.870809 155.52 
L 133.7856 156.99512 
L 152.832 181.534093 
L 162.9836 193.536 
L 171.8784 200.54418 
L 190.9248 214.238838 
L 209.9712 227.771624 
L 215.730322 231.552 
L 229.0176 238.168596 
L 248.064 247.18691 
L 267.1104 256.042977 
L 286.1568 264.776348 
L 297.032248 269.568 
z
" clip-path="url(#pedb1af8bf8)" style="fill: #b1182b"/>
   </g>
   <g id="PathCollection_6">
    <path d="M 267.1104 270.713157 
L 286.1568 271.878278 
L 305.2032 272.825881 
L 324.2496 273.61168 
L 343.296 274.273856 
L 343.296 271.56649 
L 324.2496 270.850494 
L 305.2032 270.000828 
L 297.032248 269.568 
L 286.1568 264.776348 
L 267.1104 256.042977 
L 248.064 247.18691 
L 229.0176 238.168596 
L 215.730322 231.552 
L 209.9712 227.771624 
L 190.9248 214.238838 
L 171.8784 200.54418 
L 162.9836 193.536 
L 152.832 181.534093 
L 133.7856 156.99512 
L 132.870809 155.52 
L 114.887064 117.504 
L 114.7392 117.128984 
L 104.376854 79.488 
L 95.6928 46.767761 
L 94.914147 41.472 
L 87.706905 41.472 
L 93.602074 79.488 
L 95.6928 91.325175 
L 103.80049 117.504 
L 114.7392 149.323792 
L 117.674806 155.52 
L 133.7856 181.498996 
L 142.449853 193.536 
L 152.832 203.457078 
L 171.8784 219.98735 
L 185.880784 231.552 
L 190.9248 234.871456 
L 209.9712 246.013835 
L 229.0176 256.850823 
L 248.064 267.47131 
L 252.119087 269.568 
z
" clip-path="url(#pedb1af8bf8)" style="fill: #ba2832"/>
   </g>
   <g id="PathCollection_7">
    <path d="M 229.0176 270.612337 
L 248.064 272.361938 
L 267.1104 273.709927 
L 286.1568 274.78035 
L 305.2032 275.650935 
L 324.2496 276.372866 
L 343.296 276.981222 
L 343.296 274.273856 
L 324.2496 273.61168 
L 305.2032 272.825881 
L 286.1568 271.878278 
L 267.1104 270.713157 
L 252.119087 269.568 
L 248.064 267.47131 
L 229.0176 256.850823 
L 209.9712 246.013835 
L 190.9248 234.871456 
L 185.880784 231.552 
L 171.8784 219.98735 
L 152.832 203.457078 
L 142.449853 193.536 
L 133.7856 181.498996 
L 117.674806 155.52 
L 114.7392 149.323792 
L 103.80049 117.504 
L 95.6928 91.325175 
L 93.602074 79.488 
L 87.706905 41.472 
L 80.499662 41.472 
L 87.313846 79.488 
L 94.271279 117.504 
L 95.6928 123.939613 
L 107.441345 155.52 
L 114.7392 171.525659 
L 127.797576 193.536 
L 133.7856 200.796247 
L 152.832 220.311705 
L 164.67971 231.552 
L 171.8784 237.188451 
L 190.9248 250.36415 
L 209.9712 263.098232 
L 220.304906 269.568 
z
" clip-path="url(#pedb1af8bf8)" style="fill: #c13639"/>
   </g>
   <g id="PathCollection_8">
    <path d="M 209.9712 271.730006 
L 229.0176 273.883145 
L 248.064 275.477962 
L 267.1104 276.706698 
L 286.1568 277.682423 
L 305.2032 278.475988 
L 324.2496 279.134051 
L 343.296 279.688588 
L 343.296 276.981222 
L 324.2496 276.372866 
L 305.2032 275.650935 
L 286.1568 274.78035 
L 267.1104 273.709927 
L 248.064 272.361938 
L 229.0176 270.612337 
L 220.304906 269.568 
L 209.9712 263.098232 
L 190.9248 250.36415 
L 171.8784 237.188451 
L 164.67971 231.552 
L 152.832 220.311705 
L 133.7856 200.796247 
L 127.797576 193.536 
L 114.7392 171.525659 
L 107.441345 155.52 
L 95.6928 123.939613 
L 94.271279 117.504 
L 87.313846 79.488 
L 80.499662 41.472 
L 76.6464 41.472 
L 75.645148 41.472 
L 76.6464 56.699715 
L 81.025618 79.488 
L 88.900754 117.504 
L 95.6928 148.253447 
L 98.396105 155.52 
L 114.7392 191.363682 
L 116.028001 193.536 
L 133.7856 215.066402 
L 148.56929 231.552 
L 152.832 235.663003 
L 171.8784 251.098484 
L 190.9248 265.856845 
L 196.224713 269.568 
z
" clip-path="url(#pedb1af8bf8)" style="fill: #c94741"/>
   </g>
   <g id="PathCollection_9">
    <path d="M 190.9248 272.440576 
L 209.9712 275.209785 
L 229.0176 277.153953 
L 248.064 278.593987 
L 267.1104 279.703469 
L 286.1568 280.584495 
L 305.2032 281.301042 
L 324.2496 281.895237 
L 343.296 282.395953 
L 343.296 279.688588 
L 324.2496 279.134051 
L 305.2032 278.475988 
L 286.1568 277.682423 
L 267.1104 276.706698 
L 248.064 275.477962 
L 229.0176 273.883145 
L 209.9712 271.730006 
L 196.224713 269.568 
L 190.9248 265.856845 
L 171.8784 251.098484 
L 152.832 235.663003 
L 148.56929 231.552 
L 133.7856 215.066402 
L 116.028001 193.536 
L 114.7392 191.363682 
L 98.396105 155.52 
L 95.6928 148.253447 
L 88.900754 117.504 
L 81.025618 79.488 
L 76.6464 56.699715 
L 75.645148 41.472 
L 73.493597 41.472 
L 76.067179 79.488 
L 76.6464 86.767762 
L 83.530229 117.504 
L 92.56916 155.52 
L 95.6928 166.165784 
L 108.441361 193.536 
L 114.7392 203.948629 
L 133.7856 229.336556 
L 135.77233 231.552 
L 152.832 248.004529 
L 171.8784 265.008518 
L 177.61527 269.568 
z
" clip-path="url(#pedb1af8bf8)" style="fill: #d25849"/>
   </g>
   <g id="PathCollection_10">
    <path d="M 171.8784 272.415116 
L 190.9248 276.218007 
L 209.9712 278.689564 
L 229.0176 280.424761 
L 248.064 281.710011 
L 267.1104 282.700239 
L 286.1568 283.486568 
L 305.2032 284.126096 
L 324.2496 284.656423 
L 343.296 285.103319 
L 343.296 282.395953 
L 324.2496 281.895237 
L 305.2032 281.301042 
L 286.1568 280.584495 
L 267.1104 279.703469 
L 248.064 278.593987 
L 229.0176 277.153953 
L 209.9712 275.209785 
L 190.9248 272.440576 
L 177.61527 269.568 
L 171.8784 265.008518 
L 152.832 248.004529 
L 135.77233 231.552 
L 133.7856 229.336556 
L 114.7392 203.948629 
L 108.441361 193.536 
L 95.6928 166.165784 
L 92.56916 155.52 
L 83.530229 117.504 
L 76.6464 86.767762 
L 76.067179 79.488 
L 73.493597 41.472 
L 71.342045 41.472 
L 74.159238 79.488 
L 76.6464 110.74711 
L 78.159704 117.504 
L 88.114042 155.52 
L 95.6928 181.349426 
L 101.36909 193.536 
L 114.7392 215.64168 
L 126.490172 231.552 
L 133.7856 240.672788 
L 152.832 260.346054 
L 162.858468 269.568 
z
" clip-path="url(#pedb1af8bf8)" style="fill: #da6853"/>
   </g>
   <g id="PathCollection_11">
    <path d="M 152.832 270.8397 
L 171.8784 276.650532 
L 190.9248 279.995438 
L 209.9712 282.169344 
L 229.0176 283.695569 
L 248.064 284.826036 
L 267.1104 285.69701 
L 286.1568 286.38864 
L 305.2032 286.951149 
L 324.2496 287.417609 
L 343.296 287.810685 
L 343.296 285.103319 
L 324.2496 284.656423 
L 305.2032 284.126096 
L 286.1568 283.486568 
L 267.1104 282.700239 
L 248.064 281.710011 
L 229.0176 280.424761 
L 209.9712 278.689564 
L 190.9248 276.218007 
L 171.8784 272.415116 
L 162.858468 269.568 
L 152.832 260.346054 
L 133.7856 240.672788 
L 126.490172 231.552 
L 114.7392 215.64168 
L 101.36909 193.536 
L 95.6928 181.349426 
L 88.114042 155.52 
L 78.159704 117.504 
L 76.6464 110.74711 
L 74.159238 79.488 
L 71.342045 41.472 
L 69.190493 41.472 
L 72.251298 79.488 
L 75.450103 117.504 
L 76.6464 129.41534 
L 83.658924 155.52 
L 94.99286 193.536 
L 95.6928 195.338449 
L 114.7392 227.33473 
L 117.853972 231.552 
L 133.7856 251.469817 
L 150.336198 269.568 
z
" clip-path="url(#pedb1af8bf8)" style="fill: #df765e"/>
   </g>
   <g id="PathCollection_12">
    <path d="M 152.832 275.870736 
L 171.8784 280.885948 
L 190.9248 283.772869 
L 209.9712 285.649123 
L 229.0176 286.966377 
L 248.064 287.94206 
L 267.1104 288.69378 
L 286.1568 289.290712 
L 305.2032 289.776203 
L 324.2496 290.178795 
L 343.296 290.518051 
L 343.296 287.810685 
L 324.2496 287.417609 
L 305.2032 286.951149 
L 286.1568 286.38864 
L 267.1104 285.69701 
L 248.064 284.826036 
L 229.0176 283.695569 
L 209.9712 282.169344 
L 190.9248 279.995438 
L 171.8784 276.650532 
L 152.832 270.8397 
L 150.336198 269.568 
L 133.7856 251.469817 
L 117.853972 231.552 
L 114.7392 227.33473 
L 95.6928 195.338449 
L 94.99286 193.536 
L 83.658924 155.52 
L 76.6464 129.41534 
L 75.450103 117.504 
L 72.251298 79.488 
L 69.190493 41.472 
L 67.038942 41.472 
L 70.343357 79.488 
L 73.784461 117.504 
L 76.6464 145.999859 
L 79.203806 155.52 
L 91.446846 193.536 
L 95.6928 204.469952 
L 111.361492 231.552 
L 114.7392 237.496749 
L 133.7856 262.266846 
L 140.462429 269.568 
z
" clip-path="url(#pedb1af8bf8)" style="fill: #e6866a"/>
   </g>
   <g id="PathCollection_13">
    <path d="M 133.7856 271.755345 
L 152.832 280.901772 
L 171.8784 285.121364 
L 190.9248 287.5503 
L 209.9712 289.128902 
L 229.0176 290.237186 
L 248.064 291.058085 
L 267.1104 291.690551 
L 286.1568 292.192785 
L 305.2032 292.601256 
L 324.2496 292.939981 
L 343.296 293.225417 
L 343.296 290.518051 
L 324.2496 290.178795 
L 305.2032 289.776203 
L 286.1568 289.290712 
L 267.1104 288.69378 
L 248.064 287.94206 
L 229.0176 286.966377 
L 209.9712 285.649123 
L 190.9248 283.772869 
L 171.8784 280.885948 
L 152.832 275.870736 
L 140.462429 269.568 
L 133.7856 262.266846 
L 114.7392 237.496749 
L 111.361492 231.552 
L 95.6928 204.469952 
L 91.446846 193.536 
L 79.203806 155.52 
L 76.6464 145.999859 
L 73.784461 117.504 
L 70.343357 79.488 
L 67.038942 41.472 
L 64.88739 41.472 
L 68.435417 79.488 
L 72.11882 117.504 
L 76.039132 155.52 
L 76.6464 160.018424 
L 87.900833 193.536 
L 95.6928 213.601454 
L 106.078335 231.552 
L 114.7392 246.795077 
L 131.561642 269.568 
z
" clip-path="url(#pedb1af8bf8)" style="fill: #ee9677"/>
   </g>
   <g id="PathCollection_14">
    <path d="M 133.7856 278.510975 
L 152.832 285.932808 
L 171.8784 289.35678 
L 190.9248 291.32773 
L 209.9712 292.608681 
L 229.0176 293.507994 
L 248.064 294.174109 
L 267.1104 294.687321 
L 286.1568 295.094857 
L 305.2032 295.42631 
L 324.2496 295.701166 
L 343.296 295.932782 
L 343.296 293.225417 
L 324.2496 292.939981 
L 305.2032 292.601256 
L 286.1568 292.192785 
L 267.1104 291.690551 
L 248.064 291.058085 
L 229.0176 290.237186 
L 209.9712 289.128902 
L 190.9248 287.5503 
L 171.8784 285.121364 
L 152.832 280.901772 
L 133.7856 271.755345 
L 131.561642 269.568 
L 114.7392 246.795077 
L 106.078335 231.552 
L 95.6928 213.601454 
L 87.900833 193.536 
L 76.6464 160.018424 
L 76.039132 155.52 
L 72.11882 117.504 
L 68.435417 79.488 
L 64.88739 41.472 
L 62.735838 41.472 
L 66.527477 79.488 
L 70.453179 117.504 
L 74.613494 155.52 
L 76.6464 170.579042 
L 84.35482 193.536 
L 95.6928 222.732957 
L 100.795179 231.552 
L 114.7392 256.093405 
L 124.692933 269.568 
z
" clip-path="url(#pedb1af8bf8)" style="fill: #f3a481"/>
   </g>
   <g id="PathCollection_15">
    <path d="M 133.7856 285.266605 
L 152.832 290.963844 
L 171.8784 293.592196 
L 190.9248 295.105161 
L 209.9712 296.088461 
L 229.0176 296.778802 
L 248.064 297.290134 
L 267.1104 297.684092 
L 286.1568 297.99693 
L 305.2032 298.251364 
L 324.2496 298.462352 
L 343.296 298.640148 
L 343.296 295.932782 
L 324.2496 295.701166 
L 305.2032 295.42631 
L 286.1568 295.094857 
L 267.1104 294.687321 
L 248.064 294.174109 
L 229.0176 293.507994 
L 209.9712 292.608681 
L 190.9248 291.32773 
L 171.8784 289.35678 
L 152.832 285.932808 
L 133.7856 278.510975 
L 124.692933 269.568 
L 114.7392 256.093405 
L 100.795179 231.552 
L 95.6928 222.732957 
L 84.35482 193.536 
L 76.6464 170.579042 
L 74.613494 155.52 
L 70.453179 117.504 
L 66.527477 79.488 
L 62.735838 41.472 
L 60.584287 41.472 
L 64.619536 79.488 
L 68.787538 117.504 
L 73.187857 155.52 
L 76.6464 181.13966 
L 80.808807 193.536 
L 95.599118 231.552 
L 95.6928 231.82249 
L 114.7392 265.391733 
L 117.824224 269.568 
z
" clip-path="url(#pedb1af8bf8)" style="fill: #f6b191"/>
   </g>
   <g id="PathCollection_16">
    <path d="M 114.7392 276.904585 
L 133.7856 292.022235 
L 152.832 295.99488 
L 171.8784 297.827612 
L 190.9248 298.882592 
L 209.9712 299.56824 
L 229.0176 300.04961 
L 248.064 300.406158 
L 267.1104 300.680863 
L 286.1568 300.899002 
L 305.2032 301.076417 
L 324.2496 301.223538 
L 343.296 301.347514 
L 343.296 298.640148 
L 324.2496 298.462352 
L 305.2032 298.251364 
L 286.1568 297.99693 
L 267.1104 297.684092 
L 248.064 297.290134 
L 229.0176 296.778802 
L 209.9712 296.088461 
L 190.9248 295.105161 
L 171.8784 293.592196 
L 152.832 290.963844 
L 133.7856 285.266605 
L 117.824224 269.568 
L 114.7392 265.391733 
L 95.6928 231.82249 
L 95.599118 231.552 
L 80.808807 193.536 
L 76.6464 181.13966 
L 73.187857 155.52 
L 68.787538 117.504 
L 64.619536 79.488 
L 60.584287 41.472 
L 58.432735 41.472 
L 62.711596 79.488 
L 67.121897 117.504 
L 71.762219 155.52 
L 76.6464 191.700278 
L 77.262793 193.536 
L 92.861288 231.552 
L 95.6928 239.727472 
L 112.313761 269.568 
z
" clip-path="url(#pedb1af8bf8)" style="fill: #f8bda1"/>
   </g>
   <g id="PathCollection_17">
    <path d="M 114.7392 290.223046 
L 133.7856 298.777865 
L 152.832 301.025916 
L 171.8784 302.063027 
L 190.9248 302.660023 
L 209.9712 303.048019 
L 229.0176 303.320418 
L 248.064 303.522183 
L 267.1104 303.677633 
L 286.1568 303.801075 
L 305.2032 303.901471 
L 324.2496 303.984724 
L 343.296 304.05488 
L 343.296 301.347514 
L 324.2496 301.223538 
L 305.2032 301.076417 
L 286.1568 300.899002 
L 267.1104 300.680863 
L 248.064 300.406158 
L 229.0176 300.04961 
L 209.9712 299.56824 
L 190.9248 298.882592 
L 171.8784 297.827612 
L 152.832 295.99488 
L 133.7856 292.022235 
L 114.7392 276.904585 
L 112.313761 269.568 
L 95.6928 239.727472 
L 92.861288 231.552 
L 77.262793 193.536 
L 76.6464 191.700278 
L 71.762219 155.52 
L 67.121897 117.504 
L 62.711596 79.488 
L 58.432735 41.472 
L 57.6 41.472 
L 57.6 51.638457 
L 60.803656 79.488 
L 65.456256 117.504 
L 70.336581 155.52 
L 75.662593 193.536 
L 76.6464 198.999454 
L 90.123458 231.552 
L 95.6928 247.632454 
L 107.910742 269.568 
z
" clip-path="url(#pedb1af8bf8)" style="fill: #fac8af"/>
   </g>
   <g id="PathCollection_18">
    <path d="M 114.7392 303.541508 
L 133.7856 305.533494 
L 152.832 306.056952 
L 171.8784 306.298443 
L 190.9248 306.437454 
L 209.9712 306.527798 
L 229.0176 306.591226 
L 248.064 306.638207 
L 267.1104 306.674404 
L 286.1568 306.703147 
L 305.2032 306.726524 
L 324.2496 306.74591 
L 343.296 306.762246 
L 343.296 304.05488 
L 324.2496 303.984724 
L 305.2032 303.901471 
L 286.1568 303.801075 
L 267.1104 303.677633 
L 248.064 303.522183 
L 229.0176 303.320418 
L 209.9712 303.048019 
L 190.9248 302.660023 
L 171.8784 302.063027 
L 152.832 301.025916 
L 133.7856 298.777865 
L 114.7392 290.223046 
L 107.910742 269.568 
L 95.6928 247.632454 
L 90.123458 231.552 
L 76.6464 198.999454 
L 75.662593 193.536 
L 70.336581 155.52 
L 65.456256 117.504 
L 60.803656 79.488 
L 57.6 51.638457 
L 57.6 68.224281 
L 58.895715 79.488 
L 63.790615 117.504 
L 68.910943 155.52 
L 74.471792 193.536 
L 76.6464 205.612421 
L 87.385628 231.552 
L 95.6928 255.537436 
L 103.507724 269.568 
z
" clip-path="url(#pedb1af8bf8)" style="fill: #fcd5bf"/>
   </g>
   <g id="PathCollection_19">
    <path d="M 76.6464 307.584 
L 95.6928 307.584 
L 114.7392 307.584 
L 133.7856 307.584 
L 152.832 307.584 
L 171.8784 307.584 
L 190.9248 307.584 
L 209.9712 307.584 
L 229.0176 307.584 
L 248.064 307.584 
L 267.1104 307.584 
L 286.1568 307.584 
L 305.2032 307.584 
L 324.2496 307.584 
L 343.296 307.584 
L 343.296 306.762246 
L 324.2496 306.74591 
L 305.2032 306.726524 
L 286.1568 306.703147 
L 267.1104 306.674404 
L 248.064 306.638207 
L 229.0176 306.591226 
L 209.9712 306.527798 
L 190.9248 306.437454 
L 171.8784 306.298443 
L 152.832 306.056952 
L 133.7856 305.533494 
L 114.7392 303.541508 
L 103.507724 269.568 
L 95.6928 255.537436 
L 87.385628 231.552 
L 76.6464 205.612421 
L 74.471792 193.536 
L 68.910943 155.52 
L 63.790615 117.504 
L 58.895715 79.488 
L 57.6 68.224281 
L 57.6 79.488 
L 57.6 83.503975 
L 62.124974 117.504 
L 67.485305 155.52 
L 73.280991 193.536 
L 76.6464 212.225388 
L 84.647798 231.552 
L 95.6928 263.442418 
L 99.104705 269.568 
L 95.6928 289.589159 
L 76.6464 304.693988 
L 57.6 306.590091 
L 57.6 307.584 
z
" clip-path="url(#pedb1af8bf8)" style="fill: #fddfce"/>
   </g>
   <g id="PathCollection_20">
    <path d="M 76.6464 304.693988 
L 95.6928 289.589159 
L 99.104705 269.568 
L 95.6928 263.442418 
L 84.647798 231.552 
L 76.6464 212.225388 
L 73.280991 193.536 
L 67.485305 155.52 
L 62.124974 117.504 
L 57.6 83.503975 
L 57.6 96.019371 
L 60.459333 117.504 
L 66.059668 155.52 
L 72.090191 193.536 
L 76.6464 218.838355 
L 81.909968 231.552 
L 95.135299 269.568 
L 76.6464 300.544502 
L 57.6 305.163033 
L 57.6 306.590091 
z
" clip-path="url(#pedb1af8bf8)" style="fill: #fee6d9"/>
   </g>
   <g id="PathCollection_21">
    <path d="M 76.6464 300.544502 
L 95.135299 269.568 
L 81.909968 231.552 
L 76.6464 218.838355 
L 72.090191 193.536 
L 66.059668 155.52 
L 60.459333 117.504 
L 57.6 96.019371 
L 57.6 108.534767 
L 58.793692 117.504 
L 64.63403 155.52 
L 70.89939 193.536 
L 76.6464 225.451322 
L 79.172138 231.552 
L 92.658601 269.568 
L 76.6464 296.395015 
L 57.6 303.735976 
L 57.6 305.163033 
z
" clip-path="url(#pedb1af8bf8)" style="fill: #feefe6"/>
   </g>
   <g id="PathCollection_22">
    <path d="M 76.6464 296.395015 
L 92.658601 269.568 
L 79.172138 231.552 
L 76.6464 225.451322 
L 70.89939 193.536 
L 64.63403 155.52 
L 58.793692 117.504 
L 57.6 108.534767 
L 57.6 117.504 
L 57.6 120.05815 
L 63.208392 155.52 
L 69.708589 193.536 
L 76.568916 231.552 
L 76.6464 232.083338 
L 90.181903 269.568 
L 76.6464 292.245529 
L 57.6 302.308919 
L 57.6 303.735976 
z
" clip-path="url(#pedb1af8bf8)" style="fill: #fff7f3"/>
   </g>
   <g id="PathCollection_23">
    <path d="M 76.6464 292.245529 
L 90.181903 269.568 
L 76.6464 232.083338 
L 76.568916 231.552 
L 69.708589 193.536 
L 63.208392 155.52 
L 57.6 120.05815 
L 57.6 129.072455 
L 61.782754 155.52 
L 68.517788 193.536 
L 75.568695 231.552 
L 76.6464 238.942203 
L 87.705205 269.568 
L 76.6464 288.096042 
L 57.6 300.881861 
L 57.6 302.308919 
z
" clip-path="url(#pedb1af8bf8)" style="fill: #fefefe"/>
   </g>
   <g id="PathCollection_24">
    <path d="M 76.6464 288.096042 
L 87.705205 269.568 
L 76.6464 238.942203 
L 75.568695 231.552 
L 68.517788 193.536 
L 61.782754 155.52 
L 57.6 129.072455 
L 57.6 138.086759 
L 60.357116 155.52 
L 67.326988 193.536 
L 74.568474 231.552 
L 76.6464 245.801068 
L 85.228507 269.568 
L 76.6464 283.946555 
L 57.6 299.454804 
L 57.6 300.881861 
z
" clip-path="url(#pedb1af8bf8)" style="fill: #f8f8f8"/>
   </g>
   <g id="PathCollection_25">
    <path d="M 76.6464 283.946555 
L 85.228507 269.568 
L 76.6464 245.801068 
L 74.568474 231.552 
L 67.326988 193.536 
L 60.357116 155.52 
L 57.6 138.086759 
L 57.6 147.101064 
L 58.931479 155.52 
L 66.136187 193.536 
L 73.568254 231.552 
L 76.6464 252.659932 
L 82.751809 269.568 
L 76.6464 279.797069 
L 57.6 298.027746 
L 57.6 299.454804 
z
" clip-path="url(#pedb1af8bf8)" style="fill: #f1f1f1"/>
   </g>
   <g id="PathCollection_26">
    <path d="M 76.6464 279.797069 
L 82.751809 269.568 
L 76.6464 252.659932 
L 73.568254 231.552 
L 66.136187 193.536 
L 58.931479 155.52 
L 57.6 147.101064 
L 57.6 155.52 
L 57.6 155.922735 
L 64.945386 193.536 
L 72.568033 231.552 
L 76.6464 259.518797 
L 80.275111 269.568 
L 76.6464 275.647582 
L 57.6 296.600689 
L 57.6 298.027746 
z
" clip-path="url(#pedb1af8bf8)" style="fill: #eaeaea"/>
   </g>
   <g id="PathCollection_27">
    <path d="M 76.6464 275.647582 
L 80.275111 269.568 
L 76.6464 259.518797 
L 72.568033 231.552 
L 64.945386 193.536 
L 57.6 155.922735 
L 57.6 162.020427 
L 63.754586 193.536 
L 71.567813 231.552 
L 76.6464 266.377662 
L 77.798413 269.568 
L 76.6464 271.498096 
L 57.6 295.173631 
L 57.6 296.600689 
z
" clip-path="url(#pedb1af8bf8)" style="fill: #e4e4e4"/>
   </g>
   <g id="PathCollection_28">
    <path d="M 76.6464 271.498096 
L 77.798413 269.568 
L 76.6464 266.377662 
L 71.567813 231.552 
L 63.754586 193.536 
L 57.6 162.020427 
L 57.6 168.118119 
L 62.563785 193.536 
L 70.567592 231.552 
L 76.063539 269.568 
L 57.6 293.746574 
L 57.6 295.173631 
z
" clip-path="url(#pedb1af8bf8)" style="fill: #dcdcdc"/>
   </g>
   <g id="PathCollection_29">
    <path d="M 76.063539 269.568 
L 70.567592 231.552 
L 62.563785 193.536 
L 57.6 168.118119 
L 57.6 174.215811 
L 61.372984 193.536 
L 69.567372 231.552 
L 74.973792 269.568 
L 57.6 292.319516 
L 57.6 293.746574 
z
" clip-path="url(#pedb1af8bf8)" style="fill: #d3d3d3"/>
   </g>
   <g id="PathCollection_30">
    <path d="M 74.973792 269.568 
L 69.567372 231.552 
L 61.372984 193.536 
L 57.6 174.215811 
L 57.6 180.313503 
L 60.182183 193.536 
L 68.567151 231.552 
L 73.884045 269.568 
L 57.6 290.892459 
L 57.6 292.319516 
z
" clip-path="url(#pedb1af8bf8)" style="fill: #cbcbcb"/>
   </g>
   <g id="PathCollection_31">
    <path d="M 73.884045 269.568 
L 68.567151 231.552 
L 60.182183 193.536 
L 57.6 180.313503 
L 57.6 186.411195 
L 58.991383 193.536 
L 67.56693 231.552 
L 72.794298 269.568 
L 57.6 289.465402 
L 57.6 290.892459 
z
" clip-path="url(#pedb1af8bf8)" style="fill: #c2c2c2"/>
   </g>
   <g id="PathCollection_32">
    <path d="M 72.794298 269.568 
L 67.56693 231.552 
L 58.991383 193.536 
L 57.6 186.411195 
L 57.6 192.508887 
L 57.800582 193.536 
L 66.56671 231.552 
L 71.704551 269.568 
L 57.6 288.038344 
L 57.6 289.465402 
z
" clip-path="url(#pedb1af8bf8)" style="fill: #b9b9b9"/>
   </g>
   <g id="PathCollection_33">
    <path d="M 71.704551 269.568 
L 66.56671 231.552 
L 57.800582 193.536 
L 57.6 192.508887 
L 57.6 193.536 
L 57.6 197.129842 
L 65.566489 231.552 
L 70.614803 269.568 
L 57.6 286.611287 
L 57.6 288.038344 
z
" clip-path="url(#pedb1af8bf8)" style="fill: #afafaf"/>
   </g>
   <g id="PathCollection_34">
    <path d="M 70.614803 269.568 
L 65.566489 231.552 
L 57.6 197.129842 
L 57.6 201.451664 
L 64.566269 231.552 
L 69.525056 269.568 
L 57.6 285.184229 
L 57.6 286.611287 
z
" clip-path="url(#pedb1af8bf8)" style="fill: #a3a3a3"/>
   </g>
   <g id="PathCollection_35">
    <path d="M 69.525056 269.568 
L 64.566269 231.552 
L 57.6 201.451664 
L 57.6 205.773486 
L 63.566048 231.552 
L 68.435309 269.568 
L 57.6 283.757172 
L 57.6 285.184229 
z
" clip-path="url(#pedb1af8bf8)" style="fill: #979797"/>
   </g>
   <g id="PathCollection_36">
    <path d="M 68.435309 269.568 
L 63.566048 231.552 
L 57.6 205.773486 
L 57.6 210.095309 
L 62.565828 231.552 
L 67.345562 269.568 
L 57.6 282.330114 
L 57.6 283.757172 
z
" clip-path="url(#pedb1af8bf8)" style="fill: #8d8d8d"/>
   </g>
   <g id="PathCollection_37">
    <path d="M 67.345562 269.568 
L 62.565828 231.552 
L 57.6 210.095309 
L 57.6 214.417131 
L 61.565607 231.552 
L 66.255815 269.568 
L 57.6 280.903057 
L 57.6 282.330114 
z
" clip-path="url(#pedb1af8bf8)" style="fill: #808080"/>
   </g>
   <g id="PathCollection_38">
    <path d="M 66.255815 269.568 
L 61.565607 231.552 
L 57.6 214.417131 
L 57.6 218.738953 
L 60.565386 231.552 
L 65.166068 269.568 
L 57.6 279.476 
L 57.6 280.903057 
z
" clip-path="url(#pedb1af8bf8)" style="fill: #737373"/>
   </g>
   <g id="PathCollection_39">
    <path d="M 65.166068 269.568 
L 60.565386 231.552 
L 57.6 218.738953 
L 57.6 223.060775 
L 59.565166 231.552 
L 64.076321 269.568 
L 57.6 278.048942 
L 57.6 279.476 
z
" clip-path="url(#pedb1af8bf8)" style="fill: #656565"/>
   </g>
   <g id="PathCollection_40">
    <path d="M 64.076321 269.568 
L 59.565166 231.552 
L 57.6 223.060775 
L 57.6 227.382598 
L 58.564945 231.552 
L 62.986574 269.568 
L 57.6 276.621885 
L 57.6 278.048942 
z
" clip-path="url(#pedb1af8bf8)" style="fill: #5a5a5a"/>
   </g>
   <g id="PathCollection_41">
    <path d="M 62.986574 269.568 
L 58.564945 231.552 
L 57.6 227.382598 
L 57.6 231.552 
L 57.6 231.889017 
L 61.896827 269.568 
L 57.6 275.194827 
L 57.6 276.621885 
z
" clip-path="url(#pedb1af8bf8)" style="fill: #4c4c4c"/>
   </g>
   <g id="PathCollection_42">
    <path d="M 61.896827 269.568 
L 57.6 231.889017 
L 57.6 241.445037 
L 60.80708 269.568 
L 57.6 273.76777 
L 57.6 275.194827 
z
" clip-path="url(#pedb1af8bf8)" style="fill: #404040"/>
   </g>
   <g id="PathCollection_43">
    <path d="M 60.80708 269.568 
L 57.6 241.445037 
L 57.6 251.001057 
L 59.717333 269.568 
L 57.6 272.340712 
L 57.6 273.76777 
z
" clip-path="url(#pedb1af8bf8)" style="fill: #363636"/>
   </g>
   <g id="PathCollection_44">
    <path d="M 59.717333 269.568 
L 57.6 251.001057 
L 57.6 260.557077 
L 58.627586 269.568 
L 57.6 270.913655 
L 57.6 272.340712 
z
" clip-path="url(#pedb1af8bf8)" style="fill: #2a2a2a"/>
   </g>
   <g id="PathCollection_45">
    <path d="M 58.627586 269.568 
L 57.6 260.557077 
L 57.6 269.568 
L 57.6 270.913655 
z
" clip-path="url(#pedb1af8bf8)" style="fill: #1e1e1e"/>
   </g>
   <g id="matplotlib.axis_1">
    <g id="xtick_1">
     <g id="line2d_1">
      <defs>
       <path id="m6581657b58" d="M 0 0 
L 0 3.5 
" style="stroke: #000000; stroke-width: 0.8"/>
      </defs>
      <g>
       <use xlink:href="#m6581657b58" x="88.07424" y="307.584" style="stroke: #000000; stroke-width: 0.8"/>
      </g>
     </g>
     <g id="text_1">
      <!-- 0.5 -->
      <g transform="translate(80.122678 322.182437)scale(0.1 -0.1)">
       <defs>
        <path id="DejaVuSans-30" d="M 2034 4250 
Q 1547 4250 1301 3770 
Q 1056 3291 1056 2328 
Q 1056 1369 1301 889 
Q 1547 409 2034 409 
Q 2525 409 2770 889 
Q 3016 1369 3016 2328 
Q 3016 3291 2770 3770 
Q 2525 4250 2034 4250 
z
M 2034 4750 
Q 2819 4750 3233 4129 
Q 3647 3509 3647 2328 
Q 3647 1150 3233 529 
Q 2819 -91 2034 -91 
Q 1250 -91 836 529 
Q 422 1150 422 2328 
Q 422 3509 836 4129 
Q 1250 4750 2034 4750 
z
" transform="scale(0.015625)"/>
        <path id="DejaVuSans-2e" d="M 684 794 
L 1344 794 
L 1344 0 
L 684 0 
L 684 794 
z
" transform="scale(0.015625)"/>
        <path id="DejaVuSans-35" d="M 691 4666 
L 3169 4666 
L 3169 4134 
L 1269 4134 
L 1269 2991 
Q 1406 3038 1543 3061 
Q 1681 3084 1819 3084 
Q 2600 3084 3056 2656 
Q 3513 2228 3513 1497 
Q 3513 744 3044 326 
Q 2575 -91 1722 -91 
Q 1428 -91 1123 -41 
Q 819 9 494 109 
L 494 744 
Q 775 591 1075 516 
Q 1375 441 1709 441 
Q 2250 441 2565 725 
Q 2881 1009 2881 1497 
Q 2881 1984 2565 2268 
Q 2250 2553 1709 2553 
Q 1456 2553 1204 2497 
Q 953 2441 691 2322 
L 691 4666 
z
" transform="scale(0.015625)"/>
       </defs>
       <use xlink:href="#DejaVuSans-30"/>
       <use xlink:href="#DejaVuSans-2e" x="63.623047"/>
       <use xlink:href="#DejaVuSans-35" x="95.410156"/>
      </g>
     </g>
    </g>
    <g id="xtick_2">
     <g id="line2d_2">
      <g>
       <use xlink:href="#m6581657b58" x="126.16704" y="307.584" style="stroke: #000000; stroke-width: 0.8"/>
      </g>
     </g>
     <g id="text_2">
      <!-- 1.0 -->
      <g transform="translate(118.215478 322.182437)scale(0.1 -0.1)">
       <defs>
        <path id="DejaVuSans-31" d="M 794 531 
L 1825 531 
L 1825 4091 
L 703 3866 
L 703 4441 
L 1819 4666 
L 2450 4666 
L 2450 531 
L 3481 531 
L 3481 0 
L 794 0 
L 794 531 
z
" transform="scale(0.015625)"/>
       </defs>
       <use xlink:href="#DejaVuSans-31"/>
       <use xlink:href="#DejaVuSans-2e" x="63.623047"/>
       <use xlink:href="#DejaVuSans-30" x="95.410156"/>
      </g>
     </g>
    </g>
    <g id="xtick_3">
     <g id="line2d_3">
      <g>
       <use xlink:href="#m6581657b58" x="164.25984" y="307.584" style="stroke: #000000; stroke-width: 0.8"/>
      </g>
     </g>
     <g id="text_3">
      <!-- 1.5 -->
      <g transform="translate(156.308278 322.182437)scale(0.1 -0.1)">
       <use xlink:href="#DejaVuSans-31"/>
       <use xlink:href="#DejaVuSans-2e" x="63.623047"/>
       <use xlink:href="#DejaVuSans-35" x="95.410156"/>
      </g>
     </g>
    </g>
    <g id="xtick_4">
     <g id="line2d_4">
      <g>
       <use xlink:href="#m6581657b58" x="202.35264" y="307.584" style="stroke: #000000; stroke-width: 0.8"/>
      </g>
     </g>
     <g id="text_4">
      <!-- 2.0 -->
      <g transform="translate(194.401078 322.182437)scale(0.1 -0.1)">
       <defs>
        <path id="DejaVuSans-32" d="M 1228 531 
L 3431 531 
L 3431 0 
L 469 0 
L 469 531 
Q 828 903 1448 1529 
Q 2069 2156 2228 2338 
Q 2531 2678 2651 2914 
Q 2772 3150 2772 3378 
Q 2772 3750 2511 3984 
Q 2250 4219 1831 4219 
Q 1534 4219 1204 4116 
Q 875 4013 500 3803 
L 500 4441 
Q 881 4594 1212 4672 
Q 1544 4750 1819 4750 
Q 2544 4750 2975 4387 
Q 3406 4025 3406 3419 
Q 3406 3131 3298 2873 
Q 3191 2616 2906 2266 
Q 2828 2175 2409 1742 
Q 1991 1309 1228 531 
z
" transform="scale(0.015625)"/>
       </defs>
       <use xlink:href="#DejaVuSans-32"/>
       <use xlink:href="#DejaVuSans-2e" x="63.623047"/>
       <use xlink:href="#DejaVuSans-30" x="95.410156"/>
      </g>
     </g>
    </g>
    <g id="xtick_5">
     <g id="line2d_5">
      <g>
       <use xlink:href="#m6581657b58" x="240.44544" y="307.584" style="stroke: #000000; stroke-width: 0.8"/>
      </g>
     </g>
     <g id="text_5">
      <!-- 2.5 -->
      <g transform="translate(232.493878 322.182437)scale(0.1 -0.1)">
       <use xlink:href="#DejaVuSans-32"/>
       <use xlink:href="#DejaVuSans-2e" x="63.623047"/>
       <use xlink:href="#DejaVuSans-35" x="95.410156"/>
      </g>
     </g>
    </g>
    <g id="xtick_6">
     <g id="line2d_6">
      <g>
       <use xlink:href="#m6581657b58" x="278.53824" y="307.584" style="stroke: #000000; stroke-width: 0.8"/>
      </g>
     </g>
     <g id="text_6">
      <!-- 3.0 -->
      <g transform="translate(270.586678 322.182437)scale(0.1 -0.1)">
       <defs>
        <path id="DejaVuSans-33" d="M 2597 2516 
Q 3050 2419 3304 2112 
Q 3559 1806 3559 1356 
Q 3559 666 3084 287 
Q 2609 -91 1734 -91 
Q 1441 -91 1130 -33 
Q 819 25 488 141 
L 488 750 
Q 750 597 1062 519 
Q 1375 441 1716 441 
Q 2309 441 2620 675 
Q 2931 909 2931 1356 
Q 2931 1769 2642 2001 
Q 2353 2234 1838 2234 
L 1294 2234 
L 1294 2753 
L 1863 2753 
Q 2328 2753 2575 2939 
Q 2822 3125 2822 3475 
Q 2822 3834 2567 4026 
Q 2313 4219 1838 4219 
Q 1578 4219 1281 4162 
Q 984 4106 628 3988 
L 628 4550 
Q 988 4650 1302 4700 
Q 1616 4750 1894 4750 
Q 2613 4750 3031 4423 
Q 3450 4097 3450 3541 
Q 3450 3153 3228 2886 
Q 3006 2619 2597 2516 
z
" transform="scale(0.015625)"/>
       </defs>
       <use xlink:href="#DejaVuSans-33"/>
       <use xlink:href="#DejaVuSans-2e" x="63.623047"/>
       <use xlink:href="#DejaVuSans-30" x="95.410156"/>
      </g>
     </g>
    </g>
    <g id="xtick_7">
     <g id="line2d_7">
      <g>
       <use xlink:href="#m6581657b58" x="316.63104" y="307.584" style="stroke: #000000; stroke-width: 0.8"/>
      </g>
     </g>
     <g id="text_7">
      <!-- 3.5 -->
      <g transform="translate(308.679478 322.182437)scale(0.1 -0.1)">
       <use xlink:href="#DejaVuSans-33"/>
       <use xlink:href="#DejaVuSans-2e" x="63.623047"/>
       <use xlink:href="#DejaVuSans-35" x="95.410156"/>
      </g>
     </g>
    </g>
    <g id="text_8">
     <!-- storage time -->
     <g transform="translate(168.568312 335.860562)scale(0.1 -0.1)">
      <defs>
       <path id="DejaVuSans-73" d="M 2834 3397 
L 2834 2853 
Q 2591 2978 2328 3040 
Q 2066 3103 1784 3103 
Q 1356 3103 1142 2972 
Q 928 2841 928 2578 
Q 928 2378 1081 2264 
Q 1234 2150 1697 2047 
L 1894 2003 
Q 2506 1872 2764 1633 
Q 3022 1394 3022 966 
Q 3022 478 2636 193 
Q 2250 -91 1575 -91 
Q 1294 -91 989 -36 
Q 684 19 347 128 
L 347 722 
Q 666 556 975 473 
Q 1284 391 1588 391 
Q 1994 391 2212 530 
Q 2431 669 2431 922 
Q 2431 1156 2273 1281 
Q 2116 1406 1581 1522 
L 1381 1569 
Q 847 1681 609 1914 
Q 372 2147 372 2553 
Q 372 3047 722 3315 
Q 1072 3584 1716 3584 
Q 2034 3584 2315 3537 
Q 2597 3491 2834 3397 
z
" transform="scale(0.015625)"/>
       <path id="DejaVuSans-74" d="M 1172 4494 
L 1172 3500 
L 2356 3500 
L 2356 3053 
L 1172 3053 
L 1172 1153 
Q 1172 725 1289 603 
Q 1406 481 1766 481 
L 2356 481 
L 2356 0 
L 1766 0 
Q 1100 0 847 248 
Q 594 497 594 1153 
L 594 3053 
L 172 3053 
L 172 3500 
L 594 3500 
L 594 4494 
L 1172 4494 
z
" transform="scale(0.015625)"/>
       <path id="DejaVuSans-6f" d="M 1959 3097 
Q 1497 3097 1228 2736 
Q 959 2375 959 1747 
Q 959 1119 1226 758 
Q 1494 397 1959 397 
Q 2419 397 2687 759 
Q 2956 1122 2956 1747 
Q 2956 2369 2687 2733 
Q 2419 3097 1959 3097 
z
M 1959 3584 
Q 2709 3584 3137 3096 
Q 3566 2609 3566 1747 
Q 3566 888 3137 398 
Q 2709 -91 1959 -91 
Q 1206 -91 779 398 
Q 353 888 353 1747 
Q 353 2609 779 3096 
Q 1206 3584 1959 3584 
z
" transform="scale(0.015625)"/>
       <path id="DejaVuSans-72" d="M 2631 2963 
Q 2534 3019 2420 3045 
Q 2306 3072 2169 3072 
Q 1681 3072 1420 2755 
Q 1159 2438 1159 1844 
L 1159 0 
L 581 0 
L 581 3500 
L 1159 3500 
L 1159 2956 
Q 1341 3275 1631 3429 
Q 1922 3584 2338 3584 
Q 2397 3584 2469 3576 
Q 2541 3569 2628 3553 
L 2631 2963 
z
" transform="scale(0.015625)"/>
       <path id="DejaVuSans-61" d="M 2194 1759 
Q 1497 1759 1228 1600 
Q 959 1441 959 1056 
Q 959 750 1161 570 
Q 1363 391 1709 391 
Q 2188 391 2477 730 
Q 2766 1069 2766 1631 
L 2766 1759 
L 2194 1759 
z
M 3341 1997 
L 3341 0 
L 2766 0 
L 2766 531 
Q 2569 213 2275 61 
Q 1981 -91 1556 -91 
Q 1019 -91 701 211 
Q 384 513 384 1019 
Q 384 1609 779 1909 
Q 1175 2209 1959 2209 
L 2766 2209 
L 2766 2266 
Q 2766 2663 2505 2880 
Q 2244 3097 1772 3097 
Q 1472 3097 1187 3025 
Q 903 2953 641 2809 
L 641 3341 
Q 956 3463 1253 3523 
Q 1550 3584 1831 3584 
Q 2591 3584 2966 3190 
Q 3341 2797 3341 1997 
z
" transform="scale(0.015625)"/>
       <path id="DejaVuSans-67" d="M 2906 1791 
Q 2906 2416 2648 2759 
Q 2391 3103 1925 3103 
Q 1463 3103 1205 2759 
Q 947 2416 947 1791 
Q 947 1169 1205 825 
Q 1463 481 1925 481 
Q 2391 481 2648 825 
Q 2906 1169 2906 1791 
z
M 3481 434 
Q 3481 -459 3084 -895 
Q 2688 -1331 1869 -1331 
Q 1566 -1331 1297 -1286 
Q 1028 -1241 775 -1147 
L 775 -588 
Q 1028 -725 1275 -790 
Q 1522 -856 1778 -856 
Q 2344 -856 2625 -561 
Q 2906 -266 2906 331 
L 2906 616 
Q 2728 306 2450 153 
Q 2172 0 1784 0 
Q 1141 0 747 490 
Q 353 981 353 1791 
Q 353 2603 747 3093 
Q 1141 3584 1784 3584 
Q 2172 3584 2450 3431 
Q 2728 3278 2906 2969 
L 2906 3500 
L 3481 3500 
L 3481 434 
z
" transform="scale(0.015625)"/>
       <path id="DejaVuSans-65" d="M 3597 1894 
L 3597 1613 
L 953 1613 
Q 991 1019 1311 708 
Q 1631 397 2203 397 
Q 2534 397 2845 478 
Q 3156 559 3463 722 
L 3463 178 
Q 3153 47 2828 -22 
Q 2503 -91 2169 -91 
Q 1331 -91 842 396 
Q 353 884 353 1716 
Q 353 2575 817 3079 
Q 1281 3584 2069 3584 
Q 2775 3584 3186 3129 
Q 3597 2675 3597 1894 
z
M 3022 2063 
Q 3016 2534 2758 2815 
Q 2500 3097 2075 3097 
Q 1594 3097 1305 2825 
Q 1016 2553 972 2059 
L 3022 2063 
z
" transform="scale(0.015625)"/>
       <path id="DejaVuSans-20" transform="scale(0.015625)"/>
       <path id="DejaVuSans-69" d="M 603 3500 
L 1178 3500 
L 1178 0 
L 603 0 
L 603 3500 
z
M 603 4863 
L 1178 4863 
L 1178 4134 
L 603 4134 
L 603 4863 
z
" transform="scale(0.015625)"/>
       <path id="DejaVuSans-6d" d="M 3328 2828 
Q 3544 3216 3844 3400 
Q 4144 3584 4550 3584 
Q 5097 3584 5394 3201 
Q 5691 2819 5691 2113 
L 5691 0 
L 5113 0 
L 5113 2094 
Q 5113 2597 4934 2840 
Q 4756 3084 4391 3084 
Q 3944 3084 3684 2787 
Q 3425 2491 3425 1978 
L 3425 0 
L 2847 0 
L 2847 2094 
Q 2847 2600 2669 2842 
Q 2491 3084 2119 3084 
Q 1678 3084 1418 2786 
Q 1159 2488 1159 1978 
L 1159 0 
L 581 0 
L 581 3500 
L 1159 3500 
L 1159 2956 
Q 1356 3278 1631 3431 
Q 1906 3584 2284 3584 
Q 2666 3584 2933 3390 
Q 3200 3197 3328 2828 
z
" transform="scale(0.015625)"/>
      </defs>
      <use xlink:href="#DejaVuSans-73"/>
      <use xlink:href="#DejaVuSans-74" x="52.099609"/>
      <use xlink:href="#DejaVuSans-6f" x="91.308594"/>
      <use xlink:href="#DejaVuSans-72" x="152.490234"/>
      <use xlink:href="#DejaVuSans-61" x="193.603516"/>
      <use xlink:href="#DejaVuSans-67" x="254.882812"/>
      <use xlink:href="#DejaVuSans-65" x="318.359375"/>
      <use xlink:href="#DejaVuSans-20" x="379.882812"/>
      <use xlink:href="#DejaVuSans-74" x="411.669922"/>
      <use xlink:href="#DejaVuSans-69" x="450.878906"/>
      <use xlink:href="#DejaVuSans-6d" x="478.662109"/>
      <use xlink:href="#DejaVuSans-65" x="576.074219"/>
     </g>
    </g>
   </g>
   <g id="matplotlib.axis_2">
    <g id="ytick_1">
     <g id="line2d_8">
      <defs>
       <path id="mbcdf0b9edd" d="M 0 0 
L -3.5 0 
" style="stroke: #000000; stroke-width: 0.8"/>
      </defs>
      <g>
       <use xlink:href="#mbcdf0b9edd" x="57.6" y="277.1712" style="stroke: #000000; stroke-width: 0.8"/>
      </g>
     </g>
     <g id="text_9">
      <!-- 0.5 -->
      <g transform="translate(34.696875 280.970419)scale(0.1 -0.1)">
       <use xlink:href="#DejaVuSans-30"/>
       <use xlink:href="#DejaVuSans-2e" x="63.623047"/>
       <use xlink:href="#DejaVuSans-35" x="95.410156"/>
      </g>
     </g>
    </g>
    <g id="ytick_2">
     <g id="line2d_9">
      <g>
       <use xlink:href="#mbcdf0b9edd" x="57.6" y="239.1552" style="stroke: #000000; stroke-width: 0.8"/>
      </g>
     </g>
     <g id="text_10">
      <!-- 1.0 -->
      <g transform="translate(34.696875 242.954419)scale(0.1 -0.1)">
       <use xlink:href="#DejaVuSans-31"/>
       <use xlink:href="#DejaVuSans-2e" x="63.623047"/>
       <use xlink:href="#DejaVuSans-30" x="95.410156"/>
      </g>
     </g>
    </g>
    <g id="ytick_3">
     <g id="line2d_10">
      <g>
       <use xlink:href="#mbcdf0b9edd" x="57.6" y="201.1392" style="stroke: #000000; stroke-width: 0.8"/>
      </g>
     </g>
     <g id="text_11">
      <!-- 1.5 -->
      <g transform="translate(34.696875 204.938419)scale(0.1 -0.1)">
       <use xlink:href="#DejaVuSans-31"/>
       <use xlink:href="#DejaVuSans-2e" x="63.623047"/>
       <use xlink:href="#DejaVuSans-35" x="95.410156"/>
      </g>
     </g>
    </g>
    <g id="ytick_4">
     <g id="line2d_11">
      <g>
       <use xlink:href="#mbcdf0b9edd" x="57.6" y="163.1232" style="stroke: #000000; stroke-width: 0.8"/>
      </g>
     </g>
     <g id="text_12">
      <!-- 2.0 -->
      <g transform="translate(34.696875 166.922419)scale(0.1 -0.1)">
       <use xlink:href="#DejaVuSans-32"/>
       <use xlink:href="#DejaVuSans-2e" x="63.623047"/>
       <use xlink:href="#DejaVuSans-30" x="95.410156"/>
      </g>
     </g>
    </g>
    <g id="ytick_5">
     <g id="line2d_12">
      <g>
       <use xlink:href="#mbcdf0b9edd" x="57.6" y="125.1072" style="stroke: #000000; stroke-width: 0.8"/>
      </g>
     </g>
     <g id="text_13">
      <!-- 2.5 -->
      <g transform="translate(34.696875 128.906419)scale(0.1 -0.1)">
       <use xlink:href="#DejaVuSans-32"/>
       <use xlink:href="#DejaVuSans-2e" x="63.623047"/>
       <use xlink:href="#DejaVuSans-35" x="95.410156"/>
      </g>
     </g>
    </g>
    <g id="ytick_6">
     <g id="line2d_13">
      <g>
       <use xlink:href="#mbcdf0b9edd" x="57.6" y="87.0912" style="stroke: #000000; stroke-width: 0.8"/>
      </g>
     </g>
     <g id="text_14">
      <!-- 3.0 -->
      <g transform="translate(34.696875 90.890419)scale(0.1 -0.1)">
       <use xlink:href="#DejaVuSans-33"/>
       <use xlink:href="#DejaVuSans-2e" x="63.623047"/>
       <use xlink:href="#DejaVuSans-30" x="95.410156"/>
      </g>
     </g>
    </g>
    <g id="ytick_7">
     <g id="line2d_14">
      <g>
       <use xlink:href="#mbcdf0b9edd" x="57.6" y="49.0752" style="stroke: #000000; stroke-width: 0.8"/>
      </g>
     </g>
     <g id="text_15">
      <!-- 3.5 -->
      <g transform="translate(34.696875 52.874419)scale(0.1 -0.1)">
       <use xlink:href="#DejaVuSans-33"/>
       <use xlink:href="#DejaVuSans-2e" x="63.623047"/>
       <use xlink:href="#DejaVuSans-35" x="95.410156"/>
      </g>
     </g>
    </g>
    <g id="text_16">
     <!-- storage ratio -->
     <g transform="translate(28.617187 206.639719)rotate(-90)scale(0.1 -0.1)">
      <use xlink:href="#DejaVuSans-73"/>
      <use xlink:href="#DejaVuSans-74" x="52.099609"/>
      <use xlink:href="#DejaVuSans-6f" x="91.308594"/>
      <use xlink:href="#DejaVuSans-72" x="152.490234"/>
      <use xlink:href="#DejaVuSans-61" x="193.603516"/>
      <use xlink:href="#DejaVuSans-67" x="254.882812"/>
      <use xlink:href="#DejaVuSans-65" x="318.359375"/>
      <use xlink:href="#DejaVuSans-20" x="379.882812"/>
      <use xlink:href="#DejaVuSans-72" x="411.669922"/>
      <use xlink:href="#DejaVuSans-61" x="452.783203"/>
      <use xlink:href="#DejaVuSans-74" x="514.0625"/>
      <use xlink:href="#DejaVuSans-69" x="553.271484"/>
      <use xlink:href="#DejaVuSans-6f" x="581.054688"/>
     </g>
    </g>
   </g>
   <g id="patch_3">
    <path d="M 57.6 307.584 
L 57.6 41.472 
" style="fill: none; stroke: #000000; stroke-width: 0.8; stroke-linejoin: miter; stroke-linecap: square"/>
   </g>
   <g id="patch_4">
    <path d="M 343.296 307.584 
L 343.296 41.472 
" style="fill: none; stroke: #000000; stroke-width: 0.8; stroke-linejoin: miter; stroke-linecap: square"/>
   </g>
   <g id="patch_5">
    <path d="M 57.6 307.584 
L 343.296 307.584 
" style="fill: none; stroke: #000000; stroke-width: 0.8; stroke-linejoin: miter; stroke-linecap: square"/>
   </g>
   <g id="patch_6">
    <path d="M 57.6 41.472 
L 343.296 41.472 
" style="fill: none; stroke: #000000; stroke-width: 0.8; stroke-linejoin: miter; stroke-linecap: square"/>
   </g>
   <g id="text_17">
    <!-- storage1190! power870! -->
    <g transform="translate(125.668313 35.472)scale(0.12 -0.12)">
     <defs>
      <path id="DejaVuSans-39" d="M 703 97 
L 703 672 
Q 941 559 1184 500 
Q 1428 441 1663 441 
Q 2288 441 2617 861 
Q 2947 1281 2994 2138 
Q 2813 1869 2534 1725 
Q 2256 1581 1919 1581 
Q 1219 1581 811 2004 
Q 403 2428 403 3163 
Q 403 3881 828 4315 
Q 1253 4750 1959 4750 
Q 2769 4750 3195 4129 
Q 3622 3509 3622 2328 
Q 3622 1225 3098 567 
Q 2575 -91 1691 -91 
Q 1453 -91 1209 -44 
Q 966 3 703 97 
z
M 1959 2075 
Q 2384 2075 2632 2365 
Q 2881 2656 2881 3163 
Q 2881 3666 2632 3958 
Q 2384 4250 1959 4250 
Q 1534 4250 1286 3958 
Q 1038 3666 1038 3163 
Q 1038 2656 1286 2365 
Q 1534 2075 1959 2075 
z
" transform="scale(0.015625)"/>
      <path id="DejaVuSans-21" d="M 966 794 
L 1600 794 
L 1600 0 
L 966 0 
L 966 794 
z
M 966 4666 
L 1600 4666 
L 1600 2619 
L 1538 1503 
L 1031 1503 
L 966 2619 
L 966 4666 
z
" transform="scale(0.015625)"/>
      <path id="DejaVuSans-70" d="M 1159 525 
L 1159 -1331 
L 581 -1331 
L 581 3500 
L 1159 3500 
L 1159 2969 
Q 1341 3281 1617 3432 
Q 1894 3584 2278 3584 
Q 2916 3584 3314 3078 
Q 3713 2572 3713 1747 
Q 3713 922 3314 415 
Q 2916 -91 2278 -91 
Q 1894 -91 1617 61 
Q 1341 213 1159 525 
z
M 3116 1747 
Q 3116 2381 2855 2742 
Q 2594 3103 2138 3103 
Q 1681 3103 1420 2742 
Q 1159 2381 1159 1747 
Q 1159 1113 1420 752 
Q 1681 391 2138 391 
Q 2594 391 2855 752 
Q 3116 1113 3116 1747 
z
" transform="scale(0.015625)"/>
      <path id="DejaVuSans-77" d="M 269 3500 
L 844 3500 
L 1563 769 
L 2278 3500 
L 2956 3500 
L 3675 769 
L 4391 3500 
L 4966 3500 
L 4050 0 
L 3372 0 
L 2619 2869 
L 1863 0 
L 1184 0 
L 269 3500 
z
" transform="scale(0.015625)"/>
      <path id="DejaVuSans-38" d="M 2034 2216 
Q 1584 2216 1326 1975 
Q 1069 1734 1069 1313 
Q 1069 891 1326 650 
Q 1584 409 2034 409 
Q 2484 409 2743 651 
Q 3003 894 3003 1313 
Q 3003 1734 2745 1975 
Q 2488 2216 2034 2216 
z
M 1403 2484 
Q 997 2584 770 2862 
Q 544 3141 544 3541 
Q 544 4100 942 4425 
Q 1341 4750 2034 4750 
Q 2731 4750 3128 4425 
Q 3525 4100 3525 3541 
Q 3525 3141 3298 2862 
Q 3072 2584 2669 2484 
Q 3125 2378 3379 2068 
Q 3634 1759 3634 1313 
Q 3634 634 3220 271 
Q 2806 -91 2034 -91 
Q 1263 -91 848 271 
Q 434 634 434 1313 
Q 434 1759 690 2068 
Q 947 2378 1403 2484 
z
M 1172 3481 
Q 1172 3119 1398 2916 
Q 1625 2713 2034 2713 
Q 2441 2713 2670 2916 
Q 2900 3119 2900 3481 
Q 2900 3844 2670 4047 
Q 2441 4250 2034 4250 
Q 1625 4250 1398 4047 
Q 1172 3844 1172 3481 
z
" transform="scale(0.015625)"/>
      <path id="DejaVuSans-37" d="M 525 4666 
L 3525 4666 
L 3525 4397 
L 1831 0 
L 1172 0 
L 2766 4134 
L 525 4134 
L 525 4666 
z
" transform="scale(0.015625)"/>
     </defs>
     <use xlink:href="#DejaVuSans-73"/>
     <use xlink:href="#DejaVuSans-74" x="52.099609"/>
     <use xlink:href="#DejaVuSans-6f" x="91.308594"/>
     <use xlink:href="#DejaVuSans-72" x="152.490234"/>
     <use xlink:href="#DejaVuSans-61" x="193.603516"/>
     <use xlink:href="#DejaVuSans-67" x="254.882812"/>
     <use xlink:href="#DejaVuSans-65" x="318.359375"/>
     <use xlink:href="#DejaVuSans-31" x="379.882812"/>
     <use xlink:href="#DejaVuSans-31" x="443.505859"/>
     <use xlink:href="#DejaVuSans-39" x="507.128906"/>
     <use xlink:href="#DejaVuSans-30" x="570.751953"/>
     <use xlink:href="#DejaVuSans-21" x="634.375"/>
     <use xlink:href="#DejaVuSans-20" x="674.462891"/>
     <use xlink:href="#DejaVuSans-70" x="706.25"/>
     <use xlink:href="#DejaVuSans-6f" x="769.726562"/>
     <use xlink:href="#DejaVuSans-77" x="830.908203"/>
     <use xlink:href="#DejaVuSans-65" x="912.695312"/>
     <use xlink:href="#DejaVuSans-72" x="974.21875"/>
     <use xlink:href="#DejaVuSans-38" x="1015.332031"/>
     <use xlink:href="#DejaVuSans-37" x="1078.955078"/>
     <use xlink:href="#DejaVuSans-30" x="1142.578125"/>
     <use xlink:href="#DejaVuSans-21" x="1206.201172"/>
    </g>
   </g>
  </g>
  <g id="axes_2">
   <g id="patch_7">
    <path d="M 361.152 307.584 
L 374.4576 307.584 
L 374.4576 41.472 
L 361.152 41.472 
z
" style="fill: #ffffff"/>
   </g>
   <g id="patch_8">
    <path clip-path="url(#p1fff378a12)" style="fill: #ffffff; stroke: #ffffff; stroke-width: 0.01; stroke-linejoin: miter"/>
   </g>
   <g id="QuadMesh_1">
    <path d="M 361.152 307.584 
L 374.4576 307.584 
L 374.4576 301.6704 
L 361.152 301.6704 
L 361.152 307.584 
" clip-path="url(#p1fff378a12)" style="fill: #6d0220"/>
    <path d="M 361.152 301.6704 
L 374.4576 301.6704 
L 374.4576 295.7568 
L 361.152 295.7568 
L 361.152 301.6704 
" clip-path="url(#p1fff378a12)" style="fill: #7f0823"/>
    <path d="M 361.152 295.7568 
L 374.4576 295.7568 
L 374.4576 289.8432 
L 361.152 289.8432 
L 361.152 295.7568 
" clip-path="url(#p1fff378a12)" style="fill: #900d26"/>
    <path d="M 361.152 289.8432 
L 374.4576 289.8432 
L 374.4576 283.9296 
L 361.152 283.9296 
L 361.152 289.8432 
" clip-path="url(#p1fff378a12)" style="fill: #9f1228"/>
    <path d="M 361.152 283.9296 
L 374.4576 283.9296 
L 374.4576 278.016 
L 361.152 278.016 
L 361.152 283.9296 
" clip-path="url(#p1fff378a12)" style="fill: #b1182b"/>
    <path d="M 361.152 278.016 
L 374.4576 278.016 
L 374.4576 272.1024 
L 361.152 272.1024 
L 361.152 278.016 
" clip-path="url(#p1fff378a12)" style="fill: #ba2832"/>
    <path d="M 361.152 272.1024 
L 374.4576 272.1024 
L 374.4576 266.1888 
L 361.152 266.1888 
L 361.152 272.1024 
" clip-path="url(#p1fff378a12)" style="fill: #c13639"/>
    <path d="M 361.152 266.1888 
L 374.4576 266.1888 
L 374.4576 260.2752 
L 361.152 260.2752 
L 361.152 266.1888 
" clip-path="url(#p1fff378a12)" style="fill: #c94741"/>
    <path d="M 361.152 260.2752 
L 374.4576 260.2752 
L 374.4576 254.3616 
L 361.152 254.3616 
L 361.152 260.2752 
" clip-path="url(#p1fff378a12)" style="fill: #d25849"/>
    <path d="M 361.152 254.3616 
L 374.4576 254.3616 
L 374.4576 248.448 
L 361.152 248.448 
L 361.152 254.3616 
" clip-path="url(#p1fff378a12)" style="fill: #da6853"/>
    <path d="M 361.152 248.448 
L 374.4576 248.448 
L 374.4576 242.5344 
L 361.152 242.5344 
L 361.152 248.448 
" clip-path="url(#p1fff378a12)" style="fill: #df765e"/>
    <path d="M 361.152 242.5344 
L 374.4576 242.5344 
L 374.4576 236.6208 
L 361.152 236.6208 
L 361.152 242.5344 
" clip-path="url(#p1fff378a12)" style="fill: #e6866a"/>
    <path d="M 361.152 236.6208 
L 374.4576 236.6208 
L 374.4576 230.7072 
L 361.152 230.7072 
L 361.152 236.6208 
" clip-path="url(#p1fff378a12)" style="fill: #ee9677"/>
    <path d="M 361.152 230.7072 
L 374.4576 230.7072 
L 374.4576 224.7936 
L 361.152 224.7936 
L 361.152 230.7072 
" clip-path="url(#p1fff378a12)" style="fill: #f3a481"/>
    <path d="M 361.152 224.7936 
L 374.4576 224.7936 
L 374.4576 218.88 
L 361.152 218.88 
L 361.152 224.7936 
" clip-path="url(#p1fff378a12)" style="fill: #f6b191"/>
    <path d="M 361.152 218.88 
L 374.4576 218.88 
L 374.4576 212.9664 
L 361.152 212.9664 
L 361.152 218.88 
" clip-path="url(#p1fff378a12)" style="fill: #f8bda1"/>
    <path d="M 361.152 212.9664 
L 374.4576 212.9664 
L 374.4576 207.0528 
L 361.152 207.0528 
L 361.152 212.9664 
" clip-path="url(#p1fff378a12)" style="fill: #fac8af"/>
    <path d="M 361.152 207.0528 
L 374.4576 207.0528 
L 374.4576 201.1392 
L 361.152 201.1392 
L 361.152 207.0528 
" clip-path="url(#p1fff378a12)" style="fill: #fcd5bf"/>
    <path d="M 361.152 201.1392 
L 374.4576 201.1392 
L 374.4576 195.2256 
L 361.152 195.2256 
L 361.152 201.1392 
" clip-path="url(#p1fff378a12)" style="fill: #fddfce"/>
    <path d="M 361.152 195.2256 
L 374.4576 195.2256 
L 374.4576 189.312 
L 361.152 189.312 
L 361.152 195.2256 
" clip-path="url(#p1fff378a12)" style="fill: #fee6d9"/>
    <path d="M 361.152 189.312 
L 374.4576 189.312 
L 374.4576 183.3984 
L 361.152 183.3984 
L 361.152 189.312 
" clip-path="url(#p1fff378a12)" style="fill: #feefe6"/>
    <path d="M 361.152 183.3984 
L 374.4576 183.3984 
L 374.4576 177.4848 
L 361.152 177.4848 
L 361.152 183.3984 
" clip-path="url(#p1fff378a12)" style="fill: #fff7f3"/>
    <path d="M 361.152 177.4848 
L 374.4576 177.4848 
L 374.4576 171.5712 
L 361.152 171.5712 
L 361.152 177.4848 
" clip-path="url(#p1fff378a12)" style="fill: #fefefe"/>
    <path d="M 361.152 171.5712 
L 374.4576 171.5712 
L 374.4576 165.6576 
L 361.152 165.6576 
L 361.152 171.5712 
" clip-path="url(#p1fff378a12)" style="fill: #f8f8f8"/>
    <path d="M 361.152 165.6576 
L 374.4576 165.6576 
L 374.4576 159.744 
L 361.152 159.744 
L 361.152 165.6576 
" clip-path="url(#p1fff378a12)" style="fill: #f1f1f1"/>
    <path d="M 361.152 159.744 
L 374.4576 159.744 
L 374.4576 153.8304 
L 361.152 153.8304 
L 361.152 159.744 
" clip-path="url(#p1fff378a12)" style="fill: #eaeaea"/>
    <path d="M 361.152 153.8304 
L 374.4576 153.8304 
L 374.4576 147.9168 
L 361.152 147.9168 
L 361.152 153.8304 
" clip-path="url(#p1fff378a12)" style="fill: #e4e4e4"/>
    <path d="M 361.152 147.9168 
L 374.4576 147.9168 
L 374.4576 142.0032 
L 361.152 142.0032 
L 361.152 147.9168 
" clip-path="url(#p1fff378a12)" style="fill: #dcdcdc"/>
    <path d="M 361.152 142.0032 
L 374.4576 142.0032 
L 374.4576 136.0896 
L 361.152 136.0896 
L 361.152 142.0032 
" clip-path="url(#p1fff378a12)" style="fill: #d3d3d3"/>
    <path d="M 361.152 136.0896 
L 374.4576 136.0896 
L 374.4576 130.176 
L 361.152 130.176 
L 361.152 136.0896 
" clip-path="url(#p1fff378a12)" style="fill: #cbcbcb"/>
    <path d="M 361.152 130.176 
L 374.4576 130.176 
L 374.4576 124.2624 
L 361.152 124.2624 
L 361.152 130.176 
" clip-path="url(#p1fff378a12)" style="fill: #c2c2c2"/>
    <path d="M 361.152 124.2624 
L 374.4576 124.2624 
L 374.4576 118.3488 
L 361.152 118.3488 
L 361.152 124.2624 
" clip-path="url(#p1fff378a12)" style="fill: #b9b9b9"/>
    <path d="M 361.152 118.3488 
L 374.4576 118.3488 
L 374.4576 112.4352 
L 361.152 112.4352 
L 361.152 118.3488 
" clip-path="url(#p1fff378a12)" style="fill: #afafaf"/>
    <path d="M 361.152 112.4352 
L 374.4576 112.4352 
L 374.4576 106.5216 
L 361.152 106.5216 
L 361.152 112.4352 
" clip-path="url(#p1fff378a12)" style="fill: #a3a3a3"/>
    <path d="M 361.152 106.5216 
L 374.4576 106.5216 
L 374.4576 100.608 
L 361.152 100.608 
L 361.152 106.5216 
" clip-path="url(#p1fff378a12)" style="fill: #979797"/>
    <path d="M 361.152 100.608 
L 374.4576 100.608 
L 374.4576 94.6944 
L 361.152 94.6944 
L 361.152 100.608 
" clip-path="url(#p1fff378a12)" style="fill: #8d8d8d"/>
    <path d="M 361.152 94.6944 
L 374.4576 94.6944 
L 374.4576 88.7808 
L 361.152 88.7808 
L 361.152 94.6944 
" clip-path="url(#p1fff378a12)" style="fill: #808080"/>
    <path d="M 361.152 88.7808 
L 374.4576 88.7808 
L 374.4576 82.8672 
L 361.152 82.8672 
L 361.152 88.7808 
" clip-path="url(#p1fff378a12)" style="fill: #737373"/>
    <path d="M 361.152 82.8672 
L 374.4576 82.8672 
L 374.4576 76.9536 
L 361.152 76.9536 
L 361.152 82.8672 
" clip-path="url(#p1fff378a12)" style="fill: #656565"/>
    <path d="M 361.152 76.9536 
L 374.4576 76.9536 
L 374.4576 71.04 
L 361.152 71.04 
L 361.152 76.9536 
" clip-path="url(#p1fff378a12)" style="fill: #5a5a5a"/>
    <path d="M 361.152 71.04 
L 374.4576 71.04 
L 374.4576 65.1264 
L 361.152 65.1264 
L 361.152 71.04 
" clip-path="url(#p1fff378a12)" style="fill: #4c4c4c"/>
    <path d="M 361.152 65.1264 
L 374.4576 65.1264 
L 374.4576 59.2128 
L 361.152 59.2128 
L 361.152 65.1264 
" clip-path="url(#p1fff378a12)" style="fill: #404040"/>
    <path d="M 361.152 59.2128 
L 374.4576 59.2128 
L 374.4576 53.2992 
L 361.152 53.2992 
L 361.152 59.2128 
" clip-path="url(#p1fff378a12)" style="fill: #363636"/>
    <path d="M 361.152 53.2992 
L 374.4576 53.2992 
L 374.4576 47.3856 
L 361.152 47.3856 
L 361.152 53.2992 
" clip-path="url(#p1fff378a12)" style="fill: #2a2a2a"/>
    <path d="M 361.152 47.3856 
L 374.4576 47.3856 
L 374.4576 41.472 
L 361.152 41.472 
L 361.152 47.3856 
" clip-path="url(#p1fff378a12)" style="fill: #1e1e1e"/>
   </g>
   <g id="matplotlib.axis_3">
    <g id="ytick_8">
     <g id="line2d_15">
      <defs>
       <path id="m740c395611" d="M 0 0 
L 3.5 0 
" style="stroke: #000000; stroke-width: 0.8"/>
      </defs>
      <g>
       <use xlink:href="#m740c395611" x="374.4576" y="307.584" style="stroke: #000000; stroke-width: 0.8"/>
      </g>
     </g>
     <g id="text_18">
      <!-- 0.00 -->
      <g transform="translate(381.4576 311.383219)scale(0.1 -0.1)">
       <use xlink:href="#DejaVuSans-30"/>
       <use xlink:href="#DejaVuSans-2e" x="63.623047"/>
       <use xlink:href="#DejaVuSans-30" x="95.410156"/>
       <use xlink:href="#DejaVuSans-30" x="159.033203"/>
      </g>
     </g>
    </g>
    <g id="ytick_9">
     <g id="line2d_16">
      <g>
       <use xlink:href="#m740c395611" x="374.4576" y="278.016" style="stroke: #000000; stroke-width: 0.8"/>
      </g>
     </g>
     <g id="text_19">
      <!-- 0.75 -->
      <g transform="translate(381.4576 281.815219)scale(0.1 -0.1)">
       <use xlink:href="#DejaVuSans-30"/>
       <use xlink:href="#DejaVuSans-2e" x="63.623047"/>
       <use xlink:href="#DejaVuSans-37" x="95.410156"/>
       <use xlink:href="#DejaVuSans-35" x="159.033203"/>
      </g>
     </g>
    </g>
    <g id="ytick_10">
     <g id="line2d_17">
      <g>
       <use xlink:href="#m740c395611" x="374.4576" y="248.448" style="stroke: #000000; stroke-width: 0.8"/>
      </g>
     </g>
     <g id="text_20">
      <!-- 1.50 -->
      <g transform="translate(381.4576 252.247219)scale(0.1 -0.1)">
       <use xlink:href="#DejaVuSans-31"/>
       <use xlink:href="#DejaVuSans-2e" x="63.623047"/>
       <use xlink:href="#DejaVuSans-35" x="95.410156"/>
       <use xlink:href="#DejaVuSans-30" x="159.033203"/>
      </g>
     </g>
    </g>
    <g id="ytick_11">
     <g id="line2d_18">
      <g>
       <use xlink:href="#m740c395611" x="374.4576" y="218.88" style="stroke: #000000; stroke-width: 0.8"/>
      </g>
     </g>
     <g id="text_21">
      <!-- 2.25 -->
      <g transform="translate(381.4576 222.679219)scale(0.1 -0.1)">
       <use xlink:href="#DejaVuSans-32"/>
       <use xlink:href="#DejaVuSans-2e" x="63.623047"/>
       <use xlink:href="#DejaVuSans-32" x="95.410156"/>
       <use xlink:href="#DejaVuSans-35" x="159.033203"/>
      </g>
     </g>
    </g>
    <g id="ytick_12">
     <g id="line2d_19">
      <g>
       <use xlink:href="#m740c395611" x="374.4576" y="189.312" style="stroke: #000000; stroke-width: 0.8"/>
      </g>
     </g>
     <g id="text_22">
      <!-- 3.00 -->
      <g transform="translate(381.4576 193.111219)scale(0.1 -0.1)">
       <use xlink:href="#DejaVuSans-33"/>
       <use xlink:href="#DejaVuSans-2e" x="63.623047"/>
       <use xlink:href="#DejaVuSans-30" x="95.410156"/>
       <use xlink:href="#DejaVuSans-30" x="159.033203"/>
      </g>
     </g>
    </g>
    <g id="ytick_13">
     <g id="line2d_20">
      <g>
       <use xlink:href="#m740c395611" x="374.4576" y="159.744" style="stroke: #000000; stroke-width: 0.8"/>
      </g>
     </g>
     <g id="text_23">
      <!-- 3.75 -->
      <g transform="translate(381.4576 163.543219)scale(0.1 -0.1)">
       <use xlink:href="#DejaVuSans-33"/>
       <use xlink:href="#DejaVuSans-2e" x="63.623047"/>
       <use xlink:href="#DejaVuSans-37" x="95.410156"/>
       <use xlink:href="#DejaVuSans-35" x="159.033203"/>
      </g>
     </g>
    </g>
    <g id="ytick_14">
     <g id="line2d_21">
      <g>
       <use xlink:href="#m740c395611" x="374.4576" y="130.176" style="stroke: #000000; stroke-width: 0.8"/>
      </g>
     </g>
     <g id="text_24">
      <!-- 4.50 -->
      <g transform="translate(381.4576 133.975219)scale(0.1 -0.1)">
       <defs>
        <path id="DejaVuSans-34" d="M 2419 4116 
L 825 1625 
L 2419 1625 
L 2419 4116 
z
M 2253 4666 
L 3047 4666 
L 3047 1625 
L 3713 1625 
L 3713 1100 
L 3047 1100 
L 3047 0 
L 2419 0 
L 2419 1100 
L 313 1100 
L 313 1709 
L 2253 4666 
z
" transform="scale(0.015625)"/>
       </defs>
       <use xlink:href="#DejaVuSans-34"/>
       <use xlink:href="#DejaVuSans-2e" x="63.623047"/>
       <use xlink:href="#DejaVuSans-35" x="95.410156"/>
       <use xlink:href="#DejaVuSans-30" x="159.033203"/>
      </g>
     </g>
    </g>
    <g id="ytick_15">
     <g id="line2d_22">
      <g>
       <use xlink:href="#m740c395611" x="374.4576" y="100.608" style="stroke: #000000; stroke-width: 0.8"/>
      </g>
     </g>
     <g id="text_25">
      <!-- 5.25 -->
      <g transform="translate(381.4576 104.407219)scale(0.1 -0.1)">
       <use xlink:href="#DejaVuSans-35"/>
       <use xlink:href="#DejaVuSans-2e" x="63.623047"/>
       <use xlink:href="#DejaVuSans-32" x="95.410156"/>
       <use xlink:href="#DejaVuSans-35" x="159.033203"/>
      </g>
     </g>
    </g>
    <g id="ytick_16">
     <g id="line2d_23">
      <g>
       <use xlink:href="#m740c395611" x="374.4576" y="71.04" style="stroke: #000000; stroke-width: 0.8"/>
      </g>
     </g>
     <g id="text_26">
      <!-- 6.00 -->
      <g transform="translate(381.4576 74.839219)scale(0.1 -0.1)">
       <defs>
        <path id="DejaVuSans-36" d="M 2113 2584 
Q 1688 2584 1439 2293 
Q 1191 2003 1191 1497 
Q 1191 994 1439 701 
Q 1688 409 2113 409 
Q 2538 409 2786 701 
Q 3034 994 3034 1497 
Q 3034 2003 2786 2293 
Q 2538 2584 2113 2584 
z
M 3366 4563 
L 3366 3988 
Q 3128 4100 2886 4159 
Q 2644 4219 2406 4219 
Q 1781 4219 1451 3797 
Q 1122 3375 1075 2522 
Q 1259 2794 1537 2939 
Q 1816 3084 2150 3084 
Q 2853 3084 3261 2657 
Q 3669 2231 3669 1497 
Q 3669 778 3244 343 
Q 2819 -91 2113 -91 
Q 1303 -91 875 529 
Q 447 1150 447 2328 
Q 447 3434 972 4092 
Q 1497 4750 2381 4750 
Q 2619 4750 2861 4703 
Q 3103 4656 3366 4563 
z
" transform="scale(0.015625)"/>
       </defs>
       <use xlink:href="#DejaVuSans-36"/>
       <use xlink:href="#DejaVuSans-2e" x="63.623047"/>
       <use xlink:href="#DejaVuSans-30" x="95.410156"/>
       <use xlink:href="#DejaVuSans-30" x="159.033203"/>
      </g>
     </g>
    </g>
    <g id="ytick_17">
     <g id="line2d_24">
      <g>
       <use xlink:href="#m740c395611" x="374.4576" y="41.472" style="stroke: #000000; stroke-width: 0.8"/>
      </g>
     </g>
     <g id="text_27">
      <!-- 6.75 -->
      <g transform="translate(381.4576 45.271219)scale(0.1 -0.1)">
       <use xlink:href="#DejaVuSans-36"/>
       <use xlink:href="#DejaVuSans-2e" x="63.623047"/>
       <use xlink:href="#DejaVuSans-37" x="95.410156"/>
       <use xlink:href="#DejaVuSans-35" x="159.033203"/>
      </g>
     </g>
    </g>
   </g>
   <g id="LineCollection_1"/>
   <g id="patch_9">
    <path d="M 361.152 307.584 
L 367.8048 307.584 
L 374.4576 307.584 
L 374.4576 41.472 
L 367.8048 41.472 
L 361.152 41.472 
L 361.152 307.584 
z
" style="fill: none; stroke: #000000; stroke-width: 0.8; stroke-linejoin: miter; stroke-linecap: square"/>
   </g>
  </g>
 </g>
 <defs>
  <clipPath id="pedb1af8bf8">
   <rect x="57.6" y="41.472" width="285.696" height="266.112"/>
  </clipPath>
  <clipPath id="p1fff378a12">
   <rect x="361.152" y="41.472" width="13.3056" height="266.112"/>
  </clipPath>
 </defs>
</svg>
