<?xml version="1.0" encoding="utf-8" standalone="no"?>
<!DOCTYPE svg PUBLIC "-//W3C//DTD SVG 1.1//EN"
  "http://www.w3.org/Graphics/SVG/1.1/DTD/svg11.dtd">
<svg xmlns:xlink="http://www.w3.org/1999/xlink" width="460.8pt" height="345.6pt" viewBox="0 0 460.8 345.6" xmlns="http://www.w3.org/2000/svg" version="1.1">
 <metadata>
  <rdf:RDF xmlns:dc="http://purl.org/dc/elements/1.1/" xmlns:cc="http://creativecommons.org/ns#" xmlns:rdf="http://www.w3.org/1999/02/22-rdf-syntax-ns#">
   <cc:Work>
    <dc:type rdf:resource="http://purl.org/dc/dcmitype/StillImage"/>
    <dc:date>2023-02-20T12:52:51.824827</dc:date>
    <dc:format>image/svg+xml</dc:format>
    <dc:creator>
     <cc:Agent>
      <dc:title>Matplotlib v3.5.3, https://matplotlib.org/</dc:title>
     </cc:Agent>
    </dc:creator>
   </cc:Work>
  </rdf:RDF>
 </metadata>
 <defs>
  <style type="text/css">*{stroke-linejoin: round; stroke-linecap: butt}</style>
 </defs>
 <g id="figure_1">
  <g id="patch_1">
   <path d="M 0 345.6 
L 460.8 345.6 
L 460.8 0 
L 0 0 
z
" style="fill: #ffffff"/>
  </g>
  <g id="axes_1">
   <g id="patch_2">
    <path d="M 57.6 307.584 
L 343.296 307.584 
L 343.296 41.472 
L 57.6 41.472 
z
" style="fill: #ffffff"/>
   </g>
   <g id="PathCollection_1">
    <path d="M 343.296 83.588569 
L 343.296 79.488 
L 343.296 41.472 
L 324.2496 41.472 
L 305.2032 41.472 
L 293.114865 41.472 
L 305.2032 52.232078 
L 324.2496 68.731064 
L 336.952185 79.488 
z
" clip-path="url(#p3e892a6bdd)" style="fill: #6d0220"/>
   </g>
   <g id="PathCollection_2">
    <path d="M 343.296 159.035644 
L 343.296 155.52 
L 343.296 117.504 
L 343.296 83.588569 
L 336.952185 79.488 
L 324.2496 68.731064 
L 305.2032 52.232078 
L 293.114865 41.472 
L 286.1568 41.472 
L 267.1104 41.472 
L 248.064 41.472 
L 229.0176 41.472 
L 209.9712 41.472 
L 203.96117 41.472 
L 209.9712 49.975314 
L 229.0176 74.932215 
L 232.764617 79.488 
L 248.064 94.101286 
L 267.1104 111.914383 
L 273.415007 117.504 
L 286.1568 125.692814 
L 305.2032 137.597698 
L 324.2496 149.460988 
L 334.289065 155.52 
z
" clip-path="url(#p3e892a6bdd)" style="fill: #7f0823"/>
   </g>
   <g id="PathCollection_3">
    <path d="M 343.296 197.001765 
L 343.296 193.536 
L 343.296 159.035644 
L 334.289065 155.52 
L 324.2496 149.460988 
L 305.2032 137.597698 
L 286.1568 125.692814 
L 273.415007 117.504 
L 267.1104 111.914383 
L 248.064 94.101286 
L 232.764617 79.488 
L 229.0176 74.932215 
L 209.9712 49.975314 
L 203.96117 41.472 
L 190.9248 41.472 
L 171.8784 41.472 
L 159.440615 41.472 
L 171.8784 64.48653 
L 180.985817 79.488 
L 190.9248 92.786465 
L 209.9712 116.727422 
L 210.65211 117.504 
L 229.0176 133.049761 
L 248.064 149.011466 
L 256.234492 155.52 
L 267.1104 161.252697 
L 286.1568 170.908455 
L 305.2032 180.512891 
L 324.2496 190.075956 
L 331.426586 193.536 
z
" clip-path="url(#p3e892a6bdd)" style="fill: #900d26"/>
   </g>
   <g id="PathCollection_4">
    <path d="M 286.1568 199.848085 
L 305.2032 206.667824 
L 324.2496 213.438372 
L 343.296 220.16872 
L 343.296 197.001765 
L 331.426586 193.536 
L 324.2496 190.075956 
L 305.2032 180.512891 
L 286.1568 170.908455 
L 267.1104 161.252697 
L 256.234492 155.52 
L 248.064 149.011466 
L 229.0176 133.049761 
L 210.65211 117.504 
L 209.9712 116.727422 
L 190.9248 92.786465 
L 180.985817 79.488 
L 171.8784 64.48653 
L 159.440615 41.472 
L 152.832 41.472 
L 133.7856 41.472 
L 132.342849 41.472 
L 133.7856 45.324189 
L 149.608178 79.488 
L 152.832 85.36907 
L 171.8784 115.600823 
L 173.228031 117.504 
L 190.9248 136.490629 
L 209.072785 155.52 
L 209.9712 156.161912 
L 229.0176 168.390819 
L 248.064 180.511049 
L 267.1104 192.548739 
L 268.786914 193.536 
z
" clip-path="url(#p3e892a6bdd)" style="fill: #a21328"/>
   </g>
   <g id="PathCollection_5">
    <path d="M 324.2496 234.20381 
L 343.296 239.785545 
L 343.296 231.552 
L 343.296 220.16872 
L 324.2496 213.438372 
L 305.2032 206.667824 
L 286.1568 199.848085 
L 268.786914 193.536 
L 267.1104 192.548739 
L 248.064 180.511049 
L 229.0176 168.390819 
L 209.9712 156.161912 
L 209.072785 155.52 
L 190.9248 136.490629 
L 173.228031 117.504 
L 171.8784 115.600823 
L 152.832 85.36907 
L 149.608178 79.488 
L 133.7856 45.324189 
L 132.342849 41.472 
L 114.7392 41.472 
L 114.3152 41.472 
L 114.7392 42.924443 
L 129.031786 79.488 
L 133.7856 90.078549 
L 148.623507 117.504 
L 152.832 123.661849 
L 171.8784 148.090617 
L 178.215261 155.52 
L 190.9248 165.818641 
L 209.9712 180.508844 
L 227.186704 193.536 
L 229.0176 194.415977 
L 248.064 202.755242 
L 267.1104 210.996138 
L 286.1568 219.160671 
L 305.2032 227.264736 
L 315.626448 231.552 
z
" clip-path="url(#p3e892a6bdd)" style="fill: #b3192c"/>
   </g>
   <g id="PathCollection_6">
    <path d="M 286.1568 236.508603 
L 305.2032 243.123721 
L 324.2496 249.60312 
L 343.296 255.972867 
L 343.296 239.785545 
L 324.2496 234.20381 
L 315.626448 231.552 
L 305.2032 227.264736 
L 286.1568 219.160671 
L 267.1104 210.996138 
L 248.064 202.755242 
L 229.0176 194.415977 
L 227.186704 193.536 
L 209.9712 180.508844 
L 190.9248 165.818641 
L 178.215261 155.52 
L 171.8784 148.090617 
L 152.832 123.661849 
L 148.623507 117.504 
L 133.7856 90.078549 
L 129.031786 79.488 
L 114.7392 42.924443 
L 114.3152 41.472 
L 102.446219 41.472 
L 113.69469 79.488 
L 114.7392 82.472709 
L 130.735022 117.504 
L 133.7856 122.955374 
L 152.832 151.690796 
L 155.711759 155.52 
L 171.8784 170.644582 
L 190.9248 187.851431 
L 197.722122 193.536 
L 209.9712 200.130372 
L 229.0176 209.879979 
L 248.064 219.501181 
L 267.1104 229.025013 
L 272.465206 231.552 
z
" clip-path="url(#p3e892a6bdd)" style="fill: #bb2a34"/>
   </g>
   <g id="PathCollection_7">
    <path d="M 343.296 270.149801 
L 343.296 269.568 
L 343.296 255.972867 
L 324.2496 249.60312 
L 305.2032 243.123721 
L 286.1568 236.508603 
L 272.465206 231.552 
L 267.1104 229.025013 
L 248.064 219.501181 
L 229.0176 209.879979 
L 209.9712 200.130372 
L 197.722122 193.536 
L 190.9248 187.851431 
L 171.8784 170.644582 
L 155.711759 155.52 
L 152.832 151.690796 
L 133.7856 122.955374 
L 130.735022 117.504 
L 114.7392 82.472709 
L 113.69469 79.488 
L 102.446219 41.472 
L 95.6928 41.472 
L 92.746362 41.472 
L 95.6928 55.516484 
L 103.322831 79.488 
L 114.7392 112.110525 
L 117.201943 117.504 
L 133.7856 147.13895 
L 139.240989 155.52 
L 152.832 170.552328 
L 171.8784 190.365088 
L 175.270693 193.536 
L 190.9248 203.111113 
L 209.9712 214.313755 
L 229.0176 225.343982 
L 240.231899 231.552 
L 248.064 234.993881 
L 267.1104 242.773781 
L 286.1568 250.339156 
L 305.2032 257.737264 
L 324.2496 265.00243 
L 336.616351 269.568 
z
" clip-path="url(#p3e892a6bdd)" style="fill: #c2383a"/>
   </g>
   <g id="PathCollection_8">
    <path d="M 305.2032 270.330512 
L 324.2496 272.240623 
L 343.296 273.782946 
L 343.296 270.149801 
L 336.616351 269.568 
L 324.2496 265.00243 
L 305.2032 257.737264 
L 286.1568 250.339156 
L 267.1104 242.773781 
L 248.064 234.993881 
L 240.231899 231.552 
L 229.0176 225.343982 
L 209.9712 214.313755 
L 190.9248 203.111113 
L 175.270693 193.536 
L 171.8784 190.365088 
L 152.832 170.552328 
L 139.240989 155.52 
L 133.7856 147.13895 
L 117.201943 117.504 
L 114.7392 112.110525 
L 103.322831 79.488 
L 95.6928 55.516484 
L 92.746362 41.472 
L 85.910121 41.472 
L 94.103711 79.488 
L 95.6928 85.801261 
L 107.477318 117.504 
L 114.7392 134.146789 
L 126.481659 155.52 
L 133.7856 165.390602 
L 152.832 187.96327 
L 158.090611 193.536 
L 171.8784 203.294496 
L 190.9248 216.015664 
L 209.9712 228.497138 
L 215.01126 231.552 
L 229.0176 238.439474 
L 248.064 247.269933 
L 267.1104 255.824841 
L 286.1568 264.169709 
L 298.957855 269.568 
z
" clip-path="url(#p3e892a6bdd)" style="fill: #cb4942"/>
   </g>
   <g id="PathCollection_9">
    <path d="M 286.1568 272.16838 
L 305.2032 274.334746 
L 324.2496 276.039546 
L 343.296 277.41609 
L 343.296 273.782946 
L 324.2496 272.240623 
L 305.2032 270.330512 
L 298.957855 269.568 
L 286.1568 264.169709 
L 267.1104 255.824841 
L 248.064 247.269933 
L 229.0176 238.439474 
L 215.01126 231.552 
L 209.9712 228.497138 
L 190.9248 216.015664 
L 171.8784 203.294496 
L 158.090611 193.536 
L 152.832 187.96327 
L 133.7856 165.390602 
L 126.481659 155.52 
L 114.7392 134.146789 
L 107.477318 117.504 
L 95.6928 85.801261 
L 94.103711 79.488 
L 85.910121 41.472 
L 79.07388 41.472 
L 88.092467 79.488 
L 95.6928 109.683222 
L 98.599934 117.504 
L 114.7392 154.491988 
L 115.303991 155.52 
L 133.7856 180.496191 
L 144.440067 193.536 
L 152.832 200.577072 
L 171.8784 214.922724 
L 190.9248 228.920214 
L 194.854124 231.552 
L 209.9712 239.983279 
L 229.0176 249.946399 
L 248.064 259.545985 
L 267.1104 268.875902 
L 268.634484 269.568 
z
" clip-path="url(#p3e892a6bdd)" style="fill: #d35a4a"/>
   </g>
   <g id="PathCollection_10">
    <path d="M 248.064 270.500294 
L 267.1104 273.931376 
L 286.1568 276.433511 
L 305.2032 278.338979 
L 324.2496 279.838469 
L 343.296 281.049235 
L 343.296 277.41609 
L 324.2496 276.039546 
L 305.2032 274.334746 
L 286.1568 272.16838 
L 268.634484 269.568 
L 267.1104 268.875902 
L 248.064 259.545985 
L 229.0176 249.946399 
L 209.9712 239.983279 
L 194.854124 231.552 
L 190.9248 228.920214 
L 171.8784 214.922724 
L 152.832 200.577072 
L 144.440067 193.536 
L 133.7856 180.496191 
L 115.303991 155.52 
L 114.7392 154.491988 
L 98.599934 117.504 
L 95.6928 109.683222 
L 88.092467 79.488 
L 79.07388 41.472 
L 76.6464 41.472 
L 74.610041 41.472 
L 76.6464 57.299366 
L 82.081223 79.488 
L 92.203146 117.504 
L 95.6928 128.613991 
L 107.724941 155.52 
L 114.7392 167.680137 
L 132.577254 193.536 
L 133.7856 194.778932 
L 152.832 210.932665 
L 171.8784 226.550953 
L 178.559096 231.552 
L 190.9248 239.50906 
L 209.9712 250.729008 
L 229.0176 261.453324 
L 244.129358 269.568 
z
" clip-path="url(#p3e892a6bdd)" style="fill: #db6b55"/>
   </g>
   <g id="PathCollection_11">
    <path d="M 229.0176 271.266483 
L 248.064 275.577801 
L 267.1104 278.539099 
L 286.1568 280.698641 
L 305.2032 282.343213 
L 324.2496 283.637392 
L 343.296 284.68238 
L 343.296 281.049235 
L 324.2496 279.838469 
L 305.2032 278.338979 
L 286.1568 276.433511 
L 267.1104 273.931376 
L 248.064 270.500294 
L 244.129358 269.568 
L 229.0176 261.453324 
L 209.9712 250.729008 
L 190.9248 239.50906 
L 178.559096 231.552 
L 171.8784 226.550953 
L 152.832 210.932665 
L 133.7856 194.778932 
L 132.577254 193.536 
L 114.7392 167.680137 
L 107.724941 155.52 
L 95.6928 128.613991 
L 92.203146 117.504 
L 82.081223 79.488 
L 76.6464 57.299366 
L 74.610041 41.472 
L 71.452455 41.472 
L 76.376826 79.488 
L 76.6464 81.228885 
L 87.014253 117.504 
L 95.6928 145.133844 
L 100.337402 155.52 
L 114.7392 180.487405 
L 123.741473 193.536 
L 133.7856 203.867616 
L 152.832 221.288257 
L 164.924783 231.552 
L 171.8784 236.830333 
L 190.9248 249.504645 
L 209.9712 261.474736 
L 223.659683 269.568 
z
" clip-path="url(#p3e892a6bdd)" style="fill: #e27b62"/>
   </g>
   <g id="PathCollection_12">
    <path d="M 209.9712 271.258669 
L 229.0176 277.027944 
L 248.064 280.655309 
L 267.1104 283.146822 
L 286.1568 284.963772 
L 305.2032 286.347446 
L 324.2496 287.436315 
L 343.296 288.315525 
L 343.296 284.68238 
L 324.2496 283.637392 
L 305.2032 282.343213 
L 286.1568 280.698641 
L 267.1104 278.539099 
L 248.064 275.577801 
L 229.0176 271.266483 
L 223.659683 269.568 
L 209.9712 261.474736 
L 190.9248 249.504645 
L 171.8784 236.830333 
L 164.924783 231.552 
L 152.832 221.288257 
L 133.7856 203.867616 
L 123.741473 193.536 
L 114.7392 180.487405 
L 100.337402 155.52 
L 95.6928 145.133844 
L 87.014253 117.504 
L 76.6464 81.228885 
L 76.376826 79.488 
L 71.452455 41.472 
L 68.294869 41.472 
L 73.565552 79.488 
L 76.6464 99.383822 
L 81.825359 117.504 
L 94.069816 155.52 
L 95.6928 159.426761 
L 114.7392 193.294673 
L 114.905692 193.536 
L 133.7856 212.9563 
L 152.74979 231.552 
L 152.832 231.627853 
L 171.8784 246.091835 
L 190.9248 259.500229 
L 206.222264 269.568 
z
" clip-path="url(#p3e892a6bdd)" style="fill: #e8896c"/>
   </g>
   <g id="PathCollection_13">
    <path d="M 209.9712 278.107949 
L 229.0176 282.789405 
L 248.064 285.732817 
L 267.1104 287.754545 
L 286.1568 289.228902 
L 305.2032 290.351679 
L 324.2496 291.235238 
L 343.296 291.948669 
L 343.296 288.315525 
L 324.2496 287.436315 
L 305.2032 286.347446 
L 286.1568 284.963772 
L 267.1104 283.146822 
L 248.064 280.655309 
L 229.0176 277.027944 
L 209.9712 271.258669 
L 206.222264 269.568 
L 190.9248 259.500229 
L 171.8784 246.091835 
L 152.832 231.627853 
L 152.74979 231.552 
L 133.7856 212.9563 
L 114.905692 193.536 
L 114.7392 193.294673 
L 95.6928 159.426761 
L 94.069816 155.52 
L 81.825359 117.504 
L 76.6464 99.383822 
L 73.565552 79.488 
L 68.294869 41.472 
L 65.137282 41.472 
L 70.754279 79.488 
L 76.641676 117.504 
L 76.6464 117.52836 
L 89.698642 155.52 
L 95.6928 169.948817 
L 108.940751 193.536 
L 114.7392 201.219833 
L 133.7856 222.044984 
L 143.481006 231.552 
L 152.832 240.179912 
L 171.8784 255.353338 
L 190.9248 269.495813 
L 191.034484 269.568 
z
" clip-path="url(#p3e892a6bdd)" style="fill: #ef9979"/>
   </g>
   <g id="PathCollection_14">
    <path d="M 190.9248 278.352634 
L 209.9712 284.957229 
L 229.0176 288.550866 
L 248.064 290.810324 
L 267.1104 292.362269 
L 286.1568 293.494033 
L 305.2032 294.355913 
L 324.2496 295.034161 
L 343.296 295.581814 
L 343.296 291.948669 
L 324.2496 291.235238 
L 305.2032 290.351679 
L 286.1568 289.228902 
L 267.1104 287.754545 
L 248.064 285.732817 
L 229.0176 282.789405 
L 209.9712 278.107949 
L 191.034484 269.568 
L 190.9248 269.495813 
L 171.8784 255.353338 
L 152.832 240.179912 
L 143.481006 231.552 
L 133.7856 222.044984 
L 114.7392 201.219833 
L 108.940751 193.536 
L 95.6928 169.948817 
L 89.698642 155.52 
L 76.6464 117.52836 
L 76.641676 117.504 
L 70.754279 79.488 
L 65.137282 41.472 
L 61.979696 41.472 
L 67.943005 79.488 
L 74.174068 117.504 
L 76.6464 130.251696 
L 85.327468 155.52 
L 95.6928 180.470874 
L 103.030944 193.536 
L 114.7392 209.051233 
L 133.7856 231.133668 
L 134.212221 231.552 
L 152.832 248.731971 
L 171.8784 264.61484 
L 178.546575 269.568 
z
" clip-path="url(#p3e892a6bdd)" style="fill: #f5a886"/>
   </g>
   <g id="PathCollection_15">
    <path d="M 171.8784 275.955298 
L 190.9248 287.201171 
L 209.9712 291.806509 
L 229.0176 294.312327 
L 248.064 295.887832 
L 267.1104 296.969992 
L 286.1568 297.759163 
L 305.2032 298.360146 
L 324.2496 298.833084 
L 343.296 299.214959 
L 343.296 295.581814 
L 324.2496 295.034161 
L 305.2032 294.355913 
L 286.1568 293.494033 
L 267.1104 292.362269 
L 248.064 290.810324 
L 229.0176 288.550866 
L 209.9712 284.957229 
L 190.9248 278.352634 
L 178.546575 269.568 
L 171.8784 264.61484 
L 152.832 248.731971 
L 134.212221 231.552 
L 133.7856 231.133668 
L 114.7392 209.051233 
L 103.030944 193.536 
L 95.6928 180.470874 
L 85.327468 155.52 
L 76.6464 130.251696 
L 74.174068 117.504 
L 67.943005 79.488 
L 61.979696 41.472 
L 58.82211 41.472 
L 65.131731 79.488 
L 71.706461 117.504 
L 76.6464 142.975033 
L 80.956294 155.52 
L 95.6928 190.992931 
L 97.121137 193.536 
L 114.7392 216.882632 
L 127.358657 231.552 
L 133.7856 239.072409 
L 152.832 257.28403 
L 167.218992 269.568 
z
" clip-path="url(#p3e892a6bdd)" style="fill: #f7b596"/>
   </g>
   <g id="PathCollection_16">
    <path d="M 171.8784 289.685861 
L 190.9248 296.049707 
L 209.9712 298.655789 
L 229.0176 300.073789 
L 248.064 300.96534 
L 267.1104 301.577715 
L 286.1568 302.024294 
L 305.2032 302.36438 
L 324.2496 302.632007 
L 343.296 302.848103 
L 343.296 299.214959 
L 324.2496 298.833084 
L 305.2032 298.360146 
L 286.1568 297.759163 
L 267.1104 296.969992 
L 248.064 295.887832 
L 229.0176 294.312327 
L 209.9712 291.806509 
L 190.9248 287.201171 
L 171.8784 275.955298 
L 167.218992 269.568 
L 152.832 257.28403 
L 133.7856 239.072409 
L 127.358657 231.552 
L 114.7392 216.882632 
L 97.121137 193.536 
L 95.6928 190.992931 
L 80.956294 155.52 
L 76.6464 142.975033 
L 71.706461 117.504 
L 65.131731 79.488 
L 58.82211 41.472 
L 57.6 41.472 
L 57.6 51.638457 
L 62.320458 79.488 
L 69.238854 117.504 
L 76.616559 155.52 
L 76.6464 155.63588 
L 92.989851 193.536 
L 95.6928 198.534937 
L 114.7392 224.714032 
L 120.621624 231.552 
L 133.7856 246.955666 
L 152.832 265.836089 
L 157.202816 269.568 
z
" clip-path="url(#p3e892a6bdd)" style="fill: #f9c2a7"/>
   </g>
   <g id="PathCollection_17">
    <path d="M 152.832 294.277389 
L 171.8784 303.416425 
L 190.9248 304.898244 
L 209.9712 305.505069 
L 229.0176 305.83525 
L 248.064 306.042847 
L 267.1104 306.185439 
L 286.1568 306.289424 
L 305.2032 306.368613 
L 324.2496 306.43093 
L 343.296 306.481248 
L 343.296 302.848103 
L 324.2496 302.632007 
L 305.2032 302.36438 
L 286.1568 302.024294 
L 267.1104 301.577715 
L 248.064 300.96534 
L 229.0176 300.073789 
L 209.9712 298.655789 
L 190.9248 296.049707 
L 171.8784 289.685861 
L 157.202816 269.568 
L 152.832 265.836089 
L 133.7856 246.955666 
L 120.621624 231.552 
L 114.7392 224.714032 
L 95.6928 198.534937 
L 92.989851 193.536 
L 76.6464 155.63588 
L 76.616559 155.52 
L 69.238854 117.504 
L 62.320458 79.488 
L 57.6 51.638457 
L 57.6 68.224281 
L 59.509184 79.488 
L 66.771247 117.504 
L 74.487988 155.52 
L 76.6464 163.90173 
L 89.425416 193.536 
L 95.6928 205.127138 
L 114.15495 231.552 
L 114.7392 232.476601 
L 133.7856 254.838924 
L 148.417976 269.568 
z
" clip-path="url(#p3e892a6bdd)" style="fill: #fbccb4"/>
   </g>
   <g id="PathCollection_18">
    <path d="M 76.6464 307.584 
L 95.6928 307.584 
L 114.7392 307.584 
L 133.7856 307.584 
L 152.832 307.584 
L 171.8784 307.584 
L 190.9248 307.584 
L 209.9712 307.584 
L 229.0176 307.584 
L 248.064 307.584 
L 267.1104 307.584 
L 286.1568 307.584 
L 305.2032 307.584 
L 324.2496 307.584 
L 343.296 307.584 
L 343.296 306.481248 
L 324.2496 306.43093 
L 305.2032 306.368613 
L 286.1568 306.289424 
L 267.1104 306.185439 
L 248.064 306.042847 
L 229.0176 305.83525 
L 209.9712 305.505069 
L 190.9248 304.898244 
L 171.8784 303.416425 
L 152.832 294.277389 
L 148.417976 269.568 
L 133.7856 254.838924 
L 114.7392 232.476601 
L 114.15495 231.552 
L 95.6928 205.127138 
L 89.425416 193.536 
L 76.6464 163.90173 
L 74.487988 155.52 
L 66.771247 117.504 
L 59.509184 79.488 
L 57.6 68.224281 
L 57.6 79.488 
L 57.6 83.503975 
L 64.30364 117.504 
L 72.359416 155.52 
L 76.6464 172.16758 
L 85.860981 193.536 
L 95.6928 211.71934 
L 109.549204 231.552 
L 114.7392 239.765392 
L 133.7856 262.722181 
L 140.586474 269.568 
L 133.7856 290.664318 
L 114.7392 302.050979 
L 95.6928 304.722118 
L 76.6464 305.914614 
L 57.6 306.590091 
L 57.6 307.584 
z
" clip-path="url(#p3e892a6bdd)" style="fill: #fdd9c4"/>
   </g>
   <g id="PathCollection_19">
    <path d="M 76.6464 305.914614 
L 95.6928 304.722118 
L 114.7392 302.050979 
L 133.7856 290.664318 
L 140.586474 269.568 
L 133.7856 262.722181 
L 114.7392 239.765392 
L 109.549204 231.552 
L 95.6928 211.71934 
L 85.860981 193.536 
L 76.6464 172.16758 
L 72.359416 155.52 
L 64.30364 117.504 
L 57.6 83.503975 
L 57.6 96.019371 
L 61.836032 117.504 
L 70.230844 155.52 
L 76.6464 180.433431 
L 82.296546 193.536 
L 95.6928 218.311541 
L 104.943457 231.552 
L 114.7392 247.054183 
L 133.007284 269.568 
L 114.7392 294.106652 
L 95.6928 300.61302 
L 76.6464 303.517706 
L 57.6 305.163033 
L 57.6 306.590091 
z
" clip-path="url(#p3e892a6bdd)" style="fill: #fde2d2"/>
   </g>
   <g id="PathCollection_20">
    <path d="M 76.6464 303.517706 
L 95.6928 300.61302 
L 114.7392 294.106652 
L 133.007284 269.568 
L 114.7392 247.054183 
L 104.943457 231.552 
L 95.6928 218.311541 
L 82.296546 193.536 
L 76.6464 180.433431 
L 70.230844 155.52 
L 61.836032 117.504 
L 57.6 96.019371 
L 57.6 108.534767 
L 59.368425 117.504 
L 68.102273 155.52 
L 76.6464 188.699281 
L 78.732111 193.536 
L 95.6928 224.903743 
L 100.337711 231.552 
L 114.7392 254.342974 
L 127.093038 269.568 
L 114.7392 286.162326 
L 95.6928 296.503921 
L 76.6464 301.120797 
L 57.6 303.735976 
L 57.6 305.163033 
z
" clip-path="url(#p3e892a6bdd)" style="fill: #feebdf"/>
   </g>
   <g id="PathCollection_21">
    <path d="M 76.6464 301.120797 
L 95.6928 296.503921 
L 114.7392 286.162326 
L 127.093038 269.568 
L 114.7392 254.342974 
L 100.337711 231.552 
L 95.6928 224.903743 
L 78.732111 193.536 
L 76.6464 188.699281 
L 68.102273 155.52 
L 59.368425 117.504 
L 57.6 108.534767 
L 57.6 117.504 
L 57.6 120.05815 
L 65.973701 155.52 
L 75.899799 193.536 
L 76.6464 195.773559 
L 95.6928 231.495944 
L 95.731964 231.552 
L 114.7392 261.631766 
L 121.178792 269.568 
L 114.7392 278.217999 
L 95.6928 292.394823 
L 76.6464 298.723889 
L 57.6 302.308919 
L 57.6 303.735976 
z
" clip-path="url(#p3e892a6bdd)" style="fill: #fef3ec"/>
   </g>
   <g id="PathCollection_22">
    <path d="M 76.6464 298.723889 
L 95.6928 292.394823 
L 114.7392 278.217999 
L 121.178792 269.568 
L 114.7392 261.631766 
L 95.731964 231.552 
L 95.6928 231.495944 
L 76.6464 195.773559 
L 75.899799 193.536 
L 65.973701 155.52 
L 57.6 120.05815 
L 57.6 129.072455 
L 63.845129 155.52 
L 74.100133 193.536 
L 76.6464 201.167148 
L 92.842322 231.552 
L 95.6928 238.34754 
L 114.7392 268.920557 
L 115.264546 269.568 
L 114.7392 270.273672 
L 95.6928 288.285725 
L 76.6464 296.32698 
L 57.6 300.881861 
L 57.6 302.308919 
z
" clip-path="url(#p3e892a6bdd)" style="fill: #fffbfa"/>
   </g>
   <g id="PathCollection_23">
    <path d="M 76.6464 296.32698 
L 95.6928 288.285725 
L 114.7392 270.273672 
L 115.264546 269.568 
L 114.7392 268.920557 
L 95.6928 238.34754 
L 92.842322 231.552 
L 76.6464 201.167148 
L 74.100133 193.536 
L 63.845129 155.52 
L 57.6 129.072455 
L 57.6 138.086759 
L 61.716557 155.52 
L 72.300468 193.536 
L 76.6464 206.560738 
L 89.967397 231.552 
L 95.6928 245.201361 
L 110.853587 269.568 
L 95.6928 284.176627 
L 76.6464 293.930072 
L 57.6 299.454804 
L 57.6 300.881861 
z
" clip-path="url(#p3e892a6bdd)" style="fill: #fcfcfc"/>
   </g>
   <g id="PathCollection_24">
    <path d="M 76.6464 293.930072 
L 95.6928 284.176627 
L 110.853587 269.568 
L 95.6928 245.201361 
L 89.967397 231.552 
L 76.6464 206.560738 
L 72.300468 193.536 
L 61.716557 155.52 
L 57.6 138.086759 
L 57.6 147.101064 
L 59.587986 155.52 
L 70.500802 193.536 
L 76.6464 211.954327 
L 87.092473 231.552 
L 95.6928 252.055182 
L 106.589178 269.568 
L 95.6928 280.067529 
L 76.6464 291.533163 
L 57.6 298.027746 
L 57.6 299.454804 
z
" clip-path="url(#p3e892a6bdd)" style="fill: #f5f5f5"/>
   </g>
   <g id="PathCollection_25">
    <path d="M 76.6464 291.533163 
L 95.6928 280.067529 
L 106.589178 269.568 
L 95.6928 252.055182 
L 87.092473 231.552 
L 76.6464 211.954327 
L 70.500802 193.536 
L 59.587986 155.52 
L 57.6 147.101064 
L 57.6 155.52 
L 57.6 155.922735 
L 68.701136 193.536 
L 76.6464 217.347917 
L 84.217548 231.552 
L 95.6928 258.909003 
L 102.324768 269.568 
L 95.6928 275.958431 
L 76.6464 289.136255 
L 57.6 296.600689 
L 57.6 298.027746 
z
" clip-path="url(#p3e892a6bdd)" style="fill: #ededed"/>
   </g>
   <g id="PathCollection_26">
    <path d="M 76.6464 289.136255 
L 95.6928 275.958431 
L 102.324768 269.568 
L 95.6928 258.909003 
L 84.217548 231.552 
L 76.6464 217.347917 
L 68.701136 193.536 
L 57.6 155.922735 
L 57.6 162.020427 
L 66.90147 193.536 
L 76.6464 222.741507 
L 81.342624 231.552 
L 95.6928 265.762824 
L 98.060359 269.568 
L 95.6928 271.849332 
L 76.6464 286.739346 
L 57.6 295.173631 
L 57.6 296.600689 
z
" clip-path="url(#p3e892a6bdd)" style="fill: #e6e6e6"/>
   </g>
   <g id="PathCollection_27">
    <path d="M 76.6464 286.739346 
L 95.6928 271.849332 
L 98.060359 269.568 
L 95.6928 265.762824 
L 81.342624 231.552 
L 76.6464 222.741507 
L 66.90147 193.536 
L 57.6 162.020427 
L 57.6 168.118119 
L 65.101804 193.536 
L 76.6464 228.135096 
L 78.467699 231.552 
L 94.410863 269.568 
L 76.6464 284.342438 
L 57.6 293.746574 
L 57.6 295.173631 
z
" clip-path="url(#p3e892a6bdd)" style="fill: #dfdfdf"/>
   </g>
   <g id="PathCollection_28">
    <path d="M 76.6464 284.342438 
L 94.410863 269.568 
L 78.467699 231.552 
L 76.6464 228.135096 
L 65.101804 193.536 
L 57.6 168.118119 
L 57.6 174.215811 
L 63.302138 193.536 
L 76.080335 231.552 
L 76.6464 234.071221 
L 91.528872 269.568 
L 76.6464 281.945529 
L 57.6 292.319516 
L 57.6 293.746574 
z
" clip-path="url(#p3e892a6bdd)" style="fill: #d6d6d6"/>
   </g>
   <g id="PathCollection_29">
    <path d="M 76.6464 281.945529 
L 91.528872 269.568 
L 76.6464 234.071221 
L 76.080335 231.552 
L 63.302138 193.536 
L 57.6 174.215811 
L 57.6 180.313503 
L 61.502473 193.536 
L 74.535767 231.552 
L 76.6464 240.945172 
L 88.646882 269.568 
L 76.6464 279.548621 
L 57.6 290.892459 
L 57.6 292.319516 
z
" clip-path="url(#p3e892a6bdd)" style="fill: #cecece"/>
   </g>
   <g id="PathCollection_30">
    <path d="M 76.6464 279.548621 
L 88.646882 269.568 
L 76.6464 240.945172 
L 74.535767 231.552 
L 61.502473 193.536 
L 57.6 180.313503 
L 57.6 186.411195 
L 59.702807 193.536 
L 72.9912 231.552 
L 76.6464 247.819123 
L 85.764891 269.568 
L 76.6464 277.151712 
L 57.6 289.465402 
L 57.6 290.892459 
z
" clip-path="url(#p3e892a6bdd)" style="fill: #c5c5c5"/>
   </g>
   <g id="PathCollection_31">
    <path d="M 76.6464 277.151712 
L 85.764891 269.568 
L 76.6464 247.819123 
L 72.9912 231.552 
L 59.702807 193.536 
L 57.6 186.411195 
L 57.6 192.508887 
L 57.903141 193.536 
L 71.446633 231.552 
L 76.6464 254.693074 
L 82.8829 269.568 
L 76.6464 274.754804 
L 57.6 288.038344 
L 57.6 289.465402 
z
" clip-path="url(#p3e892a6bdd)" style="fill: #bcbcbc"/>
   </g>
   <g id="PathCollection_32">
    <path d="M 76.6464 274.754804 
L 82.8829 269.568 
L 76.6464 254.693074 
L 71.446633 231.552 
L 57.903141 193.536 
L 57.6 192.508887 
L 57.6 193.536 
L 57.6 197.129842 
L 69.902065 231.552 
L 76.6464 261.567025 
L 80.00091 269.568 
L 76.6464 272.357895 
L 57.6 286.611287 
L 57.6 288.038344 
z
" clip-path="url(#p3e892a6bdd)" style="fill: #b1b1b1"/>
   </g>
   <g id="PathCollection_33">
    <path d="M 76.6464 272.357895 
L 80.00091 269.568 
L 76.6464 261.567025 
L 69.902065 231.552 
L 57.6 197.129842 
L 57.6 201.451664 
L 68.357498 231.552 
L 76.6464 268.440976 
L 77.118919 269.568 
L 76.6464 269.960987 
L 57.6 285.184229 
L 57.6 286.611287 
z
" clip-path="url(#p3e892a6bdd)" style="fill: #a5a5a5"/>
   </g>
   <g id="PathCollection_34">
    <path d="M 76.6464 269.960987 
L 77.118919 269.568 
L 76.6464 268.440976 
L 68.357498 231.552 
L 57.6 201.451664 
L 57.6 205.773486 
L 66.812931 231.552 
L 75.169117 269.568 
L 57.6 283.757172 
L 57.6 285.184229 
z
" clip-path="url(#p3e892a6bdd)" style="fill: #9b9b9b"/>
   </g>
   <g id="PathCollection_35">
    <path d="M 75.169117 269.568 
L 66.812931 231.552 
L 57.6 205.773486 
L 57.6 210.095309 
L 65.268364 231.552 
L 73.402126 269.568 
L 57.6 282.330114 
L 57.6 283.757172 
z
" clip-path="url(#p3e892a6bdd)" style="fill: #8f8f8f"/>
   </g>
   <g id="PathCollection_36">
    <path d="M 73.402126 269.568 
L 65.268364 231.552 
L 57.6 210.095309 
L 57.6 214.417131 
L 63.723796 231.552 
L 71.635135 269.568 
L 57.6 280.903057 
L 57.6 282.330114 
z
" clip-path="url(#p3e892a6bdd)" style="fill: #828282"/>
   </g>
   <g id="PathCollection_37">
    <path d="M 71.635135 269.568 
L 63.723796 231.552 
L 57.6 214.417131 
L 57.6 218.738953 
L 62.179229 231.552 
L 69.868144 269.568 
L 57.6 279.476 
L 57.6 280.903057 
z
" clip-path="url(#p3e892a6bdd)" style="fill: #757575"/>
   </g>
   <g id="PathCollection_38">
    <path d="M 69.868144 269.568 
L 62.179229 231.552 
L 57.6 218.738953 
L 57.6 223.060775 
L 60.634662 231.552 
L 68.101153 269.568 
L 57.6 278.048942 
L 57.6 279.476 
z
" clip-path="url(#p3e892a6bdd)" style="fill: #676767"/>
   </g>
   <g id="PathCollection_39">
    <path d="M 68.101153 269.568 
L 60.634662 231.552 
L 57.6 223.060775 
L 57.6 227.382598 
L 59.090094 231.552 
L 66.334162 269.568 
L 57.6 276.621885 
L 57.6 278.048942 
z
" clip-path="url(#p3e892a6bdd)" style="fill: #5c5c5c"/>
   </g>
   <g id="PathCollection_40">
    <path d="M 66.334162 269.568 
L 59.090094 231.552 
L 57.6 227.382598 
L 57.6 231.552 
L 57.6 231.889017 
L 64.567171 269.568 
L 57.6 275.194827 
L 57.6 276.621885 
z
" clip-path="url(#p3e892a6bdd)" style="fill: #4e4e4e"/>
   </g>
   <g id="PathCollection_41">
    <path d="M 64.567171 269.568 
L 57.6 231.889017 
L 57.6 241.445037 
L 62.80018 269.568 
L 57.6 273.76777 
L 57.6 275.194827 
z
" clip-path="url(#p3e892a6bdd)" style="fill: #424242"/>
   </g>
   <g id="PathCollection_42">
    <path d="M 62.80018 269.568 
L 57.6 241.445037 
L 57.6 251.001057 
L 61.033189 269.568 
L 57.6 272.340712 
L 57.6 273.76777 
z
" clip-path="url(#p3e892a6bdd)" style="fill: #363636"/>
   </g>
   <g id="PathCollection_43">
    <path d="M 61.033189 269.568 
L 57.6 251.001057 
L 57.6 260.557077 
L 59.266198 269.568 
L 57.6 270.913655 
L 57.6 272.340712 
z
" clip-path="url(#p3e892a6bdd)" style="fill: #2a2a2a"/>
   </g>
   <g id="PathCollection_44">
    <path d="M 59.266198 269.568 
L 57.6 260.557077 
L 57.6 269.568 
L 57.6 270.913655 
z
" clip-path="url(#p3e892a6bdd)" style="fill: #1e1e1e"/>
   </g>
   <g id="matplotlib.axis_1">
    <g id="xtick_1">
     <g id="line2d_1">
      <defs>
       <path id="m06a2d886f3" d="M 0 0 
L 0 3.5 
" style="stroke: #000000; stroke-width: 0.8"/>
      </defs>
      <g>
       <use xlink:href="#m06a2d886f3" x="88.07424" y="307.584" style="stroke: #000000; stroke-width: 0.8"/>
      </g>
     </g>
     <g id="text_1">
      <!-- 0.5 -->
      <g transform="translate(80.122678 322.182437)scale(0.1 -0.1)">
       <defs>
        <path id="DejaVuSans-30" d="M 2034 4250 
Q 1547 4250 1301 3770 
Q 1056 3291 1056 2328 
Q 1056 1369 1301 889 
Q 1547 409 2034 409 
Q 2525 409 2770 889 
Q 3016 1369 3016 2328 
Q 3016 3291 2770 3770 
Q 2525 4250 2034 4250 
z
M 2034 4750 
Q 2819 4750 3233 4129 
Q 3647 3509 3647 2328 
Q 3647 1150 3233 529 
Q 2819 -91 2034 -91 
Q 1250 -91 836 529 
Q 422 1150 422 2328 
Q 422 3509 836 4129 
Q 1250 4750 2034 4750 
z
" transform="scale(0.015625)"/>
        <path id="DejaVuSans-2e" d="M 684 794 
L 1344 794 
L 1344 0 
L 684 0 
L 684 794 
z
" transform="scale(0.015625)"/>
        <path id="DejaVuSans-35" d="M 691 4666 
L 3169 4666 
L 3169 4134 
L 1269 4134 
L 1269 2991 
Q 1406 3038 1543 3061 
Q 1681 3084 1819 3084 
Q 2600 3084 3056 2656 
Q 3513 2228 3513 1497 
Q 3513 744 3044 326 
Q 2575 -91 1722 -91 
Q 1428 -91 1123 -41 
Q 819 9 494 109 
L 494 744 
Q 775 591 1075 516 
Q 1375 441 1709 441 
Q 2250 441 2565 725 
Q 2881 1009 2881 1497 
Q 2881 1984 2565 2268 
Q 2250 2553 1709 2553 
Q 1456 2553 1204 2497 
Q 953 2441 691 2322 
L 691 4666 
z
" transform="scale(0.015625)"/>
       </defs>
       <use xlink:href="#DejaVuSans-30"/>
       <use xlink:href="#DejaVuSans-2e" x="63.623047"/>
       <use xlink:href="#DejaVuSans-35" x="95.410156"/>
      </g>
     </g>
    </g>
    <g id="xtick_2">
     <g id="line2d_2">
      <g>
       <use xlink:href="#m06a2d886f3" x="126.16704" y="307.584" style="stroke: #000000; stroke-width: 0.8"/>
      </g>
     </g>
     <g id="text_2">
      <!-- 1.0 -->
      <g transform="translate(118.215478 322.182437)scale(0.1 -0.1)">
       <defs>
        <path id="DejaVuSans-31" d="M 794 531 
L 1825 531 
L 1825 4091 
L 703 3866 
L 703 4441 
L 1819 4666 
L 2450 4666 
L 2450 531 
L 3481 531 
L 3481 0 
L 794 0 
L 794 531 
z
" transform="scale(0.015625)"/>
       </defs>
       <use xlink:href="#DejaVuSans-31"/>
       <use xlink:href="#DejaVuSans-2e" x="63.623047"/>
       <use xlink:href="#DejaVuSans-30" x="95.410156"/>
      </g>
     </g>
    </g>
    <g id="xtick_3">
     <g id="line2d_3">
      <g>
       <use xlink:href="#m06a2d886f3" x="164.25984" y="307.584" style="stroke: #000000; stroke-width: 0.8"/>
      </g>
     </g>
     <g id="text_3">
      <!-- 1.5 -->
      <g transform="translate(156.308278 322.182437)scale(0.1 -0.1)">
       <use xlink:href="#DejaVuSans-31"/>
       <use xlink:href="#DejaVuSans-2e" x="63.623047"/>
       <use xlink:href="#DejaVuSans-35" x="95.410156"/>
      </g>
     </g>
    </g>
    <g id="xtick_4">
     <g id="line2d_4">
      <g>
       <use xlink:href="#m06a2d886f3" x="202.35264" y="307.584" style="stroke: #000000; stroke-width: 0.8"/>
      </g>
     </g>
     <g id="text_4">
      <!-- 2.0 -->
      <g transform="translate(194.401078 322.182437)scale(0.1 -0.1)">
       <defs>
        <path id="DejaVuSans-32" d="M 1228 531 
L 3431 531 
L 3431 0 
L 469 0 
L 469 531 
Q 828 903 1448 1529 
Q 2069 2156 2228 2338 
Q 2531 2678 2651 2914 
Q 2772 3150 2772 3378 
Q 2772 3750 2511 3984 
Q 2250 4219 1831 4219 
Q 1534 4219 1204 4116 
Q 875 4013 500 3803 
L 500 4441 
Q 881 4594 1212 4672 
Q 1544 4750 1819 4750 
Q 2544 4750 2975 4387 
Q 3406 4025 3406 3419 
Q 3406 3131 3298 2873 
Q 3191 2616 2906 2266 
Q 2828 2175 2409 1742 
Q 1991 1309 1228 531 
z
" transform="scale(0.015625)"/>
       </defs>
       <use xlink:href="#DejaVuSans-32"/>
       <use xlink:href="#DejaVuSans-2e" x="63.623047"/>
       <use xlink:href="#DejaVuSans-30" x="95.410156"/>
      </g>
     </g>
    </g>
    <g id="xtick_5">
     <g id="line2d_5">
      <g>
       <use xlink:href="#m06a2d886f3" x="240.44544" y="307.584" style="stroke: #000000; stroke-width: 0.8"/>
      </g>
     </g>
     <g id="text_5">
      <!-- 2.5 -->
      <g transform="translate(232.493878 322.182437)scale(0.1 -0.1)">
       <use xlink:href="#DejaVuSans-32"/>
       <use xlink:href="#DejaVuSans-2e" x="63.623047"/>
       <use xlink:href="#DejaVuSans-35" x="95.410156"/>
      </g>
     </g>
    </g>
    <g id="xtick_6">
     <g id="line2d_6">
      <g>
       <use xlink:href="#m06a2d886f3" x="278.53824" y="307.584" style="stroke: #000000; stroke-width: 0.8"/>
      </g>
     </g>
     <g id="text_6">
      <!-- 3.0 -->
      <g transform="translate(270.586678 322.182437)scale(0.1 -0.1)">
       <defs>
        <path id="DejaVuSans-33" d="M 2597 2516 
Q 3050 2419 3304 2112 
Q 3559 1806 3559 1356 
Q 3559 666 3084 287 
Q 2609 -91 1734 -91 
Q 1441 -91 1130 -33 
Q 819 25 488 141 
L 488 750 
Q 750 597 1062 519 
Q 1375 441 1716 441 
Q 2309 441 2620 675 
Q 2931 909 2931 1356 
Q 2931 1769 2642 2001 
Q 2353 2234 1838 2234 
L 1294 2234 
L 1294 2753 
L 1863 2753 
Q 2328 2753 2575 2939 
Q 2822 3125 2822 3475 
Q 2822 3834 2567 4026 
Q 2313 4219 1838 4219 
Q 1578 4219 1281 4162 
Q 984 4106 628 3988 
L 628 4550 
Q 988 4650 1302 4700 
Q 1616 4750 1894 4750 
Q 2613 4750 3031 4423 
Q 3450 4097 3450 3541 
Q 3450 3153 3228 2886 
Q 3006 2619 2597 2516 
z
" transform="scale(0.015625)"/>
       </defs>
       <use xlink:href="#DejaVuSans-33"/>
       <use xlink:href="#DejaVuSans-2e" x="63.623047"/>
       <use xlink:href="#DejaVuSans-30" x="95.410156"/>
      </g>
     </g>
    </g>
    <g id="xtick_7">
     <g id="line2d_7">
      <g>
       <use xlink:href="#m06a2d886f3" x="316.63104" y="307.584" style="stroke: #000000; stroke-width: 0.8"/>
      </g>
     </g>
     <g id="text_7">
      <!-- 3.5 -->
      <g transform="translate(308.679478 322.182437)scale(0.1 -0.1)">
       <use xlink:href="#DejaVuSans-33"/>
       <use xlink:href="#DejaVuSans-2e" x="63.623047"/>
       <use xlink:href="#DejaVuSans-35" x="95.410156"/>
      </g>
     </g>
    </g>
    <g id="text_8">
     <!-- storage time -->
     <g transform="translate(168.568312 335.860562)scale(0.1 -0.1)">
      <defs>
       <path id="DejaVuSans-73" d="M 2834 3397 
L 2834 2853 
Q 2591 2978 2328 3040 
Q 2066 3103 1784 3103 
Q 1356 3103 1142 2972 
Q 928 2841 928 2578 
Q 928 2378 1081 2264 
Q 1234 2150 1697 2047 
L 1894 2003 
Q 2506 1872 2764 1633 
Q 3022 1394 3022 966 
Q 3022 478 2636 193 
Q 2250 -91 1575 -91 
Q 1294 -91 989 -36 
Q 684 19 347 128 
L 347 722 
Q 666 556 975 473 
Q 1284 391 1588 391 
Q 1994 391 2212 530 
Q 2431 669 2431 922 
Q 2431 1156 2273 1281 
Q 2116 1406 1581 1522 
L 1381 1569 
Q 847 1681 609 1914 
Q 372 2147 372 2553 
Q 372 3047 722 3315 
Q 1072 3584 1716 3584 
Q 2034 3584 2315 3537 
Q 2597 3491 2834 3397 
z
" transform="scale(0.015625)"/>
       <path id="DejaVuSans-74" d="M 1172 4494 
L 1172 3500 
L 2356 3500 
L 2356 3053 
L 1172 3053 
L 1172 1153 
Q 1172 725 1289 603 
Q 1406 481 1766 481 
L 2356 481 
L 2356 0 
L 1766 0 
Q 1100 0 847 248 
Q 594 497 594 1153 
L 594 3053 
L 172 3053 
L 172 3500 
L 594 3500 
L 594 4494 
L 1172 4494 
z
" transform="scale(0.015625)"/>
       <path id="DejaVuSans-6f" d="M 1959 3097 
Q 1497 3097 1228 2736 
Q 959 2375 959 1747 
Q 959 1119 1226 758 
Q 1494 397 1959 397 
Q 2419 397 2687 759 
Q 2956 1122 2956 1747 
Q 2956 2369 2687 2733 
Q 2419 3097 1959 3097 
z
M 1959 3584 
Q 2709 3584 3137 3096 
Q 3566 2609 3566 1747 
Q 3566 888 3137 398 
Q 2709 -91 1959 -91 
Q 1206 -91 779 398 
Q 353 888 353 1747 
Q 353 2609 779 3096 
Q 1206 3584 1959 3584 
z
" transform="scale(0.015625)"/>
       <path id="DejaVuSans-72" d="M 2631 2963 
Q 2534 3019 2420 3045 
Q 2306 3072 2169 3072 
Q 1681 3072 1420 2755 
Q 1159 2438 1159 1844 
L 1159 0 
L 581 0 
L 581 3500 
L 1159 3500 
L 1159 2956 
Q 1341 3275 1631 3429 
Q 1922 3584 2338 3584 
Q 2397 3584 2469 3576 
Q 2541 3569 2628 3553 
L 2631 2963 
z
" transform="scale(0.015625)"/>
       <path id="DejaVuSans-61" d="M 2194 1759 
Q 1497 1759 1228 1600 
Q 959 1441 959 1056 
Q 959 750 1161 570 
Q 1363 391 1709 391 
Q 2188 391 2477 730 
Q 2766 1069 2766 1631 
L 2766 1759 
L 2194 1759 
z
M 3341 1997 
L 3341 0 
L 2766 0 
L 2766 531 
Q 2569 213 2275 61 
Q 1981 -91 1556 -91 
Q 1019 -91 701 211 
Q 384 513 384 1019 
Q 384 1609 779 1909 
Q 1175 2209 1959 2209 
L 2766 2209 
L 2766 2266 
Q 2766 2663 2505 2880 
Q 2244 3097 1772 3097 
Q 1472 3097 1187 3025 
Q 903 2953 641 2809 
L 641 3341 
Q 956 3463 1253 3523 
Q 1550 3584 1831 3584 
Q 2591 3584 2966 3190 
Q 3341 2797 3341 1997 
z
" transform="scale(0.015625)"/>
       <path id="DejaVuSans-67" d="M 2906 1791 
Q 2906 2416 2648 2759 
Q 2391 3103 1925 3103 
Q 1463 3103 1205 2759 
Q 947 2416 947 1791 
Q 947 1169 1205 825 
Q 1463 481 1925 481 
Q 2391 481 2648 825 
Q 2906 1169 2906 1791 
z
M 3481 434 
Q 3481 -459 3084 -895 
Q 2688 -1331 1869 -1331 
Q 1566 -1331 1297 -1286 
Q 1028 -1241 775 -1147 
L 775 -588 
Q 1028 -725 1275 -790 
Q 1522 -856 1778 -856 
Q 2344 -856 2625 -561 
Q 2906 -266 2906 331 
L 2906 616 
Q 2728 306 2450 153 
Q 2172 0 1784 0 
Q 1141 0 747 490 
Q 353 981 353 1791 
Q 353 2603 747 3093 
Q 1141 3584 1784 3584 
Q 2172 3584 2450 3431 
Q 2728 3278 2906 2969 
L 2906 3500 
L 3481 3500 
L 3481 434 
z
" transform="scale(0.015625)"/>
       <path id="DejaVuSans-65" d="M 3597 1894 
L 3597 1613 
L 953 1613 
Q 991 1019 1311 708 
Q 1631 397 2203 397 
Q 2534 397 2845 478 
Q 3156 559 3463 722 
L 3463 178 
Q 3153 47 2828 -22 
Q 2503 -91 2169 -91 
Q 1331 -91 842 396 
Q 353 884 353 1716 
Q 353 2575 817 3079 
Q 1281 3584 2069 3584 
Q 2775 3584 3186 3129 
Q 3597 2675 3597 1894 
z
M 3022 2063 
Q 3016 2534 2758 2815 
Q 2500 3097 2075 3097 
Q 1594 3097 1305 2825 
Q 1016 2553 972 2059 
L 3022 2063 
z
" transform="scale(0.015625)"/>
       <path id="DejaVuSans-20" transform="scale(0.015625)"/>
       <path id="DejaVuSans-69" d="M 603 3500 
L 1178 3500 
L 1178 0 
L 603 0 
L 603 3500 
z
M 603 4863 
L 1178 4863 
L 1178 4134 
L 603 4134 
L 603 4863 
z
" transform="scale(0.015625)"/>
       <path id="DejaVuSans-6d" d="M 3328 2828 
Q 3544 3216 3844 3400 
Q 4144 3584 4550 3584 
Q 5097 3584 5394 3201 
Q 5691 2819 5691 2113 
L 5691 0 
L 5113 0 
L 5113 2094 
Q 5113 2597 4934 2840 
Q 4756 3084 4391 3084 
Q 3944 3084 3684 2787 
Q 3425 2491 3425 1978 
L 3425 0 
L 2847 0 
L 2847 2094 
Q 2847 2600 2669 2842 
Q 2491 3084 2119 3084 
Q 1678 3084 1418 2786 
Q 1159 2488 1159 1978 
L 1159 0 
L 581 0 
L 581 3500 
L 1159 3500 
L 1159 2956 
Q 1356 3278 1631 3431 
Q 1906 3584 2284 3584 
Q 2666 3584 2933 3390 
Q 3200 3197 3328 2828 
z
" transform="scale(0.015625)"/>
      </defs>
      <use xlink:href="#DejaVuSans-73"/>
      <use xlink:href="#DejaVuSans-74" x="52.099609"/>
      <use xlink:href="#DejaVuSans-6f" x="91.308594"/>
      <use xlink:href="#DejaVuSans-72" x="152.490234"/>
      <use xlink:href="#DejaVuSans-61" x="193.603516"/>
      <use xlink:href="#DejaVuSans-67" x="254.882812"/>
      <use xlink:href="#DejaVuSans-65" x="318.359375"/>
      <use xlink:href="#DejaVuSans-20" x="379.882812"/>
      <use xlink:href="#DejaVuSans-74" x="411.669922"/>
      <use xlink:href="#DejaVuSans-69" x="450.878906"/>
      <use xlink:href="#DejaVuSans-6d" x="478.662109"/>
      <use xlink:href="#DejaVuSans-65" x="576.074219"/>
     </g>
    </g>
   </g>
   <g id="matplotlib.axis_2">
    <g id="ytick_1">
     <g id="line2d_8">
      <defs>
       <path id="m4f96b2091c" d="M 0 0 
L -3.5 0 
" style="stroke: #000000; stroke-width: 0.8"/>
      </defs>
      <g>
       <use xlink:href="#m4f96b2091c" x="57.6" y="277.1712" style="stroke: #000000; stroke-width: 0.8"/>
      </g>
     </g>
     <g id="text_9">
      <!-- 0.5 -->
      <g transform="translate(34.696875 280.970419)scale(0.1 -0.1)">
       <use xlink:href="#DejaVuSans-30"/>
       <use xlink:href="#DejaVuSans-2e" x="63.623047"/>
       <use xlink:href="#DejaVuSans-35" x="95.410156"/>
      </g>
     </g>
    </g>
    <g id="ytick_2">
     <g id="line2d_9">
      <g>
       <use xlink:href="#m4f96b2091c" x="57.6" y="239.1552" style="stroke: #000000; stroke-width: 0.8"/>
      </g>
     </g>
     <g id="text_10">
      <!-- 1.0 -->
      <g transform="translate(34.696875 242.954419)scale(0.1 -0.1)">
       <use xlink:href="#DejaVuSans-31"/>
       <use xlink:href="#DejaVuSans-2e" x="63.623047"/>
       <use xlink:href="#DejaVuSans-30" x="95.410156"/>
      </g>
     </g>
    </g>
    <g id="ytick_3">
     <g id="line2d_10">
      <g>
       <use xlink:href="#m4f96b2091c" x="57.6" y="201.1392" style="stroke: #000000; stroke-width: 0.8"/>
      </g>
     </g>
     <g id="text_11">
      <!-- 1.5 -->
      <g transform="translate(34.696875 204.938419)scale(0.1 -0.1)">
       <use xlink:href="#DejaVuSans-31"/>
       <use xlink:href="#DejaVuSans-2e" x="63.623047"/>
       <use xlink:href="#DejaVuSans-35" x="95.410156"/>
      </g>
     </g>
    </g>
    <g id="ytick_4">
     <g id="line2d_11">
      <g>
       <use xlink:href="#m4f96b2091c" x="57.6" y="163.1232" style="stroke: #000000; stroke-width: 0.8"/>
      </g>
     </g>
     <g id="text_12">
      <!-- 2.0 -->
      <g transform="translate(34.696875 166.922419)scale(0.1 -0.1)">
       <use xlink:href="#DejaVuSans-32"/>
       <use xlink:href="#DejaVuSans-2e" x="63.623047"/>
       <use xlink:href="#DejaVuSans-30" x="95.410156"/>
      </g>
     </g>
    </g>
    <g id="ytick_5">
     <g id="line2d_12">
      <g>
       <use xlink:href="#m4f96b2091c" x="57.6" y="125.1072" style="stroke: #000000; stroke-width: 0.8"/>
      </g>
     </g>
     <g id="text_13">
      <!-- 2.5 -->
      <g transform="translate(34.696875 128.906419)scale(0.1 -0.1)">
       <use xlink:href="#DejaVuSans-32"/>
       <use xlink:href="#DejaVuSans-2e" x="63.623047"/>
       <use xlink:href="#DejaVuSans-35" x="95.410156"/>
      </g>
     </g>
    </g>
    <g id="ytick_6">
     <g id="line2d_13">
      <g>
       <use xlink:href="#m4f96b2091c" x="57.6" y="87.0912" style="stroke: #000000; stroke-width: 0.8"/>
      </g>
     </g>
     <g id="text_14">
      <!-- 3.0 -->
      <g transform="translate(34.696875 90.890419)scale(0.1 -0.1)">
       <use xlink:href="#DejaVuSans-33"/>
       <use xlink:href="#DejaVuSans-2e" x="63.623047"/>
       <use xlink:href="#DejaVuSans-30" x="95.410156"/>
      </g>
     </g>
    </g>
    <g id="ytick_7">
     <g id="line2d_14">
      <g>
       <use xlink:href="#m4f96b2091c" x="57.6" y="49.0752" style="stroke: #000000; stroke-width: 0.8"/>
      </g>
     </g>
     <g id="text_15">
      <!-- 3.5 -->
      <g transform="translate(34.696875 52.874419)scale(0.1 -0.1)">
       <use xlink:href="#DejaVuSans-33"/>
       <use xlink:href="#DejaVuSans-2e" x="63.623047"/>
       <use xlink:href="#DejaVuSans-35" x="95.410156"/>
      </g>
     </g>
    </g>
    <g id="text_16">
     <!-- storage ratio -->
     <g transform="translate(28.617187 206.639719)rotate(-90)scale(0.1 -0.1)">
      <use xlink:href="#DejaVuSans-73"/>
      <use xlink:href="#DejaVuSans-74" x="52.099609"/>
      <use xlink:href="#DejaVuSans-6f" x="91.308594"/>
      <use xlink:href="#DejaVuSans-72" x="152.490234"/>
      <use xlink:href="#DejaVuSans-61" x="193.603516"/>
      <use xlink:href="#DejaVuSans-67" x="254.882812"/>
      <use xlink:href="#DejaVuSans-65" x="318.359375"/>
      <use xlink:href="#DejaVuSans-20" x="379.882812"/>
      <use xlink:href="#DejaVuSans-72" x="411.669922"/>
      <use xlink:href="#DejaVuSans-61" x="452.783203"/>
      <use xlink:href="#DejaVuSans-74" x="514.0625"/>
      <use xlink:href="#DejaVuSans-69" x="553.271484"/>
      <use xlink:href="#DejaVuSans-6f" x="581.054688"/>
     </g>
    </g>
   </g>
   <g id="patch_3">
    <path d="M 57.6 307.584 
L 57.6 41.472 
" style="fill: none; stroke: #000000; stroke-width: 0.8; stroke-linejoin: miter; stroke-linecap: square"/>
   </g>
   <g id="patch_4">
    <path d="M 343.296 307.584 
L 343.296 41.472 
" style="fill: none; stroke: #000000; stroke-width: 0.8; stroke-linejoin: miter; stroke-linecap: square"/>
   </g>
   <g id="patch_5">
    <path d="M 57.6 307.584 
L 343.296 307.584 
" style="fill: none; stroke: #000000; stroke-width: 0.8; stroke-linejoin: miter; stroke-linecap: square"/>
   </g>
   <g id="patch_6">
    <path d="M 57.6 41.472 
L 343.296 41.472 
" style="fill: none; stroke: #000000; stroke-width: 0.8; stroke-linejoin: miter; stroke-linecap: square"/>
   </g>
   <g id="text_17">
    <!-- storage590! power870! -->
    <g transform="translate(129.485813 35.472)scale(0.12 -0.12)">
     <defs>
      <path id="DejaVuSans-39" d="M 703 97 
L 703 672 
Q 941 559 1184 500 
Q 1428 441 1663 441 
Q 2288 441 2617 861 
Q 2947 1281 2994 2138 
Q 2813 1869 2534 1725 
Q 2256 1581 1919 1581 
Q 1219 1581 811 2004 
Q 403 2428 403 3163 
Q 403 3881 828 4315 
Q 1253 4750 1959 4750 
Q 2769 4750 3195 4129 
Q 3622 3509 3622 2328 
Q 3622 1225 3098 567 
Q 2575 -91 1691 -91 
Q 1453 -91 1209 -44 
Q 966 3 703 97 
z
M 1959 2075 
Q 2384 2075 2632 2365 
Q 2881 2656 2881 3163 
Q 2881 3666 2632 3958 
Q 2384 4250 1959 4250 
Q 1534 4250 1286 3958 
Q 1038 3666 1038 3163 
Q 1038 2656 1286 2365 
Q 1534 2075 1959 2075 
z
" transform="scale(0.015625)"/>
      <path id="DejaVuSans-21" d="M 966 794 
L 1600 794 
L 1600 0 
L 966 0 
L 966 794 
z
M 966 4666 
L 1600 4666 
L 1600 2619 
L 1538 1503 
L 1031 1503 
L 966 2619 
L 966 4666 
z
" transform="scale(0.015625)"/>
      <path id="DejaVuSans-70" d="M 1159 525 
L 1159 -1331 
L 581 -1331 
L 581 3500 
L 1159 3500 
L 1159 2969 
Q 1341 3281 1617 3432 
Q 1894 3584 2278 3584 
Q 2916 3584 3314 3078 
Q 3713 2572 3713 1747 
Q 3713 922 3314 415 
Q 2916 -91 2278 -91 
Q 1894 -91 1617 61 
Q 1341 213 1159 525 
z
M 3116 1747 
Q 3116 2381 2855 2742 
Q 2594 3103 2138 3103 
Q 1681 3103 1420 2742 
Q 1159 2381 1159 1747 
Q 1159 1113 1420 752 
Q 1681 391 2138 391 
Q 2594 391 2855 752 
Q 3116 1113 3116 1747 
z
" transform="scale(0.015625)"/>
      <path id="DejaVuSans-77" d="M 269 3500 
L 844 3500 
L 1563 769 
L 2278 3500 
L 2956 3500 
L 3675 769 
L 4391 3500 
L 4966 3500 
L 4050 0 
L 3372 0 
L 2619 2869 
L 1863 0 
L 1184 0 
L 269 3500 
z
" transform="scale(0.015625)"/>
      <path id="DejaVuSans-38" d="M 2034 2216 
Q 1584 2216 1326 1975 
Q 1069 1734 1069 1313 
Q 1069 891 1326 650 
Q 1584 409 2034 409 
Q 2484 409 2743 651 
Q 3003 894 3003 1313 
Q 3003 1734 2745 1975 
Q 2488 2216 2034 2216 
z
M 1403 2484 
Q 997 2584 770 2862 
Q 544 3141 544 3541 
Q 544 4100 942 4425 
Q 1341 4750 2034 4750 
Q 2731 4750 3128 4425 
Q 3525 4100 3525 3541 
Q 3525 3141 3298 2862 
Q 3072 2584 2669 2484 
Q 3125 2378 3379 2068 
Q 3634 1759 3634 1313 
Q 3634 634 3220 271 
Q 2806 -91 2034 -91 
Q 1263 -91 848 271 
Q 434 634 434 1313 
Q 434 1759 690 2068 
Q 947 2378 1403 2484 
z
M 1172 3481 
Q 1172 3119 1398 2916 
Q 1625 2713 2034 2713 
Q 2441 2713 2670 2916 
Q 2900 3119 2900 3481 
Q 2900 3844 2670 4047 
Q 2441 4250 2034 4250 
Q 1625 4250 1398 4047 
Q 1172 3844 1172 3481 
z
" transform="scale(0.015625)"/>
      <path id="DejaVuSans-37" d="M 525 4666 
L 3525 4666 
L 3525 4397 
L 1831 0 
L 1172 0 
L 2766 4134 
L 525 4134 
L 525 4666 
z
" transform="scale(0.015625)"/>
     </defs>
     <use xlink:href="#DejaVuSans-73"/>
     <use xlink:href="#DejaVuSans-74" x="52.099609"/>
     <use xlink:href="#DejaVuSans-6f" x="91.308594"/>
     <use xlink:href="#DejaVuSans-72" x="152.490234"/>
     <use xlink:href="#DejaVuSans-61" x="193.603516"/>
     <use xlink:href="#DejaVuSans-67" x="254.882812"/>
     <use xlink:href="#DejaVuSans-65" x="318.359375"/>
     <use xlink:href="#DejaVuSans-35" x="379.882812"/>
     <use xlink:href="#DejaVuSans-39" x="443.505859"/>
     <use xlink:href="#DejaVuSans-30" x="507.128906"/>
     <use xlink:href="#DejaVuSans-21" x="570.751953"/>
     <use xlink:href="#DejaVuSans-20" x="610.839844"/>
     <use xlink:href="#DejaVuSans-70" x="642.626953"/>
     <use xlink:href="#DejaVuSans-6f" x="706.103516"/>
     <use xlink:href="#DejaVuSans-77" x="767.285156"/>
     <use xlink:href="#DejaVuSans-65" x="849.072266"/>
     <use xlink:href="#DejaVuSans-72" x="910.595703"/>
     <use xlink:href="#DejaVuSans-38" x="951.708984"/>
     <use xlink:href="#DejaVuSans-37" x="1015.332031"/>
     <use xlink:href="#DejaVuSans-30" x="1078.955078"/>
     <use xlink:href="#DejaVuSans-21" x="1142.578125"/>
    </g>
   </g>
  </g>
  <g id="axes_2">
   <g id="patch_7">
    <path d="M 361.152 307.584 
L 374.4576 307.584 
L 374.4576 41.472 
L 361.152 41.472 
z
" style="fill: #ffffff"/>
   </g>
   <g id="patch_8">
    <path clip-path="url(#p6b9cef7bb1)" style="fill: #ffffff; stroke: #ffffff; stroke-width: 0.01; stroke-linejoin: miter"/>
   </g>
   <g id="QuadMesh_1">
    <path d="M 361.152 307.584 
L 374.4576 307.584 
L 374.4576 301.536 
L 361.152 301.536 
L 361.152 307.584 
" clip-path="url(#p6b9cef7bb1)" style="fill: #6d0220"/>
    <path d="M 361.152 301.536 
L 374.4576 301.536 
L 374.4576 295.488 
L 361.152 295.488 
L 361.152 301.536 
" clip-path="url(#p6b9cef7bb1)" style="fill: #7f0823"/>
    <path d="M 361.152 295.488 
L 374.4576 295.488 
L 374.4576 289.44 
L 361.152 289.44 
L 361.152 295.488 
" clip-path="url(#p6b9cef7bb1)" style="fill: #900d26"/>
    <path d="M 361.152 289.44 
L 374.4576 289.44 
L 374.4576 283.392 
L 361.152 283.392 
L 361.152 289.44 
" clip-path="url(#p6b9cef7bb1)" style="fill: #a21328"/>
    <path d="M 361.152 283.392 
L 374.4576 283.392 
L 374.4576 277.344 
L 361.152 277.344 
L 361.152 283.392 
" clip-path="url(#p6b9cef7bb1)" style="fill: #b3192c"/>
    <path d="M 361.152 277.344 
L 374.4576 277.344 
L 374.4576 271.296 
L 361.152 271.296 
L 361.152 277.344 
" clip-path="url(#p6b9cef7bb1)" style="fill: #bb2a34"/>
    <path d="M 361.152 271.296 
L 374.4576 271.296 
L 374.4576 265.248 
L 361.152 265.248 
L 361.152 271.296 
" clip-path="url(#p6b9cef7bb1)" style="fill: #c2383a"/>
    <path d="M 361.152 265.248 
L 374.4576 265.248 
L 374.4576 259.2 
L 361.152 259.2 
L 361.152 265.248 
" clip-path="url(#p6b9cef7bb1)" style="fill: #cb4942"/>
    <path d="M 361.152 259.2 
L 374.4576 259.2 
L 374.4576 253.152 
L 361.152 253.152 
L 361.152 259.2 
" clip-path="url(#p6b9cef7bb1)" style="fill: #d35a4a"/>
    <path d="M 361.152 253.152 
L 374.4576 253.152 
L 374.4576 247.104 
L 361.152 247.104 
L 361.152 253.152 
" clip-path="url(#p6b9cef7bb1)" style="fill: #db6b55"/>
    <path d="M 361.152 247.104 
L 374.4576 247.104 
L 374.4576 241.056 
L 361.152 241.056 
L 361.152 247.104 
" clip-path="url(#p6b9cef7bb1)" style="fill: #e27b62"/>
    <path d="M 361.152 241.056 
L 374.4576 241.056 
L 374.4576 235.008 
L 361.152 235.008 
L 361.152 241.056 
" clip-path="url(#p6b9cef7bb1)" style="fill: #e8896c"/>
    <path d="M 361.152 235.008 
L 374.4576 235.008 
L 374.4576 228.96 
L 361.152 228.96 
L 361.152 235.008 
" clip-path="url(#p6b9cef7bb1)" style="fill: #ef9979"/>
    <path d="M 361.152 228.96 
L 374.4576 228.96 
L 374.4576 222.912 
L 361.152 222.912 
L 361.152 228.96 
" clip-path="url(#p6b9cef7bb1)" style="fill: #f5a886"/>
    <path d="M 361.152 222.912 
L 374.4576 222.912 
L 374.4576 216.864 
L 361.152 216.864 
L 361.152 222.912 
" clip-path="url(#p6b9cef7bb1)" style="fill: #f7b596"/>
    <path d="M 361.152 216.864 
L 374.4576 216.864 
L 374.4576 210.816 
L 361.152 210.816 
L 361.152 216.864 
" clip-path="url(#p6b9cef7bb1)" style="fill: #f9c2a7"/>
    <path d="M 361.152 210.816 
L 374.4576 210.816 
L 374.4576 204.768 
L 361.152 204.768 
L 361.152 210.816 
" clip-path="url(#p6b9cef7bb1)" style="fill: #fbccb4"/>
    <path d="M 361.152 204.768 
L 374.4576 204.768 
L 374.4576 198.72 
L 361.152 198.72 
L 361.152 204.768 
" clip-path="url(#p6b9cef7bb1)" style="fill: #fdd9c4"/>
    <path d="M 361.152 198.72 
L 374.4576 198.72 
L 374.4576 192.672 
L 361.152 192.672 
L 361.152 198.72 
" clip-path="url(#p6b9cef7bb1)" style="fill: #fde2d2"/>
    <path d="M 361.152 192.672 
L 374.4576 192.672 
L 374.4576 186.624 
L 361.152 186.624 
L 361.152 192.672 
" clip-path="url(#p6b9cef7bb1)" style="fill: #feebdf"/>
    <path d="M 361.152 186.624 
L 374.4576 186.624 
L 374.4576 180.576 
L 361.152 180.576 
L 361.152 186.624 
" clip-path="url(#p6b9cef7bb1)" style="fill: #fef3ec"/>
    <path d="M 361.152 180.576 
L 374.4576 180.576 
L 374.4576 174.528 
L 361.152 174.528 
L 361.152 180.576 
" clip-path="url(#p6b9cef7bb1)" style="fill: #fffbfa"/>
    <path d="M 361.152 174.528 
L 374.4576 174.528 
L 374.4576 168.48 
L 361.152 168.48 
L 361.152 174.528 
" clip-path="url(#p6b9cef7bb1)" style="fill: #fcfcfc"/>
    <path d="M 361.152 168.48 
L 374.4576 168.48 
L 374.4576 162.432 
L 361.152 162.432 
L 361.152 168.48 
" clip-path="url(#p6b9cef7bb1)" style="fill: #f5f5f5"/>
    <path d="M 361.152 162.432 
L 374.4576 162.432 
L 374.4576 156.384 
L 361.152 156.384 
L 361.152 162.432 
" clip-path="url(#p6b9cef7bb1)" style="fill: #ededed"/>
    <path d="M 361.152 156.384 
L 374.4576 156.384 
L 374.4576 150.336 
L 361.152 150.336 
L 361.152 156.384 
" clip-path="url(#p6b9cef7bb1)" style="fill: #e6e6e6"/>
    <path d="M 361.152 150.336 
L 374.4576 150.336 
L 374.4576 144.288 
L 361.152 144.288 
L 361.152 150.336 
" clip-path="url(#p6b9cef7bb1)" style="fill: #dfdfdf"/>
    <path d="M 361.152 144.288 
L 374.4576 144.288 
L 374.4576 138.24 
L 361.152 138.24 
L 361.152 144.288 
" clip-path="url(#p6b9cef7bb1)" style="fill: #d6d6d6"/>
    <path d="M 361.152 138.24 
L 374.4576 138.24 
L 374.4576 132.192 
L 361.152 132.192 
L 361.152 138.24 
" clip-path="url(#p6b9cef7bb1)" style="fill: #cecece"/>
    <path d="M 361.152 132.192 
L 374.4576 132.192 
L 374.4576 126.144 
L 361.152 126.144 
L 361.152 132.192 
" clip-path="url(#p6b9cef7bb1)" style="fill: #c5c5c5"/>
    <path d="M 361.152 126.144 
L 374.4576 126.144 
L 374.4576 120.096 
L 361.152 120.096 
L 361.152 126.144 
" clip-path="url(#p6b9cef7bb1)" style="fill: #bcbcbc"/>
    <path d="M 361.152 120.096 
L 374.4576 120.096 
L 374.4576 114.048 
L 361.152 114.048 
L 361.152 120.096 
" clip-path="url(#p6b9cef7bb1)" style="fill: #b1b1b1"/>
    <path d="M 361.152 114.048 
L 374.4576 114.048 
L 374.4576 108 
L 361.152 108 
L 361.152 114.048 
" clip-path="url(#p6b9cef7bb1)" style="fill: #a5a5a5"/>
    <path d="M 361.152 108 
L 374.4576 108 
L 374.4576 101.952 
L 361.152 101.952 
L 361.152 108 
" clip-path="url(#p6b9cef7bb1)" style="fill: #9b9b9b"/>
    <path d="M 361.152 101.952 
L 374.4576 101.952 
L 374.4576 95.904 
L 361.152 95.904 
L 361.152 101.952 
" clip-path="url(#p6b9cef7bb1)" style="fill: #8f8f8f"/>
    <path d="M 361.152 95.904 
L 374.4576 95.904 
L 374.4576 89.856 
L 361.152 89.856 
L 361.152 95.904 
" clip-path="url(#p6b9cef7bb1)" style="fill: #828282"/>
    <path d="M 361.152 89.856 
L 374.4576 89.856 
L 374.4576 83.808 
L 361.152 83.808 
L 361.152 89.856 
" clip-path="url(#p6b9cef7bb1)" style="fill: #757575"/>
    <path d="M 361.152 83.808 
L 374.4576 83.808 
L 374.4576 77.76 
L 361.152 77.76 
L 361.152 83.808 
" clip-path="url(#p6b9cef7bb1)" style="fill: #676767"/>
    <path d="M 361.152 77.76 
L 374.4576 77.76 
L 374.4576 71.712 
L 361.152 71.712 
L 361.152 77.76 
" clip-path="url(#p6b9cef7bb1)" style="fill: #5c5c5c"/>
    <path d="M 361.152 71.712 
L 374.4576 71.712 
L 374.4576 65.664 
L 361.152 65.664 
L 361.152 71.712 
" clip-path="url(#p6b9cef7bb1)" style="fill: #4e4e4e"/>
    <path d="M 361.152 65.664 
L 374.4576 65.664 
L 374.4576 59.616 
L 361.152 59.616 
L 361.152 65.664 
" clip-path="url(#p6b9cef7bb1)" style="fill: #424242"/>
    <path d="M 361.152 59.616 
L 374.4576 59.616 
L 374.4576 53.568 
L 361.152 53.568 
L 361.152 59.616 
" clip-path="url(#p6b9cef7bb1)" style="fill: #363636"/>
    <path d="M 361.152 53.568 
L 374.4576 53.568 
L 374.4576 47.52 
L 361.152 47.52 
L 361.152 53.568 
" clip-path="url(#p6b9cef7bb1)" style="fill: #2a2a2a"/>
    <path d="M 361.152 47.52 
L 374.4576 47.52 
L 374.4576 41.472 
L 361.152 41.472 
L 361.152 47.52 
" clip-path="url(#p6b9cef7bb1)" style="fill: #1e1e1e"/>
   </g>
   <g id="matplotlib.axis_3">
    <g id="ytick_8">
     <g id="line2d_15">
      <defs>
       <path id="m07c6898f74" d="M 0 0 
L 3.5 0 
" style="stroke: #000000; stroke-width: 0.8"/>
      </defs>
      <g>
       <use xlink:href="#m07c6898f74" x="374.4576" y="307.584" style="stroke: #000000; stroke-width: 0.8"/>
      </g>
     </g>
     <g id="text_18">
      <!-- 0.15 -->
      <g transform="translate(381.4576 311.383219)scale(0.1 -0.1)">
       <use xlink:href="#DejaVuSans-30"/>
       <use xlink:href="#DejaVuSans-2e" x="63.623047"/>
       <use xlink:href="#DejaVuSans-31" x="95.410156"/>
       <use xlink:href="#DejaVuSans-35" x="159.033203"/>
      </g>
     </g>
    </g>
    <g id="ytick_9">
     <g id="line2d_16">
      <g>
       <use xlink:href="#m07c6898f74" x="374.4576" y="277.344" style="stroke: #000000; stroke-width: 0.8"/>
      </g>
     </g>
     <g id="text_19">
      <!-- 0.90 -->
      <g transform="translate(381.4576 281.143219)scale(0.1 -0.1)">
       <use xlink:href="#DejaVuSans-30"/>
       <use xlink:href="#DejaVuSans-2e" x="63.623047"/>
       <use xlink:href="#DejaVuSans-39" x="95.410156"/>
       <use xlink:href="#DejaVuSans-30" x="159.033203"/>
      </g>
     </g>
    </g>
    <g id="ytick_10">
     <g id="line2d_17">
      <g>
       <use xlink:href="#m07c6898f74" x="374.4576" y="247.104" style="stroke: #000000; stroke-width: 0.8"/>
      </g>
     </g>
     <g id="text_20">
      <!-- 1.65 -->
      <g transform="translate(381.4576 250.903219)scale(0.1 -0.1)">
       <defs>
        <path id="DejaVuSans-36" d="M 2113 2584 
Q 1688 2584 1439 2293 
Q 1191 2003 1191 1497 
Q 1191 994 1439 701 
Q 1688 409 2113 409 
Q 2538 409 2786 701 
Q 3034 994 3034 1497 
Q 3034 2003 2786 2293 
Q 2538 2584 2113 2584 
z
M 3366 4563 
L 3366 3988 
Q 3128 4100 2886 4159 
Q 2644 4219 2406 4219 
Q 1781 4219 1451 3797 
Q 1122 3375 1075 2522 
Q 1259 2794 1537 2939 
Q 1816 3084 2150 3084 
Q 2853 3084 3261 2657 
Q 3669 2231 3669 1497 
Q 3669 778 3244 343 
Q 2819 -91 2113 -91 
Q 1303 -91 875 529 
Q 447 1150 447 2328 
Q 447 3434 972 4092 
Q 1497 4750 2381 4750 
Q 2619 4750 2861 4703 
Q 3103 4656 3366 4563 
z
" transform="scale(0.015625)"/>
       </defs>
       <use xlink:href="#DejaVuSans-31"/>
       <use xlink:href="#DejaVuSans-2e" x="63.623047"/>
       <use xlink:href="#DejaVuSans-36" x="95.410156"/>
       <use xlink:href="#DejaVuSans-35" x="159.033203"/>
      </g>
     </g>
    </g>
    <g id="ytick_11">
     <g id="line2d_18">
      <g>
       <use xlink:href="#m07c6898f74" x="374.4576" y="216.864" style="stroke: #000000; stroke-width: 0.8"/>
      </g>
     </g>
     <g id="text_21">
      <!-- 2.40 -->
      <g transform="translate(381.4576 220.663219)scale(0.1 -0.1)">
       <defs>
        <path id="DejaVuSans-34" d="M 2419 4116 
L 825 1625 
L 2419 1625 
L 2419 4116 
z
M 2253 4666 
L 3047 4666 
L 3047 1625 
L 3713 1625 
L 3713 1100 
L 3047 1100 
L 3047 0 
L 2419 0 
L 2419 1100 
L 313 1100 
L 313 1709 
L 2253 4666 
z
" transform="scale(0.015625)"/>
       </defs>
       <use xlink:href="#DejaVuSans-32"/>
       <use xlink:href="#DejaVuSans-2e" x="63.623047"/>
       <use xlink:href="#DejaVuSans-34" x="95.410156"/>
       <use xlink:href="#DejaVuSans-30" x="159.033203"/>
      </g>
     </g>
    </g>
    <g id="ytick_12">
     <g id="line2d_19">
      <g>
       <use xlink:href="#m07c6898f74" x="374.4576" y="186.624" style="stroke: #000000; stroke-width: 0.8"/>
      </g>
     </g>
     <g id="text_22">
      <!-- 3.15 -->
      <g transform="translate(381.4576 190.423219)scale(0.1 -0.1)">
       <use xlink:href="#DejaVuSans-33"/>
       <use xlink:href="#DejaVuSans-2e" x="63.623047"/>
       <use xlink:href="#DejaVuSans-31" x="95.410156"/>
       <use xlink:href="#DejaVuSans-35" x="159.033203"/>
      </g>
     </g>
    </g>
    <g id="ytick_13">
     <g id="line2d_20">
      <g>
       <use xlink:href="#m07c6898f74" x="374.4576" y="156.384" style="stroke: #000000; stroke-width: 0.8"/>
      </g>
     </g>
     <g id="text_23">
      <!-- 3.90 -->
      <g transform="translate(381.4576 160.183219)scale(0.1 -0.1)">
       <use xlink:href="#DejaVuSans-33"/>
       <use xlink:href="#DejaVuSans-2e" x="63.623047"/>
       <use xlink:href="#DejaVuSans-39" x="95.410156"/>
       <use xlink:href="#DejaVuSans-30" x="159.033203"/>
      </g>
     </g>
    </g>
    <g id="ytick_14">
     <g id="line2d_21">
      <g>
       <use xlink:href="#m07c6898f74" x="374.4576" y="126.144" style="stroke: #000000; stroke-width: 0.8"/>
      </g>
     </g>
     <g id="text_24">
      <!-- 4.65 -->
      <g transform="translate(381.4576 129.943219)scale(0.1 -0.1)">
       <use xlink:href="#DejaVuSans-34"/>
       <use xlink:href="#DejaVuSans-2e" x="63.623047"/>
       <use xlink:href="#DejaVuSans-36" x="95.410156"/>
       <use xlink:href="#DejaVuSans-35" x="159.033203"/>
      </g>
     </g>
    </g>
    <g id="ytick_15">
     <g id="line2d_22">
      <g>
       <use xlink:href="#m07c6898f74" x="374.4576" y="95.904" style="stroke: #000000; stroke-width: 0.8"/>
      </g>
     </g>
     <g id="text_25">
      <!-- 5.40 -->
      <g transform="translate(381.4576 99.703219)scale(0.1 -0.1)">
       <use xlink:href="#DejaVuSans-35"/>
       <use xlink:href="#DejaVuSans-2e" x="63.623047"/>
       <use xlink:href="#DejaVuSans-34" x="95.410156"/>
       <use xlink:href="#DejaVuSans-30" x="159.033203"/>
      </g>
     </g>
    </g>
    <g id="ytick_16">
     <g id="line2d_23">
      <g>
       <use xlink:href="#m07c6898f74" x="374.4576" y="65.664" style="stroke: #000000; stroke-width: 0.8"/>
      </g>
     </g>
     <g id="text_26">
      <!-- 6.15 -->
      <g transform="translate(381.4576 69.463219)scale(0.1 -0.1)">
       <use xlink:href="#DejaVuSans-36"/>
       <use xlink:href="#DejaVuSans-2e" x="63.623047"/>
       <use xlink:href="#DejaVuSans-31" x="95.410156"/>
       <use xlink:href="#DejaVuSans-35" x="159.033203"/>
      </g>
     </g>
    </g>
   </g>
   <g id="LineCollection_1"/>
   <g id="patch_9">
    <path d="M 361.152 307.584 
L 367.8048 307.584 
L 374.4576 307.584 
L 374.4576 41.472 
L 367.8048 41.472 
L 361.152 41.472 
L 361.152 307.584 
z
" style="fill: none; stroke: #000000; stroke-width: 0.8; stroke-linejoin: miter; stroke-linecap: square"/>
   </g>
  </g>
 </g>
 <defs>
  <clipPath id="p3e892a6bdd">
   <rect x="57.6" y="41.472" width="285.696" height="266.112"/>
  </clipPath>
  <clipPath id="p6b9cef7bb1">
   <rect x="361.152" y="41.472" width="13.3056" height="266.112"/>
  </clipPath>
 </defs>
</svg>
