<?xml version="1.0" encoding="utf-8" standalone="no"?>
<!DOCTYPE svg PUBLIC "-//W3C//DTD SVG 1.1//EN"
  "http://www.w3.org/Graphics/SVG/1.1/DTD/svg11.dtd">
<svg xmlns:xlink="http://www.w3.org/1999/xlink" width="460.8pt" height="345.6pt" viewBox="0 0 460.8 345.6" xmlns="http://www.w3.org/2000/svg" version="1.1">
 <metadata>
  <rdf:RDF xmlns:dc="http://purl.org/dc/elements/1.1/" xmlns:cc="http://creativecommons.org/ns#" xmlns:rdf="http://www.w3.org/1999/02/22-rdf-syntax-ns#">
   <cc:Work>
    <dc:type rdf:resource="http://purl.org/dc/dcmitype/StillImage"/>
    <dc:date>2023-02-28T14:11:56.765120</dc:date>
    <dc:format>image/svg+xml</dc:format>
    <dc:creator>
     <cc:Agent>
      <dc:title>Matplotlib v3.5.3, https://matplotlib.org/</dc:title>
     </cc:Agent>
    </dc:creator>
   </cc:Work>
  </rdf:RDF>
 </metadata>
 <defs>
  <style type="text/css">*{stroke-linejoin: round; stroke-linecap: butt}</style>
 </defs>
 <g id="figure_1">
  <g id="patch_1">
   <path d="M 0 345.6 
L 460.8 345.6 
L 460.8 0 
L 0 0 
z
" style="fill: #ffffff"/>
  </g>
  <g id="axes_1">
   <g id="patch_2">
    <path d="M 57.6 108 
L 414.72 108 
L 414.72 41.472 
L 57.6 41.472 
z
" style="fill: #ffffff"/>
   </g>
   <g id="matplotlib.axis_1">
    <g id="xtick_1">
     <g id="line2d_1">
      <defs>
       <path id="md7f243851a" d="M 0 0 
L 0 3.5 
" style="stroke: #000000; stroke-width: 0.8"/>
      </defs>
      <g>
       <use xlink:href="#md7f243851a" x="73.832727" y="108" style="stroke: #000000; stroke-width: 0.8"/>
      </g>
     </g>
    </g>
    <g id="xtick_2">
     <g id="line2d_2">
      <g>
       <use xlink:href="#md7f243851a" x="137.993705" y="108" style="stroke: #000000; stroke-width: 0.8"/>
      </g>
     </g>
    </g>
    <g id="xtick_3">
     <g id="line2d_3">
      <g>
       <use xlink:href="#md7f243851a" x="202.154682" y="108" style="stroke: #000000; stroke-width: 0.8"/>
      </g>
     </g>
    </g>
    <g id="xtick_4">
     <g id="line2d_4">
      <g>
       <use xlink:href="#md7f243851a" x="266.315659" y="108" style="stroke: #000000; stroke-width: 0.8"/>
      </g>
     </g>
    </g>
    <g id="xtick_5">
     <g id="line2d_5">
      <g>
       <use xlink:href="#md7f243851a" x="330.476637" y="108" style="stroke: #000000; stroke-width: 0.8"/>
      </g>
     </g>
    </g>
    <g id="xtick_6">
     <g id="line2d_6">
      <g>
       <use xlink:href="#md7f243851a" x="394.637614" y="108" style="stroke: #000000; stroke-width: 0.8"/>
      </g>
     </g>
    </g>
    <g id="text_1">
     <!-- Time -->
     <g transform="translate(223.926406 123.098437)scale(0.1 -0.1)">
      <defs>
       <path id="DejaVuSans-54" d="M -19 4666 
L 3928 4666 
L 3928 4134 
L 2272 4134 
L 2272 0 
L 1638 0 
L 1638 4134 
L -19 4134 
L -19 4666 
z
" transform="scale(0.015625)"/>
       <path id="DejaVuSans-69" d="M 603 3500 
L 1178 3500 
L 1178 0 
L 603 0 
L 603 3500 
z
M 603 4863 
L 1178 4863 
L 1178 4134 
L 603 4134 
L 603 4863 
z
" transform="scale(0.015625)"/>
       <path id="DejaVuSans-6d" d="M 3328 2828 
Q 3544 3216 3844 3400 
Q 4144 3584 4550 3584 
Q 5097 3584 5394 3201 
Q 5691 2819 5691 2113 
L 5691 0 
L 5113 0 
L 5113 2094 
Q 5113 2597 4934 2840 
Q 4756 3084 4391 3084 
Q 3944 3084 3684 2787 
Q 3425 2491 3425 1978 
L 3425 0 
L 2847 0 
L 2847 2094 
Q 2847 2600 2669 2842 
Q 2491 3084 2119 3084 
Q 1678 3084 1418 2786 
Q 1159 2488 1159 1978 
L 1159 0 
L 581 0 
L 581 3500 
L 1159 3500 
L 1159 2956 
Q 1356 3278 1631 3431 
Q 1906 3584 2284 3584 
Q 2666 3584 2933 3390 
Q 3200 3197 3328 2828 
z
" transform="scale(0.015625)"/>
       <path id="DejaVuSans-65" d="M 3597 1894 
L 3597 1613 
L 953 1613 
Q 991 1019 1311 708 
Q 1631 397 2203 397 
Q 2534 397 2845 478 
Q 3156 559 3463 722 
L 3463 178 
Q 3153 47 2828 -22 
Q 2503 -91 2169 -91 
Q 1331 -91 842 396 
Q 353 884 353 1716 
Q 353 2575 817 3079 
Q 1281 3584 2069 3584 
Q 2775 3584 3186 3129 
Q 3597 2675 3597 1894 
z
M 3022 2063 
Q 3016 2534 2758 2815 
Q 2500 3097 2075 3097 
Q 1594 3097 1305 2825 
Q 1016 2553 972 2059 
L 3022 2063 
z
" transform="scale(0.015625)"/>
      </defs>
      <use xlink:href="#DejaVuSans-54"/>
      <use xlink:href="#DejaVuSans-69" x="57.958984"/>
      <use xlink:href="#DejaVuSans-6d" x="85.742188"/>
      <use xlink:href="#DejaVuSans-65" x="183.154297"/>
     </g>
    </g>
   </g>
   <g id="matplotlib.axis_2">
    <g id="ytick_1">
     <g id="line2d_7">
      <defs>
       <path id="m27a3558339" d="M 0 0 
L -3.5 0 
" style="stroke: #000000; stroke-width: 0.8"/>
      </defs>
      <g>
       <use xlink:href="#m27a3558339" x="57.6" y="104.976" style="stroke: #000000; stroke-width: 0.8"/>
      </g>
     </g>
     <g id="text_2">
      <!-- 0 -->
      <g transform="translate(44.2375 108.775219)scale(0.1 -0.1)">
       <defs>
        <path id="DejaVuSans-30" d="M 2034 4250 
Q 1547 4250 1301 3770 
Q 1056 3291 1056 2328 
Q 1056 1369 1301 889 
Q 1547 409 2034 409 
Q 2525 409 2770 889 
Q 3016 1369 3016 2328 
Q 3016 3291 2770 3770 
Q 2525 4250 2034 4250 
z
M 2034 4750 
Q 2819 4750 3233 4129 
Q 3647 3509 3647 2328 
Q 3647 1150 3233 529 
Q 2819 -91 2034 -91 
Q 1250 -91 836 529 
Q 422 1150 422 2328 
Q 422 3509 836 4129 
Q 1250 4750 2034 4750 
z
" transform="scale(0.015625)"/>
       </defs>
       <use xlink:href="#DejaVuSans-30"/>
      </g>
     </g>
    </g>
    <g id="ytick_2">
     <g id="line2d_8">
      <g>
       <use xlink:href="#m27a3558339" x="57.6" y="66.645556" style="stroke: #000000; stroke-width: 0.8"/>
      </g>
     </g>
     <g id="text_3">
      <!-- 1 -->
      <g transform="translate(44.2375 70.444775)scale(0.1 -0.1)">
       <defs>
        <path id="DejaVuSans-31" d="M 794 531 
L 1825 531 
L 1825 4091 
L 703 3866 
L 703 4441 
L 1819 4666 
L 2450 4666 
L 2450 531 
L 3481 531 
L 3481 0 
L 794 0 
L 794 531 
z
" transform="scale(0.015625)"/>
       </defs>
       <use xlink:href="#DejaVuSans-31"/>
      </g>
     </g>
    </g>
    <g id="text_4">
     <!-- X_gen_new  -->
     <g transform="translate(37.879687 104.503969)rotate(-90)scale(0.1 -0.1)">
      <defs>
       <path id="DejaVuSans-58" d="M 403 4666 
L 1081 4666 
L 2241 2931 
L 3406 4666 
L 4084 4666 
L 2584 2425 
L 4184 0 
L 3506 0 
L 2194 1984 
L 872 0 
L 191 0 
L 1856 2491 
L 403 4666 
z
" transform="scale(0.015625)"/>
       <path id="DejaVuSans-5f" d="M 3263 -1063 
L 3263 -1509 
L -63 -1509 
L -63 -1063 
L 3263 -1063 
z
" transform="scale(0.015625)"/>
       <path id="DejaVuSans-67" d="M 2906 1791 
Q 2906 2416 2648 2759 
Q 2391 3103 1925 3103 
Q 1463 3103 1205 2759 
Q 947 2416 947 1791 
Q 947 1169 1205 825 
Q 1463 481 1925 481 
Q 2391 481 2648 825 
Q 2906 1169 2906 1791 
z
M 3481 434 
Q 3481 -459 3084 -895 
Q 2688 -1331 1869 -1331 
Q 1566 -1331 1297 -1286 
Q 1028 -1241 775 -1147 
L 775 -588 
Q 1028 -725 1275 -790 
Q 1522 -856 1778 -856 
Q 2344 -856 2625 -561 
Q 2906 -266 2906 331 
L 2906 616 
Q 2728 306 2450 153 
Q 2172 0 1784 0 
Q 1141 0 747 490 
Q 353 981 353 1791 
Q 353 2603 747 3093 
Q 1141 3584 1784 3584 
Q 2172 3584 2450 3431 
Q 2728 3278 2906 2969 
L 2906 3500 
L 3481 3500 
L 3481 434 
z
" transform="scale(0.015625)"/>
       <path id="DejaVuSans-6e" d="M 3513 2113 
L 3513 0 
L 2938 0 
L 2938 2094 
Q 2938 2591 2744 2837 
Q 2550 3084 2163 3084 
Q 1697 3084 1428 2787 
Q 1159 2491 1159 1978 
L 1159 0 
L 581 0 
L 581 3500 
L 1159 3500 
L 1159 2956 
Q 1366 3272 1645 3428 
Q 1925 3584 2291 3584 
Q 2894 3584 3203 3211 
Q 3513 2838 3513 2113 
z
" transform="scale(0.015625)"/>
       <path id="DejaVuSans-77" d="M 269 3500 
L 844 3500 
L 1563 769 
L 2278 3500 
L 2956 3500 
L 3675 769 
L 4391 3500 
L 4966 3500 
L 4050 0 
L 3372 0 
L 2619 2869 
L 1863 0 
L 1184 0 
L 269 3500 
z
" transform="scale(0.015625)"/>
       <path id="DejaVuSans-20" transform="scale(0.015625)"/>
      </defs>
      <use xlink:href="#DejaVuSans-58"/>
      <use xlink:href="#DejaVuSans-5f" x="68.505859"/>
      <use xlink:href="#DejaVuSans-67" x="118.505859"/>
      <use xlink:href="#DejaVuSans-65" x="181.982422"/>
      <use xlink:href="#DejaVuSans-6e" x="243.505859"/>
      <use xlink:href="#DejaVuSans-5f" x="306.884766"/>
      <use xlink:href="#DejaVuSans-6e" x="356.884766"/>
      <use xlink:href="#DejaVuSans-65" x="420.263672"/>
      <use xlink:href="#DejaVuSans-77" x="481.787109"/>
      <use xlink:href="#DejaVuSans-20" x="563.574219"/>
     </g>
    </g>
   </g>
   <g id="line2d_9">
    <path d="M 73.832727 104.976 
L 78.965605 104.919437 
L 79.607215 98.941609 
L 80.248825 103.86889 
L 80.890435 103.657326 
L 81.532045 91.025851 
L 82.173654 103.633477 
L 82.815264 104.570488 
L 83.456874 102.38527 
L 84.098484 104.890797 
L 85.381703 104.976 
L 88.589752 104.976 
L 89.231362 99.107885 
L 89.872972 104.976 
L 94.36424 104.968245 
L 95.64746 104.511857 
L 96.289069 60.577177 
L 96.930679 104.479351 
L 97.572289 104.490014 
L 98.213899 90.287552 
L 98.855508 96.124246 
L 99.497118 104.016189 
L 100.138728 104.889573 
L 101.421948 104.976 
L 109.762875 104.960078 
L 112.329314 104.545871 
L 112.970923 104.767089 
L 114.254143 104.868722 
L 125.161509 104.95624 
L 126.444729 104.771944 
L 127.086338 71.233537 
L 127.727948 90.065317 
L 128.369558 103.244109 
L 129.011168 103.644301 
L 129.652778 104.48946 
L 130.935997 104.949232 
L 134.144046 104.976 
L 139.918534 104.976 
L 140.560144 87.421134 
L 141.201754 104.78293 
L 143.126583 104.167808 
L 143.768193 97.303572 
L 144.409802 60.998669 
L 145.051412 104.595881 
L 146.334632 104.950341 
L 149.542681 104.976 
L 155.958778 104.927681 
L 156.600388 104.43004 
L 157.241998 79.476259 
L 157.883608 102.976856 
L 158.525217 102.789175 
L 159.166827 45.425902 
L 159.808437 82.983521 
L 160.450047 103.050044 
L 161.091656 103.5159 
L 161.733266 104.869852 
L 163.016486 104.976 
L 170.074193 104.976 
L 170.715803 73.546163 
L 171.357413 104.404544 
L 171.999023 95.64322 
L 172.640632 89.52876 
L 173.282242 84.696896 
L 173.923852 102.738974 
L 174.565462 101.370047 
L 175.207072 83.111754 
L 175.848681 85.943735 
L 176.490291 89.89022 
L 177.131901 103.707199 
L 177.773511 104.976 
L 179.69834 104.976 
L 180.33995 66.645556 
L 180.981559 104.976 
L 186.756047 104.923645 
L 188.680877 103.243571 
L 189.322487 89.052998 
L 189.964096 82.937619 
L 190.605706 63.102346 
L 191.247316 103.303664 
L 191.888926 104.289387 
L 192.530535 104.896875 
L 193.813755 104.976 
L 195.738584 104.976 
L 196.380194 66.645556 
L 197.021804 104.976 
L 202.154682 104.911648 
L 202.796292 104.044503 
L 203.437902 89.038891 
L 204.079511 103.046861 
L 204.721121 84.151247 
L 205.362731 83.886053 
L 206.004341 91.311116 
L 206.64595 103.964725 
L 207.28756 104.372898 
L 207.92917 104.261756 
L 208.57078 104.976 
L 212.420438 104.976 
L 213.062048 66.645556 
L 213.703658 104.976 
L 216.911707 104.976 
L 217.553317 104.320832 
L 218.194926 97.36503 
L 218.836536 95.464081 
L 219.478146 86.777571 
L 220.119756 102.98913 
L 220.761365 103.229339 
L 221.402975 45.873914 
L 222.044585 102.853242 
L 222.686195 103.217214 
L 223.327805 104.804691 
L 223.969414 104.976 
L 225.894244 104.976 
L 226.535853 78.094075 
L 227.177463 104.976 
L 232.951951 104.94066 
L 234.235171 104.469852 
L 235.51839 104.284355 
L 236.16 104.154738 
L 236.80161 60.310679 
L 237.44322 104.277364 
L 238.084829 90.637714 
L 238.726439 104.8521 
L 239.368049 104.976 
L 240.651268 104.976 
L 241.292878 103.860904 
L 241.934488 104.976 
L 248.350586 104.908754 
L 249.633805 103.342322 
L 250.275415 84.224555 
L 250.917025 97.266162 
L 251.558635 82.036202 
L 252.200244 44.496 
L 252.841854 84.253868 
L 253.483464 103.336343 
L 254.125074 104.759155 
L 254.766683 104.976 
L 258.616342 104.976 
L 259.257952 94.177685 
L 259.899562 104.976 
L 263.74922 104.923836 
L 264.39083 104.49903 
L 265.03244 104.291082 
L 265.67405 103.813621 
L 266.315659 103.750182 
L 267.598879 75.867575 
L 268.240489 103.869856 
L 269.523708 104.862379 
L 270.165318 104.976 
L 278.506245 104.976 
L 279.147855 104.589907 
L 279.789465 64.522536 
L 280.431074 101.765451 
L 281.072684 103.916587 
L 281.714294 103.53286 
L 282.355904 103.407481 
L 282.997513 90.657787 
L 283.639123 53.611705 
L 284.280733 103.778961 
L 284.922343 104.721043 
L 285.563953 104.976 
L 290.055221 104.976 
L 290.696831 91.908043 
L 291.338441 104.976 
L 294.546489 104.922616 
L 295.188099 104.483164 
L 295.829709 104.246892 
L 296.471319 104.260227 
L 297.112928 104.120133 
L 297.754538 104.390398 
L 298.396148 76.262212 
L 299.037758 102.155753 
L 299.679368 104.828604 
L 300.962587 104.976 
L 310.586734 104.868607 
L 311.869953 104.449376 
L 312.511563 104.00911 
L 313.794783 104.411748 
L 314.436392 57.909317 
L 315.078002 104.440562 
L 315.719612 104.841105 
L 316.361222 104.976 
L 325.343759 104.904014 
L 325.985368 104.074441 
L 326.626978 103.646476 
L 327.268588 103.032651 
L 327.910198 92.906297 
L 329.193417 94.746708 
L 329.835027 67.161948 
L 330.476637 104.464017 
L 331.118246 104.830854 
L 331.759856 104.976 
L 340.742393 104.891 
L 342.025613 103.472702 
L 342.667222 90.719007 
L 343.308832 89.736009 
L 343.950442 50.997406 
L 344.592052 86.866065 
L 345.233662 97.665979 
L 345.875271 103.992761 
L 346.516881 104.636683 
L 347.158491 104.976 
L 356.141028 104.89483 
L 357.424247 103.591364 
L 358.065857 93.3025 
L 358.707467 96.286671 
L 359.349077 94.891976 
L 359.990686 54.391616 
L 360.632296 98.712851 
L 361.273906 103.854713 
L 361.915516 104.553969 
L 362.557125 104.976 
L 363.198735 91.086136 
L 363.840345 104.976 
L 371.539662 104.94308 
L 372.181272 104.671363 
L 372.822882 97.859832 
L 373.464492 103.649946 
L 374.106101 90.743468 
L 374.747711 102.850702 
L 375.389321 46.892374 
L 376.030931 82.657057 
L 376.67254 102.935272 
L 377.95576 104.976 
L 386.938297 104.884096 
L 387.579907 104.647915 
L 388.221516 103.894176 
L 388.863126 89.67445 
L 389.504736 86.341844 
L 390.146346 85.77487 
L 390.787955 45.067488 
L 391.429565 84.867222 
L 392.071175 103.12139 
L 392.712785 103.954649 
L 393.354395 104.976 
L 396.562443 104.976 
L 397.204053 79.092357 
L 397.845663 104.976 
L 398.487273 104.976 
L 398.487273 104.976 
" clip-path="url(#p1bab6ad3e3)" style="fill: none; stroke: #1f77b4; stroke-width: 1.5; stroke-linecap: square"/>
   </g>
   <g id="patch_3">
    <path d="M 57.6 108 
L 57.6 41.472 
" style="fill: none; stroke: #000000; stroke-width: 0.8; stroke-linejoin: miter; stroke-linecap: square"/>
   </g>
   <g id="patch_4">
    <path d="M 414.72 108 
L 414.72 41.472 
" style="fill: none; stroke: #000000; stroke-width: 0.8; stroke-linejoin: miter; stroke-linecap: square"/>
   </g>
   <g id="patch_5">
    <path d="M 57.6 108 
L 414.72 108 
" style="fill: none; stroke: #000000; stroke-width: 0.8; stroke-linejoin: miter; stroke-linecap: square"/>
   </g>
   <g id="patch_6">
    <path d="M 57.6 41.472 
L 414.72 41.472 
" style="fill: none; stroke: #000000; stroke-width: 0.8; stroke-linejoin: miter; stroke-linecap: square"/>
   </g>
   <g id="text_5">
    <!-- X_gen_new  -->
    <g transform="translate(200.438437 35.472)scale(0.12 -0.12)">
     <use xlink:href="#DejaVuSans-58"/>
     <use xlink:href="#DejaVuSans-5f" x="68.505859"/>
     <use xlink:href="#DejaVuSans-67" x="118.505859"/>
     <use xlink:href="#DejaVuSans-65" x="181.982422"/>
     <use xlink:href="#DejaVuSans-6e" x="243.505859"/>
     <use xlink:href="#DejaVuSans-5f" x="306.884766"/>
     <use xlink:href="#DejaVuSans-6e" x="356.884766"/>
     <use xlink:href="#DejaVuSans-65" x="420.263672"/>
     <use xlink:href="#DejaVuSans-77" x="481.787109"/>
     <use xlink:href="#DejaVuSans-20" x="563.574219"/>
    </g>
   </g>
  </g>
  <g id="axes_2">
   <g id="patch_7">
    <path d="M 57.6 207.792 
L 414.72 207.792 
L 414.72 141.264 
L 57.6 141.264 
z
" style="fill: #ffffff"/>
   </g>
   <g id="matplotlib.axis_3">
    <g id="xtick_7">
     <g id="line2d_10">
      <g>
       <use xlink:href="#md7f243851a" x="73.832727" y="207.792" style="stroke: #000000; stroke-width: 0.8"/>
      </g>
     </g>
    </g>
    <g id="xtick_8">
     <g id="line2d_11">
      <g>
       <use xlink:href="#md7f243851a" x="137.993705" y="207.792" style="stroke: #000000; stroke-width: 0.8"/>
      </g>
     </g>
    </g>
    <g id="xtick_9">
     <g id="line2d_12">
      <g>
       <use xlink:href="#md7f243851a" x="202.154682" y="207.792" style="stroke: #000000; stroke-width: 0.8"/>
      </g>
     </g>
    </g>
    <g id="xtick_10">
     <g id="line2d_13">
      <g>
       <use xlink:href="#md7f243851a" x="266.315659" y="207.792" style="stroke: #000000; stroke-width: 0.8"/>
      </g>
     </g>
    </g>
    <g id="xtick_11">
     <g id="line2d_14">
      <g>
       <use xlink:href="#md7f243851a" x="330.476637" y="207.792" style="stroke: #000000; stroke-width: 0.8"/>
      </g>
     </g>
    </g>
    <g id="xtick_12">
     <g id="line2d_15">
      <g>
       <use xlink:href="#md7f243851a" x="394.637614" y="207.792" style="stroke: #000000; stroke-width: 0.8"/>
      </g>
     </g>
    </g>
    <g id="text_6">
     <!-- Time -->
     <g transform="translate(223.926406 222.890437)scale(0.1 -0.1)">
      <use xlink:href="#DejaVuSans-54"/>
      <use xlink:href="#DejaVuSans-69" x="57.958984"/>
      <use xlink:href="#DejaVuSans-6d" x="85.742188"/>
      <use xlink:href="#DejaVuSans-65" x="183.154297"/>
     </g>
    </g>
   </g>
   <g id="matplotlib.axis_4">
    <g id="ytick_3">
     <g id="line2d_16">
      <g>
       <use xlink:href="#m27a3558339" x="57.6" y="204.768" style="stroke: #000000; stroke-width: 0.8"/>
      </g>
     </g>
     <g id="text_7">
      <!-- 0.00 -->
      <g transform="translate(28.334375 208.567219)scale(0.1 -0.1)">
       <defs>
        <path id="DejaVuSans-2e" d="M 684 794 
L 1344 794 
L 1344 0 
L 684 0 
L 684 794 
z
" transform="scale(0.015625)"/>
       </defs>
       <use xlink:href="#DejaVuSans-30"/>
       <use xlink:href="#DejaVuSans-2e" x="63.623047"/>
       <use xlink:href="#DejaVuSans-30" x="95.410156"/>
       <use xlink:href="#DejaVuSans-30" x="159.033203"/>
      </g>
     </g>
    </g>
    <g id="ytick_4">
     <g id="line2d_17">
      <g>
       <use xlink:href="#m27a3558339" x="57.6" y="179.503771" style="stroke: #000000; stroke-width: 0.8"/>
      </g>
     </g>
     <g id="text_8">
      <!-- 0.25 -->
      <g transform="translate(28.334375 183.30299)scale(0.1 -0.1)">
       <defs>
        <path id="DejaVuSans-32" d="M 1228 531 
L 3431 531 
L 3431 0 
L 469 0 
L 469 531 
Q 828 903 1448 1529 
Q 2069 2156 2228 2338 
Q 2531 2678 2651 2914 
Q 2772 3150 2772 3378 
Q 2772 3750 2511 3984 
Q 2250 4219 1831 4219 
Q 1534 4219 1204 4116 
Q 875 4013 500 3803 
L 500 4441 
Q 881 4594 1212 4672 
Q 1544 4750 1819 4750 
Q 2544 4750 2975 4387 
Q 3406 4025 3406 3419 
Q 3406 3131 3298 2873 
Q 3191 2616 2906 2266 
Q 2828 2175 2409 1742 
Q 1991 1309 1228 531 
z
" transform="scale(0.015625)"/>
        <path id="DejaVuSans-35" d="M 691 4666 
L 3169 4666 
L 3169 4134 
L 1269 4134 
L 1269 2991 
Q 1406 3038 1543 3061 
Q 1681 3084 1819 3084 
Q 2600 3084 3056 2656 
Q 3513 2228 3513 1497 
Q 3513 744 3044 326 
Q 2575 -91 1722 -91 
Q 1428 -91 1123 -41 
Q 819 9 494 109 
L 494 744 
Q 775 591 1075 516 
Q 1375 441 1709 441 
Q 2250 441 2565 725 
Q 2881 1009 2881 1497 
Q 2881 1984 2565 2268 
Q 2250 2553 1709 2553 
Q 1456 2553 1204 2497 
Q 953 2441 691 2322 
L 691 4666 
z
" transform="scale(0.015625)"/>
       </defs>
       <use xlink:href="#DejaVuSans-30"/>
       <use xlink:href="#DejaVuSans-2e" x="63.623047"/>
       <use xlink:href="#DejaVuSans-32" x="95.410156"/>
       <use xlink:href="#DejaVuSans-35" x="159.033203"/>
      </g>
     </g>
    </g>
    <g id="ytick_5">
     <g id="line2d_18">
      <g>
       <use xlink:href="#m27a3558339" x="57.6" y="154.239542" style="stroke: #000000; stroke-width: 0.8"/>
      </g>
     </g>
     <g id="text_9">
      <!-- 0.50 -->
      <g transform="translate(28.334375 158.038761)scale(0.1 -0.1)">
       <use xlink:href="#DejaVuSans-30"/>
       <use xlink:href="#DejaVuSans-2e" x="63.623047"/>
       <use xlink:href="#DejaVuSans-35" x="95.410156"/>
       <use xlink:href="#DejaVuSans-30" x="159.033203"/>
      </g>
     </g>
    </g>
    <g id="text_10">
     <!-- X_gen  -->
     <g transform="translate(21.976562 191.461594)rotate(-90)scale(0.1 -0.1)">
      <use xlink:href="#DejaVuSans-58"/>
      <use xlink:href="#DejaVuSans-5f" x="68.505859"/>
      <use xlink:href="#DejaVuSans-67" x="118.505859"/>
      <use xlink:href="#DejaVuSans-65" x="181.982422"/>
      <use xlink:href="#DejaVuSans-6e" x="243.505859"/>
      <use xlink:href="#DejaVuSans-20" x="306.884766"/>
     </g>
    </g>
   </g>
   <g id="line2d_19">
    <path d="M 73.832727 204.768 
L 78.323996 204.768 
L 78.965605 203.276723 
L 80.248825 175.579413 
L 80.890435 170.001606 
L 81.532045 168.167501 
L 82.173654 169.372828 
L 82.815264 194.076822 
L 83.456874 197.937628 
L 84.098484 202.521653 
L 84.740093 204.571778 
L 85.381703 204.768 
L 93.72263 204.768 
L 94.36424 204.56355 
L 95.00585 200.01933 
L 95.64746 192.531025 
L 96.289069 188.768924 
L 96.930679 191.674029 
L 97.572289 191.955143 
L 98.213899 189.35855 
L 98.855508 181.430651 
L 99.497118 179.462905 
L 100.138728 202.489375 
L 100.780338 204.768 
L 109.121265 204.768 
L 109.762875 204.34821 
L 110.404484 201.613994 
L 111.046094 199.413383 
L 112.329314 193.427797 
L 112.970923 199.26012 
L 113.612533 201.247278 
L 114.254143 201.939658 
L 114.895753 202.101711 
L 115.537363 204.402001 
L 116.178972 204.768 
L 124.519899 204.768 
L 125.161509 204.247023 
L 125.803119 201.56972 
L 126.444729 199.388142 
L 127.086338 188.208264 
L 127.727948 154.35041 
L 128.369558 159.107285 
L 129.011168 169.658211 
L 129.652778 191.94055 
L 130.294387 199.126305 
L 130.935997 204.062277 
L 131.577607 204.768 
L 139.918534 204.768 
L 140.560144 204.259095 
L 141.201754 199.677777 
L 141.843363 194.229146 
L 142.484973 190.844894 
L 143.126583 183.46029 
L 143.768193 184.539904 
L 145.693022 200.193674 
L 146.334632 204.091512 
L 146.976241 204.768 
L 155.317169 204.768 
L 155.958778 203.494093 
L 156.600388 190.37395 
L 157.241998 165.385222 
L 157.883608 152.061235 
L 158.525217 147.113101 
L 159.166827 147.091683 
L 159.808437 146.785575 
L 160.450047 153.990836 
L 161.091656 166.27295 
L 161.733266 201.969436 
L 162.374876 204.768 
L 170.715803 204.768 
L 171.357413 203.261376 
L 171.999023 180.162442 
L 172.640632 164.041875 
L 173.282242 151.30283 
L 173.923852 145.789575 
L 174.565462 147.284695 
L 175.207072 147.123657 
L 175.848681 154.590078 
L 176.490291 164.994853 
L 177.131901 201.422849 
L 177.773511 204.768 
L 186.114438 204.768 
L 186.756047 203.38768 
L 188.039267 170.761134 
L 188.680877 159.093089 
L 189.322487 150.146147 
L 189.964096 146.664556 
L 190.605706 152.22064 
L 191.247316 160.677416 
L 191.888926 186.665675 
L 192.530535 202.681899 
L 193.172145 204.768 
L 201.513072 204.768 
L 202.154682 203.071375 
L 202.796292 180.209396 
L 203.437902 162.750352 
L 204.079511 153.906903 
L 204.721121 149.864245 
L 205.362731 155.819107 
L 206.004341 168.740998 
L 207.28756 188.867424 
L 207.92917 202.884919 
L 208.57078 204.768 
L 216.911707 204.768 
L 217.553317 203.040673 
L 218.836536 167.223171 
L 219.478146 156.788459 
L 220.119756 152.384852 
L 220.761365 158.717883 
L 221.402975 145.114245 
L 222.044585 148.802201 
L 222.686195 158.398197 
L 223.327805 200.251502 
L 223.969414 204.768 
L 232.310341 204.768 
L 232.951951 203.836273 
L 234.235171 191.423589 
L 234.87678 187.639103 
L 235.51839 186.533006 
L 236.16 183.115704 
L 236.80161 188.066311 
L 237.44322 186.348691 
L 238.084829 183.542973 
L 238.726439 201.501429 
L 239.368049 204.768 
L 247.708976 204.768 
L 248.350586 202.995072 
L 249.633805 161.696634 
L 250.275415 150.05752 
L 250.917025 145.55193 
L 251.558635 144.288 
L 252.200244 146.371446 
L 252.841854 150.134801 
L 253.483464 161.539002 
L 254.125074 199.050962 
L 254.766683 204.768 
L 263.10761 204.768 
L 263.74922 203.392721 
L 264.39083 192.192843 
L 265.03244 186.710363 
L 265.67405 174.122277 
L 266.315659 172.449713 
L 266.957269 165.557899 
L 267.598879 170.13271 
L 268.240489 175.604877 
L 268.882098 190.139938 
L 269.523708 201.772423 
L 270.165318 204.768 
L 278.506245 204.768 
L 279.147855 203.75008 
L 279.789465 199.170729 
L 280.431074 191.845772 
L 281.072684 176.836935 
L 281.714294 166.72009 
L 282.355904 163.414541 
L 283.639123 170.404693 
L 284.280733 173.208485 
L 284.922343 198.046153 
L 285.563953 204.768 
L 293.90488 204.768 
L 294.546489 203.360559 
L 295.188099 191.774552 
L 295.829709 185.545307 
L 296.471319 185.896887 
L 297.112928 182.203358 
L 297.754538 189.328802 
L 298.396148 191.300836 
L 299.037758 197.332515 
L 300.320977 204.075463 
L 300.962587 204.768 
L 309.303514 204.768 
L 309.945124 204.427805 
L 310.586734 201.936624 
L 311.228344 197.212572 
L 311.869953 190.883735 
L 312.511563 179.27627 
L 313.153173 183.3881 
L 313.794783 189.891698 
L 314.436392 181.735202 
L 315.078002 190.651346 
L 315.719612 201.211545 
L 316.361222 204.768 
L 324.702149 204.768 
L 325.343759 202.870122 
L 325.985368 180.998694 
L 326.626978 169.715562 
L 327.268588 169.140971 
L 327.910198 172.946637 
L 329.193417 177.798818 
L 329.835027 178.920953 
L 330.476637 191.269732 
L 331.118246 200.941281 
L 331.759856 204.768 
L 340.100783 204.768 
L 340.742393 202.527004 
L 341.384003 181.914137 
L 342.025613 165.134048 
L 342.667222 167.179921 
L 343.308832 164.588281 
L 343.950442 163.512184 
L 344.592052 157.021772 
L 345.233662 166.734437 
L 345.875271 178.845249 
L 346.516881 195.82203 
L 347.158491 204.768 
L 355.499418 204.768 
L 356.141028 202.627977 
L 356.782637 186.842238 
L 357.424247 168.262534 
L 358.065857 173.991214 
L 358.707467 181.85888 
L 359.349077 178.181814 
L 359.990686 172.460903 
L 360.632296 188.25542 
L 361.273906 175.205637 
L 361.915516 193.641301 
L 362.557125 204.768 
L 370.898052 204.768 
L 371.539662 203.900068 
L 372.181272 196.736347 
L 372.822882 186.006466 
L 374.106101 156.091472 
L 374.747711 148.735233 
L 375.389321 152.689405 
L 376.030931 145.924863 
L 376.67254 150.964898 
L 377.95576 204.768 
L 386.296687 204.768 
L 386.938297 202.344972 
L 387.579907 196.11814 
L 388.221516 182.136632 
L 388.863126 164.425983 
L 389.504736 155.639679 
L 390.146346 154.144872 
L 390.787955 147.878154 
L 392.071175 155.871842 
L 392.712785 177.84044 
L 393.354395 204.768 
L 398.487273 204.768 
L 398.487273 204.768 
" clip-path="url(#p54df7cc767)" style="fill: none; stroke: #1f77b4; stroke-width: 1.5; stroke-linecap: square"/>
   </g>
   <g id="patch_8">
    <path d="M 57.6 207.792 
L 57.6 141.264 
" style="fill: none; stroke: #000000; stroke-width: 0.8; stroke-linejoin: miter; stroke-linecap: square"/>
   </g>
   <g id="patch_9">
    <path d="M 414.72 207.792 
L 414.72 141.264 
" style="fill: none; stroke: #000000; stroke-width: 0.8; stroke-linejoin: miter; stroke-linecap: square"/>
   </g>
   <g id="patch_10">
    <path d="M 57.6 207.792 
L 414.72 207.792 
" style="fill: none; stroke: #000000; stroke-width: 0.8; stroke-linejoin: miter; stroke-linecap: square"/>
   </g>
   <g id="patch_11">
    <path d="M 57.6 141.264 
L 414.72 141.264 
" style="fill: none; stroke: #000000; stroke-width: 0.8; stroke-linejoin: miter; stroke-linecap: square"/>
   </g>
   <g id="text_11">
    <!-- X_gen  -->
    <g transform="translate(215.839687 135.264)scale(0.12 -0.12)">
     <use xlink:href="#DejaVuSans-58"/>
     <use xlink:href="#DejaVuSans-5f" x="68.505859"/>
     <use xlink:href="#DejaVuSans-67" x="118.505859"/>
     <use xlink:href="#DejaVuSans-65" x="181.982422"/>
     <use xlink:href="#DejaVuSans-6e" x="243.505859"/>
     <use xlink:href="#DejaVuSans-20" x="306.884766"/>
    </g>
   </g>
  </g>
  <g id="axes_3">
   <g id="patch_12">
    <path d="M 57.6 307.584 
L 414.72 307.584 
L 414.72 241.056 
L 57.6 241.056 
z
" style="fill: #ffffff"/>
   </g>
   <g id="matplotlib.axis_5">
    <g id="xtick_13">
     <g id="line2d_20">
      <g>
       <use xlink:href="#md7f243851a" x="73.832727" y="307.584" style="stroke: #000000; stroke-width: 0.8"/>
      </g>
     </g>
     <g id="text_12">
      <!-- 0 -->
      <g transform="translate(70.651477 322.182437)scale(0.1 -0.1)">
       <use xlink:href="#DejaVuSans-30"/>
      </g>
     </g>
    </g>
    <g id="xtick_14">
     <g id="line2d_21">
      <g>
       <use xlink:href="#md7f243851a" x="137.993705" y="307.584" style="stroke: #000000; stroke-width: 0.8"/>
      </g>
     </g>
     <g id="text_13">
      <!-- 100 -->
      <g transform="translate(128.449955 322.182437)scale(0.1 -0.1)">
       <use xlink:href="#DejaVuSans-31"/>
       <use xlink:href="#DejaVuSans-30" x="63.623047"/>
       <use xlink:href="#DejaVuSans-30" x="127.246094"/>
      </g>
     </g>
    </g>
    <g id="xtick_15">
     <g id="line2d_22">
      <g>
       <use xlink:href="#md7f243851a" x="202.154682" y="307.584" style="stroke: #000000; stroke-width: 0.8"/>
      </g>
     </g>
     <g id="text_14">
      <!-- 200 -->
      <g transform="translate(192.610932 322.182437)scale(0.1 -0.1)">
       <use xlink:href="#DejaVuSans-32"/>
       <use xlink:href="#DejaVuSans-30" x="63.623047"/>
       <use xlink:href="#DejaVuSans-30" x="127.246094"/>
      </g>
     </g>
    </g>
    <g id="xtick_16">
     <g id="line2d_23">
      <g>
       <use xlink:href="#md7f243851a" x="266.315659" y="307.584" style="stroke: #000000; stroke-width: 0.8"/>
      </g>
     </g>
     <g id="text_15">
      <!-- 300 -->
      <g transform="translate(256.771909 322.182437)scale(0.1 -0.1)">
       <defs>
        <path id="DejaVuSans-33" d="M 2597 2516 
Q 3050 2419 3304 2112 
Q 3559 1806 3559 1356 
Q 3559 666 3084 287 
Q 2609 -91 1734 -91 
Q 1441 -91 1130 -33 
Q 819 25 488 141 
L 488 750 
Q 750 597 1062 519 
Q 1375 441 1716 441 
Q 2309 441 2620 675 
Q 2931 909 2931 1356 
Q 2931 1769 2642 2001 
Q 2353 2234 1838 2234 
L 1294 2234 
L 1294 2753 
L 1863 2753 
Q 2328 2753 2575 2939 
Q 2822 3125 2822 3475 
Q 2822 3834 2567 4026 
Q 2313 4219 1838 4219 
Q 1578 4219 1281 4162 
Q 984 4106 628 3988 
L 628 4550 
Q 988 4650 1302 4700 
Q 1616 4750 1894 4750 
Q 2613 4750 3031 4423 
Q 3450 4097 3450 3541 
Q 3450 3153 3228 2886 
Q 3006 2619 2597 2516 
z
" transform="scale(0.015625)"/>
       </defs>
       <use xlink:href="#DejaVuSans-33"/>
       <use xlink:href="#DejaVuSans-30" x="63.623047"/>
       <use xlink:href="#DejaVuSans-30" x="127.246094"/>
      </g>
     </g>
    </g>
    <g id="xtick_17">
     <g id="line2d_24">
      <g>
       <use xlink:href="#md7f243851a" x="330.476637" y="307.584" style="stroke: #000000; stroke-width: 0.8"/>
      </g>
     </g>
     <g id="text_16">
      <!-- 400 -->
      <g transform="translate(320.932887 322.182437)scale(0.1 -0.1)">
       <defs>
        <path id="DejaVuSans-34" d="M 2419 4116 
L 825 1625 
L 2419 1625 
L 2419 4116 
z
M 2253 4666 
L 3047 4666 
L 3047 1625 
L 3713 1625 
L 3713 1100 
L 3047 1100 
L 3047 0 
L 2419 0 
L 2419 1100 
L 313 1100 
L 313 1709 
L 2253 4666 
z
" transform="scale(0.015625)"/>
       </defs>
       <use xlink:href="#DejaVuSans-34"/>
       <use xlink:href="#DejaVuSans-30" x="63.623047"/>
       <use xlink:href="#DejaVuSans-30" x="127.246094"/>
      </g>
     </g>
    </g>
    <g id="xtick_18">
     <g id="line2d_25">
      <g>
       <use xlink:href="#md7f243851a" x="394.637614" y="307.584" style="stroke: #000000; stroke-width: 0.8"/>
      </g>
     </g>
     <g id="text_17">
      <!-- 500 -->
      <g transform="translate(385.093864 322.182437)scale(0.1 -0.1)">
       <use xlink:href="#DejaVuSans-35"/>
       <use xlink:href="#DejaVuSans-30" x="63.623047"/>
       <use xlink:href="#DejaVuSans-30" x="127.246094"/>
      </g>
     </g>
    </g>
    <g id="text_18">
     <!-- Time -->
     <g transform="translate(223.926406 335.860562)scale(0.1 -0.1)">
      <use xlink:href="#DejaVuSans-54"/>
      <use xlink:href="#DejaVuSans-69" x="57.958984"/>
      <use xlink:href="#DejaVuSans-6d" x="85.742188"/>
      <use xlink:href="#DejaVuSans-65" x="183.154297"/>
     </g>
    </g>
   </g>
   <g id="matplotlib.axis_6">
    <g id="ytick_6">
     <g id="line2d_26">
      <g>
       <use xlink:href="#m27a3558339" x="57.6" y="304.699425" style="stroke: #000000; stroke-width: 0.8"/>
      </g>
     </g>
     <g id="text_19">
      <!-- 0 -->
      <g transform="translate(44.2375 308.498643)scale(0.1 -0.1)">
       <use xlink:href="#DejaVuSans-30"/>
      </g>
     </g>
    </g>
    <g id="ytick_7">
     <g id="line2d_27">
      <g>
       <use xlink:href="#m27a3558339" x="57.6" y="274.389712" style="stroke: #000000; stroke-width: 0.8"/>
      </g>
     </g>
     <g id="text_20">
      <!-- 50 -->
      <g transform="translate(37.875 278.188931)scale(0.1 -0.1)">
       <use xlink:href="#DejaVuSans-35"/>
       <use xlink:href="#DejaVuSans-30" x="63.623047"/>
      </g>
     </g>
    </g>
    <g id="ytick_8">
     <g id="line2d_28">
      <g>
       <use xlink:href="#m27a3558339" x="57.6" y="244.08" style="stroke: #000000; stroke-width: 0.8"/>
      </g>
     </g>
     <g id="text_21">
      <!-- 100 -->
      <g transform="translate(31.5125 247.879219)scale(0.1 -0.1)">
       <use xlink:href="#DejaVuSans-31"/>
       <use xlink:href="#DejaVuSans-30" x="63.623047"/>
       <use xlink:href="#DejaVuSans-30" x="127.246094"/>
      </g>
     </g>
    </g>
    <g id="text_22">
     <!-- price  -->
     <g transform="translate(25.432812 288.353594)rotate(-90)scale(0.1 -0.1)">
      <defs>
       <path id="DejaVuSans-70" d="M 1159 525 
L 1159 -1331 
L 581 -1331 
L 581 3500 
L 1159 3500 
L 1159 2969 
Q 1341 3281 1617 3432 
Q 1894 3584 2278 3584 
Q 2916 3584 3314 3078 
Q 3713 2572 3713 1747 
Q 3713 922 3314 415 
Q 2916 -91 2278 -91 
Q 1894 -91 1617 61 
Q 1341 213 1159 525 
z
M 3116 1747 
Q 3116 2381 2855 2742 
Q 2594 3103 2138 3103 
Q 1681 3103 1420 2742 
Q 1159 2381 1159 1747 
Q 1159 1113 1420 752 
Q 1681 391 2138 391 
Q 2594 391 2855 752 
Q 3116 1113 3116 1747 
z
" transform="scale(0.015625)"/>
       <path id="DejaVuSans-72" d="M 2631 2963 
Q 2534 3019 2420 3045 
Q 2306 3072 2169 3072 
Q 1681 3072 1420 2755 
Q 1159 2438 1159 1844 
L 1159 0 
L 581 0 
L 581 3500 
L 1159 3500 
L 1159 2956 
Q 1341 3275 1631 3429 
Q 1922 3584 2338 3584 
Q 2397 3584 2469 3576 
Q 2541 3569 2628 3553 
L 2631 2963 
z
" transform="scale(0.015625)"/>
       <path id="DejaVuSans-63" d="M 3122 3366 
L 3122 2828 
Q 2878 2963 2633 3030 
Q 2388 3097 2138 3097 
Q 1578 3097 1268 2742 
Q 959 2388 959 1747 
Q 959 1106 1268 751 
Q 1578 397 2138 397 
Q 2388 397 2633 464 
Q 2878 531 3122 666 
L 3122 134 
Q 2881 22 2623 -34 
Q 2366 -91 2075 -91 
Q 1284 -91 818 406 
Q 353 903 353 1747 
Q 353 2603 823 3093 
Q 1294 3584 2113 3584 
Q 2378 3584 2631 3529 
Q 2884 3475 3122 3366 
z
" transform="scale(0.015625)"/>
      </defs>
      <use xlink:href="#DejaVuSans-70"/>
      <use xlink:href="#DejaVuSans-72" x="63.476562"/>
      <use xlink:href="#DejaVuSans-69" x="104.589844"/>
      <use xlink:href="#DejaVuSans-63" x="132.373047"/>
      <use xlink:href="#DejaVuSans-65" x="187.353516"/>
      <use xlink:href="#DejaVuSans-20" x="248.876953"/>
     </g>
    </g>
   </g>
   <g id="line2d_29">
    <path d="M 73.832727 285.998332 
L 74.474337 288.811073 
L 75.115947 287.441074 
L 75.757557 288.732268 
L 77.040776 289.617312 
L 77.682386 289.150542 
L 78.323996 282.973423 
L 78.965605 285.689173 
L 79.607215 266.200028 
L 80.248825 283.106786 
L 80.890435 280.294044 
L 81.532045 276.262853 
L 82.173654 281.063911 
L 82.815264 280.972982 
L 83.456874 278.608824 
L 84.098484 289.587002 
L 84.740093 283.803909 
L 85.381703 288.289746 
L 86.023313 285.14966 
L 86.664923 289.441515 
L 87.306533 282.797627 
L 87.948142 279.93639 
L 88.589752 278.905859 
L 89.231362 268.546 
L 89.872972 287.483508 
L 90.514581 283.961519 
L 91.156191 289.041427 
L 91.797801 283.797847 
L 92.439411 287.689614 
L 93.08102 285.489129 
L 93.72263 284.404041 
L 94.36424 289.787046 
L 95.00585 290.065896 
L 95.64746 286.756075 
L 96.289069 256.791893 
L 96.930679 281.609486 
L 97.572289 280.391035 
L 98.213899 266.145471 
L 98.855508 278.778559 
L 99.497118 288.79895 
L 100.780338 289.896161 
L 101.421948 288.053331 
L 102.063557 289.374834 
L 102.705167 289.332401 
L 103.346777 289.974966 
L 103.988387 285.040545 
L 104.629996 288.204879 
L 105.271606 290.229568 
L 106.554826 295.254918 
L 107.196436 296.158148 
L 107.838045 294.994255 
L 108.479655 295.309476 
L 109.121265 291.866292 
L 109.762875 292.230009 
L 110.404484 290.381117 
L 111.687704 284.707138 
L 112.329314 284.567714 
L 112.970923 285.525501 
L 113.612533 284.100944 
L 114.254143 285.816474 
L 114.895753 288.33218 
L 115.537363 288.950498 
L 116.178972 287.998773 
L 118.103802 287.174349 
L 118.745411 288.162446 
L 119.387021 287.980587 
L 120.028631 287.665366 
L 120.670241 288.289746 
L 121.311851 289.229347 
L 121.95346 285.737669 
L 122.59507 288.259437 
L 123.23668 288.253375 
L 123.87829 287.059172 
L 124.519899 288.877755 
L 125.161509 289.514259 
L 125.803119 288.592844 
L 126.444729 285.264837 
L 127.086338 281.136654 
L 127.727948 283.71298 
L 128.369558 285.501253 
L 129.011168 284.482847 
L 129.652778 287.901782 
L 130.294387 287.27134 
L 131.577607 289.302091 
L 132.219217 288.514038 
L 132.860826 288.477667 
L 133.502436 287.841163 
L 134.144046 287.544127 
L 134.785656 283.658422 
L 135.427266 289.132356 
L 136.068875 282.270238 
L 136.710485 288.902003 
L 137.352095 288.908065 
L 137.993705 288.79895 
L 138.635314 291.842045 
L 139.276924 291.29647 
L 139.918534 287.89572 
L 140.560144 279.372629 
L 141.201754 290.684214 
L 141.843363 285.767978 
L 142.484973 289.095985 
L 143.126583 285.270899 
L 143.768193 272.94697 
L 144.409802 272.049803 
L 145.051412 280.469841 
L 145.693022 285.955899 
L 146.334632 288.071516 
L 146.976241 286.8955 
L 147.617851 286.598464 
L 148.259461 284.949616 
L 148.901071 277.863205 
L 149.542681 285.604306 
L 150.18429 278.517895 
L 151.46751 282.676388 
L 152.10912 302.086727 
L 152.750729 298.625358 
L 153.392339 292.333062 
L 154.033949 289.744613 
L 154.675559 291.163107 
L 155.317169 289.653683 
L 155.958778 289.405144 
L 156.600388 286.762137 
L 157.241998 275.208075 
L 157.883608 289.629436 
L 158.525217 287.86541 
L 159.166827 280.597141 
L 159.808437 289.199038 
L 160.450047 293.745495 
L 161.091656 294.582043 
L 161.733266 294.497176 
L 163.016486 295.07306 
L 163.658096 294.715405 
L 164.299705 294.988193 
L 164.941315 294.60629 
L 165.582925 292.648283 
L 166.224535 292.466425 
L 166.866144 292.805894 
L 167.507754 292.502796 
L 168.149364 291.823859 
L 168.790974 292.163328 
L 169.432584 292.260319 
L 170.074193 292.011779 
L 170.715803 290.387179 
L 171.357413 292.430053 
L 171.999023 293.290849 
L 172.640632 293.127177 
L 173.282242 293.406026 
L 173.923852 294.400184 
L 174.565462 293.539389 
L 175.207072 289.526383 
L 175.848681 289.926471 
L 176.490291 290.750895 
L 177.131901 288.829259 
L 177.773511 289.42333 
L 178.41512 287.538066 
L 179.05673 286.404482 
L 179.69834 284.252493 
L 180.33995 283.779661 
L 181.623169 290.902444 
L 182.264779 292.084522 
L 182.906389 294.272884 
L 183.547999 295.679254 
L 184.189608 292.945318 
L 184.831218 292.878637 
L 185.472828 292.096646 
L 186.114438 291.73293 
L 186.756047 290.914568 
L 187.397657 288.98687 
L 188.680877 288.665587 
L 189.322487 287.750234 
L 189.964096 285.392138 
L 190.605706 271.255688 
L 191.247316 285.234527 
L 191.888926 291.229789 
L 192.530535 289.702179 
L 193.172145 284.610147 
L 193.813755 282.755193 
L 194.455365 281.37307 
L 195.096974 271.473918 
L 195.738584 270.697989 
L 196.380194 261.780872 
L 197.021804 275.741526 
L 197.663414 286.168067 
L 198.305023 288.235189 
L 198.946633 286.477226 
L 199.588243 287.974525 
L 200.229853 287.628995 
L 200.871462 284.028201 
L 201.513072 279.487806 
L 202.154682 284.282802 
L 202.796292 286.768199 
L 203.437902 279.900018 
L 204.079511 282.815812 
L 205.362731 277.608604 
L 206.004341 278.475462 
L 206.64595 282.833998 
L 207.28756 282.288423 
L 207.92917 279.051346 
L 208.57078 280.318292 
L 209.21239 272.037679 
L 209.853999 284.137316 
L 210.495609 283.628113 
L 211.137219 279.845461 
L 211.778829 276.881171 
L 212.420438 274.47458 
L 213.062048 244.08 
L 213.703658 280.760814 
L 214.345268 281.112407 
L 214.986877 282.694574 
L 215.628487 283.397759 
L 216.270097 283.579617 
L 216.911707 273.510731 
L 217.553317 275.959755 
L 218.194926 275.905198 
L 218.836536 277.638914 
L 219.478146 277.554046 
L 220.119756 281.797406 
L 220.761365 278.717939 
L 221.402975 244.08 
L 222.044585 280.803247 
L 222.686195 280.403159 
L 223.327805 282.21568 
L 223.969414 282.306609 
L 224.611024 283.573555 
L 225.252634 283.112848 
L 225.894244 276.475021 
L 226.535853 244.08 
L 227.177463 292.411867 
L 227.819073 266.64255 
L 228.460683 265.787816 
L 229.102292 286.586341 
L 229.743902 288.344304 
L 230.385512 287.610809 
L 231.027122 284.234307 
L 231.668732 283.906962 
L 232.310341 283.373511 
L 232.951951 284.100944 
L 233.593561 278.542143 
L 234.235171 257.09499 
L 234.87678 280.130372 
L 236.16 250.990614 
L 236.80161 244.08 
L 237.44322 259.525829 
L 238.084829 249.826721 
L 238.726439 283.615989 
L 239.368049 281.306389 
L 240.009659 282.136875 
L 240.651268 286.18019 
L 241.292878 267.897372 
L 241.934488 281.37307 
L 242.576098 270.152415 
L 243.217708 275.232322 
L 244.500927 288.962622 
L 245.142537 290.926691 
L 245.784147 298.861774 
L 246.425756 295.782307 
L 247.067366 300.383322 
L 247.708976 296.624917 
L 248.350586 288.071516 
L 248.992195 288.11395 
L 249.633805 289.532445 
L 250.275415 287.938154 
L 250.917025 287.974525 
L 251.558635 286.525721 
L 252.200244 263.423658 
L 252.841854 282.718821 
L 253.483464 286.737889 
L 254.125074 286.125633 
L 254.766683 284.973864 
L 255.408293 285.974084 
L 256.049903 284.404041 
L 256.691513 283.221963 
L 257.333123 285.107227 
L 257.974732 284.913244 
L 258.616342 287.325898 
L 259.257952 283.0886 
L 259.899562 290.744833 
L 260.541171 291.70262 
L 261.182781 298.801155 
L 261.824391 304.56 
L 262.466001 290.193196 
L 263.10761 290.284125 
L 263.74922 289.271781 
L 264.39083 288.592844 
L 265.03244 288.217003 
L 265.67405 287.562313 
L 266.315659 286.010456 
L 266.957269 283.809971 
L 267.598879 282.530901 
L 268.240489 285.610368 
L 268.882098 286.701517 
L 269.523708 286.604526 
L 270.165318 285.404262 
L 270.806928 287.647181 
L 271.448538 288.374614 
L 272.090147 288.326118 
L 272.731757 288.786826 
L 273.373367 285.604306 
L 274.014977 286.925809 
L 274.656586 287.0228 
L 275.298196 288.204879 
L 275.939806 287.671428 
L 276.581416 285.543686 
L 277.223026 285.355766 
L 277.864635 287.568375 
L 278.506245 285.83466 
L 279.147855 281.045725 
L 279.789465 278.511833 
L 280.431074 284.08882 
L 281.072684 287.016738 
L 281.714294 287.192535 
L 282.355904 284.719262 
L 283.639123 261.36866 
L 284.280733 285.519439 
L 284.922343 286.113509 
L 285.563953 286.937933 
L 286.205562 285.689173 
L 286.847172 288.08364 
L 288.130392 284.446475 
L 288.772001 276.602321 
L 289.413611 276.184047 
L 290.055221 283.476564 
L 290.696831 271.122325 
L 291.338441 279.93639 
L 291.98005 281.870149 
L 292.62166 283.282582 
L 293.26327 281.827716 
L 293.90488 282.846122 
L 294.546489 285.252713 
L 295.188099 283.215901 
L 295.829709 282.80975 
L 296.471319 280.506212 
L 297.112928 280.651699 
L 297.754538 277.723781 
L 298.396148 273.9775 
L 299.037758 276.850861 
L 299.679368 280.56077 
L 300.320977 280.71838 
L 300.962587 283.215901 
L 301.604197 284.107006 
L 302.245807 280.100062 
L 302.887416 280.300106 
L 303.529026 284.579838 
L 304.170636 283.840281 
L 304.812246 283.74329 
L 305.453856 279.390815 
L 306.095465 284.822315 
L 306.737075 287.071296 
L 307.378685 288.217003 
L 308.020295 288.08364 
L 308.661904 286.574217 
L 309.303514 286.549969 
L 309.945124 287.574437 
L 310.586734 286.204438 
L 311.228344 278.717939 
L 311.869953 281.197274 
L 312.511563 285.598244 
L 313.153173 281.336698 
L 313.794783 280.724442 
L 314.436392 264.284454 
L 315.078002 286.155943 
L 315.719612 283.646298 
L 316.361222 286.42873 
L 317.002831 284.74351 
L 317.644441 285.913465 
L 318.286051 286.119571 
L 318.927661 285.822536 
L 319.569271 286.465102 
L 320.21088 284.646519 
L 320.85249 288.077578 
L 321.4941 287.313774 
L 322.13571 287.586561 
L 322.777319 287.701738 
L 324.060539 287.465322 
L 324.702149 287.150101 
L 325.343759 287.27134 
L 326.626978 284.591962 
L 327.268588 282.397538 
L 327.910198 279.524178 
L 328.551807 274.729181 
L 329.193417 273.504669 
L 329.835027 268.830911 
L 330.476637 279.348381 
L 331.118246 276.94179 
L 331.759856 278.039002 
L 332.401466 278.911921 
L 333.043076 275.292942 
L 333.684686 277.675285 
L 334.326295 276.250729 
L 334.967905 277.438869 
L 335.609515 274.704933 
L 336.251125 278.705815 
L 336.892734 280.663823 
L 337.534344 274.85042 
L 338.175954 281.094221 
L 338.817564 282.80975 
L 339.459174 281.62161 
L 340.100783 278.148117 
L 340.742393 280.433469 
L 341.384003 273.450111 
L 342.025613 274.747367 
L 342.667222 263.569145 
L 343.308832 261.295917 
L 343.950442 245.959202 
L 344.592052 246.365352 
L 345.233662 265.418037 
L 345.875271 274.353341 
L 346.516881 276.75387 
L 347.800101 267.636708 
L 348.44171 264.842153 
L 349.08332 263.27211 
L 349.72493 265.902993 
L 350.36654 274.959535 
L 351.008149 266.957771 
L 351.649759 273.528917 
L 352.291369 278.566391 
L 352.932979 282.24599 
L 353.574589 278.942231 
L 354.857808 269.194628 
L 355.499418 274.456394 
L 356.141028 278.281479 
L 358.065857 261.671757 
L 358.707467 244.08 
L 359.349077 244.637699 
L 359.990686 244.08 
L 360.632296 245.043849 
L 361.273906 264.33295 
L 361.915516 265.187684 
L 362.557125 265.848435 
L 363.198735 251.833224 
L 363.840345 270.564627 
L 364.481955 270.116043 
L 365.123564 269.461353 
L 365.765174 266.648612 
L 367.048394 257.452645 
L 367.690004 280.597141 
L 368.331613 274.868606 
L 368.973223 281.367008 
L 369.614833 281.063911 
L 370.256443 278.584577 
L 370.898052 279.105904 
L 372.181272 273.795642 
L 372.822882 264.605737 
L 373.464492 267.491222 
L 374.106101 264.636047 
L 374.747711 267.709452 
L 375.389321 244.08 
L 376.030931 268.891531 
L 376.67254 283.797847 
L 377.31415 285.743731 
L 377.95576 286.507535 
L 378.59737 279.136213 
L 379.23898 281.421566 
L 380.522199 279.111966 
L 381.163809 280.50015 
L 381.805419 276.093118 
L 382.447028 279.845461 
L 383.088638 280.9063 
L 383.730248 280.754752 
L 384.371858 279.851523 
L 385.013467 281.063911 
L 386.296687 280.015195 
L 386.938297 281.56099 
L 387.579907 281.651919 
L 388.221516 274.892854 
L 388.863126 274.044182 
L 389.504736 273.007589 
L 390.146346 271.686086 
L 390.787955 251.002738 
L 391.429565 261.247421 
L 392.071175 278.390594 
L 392.712785 280.645637 
L 393.354395 280.809309 
L 393.996004 281.851964 
L 394.637614 280.827495 
L 395.279224 280.918424 
L 395.920834 276.226481 
L 396.562443 276.2871 
L 397.204053 272.255909 
L 397.845663 281.694353 
L 398.487273 281.609486 
L 398.487273 281.609486 
" clip-path="url(#p3ee9f01d1e)" style="fill: none; stroke: #1f77b4; stroke-width: 1.5; stroke-linecap: square"/>
   </g>
   <g id="patch_13">
    <path d="M 57.6 307.584 
L 57.6 241.056 
" style="fill: none; stroke: #000000; stroke-width: 0.8; stroke-linejoin: miter; stroke-linecap: square"/>
   </g>
   <g id="patch_14">
    <path d="M 414.72 307.584 
L 414.72 241.056 
" style="fill: none; stroke: #000000; stroke-width: 0.8; stroke-linejoin: miter; stroke-linecap: square"/>
   </g>
   <g id="patch_15">
    <path d="M 57.6 307.584 
L 414.72 307.584 
" style="fill: none; stroke: #000000; stroke-width: 0.8; stroke-linejoin: miter; stroke-linecap: square"/>
   </g>
   <g id="patch_16">
    <path d="M 57.6 241.056 
L 414.72 241.056 
" style="fill: none; stroke: #000000; stroke-width: 0.8; stroke-linejoin: miter; stroke-linecap: square"/>
   </g>
   <g id="text_23">
    <!-- price -->
    <g transform="translate(221.226562 235.056)scale(0.12 -0.12)">
     <use xlink:href="#DejaVuSans-70"/>
     <use xlink:href="#DejaVuSans-72" x="63.476562"/>
     <use xlink:href="#DejaVuSans-69" x="104.589844"/>
     <use xlink:href="#DejaVuSans-63" x="132.373047"/>
     <use xlink:href="#DejaVuSans-65" x="187.353516"/>
    </g>
   </g>
  </g>
 </g>
 <defs>
  <clipPath id="p1bab6ad3e3">
   <rect x="57.6" y="41.472" width="357.12" height="66.528"/>
  </clipPath>
  <clipPath id="p54df7cc767">
   <rect x="57.6" y="141.264" width="357.12" height="66.528"/>
  </clipPath>
  <clipPath id="p3ee9f01d1e">
   <rect x="57.6" y="241.056" width="357.12" height="66.528"/>
  </clipPath>
 </defs>
</svg>
