<?xml version="1.0" encoding="utf-8" standalone="no"?>
<!DOCTYPE svg PUBLIC "-//W3C//DTD SVG 1.1//EN"
  "http://www.w3.org/Graphics/SVG/1.1/DTD/svg11.dtd">
<svg xmlns:xlink="http://www.w3.org/1999/xlink" width="460.8pt" height="345.6pt" viewBox="0 0 460.8 345.6" xmlns="http://www.w3.org/2000/svg" version="1.1">
 <metadata>
  <rdf:RDF xmlns:dc="http://purl.org/dc/elements/1.1/" xmlns:cc="http://creativecommons.org/ns#" xmlns:rdf="http://www.w3.org/1999/02/22-rdf-syntax-ns#">
   <cc:Work>
    <dc:type rdf:resource="http://purl.org/dc/dcmitype/StillImage"/>
    <dc:date>2023-02-20T20:12:07.430711</dc:date>
    <dc:format>image/svg+xml</dc:format>
    <dc:creator>
     <cc:Agent>
      <dc:title>Matplotlib v3.5.3, https://matplotlib.org/</dc:title>
     </cc:Agent>
    </dc:creator>
   </cc:Work>
  </rdf:RDF>
 </metadata>
 <defs>
  <style type="text/css">*{stroke-linejoin: round; stroke-linecap: butt}</style>
 </defs>
 <g id="figure_1">
  <g id="patch_1">
   <path d="M 0 345.6 
L 460.8 345.6 
L 460.8 0 
L 0 0 
z
" style="fill: #ffffff"/>
  </g>
  <g id="axes_1">
   <g id="patch_2">
    <path d="M 57.6 108 
L 414.72 108 
L 414.72 41.472 
L 57.6 41.472 
z
" style="fill: #ffffff"/>
   </g>
   <g id="matplotlib.axis_1">
    <g id="xtick_1">
     <g id="line2d_1">
      <defs>
       <path id="mec777f0f20" d="M 0 0 
L 0 3.5 
" style="stroke: #000000; stroke-width: 0.8"/>
      </defs>
      <g>
       <use xlink:href="#mec777f0f20" x="73.832727" y="108" style="stroke: #000000; stroke-width: 0.8"/>
      </g>
     </g>
    </g>
    <g id="xtick_2">
     <g id="line2d_2">
      <g>
       <use xlink:href="#mec777f0f20" x="140.22425" y="108" style="stroke: #000000; stroke-width: 0.8"/>
      </g>
     </g>
    </g>
    <g id="xtick_3">
     <g id="line2d_3">
      <g>
       <use xlink:href="#mec777f0f20" x="206.615772" y="108" style="stroke: #000000; stroke-width: 0.8"/>
      </g>
     </g>
    </g>
    <g id="xtick_4">
     <g id="line2d_4">
      <g>
       <use xlink:href="#mec777f0f20" x="273.007295" y="108" style="stroke: #000000; stroke-width: 0.8"/>
      </g>
     </g>
    </g>
    <g id="xtick_5">
     <g id="line2d_5">
      <g>
       <use xlink:href="#mec777f0f20" x="339.398818" y="108" style="stroke: #000000; stroke-width: 0.8"/>
      </g>
     </g>
    </g>
    <g id="xtick_6">
     <g id="line2d_6">
      <g>
       <use xlink:href="#mec777f0f20" x="405.79034" y="108" style="stroke: #000000; stroke-width: 0.8"/>
      </g>
     </g>
    </g>
    <g id="text_1">
     <!-- Time -->
     <g transform="translate(223.926406 123.098437)scale(0.1 -0.1)">
      <defs>
       <path id="DejaVuSans-54" d="M -19 4666 
L 3928 4666 
L 3928 4134 
L 2272 4134 
L 2272 0 
L 1638 0 
L 1638 4134 
L -19 4134 
L -19 4666 
z
" transform="scale(0.015625)"/>
       <path id="DejaVuSans-69" d="M 603 3500 
L 1178 3500 
L 1178 0 
L 603 0 
L 603 3500 
z
M 603 4863 
L 1178 4863 
L 1178 4134 
L 603 4134 
L 603 4863 
z
" transform="scale(0.015625)"/>
       <path id="DejaVuSans-6d" d="M 3328 2828 
Q 3544 3216 3844 3400 
Q 4144 3584 4550 3584 
Q 5097 3584 5394 3201 
Q 5691 2819 5691 2113 
L 5691 0 
L 5113 0 
L 5113 2094 
Q 5113 2597 4934 2840 
Q 4756 3084 4391 3084 
Q 3944 3084 3684 2787 
Q 3425 2491 3425 1978 
L 3425 0 
L 2847 0 
L 2847 2094 
Q 2847 2600 2669 2842 
Q 2491 3084 2119 3084 
Q 1678 3084 1418 2786 
Q 1159 2488 1159 1978 
L 1159 0 
L 581 0 
L 581 3500 
L 1159 3500 
L 1159 2956 
Q 1356 3278 1631 3431 
Q 1906 3584 2284 3584 
Q 2666 3584 2933 3390 
Q 3200 3197 3328 2828 
z
" transform="scale(0.015625)"/>
       <path id="DejaVuSans-65" d="M 3597 1894 
L 3597 1613 
L 953 1613 
Q 991 1019 1311 708 
Q 1631 397 2203 397 
Q 2534 397 2845 478 
Q 3156 559 3463 722 
L 3463 178 
Q 3153 47 2828 -22 
Q 2503 -91 2169 -91 
Q 1331 -91 842 396 
Q 353 884 353 1716 
Q 353 2575 817 3079 
Q 1281 3584 2069 3584 
Q 2775 3584 3186 3129 
Q 3597 2675 3597 1894 
z
M 3022 2063 
Q 3016 2534 2758 2815 
Q 2500 3097 2075 3097 
Q 1594 3097 1305 2825 
Q 1016 2553 972 2059 
L 3022 2063 
z
" transform="scale(0.015625)"/>
      </defs>
      <use xlink:href="#DejaVuSans-54"/>
      <use xlink:href="#DejaVuSans-69" x="57.958984"/>
      <use xlink:href="#DejaVuSans-6d" x="85.742188"/>
      <use xlink:href="#DejaVuSans-65" x="183.154297"/>
     </g>
    </g>
   </g>
   <g id="matplotlib.axis_2">
    <g id="ytick_1">
     <g id="line2d_7">
      <defs>
       <path id="me831f080f3" d="M 0 0 
L -3.5 0 
" style="stroke: #000000; stroke-width: 0.8"/>
      </defs>
      <g>
       <use xlink:href="#me831f080f3" x="57.6" y="104.976" style="stroke: #000000; stroke-width: 0.8"/>
      </g>
     </g>
     <g id="text_2">
      <!-- 0 -->
      <g transform="translate(44.2375 108.775219)scale(0.1 -0.1)">
       <defs>
        <path id="DejaVuSans-30" d="M 2034 4250 
Q 1547 4250 1301 3770 
Q 1056 3291 1056 2328 
Q 1056 1369 1301 889 
Q 1547 409 2034 409 
Q 2525 409 2770 889 
Q 3016 1369 3016 2328 
Q 3016 3291 2770 3770 
Q 2525 4250 2034 4250 
z
M 2034 4750 
Q 2819 4750 3233 4129 
Q 3647 3509 3647 2328 
Q 3647 1150 3233 529 
Q 2819 -91 2034 -91 
Q 1250 -91 836 529 
Q 422 1150 422 2328 
Q 422 3509 836 4129 
Q 1250 4750 2034 4750 
z
" transform="scale(0.015625)"/>
       </defs>
       <use xlink:href="#DejaVuSans-30"/>
      </g>
     </g>
    </g>
    <g id="ytick_2">
     <g id="line2d_8">
      <g>
       <use xlink:href="#me831f080f3" x="57.6" y="66.945406" style="stroke: #000000; stroke-width: 0.8"/>
      </g>
     </g>
     <g id="text_3">
      <!-- 1 -->
      <g transform="translate(44.2375 70.744625)scale(0.1 -0.1)">
       <defs>
        <path id="DejaVuSans-31" d="M 794 531 
L 1825 531 
L 1825 4091 
L 703 3866 
L 703 4441 
L 1819 4666 
L 2450 4666 
L 2450 531 
L 3481 531 
L 3481 0 
L 794 0 
L 794 531 
z
" transform="scale(0.015625)"/>
       </defs>
       <use xlink:href="#DejaVuSans-31"/>
      </g>
     </g>
    </g>
    <g id="text_4">
     <!-- X_gen_new  -->
     <g transform="translate(37.879687 104.503969)rotate(-90)scale(0.1 -0.1)">
      <defs>
       <path id="DejaVuSans-58" d="M 403 4666 
L 1081 4666 
L 2241 2931 
L 3406 4666 
L 4084 4666 
L 2584 2425 
L 4184 0 
L 3506 0 
L 2194 1984 
L 872 0 
L 191 0 
L 1856 2491 
L 403 4666 
z
" transform="scale(0.015625)"/>
       <path id="DejaVuSans-5f" d="M 3263 -1063 
L 3263 -1509 
L -63 -1509 
L -63 -1063 
L 3263 -1063 
z
" transform="scale(0.015625)"/>
       <path id="DejaVuSans-67" d="M 2906 1791 
Q 2906 2416 2648 2759 
Q 2391 3103 1925 3103 
Q 1463 3103 1205 2759 
Q 947 2416 947 1791 
Q 947 1169 1205 825 
Q 1463 481 1925 481 
Q 2391 481 2648 825 
Q 2906 1169 2906 1791 
z
M 3481 434 
Q 3481 -459 3084 -895 
Q 2688 -1331 1869 -1331 
Q 1566 -1331 1297 -1286 
Q 1028 -1241 775 -1147 
L 775 -588 
Q 1028 -725 1275 -790 
Q 1522 -856 1778 -856 
Q 2344 -856 2625 -561 
Q 2906 -266 2906 331 
L 2906 616 
Q 2728 306 2450 153 
Q 2172 0 1784 0 
Q 1141 0 747 490 
Q 353 981 353 1791 
Q 353 2603 747 3093 
Q 1141 3584 1784 3584 
Q 2172 3584 2450 3431 
Q 2728 3278 2906 2969 
L 2906 3500 
L 3481 3500 
L 3481 434 
z
" transform="scale(0.015625)"/>
       <path id="DejaVuSans-6e" d="M 3513 2113 
L 3513 0 
L 2938 0 
L 2938 2094 
Q 2938 2591 2744 2837 
Q 2550 3084 2163 3084 
Q 1697 3084 1428 2787 
Q 1159 2491 1159 1978 
L 1159 0 
L 581 0 
L 581 3500 
L 1159 3500 
L 1159 2956 
Q 1366 3272 1645 3428 
Q 1925 3584 2291 3584 
Q 2894 3584 3203 3211 
Q 3513 2838 3513 2113 
z
" transform="scale(0.015625)"/>
       <path id="DejaVuSans-77" d="M 269 3500 
L 844 3500 
L 1563 769 
L 2278 3500 
L 2956 3500 
L 3675 769 
L 4391 3500 
L 4966 3500 
L 4050 0 
L 3372 0 
L 2619 2869 
L 1863 0 
L 1184 0 
L 269 3500 
z
" transform="scale(0.015625)"/>
       <path id="DejaVuSans-20" transform="scale(0.015625)"/>
      </defs>
      <use xlink:href="#DejaVuSans-58"/>
      <use xlink:href="#DejaVuSans-5f" x="68.505859"/>
      <use xlink:href="#DejaVuSans-67" x="118.505859"/>
      <use xlink:href="#DejaVuSans-65" x="181.982422"/>
      <use xlink:href="#DejaVuSans-6e" x="243.505859"/>
      <use xlink:href="#DejaVuSans-5f" x="306.884766"/>
      <use xlink:href="#DejaVuSans-6e" x="356.884766"/>
      <use xlink:href="#DejaVuSans-65" x="420.263672"/>
      <use xlink:href="#DejaVuSans-77" x="481.787109"/>
      <use xlink:href="#DejaVuSans-20" x="563.574219"/>
     </g>
    </g>
   </g>
   <g id="line2d_9">
    <path d="M 73.832727 104.976 
L 79.144049 104.919879 
L 79.807964 99.493903 
L 80.47188 103.87755 
L 81.135795 103.667642 
L 81.79971 103.598619 
L 82.463625 103.643979 
L 83.12754 104.573661 
L 85.119286 104.968616 
L 95.078015 104.968306 
L 96.405845 104.515488 
L 97.06976 60.924499 
L 97.733675 104.483237 
L 98.397591 104.493816 
L 99.061506 99.176985 
L 99.725421 104.097749 
L 100.389336 104.023697 
L 101.053252 104.890249 
L 102.381082 104.976 
L 111.01198 104.960202 
L 113.667641 104.549236 
L 114.331556 104.768723 
L 115.659387 104.869561 
L 126.945945 104.956394 
L 128.273776 104.773541 
L 128.937691 104.35281 
L 129.601606 103.078643 
L 130.265521 103.257657 
L 130.929437 103.654719 
L 131.593352 104.493267 
L 132.921182 104.949442 
L 136.240759 104.976 
L 142.879911 104.956848 
L 145.535572 104.17413 
L 146.199487 104.214759 
L 148.855148 104.950542 
L 152.174724 104.976 
L 158.813876 104.928059 
L 159.477791 104.434311 
L 160.141707 103.493914 
L 160.805622 102.992494 
L 161.469537 102.806282 
L 162.797368 102.793956 
L 163.461283 103.065111 
L 164.125198 103.527322 
L 164.789113 104.870682 
L 166.116944 104.976 
L 174.747842 104.919301 
L 175.411757 104.050023 
L 176.739587 102.963953 
L 177.403503 102.756474 
L 178.731333 102.806679 
L 180.059163 103.479223 
L 180.723079 104.850112 
L 181.386994 104.976 
L 190.681807 104.924055 
L 192.673553 103.257123 
L 193.337468 102.920424 
L 194.001383 102.789402 
L 195.329214 103.316746 
L 195.993129 104.294758 
L 196.657044 104.897494 
L 197.984875 104.976 
L 199.97662 104.976 
L 200.640535 66.945406 
L 201.304451 104.976 
L 206.615772 104.912151 
L 207.279688 104.05179 
L 207.943603 103.394756 
L 208.607518 103.061952 
L 209.271433 102.909815 
L 209.935349 103.133914 
L 211.263179 103.972636 
L 212.591009 104.905134 
L 213.91884 104.976 
L 217.238416 104.976 
L 217.902331 66.945406 
L 218.566247 104.976 
L 222.549738 104.910996 
L 223.877568 103.563081 
L 224.541484 103.170393 
L 225.205399 103.004673 
L 225.869314 103.243003 
L 226.533229 44.496 
L 227.197144 102.869848 
L 227.86106 103.230972 
L 228.524975 104.806031 
L 229.18889 104.976 
L 231.180636 104.976 
L 231.844551 66.945406 
L 232.508466 104.976 
L 233.172381 104.976 
L 233.836297 102.432467 
L 234.500212 104.976 
L 238.483703 104.940936 
L 239.147619 104.695418 
L 239.811534 61.923525 
L 240.475449 104.331391 
L 241.139364 98.113653 
L 241.803279 58.797031 
L 242.467195 60.660085 
L 243.13111 60.013696 
L 243.795025 58.957824 
L 244.45894 104.85307 
L 245.122856 104.976 
L 254.417669 104.90928 
L 255.745499 103.355102 
L 256.409414 102.917089 
L 257.07333 102.747531 
L 257.737245 102.699965 
L 258.40116 44.969121 
L 259.065075 102.919997 
L 259.728991 103.34917 
L 260.392906 104.760852 
L 261.056821 104.976 
L 270.351634 104.924244 
L 271.015549 104.502761 
L 271.679465 104.29644 
L 272.34338 103.822714 
L 273.007295 103.759771 
L 273.67121 103.500412 
L 274.999041 103.878509 
L 276.326871 104.863268 
L 276.990786 104.976 
L 286.2856 104.937693 
L 287.61343 104.4897 
L 288.277345 103.924875 
L 288.94126 103.544149 
L 289.605176 103.419752 
L 290.269091 103.555379 
L 290.933006 54.013516 
L 291.596921 103.788326 
L 292.260837 104.723038 
L 292.924752 104.976 
L 302.219565 104.923034 
L 302.88348 104.48702 
L 303.547395 104.252595 
L 304.211311 104.265826 
L 304.875226 104.126828 
L 305.539141 104.394979 
L 306.203056 104.469192 
L 307.530887 104.829757 
L 308.858717 104.976 
L 318.817446 104.869447 
L 320.145276 104.453496 
L 320.809191 104.016674 
L 322.137022 104.416162 
L 322.800937 58.277509 
L 323.464852 104.44475 
L 324.128767 104.84216 
L 324.792683 104.976 
L 334.087496 104.904577 
L 334.751411 104.081493 
L 335.415326 103.656877 
L 336.079241 103.635253 
L 338.070987 103.961073 
L 338.734902 95.249021 
L 339.398818 104.468022 
L 340.062733 104.83199 
L 340.726648 104.976 
L 350.021461 104.891665 
L 351.349292 103.484462 
L 352.013207 52.799942 
L 352.677122 51.824634 
L 353.341037 51.419668 
L 354.004953 48.977141 
L 354.668868 52.632294 
L 355.332783 104.000453 
L 355.996698 104.639338 
L 356.660613 104.976 
L 357.324529 104.976 
L 357.988444 66.945406 
L 358.652359 66.945406 
L 359.316274 104.976 
L 365.955427 104.895465 
L 366.619342 104.301403 
L 367.283257 91.237954 
L 367.947172 55.363226 
L 368.611088 58.324052 
L 369.275003 56.940268 
L 369.938918 54.787326 
L 370.602833 60.731252 
L 371.266748 55.820247 
L 371.930664 62.758113 
L 372.594579 104.976 
L 373.258494 66.945406 
L 373.922409 104.976 
L 375.914155 104.976 
L 376.57807 66.945406 
L 377.241985 66.945406 
L 377.905901 104.976 
L 381.889392 104.943337 
L 382.553307 104.673746 
L 383.217223 59.884907 
L 383.881138 91.819198 
L 384.545053 48.627043 
L 385.208968 83.889275 
L 385.872883 47.346749 
L 386.536799 82.831653 
L 387.200714 102.951236 
L 388.528544 104.976 
L 397.823358 104.884815 
L 398.487273 104.650481 
L 398.487273 104.650481 
" clip-path="url(#p9d8f374caa)" style="fill: none; stroke: #1f77b4; stroke-width: 1.5; stroke-linecap: square"/>
   </g>
   <g id="patch_3">
    <path d="M 57.6 108 
L 57.6 41.472 
" style="fill: none; stroke: #000000; stroke-width: 0.8; stroke-linejoin: miter; stroke-linecap: square"/>
   </g>
   <g id="patch_4">
    <path d="M 414.72 108 
L 414.72 41.472 
" style="fill: none; stroke: #000000; stroke-width: 0.8; stroke-linejoin: miter; stroke-linecap: square"/>
   </g>
   <g id="patch_5">
    <path d="M 57.6 108 
L 414.72 108 
" style="fill: none; stroke: #000000; stroke-width: 0.8; stroke-linejoin: miter; stroke-linecap: square"/>
   </g>
   <g id="patch_6">
    <path d="M 57.6 41.472 
L 414.72 41.472 
" style="fill: none; stroke: #000000; stroke-width: 0.8; stroke-linejoin: miter; stroke-linecap: square"/>
   </g>
   <g id="text_5">
    <!-- X_gen_new  -->
    <g transform="translate(200.438437 35.472)scale(0.12 -0.12)">
     <use xlink:href="#DejaVuSans-58"/>
     <use xlink:href="#DejaVuSans-5f" x="68.505859"/>
     <use xlink:href="#DejaVuSans-67" x="118.505859"/>
     <use xlink:href="#DejaVuSans-65" x="181.982422"/>
     <use xlink:href="#DejaVuSans-6e" x="243.505859"/>
     <use xlink:href="#DejaVuSans-5f" x="306.884766"/>
     <use xlink:href="#DejaVuSans-6e" x="356.884766"/>
     <use xlink:href="#DejaVuSans-65" x="420.263672"/>
     <use xlink:href="#DejaVuSans-77" x="481.787109"/>
     <use xlink:href="#DejaVuSans-20" x="563.574219"/>
    </g>
   </g>
  </g>
  <g id="axes_2">
   <g id="patch_7">
    <path d="M 57.6 207.792 
L 414.72 207.792 
L 414.72 141.264 
L 57.6 141.264 
z
" style="fill: #ffffff"/>
   </g>
   <g id="matplotlib.axis_3">
    <g id="xtick_7">
     <g id="line2d_10">
      <g>
       <use xlink:href="#mec777f0f20" x="73.832727" y="207.792" style="stroke: #000000; stroke-width: 0.8"/>
      </g>
     </g>
    </g>
    <g id="xtick_8">
     <g id="line2d_11">
      <g>
       <use xlink:href="#mec777f0f20" x="140.22425" y="207.792" style="stroke: #000000; stroke-width: 0.8"/>
      </g>
     </g>
    </g>
    <g id="xtick_9">
     <g id="line2d_12">
      <g>
       <use xlink:href="#mec777f0f20" x="206.615772" y="207.792" style="stroke: #000000; stroke-width: 0.8"/>
      </g>
     </g>
    </g>
    <g id="xtick_10">
     <g id="line2d_13">
      <g>
       <use xlink:href="#mec777f0f20" x="273.007295" y="207.792" style="stroke: #000000; stroke-width: 0.8"/>
      </g>
     </g>
    </g>
    <g id="xtick_11">
     <g id="line2d_14">
      <g>
       <use xlink:href="#mec777f0f20" x="339.398818" y="207.792" style="stroke: #000000; stroke-width: 0.8"/>
      </g>
     </g>
    </g>
    <g id="xtick_12">
     <g id="line2d_15">
      <g>
       <use xlink:href="#mec777f0f20" x="405.79034" y="207.792" style="stroke: #000000; stroke-width: 0.8"/>
      </g>
     </g>
    </g>
    <g id="text_6">
     <!-- Time -->
     <g transform="translate(223.926406 222.890437)scale(0.1 -0.1)">
      <use xlink:href="#DejaVuSans-54"/>
      <use xlink:href="#DejaVuSans-69" x="57.958984"/>
      <use xlink:href="#DejaVuSans-6d" x="85.742188"/>
      <use xlink:href="#DejaVuSans-65" x="183.154297"/>
     </g>
    </g>
   </g>
   <g id="matplotlib.axis_4">
    <g id="ytick_3">
     <g id="line2d_16">
      <g>
       <use xlink:href="#me831f080f3" x="57.6" y="204.768" style="stroke: #000000; stroke-width: 0.8"/>
      </g>
     </g>
     <g id="text_7">
      <!-- 0.00 -->
      <g transform="translate(28.334375 208.567219)scale(0.1 -0.1)">
       <defs>
        <path id="DejaVuSans-2e" d="M 684 794 
L 1344 794 
L 1344 0 
L 684 0 
L 684 794 
z
" transform="scale(0.015625)"/>
       </defs>
       <use xlink:href="#DejaVuSans-30"/>
       <use xlink:href="#DejaVuSans-2e" x="63.623047"/>
       <use xlink:href="#DejaVuSans-30" x="95.410156"/>
       <use xlink:href="#DejaVuSans-30" x="159.033203"/>
      </g>
     </g>
    </g>
    <g id="ytick_4">
     <g id="line2d_17">
      <g>
       <use xlink:href="#me831f080f3" x="57.6" y="179.503771" style="stroke: #000000; stroke-width: 0.8"/>
      </g>
     </g>
     <g id="text_8">
      <!-- 0.25 -->
      <g transform="translate(28.334375 183.30299)scale(0.1 -0.1)">
       <defs>
        <path id="DejaVuSans-32" d="M 1228 531 
L 3431 531 
L 3431 0 
L 469 0 
L 469 531 
Q 828 903 1448 1529 
Q 2069 2156 2228 2338 
Q 2531 2678 2651 2914 
Q 2772 3150 2772 3378 
Q 2772 3750 2511 3984 
Q 2250 4219 1831 4219 
Q 1534 4219 1204 4116 
Q 875 4013 500 3803 
L 500 4441 
Q 881 4594 1212 4672 
Q 1544 4750 1819 4750 
Q 2544 4750 2975 4387 
Q 3406 4025 3406 3419 
Q 3406 3131 3298 2873 
Q 3191 2616 2906 2266 
Q 2828 2175 2409 1742 
Q 1991 1309 1228 531 
z
" transform="scale(0.015625)"/>
        <path id="DejaVuSans-35" d="M 691 4666 
L 3169 4666 
L 3169 4134 
L 1269 4134 
L 1269 2991 
Q 1406 3038 1543 3061 
Q 1681 3084 1819 3084 
Q 2600 3084 3056 2656 
Q 3513 2228 3513 1497 
Q 3513 744 3044 326 
Q 2575 -91 1722 -91 
Q 1428 -91 1123 -41 
Q 819 9 494 109 
L 494 744 
Q 775 591 1075 516 
Q 1375 441 1709 441 
Q 2250 441 2565 725 
Q 2881 1009 2881 1497 
Q 2881 1984 2565 2268 
Q 2250 2553 1709 2553 
Q 1456 2553 1204 2497 
Q 953 2441 691 2322 
L 691 4666 
z
" transform="scale(0.015625)"/>
       </defs>
       <use xlink:href="#DejaVuSans-30"/>
       <use xlink:href="#DejaVuSans-2e" x="63.623047"/>
       <use xlink:href="#DejaVuSans-32" x="95.410156"/>
       <use xlink:href="#DejaVuSans-35" x="159.033203"/>
      </g>
     </g>
    </g>
    <g id="ytick_5">
     <g id="line2d_18">
      <g>
       <use xlink:href="#me831f080f3" x="57.6" y="154.239542" style="stroke: #000000; stroke-width: 0.8"/>
      </g>
     </g>
     <g id="text_9">
      <!-- 0.50 -->
      <g transform="translate(28.334375 158.038761)scale(0.1 -0.1)">
       <use xlink:href="#DejaVuSans-30"/>
       <use xlink:href="#DejaVuSans-2e" x="63.623047"/>
       <use xlink:href="#DejaVuSans-35" x="95.410156"/>
       <use xlink:href="#DejaVuSans-30" x="159.033203"/>
      </g>
     </g>
    </g>
    <g id="text_10">
     <!-- X_gen  -->
     <g transform="translate(21.976562 191.461594)rotate(-90)scale(0.1 -0.1)">
      <use xlink:href="#DejaVuSans-58"/>
      <use xlink:href="#DejaVuSans-5f" x="68.505859"/>
      <use xlink:href="#DejaVuSans-67" x="118.505859"/>
      <use xlink:href="#DejaVuSans-65" x="181.982422"/>
      <use xlink:href="#DejaVuSans-6e" x="243.505859"/>
      <use xlink:href="#DejaVuSans-20" x="306.884766"/>
     </g>
    </g>
   </g>
   <g id="line2d_19">
    <path d="M 73.832727 204.768 
L 78.480134 204.768 
L 79.144049 203.276723 
L 80.47188 175.579413 
L 81.135795 170.001606 
L 81.79971 168.167501 
L 82.463625 169.372828 
L 83.12754 194.076822 
L 83.791456 197.937628 
L 84.455371 202.521653 
L 85.119286 204.571778 
L 85.783201 204.768 
L 94.414099 204.768 
L 95.078015 204.56355 
L 95.74193 200.01933 
L 96.405845 192.531025 
L 97.06976 188.768924 
L 97.733675 191.674029 
L 98.397591 191.955143 
L 99.061506 189.35855 
L 99.725421 181.430651 
L 100.389336 179.462905 
L 101.053252 202.489375 
L 101.717167 204.768 
L 110.348065 204.768 
L 111.01198 204.34821 
L 111.675895 201.613994 
L 112.33981 199.413383 
L 113.667641 193.427797 
L 114.331556 199.26012 
L 114.995471 201.247278 
L 115.659387 201.939658 
L 116.323302 202.101711 
L 116.987217 204.402001 
L 117.651132 204.768 
L 126.28203 204.768 
L 126.945945 204.247023 
L 127.609861 201.56972 
L 128.273776 199.388142 
L 128.937691 188.208264 
L 129.601606 154.35041 
L 130.265521 159.107285 
L 130.929437 169.658211 
L 131.593352 191.94055 
L 132.257267 199.126305 
L 132.921182 204.062277 
L 133.585098 204.768 
L 142.215996 204.768 
L 142.879911 204.259095 
L 143.543826 199.677777 
L 144.207741 194.229146 
L 144.871656 190.844894 
L 145.535572 183.46029 
L 146.199487 184.539904 
L 148.191233 200.193674 
L 148.855148 204.091512 
L 149.519063 204.768 
L 158.149961 204.768 
L 158.813876 203.494093 
L 159.477791 190.37395 
L 160.141707 165.385222 
L 160.805622 152.061235 
L 161.469537 147.113101 
L 162.133452 147.091683 
L 162.797368 146.785575 
L 163.461283 153.990836 
L 164.125198 166.27295 
L 164.789113 201.969436 
L 165.453028 204.768 
L 174.083926 204.768 
L 174.747842 203.261376 
L 175.411757 180.162442 
L 176.075672 164.041875 
L 176.739587 151.30283 
L 177.403503 145.789575 
L 178.067418 147.284695 
L 178.731333 147.123657 
L 179.395248 154.590078 
L 180.059163 164.994853 
L 180.723079 201.422849 
L 181.386994 204.768 
L 190.017892 204.768 
L 190.681807 203.38768 
L 192.009637 170.761134 
L 192.673553 159.093089 
L 193.337468 150.146147 
L 194.001383 146.664556 
L 194.665298 152.22064 
L 195.329214 160.677416 
L 195.993129 186.665675 
L 196.657044 202.681899 
L 197.320959 204.768 
L 205.951857 204.768 
L 206.615772 203.071375 
L 207.279688 180.209396 
L 207.943603 162.750352 
L 208.607518 153.906903 
L 209.271433 149.864245 
L 209.935349 155.819107 
L 210.599264 168.740998 
L 211.927094 188.867424 
L 212.591009 202.884919 
L 213.254925 204.768 
L 221.885823 204.768 
L 222.549738 203.040673 
L 223.877568 167.223171 
L 224.541484 156.788459 
L 225.205399 152.384852 
L 225.869314 158.717883 
L 226.533229 145.114245 
L 227.197144 148.802201 
L 227.86106 158.398197 
L 228.524975 200.251502 
L 229.18889 204.768 
L 237.819788 204.768 
L 238.483703 203.836273 
L 239.811534 191.423589 
L 240.475449 187.639103 
L 241.139364 186.533006 
L 241.803279 183.115704 
L 242.467195 188.066311 
L 243.13111 186.348691 
L 243.795025 183.542973 
L 244.45894 201.501429 
L 245.122856 204.768 
L 253.753753 204.768 
L 254.417669 202.995072 
L 255.745499 161.696634 
L 256.409414 150.05752 
L 257.07333 145.55193 
L 257.737245 144.288 
L 258.40116 146.371446 
L 259.065075 150.134801 
L 259.728991 161.539002 
L 260.392906 199.050962 
L 261.056821 204.768 
L 269.687719 204.768 
L 270.351634 203.392721 
L 271.015549 192.192843 
L 271.679465 186.710363 
L 272.34338 174.122277 
L 273.007295 172.449713 
L 273.67121 165.557899 
L 274.335125 170.13271 
L 274.999041 175.604877 
L 275.662956 190.139938 
L 276.326871 201.772423 
L 276.990786 204.768 
L 285.621684 204.768 
L 286.2856 203.75008 
L 286.949515 199.170729 
L 287.61343 191.845772 
L 288.277345 176.836935 
L 288.94126 166.72009 
L 289.605176 163.414541 
L 290.933006 170.404693 
L 291.596921 173.208485 
L 292.260837 198.046153 
L 292.924752 204.768 
L 301.55565 204.768 
L 302.219565 203.360559 
L 302.88348 191.774552 
L 303.547395 185.545307 
L 304.211311 185.896887 
L 304.875226 182.203358 
L 305.539141 189.328802 
L 306.203056 191.300836 
L 306.866972 197.332515 
L 308.194802 204.075463 
L 308.858717 204.768 
L 317.489615 204.768 
L 318.15353 204.427805 
L 318.817446 201.936624 
L 319.481361 197.212572 
L 320.145276 190.883735 
L 320.809191 179.27627 
L 321.473107 183.3881 
L 322.137022 189.891698 
L 322.800937 181.735202 
L 323.464852 190.651346 
L 324.128767 201.211545 
L 324.792683 204.768 
L 333.423581 204.768 
L 334.087496 202.870122 
L 334.751411 180.998694 
L 335.415326 169.715562 
L 336.079241 169.140971 
L 336.743157 172.946637 
L 338.070987 177.798818 
L 338.734902 178.920953 
L 339.398818 191.269732 
L 340.062733 200.941281 
L 340.726648 204.768 
L 349.357546 204.768 
L 350.021461 202.527004 
L 350.685376 181.914137 
L 351.349292 165.134048 
L 352.013207 167.179921 
L 352.677122 164.588281 
L 353.341037 163.512184 
L 354.004953 157.021772 
L 354.668868 166.734437 
L 355.332783 178.845249 
L 355.996698 195.82203 
L 356.660613 204.768 
L 365.291511 204.768 
L 365.955427 202.627977 
L 366.619342 186.842238 
L 367.283257 168.262534 
L 367.947172 173.991214 
L 368.611088 181.85888 
L 369.275003 178.181814 
L 369.938918 172.460903 
L 370.602833 188.25542 
L 371.266748 175.205637 
L 371.930664 193.641301 
L 372.594579 204.768 
L 381.225477 204.768 
L 381.889392 203.900068 
L 382.553307 196.736347 
L 383.217223 186.006466 
L 384.545053 156.091472 
L 385.208968 148.735233 
L 385.872883 152.689405 
L 386.536799 145.924863 
L 387.200714 150.964898 
L 388.528544 204.768 
L 397.159442 204.768 
L 397.823358 202.344972 
L 398.487273 196.11814 
L 398.487273 196.11814 
" clip-path="url(#p57b4531c39)" style="fill: none; stroke: #1f77b4; stroke-width: 1.5; stroke-linecap: square"/>
   </g>
   <g id="patch_8">
    <path d="M 57.6 207.792 
L 57.6 141.264 
" style="fill: none; stroke: #000000; stroke-width: 0.8; stroke-linejoin: miter; stroke-linecap: square"/>
   </g>
   <g id="patch_9">
    <path d="M 414.72 207.792 
L 414.72 141.264 
" style="fill: none; stroke: #000000; stroke-width: 0.8; stroke-linejoin: miter; stroke-linecap: square"/>
   </g>
   <g id="patch_10">
    <path d="M 57.6 207.792 
L 414.72 207.792 
" style="fill: none; stroke: #000000; stroke-width: 0.8; stroke-linejoin: miter; stroke-linecap: square"/>
   </g>
   <g id="patch_11">
    <path d="M 57.6 141.264 
L 414.72 141.264 
" style="fill: none; stroke: #000000; stroke-width: 0.8; stroke-linejoin: miter; stroke-linecap: square"/>
   </g>
   <g id="text_11">
    <!-- X_gen  -->
    <g transform="translate(215.839687 135.264)scale(0.12 -0.12)">
     <use xlink:href="#DejaVuSans-58"/>
     <use xlink:href="#DejaVuSans-5f" x="68.505859"/>
     <use xlink:href="#DejaVuSans-67" x="118.505859"/>
     <use xlink:href="#DejaVuSans-65" x="181.982422"/>
     <use xlink:href="#DejaVuSans-6e" x="243.505859"/>
     <use xlink:href="#DejaVuSans-20" x="306.884766"/>
    </g>
   </g>
  </g>
  <g id="axes_3">
   <g id="patch_12">
    <path d="M 57.6 307.584 
L 414.72 307.584 
L 414.72 241.056 
L 57.6 241.056 
z
" style="fill: #ffffff"/>
   </g>
   <g id="matplotlib.axis_5">
    <g id="xtick_13">
     <g id="line2d_20">
      <g>
       <use xlink:href="#mec777f0f20" x="73.832727" y="307.584" style="stroke: #000000; stroke-width: 0.8"/>
      </g>
     </g>
     <g id="text_12">
      <!-- 0 -->
      <g transform="translate(70.651477 322.182437)scale(0.1 -0.1)">
       <use xlink:href="#DejaVuSans-30"/>
      </g>
     </g>
    </g>
    <g id="xtick_14">
     <g id="line2d_21">
      <g>
       <use xlink:href="#mec777f0f20" x="140.22425" y="307.584" style="stroke: #000000; stroke-width: 0.8"/>
      </g>
     </g>
     <g id="text_13">
      <!-- 100 -->
      <g transform="translate(130.6805 322.182437)scale(0.1 -0.1)">
       <use xlink:href="#DejaVuSans-31"/>
       <use xlink:href="#DejaVuSans-30" x="63.623047"/>
       <use xlink:href="#DejaVuSans-30" x="127.246094"/>
      </g>
     </g>
    </g>
    <g id="xtick_15">
     <g id="line2d_22">
      <g>
       <use xlink:href="#mec777f0f20" x="206.615772" y="307.584" style="stroke: #000000; stroke-width: 0.8"/>
      </g>
     </g>
     <g id="text_14">
      <!-- 200 -->
      <g transform="translate(197.072022 322.182437)scale(0.1 -0.1)">
       <use xlink:href="#DejaVuSans-32"/>
       <use xlink:href="#DejaVuSans-30" x="63.623047"/>
       <use xlink:href="#DejaVuSans-30" x="127.246094"/>
      </g>
     </g>
    </g>
    <g id="xtick_16">
     <g id="line2d_23">
      <g>
       <use xlink:href="#mec777f0f20" x="273.007295" y="307.584" style="stroke: #000000; stroke-width: 0.8"/>
      </g>
     </g>
     <g id="text_15">
      <!-- 300 -->
      <g transform="translate(263.463545 322.182437)scale(0.1 -0.1)">
       <defs>
        <path id="DejaVuSans-33" d="M 2597 2516 
Q 3050 2419 3304 2112 
Q 3559 1806 3559 1356 
Q 3559 666 3084 287 
Q 2609 -91 1734 -91 
Q 1441 -91 1130 -33 
Q 819 25 488 141 
L 488 750 
Q 750 597 1062 519 
Q 1375 441 1716 441 
Q 2309 441 2620 675 
Q 2931 909 2931 1356 
Q 2931 1769 2642 2001 
Q 2353 2234 1838 2234 
L 1294 2234 
L 1294 2753 
L 1863 2753 
Q 2328 2753 2575 2939 
Q 2822 3125 2822 3475 
Q 2822 3834 2567 4026 
Q 2313 4219 1838 4219 
Q 1578 4219 1281 4162 
Q 984 4106 628 3988 
L 628 4550 
Q 988 4650 1302 4700 
Q 1616 4750 1894 4750 
Q 2613 4750 3031 4423 
Q 3450 4097 3450 3541 
Q 3450 3153 3228 2886 
Q 3006 2619 2597 2516 
z
" transform="scale(0.015625)"/>
       </defs>
       <use xlink:href="#DejaVuSans-33"/>
       <use xlink:href="#DejaVuSans-30" x="63.623047"/>
       <use xlink:href="#DejaVuSans-30" x="127.246094"/>
      </g>
     </g>
    </g>
    <g id="xtick_17">
     <g id="line2d_24">
      <g>
       <use xlink:href="#mec777f0f20" x="339.398818" y="307.584" style="stroke: #000000; stroke-width: 0.8"/>
      </g>
     </g>
     <g id="text_16">
      <!-- 400 -->
      <g transform="translate(329.855068 322.182437)scale(0.1 -0.1)">
       <defs>
        <path id="DejaVuSans-34" d="M 2419 4116 
L 825 1625 
L 2419 1625 
L 2419 4116 
z
M 2253 4666 
L 3047 4666 
L 3047 1625 
L 3713 1625 
L 3713 1100 
L 3047 1100 
L 3047 0 
L 2419 0 
L 2419 1100 
L 313 1100 
L 313 1709 
L 2253 4666 
z
" transform="scale(0.015625)"/>
       </defs>
       <use xlink:href="#DejaVuSans-34"/>
       <use xlink:href="#DejaVuSans-30" x="63.623047"/>
       <use xlink:href="#DejaVuSans-30" x="127.246094"/>
      </g>
     </g>
    </g>
    <g id="xtick_18">
     <g id="line2d_25">
      <g>
       <use xlink:href="#mec777f0f20" x="405.79034" y="307.584" style="stroke: #000000; stroke-width: 0.8"/>
      </g>
     </g>
     <g id="text_17">
      <!-- 500 -->
      <g transform="translate(396.24659 322.182437)scale(0.1 -0.1)">
       <use xlink:href="#DejaVuSans-35"/>
       <use xlink:href="#DejaVuSans-30" x="63.623047"/>
       <use xlink:href="#DejaVuSans-30" x="127.246094"/>
      </g>
     </g>
    </g>
    <g id="text_18">
     <!-- Time -->
     <g transform="translate(223.926406 335.860562)scale(0.1 -0.1)">
      <use xlink:href="#DejaVuSans-54"/>
      <use xlink:href="#DejaVuSans-69" x="57.958984"/>
      <use xlink:href="#DejaVuSans-6d" x="85.742188"/>
      <use xlink:href="#DejaVuSans-65" x="183.154297"/>
     </g>
    </g>
   </g>
   <g id="matplotlib.axis_6">
    <g id="ytick_6">
     <g id="line2d_26">
      <g>
       <use xlink:href="#me831f080f3" x="57.6" y="304.699425" style="stroke: #000000; stroke-width: 0.8"/>
      </g>
     </g>
     <g id="text_19">
      <!-- 0 -->
      <g transform="translate(44.2375 308.498643)scale(0.1 -0.1)">
       <use xlink:href="#DejaVuSans-30"/>
      </g>
     </g>
    </g>
    <g id="ytick_7">
     <g id="line2d_27">
      <g>
       <use xlink:href="#me831f080f3" x="57.6" y="274.389712" style="stroke: #000000; stroke-width: 0.8"/>
      </g>
     </g>
     <g id="text_20">
      <!-- 50 -->
      <g transform="translate(37.875 278.188931)scale(0.1 -0.1)">
       <use xlink:href="#DejaVuSans-35"/>
       <use xlink:href="#DejaVuSans-30" x="63.623047"/>
      </g>
     </g>
    </g>
    <g id="ytick_8">
     <g id="line2d_28">
      <g>
       <use xlink:href="#me831f080f3" x="57.6" y="244.08" style="stroke: #000000; stroke-width: 0.8"/>
      </g>
     </g>
     <g id="text_21">
      <!-- 100 -->
      <g transform="translate(31.5125 247.879219)scale(0.1 -0.1)">
       <use xlink:href="#DejaVuSans-31"/>
       <use xlink:href="#DejaVuSans-30" x="63.623047"/>
       <use xlink:href="#DejaVuSans-30" x="127.246094"/>
      </g>
     </g>
    </g>
    <g id="text_22">
     <!-- price  -->
     <g transform="translate(25.432812 288.353594)rotate(-90)scale(0.1 -0.1)">
      <defs>
       <path id="DejaVuSans-70" d="M 1159 525 
L 1159 -1331 
L 581 -1331 
L 581 3500 
L 1159 3500 
L 1159 2969 
Q 1341 3281 1617 3432 
Q 1894 3584 2278 3584 
Q 2916 3584 3314 3078 
Q 3713 2572 3713 1747 
Q 3713 922 3314 415 
Q 2916 -91 2278 -91 
Q 1894 -91 1617 61 
Q 1341 213 1159 525 
z
M 3116 1747 
Q 3116 2381 2855 2742 
Q 2594 3103 2138 3103 
Q 1681 3103 1420 2742 
Q 1159 2381 1159 1747 
Q 1159 1113 1420 752 
Q 1681 391 2138 391 
Q 2594 391 2855 752 
Q 3116 1113 3116 1747 
z
" transform="scale(0.015625)"/>
       <path id="DejaVuSans-72" d="M 2631 2963 
Q 2534 3019 2420 3045 
Q 2306 3072 2169 3072 
Q 1681 3072 1420 2755 
Q 1159 2438 1159 1844 
L 1159 0 
L 581 0 
L 581 3500 
L 1159 3500 
L 1159 2956 
Q 1341 3275 1631 3429 
Q 1922 3584 2338 3584 
Q 2397 3584 2469 3576 
Q 2541 3569 2628 3553 
L 2631 2963 
z
" transform="scale(0.015625)"/>
       <path id="DejaVuSans-63" d="M 3122 3366 
L 3122 2828 
Q 2878 2963 2633 3030 
Q 2388 3097 2138 3097 
Q 1578 3097 1268 2742 
Q 959 2388 959 1747 
Q 959 1106 1268 751 
Q 1578 397 2138 397 
Q 2388 397 2633 464 
Q 2878 531 3122 666 
L 3122 134 
Q 2881 22 2623 -34 
Q 2366 -91 2075 -91 
Q 1284 -91 818 406 
Q 353 903 353 1747 
Q 353 2603 823 3093 
Q 1294 3584 2113 3584 
Q 2378 3584 2631 3529 
Q 2884 3475 3122 3366 
z
" transform="scale(0.015625)"/>
      </defs>
      <use xlink:href="#DejaVuSans-70"/>
      <use xlink:href="#DejaVuSans-72" x="63.476562"/>
      <use xlink:href="#DejaVuSans-69" x="104.589844"/>
      <use xlink:href="#DejaVuSans-63" x="132.373047"/>
      <use xlink:href="#DejaVuSans-65" x="187.353516"/>
      <use xlink:href="#DejaVuSans-20" x="248.876953"/>
     </g>
    </g>
   </g>
   <g id="line2d_29">
    <path d="M 73.832727 285.998332 
L 74.496642 288.811073 
L 75.160558 287.441074 
L 75.824473 288.732268 
L 77.152303 289.617312 
L 77.816219 289.150542 
L 78.480134 282.973423 
L 79.144049 285.689173 
L 79.807964 266.200028 
L 80.47188 283.106786 
L 81.135795 280.294044 
L 81.79971 276.262853 
L 82.463625 281.063911 
L 83.12754 280.972982 
L 83.791456 278.608824 
L 84.455371 289.587002 
L 85.119286 283.803909 
L 85.783201 288.289746 
L 86.447117 285.14966 
L 87.111032 289.441515 
L 87.774947 282.797627 
L 88.438862 279.93639 
L 89.102777 278.905859 
L 89.766693 268.546 
L 90.430608 287.483508 
L 91.094523 283.961519 
L 91.758438 289.041427 
L 92.422354 283.797847 
L 93.086269 287.689614 
L 93.750184 285.489129 
L 94.414099 284.404041 
L 95.078015 289.787046 
L 95.74193 290.065896 
L 96.405845 286.756075 
L 97.06976 256.791893 
L 97.733675 281.609486 
L 98.397591 280.391035 
L 99.061506 266.145471 
L 99.725421 278.778559 
L 100.389336 288.79895 
L 101.717167 289.896161 
L 102.381082 288.053331 
L 103.044997 289.374834 
L 103.708912 289.332401 
L 104.372828 289.974966 
L 105.036743 285.040545 
L 105.700658 288.204879 
L 106.364573 290.229568 
L 107.692404 295.254918 
L 108.356319 296.158148 
L 109.020234 294.994255 
L 109.684149 295.309476 
L 110.348065 291.866292 
L 111.01198 292.230009 
L 111.675895 290.381117 
L 113.003726 284.707138 
L 113.667641 284.567714 
L 114.331556 285.525501 
L 114.995471 284.100944 
L 115.659387 285.816474 
L 116.323302 288.33218 
L 116.987217 288.950498 
L 117.651132 287.998773 
L 119.642878 287.174349 
L 120.306793 288.162446 
L 120.970708 287.980587 
L 121.634624 287.665366 
L 122.298539 288.289746 
L 122.962454 289.229347 
L 123.626369 285.737669 
L 124.290284 288.259437 
L 124.9542 288.253375 
L 125.618115 287.059172 
L 126.28203 288.877755 
L 126.945945 289.514259 
L 127.609861 288.592844 
L 128.273776 285.264837 
L 128.937691 281.136654 
L 129.601606 283.71298 
L 130.265521 285.501253 
L 130.929437 284.482847 
L 131.593352 287.901782 
L 132.257267 287.27134 
L 133.585098 289.302091 
L 134.249013 288.514038 
L 134.912928 288.477667 
L 135.576843 287.841163 
L 136.240759 287.544127 
L 136.904674 283.658422 
L 137.568589 289.132356 
L 138.232504 282.270238 
L 138.896419 288.902003 
L 139.560335 288.908065 
L 140.22425 288.79895 
L 140.888165 291.842045 
L 141.55208 291.29647 
L 142.215996 287.89572 
L 142.879911 279.372629 
L 143.543826 290.684214 
L 144.207741 285.767978 
L 144.871656 289.095985 
L 145.535572 285.270899 
L 146.199487 272.94697 
L 146.863402 272.049803 
L 147.527317 280.469841 
L 148.191233 285.955899 
L 148.855148 288.071516 
L 149.519063 286.8955 
L 150.182978 286.598464 
L 150.846893 284.949616 
L 151.510809 277.863205 
L 152.174724 285.604306 
L 152.838639 278.517895 
L 154.16647 282.676388 
L 154.830385 302.086727 
L 155.4943 298.625358 
L 156.158215 292.333062 
L 156.822131 289.744613 
L 157.486046 291.163107 
L 158.149961 289.653683 
L 158.813876 289.405144 
L 159.477791 286.762137 
L 160.141707 275.208075 
L 160.805622 289.629436 
L 161.469537 287.86541 
L 162.133452 280.597141 
L 162.797368 289.199038 
L 163.461283 293.745495 
L 164.125198 294.582043 
L 164.789113 294.497176 
L 166.116944 295.07306 
L 166.780859 294.715405 
L 167.444774 294.988193 
L 168.108689 294.60629 
L 168.772605 292.648283 
L 169.43652 292.466425 
L 170.100435 292.805894 
L 170.76435 292.502796 
L 171.428265 291.823859 
L 172.092181 292.163328 
L 172.756096 292.260319 
L 173.420011 292.011779 
L 174.083926 290.387179 
L 174.747842 292.430053 
L 175.411757 293.290849 
L 176.075672 293.127177 
L 176.739587 293.406026 
L 177.403503 294.400184 
L 178.067418 293.539389 
L 178.731333 289.526383 
L 179.395248 289.926471 
L 180.059163 290.750895 
L 180.723079 288.829259 
L 181.386994 289.42333 
L 182.050909 287.538066 
L 182.714824 286.404482 
L 183.37874 284.252493 
L 184.042655 283.779661 
L 185.370485 290.902444 
L 186.0344 292.084522 
L 186.698316 294.272884 
L 187.362231 295.679254 
L 188.026146 292.945318 
L 188.690061 292.878637 
L 189.353977 292.096646 
L 190.017892 291.73293 
L 190.681807 290.914568 
L 191.345722 288.98687 
L 192.673553 288.665587 
L 193.337468 287.750234 
L 194.001383 285.392138 
L 194.665298 271.255688 
L 195.329214 285.234527 
L 195.993129 291.229789 
L 196.657044 289.702179 
L 197.320959 284.610147 
L 197.984875 282.755193 
L 198.64879 281.37307 
L 199.312705 271.473918 
L 199.97662 270.697989 
L 200.640535 261.780872 
L 201.304451 275.741526 
L 201.968366 286.168067 
L 202.632281 288.235189 
L 203.296196 286.477226 
L 203.960112 287.974525 
L 204.624027 287.628995 
L 205.287942 284.028201 
L 205.951857 279.487806 
L 206.615772 284.282802 
L 207.279688 286.768199 
L 207.943603 279.900018 
L 208.607518 282.815812 
L 209.935349 277.608604 
L 210.599264 278.475462 
L 211.263179 282.833998 
L 211.927094 282.288423 
L 212.591009 279.051346 
L 213.254925 280.318292 
L 213.91884 272.037679 
L 214.582755 284.137316 
L 215.24667 283.628113 
L 215.910586 279.845461 
L 216.574501 276.881171 
L 217.238416 274.47458 
L 217.902331 244.08 
L 218.566247 280.760814 
L 219.230162 281.112407 
L 219.894077 282.694574 
L 220.557992 283.397759 
L 221.221907 283.579617 
L 221.885823 273.510731 
L 222.549738 275.959755 
L 223.213653 275.905198 
L 223.877568 277.638914 
L 224.541484 277.554046 
L 225.205399 281.797406 
L 225.869314 278.717939 
L 226.533229 244.08 
L 227.197144 280.803247 
L 227.86106 280.403159 
L 228.524975 282.21568 
L 229.18889 282.306609 
L 229.852805 283.573555 
L 230.516721 283.112848 
L 231.180636 276.475021 
L 231.844551 244.08 
L 232.508466 292.411867 
L 233.172381 266.64255 
L 233.836297 265.787816 
L 234.500212 286.586341 
L 235.164127 288.344304 
L 235.828042 287.610809 
L 236.491958 284.234307 
L 237.155873 283.906962 
L 237.819788 283.373511 
L 238.483703 284.100944 
L 239.147619 278.542143 
L 239.811534 257.09499 
L 240.475449 280.130372 
L 241.803279 250.990614 
L 242.467195 244.08 
L 243.13111 259.525829 
L 243.795025 249.826721 
L 244.45894 283.615989 
L 245.122856 281.306389 
L 245.786771 282.136875 
L 246.450686 286.18019 
L 247.114601 267.897372 
L 247.778516 281.37307 
L 248.442432 270.152415 
L 249.106347 275.232322 
L 250.434177 288.962622 
L 251.098093 290.926691 
L 251.762008 298.861774 
L 252.425923 295.782307 
L 253.089838 300.383322 
L 253.753753 296.624917 
L 254.417669 288.071516 
L 255.081584 288.11395 
L 255.745499 289.532445 
L 256.409414 287.938154 
L 257.07333 287.974525 
L 257.737245 286.525721 
L 258.40116 263.423658 
L 259.065075 282.718821 
L 259.728991 286.737889 
L 260.392906 286.125633 
L 261.056821 284.973864 
L 261.720736 285.974084 
L 262.384651 284.404041 
L 263.048567 283.221963 
L 263.712482 285.107227 
L 264.376397 284.913244 
L 265.040312 287.325898 
L 265.704228 283.0886 
L 266.368143 290.744833 
L 267.032058 291.70262 
L 267.695973 298.801155 
L 268.359888 304.56 
L 269.023804 290.193196 
L 269.687719 290.284125 
L 270.351634 289.271781 
L 271.015549 288.592844 
L 271.679465 288.217003 
L 272.34338 287.562313 
L 273.007295 286.010456 
L 273.67121 283.809971 
L 274.335125 282.530901 
L 274.999041 285.610368 
L 275.662956 286.701517 
L 276.326871 286.604526 
L 276.990786 285.404262 
L 277.654702 287.647181 
L 278.318617 288.374614 
L 278.982532 288.326118 
L 279.646447 288.786826 
L 280.310363 285.604306 
L 280.974278 286.925809 
L 281.638193 287.0228 
L 282.302108 288.204879 
L 282.966023 287.671428 
L 283.629939 285.543686 
L 284.293854 285.355766 
L 284.957769 287.568375 
L 285.621684 285.83466 
L 286.2856 281.045725 
L 286.949515 278.511833 
L 287.61343 284.08882 
L 288.277345 287.016738 
L 288.94126 287.192535 
L 289.605176 284.719262 
L 290.933006 261.36866 
L 291.596921 285.519439 
L 292.260837 286.113509 
L 292.924752 286.937933 
L 293.588667 285.689173 
L 294.252582 288.08364 
L 295.580413 284.446475 
L 296.244328 276.602321 
L 296.908243 276.184047 
L 297.572158 283.476564 
L 298.236074 271.122325 
L 298.899989 279.93639 
L 299.563904 281.870149 
L 300.227819 283.282582 
L 300.891735 281.827716 
L 301.55565 282.846122 
L 302.219565 285.252713 
L 302.88348 283.215901 
L 303.547395 282.80975 
L 304.211311 280.506212 
L 304.875226 280.651699 
L 305.539141 277.723781 
L 306.203056 273.9775 
L 306.866972 276.850861 
L 307.530887 280.56077 
L 308.194802 280.71838 
L 308.858717 283.215901 
L 309.522632 284.107006 
L 310.186548 280.100062 
L 310.850463 280.300106 
L 311.514378 284.579838 
L 312.178293 283.840281 
L 312.842209 283.74329 
L 313.506124 279.390815 
L 314.170039 284.822315 
L 314.833954 287.071296 
L 315.497869 288.217003 
L 316.161785 288.08364 
L 316.8257 286.574217 
L 317.489615 286.549969 
L 318.15353 287.574437 
L 318.817446 286.204438 
L 319.481361 278.717939 
L 320.145276 281.197274 
L 320.809191 285.598244 
L 321.473107 281.336698 
L 322.137022 280.724442 
L 322.800937 264.284454 
L 323.464852 286.155943 
L 324.128767 283.646298 
L 324.792683 286.42873 
L 325.456598 284.74351 
L 326.120513 285.913465 
L 326.784428 286.119571 
L 327.448344 285.822536 
L 328.112259 286.465102 
L 328.776174 284.646519 
L 329.440089 288.077578 
L 330.104004 287.313774 
L 330.76792 287.586561 
L 331.431835 287.701738 
L 332.759665 287.465322 
L 333.423581 287.150101 
L 334.087496 287.27134 
L 335.415326 284.591962 
L 336.079241 282.397538 
L 336.743157 279.524178 
L 337.407072 274.729181 
L 338.070987 273.504669 
L 338.734902 268.830911 
L 339.398818 279.348381 
L 340.062733 276.94179 
L 340.726648 278.039002 
L 341.390563 278.911921 
L 342.054479 275.292942 
L 342.718394 277.675285 
L 343.382309 276.250729 
L 344.046224 277.438869 
L 344.710139 274.704933 
L 345.374055 278.705815 
L 346.03797 280.663823 
L 346.701885 274.85042 
L 347.3658 281.094221 
L 348.029716 282.80975 
L 348.693631 281.62161 
L 349.357546 278.148117 
L 350.021461 280.433469 
L 350.685376 273.450111 
L 351.349292 274.747367 
L 352.013207 263.569145 
L 352.677122 261.295917 
L 353.341037 245.959202 
L 354.004953 246.365352 
L 354.668868 265.418037 
L 355.332783 274.353341 
L 355.996698 276.75387 
L 357.324529 267.636708 
L 357.988444 264.842153 
L 358.652359 263.27211 
L 359.316274 265.902993 
L 359.98019 274.959535 
L 360.644105 266.957771 
L 361.30802 273.528917 
L 361.971935 278.566391 
L 362.635851 282.24599 
L 363.299766 278.942231 
L 364.627596 269.194628 
L 365.291511 274.456394 
L 365.955427 278.281479 
L 367.947172 261.671757 
L 368.611088 244.08 
L 369.275003 244.637699 
L 369.938918 244.08 
L 370.602833 245.043849 
L 371.266748 264.33295 
L 371.930664 265.187684 
L 372.594579 265.848435 
L 373.258494 251.833224 
L 373.922409 270.564627 
L 374.586325 270.116043 
L 375.25024 269.461353 
L 375.914155 266.648612 
L 377.241985 257.452645 
L 377.905901 280.597141 
L 378.569816 274.868606 
L 379.233731 281.367008 
L 379.897646 281.063911 
L 380.561562 278.584577 
L 381.225477 279.105904 
L 382.553307 273.795642 
L 383.217223 264.605737 
L 383.881138 267.491222 
L 384.545053 264.636047 
L 385.208968 267.709452 
L 385.872883 244.08 
L 386.536799 268.891531 
L 387.200714 283.797847 
L 387.864629 285.743731 
L 388.528544 286.507535 
L 389.19246 279.136213 
L 389.856375 281.421566 
L 391.184205 279.111966 
L 391.84812 280.50015 
L 392.512036 276.093118 
L 393.175951 279.845461 
L 393.839866 280.9063 
L 394.503781 280.754752 
L 395.167697 279.851523 
L 395.831612 281.063911 
L 397.159442 280.015195 
L 397.823358 281.56099 
L 398.487273 281.651919 
L 398.487273 281.651919 
" clip-path="url(#p3f69e85f1a)" style="fill: none; stroke: #1f77b4; stroke-width: 1.5; stroke-linecap: square"/>
   </g>
   <g id="patch_13">
    <path d="M 57.6 307.584 
L 57.6 241.056 
" style="fill: none; stroke: #000000; stroke-width: 0.8; stroke-linejoin: miter; stroke-linecap: square"/>
   </g>
   <g id="patch_14">
    <path d="M 414.72 307.584 
L 414.72 241.056 
" style="fill: none; stroke: #000000; stroke-width: 0.8; stroke-linejoin: miter; stroke-linecap: square"/>
   </g>
   <g id="patch_15">
    <path d="M 57.6 307.584 
L 414.72 307.584 
" style="fill: none; stroke: #000000; stroke-width: 0.8; stroke-linejoin: miter; stroke-linecap: square"/>
   </g>
   <g id="patch_16">
    <path d="M 57.6 241.056 
L 414.72 241.056 
" style="fill: none; stroke: #000000; stroke-width: 0.8; stroke-linejoin: miter; stroke-linecap: square"/>
   </g>
   <g id="text_23">
    <!-- price -->
    <g transform="translate(221.226562 235.056)scale(0.12 -0.12)">
     <use xlink:href="#DejaVuSans-70"/>
     <use xlink:href="#DejaVuSans-72" x="63.476562"/>
     <use xlink:href="#DejaVuSans-69" x="104.589844"/>
     <use xlink:href="#DejaVuSans-63" x="132.373047"/>
     <use xlink:href="#DejaVuSans-65" x="187.353516"/>
    </g>
   </g>
  </g>
 </g>
 <defs>
  <clipPath id="p9d8f374caa">
   <rect x="57.6" y="41.472" width="357.12" height="66.528"/>
  </clipPath>
  <clipPath id="p57b4531c39">
   <rect x="57.6" y="141.264" width="357.12" height="66.528"/>
  </clipPath>
  <clipPath id="p3f69e85f1a">
   <rect x="57.6" y="241.056" width="357.12" height="66.528"/>
  </clipPath>
 </defs>
</svg>
